%FSLAX46Y46*%
%MOMM*%
%ADD10C,0.150000*%
%ADD11C,0.300000*%
%AMPS14*
1,1,1.400000,0.000000,0.000000*
%
%ADD14PS14*%
%AMPS13*
1,1,1.700000,0.000000,0.000000*
%
%ADD13PS13*%
%AMPS15*
1,1,0.400000,0.000000,0.000000*
%
%ADD15PS15*%
%AMPS12*
1,1,0.787400,0.000000,0.000000*
%
%ADD12PS12*%
G01*
%LPD*%
G36*
X-23535888Y-690000D02*
X-23480025Y-682040D01*
X-23428609Y-658794D01*
X-23385733Y-622111D01*
X-23354808Y-574913D01*
X-23338298Y-520955D01*
X-23337516Y-464534D01*
X-23352524Y-410139D01*
X-23394467Y-348579D01*
X-23615544Y-127502D01*
X-23618109Y-124672D01*
X-23624878Y-117563D01*
X-23627559Y-114882D01*
X-23634148Y-107612D01*
X-23650036Y-88252D01*
X-23655865Y-80392D01*
X-23669757Y-59602D01*
X-23674812Y-51169D01*
X-23686603Y-29109D01*
X-23690796Y-20243D01*
X-23700369Y2869D01*
X-23703670Y12093D01*
X-23710933Y36036D01*
X-23713317Y45551D01*
X-23718201Y70105D01*
X-23719640Y79809D01*
X-23722090Y104685D01*
X-23722572Y114486D01*
X-23722572Y139514D01*
X-23722090Y149315D01*
X-23719640Y174191D01*
X-23718201Y183895D01*
X-23713317Y208449D01*
X-23710933Y217964D01*
X-23703670Y241907D01*
X-23700369Y251131D01*
X-23690796Y274243D01*
X-23686603Y283109D01*
X-23674812Y305169D01*
X-23669757Y313602D01*
X-23655865Y334392D01*
X-23650036Y342252D01*
X-23634148Y361612D01*
X-23627559Y368882D01*
X-23609882Y386559D01*
X-23602612Y393148D01*
X-23583252Y409036D01*
X-23575392Y414865D01*
X-23554602Y428757D01*
X-23546169Y433812D01*
X-23524109Y445603D01*
X-23515243Y449796D01*
X-23492131Y459369D01*
X-23482907Y462670D01*
X-23458964Y469933D01*
X-23449449Y472317D01*
X-23424895Y477201D01*
X-23415191Y478640D01*
X-23390315Y481090D01*
X-23380514Y481572D01*
X-23355486Y481572D01*
X-23345685Y481090D01*
X-23320809Y478640D01*
X-23311105Y477201D01*
X-23286551Y472317D01*
X-23277036Y469933D01*
X-23253093Y462670D01*
X-23243869Y459369D01*
X-23220757Y449796D01*
X-23211891Y445603D01*
X-23189831Y433812D01*
X-23181398Y428757D01*
X-23160608Y414865D01*
X-23152748Y409036D01*
X-23133388Y393148D01*
X-23126118Y386559D01*
X-23123437Y383878D01*
X-23116328Y377109D01*
X-23113498Y374544D01*
X-22652548Y-86406D01*
X-22607419Y-120279D01*
X-22554625Y-140198D01*
X-22511127Y-144985D01*
X-5635000Y-144985D01*
X-5579137Y-137025D01*
X-5527721Y-113779D01*
X-5484845Y-77096D01*
X-5453920Y-29898D01*
X-5437410Y24060D01*
X-5435000Y55015D01*
X-5435000Y2154090D01*
X-5434813Y2157896D01*
X-5434572Y2167711D01*
X-5434572Y2171514D01*
X-5434090Y2181315D01*
X-5431640Y2206191D01*
X-5430201Y2215895D01*
X-5425317Y2240449D01*
X-5422933Y2249964D01*
X-5415670Y2273907D01*
X-5412369Y2283131D01*
X-5402796Y2306243D01*
X-5398603Y2315109D01*
X-5386812Y2337169D01*
X-5381757Y2345602D01*
X-5367865Y2366392D01*
X-5362036Y2374252D01*
X-5346148Y2393612D01*
X-5339559Y2400882D01*
X-5321882Y2418559D01*
X-5314612Y2425148D01*
X-5295252Y2441036D01*
X-5287392Y2446865D01*
X-5266602Y2460757D01*
X-5258169Y2465812D01*
X-5236109Y2477603D01*
X-5227243Y2481796D01*
X-5204131Y2491369D01*
X-5194907Y2494670D01*
X-5170964Y2501933D01*
X-5161449Y2504317D01*
X-5136895Y2509201D01*
X-5127191Y2510640D01*
X-5102315Y2513090D01*
X-5092514Y2513572D01*
X-5067486Y2513572D01*
X-5057685Y2513090D01*
X-5032809Y2510640D01*
X-5023105Y2509201D01*
X-4998551Y2504317D01*
X-4989036Y2501933D01*
X-4965093Y2494670D01*
X-4955869Y2491369D01*
X-4932757Y2481796D01*
X-4923891Y2477603D01*
X-4901831Y2465812D01*
X-4893398Y2460757D01*
X-4872608Y2446865D01*
X-4864748Y2441036D01*
X-4845388Y2425148D01*
X-4838118Y2418559D01*
X-4820441Y2400882D01*
X-4813852Y2393612D01*
X-4797964Y2374252D01*
X-4792135Y2366392D01*
X-4778243Y2345602D01*
X-4773188Y2337169D01*
X-4761397Y2315109D01*
X-4757204Y2306243D01*
X-4747631Y2283131D01*
X-4744330Y2273907D01*
X-4737067Y2249964D01*
X-4734683Y2240449D01*
X-4729799Y2215895D01*
X-4728360Y2206191D01*
X-4725910Y2181315D01*
X-4725428Y2171514D01*
X-4725428Y2167713D01*
X-4725187Y2157900D01*
X-4725000Y2154093D01*
X-4725000Y55015D01*
X-4717040Y-848D01*
X-4693794Y-52264D01*
X-4657111Y-95140D01*
X-4609913Y-126065D01*
X-4555955Y-142575D01*
X-4525000Y-144985D01*
X4398000Y-144985D01*
X4453863Y-137025D01*
X4505279Y-113779D01*
X4548155Y-77096D01*
X4579080Y-29898D01*
X4595590Y24060D01*
X4598000Y55015D01*
X4598000Y757093D01*
X4598187Y760900D01*
X4598428Y770713D01*
X4598428Y774514D01*
X4598910Y784315D01*
X4601360Y809191D01*
X4602799Y818895D01*
X4607683Y843449D01*
X4610067Y852964D01*
X4617330Y876907D01*
X4620631Y886131D01*
X4630204Y909243D01*
X4634397Y918109D01*
X4646188Y940169D01*
X4651243Y948602D01*
X4665135Y969392D01*
X4670964Y977252D01*
X4686852Y996612D01*
X4693441Y1003882D01*
X4702285Y1012726D01*
X4704106Y1015152D01*
X6063421Y2374467D01*
X6097294Y2419596D01*
X6117213Y2472390D01*
X6122000Y2515888D01*
X6122000Y8406112D01*
X6114040Y8461975D01*
X6090794Y8513391D01*
X6063421Y8547533D01*
X4197451Y10413503D01*
X4194885Y10416334D01*
X4188119Y10423440D01*
X4185441Y10426118D01*
X4178852Y10433388D01*
X4162964Y10452748D01*
X4157135Y10460608D01*
X4143243Y10481398D01*
X4138188Y10489831D01*
X4126397Y10511891D01*
X4122204Y10520757D01*
X4112631Y10543869D01*
X4109330Y10553093D01*
X4102067Y10577036D01*
X4099683Y10586551D01*
X4094799Y10611105D01*
X4093360Y10620809D01*
X4090910Y10645685D01*
X4090428Y10655486D01*
X4090428Y10680514D01*
X4090910Y10690315D01*
X4093360Y10715191D01*
X4094799Y10724895D01*
X4099683Y10749449D01*
X4102067Y10758964D01*
X4109330Y10782907D01*
X4112631Y10792131D01*
X4122204Y10815243D01*
X4126397Y10824109D01*
X4138188Y10846169D01*
X4143243Y10854602D01*
X4157135Y10875392D01*
X4162964Y10883252D01*
X4178852Y10902612D01*
X4185441Y10909882D01*
X4203118Y10927559D01*
X4210388Y10934148D01*
X4229748Y10950036D01*
X4237608Y10955865D01*
X4258398Y10969757D01*
X4266831Y10974812D01*
X4288891Y10986603D01*
X4297757Y10990796D01*
X4320869Y11000369D01*
X4330093Y11003670D01*
X4354036Y11010933D01*
X4363551Y11013317D01*
X4388105Y11018201D01*
X4397809Y11019640D01*
X4422685Y11022090D01*
X4432486Y11022572D01*
X4457514Y11022572D01*
X4467315Y11022090D01*
X4492191Y11019640D01*
X4501895Y11018201D01*
X4526449Y11013317D01*
X4535964Y11010933D01*
X4559907Y11003670D01*
X4569131Y11000369D01*
X4592243Y10990796D01*
X4601109Y10986603D01*
X4623169Y10974812D01*
X4631602Y10969757D01*
X4652392Y10955865D01*
X4660252Y10950036D01*
X4679612Y10934148D01*
X4686882Y10927559D01*
X4689564Y10924877D01*
X4696674Y10918107D01*
X4699503Y10915543D01*
X6724543Y8890503D01*
X6744653Y8868315D01*
X6753959Y8856975D01*
X6787143Y8807310D01*
X6791747Y8798697D01*
X6814604Y8743513D01*
X6817438Y8734170D01*
X6829094Y8675581D01*
X6830531Y8660995D01*
X6832000Y8631090D01*
X6832000Y2290910D01*
X6830531Y2261004D01*
X6829094Y2246417D01*
X6817439Y2187831D01*
X6814604Y2178486D01*
X6791747Y2123302D01*
X6787143Y2114689D01*
X6753959Y2065024D01*
X6747532Y2057193D01*
X6726211Y2035710D01*
X6718788Y2025742D01*
X5366579Y673533D01*
X5332706Y628404D01*
X5312787Y575610D01*
X5308000Y532112D01*
X5308000Y55015D01*
X5315960Y-848D01*
X5339206Y-52264D01*
X5375889Y-95140D01*
X5423087Y-126065D01*
X5477045Y-142575D01*
X5508000Y-144985D01*
X20273000Y-144985D01*
X20328863Y-137025D01*
X20380279Y-113779D01*
X20423155Y-77096D01*
X20454080Y-29898D01*
X20470590Y24060D01*
X20473000Y55015D01*
X20473000Y7234093D01*
X20473187Y7237900D01*
X20473428Y7247713D01*
X20473428Y7251514D01*
X20473910Y7261315D01*
X20476360Y7286191D01*
X20477799Y7295895D01*
X20482683Y7320449D01*
X20485067Y7329964D01*
X20492330Y7353907D01*
X20495631Y7363131D01*
X20505204Y7386243D01*
X20509397Y7395109D01*
X20521188Y7417169D01*
X20526243Y7425602D01*
X20540135Y7446392D01*
X20545964Y7454252D01*
X20561852Y7473612D01*
X20568441Y7480882D01*
X20586118Y7498559D01*
X20593388Y7505148D01*
X20612748Y7521036D01*
X20620608Y7526865D01*
X20641398Y7540757D01*
X20649831Y7545812D01*
X20671891Y7557603D01*
X20680757Y7561796D01*
X20703869Y7571369D01*
X20713093Y7574670D01*
X20737036Y7581933D01*
X20746551Y7584317D01*
X20771105Y7589201D01*
X20780809Y7590640D01*
X20805685Y7593090D01*
X20815486Y7593572D01*
X20840514Y7593572D01*
X20850315Y7593090D01*
X20875191Y7590640D01*
X20884895Y7589201D01*
X20909449Y7584317D01*
X20918964Y7581933D01*
X20942907Y7574670D01*
X20952131Y7571369D01*
X20975243Y7561796D01*
X20984109Y7557603D01*
X21006169Y7545812D01*
X21014602Y7540757D01*
X21035392Y7526865D01*
X21043252Y7521036D01*
X21062612Y7505148D01*
X21069882Y7498559D01*
X21087559Y7480882D01*
X21094148Y7473612D01*
X21110036Y7454252D01*
X21115865Y7446392D01*
X21129757Y7425602D01*
X21134812Y7417169D01*
X21146603Y7395109D01*
X21150796Y7386243D01*
X21160369Y7363131D01*
X21163670Y7353907D01*
X21170933Y7329964D01*
X21173317Y7320449D01*
X21178201Y7295895D01*
X21179640Y7286191D01*
X21182090Y7261315D01*
X21182572Y7251514D01*
X21182572Y7247711D01*
X21182813Y7237896D01*
X21183000Y7234090D01*
X21183000Y55015D01*
X21190960Y-848D01*
X21214206Y-52264D01*
X21250889Y-95140D01*
X21298087Y-126065D01*
X21352045Y-142575D01*
X21383000Y-144985D01*
X29944985Y-144985D01*
X30000848Y-137025D01*
X30052264Y-113779D01*
X30095140Y-77096D01*
X30126065Y-29898D01*
X30142575Y24060D01*
X30144985Y55015D01*
X30144985Y17352000D01*
X30137025Y17407863D01*
X30113779Y17459279D01*
X30077096Y17502155D01*
X30029898Y17533080D01*
X29975940Y17549590D01*
X29944985Y17552000D01*
X29164221Y17552000D01*
X29108358Y17544040D01*
X29056942Y17520794D01*
X29014066Y17484111D01*
X28983141Y17436913D01*
X28966631Y17382955D01*
X28965849Y17326534D01*
X28980857Y17272139D01*
X29010461Y17224102D01*
X29061399Y17180455D01*
X29123480Y17143244D01*
X29206268Y17081844D01*
X29282632Y17012632D01*
X29351844Y16936268D01*
X29413244Y16853481D01*
X29466230Y16765080D01*
X29510296Y16671907D01*
X29545016Y16574874D01*
X29570033Y16475000D01*
X27509966Y16475000D01*
X27534981Y16574863D01*
X27569704Y16671910D01*
X27613772Y16765084D01*
X27666753Y16853476D01*
X27720170Y16925500D01*
X27747054Y16975111D01*
X27759011Y17030257D01*
X27757508Y17051835D01*
X27803432Y17054132D01*
X27856759Y17072579D01*
X27884503Y17089833D01*
X27956522Y17143246D01*
X28018601Y17180455D01*
X28062423Y17216002D01*
X28094573Y17262374D01*
X28112490Y17315881D01*
X28114750Y17372262D01*
X28101171Y17427031D01*
X28072835Y17475828D01*
X28031998Y17514767D01*
X27981909Y17540751D01*
X27915779Y17552000D01*
X27866888Y17552000D01*
X27811025Y17544040D01*
X27759609Y17520794D01*
X27725467Y17493421D01*
X27623942Y17391896D01*
X27590069Y17346767D01*
X27570150Y17293973D01*
X27566166Y17242802D01*
X27548396Y17244331D01*
X27493063Y17233274D01*
X27443021Y17207201D01*
X27418108Y17186062D01*
X27046279Y16814233D01*
X27012406Y16769104D01*
X26992487Y16716310D01*
X26988107Y16660053D01*
X26999392Y16605431D01*
X27004761Y16590427D01*
X27013453Y16561774D01*
X27031329Y16490407D01*
X27037169Y16461049D01*
X27047967Y16388257D01*
X27050901Y16358466D01*
X27054512Y16284965D01*
X27054512Y16255035D01*
X27050901Y16181534D01*
X27047967Y16151743D01*
X27037168Y16078947D01*
X27031331Y16049601D01*
X27013450Y15978215D01*
X27004765Y15949583D01*
X26979964Y15880271D01*
X26968518Y15852639D01*
X26937049Y15786102D01*
X26922938Y15759702D01*
X26885114Y15696597D01*
X26868480Y15671702D01*
X26824634Y15612583D01*
X26805660Y15589463D01*
X26756225Y15534921D01*
X26735079Y15513775D01*
X26680537Y15464340D01*
X26657417Y15445366D01*
X26598298Y15401520D01*
X26573403Y15384886D01*
X26510298Y15347062D01*
X26483898Y15332951D01*
X26417361Y15301482D01*
X26389729Y15290036D01*
X26320417Y15265235D01*
X26291785Y15256550D01*
X26220399Y15238669D01*
X26191053Y15232832D01*
X26118257Y15222033D01*
X26088466Y15219099D01*
X26014965Y15215488D01*
X25985035Y15215488D01*
X25911534Y15219099D01*
X25881743Y15222033D01*
X25808951Y15232831D01*
X25779593Y15238671D01*
X25708226Y15256547D01*
X25679559Y15265244D01*
X25610290Y15290029D01*
X25582635Y15301484D01*
X25516102Y15332951D01*
X25489702Y15347062D01*
X25426588Y15384891D01*
X25401708Y15401516D01*
X25342601Y15445352D01*
X25319458Y15464345D01*
X25264922Y15513775D01*
X25243767Y15534930D01*
X25194340Y15589463D01*
X25175366Y15612583D01*
X25131520Y15671702D01*
X25114886Y15696597D01*
X25077062Y15759702D01*
X25062947Y15786109D01*
X25031485Y15852631D01*
X25020036Y15880273D01*
X24995234Y15949587D01*
X24986552Y15978209D01*
X24968669Y16049601D01*
X24962832Y16078947D01*
X24952033Y16151743D01*
X24949099Y16181534D01*
X24945488Y16255035D01*
X24945488Y16284965D01*
X24949099Y16358466D01*
X24952033Y16388257D01*
X24962832Y16461053D01*
X24968669Y16490399D01*
X24986552Y16561791D01*
X24995234Y16590413D01*
X25020036Y16659727D01*
X25031485Y16687369D01*
X25062947Y16753891D01*
X25077062Y16780298D01*
X25114886Y16843403D01*
X25131520Y16868298D01*
X25175366Y16927417D01*
X25194340Y16950537D01*
X25243767Y17005070D01*
X25264922Y17026225D01*
X25319458Y17075655D01*
X25342601Y17094648D01*
X25401708Y17138484D01*
X25426588Y17155109D01*
X25489702Y17192938D01*
X25516102Y17207049D01*
X25582639Y17238518D01*
X25610271Y17249964D01*
X25679583Y17274765D01*
X25708215Y17283450D01*
X25779601Y17301331D01*
X25808947Y17307168D01*
X25881743Y17317967D01*
X25911534Y17320901D01*
X25985035Y17324512D01*
X26014965Y17324512D01*
X26088466Y17320901D01*
X26118257Y17317967D01*
X26191049Y17307169D01*
X26220407Y17301329D01*
X26291774Y17283453D01*
X26320427Y17274761D01*
X26335431Y17269392D01*
X26390710Y17258066D01*
X26446952Y17262632D01*
X26499680Y17282724D01*
X26544233Y17316279D01*
X27369485Y18141531D01*
X27386710Y18156211D01*
X27408193Y18177532D01*
X27416024Y18183959D01*
X27465689Y18217143D01*
X27474302Y18221747D01*
X27529486Y18244604D01*
X27538831Y18247439D01*
X27597417Y18259094D01*
X27612004Y18260531D01*
X27641910Y18262000D01*
X29944985Y18262000D01*
X30000848Y18269960D01*
X30052264Y18293206D01*
X30095140Y18329889D01*
X30126065Y18377087D01*
X30142575Y18431045D01*
X30144985Y18462000D01*
X30144985Y26369000D01*
X30137025Y26424863D01*
X30113779Y26476279D01*
X30077096Y26519155D01*
X30029898Y26550080D01*
X29975940Y26566590D01*
X29944985Y26569000D01*
X29135859Y26569000D01*
X29079996Y26561040D01*
X29028580Y26537794D01*
X28985704Y26501111D01*
X28954779Y26453913D01*
X28938269Y26399955D01*
X28937487Y26343534D01*
X28952495Y26289139D01*
X28982099Y26241102D01*
X29033037Y26197455D01*
X29123480Y26143244D01*
X29206268Y26081844D01*
X29282632Y26012632D01*
X29351844Y25936268D01*
X29413244Y25853481D01*
X29466230Y25765080D01*
X29510296Y25671907D01*
X29545016Y25574874D01*
X29570033Y25475000D01*
X27509966Y25475000D01*
X27534981Y25574863D01*
X27569704Y25671910D01*
X27613772Y25765084D01*
X27666753Y25853476D01*
X27720170Y25925500D01*
X27747054Y25975111D01*
X27759011Y26030257D01*
X27757508Y26051835D01*
X27803432Y26054132D01*
X27856759Y26072579D01*
X27884503Y26089833D01*
X27956522Y26143246D01*
X28046963Y26197455D01*
X28090785Y26233002D01*
X28122935Y26279374D01*
X28140853Y26332881D01*
X28143112Y26389263D01*
X28129533Y26444032D01*
X28101197Y26492828D01*
X28060360Y26531767D01*
X28010271Y26557751D01*
X27944141Y26569000D01*
X27883888Y26569000D01*
X27828025Y26561040D01*
X27776609Y26537794D01*
X27742467Y26510421D01*
X27623942Y26391896D01*
X27590069Y26346767D01*
X27570150Y26293973D01*
X27566166Y26242802D01*
X27548396Y26244331D01*
X27493063Y26233274D01*
X27443021Y26207201D01*
X27418108Y26186062D01*
X27046279Y25814233D01*
X27012406Y25769104D01*
X26992487Y25716310D01*
X26988107Y25660053D01*
X26999392Y25605431D01*
X27004761Y25590427D01*
X27013453Y25561774D01*
X27031329Y25490407D01*
X27037169Y25461049D01*
X27047967Y25388257D01*
X27050901Y25358466D01*
X27054512Y25284965D01*
X27054512Y25255035D01*
X27050901Y25181534D01*
X27047967Y25151743D01*
X27037168Y25078947D01*
X27031331Y25049601D01*
X27013450Y24978215D01*
X27004765Y24949583D01*
X26979964Y24880271D01*
X26968518Y24852639D01*
X26937049Y24786102D01*
X26922938Y24759702D01*
X26885114Y24696597D01*
X26868480Y24671702D01*
X26824634Y24612583D01*
X26805660Y24589463D01*
X26756225Y24534921D01*
X26735079Y24513775D01*
X26680537Y24464340D01*
X26657417Y24445366D01*
X26598298Y24401520D01*
X26573403Y24384886D01*
X26510298Y24347062D01*
X26483898Y24332951D01*
X26417361Y24301482D01*
X26389729Y24290036D01*
X26320417Y24265235D01*
X26291785Y24256550D01*
X26220399Y24238669D01*
X26191053Y24232832D01*
X26118257Y24222033D01*
X26088466Y24219099D01*
X26014965Y24215488D01*
X25985035Y24215488D01*
X25911534Y24219099D01*
X25881743Y24222033D01*
X25808951Y24232831D01*
X25779593Y24238671D01*
X25708226Y24256547D01*
X25679559Y24265244D01*
X25610290Y24290029D01*
X25582635Y24301484D01*
X25516102Y24332951D01*
X25489702Y24347062D01*
X25426588Y24384891D01*
X25401708Y24401516D01*
X25342601Y24445352D01*
X25319458Y24464345D01*
X25264922Y24513775D01*
X25243767Y24534930D01*
X25194340Y24589463D01*
X25175366Y24612583D01*
X25131520Y24671702D01*
X25114886Y24696597D01*
X25077062Y24759702D01*
X25062947Y24786109D01*
X25031485Y24852631D01*
X25020036Y24880273D01*
X24995234Y24949587D01*
X24986552Y24978209D01*
X24968669Y25049601D01*
X24962832Y25078947D01*
X24952033Y25151743D01*
X24949099Y25181534D01*
X24945488Y25255035D01*
X24945488Y25284965D01*
X24949099Y25358466D01*
X24952033Y25388257D01*
X24962832Y25461053D01*
X24968669Y25490399D01*
X24986552Y25561791D01*
X24995234Y25590413D01*
X25020036Y25659727D01*
X25031485Y25687369D01*
X25062947Y25753891D01*
X25077062Y25780298D01*
X25114886Y25843403D01*
X25131520Y25868298D01*
X25175366Y25927417D01*
X25194340Y25950537D01*
X25243767Y26005070D01*
X25264922Y26026225D01*
X25319458Y26075655D01*
X25342601Y26094648D01*
X25401708Y26138484D01*
X25426588Y26155109D01*
X25489702Y26192938D01*
X25516102Y26207049D01*
X25582639Y26238518D01*
X25610271Y26249964D01*
X25679583Y26274765D01*
X25708215Y26283450D01*
X25779601Y26301331D01*
X25808947Y26307168D01*
X25881743Y26317967D01*
X25911534Y26320901D01*
X25985035Y26324512D01*
X26014965Y26324512D01*
X26088466Y26320901D01*
X26118257Y26317967D01*
X26191049Y26307169D01*
X26220407Y26301329D01*
X26291774Y26283453D01*
X26320427Y26274761D01*
X26335431Y26269392D01*
X26390710Y26258066D01*
X26446952Y26262632D01*
X26499680Y26282724D01*
X26544233Y26316279D01*
X27386485Y27158531D01*
X27403710Y27173211D01*
X27425193Y27194532D01*
X27433024Y27200959D01*
X27482689Y27234143D01*
X27491302Y27238747D01*
X27546486Y27261604D01*
X27555831Y27264439D01*
X27614417Y27276094D01*
X27629004Y27277531D01*
X27658910Y27279000D01*
X30348090Y27279000D01*
X30377995Y27277531D01*
X30392586Y27276093D01*
X30450979Y27264477D01*
X30507321Y27261384D01*
X30562284Y27274152D01*
X30611494Y27301764D01*
X30651032Y27342022D01*
X30677753Y27391721D01*
X30690000Y27460633D01*
X30690000Y28490000D01*
X30682040Y28545863D01*
X30658794Y28597279D01*
X30622111Y28640155D01*
X30574913Y28671080D01*
X30520955Y28687590D01*
X30490000Y28690000D01*
X12838074Y28690000D01*
X12782211Y28682040D01*
X12730795Y28658794D01*
X12687919Y28622111D01*
X12656994Y28574913D01*
X12640484Y28520955D01*
X12639702Y28464534D01*
X12653298Y28413462D01*
X12656606Y28405475D01*
X12659438Y28396140D01*
X12671094Y28337551D01*
X12672531Y28322965D01*
X12674000Y28293060D01*
X12674000Y21340910D01*
X12673813Y21337104D01*
X12673572Y21327289D01*
X12673572Y21323486D01*
X12673090Y21313685D01*
X12670640Y21288809D01*
X12669201Y21279105D01*
X12664317Y21254551D01*
X12661933Y21245036D01*
X12654670Y21221093D01*
X12651369Y21211869D01*
X12641796Y21188757D01*
X12637603Y21179891D01*
X12625812Y21157831D01*
X12620757Y21149398D01*
X12606865Y21128608D01*
X12601036Y21120748D01*
X12585148Y21101388D01*
X12578559Y21094118D01*
X12560882Y21076441D01*
X12553612Y21069852D01*
X12534252Y21053964D01*
X12526392Y21048135D01*
X12505602Y21034243D01*
X12497169Y21029188D01*
X12475109Y21017397D01*
X12466243Y21013204D01*
X12443131Y21003631D01*
X12433907Y21000330D01*
X12409964Y20993067D01*
X12400449Y20990683D01*
X12375895Y20985799D01*
X12366191Y20984360D01*
X12341315Y20981910D01*
X12331514Y20981428D01*
X12306486Y20981428D01*
X12296685Y20981910D01*
X12271809Y20984360D01*
X12262105Y20985799D01*
X12237551Y20990683D01*
X12228036Y20993067D01*
X12204093Y21000330D01*
X12194869Y21003631D01*
X12171757Y21013204D01*
X12162891Y21017397D01*
X12140831Y21029188D01*
X12132398Y21034243D01*
X12111608Y21048135D01*
X12103748Y21053964D01*
X12084388Y21069852D01*
X12077118Y21076441D01*
X12059441Y21094118D01*
X12052852Y21101388D01*
X12036964Y21120748D01*
X12031135Y21128608D01*
X12017243Y21149398D01*
X12012188Y21157831D01*
X12000397Y21179891D01*
X11996204Y21188757D01*
X11986631Y21211869D01*
X11983330Y21221093D01*
X11976067Y21245036D01*
X11973683Y21254551D01*
X11968799Y21279105D01*
X11967360Y21288809D01*
X11964910Y21313685D01*
X11964428Y21323486D01*
X11964428Y21327288D01*
X11964187Y21337102D01*
X11964000Y21340908D01*
X11964000Y27944985D01*
X11956040Y28000848D01*
X11932794Y28052264D01*
X11896111Y28095140D01*
X11848913Y28126065D01*
X11794955Y28142575D01*
X11764000Y28144985D01*
X10113312Y28144985D01*
X10057449Y28137025D01*
X10006033Y28113779D01*
X9963157Y28077096D01*
X9932232Y28029898D01*
X9915722Y27975940D01*
X9914940Y27919519D01*
X9929948Y27865124D01*
X9959552Y27817087D01*
X10001395Y27779230D01*
X10027801Y27764187D01*
X10093770Y27732986D01*
X10128827Y27714248D01*
X10259275Y27636059D01*
X10292323Y27613977D01*
X10414489Y27523373D01*
X10445209Y27498161D01*
X10557921Y27396006D01*
X10586006Y27367921D01*
X10688161Y27255209D01*
X10713373Y27224489D01*
X10803977Y27102323D01*
X10826059Y27069275D01*
X10904248Y26938827D01*
X10922986Y26903770D01*
X10988016Y26766275D01*
X11003227Y26729552D01*
X11054468Y26586342D01*
X11066007Y26548305D01*
X11102962Y26400771D01*
X11110714Y26361795D01*
X11133031Y26211349D01*
X11136928Y26171784D01*
X11144392Y26019872D01*
X11144392Y25980128D01*
X11136928Y25828216D01*
X11133031Y25788651D01*
X11110715Y25638210D01*
X11102960Y25599222D01*
X11066005Y25451687D01*
X11054471Y25413666D01*
X11003223Y25270437D01*
X10988021Y25233736D01*
X10922983Y25096223D01*
X10904261Y25061198D01*
X10826043Y24930700D01*
X10803980Y24897680D01*
X10713375Y24775513D01*
X10688161Y24744791D01*
X10586005Y24632078D01*
X10557920Y24603993D01*
X10445211Y24501839D01*
X10414505Y24476640D01*
X10292317Y24386019D01*
X10259273Y24363939D01*
X10128819Y24285748D01*
X10093770Y24267014D01*
X9956275Y24201984D01*
X9919552Y24186773D01*
X9776342Y24135532D01*
X9738305Y24123993D01*
X9590768Y24087037D01*
X9551799Y24079286D01*
X9401349Y24056969D01*
X9361781Y24053072D01*
X9209872Y24045608D01*
X9170128Y24045608D01*
X9018219Y24053072D01*
X8978651Y24056969D01*
X8828201Y24079286D01*
X8789232Y24087037D01*
X8641695Y24123993D01*
X8603658Y24135532D01*
X8460448Y24186773D01*
X8423725Y24201984D01*
X8286223Y24267017D01*
X8251198Y24285739D01*
X8120705Y24363954D01*
X8087679Y24386020D01*
X7965511Y24476626D01*
X7934784Y24501843D01*
X7822080Y24603993D01*
X7793995Y24632078D01*
X7691839Y24744791D01*
X7666625Y24775513D01*
X7576020Y24897680D01*
X7553957Y24930700D01*
X7475739Y25061198D01*
X7457017Y25096223D01*
X7391984Y25233725D01*
X7376773Y25270448D01*
X7325530Y25413663D01*
X7313995Y25451690D01*
X7277039Y25599227D01*
X7269285Y25638210D01*
X7246969Y25788651D01*
X7243072Y25828216D01*
X7235608Y25980128D01*
X7235608Y26019872D01*
X7243072Y26171784D01*
X7246969Y26211349D01*
X7269286Y26361795D01*
X7277038Y26400771D01*
X7313993Y26548305D01*
X7325532Y26586342D01*
X7376773Y26729552D01*
X7391984Y26766275D01*
X7457014Y26903770D01*
X7475752Y26938827D01*
X7553941Y27069275D01*
X7576023Y27102323D01*
X7666627Y27224489D01*
X7691839Y27255209D01*
X7793994Y27367921D01*
X7822079Y27396006D01*
X7934791Y27498161D01*
X7965511Y27523373D01*
X8087677Y27613977D01*
X8120725Y27636059D01*
X8251173Y27714248D01*
X8286230Y27732986D01*
X8352199Y27764187D01*
X8399295Y27795267D01*
X8435835Y27838265D01*
X8458912Y27889757D01*
X8466687Y27945646D01*
X8458542Y28001482D01*
X8435126Y28052821D01*
X8398302Y28095576D01*
X8351002Y28126344D01*
X8296990Y28142676D01*
X8266688Y28144985D01*
X-8266688Y28144985D01*
X-8322551Y28137025D01*
X-8373967Y28113779D01*
X-8416843Y28077096D01*
X-8447768Y28029898D01*
X-8464278Y27975940D01*
X-8465060Y27919519D01*
X-8450052Y27865124D01*
X-8420448Y27817087D01*
X-8378605Y27779230D01*
X-8352199Y27764187D01*
X-8286230Y27732986D01*
X-8251173Y27714248D01*
X-8120725Y27636059D01*
X-8087677Y27613977D01*
X-7965511Y27523373D01*
X-7934791Y27498161D01*
X-7822079Y27396006D01*
X-7793994Y27367921D01*
X-7691839Y27255209D01*
X-7666627Y27224489D01*
X-7576023Y27102323D01*
X-7553941Y27069275D01*
X-7475752Y26938827D01*
X-7457014Y26903770D01*
X-7391984Y26766275D01*
X-7376773Y26729552D01*
X-7325532Y26586342D01*
X-7313993Y26548305D01*
X-7277038Y26400771D01*
X-7269286Y26361795D01*
X-7246969Y26211349D01*
X-7243072Y26171784D01*
X-7235608Y26019872D01*
X-7235608Y25980128D01*
X-7243072Y25828216D01*
X-7246969Y25788651D01*
X-7269285Y25638210D01*
X-7277040Y25599222D01*
X-7313995Y25451687D01*
X-7325529Y25413666D01*
X-7376777Y25270437D01*
X-7391979Y25233736D01*
X-7457017Y25096223D01*
X-7475739Y25061198D01*
X-7553957Y24930700D01*
X-7576020Y24897680D01*
X-7666625Y24775513D01*
X-7691839Y24744791D01*
X-7793995Y24632078D01*
X-7822080Y24603993D01*
X-7934789Y24501839D01*
X-7965495Y24476640D01*
X-8087683Y24386019D01*
X-8120727Y24363939D01*
X-8251181Y24285748D01*
X-8286230Y24267014D01*
X-8423725Y24201984D01*
X-8460448Y24186773D01*
X-8603658Y24135532D01*
X-8641695Y24123993D01*
X-8789232Y24087037D01*
X-8828201Y24079286D01*
X-8978651Y24056969D01*
X-9018219Y24053072D01*
X-9170128Y24045608D01*
X-9209872Y24045608D01*
X-9361781Y24053072D01*
X-9401349Y24056969D01*
X-9551799Y24079286D01*
X-9590768Y24087037D01*
X-9738305Y24123993D01*
X-9776342Y24135532D01*
X-9919552Y24186773D01*
X-9956275Y24201984D01*
X-10093777Y24267017D01*
X-10128802Y24285739D01*
X-10259295Y24363954D01*
X-10292321Y24386020D01*
X-10414489Y24476626D01*
X-10445216Y24501843D01*
X-10557920Y24603993D01*
X-10586005Y24632078D01*
X-10688161Y24744791D01*
X-10713375Y24775513D01*
X-10803980Y24897680D01*
X-10826043Y24930700D01*
X-10904261Y25061198D01*
X-10922983Y25096223D01*
X-10988016Y25233725D01*
X-11003227Y25270448D01*
X-11054470Y25413663D01*
X-11066005Y25451690D01*
X-11102961Y25599227D01*
X-11110715Y25638210D01*
X-11133031Y25788651D01*
X-11136928Y25828216D01*
X-11144392Y25980128D01*
X-11144392Y26019872D01*
X-11136928Y26171784D01*
X-11133031Y26211349D01*
X-11110714Y26361795D01*
X-11102962Y26400771D01*
X-11066007Y26548305D01*
X-11054468Y26586342D01*
X-11003227Y26729552D01*
X-10988016Y26766275D01*
X-10922986Y26903770D01*
X-10904248Y26938827D01*
X-10826059Y27069275D01*
X-10803977Y27102323D01*
X-10713373Y27224489D01*
X-10688161Y27255209D01*
X-10586006Y27367921D01*
X-10557921Y27396006D01*
X-10445209Y27498161D01*
X-10414489Y27523373D01*
X-10292323Y27613977D01*
X-10259275Y27636059D01*
X-10128827Y27714248D01*
X-10093770Y27732986D01*
X-10027801Y27764187D01*
X-9980705Y27795267D01*
X-9944165Y27838265D01*
X-9921088Y27889757D01*
X-9913313Y27945646D01*
X-9921458Y28001482D01*
X-9944874Y28052821D01*
X-9981698Y28095576D01*
X-10028998Y28126344D01*
X-10083010Y28142676D01*
X-10113312Y28144985D01*
X-15886688Y28144985D01*
X-15942551Y28137025D01*
X-15993967Y28113779D01*
X-16036843Y28077096D01*
X-16067768Y28029898D01*
X-16084278Y27975940D01*
X-16085060Y27919519D01*
X-16070052Y27865124D01*
X-16040448Y27817087D01*
X-15998605Y27779230D01*
X-15972199Y27764187D01*
X-15906230Y27732986D01*
X-15871173Y27714248D01*
X-15740725Y27636059D01*
X-15707677Y27613977D01*
X-15585511Y27523373D01*
X-15554791Y27498161D01*
X-15442079Y27396006D01*
X-15413994Y27367921D01*
X-15311839Y27255209D01*
X-15286627Y27224489D01*
X-15196023Y27102323D01*
X-15173941Y27069275D01*
X-15095752Y26938827D01*
X-15077014Y26903770D01*
X-15011984Y26766275D01*
X-14996773Y26729552D01*
X-14945532Y26586342D01*
X-14933993Y26548305D01*
X-14897038Y26400771D01*
X-14889286Y26361795D01*
X-14866969Y26211349D01*
X-14863072Y26171784D01*
X-14855608Y26019872D01*
X-14855608Y25980128D01*
X-14863072Y25828216D01*
X-14866969Y25788651D01*
X-14889285Y25638210D01*
X-14897040Y25599222D01*
X-14933995Y25451687D01*
X-14945529Y25413666D01*
X-14996777Y25270437D01*
X-15011979Y25233736D01*
X-15077017Y25096223D01*
X-15095739Y25061198D01*
X-15173957Y24930700D01*
X-15196020Y24897680D01*
X-15286625Y24775513D01*
X-15311839Y24744791D01*
X-15413995Y24632078D01*
X-15442080Y24603993D01*
X-15554789Y24501839D01*
X-15585495Y24476640D01*
X-15707683Y24386019D01*
X-15740727Y24363939D01*
X-15871181Y24285748D01*
X-15906230Y24267014D01*
X-16043725Y24201984D01*
X-16080448Y24186773D01*
X-16223658Y24135532D01*
X-16261695Y24123993D01*
X-16409232Y24087037D01*
X-16448201Y24079286D01*
X-16598651Y24056969D01*
X-16638219Y24053072D01*
X-16790128Y24045608D01*
X-16829872Y24045608D01*
X-16981781Y24053072D01*
X-17021349Y24056969D01*
X-17171799Y24079286D01*
X-17210768Y24087037D01*
X-17358305Y24123993D01*
X-17396342Y24135532D01*
X-17539552Y24186773D01*
X-17576275Y24201984D01*
X-17713777Y24267017D01*
X-17748802Y24285739D01*
X-17879295Y24363954D01*
X-17912321Y24386020D01*
X-18034489Y24476626D01*
X-18065216Y24501843D01*
X-18177920Y24603993D01*
X-18206005Y24632078D01*
X-18308161Y24744791D01*
X-18333375Y24775513D01*
X-18423980Y24897680D01*
X-18446043Y24930700D01*
X-18524261Y25061198D01*
X-18542983Y25096223D01*
X-18608016Y25233725D01*
X-18623227Y25270448D01*
X-18674470Y25413663D01*
X-18686005Y25451690D01*
X-18722961Y25599227D01*
X-18730715Y25638210D01*
X-18753031Y25788651D01*
X-18756928Y25828216D01*
X-18764392Y25980128D01*
X-18764392Y26019872D01*
X-18756928Y26171784D01*
X-18753031Y26211349D01*
X-18730714Y26361795D01*
X-18722962Y26400771D01*
X-18686007Y26548305D01*
X-18674468Y26586342D01*
X-18623227Y26729552D01*
X-18608016Y26766275D01*
X-18542986Y26903770D01*
X-18524248Y26938827D01*
X-18446059Y27069275D01*
X-18423977Y27102323D01*
X-18333373Y27224489D01*
X-18308161Y27255209D01*
X-18206006Y27367921D01*
X-18177921Y27396006D01*
X-18065209Y27498161D01*
X-18034489Y27523373D01*
X-17912323Y27613977D01*
X-17879275Y27636059D01*
X-17748827Y27714248D01*
X-17713770Y27732986D01*
X-17647801Y27764187D01*
X-17600705Y27795267D01*
X-17564165Y27838265D01*
X-17541088Y27889757D01*
X-17533313Y27945646D01*
X-17541458Y28001482D01*
X-17564874Y28052821D01*
X-17601698Y28095576D01*
X-17648998Y28126344D01*
X-17703010Y28142676D01*
X-17733312Y28144985D01*
X-29944985Y28144985D01*
X-30000848Y28137025D01*
X-30052264Y28113779D01*
X-30095140Y28077096D01*
X-30126065Y28029898D01*
X-30142575Y27975940D01*
X-30144985Y27944985D01*
X-30144985Y8302000D01*
X-30137025Y8246137D01*
X-30113779Y8194721D01*
X-30077096Y8151845D01*
X-30029898Y8120920D01*
X-29975940Y8104410D01*
X-29944985Y8102000D01*
X-29722910Y8102000D01*
X-29719104Y8101813D01*
X-29709289Y8101572D01*
X-29705486Y8101572D01*
X-29695685Y8101090D01*
X-29670809Y8098640D01*
X-29661105Y8097201D01*
X-29636551Y8092317D01*
X-29627036Y8089933D01*
X-29603093Y8082670D01*
X-29593869Y8079369D01*
X-29570757Y8069796D01*
X-29561891Y8065603D01*
X-29539831Y8053812D01*
X-29531398Y8048757D01*
X-29510608Y8034865D01*
X-29502748Y8029036D01*
X-29483388Y8013148D01*
X-29476118Y8006559D01*
X-29458441Y7988882D01*
X-29451852Y7981612D01*
X-29435964Y7962252D01*
X-29430135Y7954392D01*
X-29416243Y7933602D01*
X-29411188Y7925169D01*
X-29399397Y7903109D01*
X-29395204Y7894243D01*
X-29385631Y7871131D01*
X-29382330Y7861907D01*
X-29375067Y7837964D01*
X-29372683Y7828449D01*
X-29367799Y7803895D01*
X-29366360Y7794191D01*
X-29363910Y7769315D01*
X-29363428Y7759514D01*
X-29363428Y7734486D01*
X-29363910Y7724685D01*
X-29366360Y7699809D01*
X-29367799Y7690105D01*
X-29372683Y7665551D01*
X-29375067Y7656036D01*
X-29382330Y7632093D01*
X-29385631Y7622869D01*
X-29395204Y7599757D01*
X-29399397Y7590891D01*
X-29411188Y7568831D01*
X-29416243Y7560398D01*
X-29430135Y7539608D01*
X-29435964Y7531748D01*
X-29451852Y7512388D01*
X-29458441Y7505118D01*
X-29476118Y7487441D01*
X-29483388Y7480852D01*
X-29502748Y7464964D01*
X-29510608Y7459135D01*
X-29531398Y7445243D01*
X-29539831Y7440188D01*
X-29561891Y7428397D01*
X-29570757Y7424204D01*
X-29593869Y7414631D01*
X-29603093Y7411330D01*
X-29627036Y7404067D01*
X-29636551Y7401683D01*
X-29661105Y7396799D01*
X-29670809Y7395360D01*
X-29695685Y7392910D01*
X-29705486Y7392428D01*
X-29709288Y7392428D01*
X-29719102Y7392187D01*
X-29722908Y7392000D01*
X-30221093Y7392000D01*
X-30250978Y7393468D01*
X-30265575Y7394906D01*
X-30324173Y7406562D01*
X-30333513Y7409395D01*
X-30388698Y7432253D01*
X-30395720Y7436006D01*
X-30448738Y7455319D01*
X-30505041Y7459056D01*
X-30560147Y7446917D01*
X-30609669Y7419869D01*
X-30649666Y7380066D01*
X-30676953Y7330676D01*
X-30690000Y7259622D01*
X-30690000Y-490000D01*
X-30682040Y-545863D01*
X-30658794Y-597279D01*
X-30622111Y-640155D01*
X-30574913Y-671080D01*
X-30520955Y-687590D01*
X-30490000Y-690000D01*
X-23535888Y-690000D01*
D02*
G37*
%LPC*%
G36*
X16829872Y24045608D02*
X16790128Y24045608D01*
X16638219Y24053072D01*
X16598651Y24056969D01*
X16448201Y24079286D01*
X16409232Y24087037D01*
X16261695Y24123993D01*
X16223658Y24135532D01*
X16080448Y24186773D01*
X16043725Y24201984D01*
X15906223Y24267017D01*
X15871198Y24285739D01*
X15740705Y24363954D01*
X15707679Y24386020D01*
X15585511Y24476626D01*
X15554784Y24501843D01*
X15442080Y24603993D01*
X15413995Y24632078D01*
X15311839Y24744791D01*
X15286625Y24775513D01*
X15196020Y24897680D01*
X15173957Y24930700D01*
X15095739Y25061198D01*
X15077017Y25096223D01*
X15011984Y25233725D01*
X14996773Y25270448D01*
X14945530Y25413663D01*
X14933995Y25451690D01*
X14897039Y25599227D01*
X14889285Y25638210D01*
X14866969Y25788651D01*
X14863072Y25828216D01*
X14855608Y25980128D01*
X14855608Y26019872D01*
X14863072Y26171784D01*
X14866969Y26211349D01*
X14889286Y26361795D01*
X14897038Y26400771D01*
X14933993Y26548305D01*
X14945532Y26586342D01*
X14996773Y26729552D01*
X15011984Y26766275D01*
X15077014Y26903770D01*
X15095752Y26938827D01*
X15173941Y27069275D01*
X15196023Y27102323D01*
X15286627Y27224489D01*
X15311839Y27255209D01*
X15413994Y27367921D01*
X15442079Y27396006D01*
X15554791Y27498161D01*
X15585511Y27523373D01*
X15707677Y27613977D01*
X15740725Y27636059D01*
X15871173Y27714248D01*
X15906230Y27732986D01*
X16043725Y27798016D01*
X16080448Y27813227D01*
X16223658Y27864468D01*
X16261695Y27876007D01*
X16409229Y27912962D01*
X16448205Y27920714D01*
X16598651Y27943031D01*
X16638216Y27946928D01*
X16790128Y27954392D01*
X16829872Y27954392D01*
X16981784Y27946928D01*
X17021349Y27943031D01*
X17171795Y27920714D01*
X17210771Y27912962D01*
X17358305Y27876007D01*
X17396342Y27864468D01*
X17539552Y27813227D01*
X17576275Y27798016D01*
X17713770Y27732986D01*
X17748827Y27714248D01*
X17879275Y27636059D01*
X17912323Y27613977D01*
X18034489Y27523373D01*
X18065209Y27498161D01*
X18177921Y27396006D01*
X18206006Y27367921D01*
X18308161Y27255209D01*
X18333373Y27224489D01*
X18423977Y27102323D01*
X18446059Y27069275D01*
X18524248Y26938827D01*
X18542986Y26903770D01*
X18608016Y26766275D01*
X18623227Y26729552D01*
X18674468Y26586342D01*
X18686007Y26548305D01*
X18722962Y26400771D01*
X18730714Y26361795D01*
X18753031Y26211349D01*
X18756928Y26171784D01*
X18764392Y26019872D01*
X18764392Y25980128D01*
X18756928Y25828216D01*
X18753031Y25788651D01*
X18730715Y25638210D01*
X18722960Y25599222D01*
X18686005Y25451687D01*
X18674471Y25413666D01*
X18623223Y25270437D01*
X18608021Y25233736D01*
X18542983Y25096223D01*
X18524261Y25061198D01*
X18446043Y24930700D01*
X18423980Y24897680D01*
X18333375Y24775513D01*
X18308161Y24744791D01*
X18206005Y24632078D01*
X18177920Y24603993D01*
X18065211Y24501839D01*
X18034505Y24476640D01*
X17912317Y24386019D01*
X17879273Y24363939D01*
X17748819Y24285748D01*
X17713770Y24267014D01*
X17576275Y24201984D01*
X17539552Y24186773D01*
X17396342Y24135532D01*
X17358305Y24123993D01*
X17210768Y24087037D01*
X17171799Y24079286D01*
X17021349Y24056969D01*
X16981781Y24053072D01*
X16829872Y24045608D01*
D02*
G37*
%LPC*%
G36*
X23474965Y24215488D02*
X23445035Y24215488D01*
X23371534Y24219099D01*
X23341743Y24222033D01*
X23268951Y24232831D01*
X23239593Y24238671D01*
X23168226Y24256547D01*
X23139559Y24265244D01*
X23070290Y24290029D01*
X23042635Y24301484D01*
X22976102Y24332951D01*
X22949702Y24347062D01*
X22886588Y24384891D01*
X22861708Y24401516D01*
X22802601Y24445352D01*
X22779458Y24464345D01*
X22724922Y24513775D01*
X22703767Y24534930D01*
X22654340Y24589463D01*
X22635366Y24612583D01*
X22591520Y24671702D01*
X22574886Y24696597D01*
X22537062Y24759702D01*
X22522947Y24786109D01*
X22491485Y24852631D01*
X22480036Y24880273D01*
X22455234Y24949587D01*
X22446552Y24978209D01*
X22428669Y25049601D01*
X22422832Y25078947D01*
X22412033Y25151743D01*
X22409099Y25181534D01*
X22405488Y25255035D01*
X22405488Y25284965D01*
X22409099Y25358466D01*
X22412033Y25388257D01*
X22422832Y25461053D01*
X22428669Y25490399D01*
X22446552Y25561791D01*
X22455234Y25590413D01*
X22480036Y25659727D01*
X22491485Y25687369D01*
X22522947Y25753891D01*
X22537062Y25780298D01*
X22574886Y25843403D01*
X22591520Y25868298D01*
X22635366Y25927417D01*
X22654340Y25950537D01*
X22703767Y26005070D01*
X22724922Y26026225D01*
X22779458Y26075655D01*
X22802601Y26094648D01*
X22861708Y26138484D01*
X22886588Y26155109D01*
X22949702Y26192938D01*
X22976102Y26207049D01*
X23042639Y26238518D01*
X23070271Y26249964D01*
X23139583Y26274765D01*
X23168215Y26283450D01*
X23239601Y26301331D01*
X23268947Y26307168D01*
X23341743Y26317967D01*
X23371534Y26320901D01*
X23445035Y26324512D01*
X23474965Y26324512D01*
X23548466Y26320901D01*
X23578257Y26317967D01*
X23651049Y26307169D01*
X23680407Y26301329D01*
X23751774Y26283453D01*
X23780441Y26274756D01*
X23849710Y26249971D01*
X23877365Y26238516D01*
X23943898Y26207049D01*
X23970298Y26192938D01*
X24033403Y26155114D01*
X24058298Y26138480D01*
X24117417Y26094634D01*
X24140537Y26075660D01*
X24195079Y26026225D01*
X24216225Y26005079D01*
X24265660Y25950537D01*
X24284634Y25927417D01*
X24328480Y25868298D01*
X24345114Y25843403D01*
X24382938Y25780298D01*
X24397049Y25753898D01*
X24428516Y25687365D01*
X24439971Y25659710D01*
X24464756Y25590441D01*
X24473453Y25561774D01*
X24491329Y25490407D01*
X24497169Y25461049D01*
X24507967Y25388257D01*
X24510901Y25358466D01*
X24514512Y25284965D01*
X24514512Y25255035D01*
X24510901Y25181534D01*
X24507967Y25151743D01*
X24497168Y25078947D01*
X24491331Y25049601D01*
X24473450Y24978215D01*
X24464765Y24949583D01*
X24439964Y24880271D01*
X24428518Y24852639D01*
X24397049Y24786102D01*
X24382938Y24759702D01*
X24345114Y24696597D01*
X24328480Y24671702D01*
X24284634Y24612583D01*
X24265660Y24589463D01*
X24216225Y24534921D01*
X24195079Y24513775D01*
X24140537Y24464340D01*
X24117417Y24445366D01*
X24058298Y24401520D01*
X24033403Y24384886D01*
X23970298Y24347062D01*
X23943898Y24332951D01*
X23877361Y24301482D01*
X23849729Y24290036D01*
X23780417Y24265235D01*
X23751785Y24256550D01*
X23680399Y24238669D01*
X23651053Y24232832D01*
X23578257Y24222033D01*
X23548466Y24219099D01*
X23474965Y24215488D01*
D02*
G37*
%LPC*%
G36*
X14965Y24215488D02*
X-14965Y24215488D01*
X-88466Y24219099D01*
X-118257Y24222033D01*
X-191049Y24232831D01*
X-220407Y24238671D01*
X-291774Y24256547D01*
X-320441Y24265244D01*
X-389710Y24290029D01*
X-417365Y24301484D01*
X-483898Y24332951D01*
X-510298Y24347062D01*
X-573412Y24384891D01*
X-598292Y24401516D01*
X-657399Y24445352D01*
X-680542Y24464345D01*
X-735078Y24513775D01*
X-756233Y24534930D01*
X-805660Y24589463D01*
X-824634Y24612583D01*
X-868480Y24671702D01*
X-885114Y24696597D01*
X-922938Y24759702D01*
X-937053Y24786109D01*
X-968515Y24852631D01*
X-979964Y24880273D01*
X-1004766Y24949587D01*
X-1013448Y24978209D01*
X-1031331Y25049601D01*
X-1037168Y25078947D01*
X-1047967Y25151743D01*
X-1050901Y25181534D01*
X-1054512Y25255035D01*
X-1054512Y25284965D01*
X-1050901Y25358466D01*
X-1047967Y25388257D01*
X-1037168Y25461053D01*
X-1031331Y25490399D01*
X-1013448Y25561791D01*
X-1004766Y25590413D01*
X-979964Y25659727D01*
X-968515Y25687369D01*
X-937053Y25753891D01*
X-922938Y25780298D01*
X-885114Y25843403D01*
X-868480Y25868298D01*
X-824634Y25927417D01*
X-805660Y25950537D01*
X-756233Y26005070D01*
X-735078Y26026225D01*
X-680542Y26075655D01*
X-657399Y26094648D01*
X-598292Y26138484D01*
X-573412Y26155109D01*
X-510298Y26192938D01*
X-483898Y26207049D01*
X-417361Y26238518D01*
X-389729Y26249964D01*
X-320417Y26274765D01*
X-291785Y26283450D01*
X-220399Y26301331D01*
X-191053Y26307168D01*
X-118257Y26317967D01*
X-88466Y26320901D01*
X-14965Y26324512D01*
X14965Y26324512D01*
X88466Y26320901D01*
X118257Y26317967D01*
X191049Y26307169D01*
X220407Y26301329D01*
X291774Y26283453D01*
X320441Y26274756D01*
X389710Y26249971D01*
X417365Y26238516D01*
X483898Y26207049D01*
X510298Y26192938D01*
X573403Y26155114D01*
X598298Y26138480D01*
X657417Y26094634D01*
X680537Y26075660D01*
X735079Y26026225D01*
X756225Y26005079D01*
X805660Y25950537D01*
X824634Y25927417D01*
X868480Y25868298D01*
X885114Y25843403D01*
X922938Y25780298D01*
X937049Y25753898D01*
X968516Y25687365D01*
X979971Y25659710D01*
X1004756Y25590441D01*
X1013453Y25561774D01*
X1031329Y25490407D01*
X1037169Y25461049D01*
X1047967Y25388257D01*
X1050901Y25358466D01*
X1054512Y25284965D01*
X1054512Y25255035D01*
X1050901Y25181534D01*
X1047967Y25151743D01*
X1037168Y25078947D01*
X1031331Y25049601D01*
X1013450Y24978215D01*
X1004765Y24949583D01*
X979964Y24880271D01*
X968518Y24852639D01*
X937049Y24786102D01*
X922938Y24759702D01*
X885114Y24696597D01*
X868480Y24671702D01*
X824634Y24612583D01*
X805660Y24589463D01*
X756225Y24534921D01*
X735079Y24513775D01*
X680537Y24464340D01*
X657417Y24445366D01*
X598298Y24401520D01*
X573403Y24384886D01*
X510298Y24347062D01*
X483898Y24332951D01*
X417361Y24301482D01*
X389729Y24290036D01*
X320417Y24265235D01*
X291785Y24256550D01*
X220399Y24238669D01*
X191053Y24232832D01*
X118257Y24222033D01*
X88466Y24219099D01*
X14965Y24215488D01*
D02*
G37*
%LPC*%
G36*
X-2525035Y24215488D02*
X-2554965Y24215488D01*
X-2628466Y24219099D01*
X-2658257Y24222033D01*
X-2731049Y24232831D01*
X-2760407Y24238671D01*
X-2831774Y24256547D01*
X-2860441Y24265244D01*
X-2929710Y24290029D01*
X-2957365Y24301484D01*
X-3023898Y24332951D01*
X-3050298Y24347062D01*
X-3113412Y24384891D01*
X-3138292Y24401516D01*
X-3197399Y24445352D01*
X-3220542Y24464345D01*
X-3275078Y24513775D01*
X-3296233Y24534930D01*
X-3345660Y24589463D01*
X-3364634Y24612583D01*
X-3408480Y24671702D01*
X-3425114Y24696597D01*
X-3462938Y24759702D01*
X-3477053Y24786109D01*
X-3508515Y24852631D01*
X-3519964Y24880273D01*
X-3544766Y24949587D01*
X-3553448Y24978209D01*
X-3571331Y25049601D01*
X-3577168Y25078947D01*
X-3587967Y25151743D01*
X-3590901Y25181534D01*
X-3594512Y25255035D01*
X-3594512Y25284965D01*
X-3590901Y25358466D01*
X-3587967Y25388257D01*
X-3577168Y25461053D01*
X-3571331Y25490399D01*
X-3553448Y25561791D01*
X-3544766Y25590413D01*
X-3519964Y25659727D01*
X-3508515Y25687369D01*
X-3477053Y25753891D01*
X-3462938Y25780298D01*
X-3425114Y25843403D01*
X-3408480Y25868298D01*
X-3364634Y25927417D01*
X-3345660Y25950537D01*
X-3296233Y26005070D01*
X-3275078Y26026225D01*
X-3220542Y26075655D01*
X-3197399Y26094648D01*
X-3138292Y26138484D01*
X-3113412Y26155109D01*
X-3050298Y26192938D01*
X-3023898Y26207049D01*
X-2957361Y26238518D01*
X-2929729Y26249964D01*
X-2860417Y26274765D01*
X-2831785Y26283450D01*
X-2760399Y26301331D01*
X-2731053Y26307168D01*
X-2658257Y26317967D01*
X-2628466Y26320901D01*
X-2554965Y26324512D01*
X-2525035Y26324512D01*
X-2451534Y26320901D01*
X-2421743Y26317967D01*
X-2348951Y26307169D01*
X-2319593Y26301329D01*
X-2248226Y26283453D01*
X-2219559Y26274756D01*
X-2150290Y26249971D01*
X-2122635Y26238516D01*
X-2056102Y26207049D01*
X-2029702Y26192938D01*
X-1966597Y26155114D01*
X-1941702Y26138480D01*
X-1882583Y26094634D01*
X-1859463Y26075660D01*
X-1804921Y26026225D01*
X-1783775Y26005079D01*
X-1734340Y25950537D01*
X-1715366Y25927417D01*
X-1671520Y25868298D01*
X-1654886Y25843403D01*
X-1617062Y25780298D01*
X-1602951Y25753898D01*
X-1571484Y25687365D01*
X-1560029Y25659710D01*
X-1535244Y25590441D01*
X-1526547Y25561774D01*
X-1508671Y25490407D01*
X-1502831Y25461049D01*
X-1492033Y25388257D01*
X-1489099Y25358466D01*
X-1485488Y25284965D01*
X-1485488Y25255035D01*
X-1489099Y25181534D01*
X-1492033Y25151743D01*
X-1502832Y25078947D01*
X-1508669Y25049601D01*
X-1526550Y24978215D01*
X-1535235Y24949583D01*
X-1560036Y24880271D01*
X-1571482Y24852639D01*
X-1602951Y24786102D01*
X-1617062Y24759702D01*
X-1654886Y24696597D01*
X-1671520Y24671702D01*
X-1715366Y24612583D01*
X-1734340Y24589463D01*
X-1783775Y24534921D01*
X-1804921Y24513775D01*
X-1859463Y24464340D01*
X-1882583Y24445366D01*
X-1941702Y24401520D01*
X-1966597Y24384886D01*
X-2029702Y24347062D01*
X-2056102Y24332951D01*
X-2122639Y24301482D01*
X-2150271Y24290036D01*
X-2219583Y24265235D01*
X-2248215Y24256550D01*
X-2319601Y24238669D01*
X-2348947Y24232832D01*
X-2421743Y24222033D01*
X-2451534Y24219099D01*
X-2525035Y24215488D01*
D02*
G37*
%LPC*%
G36*
X-25985035Y24215488D02*
X-26014965Y24215488D01*
X-26088466Y24219099D01*
X-26118257Y24222033D01*
X-26191049Y24232831D01*
X-26220407Y24238671D01*
X-26291774Y24256547D01*
X-26320441Y24265244D01*
X-26389710Y24290029D01*
X-26417365Y24301484D01*
X-26483898Y24332951D01*
X-26510298Y24347062D01*
X-26573412Y24384891D01*
X-26598292Y24401516D01*
X-26657399Y24445352D01*
X-26680542Y24464345D01*
X-26735078Y24513775D01*
X-26756233Y24534930D01*
X-26805660Y24589463D01*
X-26824634Y24612583D01*
X-26868480Y24671702D01*
X-26885114Y24696597D01*
X-26922938Y24759702D01*
X-26937053Y24786109D01*
X-26968515Y24852631D01*
X-26979964Y24880273D01*
X-27004766Y24949587D01*
X-27013448Y24978209D01*
X-27031331Y25049601D01*
X-27037168Y25078947D01*
X-27047967Y25151743D01*
X-27050901Y25181534D01*
X-27054512Y25255035D01*
X-27054512Y25284965D01*
X-27050901Y25358466D01*
X-27047967Y25388257D01*
X-27037168Y25461053D01*
X-27031331Y25490399D01*
X-27013448Y25561791D01*
X-27004766Y25590413D01*
X-26979964Y25659727D01*
X-26968515Y25687369D01*
X-26937053Y25753891D01*
X-26922938Y25780298D01*
X-26885114Y25843403D01*
X-26868480Y25868298D01*
X-26824634Y25927417D01*
X-26805660Y25950537D01*
X-26756233Y26005070D01*
X-26735078Y26026225D01*
X-26680542Y26075655D01*
X-26657399Y26094648D01*
X-26598292Y26138484D01*
X-26573412Y26155109D01*
X-26510298Y26192938D01*
X-26483898Y26207049D01*
X-26417361Y26238518D01*
X-26389729Y26249964D01*
X-26320417Y26274765D01*
X-26291785Y26283450D01*
X-26220399Y26301331D01*
X-26191053Y26307168D01*
X-26118257Y26317967D01*
X-26088466Y26320901D01*
X-26014965Y26324512D01*
X-25985035Y26324512D01*
X-25911534Y26320901D01*
X-25881743Y26317967D01*
X-25808951Y26307169D01*
X-25779593Y26301329D01*
X-25708226Y26283453D01*
X-25679559Y26274756D01*
X-25610290Y26249971D01*
X-25582635Y26238516D01*
X-25516102Y26207049D01*
X-25489702Y26192938D01*
X-25426597Y26155114D01*
X-25401702Y26138480D01*
X-25342583Y26094634D01*
X-25319463Y26075660D01*
X-25264921Y26026225D01*
X-25243775Y26005079D01*
X-25194340Y25950537D01*
X-25175366Y25927417D01*
X-25131520Y25868298D01*
X-25114886Y25843403D01*
X-25077062Y25780298D01*
X-25062951Y25753898D01*
X-25031484Y25687365D01*
X-25020029Y25659710D01*
X-24995244Y25590441D01*
X-24986547Y25561774D01*
X-24968671Y25490407D01*
X-24962831Y25461049D01*
X-24952033Y25388257D01*
X-24949099Y25358466D01*
X-24945488Y25284965D01*
X-24945488Y25255035D01*
X-24949099Y25181534D01*
X-24952033Y25151743D01*
X-24962832Y25078947D01*
X-24968669Y25049601D01*
X-24986550Y24978215D01*
X-24995235Y24949583D01*
X-25020036Y24880271D01*
X-25031482Y24852639D01*
X-25062951Y24786102D01*
X-25077062Y24759702D01*
X-25114886Y24696597D01*
X-25131520Y24671702D01*
X-25175366Y24612583D01*
X-25194340Y24589463D01*
X-25243775Y24534921D01*
X-25264921Y24513775D01*
X-25319463Y24464340D01*
X-25342583Y24445366D01*
X-25401702Y24401520D01*
X-25426597Y24384886D01*
X-25489702Y24347062D01*
X-25516102Y24332951D01*
X-25582639Y24301482D01*
X-25610271Y24290036D01*
X-25679583Y24265235D01*
X-25708215Y24256550D01*
X-25779601Y24238669D01*
X-25808947Y24232832D01*
X-25881743Y24222033D01*
X-25911534Y24219099D01*
X-25985035Y24215488D01*
D02*
G37*
%LPC*%
G36*
X-28525035Y24215488D02*
X-28554965Y24215488D01*
X-28628466Y24219099D01*
X-28658257Y24222033D01*
X-28731049Y24232831D01*
X-28760407Y24238671D01*
X-28831774Y24256547D01*
X-28860441Y24265244D01*
X-28929710Y24290029D01*
X-28957365Y24301484D01*
X-29023898Y24332951D01*
X-29050298Y24347062D01*
X-29113412Y24384891D01*
X-29138292Y24401516D01*
X-29197399Y24445352D01*
X-29220542Y24464345D01*
X-29275078Y24513775D01*
X-29296233Y24534930D01*
X-29345660Y24589463D01*
X-29364634Y24612583D01*
X-29408480Y24671702D01*
X-29425114Y24696597D01*
X-29462938Y24759702D01*
X-29477053Y24786109D01*
X-29508515Y24852631D01*
X-29519964Y24880273D01*
X-29544766Y24949587D01*
X-29553448Y24978209D01*
X-29571331Y25049601D01*
X-29577168Y25078947D01*
X-29587967Y25151743D01*
X-29590901Y25181534D01*
X-29594512Y25255035D01*
X-29594512Y25284965D01*
X-29590901Y25358466D01*
X-29587967Y25388257D01*
X-29577168Y25461053D01*
X-29571331Y25490399D01*
X-29553448Y25561791D01*
X-29544766Y25590413D01*
X-29519964Y25659727D01*
X-29508515Y25687369D01*
X-29477053Y25753891D01*
X-29462938Y25780298D01*
X-29425114Y25843403D01*
X-29408480Y25868298D01*
X-29364634Y25927417D01*
X-29345660Y25950537D01*
X-29296233Y26005070D01*
X-29275078Y26026225D01*
X-29220542Y26075655D01*
X-29197399Y26094648D01*
X-29138292Y26138484D01*
X-29113412Y26155109D01*
X-29050298Y26192938D01*
X-29023898Y26207049D01*
X-28957361Y26238518D01*
X-28929729Y26249964D01*
X-28860417Y26274765D01*
X-28831785Y26283450D01*
X-28760399Y26301331D01*
X-28731053Y26307168D01*
X-28658257Y26317967D01*
X-28628466Y26320901D01*
X-28554965Y26324512D01*
X-28525035Y26324512D01*
X-28451534Y26320901D01*
X-28421743Y26317967D01*
X-28348951Y26307169D01*
X-28319593Y26301329D01*
X-28248226Y26283453D01*
X-28219559Y26274756D01*
X-28150290Y26249971D01*
X-28122635Y26238516D01*
X-28056102Y26207049D01*
X-28029702Y26192938D01*
X-27966597Y26155114D01*
X-27941702Y26138480D01*
X-27882583Y26094634D01*
X-27859463Y26075660D01*
X-27804921Y26026225D01*
X-27783775Y26005079D01*
X-27734340Y25950537D01*
X-27715366Y25927417D01*
X-27671520Y25868298D01*
X-27654886Y25843403D01*
X-27617062Y25780298D01*
X-27602951Y25753898D01*
X-27571484Y25687365D01*
X-27560029Y25659710D01*
X-27535244Y25590441D01*
X-27526547Y25561774D01*
X-27508671Y25490407D01*
X-27502831Y25461049D01*
X-27492033Y25388257D01*
X-27489099Y25358466D01*
X-27485488Y25284965D01*
X-27485488Y25255035D01*
X-27489099Y25181534D01*
X-27492033Y25151743D01*
X-27502832Y25078947D01*
X-27508669Y25049601D01*
X-27526550Y24978215D01*
X-27535235Y24949583D01*
X-27560036Y24880271D01*
X-27571482Y24852639D01*
X-27602951Y24786102D01*
X-27617062Y24759702D01*
X-27654886Y24696597D01*
X-27671520Y24671702D01*
X-27715366Y24612583D01*
X-27734340Y24589463D01*
X-27783775Y24534921D01*
X-27804921Y24513775D01*
X-27859463Y24464340D01*
X-27882583Y24445366D01*
X-27941702Y24401520D01*
X-27966597Y24384886D01*
X-28029702Y24347062D01*
X-28056102Y24332951D01*
X-28122639Y24301482D01*
X-28150271Y24290036D01*
X-28219583Y24265235D01*
X-28248215Y24256550D01*
X-28319601Y24238669D01*
X-28348947Y24232832D01*
X-28421743Y24222033D01*
X-28451534Y24219099D01*
X-28525035Y24215488D01*
D02*
G37*
%LPC*%
G36*
X-23665000Y25475000D02*
X-24490034Y25475000D01*
X-24465019Y25574863D01*
X-24430296Y25671910D01*
X-24386228Y25765084D01*
X-24333247Y25853477D01*
X-24271844Y25936268D01*
X-24202632Y26012631D01*
X-24126270Y26081843D01*
X-24043474Y26143249D01*
X-23955084Y26196228D01*
X-23861912Y26240294D01*
X-23764858Y26275021D01*
X-23665000Y26300034D01*
X-23665000Y25475000D01*
D02*
G37*
%LPC*%
G36*
X2335000Y25475000D02*
X1509966Y25475000D01*
X1534981Y25574863D01*
X1569704Y25671910D01*
X1613772Y25765084D01*
X1666753Y25853477D01*
X1728156Y25936268D01*
X1797368Y26012631D01*
X1873730Y26081843D01*
X1956526Y26143249D01*
X2044916Y26196228D01*
X2138088Y26240294D01*
X2235142Y26275021D01*
X2335000Y26300034D01*
X2335000Y25475000D01*
D02*
G37*
%LPC*%
G36*
X-22429967Y25475000D02*
X-23255000Y25475000D01*
X-23255000Y26300033D01*
X-23155126Y26275016D01*
X-23058093Y26240296D01*
X-22964920Y26196230D01*
X-22876519Y26143244D01*
X-22793732Y26081844D01*
X-22717368Y26012632D01*
X-22648156Y25936268D01*
X-22586756Y25853481D01*
X-22533770Y25765080D01*
X-22489704Y25671907D01*
X-22454984Y25574874D01*
X-22429967Y25475000D01*
D02*
G37*
%LPC*%
G36*
X3570033Y25475000D02*
X2745000Y25475000D01*
X2745000Y26300033D01*
X2844874Y26275016D01*
X2941907Y26240296D01*
X3035080Y26196230D01*
X3123481Y26143244D01*
X3206268Y26081844D01*
X3282632Y26012632D01*
X3351844Y25936268D01*
X3413244Y25853481D01*
X3466230Y25765080D01*
X3510296Y25671907D01*
X3545016Y25574874D01*
X3570033Y25475000D01*
D02*
G37*
%LPC*%
G36*
X28745000Y24239966D02*
X28745000Y25065000D01*
X29570034Y25065000D01*
X29545021Y24965142D01*
X29510294Y24868088D01*
X29466231Y24774921D01*
X29413244Y24686519D01*
X29351844Y24603732D01*
X29282632Y24527368D01*
X29206268Y24458156D01*
X29123481Y24396756D01*
X29035079Y24343769D01*
X28941912Y24299706D01*
X28844858Y24264979D01*
X28745000Y24239966D01*
D02*
G37*
%LPC*%
G36*
X28335000Y24239967D02*
X28235126Y24264984D01*
X28138093Y24299704D01*
X28044915Y24343772D01*
X27956526Y24396751D01*
X27873730Y24458157D01*
X27797368Y24527369D01*
X27728156Y24603732D01*
X27666753Y24686523D01*
X27613772Y24774916D01*
X27569704Y24868090D01*
X27534981Y24965137D01*
X27509966Y25065000D01*
X28335000Y25065000D01*
X28335000Y24239967D01*
D02*
G37*
%LPC*%
G36*
X2745000Y24239966D02*
X2745000Y25065000D01*
X3570034Y25065000D01*
X3545021Y24965142D01*
X3510294Y24868088D01*
X3466231Y24774921D01*
X3413244Y24686519D01*
X3351844Y24603732D01*
X3282632Y24527368D01*
X3206268Y24458156D01*
X3123481Y24396756D01*
X3035079Y24343769D01*
X2941912Y24299706D01*
X2844858Y24264979D01*
X2745000Y24239966D01*
D02*
G37*
%LPC*%
G36*
X2335000Y24239967D02*
X2235126Y24264984D01*
X2138093Y24299704D01*
X2044915Y24343772D01*
X1956526Y24396751D01*
X1873730Y24458157D01*
X1797368Y24527369D01*
X1728156Y24603732D01*
X1666753Y24686523D01*
X1613772Y24774916D01*
X1569704Y24868090D01*
X1534981Y24965137D01*
X1509966Y25065000D01*
X2335000Y25065000D01*
X2335000Y24239967D01*
D02*
G37*
%LPC*%
G36*
X-23255000Y24239966D02*
X-23255000Y25065000D01*
X-22429966Y25065000D01*
X-22454979Y24965142D01*
X-22489706Y24868088D01*
X-22533769Y24774921D01*
X-22586756Y24686519D01*
X-22648156Y24603732D01*
X-22717368Y24527368D01*
X-22793732Y24458156D01*
X-22876519Y24396756D01*
X-22964921Y24343769D01*
X-23058088Y24299706D01*
X-23155142Y24264979D01*
X-23255000Y24239966D01*
D02*
G37*
%LPC*%
G36*
X-23665000Y24239967D02*
X-23764874Y24264984D01*
X-23861907Y24299704D01*
X-23955085Y24343772D01*
X-24043474Y24396751D01*
X-24126270Y24458157D01*
X-24202632Y24527369D01*
X-24271844Y24603732D01*
X-24333247Y24686523D01*
X-24386228Y24774916D01*
X-24430296Y24868090D01*
X-24465019Y24965137D01*
X-24490034Y25065000D01*
X-23665000Y25065000D01*
X-23665000Y24239967D01*
D02*
G37*
%LPC*%
G36*
X28554965Y21675488D02*
X28525035Y21675488D01*
X28451534Y21679099D01*
X28421743Y21682033D01*
X28348951Y21692831D01*
X28319593Y21698671D01*
X28248226Y21716547D01*
X28219559Y21725244D01*
X28150290Y21750029D01*
X28122635Y21761484D01*
X28056102Y21792951D01*
X28029702Y21807062D01*
X27966588Y21844891D01*
X27941708Y21861516D01*
X27882601Y21905352D01*
X27859458Y21924345D01*
X27804922Y21973775D01*
X27783767Y21994930D01*
X27734340Y22049463D01*
X27715366Y22072583D01*
X27671520Y22131702D01*
X27654886Y22156597D01*
X27617062Y22219702D01*
X27602947Y22246109D01*
X27571485Y22312631D01*
X27560036Y22340273D01*
X27535234Y22409587D01*
X27526552Y22438209D01*
X27508669Y22509601D01*
X27502832Y22538947D01*
X27492033Y22611743D01*
X27489099Y22641534D01*
X27485488Y22715035D01*
X27485488Y22744965D01*
X27489099Y22818466D01*
X27492033Y22848257D01*
X27502832Y22921053D01*
X27508669Y22950399D01*
X27526552Y23021791D01*
X27535234Y23050413D01*
X27560036Y23119727D01*
X27571485Y23147369D01*
X27602947Y23213891D01*
X27617062Y23240298D01*
X27654886Y23303403D01*
X27671520Y23328298D01*
X27715366Y23387417D01*
X27734340Y23410537D01*
X27783767Y23465070D01*
X27804922Y23486225D01*
X27859458Y23535655D01*
X27882601Y23554648D01*
X27941708Y23598484D01*
X27966588Y23615109D01*
X28029702Y23652938D01*
X28056102Y23667049D01*
X28122639Y23698518D01*
X28150271Y23709964D01*
X28219583Y23734765D01*
X28248215Y23743450D01*
X28319601Y23761331D01*
X28348947Y23767168D01*
X28421743Y23777967D01*
X28451534Y23780901D01*
X28525035Y23784512D01*
X28554965Y23784512D01*
X28628466Y23780901D01*
X28658257Y23777967D01*
X28731049Y23767169D01*
X28760407Y23761329D01*
X28831774Y23743453D01*
X28860441Y23734756D01*
X28929710Y23709971D01*
X28957365Y23698516D01*
X29023898Y23667049D01*
X29050298Y23652938D01*
X29113403Y23615114D01*
X29138298Y23598480D01*
X29197417Y23554634D01*
X29220537Y23535660D01*
X29275079Y23486225D01*
X29296225Y23465079D01*
X29345660Y23410537D01*
X29364634Y23387417D01*
X29408480Y23328298D01*
X29425114Y23303403D01*
X29462938Y23240298D01*
X29477049Y23213898D01*
X29508516Y23147365D01*
X29519971Y23119710D01*
X29544756Y23050441D01*
X29553453Y23021774D01*
X29571329Y22950407D01*
X29577169Y22921049D01*
X29587967Y22848257D01*
X29590901Y22818466D01*
X29594512Y22744965D01*
X29594512Y22715035D01*
X29590901Y22641534D01*
X29587967Y22611743D01*
X29577168Y22538947D01*
X29571331Y22509601D01*
X29553450Y22438215D01*
X29544765Y22409583D01*
X29519964Y22340271D01*
X29508518Y22312639D01*
X29477049Y22246102D01*
X29462938Y22219702D01*
X29425114Y22156597D01*
X29408480Y22131702D01*
X29364634Y22072583D01*
X29345660Y22049463D01*
X29296225Y21994921D01*
X29275079Y21973775D01*
X29220537Y21924340D01*
X29197417Y21905366D01*
X29138298Y21861520D01*
X29113403Y21844886D01*
X29050298Y21807062D01*
X29023898Y21792951D01*
X28957361Y21761482D01*
X28929729Y21750036D01*
X28860417Y21725235D01*
X28831785Y21716550D01*
X28760399Y21698669D01*
X28731053Y21692832D01*
X28658257Y21682033D01*
X28628466Y21679099D01*
X28554965Y21675488D01*
D02*
G37*
%LPC*%
G36*
X26014965Y21675488D02*
X25985035Y21675488D01*
X25911534Y21679099D01*
X25881743Y21682033D01*
X25808951Y21692831D01*
X25779593Y21698671D01*
X25708226Y21716547D01*
X25679559Y21725244D01*
X25610290Y21750029D01*
X25582635Y21761484D01*
X25516102Y21792951D01*
X25489702Y21807062D01*
X25426588Y21844891D01*
X25401708Y21861516D01*
X25342601Y21905352D01*
X25319458Y21924345D01*
X25264922Y21973775D01*
X25243767Y21994930D01*
X25194340Y22049463D01*
X25175366Y22072583D01*
X25131520Y22131702D01*
X25114886Y22156597D01*
X25077062Y22219702D01*
X25062947Y22246109D01*
X25031485Y22312631D01*
X25020036Y22340273D01*
X24995234Y22409587D01*
X24986552Y22438209D01*
X24968669Y22509601D01*
X24962832Y22538947D01*
X24952033Y22611743D01*
X24949099Y22641534D01*
X24945488Y22715035D01*
X24945488Y22744965D01*
X24949099Y22818466D01*
X24952033Y22848257D01*
X24962832Y22921053D01*
X24968669Y22950399D01*
X24986552Y23021791D01*
X24995234Y23050413D01*
X25020036Y23119727D01*
X25031485Y23147369D01*
X25062947Y23213891D01*
X25077062Y23240298D01*
X25114886Y23303403D01*
X25131520Y23328298D01*
X25175366Y23387417D01*
X25194340Y23410537D01*
X25243767Y23465070D01*
X25264922Y23486225D01*
X25319458Y23535655D01*
X25342601Y23554648D01*
X25401708Y23598484D01*
X25426588Y23615109D01*
X25489702Y23652938D01*
X25516102Y23667049D01*
X25582639Y23698518D01*
X25610271Y23709964D01*
X25679583Y23734765D01*
X25708215Y23743450D01*
X25779601Y23761331D01*
X25808947Y23767168D01*
X25881743Y23777967D01*
X25911534Y23780901D01*
X25985035Y23784512D01*
X26014965Y23784512D01*
X26088466Y23780901D01*
X26118257Y23777967D01*
X26191049Y23767169D01*
X26220407Y23761329D01*
X26291774Y23743453D01*
X26320441Y23734756D01*
X26389710Y23709971D01*
X26417365Y23698516D01*
X26483898Y23667049D01*
X26510298Y23652938D01*
X26573403Y23615114D01*
X26598298Y23598480D01*
X26657417Y23554634D01*
X26680537Y23535660D01*
X26735079Y23486225D01*
X26756225Y23465079D01*
X26805660Y23410537D01*
X26824634Y23387417D01*
X26868480Y23328298D01*
X26885114Y23303403D01*
X26922938Y23240298D01*
X26937049Y23213898D01*
X26968516Y23147365D01*
X26979971Y23119710D01*
X27004756Y23050441D01*
X27013453Y23021774D01*
X27031329Y22950407D01*
X27037169Y22921049D01*
X27047967Y22848257D01*
X27050901Y22818466D01*
X27054512Y22744965D01*
X27054512Y22715035D01*
X27050901Y22641534D01*
X27047967Y22611743D01*
X27037168Y22538947D01*
X27031331Y22509601D01*
X27013450Y22438215D01*
X27004765Y22409583D01*
X26979964Y22340271D01*
X26968518Y22312639D01*
X26937049Y22246102D01*
X26922938Y22219702D01*
X26885114Y22156597D01*
X26868480Y22131702D01*
X26824634Y22072583D01*
X26805660Y22049463D01*
X26756225Y21994921D01*
X26735079Y21973775D01*
X26680537Y21924340D01*
X26657417Y21905366D01*
X26598298Y21861520D01*
X26573403Y21844886D01*
X26510298Y21807062D01*
X26483898Y21792951D01*
X26417361Y21761482D01*
X26389729Y21750036D01*
X26320417Y21725235D01*
X26291785Y21716550D01*
X26220399Y21698669D01*
X26191053Y21692832D01*
X26118257Y21682033D01*
X26088466Y21679099D01*
X26014965Y21675488D01*
D02*
G37*
%LPC*%
G36*
X23474965Y21675488D02*
X23445035Y21675488D01*
X23371534Y21679099D01*
X23341743Y21682033D01*
X23268951Y21692831D01*
X23239593Y21698671D01*
X23168226Y21716547D01*
X23139559Y21725244D01*
X23070290Y21750029D01*
X23042635Y21761484D01*
X22976102Y21792951D01*
X22949702Y21807062D01*
X22886588Y21844891D01*
X22861708Y21861516D01*
X22802601Y21905352D01*
X22779458Y21924345D01*
X22724922Y21973775D01*
X22703767Y21994930D01*
X22654340Y22049463D01*
X22635366Y22072583D01*
X22591520Y22131702D01*
X22574886Y22156597D01*
X22537062Y22219702D01*
X22522947Y22246109D01*
X22491485Y22312631D01*
X22480036Y22340273D01*
X22455234Y22409587D01*
X22446552Y22438209D01*
X22428669Y22509601D01*
X22422832Y22538947D01*
X22412033Y22611743D01*
X22409099Y22641534D01*
X22405488Y22715035D01*
X22405488Y22744965D01*
X22409099Y22818466D01*
X22412033Y22848257D01*
X22422832Y22921053D01*
X22428669Y22950399D01*
X22446552Y23021791D01*
X22455234Y23050413D01*
X22480036Y23119727D01*
X22491485Y23147369D01*
X22522947Y23213891D01*
X22537062Y23240298D01*
X22574886Y23303403D01*
X22591520Y23328298D01*
X22635366Y23387417D01*
X22654340Y23410537D01*
X22703767Y23465070D01*
X22724922Y23486225D01*
X22779458Y23535655D01*
X22802601Y23554648D01*
X22861708Y23598484D01*
X22886588Y23615109D01*
X22949702Y23652938D01*
X22976102Y23667049D01*
X23042639Y23698518D01*
X23070271Y23709964D01*
X23139583Y23734765D01*
X23168215Y23743450D01*
X23239601Y23761331D01*
X23268947Y23767168D01*
X23341743Y23777967D01*
X23371534Y23780901D01*
X23445035Y23784512D01*
X23474965Y23784512D01*
X23548466Y23780901D01*
X23578257Y23777967D01*
X23651049Y23767169D01*
X23680407Y23761329D01*
X23751774Y23743453D01*
X23780441Y23734756D01*
X23849710Y23709971D01*
X23877365Y23698516D01*
X23943898Y23667049D01*
X23970298Y23652938D01*
X24033403Y23615114D01*
X24058298Y23598480D01*
X24117417Y23554634D01*
X24140537Y23535660D01*
X24195079Y23486225D01*
X24216225Y23465079D01*
X24265660Y23410537D01*
X24284634Y23387417D01*
X24328480Y23328298D01*
X24345114Y23303403D01*
X24382938Y23240298D01*
X24397049Y23213898D01*
X24428516Y23147365D01*
X24439971Y23119710D01*
X24464756Y23050441D01*
X24473453Y23021774D01*
X24491329Y22950407D01*
X24497169Y22921049D01*
X24507967Y22848257D01*
X24510901Y22818466D01*
X24514512Y22744965D01*
X24514512Y22715035D01*
X24510901Y22641534D01*
X24507967Y22611743D01*
X24497168Y22538947D01*
X24491331Y22509601D01*
X24473450Y22438215D01*
X24464765Y22409583D01*
X24439964Y22340271D01*
X24428518Y22312639D01*
X24397049Y22246102D01*
X24382938Y22219702D01*
X24345114Y22156597D01*
X24328480Y22131702D01*
X24284634Y22072583D01*
X24265660Y22049463D01*
X24216225Y21994921D01*
X24195079Y21973775D01*
X24140537Y21924340D01*
X24117417Y21905366D01*
X24058298Y21861520D01*
X24033403Y21844886D01*
X23970298Y21807062D01*
X23943898Y21792951D01*
X23877361Y21761482D01*
X23849729Y21750036D01*
X23780417Y21725235D01*
X23751785Y21716550D01*
X23680399Y21698669D01*
X23651053Y21692832D01*
X23578257Y21682033D01*
X23548466Y21679099D01*
X23474965Y21675488D01*
D02*
G37*
%LPC*%
G36*
X2554965Y21675488D02*
X2525035Y21675488D01*
X2451534Y21679099D01*
X2421743Y21682033D01*
X2348951Y21692831D01*
X2319593Y21698671D01*
X2248226Y21716547D01*
X2219559Y21725244D01*
X2150290Y21750029D01*
X2122635Y21761484D01*
X2056102Y21792951D01*
X2029702Y21807062D01*
X1966588Y21844891D01*
X1941708Y21861516D01*
X1882601Y21905352D01*
X1859458Y21924345D01*
X1804922Y21973775D01*
X1783767Y21994930D01*
X1734340Y22049463D01*
X1715366Y22072583D01*
X1671520Y22131702D01*
X1654886Y22156597D01*
X1617062Y22219702D01*
X1602947Y22246109D01*
X1571485Y22312631D01*
X1560036Y22340273D01*
X1535234Y22409587D01*
X1526552Y22438209D01*
X1508669Y22509601D01*
X1502832Y22538947D01*
X1492033Y22611743D01*
X1489099Y22641534D01*
X1485488Y22715035D01*
X1485488Y22744965D01*
X1489099Y22818466D01*
X1492033Y22848257D01*
X1502832Y22921053D01*
X1508669Y22950399D01*
X1526552Y23021791D01*
X1535234Y23050413D01*
X1560036Y23119727D01*
X1571485Y23147369D01*
X1602947Y23213891D01*
X1617062Y23240298D01*
X1654886Y23303403D01*
X1671520Y23328298D01*
X1715366Y23387417D01*
X1734340Y23410537D01*
X1783767Y23465070D01*
X1804922Y23486225D01*
X1859458Y23535655D01*
X1882601Y23554648D01*
X1941708Y23598484D01*
X1966588Y23615109D01*
X2029702Y23652938D01*
X2056102Y23667049D01*
X2122639Y23698518D01*
X2150271Y23709964D01*
X2219583Y23734765D01*
X2248215Y23743450D01*
X2319601Y23761331D01*
X2348947Y23767168D01*
X2421743Y23777967D01*
X2451534Y23780901D01*
X2525035Y23784512D01*
X2554965Y23784512D01*
X2628466Y23780901D01*
X2658257Y23777967D01*
X2731049Y23767169D01*
X2760407Y23761329D01*
X2831774Y23743453D01*
X2860441Y23734756D01*
X2929710Y23709971D01*
X2957365Y23698516D01*
X3023898Y23667049D01*
X3050298Y23652938D01*
X3113403Y23615114D01*
X3138298Y23598480D01*
X3197417Y23554634D01*
X3220537Y23535660D01*
X3275079Y23486225D01*
X3296225Y23465079D01*
X3345660Y23410537D01*
X3364634Y23387417D01*
X3408480Y23328298D01*
X3425114Y23303403D01*
X3462938Y23240298D01*
X3477049Y23213898D01*
X3508516Y23147365D01*
X3519971Y23119710D01*
X3544756Y23050441D01*
X3553453Y23021774D01*
X3571329Y22950407D01*
X3577169Y22921049D01*
X3587967Y22848257D01*
X3590901Y22818466D01*
X3594512Y22744965D01*
X3594512Y22715035D01*
X3590901Y22641534D01*
X3587967Y22611743D01*
X3577168Y22538947D01*
X3571331Y22509601D01*
X3553450Y22438215D01*
X3544765Y22409583D01*
X3519964Y22340271D01*
X3508518Y22312639D01*
X3477049Y22246102D01*
X3462938Y22219702D01*
X3425114Y22156597D01*
X3408480Y22131702D01*
X3364634Y22072583D01*
X3345660Y22049463D01*
X3296225Y21994921D01*
X3275079Y21973775D01*
X3220537Y21924340D01*
X3197417Y21905366D01*
X3138298Y21861520D01*
X3113403Y21844886D01*
X3050298Y21807062D01*
X3023898Y21792951D01*
X2957361Y21761482D01*
X2929729Y21750036D01*
X2860417Y21725235D01*
X2831785Y21716550D01*
X2760399Y21698669D01*
X2731053Y21692832D01*
X2658257Y21682033D01*
X2628466Y21679099D01*
X2554965Y21675488D01*
D02*
G37*
%LPC*%
G36*
X14965Y21675488D02*
X-14965Y21675488D01*
X-88466Y21679099D01*
X-118257Y21682033D01*
X-191049Y21692831D01*
X-220407Y21698671D01*
X-291774Y21716547D01*
X-320441Y21725244D01*
X-389710Y21750029D01*
X-417365Y21761484D01*
X-483898Y21792951D01*
X-510298Y21807062D01*
X-573412Y21844891D01*
X-598292Y21861516D01*
X-657399Y21905352D01*
X-680542Y21924345D01*
X-735078Y21973775D01*
X-756233Y21994930D01*
X-805660Y22049463D01*
X-824634Y22072583D01*
X-868480Y22131702D01*
X-885114Y22156597D01*
X-922938Y22219702D01*
X-937053Y22246109D01*
X-968515Y22312631D01*
X-979964Y22340273D01*
X-1004766Y22409587D01*
X-1013448Y22438209D01*
X-1031331Y22509601D01*
X-1037168Y22538947D01*
X-1047967Y22611743D01*
X-1050901Y22641534D01*
X-1054512Y22715035D01*
X-1054512Y22744965D01*
X-1050901Y22818466D01*
X-1047967Y22848257D01*
X-1037168Y22921053D01*
X-1031331Y22950399D01*
X-1013448Y23021791D01*
X-1004766Y23050413D01*
X-979964Y23119727D01*
X-968515Y23147369D01*
X-937053Y23213891D01*
X-922938Y23240298D01*
X-885114Y23303403D01*
X-868480Y23328298D01*
X-824634Y23387417D01*
X-805660Y23410537D01*
X-756233Y23465070D01*
X-735078Y23486225D01*
X-680542Y23535655D01*
X-657399Y23554648D01*
X-598292Y23598484D01*
X-573412Y23615109D01*
X-510298Y23652938D01*
X-483898Y23667049D01*
X-417361Y23698518D01*
X-389729Y23709964D01*
X-320417Y23734765D01*
X-291785Y23743450D01*
X-220399Y23761331D01*
X-191053Y23767168D01*
X-118257Y23777967D01*
X-88466Y23780901D01*
X-14965Y23784512D01*
X14965Y23784512D01*
X88466Y23780901D01*
X118257Y23777967D01*
X191049Y23767169D01*
X220407Y23761329D01*
X291774Y23743453D01*
X320441Y23734756D01*
X389710Y23709971D01*
X417365Y23698516D01*
X483898Y23667049D01*
X510298Y23652938D01*
X573403Y23615114D01*
X598298Y23598480D01*
X657417Y23554634D01*
X680537Y23535660D01*
X735079Y23486225D01*
X756225Y23465079D01*
X805660Y23410537D01*
X824634Y23387417D01*
X868480Y23328298D01*
X885114Y23303403D01*
X922938Y23240298D01*
X937049Y23213898D01*
X968516Y23147365D01*
X979971Y23119710D01*
X1004756Y23050441D01*
X1013453Y23021774D01*
X1031329Y22950407D01*
X1037169Y22921049D01*
X1047967Y22848257D01*
X1050901Y22818466D01*
X1054512Y22744965D01*
X1054512Y22715035D01*
X1050901Y22641534D01*
X1047967Y22611743D01*
X1037168Y22538947D01*
X1031331Y22509601D01*
X1013450Y22438215D01*
X1004765Y22409583D01*
X979964Y22340271D01*
X968518Y22312639D01*
X937049Y22246102D01*
X922938Y22219702D01*
X885114Y22156597D01*
X868480Y22131702D01*
X824634Y22072583D01*
X805660Y22049463D01*
X756225Y21994921D01*
X735079Y21973775D01*
X680537Y21924340D01*
X657417Y21905366D01*
X598298Y21861520D01*
X573403Y21844886D01*
X510298Y21807062D01*
X483898Y21792951D01*
X417361Y21761482D01*
X389729Y21750036D01*
X320417Y21725235D01*
X291785Y21716550D01*
X220399Y21698669D01*
X191053Y21692832D01*
X118257Y21682033D01*
X88466Y21679099D01*
X14965Y21675488D01*
D02*
G37*
%LPC*%
G36*
X-2525035Y21675488D02*
X-2554965Y21675488D01*
X-2628466Y21679099D01*
X-2658257Y21682033D01*
X-2731049Y21692831D01*
X-2760407Y21698671D01*
X-2831774Y21716547D01*
X-2860441Y21725244D01*
X-2929710Y21750029D01*
X-2957365Y21761484D01*
X-3023898Y21792951D01*
X-3050298Y21807062D01*
X-3113412Y21844891D01*
X-3138292Y21861516D01*
X-3197399Y21905352D01*
X-3220542Y21924345D01*
X-3275078Y21973775D01*
X-3296233Y21994930D01*
X-3345660Y22049463D01*
X-3364634Y22072583D01*
X-3408480Y22131702D01*
X-3425114Y22156597D01*
X-3462938Y22219702D01*
X-3477053Y22246109D01*
X-3508515Y22312631D01*
X-3519964Y22340273D01*
X-3544766Y22409587D01*
X-3553448Y22438209D01*
X-3571331Y22509601D01*
X-3577168Y22538947D01*
X-3587967Y22611743D01*
X-3590901Y22641534D01*
X-3594512Y22715035D01*
X-3594512Y22744965D01*
X-3590901Y22818466D01*
X-3587967Y22848257D01*
X-3577168Y22921053D01*
X-3571331Y22950399D01*
X-3553448Y23021791D01*
X-3544766Y23050413D01*
X-3519964Y23119727D01*
X-3508515Y23147369D01*
X-3477053Y23213891D01*
X-3462938Y23240298D01*
X-3425114Y23303403D01*
X-3408480Y23328298D01*
X-3364634Y23387417D01*
X-3345660Y23410537D01*
X-3296233Y23465070D01*
X-3275078Y23486225D01*
X-3220542Y23535655D01*
X-3197399Y23554648D01*
X-3138292Y23598484D01*
X-3113412Y23615109D01*
X-3050298Y23652938D01*
X-3023898Y23667049D01*
X-2957361Y23698518D01*
X-2929729Y23709964D01*
X-2860417Y23734765D01*
X-2831785Y23743450D01*
X-2760399Y23761331D01*
X-2731053Y23767168D01*
X-2658257Y23777967D01*
X-2628466Y23780901D01*
X-2554965Y23784512D01*
X-2525035Y23784512D01*
X-2451534Y23780901D01*
X-2421743Y23777967D01*
X-2348951Y23767169D01*
X-2319593Y23761329D01*
X-2248226Y23743453D01*
X-2219559Y23734756D01*
X-2150290Y23709971D01*
X-2122635Y23698516D01*
X-2056102Y23667049D01*
X-2029702Y23652938D01*
X-1966597Y23615114D01*
X-1941702Y23598480D01*
X-1882583Y23554634D01*
X-1859463Y23535660D01*
X-1804921Y23486225D01*
X-1783775Y23465079D01*
X-1734340Y23410537D01*
X-1715366Y23387417D01*
X-1671520Y23328298D01*
X-1654886Y23303403D01*
X-1617062Y23240298D01*
X-1602951Y23213898D01*
X-1571484Y23147365D01*
X-1560029Y23119710D01*
X-1535244Y23050441D01*
X-1526547Y23021774D01*
X-1508671Y22950407D01*
X-1502831Y22921049D01*
X-1492033Y22848257D01*
X-1489099Y22818466D01*
X-1485488Y22744965D01*
X-1485488Y22715035D01*
X-1489099Y22641534D01*
X-1492033Y22611743D01*
X-1502832Y22538947D01*
X-1508669Y22509601D01*
X-1526550Y22438215D01*
X-1535235Y22409583D01*
X-1560036Y22340271D01*
X-1571482Y22312639D01*
X-1602951Y22246102D01*
X-1617062Y22219702D01*
X-1654886Y22156597D01*
X-1671520Y22131702D01*
X-1715366Y22072583D01*
X-1734340Y22049463D01*
X-1783775Y21994921D01*
X-1804921Y21973775D01*
X-1859463Y21924340D01*
X-1882583Y21905366D01*
X-1941702Y21861520D01*
X-1966597Y21844886D01*
X-2029702Y21807062D01*
X-2056102Y21792951D01*
X-2122639Y21761482D01*
X-2150271Y21750036D01*
X-2219583Y21725235D01*
X-2248215Y21716550D01*
X-2319601Y21698669D01*
X-2348947Y21692832D01*
X-2421743Y21682033D01*
X-2451534Y21679099D01*
X-2525035Y21675488D01*
D02*
G37*
%LPC*%
G36*
X-23445035Y21675488D02*
X-23474965Y21675488D01*
X-23548466Y21679099D01*
X-23578257Y21682033D01*
X-23651049Y21692831D01*
X-23680407Y21698671D01*
X-23751774Y21716547D01*
X-23780441Y21725244D01*
X-23849710Y21750029D01*
X-23877365Y21761484D01*
X-23943898Y21792951D01*
X-23970298Y21807062D01*
X-24033412Y21844891D01*
X-24058292Y21861516D01*
X-24117399Y21905352D01*
X-24140542Y21924345D01*
X-24195078Y21973775D01*
X-24216233Y21994930D01*
X-24265660Y22049463D01*
X-24284634Y22072583D01*
X-24328480Y22131702D01*
X-24345114Y22156597D01*
X-24382938Y22219702D01*
X-24397053Y22246109D01*
X-24428515Y22312631D01*
X-24439964Y22340273D01*
X-24464766Y22409587D01*
X-24473448Y22438209D01*
X-24491331Y22509601D01*
X-24497168Y22538947D01*
X-24507967Y22611743D01*
X-24510901Y22641534D01*
X-24514512Y22715035D01*
X-24514512Y22744965D01*
X-24510901Y22818466D01*
X-24507967Y22848257D01*
X-24497168Y22921053D01*
X-24491331Y22950399D01*
X-24473448Y23021791D01*
X-24464766Y23050413D01*
X-24439964Y23119727D01*
X-24428515Y23147369D01*
X-24397053Y23213891D01*
X-24382938Y23240298D01*
X-24345114Y23303403D01*
X-24328480Y23328298D01*
X-24284634Y23387417D01*
X-24265660Y23410537D01*
X-24216233Y23465070D01*
X-24195078Y23486225D01*
X-24140542Y23535655D01*
X-24117399Y23554648D01*
X-24058292Y23598484D01*
X-24033412Y23615109D01*
X-23970298Y23652938D01*
X-23943898Y23667049D01*
X-23877361Y23698518D01*
X-23849729Y23709964D01*
X-23780417Y23734765D01*
X-23751785Y23743450D01*
X-23680399Y23761331D01*
X-23651053Y23767168D01*
X-23578257Y23777967D01*
X-23548466Y23780901D01*
X-23474965Y23784512D01*
X-23445035Y23784512D01*
X-23371534Y23780901D01*
X-23341743Y23777967D01*
X-23268951Y23767169D01*
X-23239593Y23761329D01*
X-23168226Y23743453D01*
X-23139559Y23734756D01*
X-23070290Y23709971D01*
X-23042635Y23698516D01*
X-22976102Y23667049D01*
X-22949702Y23652938D01*
X-22886597Y23615114D01*
X-22861702Y23598480D01*
X-22802583Y23554634D01*
X-22779463Y23535660D01*
X-22724921Y23486225D01*
X-22703775Y23465079D01*
X-22654340Y23410537D01*
X-22635366Y23387417D01*
X-22591520Y23328298D01*
X-22574886Y23303403D01*
X-22537062Y23240298D01*
X-22522951Y23213898D01*
X-22491484Y23147365D01*
X-22480029Y23119710D01*
X-22455244Y23050441D01*
X-22446547Y23021774D01*
X-22428671Y22950407D01*
X-22422831Y22921049D01*
X-22412033Y22848257D01*
X-22409099Y22818466D01*
X-22405488Y22744965D01*
X-22405488Y22715035D01*
X-22409099Y22641534D01*
X-22412033Y22611743D01*
X-22422832Y22538947D01*
X-22428669Y22509601D01*
X-22446550Y22438215D01*
X-22455235Y22409583D01*
X-22480036Y22340271D01*
X-22491482Y22312639D01*
X-22522951Y22246102D01*
X-22537062Y22219702D01*
X-22574886Y22156597D01*
X-22591520Y22131702D01*
X-22635366Y22072583D01*
X-22654340Y22049463D01*
X-22703775Y21994921D01*
X-22724921Y21973775D01*
X-22779463Y21924340D01*
X-22802583Y21905366D01*
X-22861702Y21861520D01*
X-22886597Y21844886D01*
X-22949702Y21807062D01*
X-22976102Y21792951D01*
X-23042639Y21761482D01*
X-23070271Y21750036D01*
X-23139583Y21725235D01*
X-23168215Y21716550D01*
X-23239601Y21698669D01*
X-23268947Y21692832D01*
X-23341743Y21682033D01*
X-23371534Y21679099D01*
X-23445035Y21675488D01*
D02*
G37*
%LPC*%
G36*
X-25985035Y21675488D02*
X-26014965Y21675488D01*
X-26088466Y21679099D01*
X-26118257Y21682033D01*
X-26191049Y21692831D01*
X-26220407Y21698671D01*
X-26291774Y21716547D01*
X-26320441Y21725244D01*
X-26389710Y21750029D01*
X-26417365Y21761484D01*
X-26483898Y21792951D01*
X-26510298Y21807062D01*
X-26573412Y21844891D01*
X-26598292Y21861516D01*
X-26657399Y21905352D01*
X-26680542Y21924345D01*
X-26735078Y21973775D01*
X-26756233Y21994930D01*
X-26805660Y22049463D01*
X-26824634Y22072583D01*
X-26868480Y22131702D01*
X-26885114Y22156597D01*
X-26922938Y22219702D01*
X-26937053Y22246109D01*
X-26968515Y22312631D01*
X-26979964Y22340273D01*
X-27004766Y22409587D01*
X-27013448Y22438209D01*
X-27031331Y22509601D01*
X-27037168Y22538947D01*
X-27047967Y22611743D01*
X-27050901Y22641534D01*
X-27054512Y22715035D01*
X-27054512Y22744965D01*
X-27050901Y22818466D01*
X-27047967Y22848257D01*
X-27037168Y22921053D01*
X-27031331Y22950399D01*
X-27013448Y23021791D01*
X-27004766Y23050413D01*
X-26979964Y23119727D01*
X-26968515Y23147369D01*
X-26937053Y23213891D01*
X-26922938Y23240298D01*
X-26885114Y23303403D01*
X-26868480Y23328298D01*
X-26824634Y23387417D01*
X-26805660Y23410537D01*
X-26756233Y23465070D01*
X-26735078Y23486225D01*
X-26680542Y23535655D01*
X-26657399Y23554648D01*
X-26598292Y23598484D01*
X-26573412Y23615109D01*
X-26510298Y23652938D01*
X-26483898Y23667049D01*
X-26417361Y23698518D01*
X-26389729Y23709964D01*
X-26320417Y23734765D01*
X-26291785Y23743450D01*
X-26220399Y23761331D01*
X-26191053Y23767168D01*
X-26118257Y23777967D01*
X-26088466Y23780901D01*
X-26014965Y23784512D01*
X-25985035Y23784512D01*
X-25911534Y23780901D01*
X-25881743Y23777967D01*
X-25808951Y23767169D01*
X-25779593Y23761329D01*
X-25708226Y23743453D01*
X-25679559Y23734756D01*
X-25610290Y23709971D01*
X-25582635Y23698516D01*
X-25516102Y23667049D01*
X-25489702Y23652938D01*
X-25426597Y23615114D01*
X-25401702Y23598480D01*
X-25342583Y23554634D01*
X-25319463Y23535660D01*
X-25264921Y23486225D01*
X-25243775Y23465079D01*
X-25194340Y23410537D01*
X-25175366Y23387417D01*
X-25131520Y23328298D01*
X-25114886Y23303403D01*
X-25077062Y23240298D01*
X-25062951Y23213898D01*
X-25031484Y23147365D01*
X-25020029Y23119710D01*
X-24995244Y23050441D01*
X-24986547Y23021774D01*
X-24968671Y22950407D01*
X-24962831Y22921049D01*
X-24952033Y22848257D01*
X-24949099Y22818466D01*
X-24945488Y22744965D01*
X-24945488Y22715035D01*
X-24949099Y22641534D01*
X-24952033Y22611743D01*
X-24962832Y22538947D01*
X-24968669Y22509601D01*
X-24986550Y22438215D01*
X-24995235Y22409583D01*
X-25020036Y22340271D01*
X-25031482Y22312639D01*
X-25062951Y22246102D01*
X-25077062Y22219702D01*
X-25114886Y22156597D01*
X-25131520Y22131702D01*
X-25175366Y22072583D01*
X-25194340Y22049463D01*
X-25243775Y21994921D01*
X-25264921Y21973775D01*
X-25319463Y21924340D01*
X-25342583Y21905366D01*
X-25401702Y21861520D01*
X-25426597Y21844886D01*
X-25489702Y21807062D01*
X-25516102Y21792951D01*
X-25582639Y21761482D01*
X-25610271Y21750036D01*
X-25679583Y21725235D01*
X-25708215Y21716550D01*
X-25779601Y21698669D01*
X-25808947Y21692832D01*
X-25881743Y21682033D01*
X-25911534Y21679099D01*
X-25985035Y21675488D01*
D02*
G37*
%LPC*%
G36*
X-28525035Y21675488D02*
X-28554965Y21675488D01*
X-28628466Y21679099D01*
X-28658257Y21682033D01*
X-28731049Y21692831D01*
X-28760407Y21698671D01*
X-28831774Y21716547D01*
X-28860441Y21725244D01*
X-28929710Y21750029D01*
X-28957365Y21761484D01*
X-29023898Y21792951D01*
X-29050298Y21807062D01*
X-29113412Y21844891D01*
X-29138292Y21861516D01*
X-29197399Y21905352D01*
X-29220542Y21924345D01*
X-29275078Y21973775D01*
X-29296233Y21994930D01*
X-29345660Y22049463D01*
X-29364634Y22072583D01*
X-29408480Y22131702D01*
X-29425114Y22156597D01*
X-29462938Y22219702D01*
X-29477053Y22246109D01*
X-29508515Y22312631D01*
X-29519964Y22340273D01*
X-29544766Y22409587D01*
X-29553448Y22438209D01*
X-29571331Y22509601D01*
X-29577168Y22538947D01*
X-29587967Y22611743D01*
X-29590901Y22641534D01*
X-29594512Y22715035D01*
X-29594512Y22744965D01*
X-29590901Y22818466D01*
X-29587967Y22848257D01*
X-29577168Y22921053D01*
X-29571331Y22950399D01*
X-29553448Y23021791D01*
X-29544766Y23050413D01*
X-29519964Y23119727D01*
X-29508515Y23147369D01*
X-29477053Y23213891D01*
X-29462938Y23240298D01*
X-29425114Y23303403D01*
X-29408480Y23328298D01*
X-29364634Y23387417D01*
X-29345660Y23410537D01*
X-29296233Y23465070D01*
X-29275078Y23486225D01*
X-29220542Y23535655D01*
X-29197399Y23554648D01*
X-29138292Y23598484D01*
X-29113412Y23615109D01*
X-29050298Y23652938D01*
X-29023898Y23667049D01*
X-28957361Y23698518D01*
X-28929729Y23709964D01*
X-28860417Y23734765D01*
X-28831785Y23743450D01*
X-28760399Y23761331D01*
X-28731053Y23767168D01*
X-28658257Y23777967D01*
X-28628466Y23780901D01*
X-28554965Y23784512D01*
X-28525035Y23784512D01*
X-28451534Y23780901D01*
X-28421743Y23777967D01*
X-28348951Y23767169D01*
X-28319593Y23761329D01*
X-28248226Y23743453D01*
X-28219559Y23734756D01*
X-28150290Y23709971D01*
X-28122635Y23698516D01*
X-28056102Y23667049D01*
X-28029702Y23652938D01*
X-27966597Y23615114D01*
X-27941702Y23598480D01*
X-27882583Y23554634D01*
X-27859463Y23535660D01*
X-27804921Y23486225D01*
X-27783775Y23465079D01*
X-27734340Y23410537D01*
X-27715366Y23387417D01*
X-27671520Y23328298D01*
X-27654886Y23303403D01*
X-27617062Y23240298D01*
X-27602951Y23213898D01*
X-27571484Y23147365D01*
X-27560029Y23119710D01*
X-27535244Y23050441D01*
X-27526547Y23021774D01*
X-27508671Y22950407D01*
X-27502831Y22921049D01*
X-27492033Y22848257D01*
X-27489099Y22818466D01*
X-27485488Y22744965D01*
X-27485488Y22715035D01*
X-27489099Y22641534D01*
X-27492033Y22611743D01*
X-27502832Y22538947D01*
X-27508669Y22509601D01*
X-27526550Y22438215D01*
X-27535235Y22409583D01*
X-27560036Y22340271D01*
X-27571482Y22312639D01*
X-27602951Y22246102D01*
X-27617062Y22219702D01*
X-27654886Y22156597D01*
X-27671520Y22131702D01*
X-27715366Y22072583D01*
X-27734340Y22049463D01*
X-27783775Y21994921D01*
X-27804921Y21973775D01*
X-27859463Y21924340D01*
X-27882583Y21905366D01*
X-27941702Y21861520D01*
X-27966597Y21844886D01*
X-28029702Y21807062D01*
X-28056102Y21792951D01*
X-28122639Y21761482D01*
X-28150271Y21750036D01*
X-28219583Y21725235D01*
X-28248215Y21716550D01*
X-28319601Y21698669D01*
X-28348947Y21692832D01*
X-28421743Y21682033D01*
X-28451534Y21679099D01*
X-28525035Y21675488D01*
D02*
G37*
%LPC*%
G36*
X13474514Y10313428D02*
X13449486Y10313428D01*
X13439685Y10313910D01*
X13414809Y10316360D01*
X13405105Y10317799D01*
X13380551Y10322683D01*
X13371036Y10325067D01*
X13347093Y10332330D01*
X13337869Y10335631D01*
X13314757Y10345204D01*
X13305891Y10349397D01*
X13283831Y10361188D01*
X13275398Y10366243D01*
X13254608Y10380135D01*
X13246748Y10385964D01*
X13227388Y10401852D01*
X13220118Y10408441D01*
X13202441Y10426118D01*
X13195852Y10433388D01*
X13179964Y10452748D01*
X13174135Y10460608D01*
X13160243Y10481398D01*
X13155188Y10489831D01*
X13143397Y10511891D01*
X13139204Y10520757D01*
X13129631Y10543869D01*
X13126330Y10553093D01*
X13119067Y10577036D01*
X13116683Y10586551D01*
X13111799Y10611105D01*
X13110360Y10620809D01*
X13107910Y10645685D01*
X13107428Y10655486D01*
X13107428Y10680514D01*
X13107910Y10690315D01*
X13110360Y10715191D01*
X13111799Y10724895D01*
X13116683Y10749449D01*
X13119067Y10758964D01*
X13126330Y10782907D01*
X13129631Y10792131D01*
X13139204Y10815243D01*
X13143397Y10824109D01*
X13155188Y10846169D01*
X13160243Y10854602D01*
X13174135Y10875392D01*
X13179964Y10883252D01*
X13195852Y10902612D01*
X13202441Y10909882D01*
X13205120Y10912561D01*
X13211887Y10919668D01*
X13214452Y10922498D01*
X14491421Y12199467D01*
X14525294Y12244596D01*
X14545213Y12297390D01*
X14550000Y12340888D01*
X14550000Y15770112D01*
X14542040Y15825975D01*
X14518794Y15877391D01*
X14482111Y15920267D01*
X14434913Y15951192D01*
X14380955Y15967702D01*
X14324534Y15968484D01*
X14270139Y15953476D01*
X14208579Y15911533D01*
X14122504Y15825458D01*
X14105279Y15810778D01*
X14083796Y15789457D01*
X14075965Y15783030D01*
X14026300Y15749846D01*
X14017687Y15745242D01*
X13962503Y15722385D01*
X13953163Y15719552D01*
X13894565Y15707896D01*
X13879968Y15706458D01*
X13850083Y15704990D01*
X11934980Y15704990D01*
X11905095Y15706458D01*
X11890496Y15707896D01*
X11831899Y15719551D01*
X11822558Y15722385D01*
X11767374Y15745242D01*
X11758761Y15749846D01*
X11709096Y15783030D01*
X11701614Y15789170D01*
X11680542Y15810273D01*
X11669270Y15818746D01*
X10001625Y17486391D01*
X9956496Y17520264D01*
X9903702Y17540183D01*
X9860204Y17544970D01*
X-10015589Y17544970D01*
X-10071452Y17537010D01*
X-10122868Y17513764D01*
X-10165744Y17477081D01*
X-10196669Y17429883D01*
X-10213179Y17375925D01*
X-10213961Y17319504D01*
X-10210901Y17306116D01*
X-10211745Y17305948D01*
X-10204949Y17271781D01*
X-10196312Y17213557D01*
X-10193377Y17183762D01*
X-10190488Y17124965D01*
X-10190488Y17095035D01*
X-10193377Y17036238D01*
X-10196312Y17006443D01*
X-10204949Y16948219D01*
X-10210786Y16918873D01*
X-10225096Y16861745D01*
X-10233783Y16833107D01*
X-10253610Y16777694D01*
X-10265073Y16750019D01*
X-10290237Y16696814D01*
X-10304342Y16670429D01*
X-10334613Y16619923D01*
X-10351241Y16595036D01*
X-10386307Y16547755D01*
X-10405300Y16524612D01*
X-10444841Y16480986D01*
X-10465986Y16459841D01*
X-10509612Y16420300D01*
X-10532755Y16401307D01*
X-10580036Y16366241D01*
X-10604923Y16349613D01*
X-10655429Y16319342D01*
X-10681814Y16305237D01*
X-10735019Y16280073D01*
X-10762694Y16268610D01*
X-10818107Y16248783D01*
X-10846745Y16240096D01*
X-10903877Y16225785D01*
X-10933215Y16219949D01*
X-10991444Y16211312D01*
X-11021240Y16208377D01*
X-11080035Y16205488D01*
X-11109965Y16205488D01*
X-11168760Y16208377D01*
X-11198556Y16211312D01*
X-11256785Y16219949D01*
X-11286123Y16225785D01*
X-11343255Y16240096D01*
X-11371893Y16248783D01*
X-11427306Y16268610D01*
X-11454981Y16280073D01*
X-11508186Y16305237D01*
X-11534571Y16319342D01*
X-11585077Y16349613D01*
X-11609964Y16366241D01*
X-11657245Y16401307D01*
X-11680388Y16420300D01*
X-11724014Y16459841D01*
X-11745159Y16480986D01*
X-11784700Y16524612D01*
X-11803693Y16547755D01*
X-11838759Y16595036D01*
X-11855387Y16619923D01*
X-11885658Y16670429D01*
X-11899763Y16696814D01*
X-11924927Y16750019D01*
X-11936390Y16777694D01*
X-11956217Y16833107D01*
X-11964904Y16861745D01*
X-11979215Y16918877D01*
X-11985051Y16948215D01*
X-11993688Y17006444D01*
X-11996623Y17036240D01*
X-11999512Y17095035D01*
X-11999512Y17124965D01*
X-11996623Y17183760D01*
X-11993688Y17213556D01*
X-11985051Y17271785D01*
X-11979215Y17301123D01*
X-11964904Y17358255D01*
X-11956217Y17386893D01*
X-11936390Y17442306D01*
X-11924927Y17469981D01*
X-11899763Y17523186D01*
X-11885658Y17549571D01*
X-11855387Y17600077D01*
X-11838759Y17624964D01*
X-11803693Y17672245D01*
X-11784700Y17695388D01*
X-11770851Y17710668D01*
X-11739234Y17757405D01*
X-11721929Y17811113D01*
X-11720315Y17867517D01*
X-11734519Y17922127D01*
X-11763411Y17970596D01*
X-11804692Y18009066D01*
X-11855074Y18034475D01*
X-11919041Y18044980D01*
X-12221198Y18044980D01*
X-12277061Y18037020D01*
X-12328477Y18013774D01*
X-12362619Y17986401D01*
X-12733861Y17615159D01*
X-12767734Y17570030D01*
X-12787653Y17517236D01*
X-12792033Y17460979D01*
X-12780748Y17406358D01*
X-12773781Y17386886D01*
X-12765096Y17358255D01*
X-12750786Y17301127D01*
X-12744949Y17271781D01*
X-12736312Y17213557D01*
X-12733377Y17183762D01*
X-12730488Y17124965D01*
X-12730488Y17095035D01*
X-12733377Y17036238D01*
X-12736312Y17006443D01*
X-12744949Y16948219D01*
X-12750786Y16918873D01*
X-12765096Y16861745D01*
X-12773783Y16833107D01*
X-12793610Y16777694D01*
X-12805073Y16750019D01*
X-12830237Y16696814D01*
X-12844342Y16670429D01*
X-12874613Y16619923D01*
X-12891241Y16595036D01*
X-12926307Y16547755D01*
X-12945300Y16524612D01*
X-12984841Y16480986D01*
X-13005986Y16459841D01*
X-13049612Y16420300D01*
X-13072755Y16401307D01*
X-13120036Y16366241D01*
X-13144923Y16349613D01*
X-13195429Y16319342D01*
X-13221814Y16305237D01*
X-13275019Y16280073D01*
X-13302694Y16268610D01*
X-13358107Y16248783D01*
X-13386745Y16240096D01*
X-13443877Y16225785D01*
X-13473215Y16219949D01*
X-13531444Y16211312D01*
X-13561240Y16208377D01*
X-13620035Y16205488D01*
X-13649965Y16205488D01*
X-13708760Y16208377D01*
X-13738556Y16211312D01*
X-13796785Y16219949D01*
X-13826123Y16225785D01*
X-13883255Y16240096D01*
X-13911893Y16248783D01*
X-13967306Y16268610D01*
X-13994981Y16280073D01*
X-14048186Y16305237D01*
X-14074571Y16319342D01*
X-14125077Y16349613D01*
X-14149964Y16366241D01*
X-14197245Y16401307D01*
X-14220388Y16420300D01*
X-14264014Y16459841D01*
X-14285159Y16480986D01*
X-14324700Y16524612D01*
X-14343693Y16547755D01*
X-14378759Y16595036D01*
X-14395387Y16619923D01*
X-14425658Y16670429D01*
X-14439763Y16696814D01*
X-14464927Y16750019D01*
X-14476390Y16777694D01*
X-14496217Y16833107D01*
X-14504904Y16861745D01*
X-14519215Y16918877D01*
X-14525051Y16948215D01*
X-14533688Y17006444D01*
X-14536623Y17036240D01*
X-14539512Y17095035D01*
X-14539512Y17124965D01*
X-14536623Y17183760D01*
X-14533688Y17213556D01*
X-14525051Y17271785D01*
X-14519215Y17301123D01*
X-14504904Y17358255D01*
X-14496217Y17386893D01*
X-14476390Y17442306D01*
X-14464927Y17469981D01*
X-14439763Y17523186D01*
X-14425658Y17549571D01*
X-14395387Y17600077D01*
X-14378759Y17624964D01*
X-14343693Y17672245D01*
X-14324700Y17695388D01*
X-14285159Y17739014D01*
X-14264014Y17760159D01*
X-14220388Y17799700D01*
X-14197245Y17818693D01*
X-14149964Y17853759D01*
X-14125077Y17870387D01*
X-14074571Y17900658D01*
X-14048186Y17914763D01*
X-13994981Y17939927D01*
X-13967306Y17951390D01*
X-13911893Y17971217D01*
X-13883255Y17979904D01*
X-13826123Y17994215D01*
X-13796785Y18000051D01*
X-13738556Y18008688D01*
X-13708760Y18011623D01*
X-13649965Y18014512D01*
X-13620035Y18014512D01*
X-13561240Y18011623D01*
X-13531444Y18008688D01*
X-13473215Y18000051D01*
X-13443877Y17994215D01*
X-13386745Y17979904D01*
X-13358114Y17971219D01*
X-13338642Y17964252D01*
X-13283363Y17952926D01*
X-13227122Y17957492D01*
X-13174393Y17977585D01*
X-13129841Y18011139D01*
X-12650909Y18490071D01*
X-12617036Y18535200D01*
X-12597117Y18587994D01*
X-12592737Y18644251D01*
X-12604245Y18699492D01*
X-12630724Y18749320D01*
X-12670067Y18789770D01*
X-12715803Y18816272D01*
X-12724980Y18820073D01*
X-12778186Y18845237D01*
X-12804571Y18859342D01*
X-12855077Y18889613D01*
X-12879964Y18906241D01*
X-12927245Y18941307D01*
X-12950388Y18960300D01*
X-12994014Y18999841D01*
X-13015159Y19020986D01*
X-13054700Y19064612D01*
X-13073693Y19087755D01*
X-13108759Y19135036D01*
X-13125387Y19159923D01*
X-13155658Y19210429D01*
X-13169763Y19236814D01*
X-13194927Y19290019D01*
X-13206390Y19317694D01*
X-13226217Y19373107D01*
X-13234904Y19401745D01*
X-13249215Y19458877D01*
X-13255051Y19488215D01*
X-13263688Y19546444D01*
X-13266623Y19576240D01*
X-13269512Y19635035D01*
X-13269512Y19664965D01*
X-13266623Y19723760D01*
X-13263688Y19753556D01*
X-13255051Y19811785D01*
X-13249215Y19841123D01*
X-13234904Y19898255D01*
X-13226217Y19926893D01*
X-13206390Y19982306D01*
X-13194930Y20009973D01*
X-13171506Y20059499D01*
X-13154818Y20113401D01*
X-13153849Y20169820D01*
X-13168677Y20224264D01*
X-13198122Y20272399D01*
X-13239840Y20310394D01*
X-13290510Y20335224D01*
X-13352304Y20345010D01*
X-13625102Y20345010D01*
X-13680965Y20337050D01*
X-13732381Y20313804D01*
X-13766523Y20286431D01*
X-13978939Y20074015D01*
X-14012812Y20028886D01*
X-14032731Y19976092D01*
X-14037111Y19919835D01*
X-14031524Y19883998D01*
X-14020789Y19841141D01*
X-14014949Y19811781D01*
X-14006312Y19753557D01*
X-14003377Y19723762D01*
X-14000488Y19664965D01*
X-14000488Y19635035D01*
X-14003377Y19576238D01*
X-14006312Y19546443D01*
X-14014949Y19488219D01*
X-14020786Y19458873D01*
X-14035096Y19401745D01*
X-14043783Y19373107D01*
X-14063610Y19317694D01*
X-14075073Y19290019D01*
X-14100237Y19236814D01*
X-14114342Y19210429D01*
X-14144613Y19159923D01*
X-14161241Y19135036D01*
X-14196307Y19087755D01*
X-14215300Y19064612D01*
X-14254841Y19020986D01*
X-14275986Y18999841D01*
X-14319612Y18960300D01*
X-14342755Y18941307D01*
X-14390036Y18906241D01*
X-14414923Y18889613D01*
X-14465429Y18859342D01*
X-14491814Y18845237D01*
X-14545019Y18820073D01*
X-14572694Y18808610D01*
X-14628107Y18788783D01*
X-14656745Y18780096D01*
X-14713877Y18765785D01*
X-14743215Y18759949D01*
X-14801444Y18751312D01*
X-14831240Y18748377D01*
X-14890035Y18745488D01*
X-14919965Y18745488D01*
X-14978760Y18748377D01*
X-15008556Y18751312D01*
X-15066785Y18759949D01*
X-15096123Y18765785D01*
X-15153255Y18780096D01*
X-15181893Y18788783D01*
X-15237306Y18808610D01*
X-15264981Y18820073D01*
X-15318186Y18845237D01*
X-15344571Y18859342D01*
X-15395077Y18889613D01*
X-15419964Y18906241D01*
X-15467245Y18941307D01*
X-15490388Y18960300D01*
X-15534014Y18999841D01*
X-15555159Y19020986D01*
X-15594700Y19064612D01*
X-15613693Y19087755D01*
X-15648759Y19135036D01*
X-15665387Y19159923D01*
X-15695658Y19210429D01*
X-15709763Y19236814D01*
X-15734927Y19290019D01*
X-15746390Y19317694D01*
X-15766217Y19373107D01*
X-15774904Y19401745D01*
X-15789215Y19458877D01*
X-15795051Y19488215D01*
X-15803688Y19546444D01*
X-15806623Y19576240D01*
X-15809512Y19635035D01*
X-15809512Y19664965D01*
X-15806623Y19723760D01*
X-15803688Y19753556D01*
X-15795051Y19811785D01*
X-15789215Y19841123D01*
X-15774904Y19898255D01*
X-15766217Y19926893D01*
X-15746390Y19982306D01*
X-15734927Y20009981D01*
X-15709763Y20063186D01*
X-15695658Y20089571D01*
X-15665387Y20140077D01*
X-15648759Y20164964D01*
X-15613693Y20212245D01*
X-15594700Y20235388D01*
X-15555159Y20279014D01*
X-15534014Y20300159D01*
X-15490388Y20339700D01*
X-15467245Y20358693D01*
X-15419964Y20393759D01*
X-15395077Y20410387D01*
X-15344571Y20440658D01*
X-15318186Y20454763D01*
X-15264981Y20479927D01*
X-15237306Y20491390D01*
X-15181893Y20511217D01*
X-15153255Y20519904D01*
X-15096123Y20534215D01*
X-15066785Y20540051D01*
X-15008556Y20548688D01*
X-14978760Y20551623D01*
X-14919965Y20554512D01*
X-14890035Y20554512D01*
X-14831240Y20551623D01*
X-14801444Y20548688D01*
X-14743215Y20540051D01*
X-14713863Y20534212D01*
X-14671002Y20523476D01*
X-14614880Y20517624D01*
X-14559356Y20527680D01*
X-14508851Y20552845D01*
X-14480985Y20576061D01*
X-14109493Y20947553D01*
X-14087305Y20967663D01*
X-14075965Y20976969D01*
X-14026300Y21010153D01*
X-14017687Y21014757D01*
X-13962503Y21037614D01*
X-13953160Y21040448D01*
X-13894571Y21052104D01*
X-13879985Y21053541D01*
X-13850080Y21055010D01*
X-11764920Y21055010D01*
X-11735014Y21053541D01*
X-11720427Y21052104D01*
X-11661841Y21040449D01*
X-11652496Y21037614D01*
X-11597312Y21014757D01*
X-11588699Y21010153D01*
X-11539034Y20976969D01*
X-11531203Y20970542D01*
X-11509720Y20949221D01*
X-11499752Y20941798D01*
X-10071533Y19513579D01*
X-10026404Y19479706D01*
X-9973610Y19459787D01*
X-9930112Y19455000D01*
X9990488Y19455000D01*
X10046351Y19462960D01*
X10097767Y19486206D01*
X10140643Y19522889D01*
X10171568Y19570087D01*
X10188078Y19624045D01*
X10190488Y19655000D01*
X10190488Y19664965D01*
X10193377Y19723760D01*
X10196312Y19753556D01*
X10204949Y19811785D01*
X10210785Y19841123D01*
X10225096Y19898255D01*
X10233783Y19926893D01*
X10253610Y19982306D01*
X10265073Y20009981D01*
X10290237Y20063186D01*
X10304342Y20089571D01*
X10334613Y20140077D01*
X10351241Y20164964D01*
X10386307Y20212245D01*
X10405300Y20235388D01*
X10444841Y20279014D01*
X10465986Y20300159D01*
X10509612Y20339700D01*
X10532755Y20358693D01*
X10580036Y20393759D01*
X10604923Y20410387D01*
X10655429Y20440658D01*
X10681814Y20454763D01*
X10735019Y20479927D01*
X10762694Y20491390D01*
X10818107Y20511217D01*
X10846745Y20519904D01*
X10903877Y20534215D01*
X10933215Y20540051D01*
X10991444Y20548688D01*
X11021240Y20551623D01*
X11080035Y20554512D01*
X11109965Y20554512D01*
X11168760Y20551623D01*
X11198556Y20548688D01*
X11256785Y20540051D01*
X11286123Y20534215D01*
X11343255Y20519904D01*
X11371893Y20511217D01*
X11427306Y20491390D01*
X11454981Y20479927D01*
X11508186Y20454763D01*
X11534571Y20440658D01*
X11585077Y20410387D01*
X11609964Y20393759D01*
X11657245Y20358693D01*
X11680388Y20339700D01*
X11724014Y20300159D01*
X11745159Y20279014D01*
X11784700Y20235388D01*
X11803693Y20212245D01*
X11838759Y20164964D01*
X11855387Y20140077D01*
X11885658Y20089571D01*
X11899763Y20063186D01*
X11924927Y20009981D01*
X11936390Y19982306D01*
X11956217Y19926893D01*
X11964904Y19898255D01*
X11979214Y19841127D01*
X11985051Y19811781D01*
X11993688Y19753557D01*
X11996623Y19723762D01*
X11999512Y19664965D01*
X11999512Y19635035D01*
X11996623Y19576238D01*
X11993688Y19546443D01*
X11985051Y19488219D01*
X11979214Y19458873D01*
X11964904Y19401745D01*
X11956217Y19373107D01*
X11936390Y19317694D01*
X11924930Y19290027D01*
X11901506Y19240501D01*
X11884818Y19186599D01*
X11883849Y19130180D01*
X11898677Y19075736D01*
X11928122Y19027601D01*
X11969840Y18989606D01*
X12020510Y18964776D01*
X12082304Y18954990D01*
X12461168Y18954990D01*
X12517031Y18962950D01*
X12568447Y18986196D01*
X12602589Y19013569D01*
X12733861Y19144841D01*
X12767734Y19189970D01*
X12787653Y19242764D01*
X12792033Y19299021D01*
X12780748Y19353642D01*
X12773781Y19373114D01*
X12765096Y19401745D01*
X12750785Y19458877D01*
X12744949Y19488215D01*
X12736312Y19546444D01*
X12733377Y19576240D01*
X12730488Y19635035D01*
X12730488Y19664965D01*
X12733377Y19723760D01*
X12736312Y19753556D01*
X12744949Y19811785D01*
X12750785Y19841123D01*
X12765096Y19898255D01*
X12773783Y19926893D01*
X12793610Y19982306D01*
X12805073Y20009981D01*
X12830237Y20063186D01*
X12844342Y20089571D01*
X12874613Y20140077D01*
X12891241Y20164964D01*
X12926307Y20212245D01*
X12945300Y20235388D01*
X12984841Y20279014D01*
X13005986Y20300159D01*
X13049612Y20339700D01*
X13072755Y20358693D01*
X13120036Y20393759D01*
X13144923Y20410387D01*
X13195429Y20440658D01*
X13221814Y20454763D01*
X13275019Y20479927D01*
X13302694Y20491390D01*
X13358107Y20511217D01*
X13386745Y20519904D01*
X13443877Y20534215D01*
X13473215Y20540051D01*
X13531444Y20548688D01*
X13561240Y20551623D01*
X13620035Y20554512D01*
X13649965Y20554512D01*
X13708760Y20551623D01*
X13738556Y20548688D01*
X13796785Y20540051D01*
X13826123Y20534215D01*
X13883255Y20519904D01*
X13911893Y20511217D01*
X13967306Y20491390D01*
X13994981Y20479927D01*
X14048186Y20454763D01*
X14074571Y20440658D01*
X14125077Y20410387D01*
X14149964Y20393759D01*
X14197245Y20358693D01*
X14220388Y20339700D01*
X14264014Y20300159D01*
X14285159Y20279014D01*
X14324700Y20235388D01*
X14343693Y20212245D01*
X14378759Y20164964D01*
X14395387Y20140077D01*
X14425658Y20089571D01*
X14439763Y20063186D01*
X14464927Y20009981D01*
X14476390Y19982306D01*
X14496217Y19926893D01*
X14504904Y19898255D01*
X14519214Y19841127D01*
X14525051Y19811781D01*
X14533688Y19753557D01*
X14536623Y19723762D01*
X14539512Y19664965D01*
X14539512Y19635035D01*
X14536623Y19576238D01*
X14533688Y19546443D01*
X14525051Y19488219D01*
X14519214Y19458873D01*
X14504904Y19401745D01*
X14496217Y19373107D01*
X14476390Y19317694D01*
X14464927Y19290019D01*
X14439763Y19236814D01*
X14425658Y19210429D01*
X14395387Y19159923D01*
X14378759Y19135036D01*
X14343693Y19087755D01*
X14324700Y19064612D01*
X14285159Y19020986D01*
X14264014Y18999841D01*
X14220388Y18960300D01*
X14197245Y18941307D01*
X14149964Y18906241D01*
X14125077Y18889613D01*
X14074571Y18859342D01*
X14048186Y18845237D01*
X13994981Y18820073D01*
X13967306Y18808610D01*
X13911893Y18788783D01*
X13883255Y18780096D01*
X13826123Y18765785D01*
X13796785Y18759949D01*
X13738556Y18751312D01*
X13708760Y18748377D01*
X13649965Y18745488D01*
X13620035Y18745488D01*
X13561240Y18748377D01*
X13531444Y18751312D01*
X13473215Y18759949D01*
X13443877Y18765785D01*
X13386745Y18780096D01*
X13358114Y18788781D01*
X13338642Y18795748D01*
X13283363Y18807074D01*
X13227122Y18802508D01*
X13174393Y18782415D01*
X13129841Y18748861D01*
X12874471Y18493491D01*
X12857246Y18478811D01*
X12837422Y18459136D01*
X12791689Y18428581D01*
X12741093Y18407624D01*
X12684950Y18396457D01*
X12655083Y18394990D01*
X12571924Y18394990D01*
X12516061Y18387030D01*
X12464645Y18363784D01*
X12421769Y18327101D01*
X12390844Y18279903D01*
X12374334Y18225945D01*
X12373552Y18169524D01*
X12388560Y18115129D01*
X12418164Y18067092D01*
X12460007Y18029235D01*
X12532907Y17998833D01*
X12556120Y17994216D01*
X12613255Y17979904D01*
X12641893Y17971217D01*
X12697306Y17951390D01*
X12724981Y17939927D01*
X12778186Y17914763D01*
X12804571Y17900658D01*
X12855077Y17870387D01*
X12879964Y17853759D01*
X12927245Y17818693D01*
X12950388Y17799700D01*
X12994014Y17760159D01*
X13015159Y17739014D01*
X13054700Y17695388D01*
X13073693Y17672245D01*
X13108759Y17624964D01*
X13125387Y17600077D01*
X13155658Y17549571D01*
X13169763Y17523186D01*
X13194927Y17469981D01*
X13206390Y17442306D01*
X13226217Y17386893D01*
X13234904Y17358255D01*
X13249214Y17301127D01*
X13255051Y17271781D01*
X13263688Y17213557D01*
X13266623Y17183762D01*
X13269512Y17124965D01*
X13269512Y17095035D01*
X13266623Y17036238D01*
X13263688Y17006443D01*
X13255051Y16948219D01*
X13249214Y16918873D01*
X13234904Y16861745D01*
X13226217Y16833107D01*
X13206390Y16777694D01*
X13194930Y16750027D01*
X13171506Y16700501D01*
X13154818Y16646599D01*
X13153849Y16590180D01*
X13168677Y16535736D01*
X13198122Y16487601D01*
X13239840Y16449606D01*
X13290510Y16424776D01*
X13352304Y16414990D01*
X13625102Y16414990D01*
X13680965Y16422950D01*
X13732381Y16446196D01*
X13766523Y16473569D01*
X13978939Y16685985D01*
X14012812Y16731114D01*
X14032731Y16783908D01*
X14037111Y16840165D01*
X14031524Y16876002D01*
X14020788Y16918863D01*
X14014949Y16948215D01*
X14006312Y17006444D01*
X14003377Y17036240D01*
X14000488Y17095035D01*
X14000488Y17124965D01*
X14003377Y17183760D01*
X14006312Y17213556D01*
X14014949Y17271785D01*
X14020785Y17301123D01*
X14035096Y17358255D01*
X14043783Y17386893D01*
X14063610Y17442306D01*
X14075073Y17469981D01*
X14100237Y17523186D01*
X14114342Y17549571D01*
X14144613Y17600077D01*
X14161241Y17624964D01*
X14196307Y17672245D01*
X14215300Y17695388D01*
X14254841Y17739014D01*
X14275986Y17760159D01*
X14319612Y17799700D01*
X14342755Y17818693D01*
X14390036Y17853759D01*
X14414923Y17870387D01*
X14465429Y17900658D01*
X14491814Y17914763D01*
X14545019Y17939927D01*
X14572694Y17951390D01*
X14628107Y17971217D01*
X14656745Y17979904D01*
X14713877Y17994215D01*
X14743215Y18000051D01*
X14801444Y18008688D01*
X14831240Y18011623D01*
X14890035Y18014512D01*
X14919965Y18014512D01*
X14978760Y18011623D01*
X15008556Y18008688D01*
X15066785Y18000051D01*
X15096123Y17994215D01*
X15153255Y17979904D01*
X15181893Y17971217D01*
X15237306Y17951390D01*
X15264981Y17939927D01*
X15318186Y17914763D01*
X15344571Y17900658D01*
X15395077Y17870387D01*
X15419964Y17853759D01*
X15467245Y17818693D01*
X15490388Y17799700D01*
X15534014Y17760159D01*
X15555159Y17739014D01*
X15594700Y17695388D01*
X15613693Y17672245D01*
X15648759Y17624964D01*
X15665387Y17600077D01*
X15695658Y17549571D01*
X15709763Y17523186D01*
X15734927Y17469981D01*
X15746390Y17442306D01*
X15766217Y17386893D01*
X15774904Y17358255D01*
X15789214Y17301127D01*
X15795051Y17271781D01*
X15803688Y17213557D01*
X15806623Y17183762D01*
X15809512Y17124965D01*
X15809512Y17095035D01*
X15806623Y17036238D01*
X15803688Y17006443D01*
X15795051Y16948219D01*
X15789214Y16918873D01*
X15774904Y16861745D01*
X15766217Y16833107D01*
X15746390Y16777694D01*
X15734927Y16750019D01*
X15709763Y16696814D01*
X15695658Y16670429D01*
X15665387Y16619923D01*
X15648759Y16595036D01*
X15613693Y16547755D01*
X15594700Y16524612D01*
X15555159Y16480986D01*
X15534014Y16459841D01*
X15490388Y16420300D01*
X15467245Y16401307D01*
X15419964Y16366241D01*
X15395083Y16349617D01*
X15357181Y16326900D01*
X15313358Y16291353D01*
X15281208Y16244982D01*
X15263289Y16191475D01*
X15260000Y16155353D01*
X15260000Y12115910D01*
X15258531Y12086004D01*
X15257094Y12071417D01*
X15245439Y12012831D01*
X15242604Y12003486D01*
X15219747Y11948302D01*
X15215143Y11939689D01*
X15181959Y11890024D01*
X15175532Y11882193D01*
X15154211Y11860710D01*
X15146788Y11850742D01*
X13716498Y10420452D01*
X13713668Y10417887D01*
X13706561Y10411120D01*
X13703882Y10408441D01*
X13696612Y10401852D01*
X13677252Y10385964D01*
X13669392Y10380135D01*
X13648602Y10366243D01*
X13640169Y10361188D01*
X13618109Y10349397D01*
X13609243Y10345204D01*
X13586131Y10335631D01*
X13576907Y10332330D01*
X13552964Y10325067D01*
X13543449Y10322683D01*
X13518895Y10317799D01*
X13509191Y10316360D01*
X13484315Y10313910D01*
X13474514Y10313428D01*
D02*
G37*
%LPC*%
G36*
X23474965Y15215488D02*
X23445035Y15215488D01*
X23371534Y15219099D01*
X23341743Y15222033D01*
X23268951Y15232831D01*
X23239593Y15238671D01*
X23168226Y15256547D01*
X23139559Y15265244D01*
X23070290Y15290029D01*
X23042635Y15301484D01*
X22976102Y15332951D01*
X22949702Y15347062D01*
X22886588Y15384891D01*
X22861708Y15401516D01*
X22802601Y15445352D01*
X22779458Y15464345D01*
X22724922Y15513775D01*
X22703767Y15534930D01*
X22654340Y15589463D01*
X22635366Y15612583D01*
X22591520Y15671702D01*
X22574886Y15696597D01*
X22537062Y15759702D01*
X22522947Y15786109D01*
X22491485Y15852631D01*
X22480036Y15880273D01*
X22455234Y15949587D01*
X22446552Y15978209D01*
X22428669Y16049601D01*
X22422832Y16078947D01*
X22412033Y16151743D01*
X22409099Y16181534D01*
X22405488Y16255035D01*
X22405488Y16284965D01*
X22409099Y16358466D01*
X22412033Y16388257D01*
X22422832Y16461053D01*
X22428669Y16490399D01*
X22446552Y16561791D01*
X22455234Y16590413D01*
X22480036Y16659727D01*
X22491485Y16687369D01*
X22522947Y16753891D01*
X22537062Y16780298D01*
X22574886Y16843403D01*
X22591520Y16868298D01*
X22635366Y16927417D01*
X22654340Y16950537D01*
X22703767Y17005070D01*
X22724922Y17026225D01*
X22779458Y17075655D01*
X22802601Y17094648D01*
X22861708Y17138484D01*
X22886588Y17155109D01*
X22949702Y17192938D01*
X22976102Y17207049D01*
X23042639Y17238518D01*
X23070271Y17249964D01*
X23139583Y17274765D01*
X23168215Y17283450D01*
X23239601Y17301331D01*
X23268947Y17307168D01*
X23341743Y17317967D01*
X23371534Y17320901D01*
X23445035Y17324512D01*
X23474965Y17324512D01*
X23548466Y17320901D01*
X23578257Y17317967D01*
X23651049Y17307169D01*
X23680407Y17301329D01*
X23751774Y17283453D01*
X23780441Y17274756D01*
X23849710Y17249971D01*
X23877365Y17238516D01*
X23943898Y17207049D01*
X23970298Y17192938D01*
X24033403Y17155114D01*
X24058298Y17138480D01*
X24117417Y17094634D01*
X24140537Y17075660D01*
X24195079Y17026225D01*
X24216225Y17005079D01*
X24265660Y16950537D01*
X24284634Y16927417D01*
X24328480Y16868298D01*
X24345114Y16843403D01*
X24382938Y16780298D01*
X24397049Y16753898D01*
X24428516Y16687365D01*
X24439971Y16659710D01*
X24464756Y16590441D01*
X24473453Y16561774D01*
X24491329Y16490407D01*
X24497169Y16461049D01*
X24507967Y16388257D01*
X24510901Y16358466D01*
X24514512Y16284965D01*
X24514512Y16255035D01*
X24510901Y16181534D01*
X24507967Y16151743D01*
X24497168Y16078947D01*
X24491331Y16049601D01*
X24473450Y15978215D01*
X24464765Y15949583D01*
X24439964Y15880271D01*
X24428518Y15852639D01*
X24397049Y15786102D01*
X24382938Y15759702D01*
X24345114Y15696597D01*
X24328480Y15671702D01*
X24284634Y15612583D01*
X24265660Y15589463D01*
X24216225Y15534921D01*
X24195079Y15513775D01*
X24140537Y15464340D01*
X24117417Y15445366D01*
X24058298Y15401520D01*
X24033403Y15384886D01*
X23970298Y15347062D01*
X23943898Y15332951D01*
X23877361Y15301482D01*
X23849729Y15290036D01*
X23780417Y15265235D01*
X23751785Y15256550D01*
X23680399Y15238669D01*
X23651053Y15232832D01*
X23578257Y15222033D01*
X23548466Y15219099D01*
X23474965Y15215488D01*
D02*
G37*
%LPC*%
G36*
X-25985035Y15215488D02*
X-26014965Y15215488D01*
X-26088466Y15219099D01*
X-26118257Y15222033D01*
X-26191049Y15232831D01*
X-26220407Y15238671D01*
X-26291774Y15256547D01*
X-26320441Y15265244D01*
X-26389710Y15290029D01*
X-26417365Y15301484D01*
X-26483898Y15332951D01*
X-26510298Y15347062D01*
X-26573412Y15384891D01*
X-26598292Y15401516D01*
X-26657399Y15445352D01*
X-26680542Y15464345D01*
X-26735078Y15513775D01*
X-26756233Y15534930D01*
X-26805660Y15589463D01*
X-26824634Y15612583D01*
X-26868480Y15671702D01*
X-26885114Y15696597D01*
X-26922938Y15759702D01*
X-26937053Y15786109D01*
X-26968515Y15852631D01*
X-26979964Y15880273D01*
X-27004766Y15949587D01*
X-27013448Y15978209D01*
X-27031331Y16049601D01*
X-27037168Y16078947D01*
X-27047967Y16151743D01*
X-27050901Y16181534D01*
X-27054512Y16255035D01*
X-27054512Y16284965D01*
X-27050901Y16358466D01*
X-27047967Y16388257D01*
X-27037168Y16461053D01*
X-27031331Y16490399D01*
X-27013448Y16561791D01*
X-27004766Y16590413D01*
X-26979964Y16659727D01*
X-26968515Y16687369D01*
X-26937053Y16753891D01*
X-26922938Y16780298D01*
X-26885114Y16843403D01*
X-26868480Y16868298D01*
X-26824634Y16927417D01*
X-26805660Y16950537D01*
X-26756233Y17005070D01*
X-26735078Y17026225D01*
X-26680542Y17075655D01*
X-26657399Y17094648D01*
X-26598292Y17138484D01*
X-26573412Y17155109D01*
X-26510298Y17192938D01*
X-26483898Y17207049D01*
X-26417361Y17238518D01*
X-26389729Y17249964D01*
X-26320417Y17274765D01*
X-26291785Y17283450D01*
X-26220399Y17301331D01*
X-26191053Y17307168D01*
X-26118257Y17317967D01*
X-26088466Y17320901D01*
X-26014965Y17324512D01*
X-25985035Y17324512D01*
X-25911534Y17320901D01*
X-25881743Y17317967D01*
X-25808951Y17307169D01*
X-25779593Y17301329D01*
X-25708226Y17283453D01*
X-25679559Y17274756D01*
X-25610290Y17249971D01*
X-25582635Y17238516D01*
X-25516102Y17207049D01*
X-25489702Y17192938D01*
X-25426597Y17155114D01*
X-25401702Y17138480D01*
X-25342583Y17094634D01*
X-25319463Y17075660D01*
X-25264921Y17026225D01*
X-25243775Y17005079D01*
X-25194340Y16950537D01*
X-25175366Y16927417D01*
X-25131520Y16868298D01*
X-25114886Y16843403D01*
X-25077062Y16780298D01*
X-25062951Y16753898D01*
X-25031484Y16687365D01*
X-25020029Y16659710D01*
X-24995244Y16590441D01*
X-24986547Y16561774D01*
X-24968671Y16490407D01*
X-24962831Y16461049D01*
X-24952033Y16388257D01*
X-24949099Y16358466D01*
X-24945488Y16284965D01*
X-24945488Y16255035D01*
X-24949099Y16181534D01*
X-24952033Y16151743D01*
X-24962832Y16078947D01*
X-24968669Y16049601D01*
X-24986550Y15978215D01*
X-24995235Y15949583D01*
X-25020036Y15880271D01*
X-25031482Y15852639D01*
X-25062951Y15786102D01*
X-25077062Y15759702D01*
X-25114886Y15696597D01*
X-25131520Y15671702D01*
X-25175366Y15612583D01*
X-25194340Y15589463D01*
X-25243775Y15534921D01*
X-25264921Y15513775D01*
X-25319463Y15464340D01*
X-25342583Y15445366D01*
X-25401702Y15401520D01*
X-25426597Y15384886D01*
X-25489702Y15347062D01*
X-25516102Y15332951D01*
X-25582639Y15301482D01*
X-25610271Y15290036D01*
X-25679583Y15265235D01*
X-25708215Y15256550D01*
X-25779601Y15238669D01*
X-25808947Y15232832D01*
X-25881743Y15222033D01*
X-25911534Y15219099D01*
X-25985035Y15215488D01*
D02*
G37*
%LPC*%
G36*
X-28525035Y15215488D02*
X-28554965Y15215488D01*
X-28628466Y15219099D01*
X-28658257Y15222033D01*
X-28731049Y15232831D01*
X-28760407Y15238671D01*
X-28831774Y15256547D01*
X-28860441Y15265244D01*
X-28929710Y15290029D01*
X-28957365Y15301484D01*
X-29023898Y15332951D01*
X-29050298Y15347062D01*
X-29113412Y15384891D01*
X-29138292Y15401516D01*
X-29197399Y15445352D01*
X-29220542Y15464345D01*
X-29275078Y15513775D01*
X-29296233Y15534930D01*
X-29345660Y15589463D01*
X-29364634Y15612583D01*
X-29408480Y15671702D01*
X-29425114Y15696597D01*
X-29462938Y15759702D01*
X-29477053Y15786109D01*
X-29508515Y15852631D01*
X-29519964Y15880273D01*
X-29544766Y15949587D01*
X-29553448Y15978209D01*
X-29571331Y16049601D01*
X-29577168Y16078947D01*
X-29587967Y16151743D01*
X-29590901Y16181534D01*
X-29594512Y16255035D01*
X-29594512Y16284965D01*
X-29590901Y16358466D01*
X-29587967Y16388257D01*
X-29577168Y16461053D01*
X-29571331Y16490399D01*
X-29553448Y16561791D01*
X-29544766Y16590413D01*
X-29519964Y16659727D01*
X-29508515Y16687369D01*
X-29477053Y16753891D01*
X-29462938Y16780298D01*
X-29425114Y16843403D01*
X-29408480Y16868298D01*
X-29364634Y16927417D01*
X-29345660Y16950537D01*
X-29296233Y17005070D01*
X-29275078Y17026225D01*
X-29220542Y17075655D01*
X-29197399Y17094648D01*
X-29138292Y17138484D01*
X-29113412Y17155109D01*
X-29050298Y17192938D01*
X-29023898Y17207049D01*
X-28957361Y17238518D01*
X-28929729Y17249964D01*
X-28860417Y17274765D01*
X-28831785Y17283450D01*
X-28760399Y17301331D01*
X-28731053Y17307168D01*
X-28658257Y17317967D01*
X-28628466Y17320901D01*
X-28554965Y17324512D01*
X-28525035Y17324512D01*
X-28451534Y17320901D01*
X-28421743Y17317967D01*
X-28348951Y17307169D01*
X-28319593Y17301329D01*
X-28248226Y17283453D01*
X-28219559Y17274756D01*
X-28150290Y17249971D01*
X-28122635Y17238516D01*
X-28056102Y17207049D01*
X-28029702Y17192938D01*
X-27966597Y17155114D01*
X-27941702Y17138480D01*
X-27882583Y17094634D01*
X-27859463Y17075660D01*
X-27804921Y17026225D01*
X-27783775Y17005079D01*
X-27734340Y16950537D01*
X-27715366Y16927417D01*
X-27671520Y16868298D01*
X-27654886Y16843403D01*
X-27617062Y16780298D01*
X-27602951Y16753898D01*
X-27571484Y16687365D01*
X-27560029Y16659710D01*
X-27535244Y16590441D01*
X-27526547Y16561774D01*
X-27508671Y16490407D01*
X-27502831Y16461049D01*
X-27492033Y16388257D01*
X-27489099Y16358466D01*
X-27485488Y16284965D01*
X-27485488Y16255035D01*
X-27489099Y16181534D01*
X-27492033Y16151743D01*
X-27502832Y16078947D01*
X-27508669Y16049601D01*
X-27526550Y15978215D01*
X-27535235Y15949583D01*
X-27560036Y15880271D01*
X-27571482Y15852639D01*
X-27602951Y15786102D01*
X-27617062Y15759702D01*
X-27654886Y15696597D01*
X-27671520Y15671702D01*
X-27715366Y15612583D01*
X-27734340Y15589463D01*
X-27783775Y15534921D01*
X-27804921Y15513775D01*
X-27859463Y15464340D01*
X-27882583Y15445366D01*
X-27941702Y15401520D01*
X-27966597Y15384886D01*
X-28029702Y15347062D01*
X-28056102Y15332951D01*
X-28122639Y15301482D01*
X-28150271Y15290036D01*
X-28219583Y15265235D01*
X-28248215Y15256550D01*
X-28319601Y15238669D01*
X-28348947Y15232832D01*
X-28421743Y15222033D01*
X-28451534Y15219099D01*
X-28525035Y15215488D01*
D02*
G37*
%LPC*%
G36*
X-23665000Y16475000D02*
X-24490034Y16475000D01*
X-24465019Y16574863D01*
X-24430296Y16671910D01*
X-24386228Y16765084D01*
X-24333247Y16853477D01*
X-24271844Y16936268D01*
X-24202632Y17012631D01*
X-24126270Y17081843D01*
X-24043474Y17143249D01*
X-23955084Y17196228D01*
X-23861912Y17240294D01*
X-23764858Y17275021D01*
X-23665000Y17300034D01*
X-23665000Y16475000D01*
D02*
G37*
%LPC*%
G36*
X-22429967Y16475000D02*
X-23255000Y16475000D01*
X-23255000Y17300033D01*
X-23155126Y17275016D01*
X-23058093Y17240296D01*
X-22964920Y17196230D01*
X-22876519Y17143244D01*
X-22793732Y17081844D01*
X-22717368Y17012632D01*
X-22648156Y16936268D01*
X-22586756Y16853481D01*
X-22533770Y16765080D01*
X-22489704Y16671907D01*
X-22454984Y16574874D01*
X-22429967Y16475000D01*
D02*
G37*
%LPC*%
G36*
X28745000Y15239966D02*
X28745000Y16065000D01*
X29570034Y16065000D01*
X29545021Y15965142D01*
X29510294Y15868088D01*
X29466231Y15774921D01*
X29413244Y15686519D01*
X29351844Y15603732D01*
X29282632Y15527368D01*
X29206268Y15458156D01*
X29123481Y15396756D01*
X29035079Y15343769D01*
X28941912Y15299706D01*
X28844858Y15264979D01*
X28745000Y15239966D01*
D02*
G37*
%LPC*%
G36*
X28335000Y15239967D02*
X28235126Y15264984D01*
X28138093Y15299704D01*
X28044915Y15343772D01*
X27956526Y15396751D01*
X27873730Y15458157D01*
X27797368Y15527369D01*
X27728156Y15603732D01*
X27666753Y15686523D01*
X27613772Y15774916D01*
X27569704Y15868090D01*
X27534981Y15965137D01*
X27509966Y16065000D01*
X28335000Y16065000D01*
X28335000Y15239967D01*
D02*
G37*
%LPC*%
G36*
X-23255000Y15239966D02*
X-23255000Y16065000D01*
X-22429966Y16065000D01*
X-22454979Y15965142D01*
X-22489706Y15868088D01*
X-22533769Y15774921D01*
X-22586756Y15686519D01*
X-22648156Y15603732D01*
X-22717368Y15527368D01*
X-22793732Y15458156D01*
X-22876519Y15396756D01*
X-22964921Y15343769D01*
X-23058088Y15299706D01*
X-23155142Y15264979D01*
X-23255000Y15239966D01*
D02*
G37*
%LPC*%
G36*
X-23665000Y15239967D02*
X-23764874Y15264984D01*
X-23861907Y15299704D01*
X-23955085Y15343772D01*
X-24043474Y15396751D01*
X-24126270Y15458157D01*
X-24202632Y15527369D01*
X-24271844Y15603732D01*
X-24333247Y15686523D01*
X-24386228Y15774916D01*
X-24430296Y15868090D01*
X-24465019Y15965137D01*
X-24490034Y16065000D01*
X-23665000Y16065000D01*
X-23665000Y15239967D01*
D02*
G37*
%LPC*%
G36*
X28554965Y12675488D02*
X28525035Y12675488D01*
X28451534Y12679099D01*
X28421743Y12682033D01*
X28348951Y12692831D01*
X28319593Y12698671D01*
X28248226Y12716547D01*
X28219559Y12725244D01*
X28150290Y12750029D01*
X28122635Y12761484D01*
X28056102Y12792951D01*
X28029702Y12807062D01*
X27966588Y12844891D01*
X27941708Y12861516D01*
X27882601Y12905352D01*
X27859458Y12924345D01*
X27804922Y12973775D01*
X27783767Y12994930D01*
X27734340Y13049463D01*
X27715366Y13072583D01*
X27671520Y13131702D01*
X27654886Y13156597D01*
X27617062Y13219702D01*
X27602947Y13246109D01*
X27571485Y13312631D01*
X27560036Y13340273D01*
X27535234Y13409587D01*
X27526552Y13438209D01*
X27508669Y13509601D01*
X27502832Y13538947D01*
X27492033Y13611743D01*
X27489099Y13641534D01*
X27485488Y13715035D01*
X27485488Y13744965D01*
X27489099Y13818466D01*
X27492033Y13848257D01*
X27502832Y13921053D01*
X27508669Y13950399D01*
X27526552Y14021791D01*
X27535234Y14050413D01*
X27560036Y14119727D01*
X27571485Y14147369D01*
X27602947Y14213891D01*
X27617062Y14240298D01*
X27654886Y14303403D01*
X27671520Y14328298D01*
X27715366Y14387417D01*
X27734340Y14410537D01*
X27783767Y14465070D01*
X27804922Y14486225D01*
X27859458Y14535655D01*
X27882601Y14554648D01*
X27941708Y14598484D01*
X27966588Y14615109D01*
X28029702Y14652938D01*
X28056102Y14667049D01*
X28122639Y14698518D01*
X28150271Y14709964D01*
X28219583Y14734765D01*
X28248215Y14743450D01*
X28319601Y14761331D01*
X28348947Y14767168D01*
X28421743Y14777967D01*
X28451534Y14780901D01*
X28525035Y14784512D01*
X28554965Y14784512D01*
X28628466Y14780901D01*
X28658257Y14777967D01*
X28731049Y14767169D01*
X28760407Y14761329D01*
X28831774Y14743453D01*
X28860441Y14734756D01*
X28929710Y14709971D01*
X28957365Y14698516D01*
X29023898Y14667049D01*
X29050298Y14652938D01*
X29113403Y14615114D01*
X29138298Y14598480D01*
X29197417Y14554634D01*
X29220537Y14535660D01*
X29275079Y14486225D01*
X29296225Y14465079D01*
X29345660Y14410537D01*
X29364634Y14387417D01*
X29408480Y14328298D01*
X29425114Y14303403D01*
X29462938Y14240298D01*
X29477049Y14213898D01*
X29508516Y14147365D01*
X29519971Y14119710D01*
X29544756Y14050441D01*
X29553453Y14021774D01*
X29571329Y13950407D01*
X29577169Y13921049D01*
X29587967Y13848257D01*
X29590901Y13818466D01*
X29594512Y13744965D01*
X29594512Y13715035D01*
X29590901Y13641534D01*
X29587967Y13611743D01*
X29577168Y13538947D01*
X29571331Y13509601D01*
X29553450Y13438215D01*
X29544765Y13409583D01*
X29519964Y13340271D01*
X29508518Y13312639D01*
X29477049Y13246102D01*
X29462938Y13219702D01*
X29425114Y13156597D01*
X29408480Y13131702D01*
X29364634Y13072583D01*
X29345660Y13049463D01*
X29296225Y12994921D01*
X29275079Y12973775D01*
X29220537Y12924340D01*
X29197417Y12905366D01*
X29138298Y12861520D01*
X29113403Y12844886D01*
X29050298Y12807062D01*
X29023898Y12792951D01*
X28957361Y12761482D01*
X28929729Y12750036D01*
X28860417Y12725235D01*
X28831785Y12716550D01*
X28760399Y12698669D01*
X28731053Y12692832D01*
X28658257Y12682033D01*
X28628466Y12679099D01*
X28554965Y12675488D01*
D02*
G37*
%LPC*%
G36*
X26014965Y12675488D02*
X25985035Y12675488D01*
X25911534Y12679099D01*
X25881743Y12682033D01*
X25808951Y12692831D01*
X25779593Y12698671D01*
X25708226Y12716547D01*
X25679559Y12725244D01*
X25610290Y12750029D01*
X25582635Y12761484D01*
X25516102Y12792951D01*
X25489702Y12807062D01*
X25426588Y12844891D01*
X25401708Y12861516D01*
X25342601Y12905352D01*
X25319458Y12924345D01*
X25264922Y12973775D01*
X25243767Y12994930D01*
X25194340Y13049463D01*
X25175366Y13072583D01*
X25131520Y13131702D01*
X25114886Y13156597D01*
X25077062Y13219702D01*
X25062947Y13246109D01*
X25031485Y13312631D01*
X25020036Y13340273D01*
X24995234Y13409587D01*
X24986552Y13438209D01*
X24968669Y13509601D01*
X24962832Y13538947D01*
X24952033Y13611743D01*
X24949099Y13641534D01*
X24945488Y13715035D01*
X24945488Y13744965D01*
X24949099Y13818466D01*
X24952033Y13848257D01*
X24962832Y13921053D01*
X24968669Y13950399D01*
X24986552Y14021791D01*
X24995234Y14050413D01*
X25020036Y14119727D01*
X25031485Y14147369D01*
X25062947Y14213891D01*
X25077062Y14240298D01*
X25114886Y14303403D01*
X25131520Y14328298D01*
X25175366Y14387417D01*
X25194340Y14410537D01*
X25243767Y14465070D01*
X25264922Y14486225D01*
X25319458Y14535655D01*
X25342601Y14554648D01*
X25401708Y14598484D01*
X25426588Y14615109D01*
X25489702Y14652938D01*
X25516102Y14667049D01*
X25582639Y14698518D01*
X25610271Y14709964D01*
X25679583Y14734765D01*
X25708215Y14743450D01*
X25779601Y14761331D01*
X25808947Y14767168D01*
X25881743Y14777967D01*
X25911534Y14780901D01*
X25985035Y14784512D01*
X26014965Y14784512D01*
X26088466Y14780901D01*
X26118257Y14777967D01*
X26191049Y14767169D01*
X26220407Y14761329D01*
X26291774Y14743453D01*
X26320441Y14734756D01*
X26389710Y14709971D01*
X26417365Y14698516D01*
X26483898Y14667049D01*
X26510298Y14652938D01*
X26573403Y14615114D01*
X26598298Y14598480D01*
X26657417Y14554634D01*
X26680537Y14535660D01*
X26735079Y14486225D01*
X26756225Y14465079D01*
X26805660Y14410537D01*
X26824634Y14387417D01*
X26868480Y14328298D01*
X26885114Y14303403D01*
X26922938Y14240298D01*
X26937049Y14213898D01*
X26968516Y14147365D01*
X26979971Y14119710D01*
X27004756Y14050441D01*
X27013453Y14021774D01*
X27031329Y13950407D01*
X27037169Y13921049D01*
X27047967Y13848257D01*
X27050901Y13818466D01*
X27054512Y13744965D01*
X27054512Y13715035D01*
X27050901Y13641534D01*
X27047967Y13611743D01*
X27037168Y13538947D01*
X27031331Y13509601D01*
X27013450Y13438215D01*
X27004765Y13409583D01*
X26979964Y13340271D01*
X26968518Y13312639D01*
X26937049Y13246102D01*
X26922938Y13219702D01*
X26885114Y13156597D01*
X26868480Y13131702D01*
X26824634Y13072583D01*
X26805660Y13049463D01*
X26756225Y12994921D01*
X26735079Y12973775D01*
X26680537Y12924340D01*
X26657417Y12905366D01*
X26598298Y12861520D01*
X26573403Y12844886D01*
X26510298Y12807062D01*
X26483898Y12792951D01*
X26417361Y12761482D01*
X26389729Y12750036D01*
X26320417Y12725235D01*
X26291785Y12716550D01*
X26220399Y12698669D01*
X26191053Y12692832D01*
X26118257Y12682033D01*
X26088466Y12679099D01*
X26014965Y12675488D01*
D02*
G37*
%LPC*%
G36*
X23474965Y12675488D02*
X23445035Y12675488D01*
X23371534Y12679099D01*
X23341743Y12682033D01*
X23268951Y12692831D01*
X23239593Y12698671D01*
X23168226Y12716547D01*
X23139559Y12725244D01*
X23070290Y12750029D01*
X23042635Y12761484D01*
X22976102Y12792951D01*
X22949702Y12807062D01*
X22886588Y12844891D01*
X22861708Y12861516D01*
X22802601Y12905352D01*
X22779458Y12924345D01*
X22724922Y12973775D01*
X22703767Y12994930D01*
X22654340Y13049463D01*
X22635366Y13072583D01*
X22591520Y13131702D01*
X22574886Y13156597D01*
X22537062Y13219702D01*
X22522947Y13246109D01*
X22491485Y13312631D01*
X22480036Y13340273D01*
X22455234Y13409587D01*
X22446552Y13438209D01*
X22428669Y13509601D01*
X22422832Y13538947D01*
X22412033Y13611743D01*
X22409099Y13641534D01*
X22405488Y13715035D01*
X22405488Y13744965D01*
X22409099Y13818466D01*
X22412033Y13848257D01*
X22422832Y13921053D01*
X22428669Y13950399D01*
X22446552Y14021791D01*
X22455234Y14050413D01*
X22480036Y14119727D01*
X22491485Y14147369D01*
X22522947Y14213891D01*
X22537062Y14240298D01*
X22574886Y14303403D01*
X22591520Y14328298D01*
X22635366Y14387417D01*
X22654340Y14410537D01*
X22703767Y14465070D01*
X22724922Y14486225D01*
X22779458Y14535655D01*
X22802601Y14554648D01*
X22861708Y14598484D01*
X22886588Y14615109D01*
X22949702Y14652938D01*
X22976102Y14667049D01*
X23042639Y14698518D01*
X23070271Y14709964D01*
X23139583Y14734765D01*
X23168215Y14743450D01*
X23239601Y14761331D01*
X23268947Y14767168D01*
X23341743Y14777967D01*
X23371534Y14780901D01*
X23445035Y14784512D01*
X23474965Y14784512D01*
X23548466Y14780901D01*
X23578257Y14777967D01*
X23651049Y14767169D01*
X23680407Y14761329D01*
X23751774Y14743453D01*
X23780441Y14734756D01*
X23849710Y14709971D01*
X23877365Y14698516D01*
X23943898Y14667049D01*
X23970298Y14652938D01*
X24033403Y14615114D01*
X24058298Y14598480D01*
X24117417Y14554634D01*
X24140537Y14535660D01*
X24195079Y14486225D01*
X24216225Y14465079D01*
X24265660Y14410537D01*
X24284634Y14387417D01*
X24328480Y14328298D01*
X24345114Y14303403D01*
X24382938Y14240298D01*
X24397049Y14213898D01*
X24428516Y14147365D01*
X24439971Y14119710D01*
X24464756Y14050441D01*
X24473453Y14021774D01*
X24491329Y13950407D01*
X24497169Y13921049D01*
X24507967Y13848257D01*
X24510901Y13818466D01*
X24514512Y13744965D01*
X24514512Y13715035D01*
X24510901Y13641534D01*
X24507967Y13611743D01*
X24497168Y13538947D01*
X24491331Y13509601D01*
X24473450Y13438215D01*
X24464765Y13409583D01*
X24439964Y13340271D01*
X24428518Y13312639D01*
X24397049Y13246102D01*
X24382938Y13219702D01*
X24345114Y13156597D01*
X24328480Y13131702D01*
X24284634Y13072583D01*
X24265660Y13049463D01*
X24216225Y12994921D01*
X24195079Y12973775D01*
X24140537Y12924340D01*
X24117417Y12905366D01*
X24058298Y12861520D01*
X24033403Y12844886D01*
X23970298Y12807062D01*
X23943898Y12792951D01*
X23877361Y12761482D01*
X23849729Y12750036D01*
X23780417Y12725235D01*
X23751785Y12716550D01*
X23680399Y12698669D01*
X23651053Y12692832D01*
X23578257Y12682033D01*
X23548466Y12679099D01*
X23474965Y12675488D01*
D02*
G37*
%LPC*%
G36*
X-23445035Y12675488D02*
X-23474965Y12675488D01*
X-23548466Y12679099D01*
X-23578257Y12682033D01*
X-23651049Y12692831D01*
X-23680407Y12698671D01*
X-23751774Y12716547D01*
X-23780441Y12725244D01*
X-23849710Y12750029D01*
X-23877365Y12761484D01*
X-23943898Y12792951D01*
X-23970298Y12807062D01*
X-24033412Y12844891D01*
X-24058292Y12861516D01*
X-24117399Y12905352D01*
X-24140542Y12924345D01*
X-24195078Y12973775D01*
X-24216233Y12994930D01*
X-24265660Y13049463D01*
X-24284634Y13072583D01*
X-24328480Y13131702D01*
X-24345114Y13156597D01*
X-24382938Y13219702D01*
X-24397053Y13246109D01*
X-24428515Y13312631D01*
X-24439964Y13340273D01*
X-24464766Y13409587D01*
X-24473448Y13438209D01*
X-24491331Y13509601D01*
X-24497168Y13538947D01*
X-24507967Y13611743D01*
X-24510901Y13641534D01*
X-24514512Y13715035D01*
X-24514512Y13744965D01*
X-24510901Y13818466D01*
X-24507967Y13848257D01*
X-24497168Y13921053D01*
X-24491331Y13950399D01*
X-24473448Y14021791D01*
X-24464766Y14050413D01*
X-24439964Y14119727D01*
X-24428515Y14147369D01*
X-24397053Y14213891D01*
X-24382938Y14240298D01*
X-24345114Y14303403D01*
X-24328480Y14328298D01*
X-24284634Y14387417D01*
X-24265660Y14410537D01*
X-24216233Y14465070D01*
X-24195078Y14486225D01*
X-24140542Y14535655D01*
X-24117399Y14554648D01*
X-24058292Y14598484D01*
X-24033412Y14615109D01*
X-23970298Y14652938D01*
X-23943898Y14667049D01*
X-23877361Y14698518D01*
X-23849729Y14709964D01*
X-23780417Y14734765D01*
X-23751785Y14743450D01*
X-23680399Y14761331D01*
X-23651053Y14767168D01*
X-23578257Y14777967D01*
X-23548466Y14780901D01*
X-23474965Y14784512D01*
X-23445035Y14784512D01*
X-23371534Y14780901D01*
X-23341743Y14777967D01*
X-23268951Y14767169D01*
X-23239593Y14761329D01*
X-23168226Y14743453D01*
X-23139559Y14734756D01*
X-23070290Y14709971D01*
X-23042635Y14698516D01*
X-22976102Y14667049D01*
X-22949702Y14652938D01*
X-22886597Y14615114D01*
X-22861702Y14598480D01*
X-22802583Y14554634D01*
X-22779463Y14535660D01*
X-22724921Y14486225D01*
X-22703775Y14465079D01*
X-22654340Y14410537D01*
X-22635366Y14387417D01*
X-22591520Y14328298D01*
X-22574886Y14303403D01*
X-22537062Y14240298D01*
X-22522951Y14213898D01*
X-22491484Y14147365D01*
X-22480029Y14119710D01*
X-22455244Y14050441D01*
X-22446547Y14021774D01*
X-22428671Y13950407D01*
X-22422831Y13921049D01*
X-22412033Y13848257D01*
X-22409099Y13818466D01*
X-22405488Y13744965D01*
X-22405488Y13715035D01*
X-22409099Y13641534D01*
X-22412033Y13611743D01*
X-22422832Y13538947D01*
X-22428669Y13509601D01*
X-22446550Y13438215D01*
X-22455235Y13409583D01*
X-22480036Y13340271D01*
X-22491482Y13312639D01*
X-22522951Y13246102D01*
X-22537062Y13219702D01*
X-22574886Y13156597D01*
X-22591520Y13131702D01*
X-22635366Y13072583D01*
X-22654340Y13049463D01*
X-22703775Y12994921D01*
X-22724921Y12973775D01*
X-22779463Y12924340D01*
X-22802583Y12905366D01*
X-22861702Y12861520D01*
X-22886597Y12844886D01*
X-22949702Y12807062D01*
X-22976102Y12792951D01*
X-23042639Y12761482D01*
X-23070271Y12750036D01*
X-23139583Y12725235D01*
X-23168215Y12716550D01*
X-23239601Y12698669D01*
X-23268947Y12692832D01*
X-23341743Y12682033D01*
X-23371534Y12679099D01*
X-23445035Y12675488D01*
D02*
G37*
%LPC*%
G36*
X-25985035Y12675488D02*
X-26014965Y12675488D01*
X-26088466Y12679099D01*
X-26118257Y12682033D01*
X-26191049Y12692831D01*
X-26220407Y12698671D01*
X-26291774Y12716547D01*
X-26320441Y12725244D01*
X-26389710Y12750029D01*
X-26417365Y12761484D01*
X-26483898Y12792951D01*
X-26510298Y12807062D01*
X-26573412Y12844891D01*
X-26598292Y12861516D01*
X-26657399Y12905352D01*
X-26680542Y12924345D01*
X-26735078Y12973775D01*
X-26756233Y12994930D01*
X-26805660Y13049463D01*
X-26824634Y13072583D01*
X-26868480Y13131702D01*
X-26885114Y13156597D01*
X-26922938Y13219702D01*
X-26937053Y13246109D01*
X-26968515Y13312631D01*
X-26979964Y13340273D01*
X-27004766Y13409587D01*
X-27013448Y13438209D01*
X-27031331Y13509601D01*
X-27037168Y13538947D01*
X-27047967Y13611743D01*
X-27050901Y13641534D01*
X-27054512Y13715035D01*
X-27054512Y13744965D01*
X-27050901Y13818466D01*
X-27047967Y13848257D01*
X-27037168Y13921053D01*
X-27031331Y13950399D01*
X-27013448Y14021791D01*
X-27004766Y14050413D01*
X-26979964Y14119727D01*
X-26968515Y14147369D01*
X-26937053Y14213891D01*
X-26922938Y14240298D01*
X-26885114Y14303403D01*
X-26868480Y14328298D01*
X-26824634Y14387417D01*
X-26805660Y14410537D01*
X-26756233Y14465070D01*
X-26735078Y14486225D01*
X-26680542Y14535655D01*
X-26657399Y14554648D01*
X-26598292Y14598484D01*
X-26573412Y14615109D01*
X-26510298Y14652938D01*
X-26483898Y14667049D01*
X-26417361Y14698518D01*
X-26389729Y14709964D01*
X-26320417Y14734765D01*
X-26291785Y14743450D01*
X-26220399Y14761331D01*
X-26191053Y14767168D01*
X-26118257Y14777967D01*
X-26088466Y14780901D01*
X-26014965Y14784512D01*
X-25985035Y14784512D01*
X-25911534Y14780901D01*
X-25881743Y14777967D01*
X-25808951Y14767169D01*
X-25779593Y14761329D01*
X-25708226Y14743453D01*
X-25679559Y14734756D01*
X-25610290Y14709971D01*
X-25582635Y14698516D01*
X-25516102Y14667049D01*
X-25489702Y14652938D01*
X-25426597Y14615114D01*
X-25401702Y14598480D01*
X-25342583Y14554634D01*
X-25319463Y14535660D01*
X-25264921Y14486225D01*
X-25243775Y14465079D01*
X-25194340Y14410537D01*
X-25175366Y14387417D01*
X-25131520Y14328298D01*
X-25114886Y14303403D01*
X-25077062Y14240298D01*
X-25062951Y14213898D01*
X-25031484Y14147365D01*
X-25020029Y14119710D01*
X-24995244Y14050441D01*
X-24986547Y14021774D01*
X-24968671Y13950407D01*
X-24962831Y13921049D01*
X-24952033Y13848257D01*
X-24949099Y13818466D01*
X-24945488Y13744965D01*
X-24945488Y13715035D01*
X-24949099Y13641534D01*
X-24952033Y13611743D01*
X-24962832Y13538947D01*
X-24968669Y13509601D01*
X-24986550Y13438215D01*
X-24995235Y13409583D01*
X-25020036Y13340271D01*
X-25031482Y13312639D01*
X-25062951Y13246102D01*
X-25077062Y13219702D01*
X-25114886Y13156597D01*
X-25131520Y13131702D01*
X-25175366Y13072583D01*
X-25194340Y13049463D01*
X-25243775Y12994921D01*
X-25264921Y12973775D01*
X-25319463Y12924340D01*
X-25342583Y12905366D01*
X-25401702Y12861520D01*
X-25426597Y12844886D01*
X-25489702Y12807062D01*
X-25516102Y12792951D01*
X-25582639Y12761482D01*
X-25610271Y12750036D01*
X-25679583Y12725235D01*
X-25708215Y12716550D01*
X-25779601Y12698669D01*
X-25808947Y12692832D01*
X-25881743Y12682033D01*
X-25911534Y12679099D01*
X-25985035Y12675488D01*
D02*
G37*
%LPC*%
G36*
X-28525035Y12675488D02*
X-28554965Y12675488D01*
X-28628466Y12679099D01*
X-28658257Y12682033D01*
X-28731049Y12692831D01*
X-28760407Y12698671D01*
X-28831774Y12716547D01*
X-28860441Y12725244D01*
X-28929710Y12750029D01*
X-28957365Y12761484D01*
X-29023898Y12792951D01*
X-29050298Y12807062D01*
X-29113412Y12844891D01*
X-29138292Y12861516D01*
X-29197399Y12905352D01*
X-29220542Y12924345D01*
X-29275078Y12973775D01*
X-29296233Y12994930D01*
X-29345660Y13049463D01*
X-29364634Y13072583D01*
X-29408480Y13131702D01*
X-29425114Y13156597D01*
X-29462938Y13219702D01*
X-29477053Y13246109D01*
X-29508515Y13312631D01*
X-29519964Y13340273D01*
X-29544766Y13409587D01*
X-29553448Y13438209D01*
X-29571331Y13509601D01*
X-29577168Y13538947D01*
X-29587967Y13611743D01*
X-29590901Y13641534D01*
X-29594512Y13715035D01*
X-29594512Y13744965D01*
X-29590901Y13818466D01*
X-29587967Y13848257D01*
X-29577168Y13921053D01*
X-29571331Y13950399D01*
X-29553448Y14021791D01*
X-29544766Y14050413D01*
X-29519964Y14119727D01*
X-29508515Y14147369D01*
X-29477053Y14213891D01*
X-29462938Y14240298D01*
X-29425114Y14303403D01*
X-29408480Y14328298D01*
X-29364634Y14387417D01*
X-29345660Y14410537D01*
X-29296233Y14465070D01*
X-29275078Y14486225D01*
X-29220542Y14535655D01*
X-29197399Y14554648D01*
X-29138292Y14598484D01*
X-29113412Y14615109D01*
X-29050298Y14652938D01*
X-29023898Y14667049D01*
X-28957361Y14698518D01*
X-28929729Y14709964D01*
X-28860417Y14734765D01*
X-28831785Y14743450D01*
X-28760399Y14761331D01*
X-28731053Y14767168D01*
X-28658257Y14777967D01*
X-28628466Y14780901D01*
X-28554965Y14784512D01*
X-28525035Y14784512D01*
X-28451534Y14780901D01*
X-28421743Y14777967D01*
X-28348951Y14767169D01*
X-28319593Y14761329D01*
X-28248226Y14743453D01*
X-28219559Y14734756D01*
X-28150290Y14709971D01*
X-28122635Y14698516D01*
X-28056102Y14667049D01*
X-28029702Y14652938D01*
X-27966597Y14615114D01*
X-27941702Y14598480D01*
X-27882583Y14554634D01*
X-27859463Y14535660D01*
X-27804921Y14486225D01*
X-27783775Y14465079D01*
X-27734340Y14410537D01*
X-27715366Y14387417D01*
X-27671520Y14328298D01*
X-27654886Y14303403D01*
X-27617062Y14240298D01*
X-27602951Y14213898D01*
X-27571484Y14147365D01*
X-27560029Y14119710D01*
X-27535244Y14050441D01*
X-27526547Y14021774D01*
X-27508671Y13950407D01*
X-27502831Y13921049D01*
X-27492033Y13848257D01*
X-27489099Y13818466D01*
X-27485488Y13744965D01*
X-27485488Y13715035D01*
X-27489099Y13641534D01*
X-27492033Y13611743D01*
X-27502832Y13538947D01*
X-27508669Y13509601D01*
X-27526550Y13438215D01*
X-27535235Y13409583D01*
X-27560036Y13340271D01*
X-27571482Y13312639D01*
X-27602951Y13246102D01*
X-27617062Y13219702D01*
X-27654886Y13156597D01*
X-27671520Y13131702D01*
X-27715366Y13072583D01*
X-27734340Y13049463D01*
X-27783775Y12994921D01*
X-27804921Y12973775D01*
X-27859463Y12924340D01*
X-27882583Y12905366D01*
X-27941702Y12861520D01*
X-27966597Y12844886D01*
X-28029702Y12807062D01*
X-28056102Y12792951D01*
X-28122639Y12761482D01*
X-28150271Y12750036D01*
X-28219583Y12725235D01*
X-28248215Y12716550D01*
X-28319601Y12698669D01*
X-28348947Y12692832D01*
X-28421743Y12682033D01*
X-28451534Y12679099D01*
X-28525035Y12675488D01*
D02*
G37*
%LPC*%
G36*
X-17937930Y1879000D02*
X-23617093Y1879000D01*
X-23646960Y1880467D01*
X-23703103Y1891634D01*
X-23753699Y1912591D01*
X-23799432Y1943146D01*
X-23819256Y1962821D01*
X-23829224Y1970244D01*
X-25146993Y3288013D01*
X-25192122Y3321886D01*
X-25244916Y3341805D01*
X-25317757Y3344428D01*
X-25326480Y3343134D01*
X-25356252Y3340202D01*
X-25385035Y3338788D01*
X-25414965Y3338788D01*
X-25443748Y3340202D01*
X-25473530Y3343135D01*
X-25502031Y3347363D01*
X-25531372Y3353199D01*
X-25559335Y3360204D01*
X-25587966Y3368889D01*
X-25615099Y3378598D01*
X-25642765Y3390057D01*
X-25668801Y3402371D01*
X-25695176Y3416469D01*
X-25719906Y3431291D01*
X-25744802Y3447926D01*
X-25767933Y3465081D01*
X-25791058Y3484060D01*
X-25812438Y3503439D01*
X-25833561Y3524562D01*
X-25852940Y3545942D01*
X-25871914Y3569061D01*
X-25874355Y3572353D01*
X-25914025Y3612482D01*
X-25963324Y3639933D01*
X-26018329Y3652522D01*
X-26074661Y3649246D01*
X-26127835Y3630366D01*
X-26173621Y3597386D01*
X-26195637Y3572363D01*
X-26198070Y3569083D01*
X-26217068Y3545934D01*
X-26236439Y3524562D01*
X-26257562Y3503439D01*
X-26278934Y3484068D01*
X-26302069Y3465081D01*
X-26325220Y3447912D01*
X-26350094Y3431291D01*
X-26374792Y3416488D01*
X-26401217Y3402363D01*
X-26427235Y3390057D01*
X-26454901Y3378598D01*
X-26482034Y3368889D01*
X-26510665Y3360204D01*
X-26538628Y3353199D01*
X-26567969Y3347363D01*
X-26596470Y3343135D01*
X-26626252Y3340202D01*
X-26655035Y3338788D01*
X-26684965Y3338788D01*
X-26713748Y3340202D01*
X-26743530Y3343135D01*
X-26772031Y3347363D01*
X-26801372Y3353199D01*
X-26829335Y3360204D01*
X-26857966Y3368889D01*
X-26885099Y3378598D01*
X-26912756Y3390054D01*
X-26916197Y3391681D01*
X-26970099Y3408371D01*
X-27026518Y3409342D01*
X-27080962Y3394515D01*
X-27129098Y3365072D01*
X-27167094Y3323355D01*
X-27190024Y3278261D01*
X-27193579Y3268326D01*
X-27208789Y3231605D01*
X-27225369Y3196550D01*
X-27244098Y3161512D01*
X-27264051Y3128223D01*
X-27286112Y3095206D01*
X-27309220Y3064047D01*
X-27334433Y3033324D01*
X-27360504Y3004561D01*
X-27388561Y2976504D01*
X-27417324Y2950433D01*
X-27448047Y2925220D01*
X-27479206Y2902112D01*
X-27512223Y2880051D01*
X-27545512Y2860098D01*
X-27580550Y2841369D01*
X-27615605Y2824789D01*
X-27652326Y2809579D01*
X-27688849Y2796510D01*
X-27726875Y2784976D01*
X-27764504Y2775551D01*
X-27803470Y2767800D01*
X-27841837Y2762108D01*
X-27881399Y2758211D01*
X-27920128Y2756308D01*
X-27959872Y2756308D01*
X-27998601Y2758211D01*
X-28038163Y2762108D01*
X-28076545Y2767802D01*
X-28115497Y2775551D01*
X-28153107Y2784971D01*
X-28191159Y2796514D01*
X-28227670Y2809577D01*
X-28264392Y2824788D01*
X-28299450Y2841369D01*
X-28334488Y2860098D01*
X-28367777Y2880051D01*
X-28400794Y2902112D01*
X-28431953Y2925220D01*
X-28462676Y2950433D01*
X-28491439Y2976504D01*
X-28519496Y3004561D01*
X-28545567Y3033324D01*
X-28570780Y3064047D01*
X-28593888Y3095206D01*
X-28615949Y3128223D01*
X-28635902Y3161512D01*
X-28654631Y3196550D01*
X-28671211Y3231605D01*
X-28686421Y3268326D01*
X-28699490Y3304849D01*
X-28711024Y3342875D01*
X-28720449Y3380504D01*
X-28728200Y3419470D01*
X-28733892Y3457837D01*
X-28737789Y3497399D01*
X-28739692Y3536128D01*
X-28739692Y3575872D01*
X-28737789Y3614601D01*
X-28733892Y3654163D01*
X-28728200Y3692530D01*
X-28720449Y3731496D01*
X-28711024Y3769125D01*
X-28699490Y3807151D01*
X-28686421Y3843674D01*
X-28671211Y3880395D01*
X-28654635Y3915441D01*
X-28650745Y3922718D01*
X-28631431Y3975737D01*
X-28627694Y4032040D01*
X-28639833Y4087146D01*
X-28666880Y4136668D01*
X-28706682Y4176665D01*
X-28756073Y4203952D01*
X-28819246Y4215553D01*
X-28819187Y4216759D01*
X-28827900Y4217187D01*
X-28837713Y4217428D01*
X-28841514Y4217428D01*
X-28851315Y4217910D01*
X-28876191Y4220360D01*
X-28885895Y4221799D01*
X-28910449Y4226683D01*
X-28919964Y4229067D01*
X-28943907Y4236330D01*
X-28953131Y4239631D01*
X-28976243Y4249204D01*
X-28985109Y4253397D01*
X-29007169Y4265188D01*
X-29015602Y4270243D01*
X-29036392Y4284135D01*
X-29044252Y4289964D01*
X-29063612Y4305852D01*
X-29070882Y4312441D01*
X-29088559Y4330118D01*
X-29095148Y4337388D01*
X-29111036Y4356748D01*
X-29116865Y4364608D01*
X-29130757Y4385398D01*
X-29135812Y4393831D01*
X-29147603Y4415891D01*
X-29151796Y4424757D01*
X-29161369Y4447869D01*
X-29164670Y4457093D01*
X-29171933Y4481036D01*
X-29174317Y4490551D01*
X-29179201Y4515105D01*
X-29180640Y4524809D01*
X-29183090Y4549685D01*
X-29183572Y4559486D01*
X-29183572Y4584514D01*
X-29183090Y4594315D01*
X-29180640Y4619191D01*
X-29179201Y4628895D01*
X-29174317Y4653449D01*
X-29171933Y4662964D01*
X-29164670Y4686907D01*
X-29161369Y4696131D01*
X-29151796Y4719243D01*
X-29147603Y4728109D01*
X-29135812Y4750169D01*
X-29130757Y4758602D01*
X-29116865Y4779392D01*
X-29111036Y4787252D01*
X-29095148Y4806612D01*
X-29088559Y4813882D01*
X-29070882Y4831559D01*
X-29063612Y4838148D01*
X-29044252Y4854036D01*
X-29036392Y4859865D01*
X-29015602Y4873757D01*
X-29007169Y4878812D01*
X-28985109Y4890603D01*
X-28976243Y4894796D01*
X-28953131Y4904369D01*
X-28943907Y4907670D01*
X-28919964Y4914933D01*
X-28910449Y4917317D01*
X-28885895Y4922201D01*
X-28876191Y4923640D01*
X-28851315Y4926090D01*
X-28841514Y4926572D01*
X-28837711Y4926572D01*
X-28827896Y4926813D01*
X-28819185Y4927241D01*
X-28819228Y4928126D01*
X-28771265Y4934960D01*
X-28719849Y4958206D01*
X-28676973Y4994889D01*
X-28646048Y5042087D01*
X-28629538Y5096045D01*
X-28628756Y5152466D01*
X-28650745Y5221282D01*
X-28654635Y5228559D01*
X-28671211Y5263605D01*
X-28686421Y5300326D01*
X-28699490Y5336849D01*
X-28711024Y5374875D01*
X-28720449Y5412504D01*
X-28728200Y5451470D01*
X-28733892Y5489837D01*
X-28737789Y5529399D01*
X-28739692Y5568128D01*
X-28739692Y5607872D01*
X-28737789Y5646601D01*
X-28733892Y5686163D01*
X-28728200Y5724530D01*
X-28720449Y5763496D01*
X-28711024Y5801125D01*
X-28699490Y5839151D01*
X-28686421Y5875674D01*
X-28671211Y5912395D01*
X-28654631Y5947450D01*
X-28635902Y5982488D01*
X-28615951Y6015773D01*
X-28593886Y6048796D01*
X-28570778Y6079955D01*
X-28545565Y6110677D01*
X-28519508Y6139426D01*
X-28491435Y6167500D01*
X-28462669Y6193573D01*
X-28431953Y6218780D01*
X-28400794Y6241888D01*
X-28367777Y6263949D01*
X-28334488Y6283902D01*
X-28299450Y6302631D01*
X-28264392Y6319212D01*
X-28227670Y6334423D01*
X-28191159Y6347486D01*
X-28153107Y6359029D01*
X-28115497Y6368449D01*
X-28076545Y6376198D01*
X-28038163Y6381892D01*
X-27998601Y6385789D01*
X-27959872Y6387692D01*
X-27920128Y6387692D01*
X-27881399Y6385789D01*
X-27841837Y6381892D01*
X-27803455Y6376198D01*
X-27764503Y6368449D01*
X-27726893Y6359029D01*
X-27688841Y6347486D01*
X-27652330Y6334423D01*
X-27615608Y6319212D01*
X-27580558Y6302634D01*
X-27545505Y6283898D01*
X-27512237Y6263958D01*
X-27479198Y6241883D01*
X-27448044Y6218778D01*
X-27417316Y6193560D01*
X-27388573Y6167508D01*
X-27360489Y6139424D01*
X-27334431Y6110673D01*
X-27309227Y6079962D01*
X-27286114Y6048796D01*
X-27264049Y6015773D01*
X-27244098Y5982488D01*
X-27225369Y5947450D01*
X-27208789Y5912395D01*
X-27193579Y5875674D01*
X-27190024Y5865739D01*
X-27163711Y5815823D01*
X-27124502Y5775244D01*
X-27075520Y5747231D01*
X-27020663Y5734014D01*
X-26964297Y5736645D01*
X-26916197Y5752319D01*
X-26912756Y5753946D01*
X-26885099Y5765402D01*
X-26857966Y5775111D01*
X-26829335Y5783796D01*
X-26801372Y5790801D01*
X-26772031Y5796637D01*
X-26743530Y5800865D01*
X-26713748Y5803798D01*
X-26684965Y5805212D01*
X-26655035Y5805212D01*
X-26626252Y5803798D01*
X-26596470Y5800865D01*
X-26567969Y5796637D01*
X-26538628Y5790801D01*
X-26510665Y5783796D01*
X-26482034Y5775111D01*
X-26454901Y5765402D01*
X-26427235Y5753943D01*
X-26401199Y5741629D01*
X-26374824Y5727531D01*
X-26350094Y5712709D01*
X-26325198Y5696074D01*
X-26302067Y5678919D01*
X-26278942Y5659940D01*
X-26257562Y5640561D01*
X-26236439Y5619438D01*
X-26217060Y5598058D01*
X-26198086Y5574939D01*
X-26195645Y5571647D01*
X-26155975Y5531518D01*
X-26106676Y5504067D01*
X-26051671Y5491478D01*
X-25995339Y5494754D01*
X-25942165Y5513634D01*
X-25896379Y5546614D01*
X-25874355Y5571647D01*
X-25871914Y5574939D01*
X-25852940Y5598058D01*
X-25833561Y5619438D01*
X-25812438Y5640561D01*
X-25791066Y5659932D01*
X-25767931Y5678919D01*
X-25744780Y5696088D01*
X-25719906Y5712709D01*
X-25695208Y5727512D01*
X-25668783Y5741637D01*
X-25642765Y5753943D01*
X-25615099Y5765402D01*
X-25587966Y5775111D01*
X-25559335Y5783796D01*
X-25531372Y5790801D01*
X-25502031Y5796637D01*
X-25473530Y5800865D01*
X-25443748Y5803798D01*
X-25414965Y5805212D01*
X-25385035Y5805212D01*
X-25356252Y5803798D01*
X-25326480Y5800866D01*
X-25317757Y5799572D01*
X-25261331Y5799250D01*
X-25207061Y5814702D01*
X-25146993Y5855987D01*
X-24045447Y6957533D01*
X-24023275Y6977628D01*
X-23975678Y7009429D01*
X-23925081Y7030386D01*
X-23868957Y7041551D01*
X-23839060Y7043021D01*
X-16002765Y7043021D01*
X-15946902Y7050981D01*
X-15895486Y7074227D01*
X-15861344Y7101600D01*
X-13717402Y9245542D01*
X-13695230Y9265637D01*
X-13647633Y9297438D01*
X-13597036Y9318395D01*
X-13540912Y9329560D01*
X-13511015Y9331030D01*
X596051Y9331030D01*
X625948Y9329560D01*
X682072Y9318395D01*
X732669Y9297438D01*
X780266Y9265637D01*
X802438Y9245542D01*
X2414237Y7633743D01*
X2459366Y7599870D01*
X2499490Y7584126D01*
X2499258Y7583361D01*
X2527907Y7574670D01*
X2537131Y7571369D01*
X2560243Y7561796D01*
X2569109Y7557603D01*
X2591169Y7545812D01*
X2599602Y7540757D01*
X2620392Y7526865D01*
X2628252Y7521036D01*
X2647612Y7505148D01*
X2654882Y7498559D01*
X2672559Y7480882D01*
X2679148Y7473612D01*
X2695036Y7454252D01*
X2700865Y7446392D01*
X2714757Y7425602D01*
X2719812Y7417169D01*
X2731603Y7395109D01*
X2735796Y7386243D01*
X2745369Y7363131D01*
X2748670Y7353907D01*
X2755933Y7329964D01*
X2758317Y7320449D01*
X2763201Y7295895D01*
X2764640Y7286191D01*
X2767090Y7261315D01*
X2767572Y7251514D01*
X2767572Y7226486D01*
X2767090Y7216685D01*
X2764640Y7191809D01*
X2763201Y7182105D01*
X2758317Y7157551D01*
X2755933Y7148036D01*
X2748670Y7124093D01*
X2745369Y7114869D01*
X2735796Y7091757D01*
X2731603Y7082891D01*
X2719812Y7060831D01*
X2714757Y7052398D01*
X2700865Y7031608D01*
X2695036Y7023748D01*
X2679148Y7004388D01*
X2672559Y6997118D01*
X2654882Y6979441D01*
X2647605Y6972845D01*
X2634473Y6962068D01*
X2596341Y6920476D01*
X2571344Y6869888D01*
X2561472Y6814331D01*
X2567510Y6758228D01*
X2588978Y6706045D01*
X2619933Y6666047D01*
X4573237Y4712743D01*
X4618366Y4678870D01*
X4658490Y4663126D01*
X4658258Y4662361D01*
X4686907Y4653670D01*
X4696131Y4650369D01*
X4719243Y4640796D01*
X4728109Y4636603D01*
X4750169Y4624812D01*
X4758602Y4619757D01*
X4779392Y4605865D01*
X4787252Y4600036D01*
X4806612Y4584148D01*
X4813882Y4577559D01*
X4831559Y4559882D01*
X4838148Y4552612D01*
X4854036Y4533252D01*
X4859865Y4525392D01*
X4873757Y4504602D01*
X4878812Y4496169D01*
X4890603Y4474109D01*
X4894796Y4465243D01*
X4904369Y4442131D01*
X4907670Y4432907D01*
X4914933Y4408964D01*
X4917317Y4399449D01*
X4922201Y4374895D01*
X4923640Y4365191D01*
X4926090Y4340315D01*
X4926572Y4330514D01*
X4926572Y4305486D01*
X4926090Y4295685D01*
X4923640Y4270809D01*
X4922201Y4261105D01*
X4917317Y4236551D01*
X4914933Y4227036D01*
X4907670Y4203093D01*
X4904369Y4193869D01*
X4894796Y4170757D01*
X4890603Y4161891D01*
X4878812Y4139831D01*
X4873757Y4131398D01*
X4859865Y4110608D01*
X4854036Y4102748D01*
X4838148Y4083388D01*
X4831559Y4076118D01*
X4813882Y4058441D01*
X4806612Y4051852D01*
X4787252Y4035964D01*
X4779392Y4030135D01*
X4758602Y4016243D01*
X4750169Y4011188D01*
X4728109Y3999397D01*
X4719243Y3995204D01*
X4696131Y3985631D01*
X4686907Y3982330D01*
X4662964Y3975067D01*
X4653449Y3972683D01*
X4628895Y3967799D01*
X4619191Y3966360D01*
X4594315Y3963910D01*
X4584514Y3963428D01*
X4559486Y3963428D01*
X4549685Y3963910D01*
X4524809Y3966360D01*
X4515105Y3967799D01*
X4490551Y3972683D01*
X4481036Y3975067D01*
X4457093Y3982330D01*
X4447869Y3985631D01*
X4424757Y3995204D01*
X4415891Y3999397D01*
X4393831Y4011188D01*
X4385398Y4016243D01*
X4364608Y4030135D01*
X4356748Y4035964D01*
X4337388Y4051852D01*
X4330118Y4058441D01*
X4312441Y4076118D01*
X4305852Y4083388D01*
X4289964Y4102748D01*
X4284135Y4110608D01*
X4270243Y4131398D01*
X4265188Y4139831D01*
X4253397Y4161891D01*
X4249204Y4170757D01*
X4239631Y4193869D01*
X4236330Y4203093D01*
X4227639Y4231742D01*
X4226771Y4231479D01*
X4208536Y4276211D01*
X4177257Y4316763D01*
X943765Y7550255D01*
X898636Y7584128D01*
X845842Y7604047D01*
X789585Y7608427D01*
X734344Y7596919D01*
X684516Y7570440D01*
X644066Y7531097D01*
X616216Y7482022D01*
X605238Y7440908D01*
X605159Y7440924D01*
X604916Y7439701D01*
X604508Y7438174D01*
X604203Y7436118D01*
X599317Y7411551D01*
X596933Y7402036D01*
X589670Y7378093D01*
X586369Y7368869D01*
X576796Y7345757D01*
X572603Y7336891D01*
X560812Y7314831D01*
X555757Y7306398D01*
X541865Y7285608D01*
X536036Y7277748D01*
X520148Y7258388D01*
X510269Y7247488D01*
X510947Y7246873D01*
X481989Y7208292D01*
X462070Y7155498D01*
X457690Y7099241D01*
X469198Y7044000D01*
X495677Y6994172D01*
X510560Y6976776D01*
X510269Y6976512D01*
X520148Y6965612D01*
X536036Y6946252D01*
X541865Y6938392D01*
X555757Y6917602D01*
X560812Y6909169D01*
X572603Y6887109D01*
X576796Y6878243D01*
X586369Y6855131D01*
X589670Y6845907D01*
X596933Y6821964D01*
X599317Y6812449D01*
X604201Y6787895D01*
X605640Y6778191D01*
X608090Y6753315D01*
X608572Y6743514D01*
X608572Y6718486D01*
X608090Y6708685D01*
X605640Y6683809D01*
X604201Y6674105D01*
X599317Y6649551D01*
X596933Y6640036D01*
X589670Y6616093D01*
X586369Y6606869D01*
X576796Y6583757D01*
X572603Y6574891D01*
X560812Y6552831D01*
X555757Y6544398D01*
X541865Y6523608D01*
X536033Y6515744D01*
X520048Y6496266D01*
X490762Y6448034D01*
X476113Y6393541D01*
X477268Y6337126D01*
X494134Y6283279D01*
X529318Y6233498D01*
X528645Y6232888D01*
X538524Y6221988D01*
X554412Y6202628D01*
X560241Y6194768D01*
X574133Y6173978D01*
X579188Y6165545D01*
X590979Y6143485D01*
X595172Y6134619D01*
X604745Y6111507D01*
X608046Y6102283D01*
X615309Y6078340D01*
X617693Y6068825D01*
X622577Y6044271D01*
X624016Y6034567D01*
X626466Y6009691D01*
X626948Y5999890D01*
X626948Y5974862D01*
X626466Y5965061D01*
X624016Y5940185D01*
X622577Y5930481D01*
X617693Y5905927D01*
X615309Y5896412D01*
X608046Y5872469D01*
X604745Y5863245D01*
X595172Y5840133D01*
X590979Y5831267D01*
X579188Y5809207D01*
X574133Y5800774D01*
X560241Y5779984D01*
X551477Y5768166D01*
X552241Y5767599D01*
X527340Y5726601D01*
X512684Y5672110D01*
X513832Y5615695D01*
X530691Y5561846D01*
X544925Y5536811D01*
X555767Y5520586D01*
X560812Y5512169D01*
X572603Y5490109D01*
X576796Y5481243D01*
X586369Y5458131D01*
X589670Y5448907D01*
X596933Y5424964D01*
X599317Y5415449D01*
X604201Y5390895D01*
X605640Y5381191D01*
X608090Y5356315D01*
X608572Y5346514D01*
X608572Y5321486D01*
X608090Y5311685D01*
X605640Y5286809D01*
X604201Y5277105D01*
X599317Y5252551D01*
X596933Y5243036D01*
X589670Y5219093D01*
X586369Y5209869D01*
X576796Y5186757D01*
X572603Y5177891D01*
X560812Y5155831D01*
X555757Y5147398D01*
X541865Y5126608D01*
X536036Y5118748D01*
X520148Y5099388D01*
X513559Y5092118D01*
X495882Y5074441D01*
X488612Y5067852D01*
X469252Y5051964D01*
X461392Y5046135D01*
X440602Y5032243D01*
X432169Y5027188D01*
X410109Y5015397D01*
X401243Y5011204D01*
X378131Y5001631D01*
X368907Y4998330D01*
X344964Y4991067D01*
X335449Y4988683D01*
X310895Y4983799D01*
X301191Y4982360D01*
X276315Y4979910D01*
X266514Y4979428D01*
X241486Y4979428D01*
X231685Y4979910D01*
X206809Y4982360D01*
X197105Y4983799D01*
X172551Y4988683D01*
X163036Y4991067D01*
X139093Y4998330D01*
X129869Y5001631D01*
X106757Y5011204D01*
X97891Y5015397D01*
X75831Y5027188D01*
X67398Y5032243D01*
X46608Y5046135D01*
X38748Y5051964D01*
X19388Y5067852D01*
X12118Y5074441D01*
X-5559Y5092118D01*
X-12148Y5099388D01*
X-28036Y5118748D01*
X-33865Y5126608D01*
X-47757Y5147398D01*
X-52812Y5155831D01*
X-64603Y5177891D01*
X-68796Y5186757D01*
X-78369Y5209869D01*
X-81670Y5219093D01*
X-90361Y5247742D01*
X-91229Y5247479D01*
X-109464Y5292211D01*
X-140743Y5332763D01*
X-1770381Y6962401D01*
X-1815510Y6996274D01*
X-1868304Y7016193D01*
X-1911802Y7020980D01*
X-12592222Y7020980D01*
X-12648085Y7013020D01*
X-12699501Y6989774D01*
X-12733643Y6962401D01*
X-17718544Y1977500D01*
X-17735770Y1962819D01*
X-17755584Y1943154D01*
X-17801326Y1912590D01*
X-17851920Y1891634D01*
X-17908063Y1880467D01*
X-17937930Y1879000D01*
D02*
G37*
%LPC*%
G36*
X13019872Y1095608D02*
X12980128Y1095608D01*
X12833119Y1102831D01*
X12793552Y1106728D01*
X12647960Y1128325D01*
X12608984Y1136077D01*
X12466203Y1171842D01*
X12428176Y1183377D01*
X12289571Y1232971D01*
X12252870Y1248173D01*
X12119800Y1311110D01*
X12084761Y1329839D01*
X11958486Y1405525D01*
X11925454Y1427597D01*
X11807232Y1515277D01*
X11776507Y1540492D01*
X11667435Y1639350D01*
X11639350Y1667435D01*
X11540492Y1776507D01*
X11515277Y1807232D01*
X11427597Y1925454D01*
X11405525Y1958486D01*
X11329839Y2084761D01*
X11311110Y2119800D01*
X11248173Y2252870D01*
X11232971Y2289571D01*
X11183377Y2428176D01*
X11171842Y2466203D01*
X11136077Y2608984D01*
X11128325Y2647960D01*
X11106728Y2793552D01*
X11102831Y2833119D01*
X11095608Y2980128D01*
X11095608Y3019872D01*
X11102831Y3166881D01*
X11106728Y3206448D01*
X11128325Y3352040D01*
X11136077Y3391016D01*
X11171842Y3533797D01*
X11183377Y3571824D01*
X11232971Y3710429D01*
X11248173Y3747130D01*
X11311110Y3880200D01*
X11329839Y3915239D01*
X11405525Y4041514D01*
X11427597Y4074546D01*
X11515277Y4192768D01*
X11540492Y4223493D01*
X11639350Y4332565D01*
X11667435Y4360650D01*
X11776507Y4459508D01*
X11807232Y4484723D01*
X11925454Y4572403D01*
X11958486Y4594475D01*
X12084761Y4670161D01*
X12119800Y4688890D01*
X12252870Y4751827D01*
X12289571Y4767029D01*
X12428176Y4816623D01*
X12466203Y4828158D01*
X12608984Y4863923D01*
X12647960Y4871675D01*
X12793552Y4893272D01*
X12833119Y4897169D01*
X12980128Y4904392D01*
X13019872Y4904392D01*
X13166881Y4897169D01*
X13206448Y4893272D01*
X13352040Y4871675D01*
X13391016Y4863923D01*
X13533797Y4828158D01*
X13571824Y4816623D01*
X13710429Y4767029D01*
X13747130Y4751827D01*
X13880200Y4688890D01*
X13915239Y4670161D01*
X14041514Y4594475D01*
X14074546Y4572403D01*
X14192776Y4484718D01*
X14223488Y4459513D01*
X14332565Y4360652D01*
X14360651Y4332566D01*
X14459513Y4223488D01*
X14484718Y4192776D01*
X14572403Y4074546D01*
X14594475Y4041514D01*
X14670161Y3915239D01*
X14688890Y3880200D01*
X14751827Y3747130D01*
X14767029Y3710429D01*
X14816623Y3571824D01*
X14828158Y3533797D01*
X14863923Y3391016D01*
X14871675Y3352040D01*
X14893272Y3206448D01*
X14897169Y3166881D01*
X14904392Y3019872D01*
X14904392Y2980128D01*
X14897169Y2833119D01*
X14893272Y2793552D01*
X14871675Y2647960D01*
X14863923Y2608984D01*
X14828158Y2466203D01*
X14816623Y2428176D01*
X14767029Y2289571D01*
X14751827Y2252870D01*
X14688890Y2119800D01*
X14670161Y2084761D01*
X14594475Y1958486D01*
X14572403Y1925454D01*
X14484723Y1807232D01*
X14459508Y1776507D01*
X14360650Y1667435D01*
X14332565Y1639350D01*
X14223493Y1540492D01*
X14192768Y1515277D01*
X14074546Y1427597D01*
X14041514Y1405525D01*
X13915239Y1329839D01*
X13880200Y1311110D01*
X13747130Y1248173D01*
X13710429Y1232971D01*
X13571824Y1183377D01*
X13533797Y1171842D01*
X13391016Y1136077D01*
X13352040Y1128325D01*
X13206448Y1106728D01*
X13166881Y1102831D01*
X13019872Y1095608D01*
D02*
G37*
%LPC*%
G36*
X-12980128Y1095608D02*
X-13019872Y1095608D01*
X-13166881Y1102831D01*
X-13206448Y1106728D01*
X-13352040Y1128325D01*
X-13391016Y1136077D01*
X-13533797Y1171842D01*
X-13571824Y1183377D01*
X-13710429Y1232971D01*
X-13747130Y1248173D01*
X-13880200Y1311110D01*
X-13915239Y1329839D01*
X-14041514Y1405525D01*
X-14074546Y1427597D01*
X-14192768Y1515277D01*
X-14223493Y1540492D01*
X-14332565Y1639350D01*
X-14360650Y1667435D01*
X-14459508Y1776507D01*
X-14484723Y1807232D01*
X-14572403Y1925454D01*
X-14594475Y1958486D01*
X-14670161Y2084761D01*
X-14688890Y2119800D01*
X-14751827Y2252870D01*
X-14767029Y2289571D01*
X-14816623Y2428176D01*
X-14828158Y2466203D01*
X-14863923Y2608984D01*
X-14871675Y2647960D01*
X-14893272Y2793552D01*
X-14897169Y2833119D01*
X-14904392Y2980128D01*
X-14904392Y3019872D01*
X-14897169Y3166881D01*
X-14893272Y3206448D01*
X-14871675Y3352040D01*
X-14863923Y3391016D01*
X-14828158Y3533797D01*
X-14816623Y3571824D01*
X-14767029Y3710429D01*
X-14751827Y3747130D01*
X-14688890Y3880200D01*
X-14670161Y3915239D01*
X-14594475Y4041514D01*
X-14572403Y4074546D01*
X-14484723Y4192768D01*
X-14459508Y4223493D01*
X-14360650Y4332565D01*
X-14332565Y4360650D01*
X-14223493Y4459508D01*
X-14192768Y4484723D01*
X-14074546Y4572403D01*
X-14041514Y4594475D01*
X-13915239Y4670161D01*
X-13880200Y4688890D01*
X-13747130Y4751827D01*
X-13710429Y4767029D01*
X-13571824Y4816623D01*
X-13533797Y4828158D01*
X-13391016Y4863923D01*
X-13352040Y4871675D01*
X-13206448Y4893272D01*
X-13166881Y4897169D01*
X-13019872Y4904392D01*
X-12980128Y4904392D01*
X-12833119Y4897169D01*
X-12793552Y4893272D01*
X-12647960Y4871675D01*
X-12608984Y4863923D01*
X-12466203Y4828158D01*
X-12428176Y4816623D01*
X-12289571Y4767029D01*
X-12252870Y4751827D01*
X-12119800Y4688890D01*
X-12084761Y4670161D01*
X-11958486Y4594475D01*
X-11925454Y4572403D01*
X-11807224Y4484718D01*
X-11776512Y4459513D01*
X-11667435Y4360652D01*
X-11639349Y4332566D01*
X-11540487Y4223488D01*
X-11515282Y4192776D01*
X-11427597Y4074546D01*
X-11405525Y4041514D01*
X-11329839Y3915239D01*
X-11311110Y3880200D01*
X-11248173Y3747130D01*
X-11232971Y3710429D01*
X-11183377Y3571824D01*
X-11171842Y3533797D01*
X-11136077Y3391016D01*
X-11128325Y3352040D01*
X-11106728Y3206448D01*
X-11102831Y3166881D01*
X-11095608Y3019872D01*
X-11095608Y2980128D01*
X-11102831Y2833119D01*
X-11106728Y2793552D01*
X-11128325Y2647960D01*
X-11136077Y2608984D01*
X-11171842Y2466203D01*
X-11183377Y2428176D01*
X-11232971Y2289571D01*
X-11248173Y2252870D01*
X-11311110Y2119800D01*
X-11329839Y2084761D01*
X-11405525Y1958486D01*
X-11427597Y1925454D01*
X-11515277Y1807232D01*
X-11540492Y1776507D01*
X-11639350Y1667435D01*
X-11667435Y1639350D01*
X-11776507Y1540492D01*
X-11807232Y1515277D01*
X-11925454Y1427597D01*
X-11958486Y1405525D01*
X-12084761Y1329839D01*
X-12119800Y1311110D01*
X-12252870Y1248173D01*
X-12289571Y1232971D01*
X-12428176Y1183377D01*
X-12466203Y1171842D01*
X-12608984Y1136077D01*
X-12647960Y1128325D01*
X-12793552Y1106728D01*
X-12833119Y1102831D01*
X-12980128Y1095608D01*
D02*
G37*
%LPD*%
G36*
X-17737521Y3823301D02*
X-17681658Y3831261D01*
X-17630242Y3854507D01*
X-17596100Y3881880D01*
X-16983901Y4494079D01*
X-16950028Y4539208D01*
X-16930109Y4592002D01*
X-16925729Y4648259D01*
X-16937237Y4703500D01*
X-16963716Y4753328D01*
X-16983901Y4776921D01*
X-17019237Y4812257D01*
X-17064366Y4846130D01*
X-17104490Y4861874D01*
X-17104258Y4862639D01*
X-17132907Y4871330D01*
X-17142131Y4874631D01*
X-17165243Y4884204D01*
X-17174109Y4888397D01*
X-17196169Y4900188D01*
X-17204602Y4905243D01*
X-17225392Y4919135D01*
X-17233252Y4924964D01*
X-17252612Y4940852D01*
X-17259882Y4947441D01*
X-17277559Y4965118D01*
X-17284148Y4972388D01*
X-17300036Y4991748D01*
X-17305865Y4999608D01*
X-17319757Y5020398D01*
X-17324812Y5028831D01*
X-17336603Y5050891D01*
X-17340796Y5059757D01*
X-17350369Y5082869D01*
X-17353670Y5092093D01*
X-17360933Y5116036D01*
X-17363317Y5125551D01*
X-17368201Y5150105D01*
X-17369640Y5159809D01*
X-17372090Y5184685D01*
X-17372572Y5194486D01*
X-17372572Y5219514D01*
X-17372090Y5229315D01*
X-17369640Y5254191D01*
X-17368201Y5263895D01*
X-17363317Y5288449D01*
X-17360933Y5297964D01*
X-17353670Y5321907D01*
X-17350369Y5331131D01*
X-17340796Y5354243D01*
X-17336603Y5363109D01*
X-17324812Y5385169D01*
X-17319757Y5393602D01*
X-17305865Y5414392D01*
X-17300036Y5422252D01*
X-17284149Y5441611D01*
X-17277733Y5448690D01*
X-17246116Y5495427D01*
X-17228812Y5549135D01*
X-17227198Y5605539D01*
X-17241402Y5660149D01*
X-17270295Y5708617D01*
X-17311575Y5747087D01*
X-17361958Y5772496D01*
X-17425924Y5783001D01*
X-17808000Y5783001D01*
X-17863863Y5775041D01*
X-17915279Y5751795D01*
X-17958155Y5715112D01*
X-17989080Y5667914D01*
X-18005590Y5613956D01*
X-18008000Y5583001D01*
X-18008000Y5485250D01*
X-18000040Y5429387D01*
X-17982802Y5389894D01*
X-17983511Y5389515D01*
X-17969397Y5363109D01*
X-17965204Y5354243D01*
X-17955631Y5331131D01*
X-17952330Y5321907D01*
X-17945067Y5297964D01*
X-17942683Y5288449D01*
X-17937799Y5263895D01*
X-17936360Y5254191D01*
X-17933910Y5229315D01*
X-17933428Y5219514D01*
X-17933428Y5194486D01*
X-17933910Y5184685D01*
X-17936360Y5159809D01*
X-17937799Y5150105D01*
X-17942683Y5125551D01*
X-17945067Y5116036D01*
X-17952330Y5092093D01*
X-17955631Y5082869D01*
X-17965204Y5059757D01*
X-17969397Y5050891D01*
X-17981188Y5028831D01*
X-17986243Y5020398D01*
X-18000135Y4999608D01*
X-18005964Y4991748D01*
X-18021852Y4972388D01*
X-18028441Y4965118D01*
X-18046118Y4947441D01*
X-18053388Y4940852D01*
X-18072748Y4924964D01*
X-18080608Y4919135D01*
X-18101398Y4905243D01*
X-18109831Y4900188D01*
X-18131891Y4888397D01*
X-18140757Y4884204D01*
X-18163869Y4874631D01*
X-18173093Y4871330D01*
X-18197036Y4864067D01*
X-18206551Y4861683D01*
X-18231105Y4856799D01*
X-18240809Y4855360D01*
X-18265685Y4852910D01*
X-18275486Y4852428D01*
X-18300514Y4852428D01*
X-18310315Y4852910D01*
X-18335191Y4855360D01*
X-18344895Y4856799D01*
X-18369449Y4861683D01*
X-18378964Y4864067D01*
X-18402907Y4871330D01*
X-18412131Y4874631D01*
X-18435243Y4884204D01*
X-18444109Y4888397D01*
X-18466169Y4900188D01*
X-18474602Y4905243D01*
X-18495392Y4919135D01*
X-18503252Y4924964D01*
X-18522612Y4940852D01*
X-18529882Y4947441D01*
X-18547559Y4965118D01*
X-18554148Y4972388D01*
X-18570036Y4991748D01*
X-18575865Y4999608D01*
X-18589757Y5020398D01*
X-18594812Y5028831D01*
X-18606603Y5050891D01*
X-18610796Y5059757D01*
X-18620369Y5082869D01*
X-18623670Y5092093D01*
X-18630933Y5116036D01*
X-18633317Y5125551D01*
X-18638201Y5150105D01*
X-18639640Y5159809D01*
X-18642090Y5184685D01*
X-18642572Y5194486D01*
X-18642572Y5219514D01*
X-18642090Y5229315D01*
X-18639640Y5254191D01*
X-18638201Y5263895D01*
X-18633317Y5288449D01*
X-18630933Y5297964D01*
X-18623670Y5321907D01*
X-18620369Y5331131D01*
X-18610796Y5354243D01*
X-18606603Y5363109D01*
X-18592489Y5389515D01*
X-18593292Y5389944D01*
X-18574565Y5434426D01*
X-18568000Y5485250D01*
X-18568000Y5583001D01*
X-18575960Y5638864D01*
X-18599206Y5690280D01*
X-18635889Y5733156D01*
X-18683087Y5764081D01*
X-18737045Y5780591D01*
X-18768000Y5783001D01*
X-20890569Y5783001D01*
X-20946432Y5775041D01*
X-20997848Y5751795D01*
X-21040724Y5715112D01*
X-21071649Y5667914D01*
X-21088159Y5613956D01*
X-21088941Y5557535D01*
X-21067956Y5497015D01*
X-21070392Y5495863D01*
X-21041271Y5434292D01*
X-21018325Y5370163D01*
X-21017298Y5370530D01*
X-21001472Y5331707D01*
X-20966424Y5287485D01*
X-20920420Y5254811D01*
X-20867120Y5236288D01*
X-20810767Y5233389D01*
X-20755848Y5246346D01*
X-20725953Y5261030D01*
X-20714487Y5267903D01*
X-20679450Y5286631D01*
X-20644392Y5303212D01*
X-20607670Y5318423D01*
X-20571159Y5331486D01*
X-20533107Y5343029D01*
X-20495497Y5352449D01*
X-20456545Y5360198D01*
X-20418163Y5365892D01*
X-20378601Y5369789D01*
X-20339872Y5371692D01*
X-20300128Y5371692D01*
X-20261399Y5369789D01*
X-20221837Y5365892D01*
X-20183455Y5360198D01*
X-20144503Y5352449D01*
X-20106893Y5343029D01*
X-20068841Y5331486D01*
X-20032330Y5318423D01*
X-19995608Y5303212D01*
X-19960558Y5286634D01*
X-19925505Y5267898D01*
X-19892237Y5247958D01*
X-19859198Y5225883D01*
X-19828044Y5202778D01*
X-19797316Y5177560D01*
X-19768573Y5151508D01*
X-19740489Y5123424D01*
X-19714431Y5094673D01*
X-19689227Y5063962D01*
X-19666114Y5032796D01*
X-19644049Y4999773D01*
X-19624098Y4966488D01*
X-19605369Y4931450D01*
X-19588789Y4896395D01*
X-19573579Y4859674D01*
X-19560510Y4823151D01*
X-19548976Y4785125D01*
X-19539551Y4747496D01*
X-19531800Y4708530D01*
X-19526108Y4670163D01*
X-19522211Y4630601D01*
X-19520308Y4591872D01*
X-19520308Y4552128D01*
X-19522211Y4513399D01*
X-19526108Y4473837D01*
X-19531800Y4435470D01*
X-19539551Y4396504D01*
X-19548976Y4358875D01*
X-19560510Y4320849D01*
X-19573579Y4284326D01*
X-19588789Y4247605D01*
X-19605369Y4212550D01*
X-19624098Y4177512D01*
X-19644046Y4144231D01*
X-19650607Y4134412D01*
X-19675023Y4083541D01*
X-19684259Y4027875D01*
X-19677578Y3971845D01*
X-19655514Y3919911D01*
X-19619822Y3876207D01*
X-19573343Y3844211D01*
X-19519777Y3826471D01*
X-19484311Y3823301D01*
X-17737521Y3823301D01*
D02*
G37*
G01*
%LPD*%
D10*
X-13225978Y8351010D02*
X-2159000Y8351010D01*
D11*
X-11760010Y20700010D02*
X-10160000Y19100000D01*
D11*
X20828000Y7239000D02*
X20828000Y-127000D01*
D11*
X-11095000Y17110000D02*
X-10305030Y17899970D01*
D10*
X11150020Y18324980D02*
X12365000Y17110000D01*
D10*
X188980Y8701020D02*
X-13370956Y8701020D01*
D11*
X-21590000Y5207000D02*
X-21209000Y5588000D01*
D11*
X-23368000Y127000D02*
X-22741015Y-499985D01*
D11*
X10090092Y17899970D02*
X-10305030Y17899970D01*
D11*
X-22741015Y-499985D02*
X-22225000Y-499985D01*
D10*
X-13370956Y8701020D02*
X-15658965Y6413011D01*
D11*
X-14905000Y19650000D02*
X-13854990Y20700010D01*
D11*
X20828000Y-499985D02*
X30234015Y-499985D01*
D10*
X-21196301Y3543301D02*
X-17538699Y3543301D01*
D11*
X30353000Y26924000D02*
X27654000Y26924000D01*
D10*
X-1270000Y8001000D02*
X-1016000Y8001000D01*
D10*
X-2159000Y8351010D02*
X-604010Y8351010D01*
D10*
X-17538699Y3543301D02*
X-16383000Y4699000D01*
D10*
X-17933024Y2159000D02*
X-12791044Y7300980D01*
D11*
X-13854990Y20700010D02*
X-11760010Y20700010D01*
D11*
X30234015Y-499985D02*
X30499985Y-234015D01*
D10*
X-12791044Y7300980D02*
X-1712980Y7300980D01*
D10*
X-12420020Y18324980D02*
X11150020Y18324980D01*
D10*
X4572000Y4318000D02*
X188980Y8701020D01*
D10*
X-16510000Y4699000D02*
X-16383000Y4699000D01*
D10*
X-23843979Y6763021D02*
X-25400000Y5207000D01*
D10*
X600970Y9051030D02*
X-13515934Y9051030D01*
D10*
X-1016000Y8001000D02*
X254000Y6731000D01*
D10*
X-23622000Y2159000D02*
X-17933024Y2159000D01*
D10*
X-18288000Y5207000D02*
X-18288000Y6063001D01*
D11*
X27654000Y26924000D02*
X26000000Y25270000D01*
D11*
X4953000Y-499985D02*
X20828000Y-499985D01*
D10*
X-15658965Y6413011D02*
X-22923989Y6413011D01*
D11*
X20828000Y-127000D02*
X20828000Y-499985D01*
D11*
X10545000Y19100000D02*
X11095000Y19650000D01*
D10*
X-13515934Y9051030D02*
X-15803943Y6763021D01*
D10*
X-12936022Y7650990D02*
X-1524000Y7650990D01*
D10*
X-15513987Y6063001D02*
X-13225978Y8351010D01*
D11*
X-30226000Y7747000D02*
X-29718000Y7747000D01*
D11*
X14905000Y12111000D02*
X13462000Y10668000D01*
D11*
X30499985Y-234015D02*
X30499985Y17907000D01*
D11*
X4953000Y-499985D02*
X-5080000Y-499985D01*
D11*
X-30499985Y8020985D02*
X-30499985Y28301015D01*
D10*
X-1712980Y7300980D02*
X254000Y5334000D01*
D11*
X-5080000Y-499985D02*
X-22225000Y-499985D01*
D11*
X27637000Y17907000D02*
X30499985Y17907000D01*
D10*
X2413000Y7239000D02*
X600970Y9051030D01*
D10*
X-13081000Y8001000D02*
X-1270000Y8001000D01*
D10*
X-22003999Y6063001D02*
X-18288000Y6063001D01*
D11*
X-26670000Y5207000D02*
X-27305000Y4572000D01*
D11*
X6477000Y2286000D02*
X6477000Y8636000D01*
D11*
X-22860000Y2667000D02*
X-18288000Y2667000D01*
D10*
X12659990Y18674990D02*
X13635000Y19650000D01*
D11*
X6477000Y8636000D02*
X4445000Y10668000D01*
D10*
X-15803943Y6763021D02*
X-23843979Y6763021D01*
D10*
X-1391238Y7650990D02*
X272376Y5987376D01*
D11*
X26000000Y16270000D02*
X27637000Y17907000D01*
D11*
X-10160000Y19100000D02*
X10545000Y19100000D01*
D10*
X-11389990Y18674990D02*
X12659990Y18674990D01*
D10*
X-17018000Y5207000D02*
X-16510000Y4699000D01*
D11*
X12319000Y28297970D02*
X12319000Y21336000D01*
D10*
X-22923989Y6413011D02*
X-24130000Y5207000D01*
D11*
X14905000Y17110000D02*
X14905000Y12111000D01*
D10*
X-1524000Y7650990D02*
X-1391238Y7650990D01*
D11*
X-30226000Y7747000D02*
X-30499985Y8020985D01*
D11*
X4953000Y762000D02*
X4953000Y-499985D01*
D11*
X-30499985Y28301015D02*
X-30301015Y28499985D01*
D11*
X-30301015Y28499985D02*
X12116985Y28499985D01*
D11*
X-24130000Y3937000D02*
X-22860000Y2667000D01*
D11*
X-5080000Y2159000D02*
X-5080000Y-499985D01*
D11*
X-27305000Y4572000D02*
X-28829000Y4572000D01*
D11*
X30499985Y26777015D02*
X30353000Y26924000D01*
D10*
X-12365000Y19650000D02*
X-11389990Y18674990D01*
D10*
X-13635000Y17110000D02*
X-12420020Y18324980D01*
D11*
X11930072Y16059990D02*
X10090092Y17899970D01*
D10*
X-21590000Y3937000D02*
X-21196301Y3543301D01*
D10*
X-604010Y8351010D02*
X254000Y7493000D01*
D10*
X-17393721Y3193291D02*
X-12936022Y7650990D01*
D10*
X-22860000Y3937000D02*
X-22116291Y3193291D01*
D10*
X-18288000Y6063001D02*
X-15513987Y6063001D01*
D11*
X4953000Y762000D02*
X6477000Y2286000D01*
D11*
X14905000Y17110000D02*
X13854990Y16059990D01*
D11*
X-21209000Y5588000D02*
X-19177000Y5588000D01*
D11*
X12116985Y28499985D02*
X12319000Y28297970D01*
D11*
X30499985Y17907000D02*
X30499985Y26777015D01*
D10*
X-16383000Y4699000D02*
X-13081000Y8001000D01*
D10*
X-22116291Y3193291D02*
X-17393721Y3193291D01*
D11*
X13854990Y16059990D02*
X11930072Y16059990D01*
D10*
X-25400000Y3937000D02*
X-23622000Y2159000D01*
D10*
X-22860000Y5207000D02*
X-22003999Y6063001D01*
G75*
D12*
X-24130000Y3937000D03*
D12*
X-21590000Y3937000D03*
D12*
X-25400000Y3937000D03*
D12*
X-21590000Y5207000D03*
D12*
X-26670000Y3937000D03*
D12*
X-22860000Y5207000D03*
D12*
X-25400000Y5207000D03*
D12*
X-22860000Y3937000D03*
D12*
X-24130000Y5207000D03*
D12*
X-26670000Y5207000D03*
D13*
X-26000000Y22730000D03*
D13*
X-28540000Y25270000D03*
D13*
X-28540000Y22730000D03*
D13*
X-23460000Y25270000D03*
D13*
X-26000000Y25270000D03*
D13*
X-23460000Y22730000D03*
D13*
X0Y22730000D03*
D13*
X-2540000Y25270000D03*
D13*
X-2540000Y22730000D03*
D13*
X2540000Y25270000D03*
D13*
X0Y25270000D03*
D13*
X2540000Y22730000D03*
D13*
X26000000Y22730000D03*
D13*
X23460000Y25270000D03*
D13*
X23460000Y22730000D03*
D13*
X28540000Y25270000D03*
D13*
X26000000Y25270000D03*
D13*
X28540000Y22730000D03*
D14*
X-11095000Y17110000D03*
D14*
X-14905000Y19650000D03*
D14*
X-13635000Y17110000D03*
D14*
X-12365000Y19650000D03*
D14*
X14905000Y17110000D03*
D14*
X11095000Y19650000D03*
D14*
X12365000Y17110000D03*
D14*
X13635000Y19650000D03*
D13*
X-26000000Y13730000D03*
D13*
X-28540000Y16270000D03*
D13*
X-28540000Y13730000D03*
D13*
X-23460000Y16270000D03*
D13*
X-26000000Y16270000D03*
D13*
X-23460000Y13730000D03*
D13*
X26000000Y13730000D03*
D13*
X23460000Y16270000D03*
D13*
X23460000Y13730000D03*
D13*
X28540000Y16270000D03*
D13*
X26000000Y16270000D03*
D13*
X28540000Y13730000D03*
D15*
X-4064000Y16891000D03*
D15*
X-18288000Y5207000D03*
D15*
X-26416000Y19558000D03*
D15*
X4699000Y19812000D03*
D15*
X-28829000Y4572000D03*
D15*
X2413000Y7239000D03*
D15*
X-29718000Y7747000D03*
D15*
X272376Y5987376D03*
D15*
X8128000Y14351000D03*
D15*
X17526000Y12065000D03*
D15*
X-127000Y16256000D03*
D15*
X1524000Y762000D03*
D15*
X-8382000Y2159000D03*
D15*
X16637000Y9906000D03*
D15*
X4953000Y762000D03*
D15*
X-6731000Y22352000D03*
D15*
X13462000Y10668000D03*
D15*
X-5080000Y2159000D03*
D15*
X-8128000Y13970000D03*
D15*
X254000Y6731000D03*
D15*
X-17018000Y5207000D03*
D15*
X-6858000Y6350000D03*
D15*
X12319000Y21336000D03*
D15*
X4572000Y4318000D03*
D15*
X18034000Y1905000D03*
D15*
X11430000Y13843000D03*
D15*
X-19177000Y7239000D03*
D15*
X-26416000Y10541000D03*
D15*
X254000Y7493000D03*
D15*
X26416000Y10541000D03*
D15*
X-25781000Y1143000D03*
D15*
X-127000Y19812000D03*
D15*
X19050000Y11049000D03*
D15*
X20828000Y7239000D03*
D15*
X4445000Y10668000D03*
D15*
X-18288000Y2667000D03*
D15*
X4699000Y16256000D03*
D15*
X11430000Y15113000D03*
D15*
X-23368000Y127000D03*
D15*
X26416000Y19558000D03*
D15*
X254000Y5334000D03*
D15*
X-25781000Y7620000D03*
D15*
X-19177000Y5588000D03*
M02*
