%FSLAX46Y46*%
%MOMM*%
%ADD10C,0.150000*%
G01*
G01*
%LPD*%
D10*
X20758096Y15523810D02*
X21281904Y15523810D01*
D10*
X21043810Y15142857D02*
X20758096Y15523810D01*
D10*
X20900952Y15142857D02*
X21043810Y15142857D01*
D10*
X20805714Y15095238D02*
X20900952Y15142857D01*
D10*
X20758096Y15047619D02*
X20805714Y15095238D01*
D10*
X20710476Y14904762D02*
X20758096Y15047619D01*
D10*
X20710476Y14809524D02*
X20710476Y14904762D01*
D10*
X20758096Y14666667D02*
X20710476Y14809524D01*
D10*
X20853334Y14571429D02*
X20758096Y14666667D01*
D10*
X20996190Y14523810D02*
X20853334Y14571429D01*
D10*
X21139048Y14523810D02*
X20996190Y14523810D01*
D10*
X21281904Y14571429D02*
X21139048Y14523810D01*
D10*
X21329524Y14619048D02*
X21281904Y14571429D01*
D10*
X21377142Y14714286D02*
X21329524Y14619048D01*
D10*
X6032524Y13144476D02*
X6032524Y14668286D01*
D10*
X5699190Y14668286D02*
X6032524Y14668286D01*
D10*
X5699190Y13144476D02*
X6032524Y13144476D01*
D10*
X5270619Y14430190D02*
X5318238Y14477810D01*
D10*
X5223000Y14477810D02*
X5270619Y14430190D01*
D10*
X5270619Y14525429D02*
X5223000Y14477810D01*
D10*
X5318238Y14477810D02*
X5270619Y14525429D01*
D10*
X5270619Y13334952D02*
X5270619Y14144476D01*
D10*
X5318238Y13192095D02*
X5270619Y13334952D01*
D10*
X5413476Y13144476D02*
X5318238Y13192095D01*
D10*
X5508714Y13144476D02*
X5413476Y13144476D01*
D10*
X4889667Y13668286D02*
X4889667Y14144476D01*
D10*
X4842047Y13525429D02*
X4889667Y13668286D01*
D10*
X4746809Y13477810D02*
X4842047Y13525429D01*
D10*
X4603952Y13477810D02*
X4746809Y13477810D01*
D10*
X4508714Y13525429D02*
X4603952Y13477810D01*
D10*
X4365857Y13668286D02*
X4508714Y13525429D01*
D10*
X4365857Y13477810D02*
X4365857Y14144476D01*
D10*
X3461095Y13858762D02*
X4032523Y13858762D01*
D10*
X3461095Y13954000D02*
X3461095Y13858762D01*
D10*
X3508714Y14049238D02*
X3461095Y13954000D01*
D10*
X3556333Y14096857D02*
X3508714Y14049238D01*
D10*
X3651571Y14144476D02*
X3556333Y14096857D01*
D10*
X3794428Y14144476D02*
X3651571Y14144476D01*
D10*
X3889666Y14096857D02*
X3794428Y14144476D01*
D10*
X3984904Y14001619D02*
X3889666Y14096857D01*
D10*
X4032523Y13858762D02*
X3984904Y14001619D01*
D10*
X4032523Y13763524D02*
X4032523Y13858762D01*
D10*
X3984904Y13620667D02*
X4032523Y13763524D01*
D10*
X3889666Y13525429D02*
X3984904Y13620667D01*
D10*
X3794428Y13477810D02*
X3889666Y13525429D01*
D10*
X3651571Y13477810D02*
X3794428Y13477810D01*
D10*
X3556333Y13525429D02*
X3651571Y13477810D01*
D10*
X3461095Y13620667D02*
X3556333Y13525429D01*
D10*
X3127762Y13525429D02*
X3080143Y13573048D01*
D10*
X3080143Y13477810D02*
X3127762Y13525429D01*
D10*
X3032523Y13525429D02*
X3080143Y13477810D01*
D10*
X3080143Y13573048D02*
X3032523Y13525429D01*
D10*
X2461095Y13477810D02*
X2746809Y14144476D01*
D10*
X2461095Y13477810D02*
X2175381Y14144476D01*
D10*
X2556333Y13287333D02*
X2461095Y13477810D01*
D10*
X2651571Y13192095D02*
X2556333Y13287333D01*
D10*
X2746809Y13144476D02*
X2651571Y13192095D01*
D10*
X2794428Y13144476D02*
X2746809Y13144476D01*
D10*
X1842047Y13668286D02*
X1842047Y14477810D01*
D10*
X1794428Y13525429D02*
X1842047Y13668286D01*
D10*
X1699190Y13477810D02*
X1794428Y13525429D01*
D10*
X1603952Y13477810D02*
X1699190Y13477810D01*
D10*
X1651571Y14144476D02*
X1984905Y14144476D01*
D10*
X1032524Y13144476D02*
X1032524Y14668286D01*
D10*
X1032524Y14668286D02*
X1365857Y14668286D01*
D10*
X1032524Y13144476D02*
X1365857Y13144476D01*
D10*
X270619Y14287333D02*
X270619Y14239714D01*
D10*
X223000Y14382571D02*
X270619Y14287333D01*
D10*
X175381Y14430190D02*
X223000Y14382571D01*
D10*
X80143Y14477810D02*
X175381Y14430190D01*
D10*
X-110333Y14477810D02*
X80143Y14477810D01*
D10*
X-205571Y14430190D02*
X-110333Y14477810D01*
D10*
X-253190Y14382571D02*
X-205571Y14430190D01*
D10*
X-300809Y14287333D02*
X-253190Y14382571D01*
D10*
X-300809Y14192095D02*
X-300809Y14287333D01*
D10*
X-253190Y14096857D02*
X-300809Y14192095D01*
D10*
X-157952Y13954000D02*
X-253190Y14096857D01*
D10*
X318238Y13477810D02*
X-157952Y13954000D01*
D10*
X-348428Y13477810D02*
X318238Y13477810D01*
D10*
X-872238Y14334952D02*
X-777000Y14287333D01*
D10*
X-1015095Y14477810D02*
X-872238Y14334952D01*
D10*
X-1015095Y13477810D02*
X-1015095Y14477810D01*
D10*
X-1538904Y13144476D02*
X-2396047Y14668286D01*
D10*
X-2777000Y14430190D02*
X-2919857Y14477810D01*
D10*
X-2681762Y14287333D02*
X-2777000Y14430190D01*
D10*
X-2634143Y14049238D02*
X-2681762Y14287333D01*
D10*
X-2634143Y13906381D02*
X-2634143Y14049238D01*
D10*
X-2681762Y13668286D02*
X-2634143Y13906381D01*
D10*
X-2777000Y13525429D02*
X-2681762Y13668286D01*
D10*
X-2919857Y13477810D02*
X-2777000Y13525429D01*
D10*
X-3015095Y13477810D02*
X-2919857Y13477810D01*
D10*
X-3157952Y13525429D02*
X-3015095Y13477810D01*
D10*
X-3253190Y13668286D02*
X-3157952Y13525429D01*
D10*
X-3300809Y13906381D02*
X-3253190Y13668286D01*
D10*
X-3300809Y14049238D02*
X-3300809Y13906381D01*
D10*
X-3253190Y14287333D02*
X-3300809Y14049238D01*
D10*
X-3157952Y14430190D02*
X-3253190Y14287333D01*
D10*
X-3015095Y14477810D02*
X-3157952Y14430190D01*
D10*
X-2919857Y14477810D02*
X-3015095Y14477810D01*
D10*
X-4157952Y14430190D02*
X-4205571Y14334952D01*
D10*
X-4015095Y14477810D02*
X-4157952Y14430190D01*
D10*
X-3919857Y14477810D02*
X-4015095Y14477810D01*
D10*
X-3777000Y14430190D02*
X-3919857Y14477810D01*
D10*
X-3681762Y14287333D02*
X-3777000Y14430190D01*
D10*
X-3634143Y14049238D02*
X-3681762Y14287333D01*
D10*
X-3634143Y13811143D02*
X-3634143Y14049238D01*
D10*
X-3681762Y13620667D02*
X-3634143Y13811143D01*
D10*
X-3777000Y13525429D02*
X-3681762Y13620667D01*
D10*
X-3919857Y13477810D02*
X-3777000Y13525429D01*
D10*
X-3967476Y13477810D02*
X-3919857Y13477810D01*
D10*
X-4110333Y13525429D02*
X-3967476Y13477810D01*
D10*
X-4205571Y13620667D02*
X-4110333Y13525429D01*
D10*
X-4253190Y13763524D02*
X-4205571Y13620667D01*
D10*
X-4253190Y13811143D02*
X-4253190Y13763524D01*
D10*
X-4205571Y13954000D02*
X-4253190Y13811143D01*
D10*
X-4110333Y14049238D02*
X-4205571Y13954000D01*
D10*
X-3967476Y14096857D02*
X-4110333Y14049238D01*
D10*
X-3919857Y14096857D02*
X-3967476Y14096857D01*
D10*
X-3777000Y14049238D02*
X-3919857Y14096857D01*
D10*
X-3681762Y13954000D02*
X-3777000Y14049238D01*
D10*
X-3634143Y13811143D02*
X-3681762Y13954000D01*
D10*
X6032524Y11977810D02*
X6032524Y12977810D01*
D10*
X5365857Y11977810D02*
X5365857Y12977810D01*
D10*
X5365857Y12501619D02*
X6032524Y12501619D01*
D10*
X4889667Y12596857D02*
X4794428Y12644476D01*
D10*
X4984905Y12501619D02*
X4889667Y12596857D01*
D10*
X5032524Y12358762D02*
X4984905Y12501619D01*
D10*
X5032524Y12263524D02*
X5032524Y12358762D01*
D10*
X4984905Y12120667D02*
X5032524Y12263524D01*
D10*
X4889667Y12025429D02*
X4984905Y12120667D01*
D10*
X4794428Y11977810D02*
X4889667Y12025429D01*
D10*
X4651571Y11977810D02*
X4794428Y11977810D01*
D10*
X4556333Y12025429D02*
X4651571Y11977810D01*
D10*
X4461095Y12120667D02*
X4556333Y12025429D01*
D10*
X4413476Y12263524D02*
X4461095Y12120667D01*
D10*
X4413476Y12358762D02*
X4413476Y12263524D01*
D10*
X4461095Y12501619D02*
X4413476Y12358762D01*
D10*
X4556333Y12596857D02*
X4461095Y12501619D01*
D10*
X4651571Y12644476D02*
X4556333Y12596857D01*
D10*
X4794428Y12644476D02*
X4651571Y12644476D01*
D10*
X4080143Y11977810D02*
X4080143Y12644476D01*
D10*
X3937285Y12596857D02*
X4080143Y12454000D01*
D10*
X3842047Y12644476D02*
X3937285Y12596857D01*
D10*
X3699190Y12644476D02*
X3842047Y12644476D01*
D10*
X3603952Y12596857D02*
X3699190Y12644476D01*
D10*
X3556333Y12454000D02*
X3603952Y12596857D01*
D10*
X3556333Y11977810D02*
X3556333Y12454000D01*
D10*
X3413476Y12596857D02*
X3556333Y12454000D01*
D10*
X3318238Y12644476D02*
X3413476Y12596857D01*
D10*
X3175381Y12644476D02*
X3318238Y12644476D01*
D10*
X3080143Y12596857D02*
X3175381Y12644476D01*
D10*
X3032523Y12454000D02*
X3080143Y12596857D01*
D10*
X3032523Y11977810D02*
X3032523Y12454000D01*
D10*
X2651571Y12930190D02*
X2699190Y12977810D01*
D10*
X2603952Y12977810D02*
X2651571Y12930190D01*
D10*
X2651571Y13025429D02*
X2603952Y12977810D01*
D10*
X2699190Y12977810D02*
X2651571Y13025429D01*
D10*
X2651571Y11977810D02*
X2651571Y12644476D01*
D10*
X1746809Y12358762D02*
X2318238Y12358762D01*
D10*
X1746809Y12454000D02*
X1746809Y12358762D01*
D10*
X1794428Y12549238D02*
X1746809Y12454000D01*
D10*
X1842047Y12596857D02*
X1794428Y12549238D01*
D10*
X1937286Y12644476D02*
X1842047Y12596857D01*
D10*
X2080143Y12644476D02*
X1937286Y12644476D01*
D10*
X2175381Y12596857D02*
X2080143Y12644476D01*
D10*
X2270619Y12501619D02*
X2175381Y12596857D01*
D10*
X2318238Y12358762D02*
X2270619Y12501619D01*
D10*
X2318238Y12263524D02*
X2318238Y12358762D01*
D10*
X2270619Y12120667D02*
X2318238Y12263524D01*
D10*
X2175381Y12025429D02*
X2270619Y12120667D01*
D10*
X2080143Y11977810D02*
X2175381Y12025429D01*
D10*
X1937286Y11977810D02*
X2080143Y11977810D01*
D10*
X1842047Y12025429D02*
X1937286Y11977810D01*
D10*
X1746809Y12120667D02*
X1842047Y12025429D01*
D10*
X508714Y12930190D02*
X413476Y12834952D01*
D10*
X651571Y12977810D02*
X508714Y12930190D01*
D10*
X842047Y12977810D02*
X651571Y12977810D01*
D10*
X984905Y12930190D02*
X842047Y12977810D01*
D10*
X1080143Y12834952D02*
X984905Y12930190D01*
D10*
X1080143Y12739714D02*
X1080143Y12834952D01*
D10*
X1032524Y12644476D02*
X1080143Y12739714D01*
D10*
X984905Y12596857D02*
X1032524Y12644476D01*
D10*
X889667Y12549238D02*
X984905Y12596857D01*
D10*
X603952Y12454000D02*
X889667Y12549238D01*
D10*
X508714Y12406381D02*
X603952Y12454000D01*
D10*
X461095Y12358762D02*
X508714Y12406381D01*
D10*
X413476Y12263524D02*
X461095Y12358762D01*
D10*
X413476Y12120667D02*
X413476Y12263524D01*
D10*
X508714Y12025429D02*
X413476Y12120667D01*
D10*
X651571Y11977810D02*
X508714Y12025429D01*
D10*
X842047Y11977810D02*
X651571Y11977810D01*
D10*
X984905Y12025429D02*
X842047Y11977810D01*
D10*
X1080143Y12120667D02*
X984905Y12025429D01*
D10*
X-62714Y11977810D02*
X127762Y12644476D01*
D10*
X-62714Y11977810D02*
X-253190Y12644476D01*
D10*
X-443666Y11977810D02*
X-253190Y12644476D01*
D10*
X-443666Y11977810D02*
X-634143Y12644476D01*
D10*
X-967476Y12930190D02*
X-919857Y12977810D01*
D10*
X-1015095Y12977810D02*
X-967476Y12930190D01*
D10*
X-967476Y13025429D02*
X-1015095Y12977810D01*
D10*
X-919857Y12977810D02*
X-967476Y13025429D01*
D10*
X-967476Y11977810D02*
X-967476Y12644476D01*
D10*
X-1396047Y12168286D02*
X-1396047Y12977810D01*
D10*
X-1443666Y12025429D02*
X-1396047Y12168286D01*
D10*
X-1538904Y11977810D02*
X-1443666Y12025429D01*
D10*
X-1634142Y11977810D02*
X-1538904Y11977810D01*
D10*
X-1586523Y12644476D02*
X-1253190Y12644476D01*
D10*
X-2348428Y12596857D02*
X-2443667Y12501619D01*
D10*
X-2253190Y12644476D02*
X-2348428Y12596857D01*
D10*
X-2110333Y12644476D02*
X-2253190Y12644476D01*
D10*
X-2015095Y12596857D02*
X-2110333Y12644476D01*
D10*
X-1919857Y12501619D02*
X-2015095Y12596857D01*
D10*
X-1872238Y12358762D02*
X-1919857Y12501619D01*
D10*
X-1872238Y12263524D02*
X-1872238Y12358762D01*
D10*
X-1919857Y12120667D02*
X-1872238Y12263524D01*
D10*
X-2015095Y12025429D02*
X-1919857Y12120667D01*
D10*
X-2110333Y11977810D02*
X-2015095Y12025429D01*
D10*
X-2253190Y11977810D02*
X-2110333Y11977810D01*
D10*
X-2348428Y12025429D02*
X-2253190Y11977810D01*
D10*
X-2443667Y12120667D02*
X-2348428Y12025429D01*
D10*
X-2777000Y11977810D02*
X-2777000Y12977810D01*
D10*
X-2919857Y12596857D02*
X-2777000Y12454000D01*
D10*
X-3015095Y12644476D02*
X-2919857Y12596857D01*
D10*
X-3157952Y12644476D02*
X-3015095Y12644476D01*
D10*
X-3253190Y12596857D02*
X-3157952Y12644476D01*
D10*
X-3300809Y12454000D02*
X-3253190Y12596857D01*
D10*
X-3300809Y11977810D02*
X-3300809Y12454000D01*
D10*
X-3872238Y11977810D02*
X-3586524Y12644476D01*
D10*
X-3872238Y11977810D02*
X-4157952Y12644476D01*
D10*
X-3777000Y11787333D02*
X-3872238Y11977810D01*
D10*
X-3681762Y11692095D02*
X-3777000Y11787333D01*
D10*
X-3586524Y11644476D02*
X-3681762Y11692095D01*
D10*
X-3538905Y11644476D02*
X-3586524Y11644476D01*
D10*
X-4824619Y11977810D02*
X-4824619Y12977810D01*
D10*
X-5253190Y12977810D02*
X-4824619Y12977810D01*
D10*
X-5396047Y12930190D02*
X-5253190Y12977810D01*
D10*
X-5443666Y12882571D02*
X-5396047Y12930190D01*
D10*
X-5491286Y12787333D02*
X-5443666Y12882571D01*
D10*
X-5491286Y12692095D02*
X-5491286Y12787333D01*
D10*
X-5443666Y12596857D02*
X-5491286Y12692095D01*
D10*
X-5396047Y12549238D02*
X-5443666Y12596857D01*
D10*
X-5253190Y12501619D02*
X-5396047Y12549238D01*
D10*
X-4824619Y12501619D02*
X-5253190Y12501619D01*
D10*
X-5491286Y11977810D02*
X-5157952Y12501619D01*
D10*
X-6443666Y12834952D02*
X-6491286Y12739714D01*
D10*
X-6348428Y12930190D02*
X-6443666Y12834952D01*
D10*
X-6253190Y12977810D02*
X-6348428Y12930190D01*
D10*
X-6062714Y12977810D02*
X-6253190Y12977810D01*
D10*
X-5967476Y12930190D02*
X-6062714Y12977810D01*
D10*
X-5872238Y12834952D02*
X-5967476Y12930190D01*
D10*
X-5824619Y12739714D02*
X-5872238Y12834952D01*
D10*
X-5777000Y12596857D02*
X-5824619Y12739714D01*
D10*
X-5777000Y12358762D02*
X-5777000Y12596857D01*
D10*
X-5824619Y12215905D02*
X-5777000Y12358762D01*
D10*
X-5872238Y12120667D02*
X-5824619Y12215905D01*
D10*
X-5967476Y12025429D02*
X-5872238Y12120667D01*
D10*
X-6062714Y11977810D02*
X-5967476Y12025429D01*
D10*
X-6253190Y11977810D02*
X-6062714Y11977810D01*
D10*
X-6348428Y12025429D02*
X-6253190Y11977810D01*
D10*
X-6443666Y12120667D02*
X-6348428Y12025429D01*
D10*
X-6491286Y12215905D02*
X-6443666Y12120667D01*
D10*
X-6491286Y12358762D02*
X-6491286Y12215905D01*
D10*
X-6491286Y12358762D02*
X-6253190Y12358762D01*
D10*
X-6824619Y11977810D02*
X-6824619Y12977810D01*
D10*
X-7253190Y12977810D02*
X-6824619Y12977810D01*
D10*
X-7396047Y12930190D02*
X-7253190Y12977810D01*
D10*
X-7443666Y12882571D02*
X-7396047Y12930190D01*
D10*
X-7491286Y12787333D02*
X-7443666Y12882571D01*
D10*
X-7491286Y12692095D02*
X-7491286Y12787333D01*
D10*
X-7443666Y12596857D02*
X-7491286Y12692095D01*
D10*
X-7396047Y12549238D02*
X-7443666Y12596857D01*
D10*
X-7253190Y12501619D02*
X-7396047Y12549238D01*
D10*
X-7253190Y12501619D02*
X-6824619Y12501619D01*
D10*
X-7396047Y12454000D02*
X-7253190Y12501619D01*
D10*
X-7443666Y12406381D02*
X-7396047Y12454000D01*
D10*
X-7491286Y12311143D02*
X-7443666Y12406381D01*
D10*
X-7491286Y12168286D02*
X-7491286Y12311143D01*
D10*
X-7443666Y12073048D02*
X-7491286Y12168286D01*
D10*
X-7396047Y12025429D02*
X-7443666Y12073048D01*
D10*
X-7253190Y11977810D02*
X-7396047Y12025429D01*
D10*
X-6824619Y11977810D02*
X-7253190Y11977810D01*
D10*
X23669524Y10967810D02*
X23669524Y11967810D01*
D10*
X23240952Y11967810D02*
X23669524Y11967810D01*
D10*
X23098096Y11920190D02*
X23240952Y11967810D01*
D10*
X23050476Y11872571D02*
X23098096Y11920190D01*
D10*
X23002858Y11777333D02*
X23050476Y11872571D01*
D10*
X23002858Y11682095D02*
X23002858Y11777333D01*
D10*
X23050476Y11586857D02*
X23002858Y11682095D01*
D10*
X23098096Y11539238D02*
X23050476Y11586857D01*
D10*
X23240952Y11491619D02*
X23098096Y11539238D01*
D10*
X23669524Y11491619D02*
X23240952Y11491619D01*
D10*
X23002858Y10967810D02*
X23336190Y11491619D01*
D10*
X-26409524Y20824952D02*
X-26457142Y20729714D01*
D10*
X-26314286Y20920190D02*
X-26409524Y20824952D01*
D10*
X-26219048Y20967810D02*
X-26314286Y20920190D01*
D10*
X-26028572Y20967810D02*
X-26219048Y20967810D01*
D10*
X-25933334Y20920190D02*
X-26028572Y20967810D01*
D10*
X-25838096Y20824952D02*
X-25933334Y20920190D01*
D10*
X-25790476Y20729714D02*
X-25838096Y20824952D01*
D10*
X-25742858Y20586858D02*
X-25790476Y20729714D01*
D10*
X-25742858Y20348762D02*
X-25742858Y20586858D01*
D10*
X-25790476Y20205904D02*
X-25742858Y20348762D01*
D10*
X-25838096Y20110666D02*
X-25790476Y20205904D01*
D10*
X-25933334Y20015428D02*
X-25838096Y20110666D01*
D10*
X-26028572Y19967810D02*
X-25933334Y20015428D01*
D10*
X-26219048Y19967810D02*
X-26028572Y19967810D01*
D10*
X-26314286Y20015428D02*
X-26219048Y19967810D01*
D10*
X-26409524Y20110666D02*
X-26314286Y20015428D01*
D10*
X-26457142Y20205904D02*
X-26409524Y20110666D01*
D10*
X-26457142Y20348762D02*
X-26457142Y20205904D01*
D10*
X-26457142Y20348762D02*
X-26219048Y20348762D01*
D10*
X-20948572Y24380952D02*
X-20853334Y24333334D01*
D10*
X-21091428Y24523810D02*
X-20948572Y24380952D01*
D10*
X-21091428Y23523810D02*
X-21091428Y24523810D01*
D10*
X-20758096Y15333333D02*
X-20758096Y15285714D01*
D10*
X-20805714Y15428571D02*
X-20758096Y15333333D01*
D10*
X-20853334Y15476190D02*
X-20805714Y15428571D01*
D10*
X-20948572Y15523810D02*
X-20853334Y15476190D01*
D10*
X-21139048Y15523810D02*
X-20948572Y15523810D01*
D10*
X-21234286Y15476190D02*
X-21139048Y15523810D01*
D10*
X-21281904Y15428571D02*
X-21234286Y15476190D01*
D10*
X-21329524Y15333333D02*
X-21281904Y15428571D01*
D10*
X-21329524Y15238095D02*
X-21329524Y15333333D01*
D10*
X-21281904Y15142857D02*
X-21329524Y15238095D01*
D10*
X-21186666Y15000000D02*
X-21281904Y15142857D01*
D10*
X-20710476Y14523810D02*
X-21186666Y15000000D01*
D10*
X-21377142Y14523810D02*
X-20710476Y14523810D01*
D10*
X28749524Y10967810D02*
X28749524Y11967810D01*
D10*
X28320952Y11967810D02*
X28749524Y11967810D01*
D10*
X28178096Y11920190D02*
X28320952Y11967810D01*
D10*
X28130476Y11872571D02*
X28178096Y11920190D01*
D10*
X28082858Y11777333D02*
X28130476Y11872571D01*
D10*
X28082858Y11682095D02*
X28082858Y11777333D01*
D10*
X28130476Y11586857D02*
X28082858Y11682095D01*
D10*
X28178096Y11539238D02*
X28130476Y11586857D01*
D10*
X28320952Y11491619D02*
X28178096Y11539238D01*
D10*
X28320952Y11491619D02*
X28749524Y11491619D01*
D10*
X28178096Y11444000D02*
X28320952Y11491619D01*
D10*
X28130476Y11396381D02*
X28178096Y11444000D01*
D10*
X28082858Y11301143D02*
X28130476Y11396381D01*
D10*
X28082858Y11158286D02*
X28082858Y11301143D01*
D10*
X28130476Y11063048D02*
X28082858Y11158286D01*
D10*
X28178096Y11015429D02*
X28130476Y11063048D01*
D10*
X28320952Y10967810D02*
X28178096Y11015429D01*
D10*
X28749524Y10967810D02*
X28320952Y10967810D01*
D10*
X-28330476Y19967810D02*
X-28330476Y20967810D01*
D10*
X-28759048Y20967810D02*
X-28330476Y20967810D01*
D10*
X-28901904Y20920190D02*
X-28759048Y20967810D01*
D10*
X-28949524Y20872572D02*
X-28901904Y20920190D01*
D10*
X-28997142Y20777334D02*
X-28949524Y20872572D01*
D10*
X-28997142Y20682096D02*
X-28997142Y20777334D01*
D10*
X-28949524Y20586858D02*
X-28997142Y20682096D01*
D10*
X-28901904Y20539238D02*
X-28949524Y20586858D01*
D10*
X-28759048Y20491620D02*
X-28901904Y20539238D01*
D10*
X-28330476Y20491620D02*
X-28759048Y20491620D01*
D10*
X-28997142Y19967810D02*
X-28663810Y20491620D01*
D10*
X-409523Y20824952D02*
X-457142Y20729714D01*
D10*
X-314285Y20920190D02*
X-409523Y20824952D01*
D10*
X-219047Y20967810D02*
X-314285Y20920190D01*
D10*
X-28571Y20967810D02*
X-219047Y20967810D01*
D10*
X66666Y20920190D02*
X-28571Y20967810D01*
D10*
X161904Y20824952D02*
X66666Y20920190D01*
D10*
X209523Y20729714D02*
X161904Y20824952D01*
D10*
X257142Y20586858D02*
X209523Y20729714D01*
D10*
X257142Y20348762D02*
X257142Y20586858D01*
D10*
X209523Y20205904D02*
X257142Y20348762D01*
D10*
X161904Y20110666D02*
X209523Y20205904D01*
D10*
X66666Y20015428D02*
X161904Y20110666D01*
D10*
X-28571Y19967810D02*
X66666Y20015428D01*
D10*
X-219047Y19967810D02*
X-28571Y19967810D01*
D10*
X-314285Y20015428D02*
X-219047Y19967810D01*
D10*
X-409523Y20110666D02*
X-314285Y20015428D01*
D10*
X-457142Y20205904D02*
X-409523Y20110666D01*
D10*
X-457142Y20348762D02*
X-457142Y20205904D01*
D10*
X-457142Y20348762D02*
X-219047Y20348762D01*
D10*
X-23250476Y19967810D02*
X-23250476Y20967810D01*
D10*
X-23679048Y20967810D02*
X-23250476Y20967810D01*
D10*
X-23821904Y20920190D02*
X-23679048Y20967810D01*
D10*
X-23869524Y20872572D02*
X-23821904Y20920190D01*
D10*
X-23917142Y20777334D02*
X-23869524Y20872572D01*
D10*
X-23917142Y20682096D02*
X-23917142Y20777334D01*
D10*
X-23869524Y20586858D02*
X-23917142Y20682096D01*
D10*
X-23821904Y20539238D02*
X-23869524Y20586858D01*
D10*
X-23679048Y20491620D02*
X-23821904Y20539238D01*
D10*
X-23679048Y20491620D02*
X-23250476Y20491620D01*
D10*
X-23821904Y20444000D02*
X-23679048Y20491620D01*
D10*
X-23869524Y20396380D02*
X-23821904Y20444000D01*
D10*
X-23917142Y20301142D02*
X-23869524Y20396380D01*
D10*
X-23917142Y20158286D02*
X-23917142Y20301142D01*
D10*
X-23869524Y20063048D02*
X-23917142Y20158286D01*
D10*
X-23821904Y20015428D02*
X-23869524Y20063048D01*
D10*
X-23679048Y19967810D02*
X-23821904Y20015428D01*
D10*
X-23250476Y19967810D02*
X-23679048Y19967810D01*
D10*
X-21626776Y7328249D02*
X-21626776Y8328249D01*
D10*
X-21960110Y8328249D02*
X-21626776Y8328249D01*
D10*
X-22102966Y8280630D02*
X-21960110Y8328249D01*
D10*
X-22198204Y8185392D02*
X-22102966Y8280630D01*
D10*
X-22245824Y8090154D02*
X-22198204Y8185392D01*
D10*
X-22293442Y7947297D02*
X-22245824Y8090154D01*
D10*
X-22293442Y7709202D02*
X-22293442Y7947297D01*
D10*
X-22245824Y7566345D02*
X-22293442Y7709202D01*
D10*
X-22198204Y7471106D02*
X-22245824Y7566345D01*
D10*
X-22102966Y7375868D02*
X-22198204Y7471106D01*
D10*
X-21960110Y7328249D02*
X-22102966Y7375868D01*
D10*
X-21626776Y7328249D02*
X-21960110Y7328249D01*
D10*
X-22626776Y7328249D02*
X-22626776Y8328249D01*
D10*
X-23055348Y8328249D02*
X-22626776Y8328249D01*
D10*
X-23198204Y8280630D02*
X-23055348Y8328249D01*
D10*
X-23245824Y8233011D02*
X-23198204Y8280630D01*
D10*
X-23293442Y8137773D02*
X-23245824Y8233011D01*
D10*
X-23293442Y8042535D02*
X-23293442Y8137773D01*
D10*
X-23245824Y7947297D02*
X-23293442Y8042535D01*
D10*
X-23198204Y7899678D02*
X-23245824Y7947297D01*
D10*
X-23055348Y7852059D02*
X-23198204Y7899678D01*
D10*
X-23055348Y7852059D02*
X-22626776Y7852059D01*
D10*
X-23198204Y7804440D02*
X-23055348Y7852059D01*
D10*
X-23245824Y7756821D02*
X-23198204Y7804440D01*
D10*
X-23293442Y7661583D02*
X-23245824Y7756821D01*
D10*
X-23293442Y7518725D02*
X-23293442Y7661583D01*
D10*
X-23245824Y7423487D02*
X-23293442Y7518725D01*
D10*
X-23198204Y7375868D02*
X-23245824Y7423487D01*
D10*
X-23055348Y7328249D02*
X-23198204Y7375868D01*
D10*
X-22626776Y7328249D02*
X-23055348Y7328249D01*
D10*
X-24245824Y8185392D02*
X-24293442Y8090154D01*
D10*
X-24150586Y8280630D02*
X-24245824Y8185392D01*
D10*
X-24055348Y8328249D02*
X-24150586Y8280630D01*
D10*
X-23864872Y8328249D02*
X-24055348Y8328249D01*
D10*
X-23769634Y8280630D02*
X-23864872Y8328249D01*
D10*
X-23674396Y8185392D02*
X-23769634Y8280630D01*
D10*
X-23626776Y8090154D02*
X-23674396Y8185392D01*
D10*
X-23579156Y7947297D02*
X-23626776Y8090154D01*
D10*
X-23579156Y7709202D02*
X-23579156Y7947297D01*
D10*
X-23626776Y7566345D02*
X-23579156Y7709202D01*
D10*
X-23674396Y7471106D02*
X-23626776Y7566345D01*
D10*
X-23769634Y7375868D02*
X-23674396Y7471106D01*
D10*
X-23864872Y7328249D02*
X-23769634Y7375868D01*
D10*
X-24055348Y7328249D02*
X-23864872Y7328249D01*
D10*
X-24150586Y7375868D02*
X-24055348Y7328249D01*
D10*
X-24245824Y7471106D02*
X-24150586Y7375868D01*
D10*
X-24293442Y7566345D02*
X-24245824Y7471106D01*
D10*
X-24293442Y7709202D02*
X-24293442Y7566345D01*
D10*
X-24293442Y7709202D02*
X-24055348Y7709202D01*
D10*
X-2330476Y19967810D02*
X-2330476Y20967810D01*
D10*
X-2759047Y20967810D02*
X-2330476Y20967810D01*
D10*
X-2901904Y20920190D02*
X-2759047Y20967810D01*
D10*
X-2949523Y20872572D02*
X-2901904Y20920190D01*
D10*
X-2997143Y20777334D02*
X-2949523Y20872572D01*
D10*
X-2997143Y20682096D02*
X-2997143Y20777334D01*
D10*
X-2949523Y20586858D02*
X-2997143Y20682096D01*
D10*
X-2901904Y20539238D02*
X-2949523Y20586858D01*
D10*
X-2759047Y20491620D02*
X-2901904Y20539238D01*
D10*
X-2330476Y20491620D02*
X-2759047Y20491620D01*
D10*
X-2997143Y19967810D02*
X-2663809Y20491620D01*
D10*
X-23250476Y10967810D02*
X-23250476Y11967810D01*
D10*
X-23679048Y11967810D02*
X-23250476Y11967810D01*
D10*
X-23821904Y11920190D02*
X-23679048Y11967810D01*
D10*
X-23869524Y11872571D02*
X-23821904Y11920190D01*
D10*
X-23917142Y11777333D02*
X-23869524Y11872571D01*
D10*
X-23917142Y11682095D02*
X-23917142Y11777333D01*
D10*
X-23869524Y11586857D02*
X-23917142Y11682095D01*
D10*
X-23821904Y11539238D02*
X-23869524Y11586857D01*
D10*
X-23679048Y11491619D02*
X-23821904Y11539238D01*
D10*
X-23679048Y11491619D02*
X-23250476Y11491619D01*
D10*
X-23821904Y11444000D02*
X-23679048Y11491619D01*
D10*
X-23869524Y11396381D02*
X-23821904Y11444000D01*
D10*
X-23917142Y11301143D02*
X-23869524Y11396381D01*
D10*
X-23917142Y11158286D02*
X-23917142Y11301143D01*
D10*
X-23869524Y11063048D02*
X-23917142Y11158286D01*
D10*
X-23821904Y11015429D02*
X-23869524Y11063048D01*
D10*
X-23679048Y10967810D02*
X-23821904Y11015429D01*
D10*
X-23250476Y10967810D02*
X-23679048Y10967810D01*
D10*
X25590476Y20824952D02*
X25542858Y20729714D01*
D10*
X25685714Y20920190D02*
X25590476Y20824952D01*
D10*
X25780952Y20967810D02*
X25685714Y20920190D01*
D10*
X25971428Y20967810D02*
X25780952Y20967810D01*
D10*
X26066666Y20920190D02*
X25971428Y20967810D01*
D10*
X26161904Y20824952D02*
X26066666Y20920190D01*
D10*
X26209524Y20729714D02*
X26161904Y20824952D01*
D10*
X26257142Y20586858D02*
X26209524Y20729714D01*
D10*
X26257142Y20348762D02*
X26257142Y20586858D01*
D10*
X26209524Y20205904D02*
X26257142Y20348762D01*
D10*
X26161904Y20110666D02*
X26209524Y20205904D01*
D10*
X26066666Y20015428D02*
X26161904Y20110666D01*
D10*
X25971428Y19967810D02*
X26066666Y20015428D01*
D10*
X25780952Y19967810D02*
X25971428Y19967810D01*
D10*
X25685714Y20015428D02*
X25780952Y19967810D01*
D10*
X25590476Y20110666D02*
X25685714Y20015428D01*
D10*
X25542858Y20205904D02*
X25590476Y20110666D01*
D10*
X25542858Y20348762D02*
X25542858Y20205904D01*
D10*
X25542858Y20348762D02*
X25780952Y20348762D01*
D10*
X28749524Y19967810D02*
X28749524Y20967810D01*
D10*
X28320952Y20967810D02*
X28749524Y20967810D01*
D10*
X28178096Y20920190D02*
X28320952Y20967810D01*
D10*
X28130476Y20872572D02*
X28178096Y20920190D01*
D10*
X28082858Y20777334D02*
X28130476Y20872572D01*
D10*
X28082858Y20682096D02*
X28082858Y20777334D01*
D10*
X28130476Y20586858D02*
X28082858Y20682096D01*
D10*
X28178096Y20539238D02*
X28130476Y20586858D01*
D10*
X28320952Y20491620D02*
X28178096Y20539238D01*
D10*
X28320952Y20491620D02*
X28749524Y20491620D01*
D10*
X28178096Y20444000D02*
X28320952Y20491620D01*
D10*
X28130476Y20396380D02*
X28178096Y20444000D01*
D10*
X28082858Y20301142D02*
X28130476Y20396380D01*
D10*
X28082858Y20158286D02*
X28082858Y20301142D01*
D10*
X28130476Y20063048D02*
X28082858Y20158286D01*
D10*
X28178096Y20015428D02*
X28130476Y20063048D01*
D10*
X28320952Y19967810D02*
X28178096Y20015428D01*
D10*
X28749524Y19967810D02*
X28320952Y19967810D01*
D10*
X21377142Y23857142D02*
X20900952Y24523810D01*
D10*
X20662858Y23857142D02*
X21377142Y23857142D01*
D10*
X20900952Y23523810D02*
X20900952Y24523810D01*
D10*
X-26409524Y11824952D02*
X-26457142Y11729714D01*
D10*
X-26314286Y11920190D02*
X-26409524Y11824952D01*
D10*
X-26219048Y11967810D02*
X-26314286Y11920190D01*
D10*
X-26028572Y11967810D02*
X-26219048Y11967810D01*
D10*
X-25933334Y11920190D02*
X-26028572Y11967810D01*
D10*
X-25838096Y11824952D02*
X-25933334Y11920190D01*
D10*
X-25790476Y11729714D02*
X-25838096Y11824952D01*
D10*
X-25742858Y11586857D02*
X-25790476Y11729714D01*
D10*
X-25742858Y11348762D02*
X-25742858Y11586857D01*
D10*
X-25790476Y11205905D02*
X-25742858Y11348762D01*
D10*
X-25838096Y11110667D02*
X-25790476Y11205905D01*
D10*
X-25933334Y11015429D02*
X-25838096Y11110667D01*
D10*
X-26028572Y10967810D02*
X-25933334Y11015429D01*
D10*
X-26219048Y10967810D02*
X-26028572Y10967810D01*
D10*
X-26314286Y11015429D02*
X-26219048Y10967810D01*
D10*
X-26409524Y11110667D02*
X-26314286Y11015429D01*
D10*
X-26457142Y11205905D02*
X-26409524Y11110667D01*
D10*
X-26457142Y11348762D02*
X-26457142Y11205905D01*
D10*
X-26457142Y11348762D02*
X-26219048Y11348762D01*
D10*
X-4765714Y24476190D02*
X-4908571Y24523810D01*
D10*
X-4670476Y24333334D02*
X-4765714Y24476190D01*
D10*
X-4622857Y24095238D02*
X-4670476Y24333334D01*
D10*
X-4622857Y23952380D02*
X-4622857Y24095238D01*
D10*
X-4670476Y23714286D02*
X-4622857Y23952380D01*
D10*
X-4765714Y23571428D02*
X-4670476Y23714286D01*
D10*
X-4908571Y23523810D02*
X-4765714Y23571428D01*
D10*
X-5003809Y23523810D02*
X-4908571Y23523810D01*
D10*
X-5146666Y23571428D02*
X-5003809Y23523810D01*
D10*
X-5241905Y23714286D02*
X-5146666Y23571428D01*
D10*
X-5289524Y23952380D02*
X-5241905Y23714286D01*
D10*
X-5289524Y24095238D02*
X-5289524Y23952380D01*
D10*
X-5241905Y24333334D02*
X-5289524Y24095238D01*
D10*
X-5146666Y24476190D02*
X-5241905Y24333334D01*
D10*
X-5003809Y24523810D02*
X-5146666Y24476190D01*
D10*
X-4908571Y24523810D02*
X-5003809Y24523810D01*
D10*
X25590476Y11824952D02*
X25542858Y11729714D01*
D10*
X25685714Y11920190D02*
X25590476Y11824952D01*
D10*
X25780952Y11967810D02*
X25685714Y11920190D01*
D10*
X25971428Y11967810D02*
X25780952Y11967810D01*
D10*
X26066666Y11920190D02*
X25971428Y11967810D01*
D10*
X26161904Y11824952D02*
X26066666Y11920190D01*
D10*
X26209524Y11729714D02*
X26161904Y11824952D01*
D10*
X26257142Y11586857D02*
X26209524Y11729714D01*
D10*
X26257142Y11348762D02*
X26257142Y11586857D01*
D10*
X26209524Y11205905D02*
X26257142Y11348762D01*
D10*
X26161904Y11110667D02*
X26209524Y11205905D01*
D10*
X26066666Y11015429D02*
X26161904Y11110667D01*
D10*
X25971428Y10967810D02*
X26066666Y11015429D01*
D10*
X25780952Y10967810D02*
X25971428Y10967810D01*
D10*
X25685714Y11015429D02*
X25780952Y10967810D01*
D10*
X25590476Y11110667D02*
X25685714Y11015429D01*
D10*
X25542858Y11205905D02*
X25590476Y11110667D01*
D10*
X25542858Y11348762D02*
X25542858Y11205905D01*
D10*
X25542858Y11348762D02*
X25780952Y11348762D01*
D10*
X-28330476Y10967810D02*
X-28330476Y11967810D01*
D10*
X-28759048Y11967810D02*
X-28330476Y11967810D01*
D10*
X-28901904Y11920190D02*
X-28759048Y11967810D01*
D10*
X-28949524Y11872571D02*
X-28901904Y11920190D01*
D10*
X-28997142Y11777333D02*
X-28949524Y11872571D01*
D10*
X-28997142Y11682095D02*
X-28997142Y11777333D01*
D10*
X-28949524Y11586857D02*
X-28997142Y11682095D01*
D10*
X-28901904Y11539238D02*
X-28949524Y11586857D01*
D10*
X-28759048Y11491619D02*
X-28901904Y11539238D01*
D10*
X-28330476Y11491619D02*
X-28759048Y11491619D01*
D10*
X-28997142Y10967810D02*
X-28663810Y11491619D01*
D10*
X23669524Y19967810D02*
X23669524Y20967810D01*
D10*
X23240952Y20967810D02*
X23669524Y20967810D01*
D10*
X23098096Y20920190D02*
X23240952Y20967810D01*
D10*
X23050476Y20872572D02*
X23098096Y20920190D01*
D10*
X23002858Y20777334D02*
X23050476Y20872572D01*
D10*
X23002858Y20682096D02*
X23002858Y20777334D01*
D10*
X23050476Y20586858D02*
X23002858Y20682096D01*
D10*
X23098096Y20539238D02*
X23050476Y20586858D01*
D10*
X23240952Y20491620D02*
X23098096Y20539238D01*
D10*
X23669524Y20491620D02*
X23240952Y20491620D01*
D10*
X23002858Y19967810D02*
X23336190Y20491620D01*
D10*
X2749523Y19967810D02*
X2749523Y20967810D01*
D10*
X2320952Y20967810D02*
X2749523Y20967810D01*
D10*
X2178095Y20920190D02*
X2320952Y20967810D01*
D10*
X2130476Y20872572D02*
X2178095Y20920190D01*
D10*
X2082857Y20777334D02*
X2130476Y20872572D01*
D10*
X2082857Y20682096D02*
X2082857Y20777334D01*
D10*
X2130476Y20586858D02*
X2082857Y20682096D01*
D10*
X2178095Y20539238D02*
X2130476Y20586858D01*
D10*
X2320952Y20491620D02*
X2178095Y20539238D01*
D10*
X2320952Y20491620D02*
X2749523Y20491620D01*
D10*
X2178095Y20444000D02*
X2320952Y20491620D01*
D10*
X2130476Y20396380D02*
X2178095Y20444000D01*
D10*
X2082857Y20301142D02*
X2130476Y20396380D01*
D10*
X2082857Y20158286D02*
X2082857Y20301142D01*
D10*
X2130476Y20063048D02*
X2082857Y20158286D01*
D10*
X2178095Y20015428D02*
X2130476Y20063048D01*
D10*
X2320952Y19967810D02*
X2178095Y20015428D01*
D10*
X2749523Y19967810D02*
X2320952Y19967810D01*
D10*
X-20453550Y2629971D02*
X-19288761Y3794761D01*
D10*
X-19288761Y5349239D02*
X-20453550Y6514029D01*
D10*
X-21590000Y6985000D02*
X-28194000Y6985000D01*
D10*
X-28194000Y2159000D02*
X-21590000Y2159000D01*
D10*
X-29591000Y5588000D02*
X-29591000Y3556000D01*
D10*
X-21590000Y6985000D02*
X-21570276Y6984875D01*
D10*
X-21570276Y6984875D02*
X-21550555Y6984509D01*
D10*
X-21550555Y6984509D02*
X-21530840Y6983900D01*
D10*
X-21530840Y6983900D02*
X-21511134Y6983050D01*
D10*
X-21511134Y6983050D02*
X-21491440Y6981957D01*
D10*
X-21491440Y6981957D02*
X-21471760Y6980623D01*
D10*
X-21471760Y6980623D02*
X-21452099Y6979048D01*
D10*
X-21452099Y6979048D02*
X-21432458Y6977232D01*
D10*
X-21432458Y6977232D02*
X-21412841Y6975175D01*
D10*
X-21412841Y6975175D02*
X-21393251Y6972877D01*
D10*
X-21393251Y6972877D02*
X-21373690Y6970339D01*
D10*
X-21373690Y6970339D02*
X-21354163Y6967561D01*
D10*
X-21354163Y6967561D02*
X-21334670Y6964543D01*
D10*
X-21334670Y6964543D02*
X-21315216Y6961287D01*
D10*
X-21315216Y6961287D02*
X-21295804Y6957792D01*
D10*
X-21295804Y6957792D02*
X-21276436Y6954060D01*
D10*
X-21276436Y6954060D02*
X-21257115Y6950089D01*
D10*
X-21257115Y6950089D02*
X-21237844Y6945883D01*
D10*
X-21237844Y6945883D02*
X-21218627Y6941439D01*
D10*
X-21218627Y6941439D02*
X-21199465Y6936761D01*
D10*
X-21199465Y6936761D02*
X-21180363Y6931847D01*
D10*
X-21180363Y6931847D02*
X-21161322Y6926700D01*
D10*
X-21161322Y6926700D02*
X-21142345Y6921319D01*
D10*
X-21142345Y6921319D02*
X-21123436Y6915706D01*
D10*
X-21123436Y6915706D02*
X-21104598Y6909861D01*
D10*
X-21104598Y6909861D02*
X-21085832Y6903786D01*
D10*
X-21085832Y6903786D02*
X-21067143Y6897480D01*
D10*
X-21067143Y6897480D02*
X-21048532Y6890946D01*
D10*
X-21048532Y6890946D02*
X-21030003Y6884184D01*
D10*
X-21030003Y6884184D02*
X-21011558Y6877195D01*
D10*
X-21011558Y6877195D02*
X-20993200Y6869980D01*
D10*
X-20993200Y6869980D02*
X-20974933Y6862541D01*
D10*
X-20974933Y6862541D02*
X-20956758Y6854877D01*
D10*
X-20956758Y6854877D02*
X-20938678Y6846992D01*
D10*
X-20938678Y6846992D02*
X-20920697Y6838885D01*
D10*
X-20920697Y6838885D02*
X-20902816Y6830558D01*
D10*
X-20902816Y6830558D02*
X-20885039Y6822012D01*
D10*
X-20885039Y6822012D02*
X-20867368Y6813249D01*
D10*
X-20867368Y6813249D02*
X-20849806Y6804269D01*
D10*
X-20849806Y6804269D02*
X-20832355Y6795075D01*
D10*
X-20832355Y6795075D02*
X-20815019Y6785667D01*
D10*
X-20815019Y6785667D02*
X-20797799Y6776047D01*
D10*
X-20797799Y6776047D02*
X-20780699Y6766217D01*
D10*
X-20780699Y6766217D02*
X-20763721Y6756178D01*
D10*
X-20763721Y6756178D02*
X-20746867Y6745931D01*
D10*
X-20746867Y6745931D02*
X-20730140Y6735477D01*
D10*
X-20730140Y6735477D02*
X-20713543Y6724820D01*
D10*
X-20713543Y6724820D02*
X-20697077Y6713959D01*
D10*
X-20697077Y6713959D02*
X-20680747Y6702898D01*
D10*
X-20680747Y6702898D02*
X-20664553Y6691636D01*
D10*
X-20664553Y6691636D02*
X-20648498Y6680177D01*
D10*
X-20648498Y6680177D02*
X-20632586Y6668522D01*
D10*
X-20632586Y6668522D02*
X-20616818Y6656672D01*
D10*
X-20616818Y6656672D02*
X-20601196Y6644630D01*
D10*
X-20601196Y6644630D02*
X-20585723Y6632397D01*
D10*
X-20585723Y6632397D02*
X-20570402Y6619975D01*
D10*
X-20570402Y6619975D02*
X-20555234Y6607366D01*
D10*
X-20555234Y6607366D02*
X-20540222Y6594571D01*
D10*
X-20540222Y6594571D02*
X-20525368Y6581594D01*
D10*
X-20525368Y6581594D02*
X-20510674Y6568435D01*
D10*
X-20510674Y6568435D02*
X-20496143Y6555097D01*
D10*
X-20496143Y6555097D02*
X-20481777Y6541581D01*
D10*
X-20481777Y6541581D02*
X-20467578Y6527890D01*
D10*
X-20467578Y6527890D02*
X-20453548Y6514026D01*
D10*
X-29591000Y5588000D02*
X-29590579Y5622284D01*
D10*
X-29590579Y5622284D02*
X-29589317Y5656547D01*
D10*
X-29589317Y5656547D02*
X-29587215Y5690769D01*
D10*
X-29587215Y5690769D02*
X-29584273Y5724930D01*
D10*
X-29584273Y5724930D02*
X-29580494Y5759007D01*
D10*
X-29580494Y5759007D02*
X-29575879Y5792982D01*
D10*
X-29575879Y5792982D02*
X-29570433Y5826833D01*
D10*
X-29570433Y5826833D02*
X-29564157Y5860541D01*
D10*
X-29564157Y5860541D02*
X-29557056Y5894084D01*
D10*
X-29557056Y5894084D02*
X-29549133Y5927443D01*
D10*
X-29549133Y5927443D02*
X-29540395Y5960597D01*
D10*
X-29540395Y5960597D02*
X-29530845Y5993527D01*
D10*
X-29530845Y5993527D02*
X-29520491Y6026213D01*
D10*
X-29520491Y6026213D02*
X-29509337Y6058635D01*
D10*
X-29509337Y6058635D02*
X-29497391Y6090773D01*
D10*
X-29497391Y6090773D02*
X-29484659Y6122608D01*
D10*
X-29484659Y6122608D02*
X-29471151Y6154122D01*
D10*
X-29471151Y6154122D02*
X-29456873Y6185294D01*
D10*
X-29456873Y6185294D02*
X-29441834Y6216107D01*
D10*
X-29441834Y6216107D02*
X-29426044Y6246541D01*
D10*
X-29426044Y6246541D02*
X-29409511Y6276578D01*
D10*
X-29409511Y6276578D02*
X-29392247Y6306201D01*
D10*
X-29392247Y6306201D02*
X-29374260Y6335391D01*
D10*
X-29374260Y6335391D02*
X-29355563Y6364131D01*
D10*
X-29355563Y6364131D02*
X-29336166Y6392404D01*
D10*
X-29336166Y6392404D02*
X-29316081Y6420192D01*
D10*
X-29316081Y6420192D02*
X-29295320Y6447478D01*
D10*
X-29295320Y6447478D02*
X-29273895Y6474247D01*
D10*
X-29273895Y6474247D02*
X-29251820Y6500482D01*
D10*
X-29251820Y6500482D02*
X-29229108Y6526168D01*
D10*
X-29229108Y6526168D02*
X-29205773Y6551288D01*
D10*
X-29205773Y6551288D02*
X-29181828Y6575828D01*
D10*
X-29181828Y6575828D02*
X-29157288Y6599773D01*
D10*
X-29157288Y6599773D02*
X-29132167Y6623109D01*
D10*
X-29132167Y6623109D02*
X-29106482Y6645821D01*
D10*
X-29106482Y6645821D02*
X-29080247Y6667895D01*
D10*
X-29080247Y6667895D02*
X-29053478Y6689320D01*
D10*
X-29053478Y6689320D02*
X-29026191Y6710081D01*
D10*
X-29026191Y6710081D02*
X-28998404Y6730166D01*
D10*
X-28998404Y6730166D02*
X-28970131Y6749563D01*
D10*
X-28970131Y6749563D02*
X-28941391Y6768260D01*
D10*
X-28941391Y6768260D02*
X-28912201Y6786247D01*
D10*
X-28912201Y6786247D02*
X-28882578Y6803511D01*
D10*
X-28882578Y6803511D02*
X-28852541Y6820044D01*
D10*
X-28852541Y6820044D02*
X-28822107Y6835834D01*
D10*
X-28822107Y6835834D02*
X-28791294Y6850873D01*
D10*
X-28791294Y6850873D02*
X-28760122Y6865151D01*
D10*
X-28760122Y6865151D02*
X-28728609Y6878659D01*
D10*
X-28728609Y6878659D02*
X-28696773Y6891391D01*
D10*
X-28696773Y6891391D02*
X-28664635Y6903337D01*
D10*
X-28664635Y6903337D02*
X-28632214Y6914490D01*
D10*
X-28632214Y6914490D02*
X-28599528Y6924845D01*
D10*
X-28599528Y6924845D02*
X-28566598Y6934395D01*
D10*
X-28566598Y6934395D02*
X-28533444Y6943133D01*
D10*
X-28533444Y6943133D02*
X-28500085Y6951055D01*
D10*
X-28500085Y6951055D02*
X-28466542Y6958157D01*
D10*
X-28466542Y6958157D02*
X-28432834Y6964432D01*
D10*
X-28432834Y6964432D02*
X-28398983Y6969879D01*
D10*
X-28398983Y6969879D02*
X-28365008Y6974493D01*
D10*
X-28365008Y6974493D02*
X-28330931Y6978273D01*
D10*
X-28330931Y6978273D02*
X-28296770Y6981214D01*
D10*
X-28296770Y6981214D02*
X-28262548Y6983317D01*
D10*
X-28262548Y6983317D02*
X-28228285Y6984579D01*
D10*
X-28228285Y6984579D02*
X-28194001Y6985000D01*
D10*
X-19288761Y5349238D02*
X-19269921Y5329930D01*
D10*
X-19269921Y5329930D02*
X-19251560Y5310165D01*
D10*
X-19251560Y5310165D02*
X-19233690Y5289955D01*
D10*
X-19233690Y5289955D02*
X-19216321Y5269313D01*
D10*
X-19216321Y5269313D02*
X-19199464Y5248251D01*
D10*
X-19199464Y5248251D02*
X-19183129Y5226781D01*
D10*
X-19183129Y5226781D02*
X-19167325Y5204917D01*
D10*
X-19167325Y5204917D02*
X-19152064Y5182672D01*
D10*
X-19152064Y5182672D02*
X-19137352Y5160059D01*
D10*
X-19137352Y5160059D02*
X-19123200Y5137091D01*
D10*
X-19123200Y5137091D02*
X-19109616Y5113784D01*
D10*
X-19109616Y5113784D02*
X-19096608Y5090149D01*
D10*
X-19096608Y5090149D02*
X-19084184Y5066203D01*
D10*
X-19084184Y5066203D02*
X-19072351Y5041959D01*
D10*
X-19072351Y5041959D02*
X-19061117Y5017432D01*
D10*
X-19061117Y5017432D02*
X-19050488Y4992637D01*
D10*
X-19050488Y4992637D02*
X-19040471Y4967588D01*
D10*
X-19040471Y4967588D02*
X-19031072Y4942301D01*
D10*
X-19031072Y4942301D02*
X-19022296Y4916791D01*
D10*
X-19022296Y4916791D02*
X-19014148Y4891074D01*
D10*
X-19014148Y4891074D02*
X-19006635Y4865164D01*
D10*
X-19006635Y4865164D02*
X-18999759Y4839077D01*
D10*
X-18999759Y4839077D02*
X-18993526Y4812830D01*
D10*
X-18993526Y4812830D02*
X-18987938Y4786437D01*
D10*
X-18987938Y4786437D02*
X-18983001Y4759916D01*
D10*
X-18983001Y4759916D02*
X-18978715Y4733281D01*
D10*
X-18978715Y4733281D02*
X-18975084Y4706549D01*
D10*
X-18975084Y4706549D02*
X-18972111Y4679736D01*
D10*
X-18972111Y4679736D02*
X-18969796Y4652858D01*
D10*
X-18969796Y4652858D02*
X-18968142Y4625932D01*
D10*
X-18968142Y4625932D02*
X-18967149Y4598972D01*
D10*
X-18967149Y4598972D02*
X-18966818Y4571998D01*
D10*
X-18966818Y4571998D02*
X-18967149Y4545023D01*
D10*
X-18967149Y4545023D02*
X-18968142Y4518064D01*
D10*
X-18968142Y4518064D02*
X-18969797Y4491137D01*
D10*
X-18969797Y4491137D02*
X-18972111Y4464259D01*
D10*
X-18972111Y4464259D02*
X-18975085Y4437446D01*
D10*
X-18975085Y4437446D02*
X-18978716Y4410714D01*
D10*
X-18978716Y4410714D02*
X-18983001Y4384079D01*
D10*
X-18983001Y4384079D02*
X-18987939Y4357558D01*
D10*
X-18987939Y4357558D02*
X-18993527Y4331165D01*
D10*
X-18993527Y4331165D02*
X-18999760Y4304918D01*
D10*
X-18999760Y4304918D02*
X-19006636Y4278831D01*
D10*
X-19006636Y4278831D02*
X-19014150Y4252922D01*
D10*
X-19014150Y4252922D02*
X-19022297Y4227204D01*
D10*
X-19022297Y4227204D02*
X-19031073Y4201694D01*
D10*
X-19031073Y4201694D02*
X-19040473Y4176407D01*
D10*
X-19040473Y4176407D02*
X-19050490Y4151358D01*
D10*
X-19050490Y4151358D02*
X-19061119Y4126563D01*
D10*
X-19061119Y4126563D02*
X-19072353Y4102036D01*
D10*
X-19072353Y4102036D02*
X-19084186Y4077792D01*
D10*
X-19084186Y4077792D02*
X-19096610Y4053846D01*
D10*
X-19096610Y4053846D02*
X-19109618Y4030212D01*
D10*
X-19109618Y4030212D02*
X-19123203Y4006904D01*
D10*
X-19123203Y4006904D02*
X-19137355Y3983937D01*
D10*
X-19137355Y3983937D02*
X-19152066Y3961324D01*
D10*
X-19152066Y3961324D02*
X-19167328Y3939079D01*
D10*
X-19167328Y3939079D02*
X-19183132Y3917215D01*
D10*
X-19183132Y3917215D02*
X-19199467Y3895745D01*
D10*
X-19199467Y3895745D02*
X-19216324Y3874683D01*
D10*
X-19216324Y3874683D02*
X-19233693Y3854041D01*
D10*
X-19233693Y3854041D02*
X-19251563Y3833832D01*
D10*
X-19251563Y3833832D02*
X-19269924Y3814067D01*
D10*
X-19269924Y3814067D02*
X-19288765Y3794758D01*
D10*
X-20453550Y2629972D02*
X-20467580Y2616108D01*
D10*
X-20467580Y2616108D02*
X-20481780Y2602417D01*
D10*
X-20481780Y2602417D02*
X-20496146Y2588901D01*
D10*
X-20496146Y2588901D02*
X-20510677Y2575563D01*
D10*
X-20510677Y2575563D02*
X-20525370Y2562404D01*
D10*
X-20525370Y2562404D02*
X-20540224Y2549427D01*
D10*
X-20540224Y2549427D02*
X-20555236Y2536633D01*
D10*
X-20555236Y2536633D02*
X-20570404Y2524024D01*
D10*
X-20570404Y2524024D02*
X-20585725Y2511602D01*
D10*
X-20585725Y2511602D02*
X-20601198Y2499368D01*
D10*
X-20601198Y2499368D02*
X-20616820Y2487326D01*
D10*
X-20616820Y2487326D02*
X-20632588Y2475476D01*
D10*
X-20632588Y2475476D02*
X-20648501Y2463821D01*
D10*
X-20648501Y2463821D02*
X-20664555Y2452362D01*
D10*
X-20664555Y2452362D02*
X-20680749Y2441101D01*
D10*
X-20680749Y2441101D02*
X-20697080Y2430039D01*
D10*
X-20697080Y2430039D02*
X-20713545Y2419179D01*
D10*
X-20713545Y2419179D02*
X-20730143Y2408521D01*
D10*
X-20730143Y2408521D02*
X-20746869Y2398068D01*
D10*
X-20746869Y2398068D02*
X-20763723Y2387821D01*
D10*
X-20763723Y2387821D02*
X-20780702Y2377782D01*
D10*
X-20780702Y2377782D02*
X-20797802Y2367951D01*
D10*
X-20797802Y2367951D02*
X-20815022Y2358331D01*
D10*
X-20815022Y2358331D02*
X-20832358Y2348924D01*
D10*
X-20832358Y2348924D02*
X-20849809Y2339729D01*
D10*
X-20849809Y2339729D02*
X-20867371Y2330750D01*
D10*
X-20867371Y2330750D02*
X-20885042Y2321987D01*
D10*
X-20885042Y2321987D02*
X-20902819Y2313441D01*
D10*
X-20902819Y2313441D02*
X-20920699Y2305114D01*
D10*
X-20920699Y2305114D02*
X-20938681Y2297007D01*
D10*
X-20938681Y2297007D02*
X-20956760Y2289122D01*
D10*
X-20956760Y2289122D02*
X-20974935Y2281459D01*
D10*
X-20974935Y2281459D02*
X-20993203Y2274019D01*
D10*
X-20993203Y2274019D02*
X-21011561Y2266804D01*
D10*
X-21011561Y2266804D02*
X-21030006Y2259815D01*
D10*
X-21030006Y2259815D02*
X-21048535Y2253053D01*
D10*
X-21048535Y2253053D02*
X-21067146Y2246519D01*
D10*
X-21067146Y2246519D02*
X-21085835Y2240214D01*
D10*
X-21085835Y2240214D02*
X-21104601Y2234138D01*
D10*
X-21104601Y2234138D02*
X-21123439Y2228293D01*
D10*
X-21123439Y2228293D02*
X-21142348Y2222680D01*
D10*
X-21142348Y2222680D02*
X-21161325Y2217299D01*
D10*
X-21161325Y2217299D02*
X-21180365Y2212152D01*
D10*
X-21180365Y2212152D02*
X-21199468Y2207239D01*
D10*
X-21199468Y2207239D02*
X-21218630Y2202560D01*
D10*
X-21218630Y2202560D02*
X-21237847Y2198117D01*
D10*
X-21237847Y2198117D02*
X-21257118Y2193910D01*
D10*
X-21257118Y2193910D02*
X-21276439Y2189940D01*
D10*
X-21276439Y2189940D02*
X-21295807Y2186207D01*
D10*
X-21295807Y2186207D02*
X-21315219Y2182712D01*
D10*
X-21315219Y2182712D02*
X-21334673Y2179456D01*
D10*
X-21334673Y2179456D02*
X-21354166Y2176439D01*
D10*
X-21354166Y2176439D02*
X-21373693Y2173661D01*
D10*
X-21373693Y2173661D02*
X-21393254Y2171123D01*
D10*
X-21393254Y2171123D02*
X-21412844Y2168825D01*
D10*
X-21412844Y2168825D02*
X-21432461Y2166768D01*
D10*
X-21432461Y2166768D02*
X-21452102Y2164952D01*
D10*
X-21452102Y2164952D02*
X-21471763Y2163376D01*
D10*
X-21471763Y2163376D02*
X-21491443Y2162043D01*
D10*
X-21491443Y2162043D02*
X-21511137Y2160951D01*
D10*
X-21511137Y2160951D02*
X-21530843Y2160100D01*
D10*
X-21530843Y2160100D02*
X-21550558Y2159492D01*
D10*
X-21550558Y2159492D02*
X-21570279Y2159125D01*
D10*
X-21570279Y2159125D02*
X-21590003Y2159000D01*
D10*
X-28194000Y2159000D02*
X-28228284Y2159421D01*
D10*
X-28228284Y2159421D02*
X-28262547Y2160683D01*
D10*
X-28262547Y2160683D02*
X-28296770Y2162786D01*
D10*
X-28296770Y2162786D02*
X-28330930Y2165727D01*
D10*
X-28330930Y2165727D02*
X-28365008Y2169506D01*
D10*
X-28365008Y2169506D02*
X-28398983Y2174121D01*
D10*
X-28398983Y2174121D02*
X-28432834Y2179568D01*
D10*
X-28432834Y2179568D02*
X-28466542Y2185843D01*
D10*
X-28466542Y2185843D02*
X-28500085Y2192945D01*
D10*
X-28500085Y2192945D02*
X-28533444Y2200867D01*
D10*
X-28533444Y2200867D02*
X-28566599Y2209605D01*
D10*
X-28566599Y2209605D02*
X-28599529Y2219155D01*
D10*
X-28599529Y2219155D02*
X-28632214Y2229510D01*
D10*
X-28632214Y2229510D02*
X-28664636Y2240664D01*
D10*
X-28664636Y2240664D02*
X-28696775Y2252610D01*
D10*
X-28696775Y2252610D02*
X-28728610Y2265341D01*
D10*
X-28728610Y2265341D02*
X-28760123Y2278850D01*
D10*
X-28760123Y2278850D02*
X-28791296Y2293128D01*
D10*
X-28791296Y2293128D02*
X-28822108Y2308167D01*
D10*
X-28822108Y2308167D02*
X-28852543Y2323957D01*
D10*
X-28852543Y2323957D02*
X-28882580Y2340490D01*
D10*
X-28882580Y2340490D02*
X-28912203Y2357755D01*
D10*
X-28912203Y2357755D02*
X-28941393Y2375741D01*
D10*
X-28941393Y2375741D02*
X-28970133Y2394439D01*
D10*
X-28970133Y2394439D02*
X-28998406Y2413836D01*
D10*
X-28998406Y2413836D02*
X-29026194Y2433921D01*
D10*
X-29026194Y2433921D02*
X-29053480Y2454682D01*
D10*
X-29053480Y2454682D02*
X-29080249Y2476107D01*
D10*
X-29080249Y2476107D02*
X-29106484Y2498182D01*
D10*
X-29106484Y2498182D02*
X-29132170Y2520894D01*
D10*
X-29132170Y2520894D02*
X-29157290Y2544229D01*
D10*
X-29157290Y2544229D02*
X-29181830Y2568174D01*
D10*
X-29181830Y2568174D02*
X-29205775Y2592715D01*
D10*
X-29205775Y2592715D02*
X-29229111Y2617835D01*
D10*
X-29229111Y2617835D02*
X-29251823Y2643521D01*
D10*
X-29251823Y2643521D02*
X-29273898Y2669756D01*
D10*
X-29273898Y2669756D02*
X-29295322Y2696525D01*
D10*
X-29295322Y2696525D02*
X-29316083Y2723811D01*
D10*
X-29316083Y2723811D02*
X-29336168Y2751599D01*
D10*
X-29336168Y2751599D02*
X-29355565Y2779872D01*
D10*
X-29355565Y2779872D02*
X-29374262Y2808612D01*
D10*
X-29374262Y2808612D02*
X-29392249Y2837802D01*
D10*
X-29392249Y2837802D02*
X-29409513Y2867425D01*
D10*
X-29409513Y2867425D02*
X-29426046Y2897463D01*
D10*
X-29426046Y2897463D02*
X-29441836Y2927897D01*
D10*
X-29441836Y2927897D02*
X-29456875Y2958710D01*
D10*
X-29456875Y2958710D02*
X-29471153Y2989883D01*
D10*
X-29471153Y2989883D02*
X-29484661Y3021396D01*
D10*
X-29484661Y3021396D02*
X-29497392Y3053232D01*
D10*
X-29497392Y3053232D02*
X-29509339Y3085370D01*
D10*
X-29509339Y3085370D02*
X-29520492Y3117792D01*
D10*
X-29520492Y3117792D02*
X-29530847Y3150478D01*
D10*
X-29530847Y3150478D02*
X-29540396Y3183408D01*
D10*
X-29540396Y3183408D02*
X-29549135Y3216562D01*
D10*
X-29549135Y3216562D02*
X-29557057Y3249921D01*
D10*
X-29557057Y3249921D02*
X-29564158Y3283465D01*
D10*
X-29564158Y3283465D02*
X-29570434Y3317172D01*
D10*
X-29570434Y3317172D02*
X-29575880Y3351024D01*
D10*
X-29575880Y3351024D02*
X-29580494Y3384998D01*
D10*
X-29580494Y3384998D02*
X-29584273Y3419076D01*
D10*
X-29584273Y3419076D02*
X-29587215Y3453237D01*
D10*
X-29587215Y3453237D02*
X-29589317Y3487459D01*
D10*
X-29589317Y3487459D02*
X-29590579Y3521722D01*
D10*
X-29590579Y3521722D02*
X-29591000Y3556007D01*
D10*
X-25600000Y18556000D02*
X-26400000Y18556000D01*
D10*
X-23160000Y17956000D02*
X-23760000Y17956000D01*
D10*
X-22960000Y27256000D02*
X-23960000Y27256000D01*
D10*
X26000000Y27956000D02*
X26000000Y27156000D01*
D10*
X28540000Y18956000D02*
X28540000Y18556000D01*
D10*
X28840000Y26956000D02*
X28240000Y26956000D01*
D10*
X-25600000Y27556000D02*
X-26400000Y27556000D01*
D10*
X26400000Y27556000D02*
X25600000Y27556000D01*
D10*
X23460000Y27256000D02*
X23460000Y26856000D01*
D10*
X-28540000Y18256000D02*
X-28540000Y17856000D01*
D10*
X29040000Y18256000D02*
X28040000Y18256000D01*
D10*
X-2740000Y27656000D02*
X-2540000Y27256000D01*
D10*
X-28740000Y27656000D02*
X-28540000Y27256000D01*
D10*
X-26000000Y18956000D02*
X-26000000Y18156000D01*
D10*
X-22960000Y18256000D02*
X-23960000Y18256000D01*
D10*
X-28540000Y28156000D02*
X-28540000Y27756000D01*
D10*
X23460000Y19156000D02*
X23460000Y18756000D01*
D10*
X29040000Y27256000D02*
X28040000Y27256000D01*
D10*
X-23160000Y26956000D02*
X-23760000Y26956000D01*
D10*
X28840000Y17956000D02*
X28240000Y17956000D01*
D10*
X-22760000Y18556000D02*
X-24160000Y18556000D01*
D10*
X-22760000Y27556000D02*
X-24160000Y27556000D01*
D10*
X-23460000Y18956000D02*
X-23460000Y18556000D01*
D10*
X23460000Y18256000D02*
X23460000Y17856000D01*
D10*
X23260000Y27656000D02*
X23460000Y27256000D01*
D10*
X-26000000Y27956000D02*
X-26000000Y27156000D01*
D10*
X26000000Y18956000D02*
X26000000Y18156000D01*
D10*
X400000Y27556000D02*
X-400000Y27556000D01*
D10*
X23460000Y28156000D02*
X23460000Y27756000D01*
D10*
X23260000Y18656000D02*
X23460000Y18256000D01*
D10*
X3040000Y27256000D02*
X2040000Y27256000D01*
D10*
X-28740000Y18656000D02*
X-28540000Y18256000D01*
D10*
X-2540000Y28156000D02*
X-2540000Y27756000D01*
D10*
X-2540000Y27256000D02*
X-2540000Y26856000D01*
D10*
X0Y27956000D02*
X0Y27156000D01*
D10*
X-28540000Y27256000D02*
X-28540000Y26856000D01*
D10*
X28540000Y27956000D02*
X28540000Y27556000D01*
D10*
X2540000Y27956000D02*
X2540000Y27556000D01*
D10*
X3240000Y27556000D02*
X1840000Y27556000D01*
D10*
X29240000Y27556000D02*
X27840000Y27556000D01*
D10*
X-23460000Y27956000D02*
X-23460000Y27556000D01*
D10*
X-28540000Y19156000D02*
X-28540000Y18756000D01*
D10*
X26400000Y18556000D02*
X25600000Y18556000D01*
D10*
X2840000Y26956000D02*
X2240000Y26956000D01*
D10*
X29240000Y18556000D02*
X27840000Y18556000D01*
G75*
M02*
