%FSLAX46Y46*%
%MOMM*%
%AMPS24*
1,1,1.500000,0.000000,0.000000*
%
%ADD24PS24*%
%AMPS17*
1,1,1.800000,0.000000,0.000000*
%
%ADD17PS17*%
%AMPS27*
21,1,0.800000,1.100000,0.000000,0.000000,90.000000*
%
%ADD27PS27*%
%AMPS34*
21,1,0.800000,1.100000,0.000000,0.000000,180.000000*
%
%ADD34PS34*%
%AMPS20*
21,1,0.800000,1.100000,0.000000,0.000000,270.000000*
%
%ADD20PS20*%
%AMPS30*
21,1,0.350000,1.100000,0.000000,0.000000,0.000000*
%
%ADD30PS30*%
%AMPS29*
21,1,0.350000,1.100000,0.000000,0.000000,90.000000*
%
%ADD29PS29*%
%AMPS31*
21,1,0.350000,1.100000,0.000000,0.000000,180.000000*
%
%ADD31PS31*%
%AMPS28*
21,1,0.350000,1.100000,0.000000,0.000000,270.000000*
%
%ADD28PS28*%
%AMPS14*
21,1,1.500000,1.300000,0.000000,0.000000,180.000000*
%
%ADD14PS14*%
%AMPS12*
21,1,0.700000,1.600000,0.000000,0.000000,0.000000*
%
%ADD12PS12*%
%AMPS13*
21,1,0.700000,1.600000,0.000000,0.000000,180.000000*
%
%ADD13PS13*%
%AMPS35*
1,1,0.400000,0.000000,0.000000*
%
%ADD35PS35*%
%AMPS15*
1,1,1.190600,0.000000,0.000000*
%
%ADD15PS15*%
%AMPS10*
1,1,3.400000,0.000000,0.000000*
%
%ADD10PS10*%
%AMPS23*
1,1,3.500000,0.000000,0.000000*
%
%ADD23PS23*%
%AMPS11*
1,1,0.460000,-0.220000,0.195000*
1,1,0.460000,0.220000,-0.195000*
1,1,0.460000,0.220000,0.195000*
1,1,0.460000,-0.220000,-0.195000*
21,1,0.900000,0.390000,0.000000,0.000000,0.000000*
21,1,0.440000,0.850000,0.000000,0.000000,0.000000*
%
%ADD11PS11*%
%AMPS21*
1,1,0.460000,-0.195000,-0.220000*
1,1,0.460000,0.195000,0.220000*
1,1,0.460000,-0.195000,0.220000*
1,1,0.460000,0.195000,-0.220000*
21,1,0.900000,0.390000,0.000000,0.000000,90.000000*
21,1,0.440000,0.850000,0.000000,0.000000,90.000000*
%
%ADD21PS21*%
%AMPS25*
1,1,0.460000,0.220000,-0.195000*
1,1,0.460000,-0.220000,0.195000*
1,1,0.460000,-0.220000,-0.195000*
1,1,0.460000,0.220000,0.195000*
21,1,0.900000,0.390000,0.000000,0.000000,180.000000*
21,1,0.440000,0.850000,0.000000,0.000000,180.000000*
%
%ADD25PS25*%
%AMPS16*
1,1,0.460000,0.195000,0.220000*
1,1,0.460000,-0.195000,-0.220000*
1,1,0.460000,0.195000,-0.220000*
1,1,0.460000,-0.195000,0.220000*
21,1,0.900000,0.390000,0.000000,0.000000,270.000000*
21,1,0.440000,0.850000,0.000000,0.000000,270.000000*
%
%ADD16PS16*%
%AMPS26*
1,1,0.340000,-0.130000,0.330000*
1,1,0.340000,0.130000,-0.330000*
1,1,0.340000,0.130000,0.330000*
1,1,0.340000,-0.130000,-0.330000*
21,1,0.600000,0.660000,0.000000,0.000000,0.000000*
21,1,0.260000,1.000000,0.000000,0.000000,0.000000*
%
%ADD26PS26*%
%AMPS18*
1,1,0.340000,-0.330000,-0.130000*
1,1,0.340000,0.330000,0.130000*
1,1,0.340000,-0.330000,0.130000*
1,1,0.340000,0.330000,-0.130000*
21,1,0.600000,0.660000,0.000000,0.000000,90.000000*
21,1,0.260000,1.000000,0.000000,0.000000,90.000000*
%
%ADD18PS18*%
%AMPS19*
1,1,0.340000,0.130000,-0.330000*
1,1,0.340000,-0.130000,0.330000*
1,1,0.340000,-0.130000,-0.330000*
1,1,0.340000,0.130000,0.330000*
21,1,0.600000,0.660000,0.000000,0.000000,180.000000*
21,1,0.260000,1.000000,0.000000,0.000000,180.000000*
%
%ADD19PS19*%
%AMPS22*
1,1,0.340000,0.330000,0.130000*
1,1,0.340000,-0.330000,-0.130000*
1,1,0.340000,0.330000,-0.130000*
1,1,0.340000,-0.330000,0.130000*
21,1,0.600000,0.660000,0.000000,0.000000,270.000000*
21,1,0.260000,1.000000,0.000000,0.000000,270.000000*
%
%ADD22PS22*%
%AMPS32*
1,1,0.200000,-0.250000,0.500000*
1,1,0.200000,0.250000,-0.500000*
1,1,0.200000,0.250000,0.500000*
1,1,0.200000,-0.250000,-0.500000*
21,1,0.700000,1.000000,0.000000,0.000000,0.000000*
21,1,0.500000,1.200000,0.000000,0.000000,0.000000*
%
%ADD32PS32*%
%AMPS33*
1,1,0.200000,0.250000,-0.500000*
1,1,0.200000,-0.250000,0.500000*
1,1,0.200000,-0.250000,-0.500000*
1,1,0.200000,0.250000,0.500000*
21,1,0.700000,1.000000,0.000000,0.000000,180.000000*
21,1,0.500000,1.200000,0.000000,0.000000,180.000000*
%
%ADD33PS33*%
G01*
G01*
%LPD*%
G75*
D10*
X-13000000Y3000000D03*
D10*
X13000000Y3000000D03*
D11*
X20435000Y1905000D03*
D11*
X18935000Y1905000D03*
D12*
X19050000Y4158000D03*
D12*
X21590000Y4158000D03*
D13*
X19050000Y9558000D03*
D12*
X17780000Y4158000D03*
D12*
X20320000Y4158000D03*
D13*
X21590000Y9558000D03*
D13*
X20320000Y9558000D03*
D13*
X17780000Y9558000D03*
D14*
X1186000Y17234000D03*
D14*
X3386000Y17234000D03*
D14*
X3386000Y18834000D03*
D14*
X1186000Y18834000D03*
D15*
X-27940000Y5588000D03*
D15*
X-27940000Y3556000D03*
D15*
X-20320000Y4572000D03*
D16*
X10795000Y12954000D03*
D16*
X10795000Y14454000D03*
D17*
X-26000000Y22730000D03*
D17*
X-28540000Y25270000D03*
D17*
X-28540000Y22730000D03*
D17*
X-23460000Y25270000D03*
D17*
X-26000000Y25270000D03*
D17*
X-23460000Y22730000D03*
D18*
X-16383000Y6362000D03*
D18*
X-16383000Y7862000D03*
D16*
X17526000Y12966000D03*
D16*
X17526000Y14466000D03*
D19*
X20562000Y18796000D03*
D19*
X19062000Y18796000D03*
D20*
X-27235000Y10541000D03*
D20*
X-24835000Y9591000D03*
D20*
X-27235000Y11491000D03*
D20*
X-24835000Y11491000D03*
D20*
X-27235000Y9591000D03*
D21*
X-8128000Y13069000D03*
D21*
X-8128000Y11569000D03*
D16*
X-762000Y17284000D03*
D16*
X-762000Y18784000D03*
D17*
X0Y22730000D03*
D17*
X-2540000Y25270000D03*
D17*
X-2540000Y22730000D03*
D17*
X2540000Y25270000D03*
D17*
X0Y25270000D03*
D17*
X2540000Y22730000D03*
D17*
X26000000Y22730000D03*
D17*
X23460000Y25270000D03*
D17*
X23460000Y22730000D03*
D17*
X28540000Y25270000D03*
D17*
X26000000Y25270000D03*
D17*
X28540000Y22730000D03*
D22*
X-8255000Y18657000D03*
D22*
X-8255000Y17157000D03*
D23*
X-9190000Y26000000D03*
D24*
X-11095000Y17110000D03*
D24*
X-14905000Y19650000D03*
D24*
X-13635000Y17110000D03*
D23*
X-16810000Y26000000D03*
D24*
X-12365000Y19650000D03*
D23*
X16810000Y26000000D03*
D24*
X14905000Y17110000D03*
D24*
X11095000Y19650000D03*
D24*
X12365000Y17110000D03*
D23*
X9190000Y26000000D03*
D24*
X13635000Y19650000D03*
D25*
X-24880000Y1143000D03*
D25*
X-23380000Y1143000D03*
D17*
X-26000000Y13730000D03*
D17*
X-28540000Y16270000D03*
D17*
X-28540000Y13730000D03*
D17*
X-23460000Y16270000D03*
D17*
X-26000000Y16270000D03*
D17*
X-23460000Y13730000D03*
D21*
X-17780000Y7862000D03*
D21*
X-17780000Y6362000D03*
D26*
X-20562000Y12700000D03*
D26*
X-19062000Y12700000D03*
D27*
X27235000Y19558000D03*
D27*
X24835000Y20508000D03*
D27*
X27235000Y18608000D03*
D27*
X24835000Y18608000D03*
D27*
X27235000Y20508000D03*
D26*
X-20562000Y20193000D03*
D26*
X-19062000Y20193000D03*
D19*
X20562000Y20320000D03*
D19*
X19062000Y20320000D03*
D26*
X-20562000Y11176000D03*
D26*
X-19062000Y11176000D03*
D21*
X5334000Y18784000D03*
D21*
X5334000Y17284000D03*
D26*
X-20562000Y9652000D03*
D26*
X-19062000Y9652000D03*
D26*
X25158000Y6350000D03*
D26*
X26658000Y6350000D03*
D26*
X-20562000Y21717000D03*
D26*
X-19062000Y21717000D03*
D26*
X25158000Y4826000D03*
D26*
X26658000Y4826000D03*
D28*
X-5700000Y10878000D03*
D29*
X5700000Y8878000D03*
D29*
X5700000Y7878000D03*
D29*
X5700000Y7378000D03*
D29*
X5700000Y4878000D03*
D30*
X-3750000Y2428000D03*
D29*
X5700000Y11378000D03*
D29*
X5700000Y11878000D03*
D31*
X750000Y13828000D03*
D31*
X-750000Y13828000D03*
D30*
X-1250000Y2428000D03*
D31*
X3250000Y13828000D03*
D28*
X-5700000Y4378000D03*
D31*
X-1250000Y13828000D03*
D28*
X-5700000Y9878000D03*
D28*
X-5700000Y11378000D03*
D31*
X1250000Y13828000D03*
D30*
X1750000Y2428000D03*
D31*
X-3250000Y13828000D03*
D28*
X-5700000Y8878000D03*
D28*
X-5700000Y7878000D03*
D28*
X-5700000Y9378000D03*
D31*
X-3750000Y13828000D03*
D30*
X-750000Y2428000D03*
D29*
X5700000Y10878000D03*
D31*
X3750000Y13828000D03*
D28*
X-5700000Y11878000D03*
D29*
X5700000Y5878000D03*
D30*
X1250000Y2428000D03*
D30*
X3250000Y2428000D03*
D29*
X5700000Y6878000D03*
D28*
X-5700000Y10378000D03*
D28*
X-5700000Y6878000D03*
D31*
X2250000Y13828000D03*
D30*
X-3250000Y2428000D03*
D29*
X5700000Y10378000D03*
D31*
X250000Y13828000D03*
D30*
X2750000Y2428000D03*
D30*
X750000Y2428000D03*
D31*
X-2250000Y13828000D03*
D29*
X5700000Y9878000D03*
D30*
X2250000Y2428000D03*
D31*
X2750000Y13828000D03*
D28*
X-5700000Y6378000D03*
D30*
X-1750000Y2428000D03*
D30*
X250000Y2428000D03*
D29*
X5700000Y4378000D03*
D30*
X3750000Y2428000D03*
D28*
X-5700000Y5878000D03*
D31*
X-250000Y13828000D03*
D29*
X5700000Y6378000D03*
D28*
X-5700000Y7378000D03*
D28*
X-5700000Y5378000D03*
D28*
X-5700000Y8378000D03*
D29*
X5700000Y8378000D03*
D31*
X-2750000Y13828000D03*
D31*
X1750000Y13828000D03*
D29*
X5700000Y5378000D03*
D30*
X-2750000Y2428000D03*
D28*
X-5700000Y4878000D03*
D31*
X-1750000Y13828000D03*
D30*
X-2250000Y2428000D03*
D29*
X5700000Y9378000D03*
D30*
X-250000Y2428000D03*
D20*
X-7677000Y22352000D03*
D20*
X-5277000Y21402000D03*
D20*
X-7677000Y23302000D03*
D20*
X-5277000Y23302000D03*
D20*
X-7677000Y21402000D03*
D26*
X25158000Y3302000D03*
D26*
X26658000Y3302000D03*
D19*
X20562000Y21844000D03*
D19*
X19062000Y21844000D03*
D20*
X-27235000Y19558000D03*
D20*
X-24835000Y18608000D03*
D20*
X-27235000Y20508000D03*
D20*
X-24835000Y20508000D03*
D20*
X-27235000Y18608000D03*
D11*
X7227000Y14351000D03*
D11*
X5727000Y14351000D03*
D25*
X-24880000Y7620000D03*
D25*
X-23380000Y7620000D03*
D22*
X-6731000Y18657000D03*
D22*
X-6731000Y17157000D03*
D25*
X2425000Y762000D03*
D25*
X3925000Y762000D03*
D17*
X26000000Y13730000D03*
D17*
X23460000Y16270000D03*
D17*
X23460000Y13730000D03*
D17*
X28540000Y16270000D03*
D17*
X26000000Y16270000D03*
D17*
X28540000Y13730000D03*
D21*
X16002000Y14454000D03*
D21*
X16002000Y12954000D03*
D21*
X-3175000Y17641000D03*
D21*
X-3175000Y16141000D03*
D25*
X-7481000Y2159000D03*
D25*
X-5981000Y2159000D03*
D27*
X27235000Y10541000D03*
D27*
X24835000Y11491000D03*
D27*
X27235000Y9591000D03*
D27*
X24835000Y9591000D03*
D27*
X27235000Y11491000D03*
D32*
X-23180000Y3272000D03*
D32*
X-25080000Y3272000D03*
D33*
X-25080000Y5872000D03*
D33*
X-23180000Y5872000D03*
D33*
X-24130000Y5872000D03*
D22*
X-5207000Y18657000D03*
D22*
X-5207000Y17157000D03*
D25*
X20078000Y11557000D03*
D25*
X21578000Y11557000D03*
D34*
X14412000Y11754000D03*
D34*
X13462000Y14154000D03*
D34*
X12512000Y11754000D03*
D34*
X14412000Y14154000D03*
D34*
X13462000Y11754000D03*
D34*
X12512000Y14154000D03*
D26*
X-20562000Y18669000D03*
D26*
X-19062000Y18669000D03*
D35*
X-4064000Y16891000D03*
D35*
X-18288000Y5207000D03*
D35*
X-26416000Y19558000D03*
D35*
X4699000Y19812000D03*
D35*
X-28829000Y4572000D03*
D35*
X2413000Y7239000D03*
D35*
X-29718000Y7747000D03*
D35*
X272376Y5987376D03*
D35*
X8128000Y14351000D03*
D35*
X17526000Y12065000D03*
D35*
X-127000Y16256000D03*
D35*
X1524000Y762000D03*
D35*
X-8382000Y2159000D03*
D35*
X16637000Y9906000D03*
D35*
X4953000Y762000D03*
D35*
X-6731000Y22352000D03*
D35*
X13462000Y10668000D03*
D35*
X-5080000Y2159000D03*
D35*
X-8128000Y13970000D03*
D35*
X254000Y6731000D03*
D35*
X-17018000Y5207000D03*
D35*
X-6858000Y6350000D03*
D35*
X12319000Y21336000D03*
D35*
X4572000Y4318000D03*
D35*
X18034000Y1905000D03*
D35*
X11430000Y13843000D03*
D35*
X-19177000Y7239000D03*
D35*
X-26416000Y10541000D03*
D35*
X254000Y7493000D03*
D35*
X26416000Y10541000D03*
D35*
X-25781000Y1143000D03*
D35*
X-127000Y19812000D03*
D35*
X19050000Y11049000D03*
D35*
X20828000Y7239000D03*
D35*
X4445000Y10668000D03*
D35*
X-18288000Y2667000D03*
D35*
X4699000Y16256000D03*
D35*
X11430000Y15113000D03*
D35*
X-23368000Y127000D03*
D35*
X26416000Y19558000D03*
D35*
X254000Y5334000D03*
D35*
X-25781000Y7620000D03*
D35*
X-19177000Y5588000D03*
M02*
