M48
FMAT,2
METRIC,TZ
T6C0.200
T5C0.900
T2C0.991
T3C1.000
T1C3.200
T4C3.300
%
G90
G05
M71
T6
X-4.064Y16.891
X-18.288Y5.207
X-26.416Y19.558
X4.699Y19.812
X-28.829Y4.572
X2.413Y7.239
X-29.718Y7.747
X0.272Y5.987
X8.128Y14.351
X17.526Y12.065
X-0.127Y16.256
X1.524Y0.762
X-8.382Y2.159
X16.637Y9.906
X4.953Y0.762
X-6.731Y22.352
X13.462Y10.668
X-5.080Y2.159
X-8.128Y13.970
X0.254Y6.731
X-17.018Y5.207
X-6.858Y6.350
X12.319Y21.336
X4.572Y4.318
X18.034Y1.905
X11.430Y13.843
X-19.177Y7.239
X-26.416Y10.541
X0.254Y7.493
X26.416Y10.541
X-25.781Y1.143
X-0.127Y19.812
X19.050Y11.049
X20.828Y7.239
X4.445Y10.668
X-18.288Y2.667
X4.699Y16.256
X11.430Y15.113
X-23.368Y0.127
X26.416Y19.558
X0.254Y5.334
X-25.781Y7.620
X-19.177Y5.588
T5
X-11.095Y17.110
X-14.905Y19.650
X-13.635Y17.110
X-12.365Y19.650
X14.905Y17.110
X11.095Y19.650
X12.365Y17.110
X13.635Y19.650
T2
X-27.940Y5.588
X-27.940Y3.556
X-20.320Y4.572
T3
X-26.000Y22.730
X-28.540Y25.270
X-28.540Y22.730
X-23.460Y25.270
X-26.000Y25.270
X-23.460Y22.730
X0.000Y22.730
X-2.540Y25.270
X-2.540Y22.730
X2.540Y25.270
X0.000Y25.270
X2.540Y22.730
X26.000Y22.730
X23.460Y25.270
X23.460Y22.730
X28.540Y25.270
X26.000Y25.270
X28.540Y22.730
X-26.000Y13.730
X-28.540Y16.270
X-28.540Y13.730
X-23.460Y16.270
X-26.000Y16.270
X-23.460Y13.730
X26.000Y13.730
X23.460Y16.270
X23.460Y13.730
X28.540Y16.270
X26.000Y16.270
X28.540Y13.730
T1
X-13.000Y3.000
X13.000Y3.000
T4
X-9.190Y26.000
X-16.810Y26.000
X16.810Y26.000
X9.190Y26.000
M30
