%FSLAX46Y46*%
%MOMM*%
%ADD10C,0.150000*%
G01*
G01*
%LPD*%
D10*
X6580000Y-33291250D02*
X7180000Y-33291250D01*
D10*
X7180000Y-33291250D02*
X7180000Y-32691250D01*
D10*
X7180000Y-30491250D02*
X7180000Y-29891250D01*
D10*
X2980000Y-29891250D02*
X2980000Y-30491250D01*
D10*
X7180000Y-29891250D02*
X6580000Y-29891250D01*
D10*
X2980000Y-33291250D02*
X3580000Y-33291250D01*
D10*
X2980000Y-32691250D02*
X2980000Y-33291250D01*
D10*
X8245000Y-19695000D02*
X8245000Y-20094999D01*
D10*
X645000Y-20094999D02*
X645000Y-19695000D01*
D10*
X8245000Y-26895001D02*
X8245000Y-27295000D01*
D10*
X7845001Y-19695000D02*
X8245000Y-19695000D01*
D10*
X8245000Y-27295000D02*
X7845001Y-27295000D01*
D10*
X645000Y-27295000D02*
X645000Y-26895001D01*
D10*
X1044999Y-27295000D02*
X645000Y-27295000D01*
D10*
X645000Y-19695000D02*
X1044999Y-19695000D01*
D10*
X7845001Y-27295000D02*
X7845001Y-28520000D01*
D10*
X12760000Y-38055001D02*
X12760000Y-41954999D01*
D10*
X7560000Y-37905000D02*
X7660000Y-37905000D01*
D10*
X9360000Y-46025000D02*
X10960000Y-46025000D01*
D10*
X7660000Y-37905000D02*
X7660000Y-36605000D01*
D10*
X1105000Y-49517500D02*
X2705000Y-49517500D01*
D10*
X7560000Y-37905000D02*
X7560000Y-41955000D01*
D10*
X8560000Y-49225000D02*
X10960000Y-49225000D01*
D10*
X305000Y-52717500D02*
X2705000Y-52717500D01*
G75*
M02*
