%FSLAX46Y46*%
%MOMM*%
%AMPS19*
21,1,1.400000,1.200000,0.000000,0.000000,180.000000*
%
%ADD19PS19*%
%AMPS16*
21,1,0.800000,0.750000,0.000000,0.000000,360.000000*
%
%ADD16PS16*%
%AMPS17*
21,1,0.800000,0.750000,0.000000,0.000000,270.000000*
%
%ADD17PS17*%
%AMPS15*
21,1,0.800000,0.750000,0.000000,0.000000,180.000000*
%
%ADD15PS15*%
%AMPS12*
21,1,0.800000,0.750000,0.000000,0.000000,90.000000*
%
%ADD12PS12*%
%AMPS14*
21,1,0.600000,1.500000,0.000000,0.000000,360.000000*
%
%ADD14PS14*%
%AMPS13*
21,1,0.600000,1.500000,0.000000,0.000000,180.000000*
%
%ADD13PS13*%
%AMPS11*
21,1,0.700000,1.000000,0.000000,0.000000,270.000000*
%
%ADD11PS11*%
%AMPS18*
21,1,0.500000,0.900000,0.000000,0.000000,270.000000*
%
%ADD18PS18*%
%AMPS10*
21,1,0.500000,0.900000,0.000000,0.000000,90.000000*
%
%ADD10PS10*%
%AMPS23*
1,1,0.100000,0.100000,-0.725000*
1,1,0.100000,0.100000,0.725000*
21,1,0.300000,1.450000,0.000000,0.000000,360.000000*
21,1,0.200000,1.550000,0.000000,0.000000,360.000000*
1,1,0.100000,-0.100000,-0.725000*
1,1,0.100000,-0.100000,0.725000*
%
%ADD23PS23*%
%AMPS21*
1,1,0.100000,-0.725000,-0.100000*
1,1,0.100000,0.725000,-0.100000*
21,1,0.300000,1.450000,0.000000,0.000000,270.000000*
21,1,0.200000,1.550000,0.000000,0.000000,270.000000*
1,1,0.100000,-0.725000,0.100000*
1,1,0.100000,0.725000,0.100000*
%
%ADD21PS21*%
%AMPS22*
1,1,0.100000,-0.100000,0.725000*
1,1,0.100000,-0.100000,-0.725000*
21,1,0.300000,1.450000,0.000000,0.000000,180.000000*
21,1,0.200000,1.550000,0.000000,0.000000,180.000000*
1,1,0.100000,0.100000,0.725000*
1,1,0.100000,0.100000,-0.725000*
%
%ADD22PS22*%
%AMPS20*
1,1,0.100000,0.725000,0.100000*
1,1,0.100000,-0.725000,0.100000*
21,1,0.300000,1.450000,0.000000,0.000000,90.000000*
21,1,0.200000,1.550000,0.000000,0.000000,90.000000*
1,1,0.100000,0.725000,-0.100000*
1,1,0.100000,-0.725000,-0.100000*
%
%ADD20PS20*%
G01*
G01*
%LPD*%
G75*
D10*
X10795000Y-9410000D03*
D10*
X10795000Y-10910000D03*
D11*
X11360000Y-48575000D03*
D11*
X8960000Y-47625000D03*
D11*
X11360000Y-46675000D03*
D11*
X8960000Y-48575000D03*
D11*
X11360000Y-47625000D03*
D11*
X8960000Y-46675000D03*
D12*
X-2063750Y-21705000D03*
D12*
X-2063750Y-20205000D03*
D12*
X6667500Y-42977500D03*
D12*
X6667500Y-41477500D03*
D13*
X9525000Y-37305000D03*
D13*
X12065000Y-37305000D03*
D14*
X9525000Y-42705000D03*
D13*
X8255000Y-37305000D03*
D13*
X10795000Y-37305000D03*
D14*
X12065000Y-42705000D03*
D14*
X10795000Y-42705000D03*
D14*
X8255000Y-42705000D03*
D15*
X10910000Y-27940000D03*
D15*
X9410000Y-27940000D03*
D16*
X7505000Y-52070000D03*
D16*
X9005000Y-52070000D03*
D15*
X9005000Y-50323750D03*
D15*
X7505000Y-50323750D03*
D17*
X9048750Y-17030000D03*
D17*
X9048750Y-18530000D03*
D10*
X5080000Y-5600000D03*
D10*
X5080000Y-7100000D03*
D16*
X-2655000Y-46672500D03*
D16*
X-1155000Y-46672500D03*
D18*
X8890000Y-7100000D03*
D18*
X8890000Y-5600000D03*
D18*
X6985000Y-7100000D03*
D18*
X6985000Y-5600000D03*
D10*
X5080000Y-49732500D03*
D10*
X5080000Y-51232500D03*
D18*
X12700000Y-7100000D03*
D18*
X12700000Y-5600000D03*
D11*
X705000Y-51117500D03*
D11*
X3105000Y-50167500D03*
D11*
X705000Y-52067500D03*
D11*
X3105000Y-52067500D03*
D11*
X705000Y-50167500D03*
D10*
X10795000Y-5600000D03*
D10*
X10795000Y-7100000D03*
D12*
X12700000Y-10910000D03*
D12*
X12700000Y-9410000D03*
D17*
X2381250Y-30841250D03*
D17*
X2381250Y-32341250D03*
D12*
X635000Y-31388750D03*
D12*
X635000Y-29888750D03*
D12*
X7778750Y-32341250D03*
D12*
X7778750Y-30841250D03*
D10*
X3175000Y-5600000D03*
D10*
X3175000Y-7100000D03*
D12*
X0Y-7100000D03*
D12*
X0Y-5600000D03*
D18*
X-1905000Y-10275000D03*
D18*
X-1905000Y-8775000D03*
D18*
X-1905000Y-7100000D03*
D18*
X-1905000Y-5600000D03*
D19*
X6180000Y-32391250D03*
D19*
X3980000Y-32391250D03*
D19*
X3980000Y-30791250D03*
D19*
X6180000Y-30791250D03*
D18*
X-2063750Y-24880000D03*
D18*
X-2063750Y-23380000D03*
D18*
X-2063750Y-28055000D03*
D18*
X-2063750Y-26555000D03*
D15*
X10910000Y-34925000D03*
D15*
X9410000Y-34925000D03*
D20*
X8645000Y-25245000D03*
D21*
X245000Y-24745000D03*
D20*
X8645000Y-21245000D03*
D22*
X5195000Y-19295000D03*
D20*
X8645000Y-22245000D03*
D21*
X245000Y-23245000D03*
D23*
X3195000Y-27695000D03*
D20*
X8645000Y-21745000D03*
D23*
X6695000Y-27695000D03*
D21*
X245000Y-25745000D03*
D22*
X7195000Y-19295000D03*
D23*
X5195000Y-27695000D03*
D20*
X8645000Y-23745000D03*
D21*
X245000Y-20745000D03*
D23*
X2695000Y-27695000D03*
D22*
X4195000Y-19295000D03*
D21*
X245000Y-26245000D03*
D23*
X4195000Y-27695000D03*
D22*
X4695000Y-19295000D03*
D21*
X245000Y-22245000D03*
D21*
X245000Y-21745000D03*
D22*
X6195000Y-19295000D03*
D21*
X245000Y-25245000D03*
D23*
X6195000Y-27695000D03*
D20*
X8645000Y-25745000D03*
D20*
X8645000Y-20745000D03*
D23*
X5695000Y-27695000D03*
D21*
X245000Y-24245000D03*
D23*
X2195000Y-27695000D03*
D20*
X8645000Y-24245000D03*
D23*
X3695000Y-27695000D03*
D21*
X245000Y-22745000D03*
D20*
X8645000Y-22745000D03*
D22*
X6695000Y-19295000D03*
D20*
X8645000Y-26245000D03*
D22*
X1695000Y-19295000D03*
D22*
X5695000Y-19295000D03*
D22*
X2195000Y-19295000D03*
D21*
X245000Y-23745000D03*
D20*
X8645000Y-24745000D03*
D20*
X8645000Y-23245000D03*
D22*
X2695000Y-19295000D03*
D23*
X4695000Y-27695000D03*
D22*
X3695000Y-19295000D03*
D22*
X3195000Y-19295000D03*
D23*
X7195000Y-27695000D03*
D21*
X245000Y-21245000D03*
D23*
X1695000Y-27695000D03*
M02*
