%FSLAX46Y46*%
%MOMM*%
%ADD11C,0.150000*%
%ADD10C,0.300000*%
%AMPS14*
1,1,1.700000,0.000000,0.000000*
%
%ADD14PS14*%
%AMPS16*
1,1,1.400000,0.000000,0.000000*
%
%ADD16PS16*%
%AMPS23*
21,1,1.400000,1.200000,0.000000,0.000000,180.000000*
%
%ADD23PS23*%
%AMPS20*
21,1,0.800000,0.750000,0.000000,0.000000,360.000000*
%
%ADD20PS20*%
%AMPS21*
21,1,0.800000,0.750000,0.000000,0.000000,270.000000*
%
%ADD21PS21*%
%AMPS19*
21,1,0.800000,0.750000,0.000000,0.000000,180.000000*
%
%ADD19PS19*%
%AMPS15*
21,1,0.800000,0.750000,0.000000,0.000000,90.000000*
%
%ADD15PS15*%
%AMPS18*
21,1,0.600000,1.500000,0.000000,0.000000,360.000000*
%
%ADD18PS18*%
%AMPS17*
21,1,0.600000,1.500000,0.000000,0.000000,180.000000*
%
%ADD17PS17*%
%AMPS13*
21,1,0.700000,1.000000,0.000000,0.000000,270.000000*
%
%ADD13PS13*%
%AMPS22*
21,1,0.500000,0.900000,0.000000,0.000000,270.000000*
%
%ADD22PS22*%
%AMPS12*
21,1,0.500000,0.900000,0.000000,0.000000,90.000000*
%
%ADD12PS12*%
%AMPS28*
1,1,0.400000,0.000000,0.000000*
%
%ADD28PS28*%
%AMPS27*
1,1,0.100000,-0.100000,-0.725000*
1,1,0.100000,0.100000,0.725000*
1,1,0.100000,-0.100000,0.725000*
21,1,0.300000,1.450000,0.000000,0.000000,360.000000*
21,1,0.200000,1.550000,0.000000,0.000000,360.000000*
1,1,0.100000,0.100000,-0.725000*
%
%ADD27PS27*%
%AMPS25*
1,1,0.100000,-0.725000,0.100000*
1,1,0.100000,0.725000,-0.100000*
1,1,0.100000,0.725000,0.100000*
21,1,0.300000,1.450000,0.000000,0.000000,270.000000*
21,1,0.200000,1.550000,0.000000,0.000000,270.000000*
1,1,0.100000,-0.725000,-0.100000*
%
%ADD25PS25*%
%AMPS26*
1,1,0.100000,0.100000,0.725000*
1,1,0.100000,-0.100000,-0.725000*
1,1,0.100000,0.100000,-0.725000*
21,1,0.300000,1.450000,0.000000,0.000000,180.000000*
21,1,0.200000,1.550000,0.000000,0.000000,180.000000*
1,1,0.100000,-0.100000,0.725000*
%
%ADD26PS26*%
%AMPS24*
1,1,0.100000,0.725000,-0.100000*
1,1,0.100000,-0.725000,0.100000*
1,1,0.100000,-0.725000,-0.100000*
21,1,0.300000,1.450000,0.000000,0.000000,90.000000*
21,1,0.200000,1.550000,0.000000,0.000000,90.000000*
1,1,0.100000,0.725000,0.100000*
%
%ADD24PS24*%
G01*
%LPD*%
G36*
X8472500Y-33496250D02*
X8511504Y-33488330D01*
X8544329Y-33465825D01*
X8565777Y-33432298D01*
X8572500Y-33396250D01*
X8572500Y-29786250D01*
X8564580Y-29747246D01*
X8542075Y-29714421D01*
X8508548Y-29692973D01*
X8472500Y-29686250D01*
X5883801Y-29686250D01*
X5875147Y-29684493D01*
X5873750Y-29677004D01*
X5873750Y-28833750D01*
X5865830Y-28794746D01*
X5843325Y-28761921D01*
X5809798Y-28740473D01*
X5773750Y-28733750D01*
X5325010Y-28733750D01*
X5286006Y-28741670D01*
X5253181Y-28764175D01*
X5231733Y-28797702D01*
X5225010Y-28833750D01*
X5225010Y-29991250D01*
X5232930Y-30030254D01*
X5255435Y-30063079D01*
X5288962Y-30084527D01*
X5325010Y-30091250D01*
X6075000Y-30091250D01*
X6075000Y-30796250D01*
X6082920Y-30835254D01*
X6105425Y-30868079D01*
X6138952Y-30889527D01*
X6175000Y-30896250D01*
X6980000Y-30896250D01*
X6980000Y-31510262D01*
X6963353Y-31521675D01*
X6941905Y-31555202D01*
X6935233Y-31594438D01*
X6944392Y-31633169D01*
X6971257Y-31668150D01*
X6992627Y-31685914D01*
X7015235Y-31717141D01*
X7029390Y-31752998D01*
X7035000Y-31797527D01*
X7035000Y-32011250D01*
X7042920Y-32050254D01*
X7065425Y-32083079D01*
X7098952Y-32104527D01*
X7135000Y-32111250D01*
X7148750Y-32111250D01*
X7187754Y-32103330D01*
X7220579Y-32080825D01*
X7242027Y-32047298D01*
X7248750Y-32011250D01*
X7248750Y-31949202D01*
X7257978Y-31891565D01*
X7273768Y-31858271D01*
X7298414Y-31828623D01*
X7329641Y-31806015D01*
X7365498Y-31791860D01*
X7410027Y-31786250D01*
X8145798Y-31786250D01*
X8203435Y-31795478D01*
X8236729Y-31811268D01*
X8266377Y-31835914D01*
X8288985Y-31867141D01*
X8303140Y-31902998D01*
X8308750Y-31947527D01*
X8308750Y-32733298D01*
X8299522Y-32790935D01*
X8283732Y-32824229D01*
X8259086Y-32853877D01*
X8227859Y-32876485D01*
X8192002Y-32890640D01*
X8147473Y-32896250D01*
X7411702Y-32896250D01*
X7354065Y-32887022D01*
X7320771Y-32871232D01*
X7291123Y-32846586D01*
X7268515Y-32815359D01*
X7254360Y-32779502D01*
X7248750Y-32734973D01*
X7248750Y-32671250D01*
X7240830Y-32632246D01*
X7218325Y-32599421D01*
X7184798Y-32577973D01*
X7148750Y-32571250D01*
X7135000Y-32571250D01*
X7095996Y-32579170D01*
X7063171Y-32601675D01*
X7041723Y-32635202D01*
X7035000Y-32671250D01*
X7035000Y-32983298D01*
X7025772Y-33040935D01*
X7009982Y-33074229D01*
X6985336Y-33103877D01*
X6954109Y-33126485D01*
X6918252Y-33140640D01*
X6873723Y-33146250D01*
X5487952Y-33146250D01*
X5430315Y-33137022D01*
X5397021Y-33121232D01*
X5367373Y-33096586D01*
X5344765Y-33065359D01*
X5330610Y-33029502D01*
X5325000Y-32984973D01*
X5325000Y-32044190D01*
X5317080Y-32005186D01*
X5295711Y-31973479D01*
X4950711Y-31628479D01*
X4917531Y-31606500D01*
X4878406Y-31599203D01*
X4839534Y-31607743D01*
X4807071Y-31630769D01*
X4786161Y-31664633D01*
X4780000Y-31699190D01*
X4780000Y-32286250D01*
X3180000Y-32286250D01*
X3180000Y-31672238D01*
X3196647Y-31660825D01*
X3218095Y-31627298D01*
X3224767Y-31588062D01*
X3215608Y-31549331D01*
X3188743Y-31514350D01*
X3167373Y-31496586D01*
X3144765Y-31465359D01*
X3130610Y-31429502D01*
X3125000Y-31384973D01*
X3125000Y-31171250D01*
X3117080Y-31132246D01*
X3094575Y-31099421D01*
X3061048Y-31077973D01*
X3025000Y-31071250D01*
X3011250Y-31071250D01*
X2972246Y-31079170D01*
X2939421Y-31101675D01*
X2917973Y-31135202D01*
X2911250Y-31171250D01*
X2911250Y-31233298D01*
X2902022Y-31290935D01*
X2886232Y-31324229D01*
X2861586Y-31353877D01*
X2830359Y-31376485D01*
X2794502Y-31390640D01*
X2749973Y-31396250D01*
X2014202Y-31396250D01*
X1956565Y-31387022D01*
X1923271Y-31371232D01*
X1893623Y-31346586D01*
X1871015Y-31315359D01*
X1856860Y-31279502D01*
X1851250Y-31234973D01*
X1851250Y-30449202D01*
X1860478Y-30391565D01*
X1876268Y-30358271D01*
X1900914Y-30328623D01*
X1932141Y-30306015D01*
X1967998Y-30291860D01*
X2012527Y-30286250D01*
X2748298Y-30286250D01*
X2805935Y-30295478D01*
X2839229Y-30311268D01*
X2868877Y-30335914D01*
X2891485Y-30367141D01*
X2905640Y-30402998D01*
X2911250Y-30447527D01*
X2911250Y-30511250D01*
X2919170Y-30550254D01*
X2941675Y-30583079D01*
X2975202Y-30604527D01*
X3011250Y-30611250D01*
X3025000Y-30611250D01*
X3064004Y-30603330D01*
X3096829Y-30580825D01*
X3118277Y-30547298D01*
X3125000Y-30511250D01*
X3125000Y-30199202D01*
X3134228Y-30141565D01*
X3150018Y-30108271D01*
X3174664Y-30078623D01*
X3205891Y-30056015D01*
X3241748Y-30041860D01*
X3286277Y-30036250D01*
X4363310Y-30036250D01*
X4402314Y-30028330D01*
X4434021Y-30006961D01*
X4435711Y-30005271D01*
X4457690Y-29972091D01*
X4465000Y-29934560D01*
X4465000Y-28833750D01*
X4457080Y-28794746D01*
X4434575Y-28761921D01*
X4401048Y-28740473D01*
X4365000Y-28733750D01*
X3910000Y-28733750D01*
X3870996Y-28741670D01*
X3838171Y-28764175D01*
X3816723Y-28797702D01*
X3810000Y-28833750D01*
X3810000Y-29676199D01*
X3808243Y-29684853D01*
X3800754Y-29686250D01*
X1687500Y-29686250D01*
X1648496Y-29694170D01*
X1615671Y-29716675D01*
X1594223Y-29750202D01*
X1587500Y-29786250D01*
X1587500Y-33396250D01*
X1595420Y-33435254D01*
X1617925Y-33468079D01*
X1651452Y-33489527D01*
X1687500Y-33496250D01*
X8472500Y-33496250D01*
D02*
G37*
%LPC*%
G36*
X6980000Y-30686250D02*
X6285000Y-30686250D01*
X6285000Y-30091250D01*
X6980000Y-30091250D01*
X6980000Y-30686250D01*
D02*
G37*
%LPC*%
G36*
X8253750Y-30736250D02*
X7883750Y-30736250D01*
X7883750Y-30341250D01*
X8253750Y-30341250D01*
X8253750Y-30736250D01*
D02*
G37*
%LPC*%
G36*
X7673750Y-30736250D02*
X7303750Y-30736250D01*
X7303750Y-30341250D01*
X7673750Y-30341250D01*
X7673750Y-30736250D01*
D02*
G37*
%LPC*%
G36*
X8253750Y-31341250D02*
X7883750Y-31341250D01*
X7883750Y-30946250D01*
X8253750Y-30946250D01*
X8253750Y-31341250D01*
D02*
G37*
%LPC*%
G36*
X7673750Y-31341250D02*
X7303750Y-31341250D01*
X7303750Y-30946250D01*
X7673750Y-30946250D01*
X7673750Y-31341250D01*
D02*
G37*
%LPC*%
G36*
X2856250Y-32236250D02*
X2486250Y-32236250D01*
X2486250Y-31841250D01*
X2856250Y-31841250D01*
X2856250Y-32236250D01*
D02*
G37*
%LPC*%
G36*
X2276250Y-32236250D02*
X1906250Y-32236250D01*
X1906250Y-31841250D01*
X2276250Y-31841250D01*
X2276250Y-32236250D01*
D02*
G37*
%LPC*%
G36*
X2856250Y-32841250D02*
X2486250Y-32841250D01*
X2486250Y-32446250D01*
X2856250Y-32446250D01*
X2856250Y-32841250D01*
D02*
G37*
%LPC*%
G36*
X2276250Y-32841250D02*
X1906250Y-32841250D01*
X1906250Y-32446250D01*
X2276250Y-32446250D01*
X2276250Y-32841250D01*
D02*
G37*
%LPC*%
G36*
X4780000Y-33091250D02*
X4085000Y-33091250D01*
X4085000Y-32496250D01*
X4780000Y-32496250D01*
X4780000Y-33091250D01*
D02*
G37*
%LPC*%
G36*
X3875000Y-33091250D02*
X3180000Y-33091250D01*
X3180000Y-32496250D01*
X3875000Y-32496250D01*
X3875000Y-33091250D01*
D02*
G37*
G01*
%LPD*%
D10*
X-1603750Y-21245000D02*
X-2063750Y-21705000D01*
D11*
X3016250Y-51117500D02*
X3492500Y-51117500D01*
D11*
X6195000Y-19295000D02*
X6195000Y-17776250D01*
D10*
X-2063750Y-21705000D02*
X-2063750Y-22542500D01*
D10*
X8960000Y-47625000D02*
X6508750Y-47625000D01*
D10*
X7502500Y-52067500D02*
X7505000Y-52070000D01*
D11*
X10795000Y-7100000D02*
X10795000Y-7937500D01*
D11*
X-2540000Y-28416250D02*
X-2540000Y-33178750D01*
D11*
X8645000Y-20745000D02*
X10001250Y-19388750D01*
D11*
X9525000Y-43656250D02*
X10001250Y-44132500D01*
D11*
X3951261Y-4586261D02*
X4965000Y-5600000D01*
D10*
X245000Y-21245000D02*
X-1603750Y-21245000D01*
D10*
X2658740Y-29051250D02*
X1472500Y-29051250D01*
D10*
X-3564990Y-34669436D02*
X-3564990Y-44262510D01*
D10*
X5080000Y-51232500D02*
X5080000Y-52067500D01*
D11*
X705000Y-50167500D02*
X637500Y-50167500D01*
D10*
X6667500Y-42977500D02*
X7982500Y-42977500D01*
D11*
X6367490Y-8731250D02*
X5414990Y-7778750D01*
D11*
X10001250Y-16510000D02*
X8890000Y-15398750D01*
D11*
X6038750Y-32391250D02*
X6180000Y-32391250D01*
D11*
X245000Y-23245000D02*
X-861250Y-23245000D01*
D10*
X7195000Y-19295000D02*
X8283750Y-19295000D01*
D10*
X3695000Y-27695000D02*
X3695000Y-26713750D01*
D11*
X8960000Y-48575000D02*
X8353740Y-48575000D01*
D10*
X4127500Y-39846250D02*
X2872022Y-39846250D01*
D10*
X9366250Y-30638750D02*
X9366250Y-27983750D01*
D10*
X-2655000Y-46672500D02*
X-2655000Y-46875000D01*
D10*
X12065000Y-42705000D02*
X12065000Y-41655000D01*
D10*
X7505000Y-50323750D02*
X7461250Y-50323750D01*
D10*
X13469986Y-52728764D02*
X12928765Y-53269985D01*
D11*
X12700000Y-2540000D02*
X12700000Y-5600000D01*
D10*
X-3564990Y-3564990D02*
X-3564990Y-17400564D01*
D11*
X245000Y-22745000D02*
X-1155000Y-22745000D01*
D11*
X3016250Y-45350528D02*
X3016250Y-47307500D01*
D11*
X6353415Y-48000009D02*
X4863740Y-46510334D01*
D11*
X-952500Y-6552500D02*
X0Y-5600000D01*
D11*
X8890000Y1270000D02*
X10160000Y0D01*
D11*
X-3189979Y-43482521D02*
X-3189979Y-34514102D01*
D11*
X5195000Y-28408924D02*
X4995010Y-28608914D01*
D11*
X10001250Y-47521252D02*
X11054998Y-48575000D01*
D11*
X12065000Y-38205000D02*
X11076239Y-39193761D01*
D11*
X-1093760Y-35049268D02*
X-1093759Y-41240519D01*
D10*
X9400002Y-47625000D02*
X9760001Y-47984999D01*
D10*
X11800002Y-47625000D02*
X12160001Y-47984999D01*
D10*
X7461250Y-50323750D02*
X6826250Y-50958750D01*
D11*
X4863740Y-41112834D02*
X3972166Y-40221260D01*
D10*
X8645000Y-26245000D02*
X8645000Y-27175000D01*
D11*
X6667500Y-24447500D02*
X6667500Y-23812500D01*
D11*
X-1790000Y-26555000D02*
X-2063750Y-26555000D01*
D11*
X11430000Y-1270000D02*
X11430000Y-5080000D01*
D11*
X4695000Y-17636778D02*
X6667501Y-15664278D01*
D11*
X3651250Y-4603750D02*
X3651250Y317500D01*
D11*
X2540000Y-2540000D02*
X1270000Y-1270000D01*
D11*
X-793750Y-41116250D02*
X3441251Y-45351251D01*
D11*
X12700000Y-7100000D02*
X12700000Y-9410000D01*
D10*
X1472500Y-29051250D02*
X635000Y-29888750D01*
D10*
X9760001Y-47984999D02*
X9760001Y-49568749D01*
D11*
X4995010Y-31347510D02*
X6038750Y-32391250D01*
D11*
X8255000Y-37305000D02*
X8255000Y-38576250D01*
D10*
X8125000Y-27695000D02*
X8645000Y-27175000D01*
D10*
X10910000Y-28777500D02*
X10795000Y-28892500D01*
D10*
X-5772511Y-19608085D02*
X-5772511Y-32461915D01*
D11*
X10301260Y-44149990D02*
X10301260Y-46496260D01*
D11*
X3175000Y-5600000D02*
X3175000Y-5080000D01*
D11*
X12700000Y-8362500D02*
X12700000Y-9410000D01*
D10*
X3195000Y-28514990D02*
X2658740Y-29051250D01*
D11*
X10795000Y-43656250D02*
X10301260Y-44149990D01*
D11*
X8645000Y-24245000D02*
X7295000Y-24245000D01*
D10*
X11360000Y-47625000D02*
X11800002Y-47625000D01*
D11*
X9525000Y-42705000D02*
X9525000Y-43656250D01*
D11*
X-2178750Y-28055000D02*
X-2540000Y-28416250D01*
D11*
X4863740Y-46510334D02*
X4863740Y-41112834D01*
D11*
X4995010Y-28608914D02*
X4995010Y-31347510D01*
D11*
X6667501Y-15664278D02*
X6667501Y-8572501D01*
D10*
X6695000Y-19295000D02*
X6695000Y-18475010D01*
D11*
X-2840009Y-33303019D02*
X-1093760Y-35049268D01*
D10*
X6695000Y-18475010D02*
X8140010Y-17030000D01*
D11*
X6230000Y-32341250D02*
X6180000Y-32391250D01*
D10*
X9366250Y-27983750D02*
X9410000Y-27940000D01*
D11*
X1270000Y-1270000D02*
X-476250Y-1270000D01*
D11*
X3968750Y-7778750D02*
X3290000Y-7100000D01*
D10*
X-3564990Y-17400564D02*
X-5772511Y-19608085D01*
D10*
X3105000Y-52067500D02*
X5080000Y-52067500D01*
D11*
X3930000Y-30841250D02*
X3980000Y-30791250D01*
D10*
X635000Y-29952500D02*
X-51250Y-30638750D01*
D11*
X3972166Y-40221260D02*
X851260Y-40221260D01*
D11*
X8572500Y-8572500D02*
X7100000Y-7100000D01*
D11*
X10001250Y-19388750D02*
X10001250Y-16510000D01*
D10*
X13469986Y-35401249D02*
X13469986Y-52728764D01*
D10*
X9048750Y-18530000D02*
X8528750Y-18530000D01*
D11*
X562500Y-27695000D02*
X1695000Y-27695000D01*
D11*
X4877500Y-49732500D02*
X5080000Y-49732500D01*
D11*
X11054998Y-48575000D02*
X11360000Y-48575000D01*
D10*
X-2063750Y-20205000D02*
X-2063750Y-20161250D01*
D10*
X-1155000Y-52591235D02*
X-476250Y-53269985D01*
D11*
X-476250Y-32543750D02*
X-476250Y-28733750D01*
D10*
X10795000Y-10910000D02*
X12700000Y-10910000D01*
D10*
X6508750Y-47625000D02*
X5238750Y-46355000D01*
D11*
X10910000Y-5600000D02*
X10795000Y-5600000D01*
D10*
X6667500Y-42977500D02*
X6667500Y-44291250D01*
D11*
X7778750Y-32341250D02*
X6230000Y-32341250D01*
D11*
X11430000Y-5080000D02*
X10910000Y-5600000D01*
D11*
X2381250Y-30841250D02*
X3930000Y-30841250D01*
D11*
X10480000Y-46675000D02*
X11360000Y-46675000D01*
D10*
X10795000Y-10910000D02*
X10795000Y-11747500D01*
D11*
X7677510Y-47249990D02*
X8252500Y-46675000D01*
D11*
X-2540000Y-33178750D02*
X-793750Y-34925000D01*
D10*
X-2655000Y-46672500D02*
X-3651250Y-46672500D01*
D11*
X8572500Y-15398750D02*
X8572500Y-8572500D01*
D11*
X4695000Y-30071250D02*
X4695000Y-27695000D01*
D11*
X7295000Y-24245000D02*
X7092500Y-24447500D01*
D11*
X7620000Y0D02*
X6350000Y-1270000D01*
D11*
X-776261Y-28557511D02*
X245000Y-27536250D01*
D10*
X8528750Y-18530000D02*
X8096250Y-18097500D01*
D11*
X10795000Y-42705000D02*
X10795000Y-43656250D01*
D11*
X851260Y-40221260D02*
X635000Y-40005000D01*
D11*
X-2178750Y-24880000D02*
X-2840010Y-25541260D01*
D11*
X-776261Y-32668018D02*
X-776261Y-28557511D01*
D11*
X-1905000Y-2698750D02*
X-1905000Y-5600000D01*
D10*
X7461250Y-50323750D02*
X6826250Y-49688750D01*
D11*
X-3189979Y-34514102D02*
X-5397500Y-32306581D01*
D11*
X4195000Y-27695000D02*
X4195000Y-26920000D01*
D11*
X7620000Y-2540000D02*
X7620000Y-4445000D01*
D11*
X-317500Y-49212500D02*
X-317500Y-46355000D01*
D11*
X245000Y-25745000D02*
X245000Y-26245000D01*
D11*
X6664084Y-47249990D02*
X7677510Y-47249990D01*
D10*
X10910000Y-27190010D02*
X10910000Y-27940000D01*
D11*
X12065000Y-37305000D02*
X12065000Y-38205000D01*
D10*
X9760001Y-49568749D02*
X9005000Y-50323750D01*
D10*
X8645000Y-25745000D02*
X9464990Y-25745000D01*
D11*
X7778750Y-48000010D02*
X6353415Y-48000009D01*
D11*
X4965000Y-5600000D02*
X5080000Y-5600000D01*
D11*
X6367490Y-15540010D02*
X6367490Y-8731250D01*
D11*
X3980000Y-30786250D02*
X4695000Y-30071250D01*
D11*
X-3189979Y-10059979D02*
X-1905000Y-8775000D01*
D10*
X-2063750Y-20161250D02*
X-1428750Y-19526250D01*
D11*
X3290000Y-7100000D02*
X3175000Y-7100000D01*
D11*
X3546594Y-38735000D02*
X5613760Y-40802166D01*
D10*
X5080000Y-52067500D02*
X7502500Y-52067500D01*
D11*
X5613760Y-46199666D02*
X6664084Y-47249990D01*
D11*
X-1270000Y-23653750D02*
X-1270000Y-26035000D01*
D11*
X4695000Y-19295000D02*
X4695000Y-17636778D01*
D10*
X11887500Y-41477500D02*
X6667500Y-41477500D01*
D10*
X705000Y-53199985D02*
X635000Y-53269985D01*
D11*
X4195000Y-19295000D02*
X4195000Y-17712500D01*
D10*
X8960000Y-47625000D02*
X9400002Y-47625000D01*
D10*
X1907485Y-53269985D02*
X635000Y-53269985D01*
D11*
X6350000Y-1270000D02*
X4445000Y-1270000D01*
D10*
X10910000Y-34925000D02*
X12993737Y-34925000D01*
D10*
X2872022Y-39846250D02*
X635000Y-37609228D01*
D11*
X6667501Y-8572501D02*
X5195000Y-7100000D01*
D11*
X-1790000Y-23380000D02*
X-2063750Y-23380000D01*
D11*
X-861250Y-23245000D02*
X-1270000Y-23653750D01*
D10*
X9525000Y-35040000D02*
X9410000Y-34925000D01*
D10*
X2540000Y0D02*
X0Y0D01*
D11*
X5414990Y-7778750D02*
X3968750Y-7778750D01*
D10*
X10910000Y-27940000D02*
X10910000Y-28777500D01*
D11*
X3441251Y-45351251D02*
X3441251Y-48787499D01*
D11*
X-2063750Y-24880000D02*
X-2178750Y-24880000D01*
D11*
X6870000Y-5600000D02*
X6985000Y-5600000D01*
D10*
X7195000Y-27695000D02*
X8125000Y-27695000D01*
D11*
X-793750Y-34925000D02*
X-793750Y-41116250D01*
D10*
X7982500Y-42977500D02*
X8255000Y-42705000D01*
D10*
X8140010Y-17030000D02*
X9048750Y-17030000D01*
D10*
X635000Y-29888750D02*
X635000Y-29952500D01*
D11*
X7100000Y-7100000D02*
X6985000Y-7100000D01*
D10*
X12993737Y-34925000D02*
X13469986Y-35401249D01*
D11*
X637500Y-50167500D02*
X-317500Y-49212500D01*
D10*
X-1155000Y-46672500D02*
X-1155000Y-52591235D01*
D11*
X-5397500Y-19763419D02*
X-3189979Y-17555898D01*
D10*
X5238750Y-46355000D02*
X5238750Y-40957500D01*
D11*
X8255000Y-38576250D02*
X7937500Y-38893750D01*
D10*
X0Y-7100000D02*
X0Y-8096250D01*
D11*
X10795000Y-7937500D02*
X10795000Y-9410000D01*
D10*
X12065000Y-41655000D02*
X11887500Y-41477500D01*
D11*
X6195000Y-17776250D02*
X8572500Y-15398750D01*
D10*
X245000Y-20745000D02*
X-1523750Y-20745000D01*
D11*
X5080000Y-2540000D02*
X5080000Y-3810000D01*
D10*
X12160001Y-49614999D02*
X9705000Y-52070000D01*
D11*
X3980000Y-30791250D02*
X3980000Y-30786250D01*
D11*
X10001250Y-44132500D02*
X10001250Y-47521252D01*
D10*
X10953750Y-47625000D02*
X10477510Y-47148760D01*
D11*
X3951261Y-1763739D02*
X3951261Y-4586261D01*
D10*
X43750Y-5600000D02*
X793750Y-6350000D01*
D11*
X4195000Y-17712500D02*
X6367490Y-15540010D01*
D11*
X8890000Y-15398750D02*
X8890000Y-7100000D01*
D11*
X-1093759Y-41240519D02*
X3016250Y-45350528D01*
D11*
X3175000Y-5080000D02*
X3651250Y-4603750D01*
D11*
X-1270000Y-26035000D02*
X-1790000Y-26555000D01*
D10*
X0Y-5600000D02*
X43750Y-5600000D01*
D11*
X-3189979Y-17555898D02*
X-3189979Y-10059979D01*
D10*
X9525000Y-37305000D02*
X9525000Y-35040000D01*
D10*
X8645000Y-27175000D02*
X9410000Y-27940000D01*
D10*
X-476250Y-53269985D02*
X635000Y-53269985D01*
D11*
X4195000Y-26920000D02*
X6667500Y-24447500D01*
D10*
X635000Y-31388750D02*
X635000Y-32385000D01*
D11*
X-2063750Y-28055000D02*
X-2178750Y-28055000D01*
D10*
X9410000Y-34925000D02*
X8572500Y-34925000D01*
D11*
X-476250Y-28733750D02*
X562500Y-27695000D01*
D11*
X7620000Y-4445000D02*
X8775000Y-5600000D01*
D10*
X0Y0D02*
X-3564990Y-3564990D01*
D11*
X4603750Y1270000D02*
X8890000Y1270000D01*
D10*
X12160001Y-47984999D02*
X12160001Y-49614999D01*
D10*
X3195000Y-27695000D02*
X3195000Y-28514990D01*
D10*
X-3564990Y-44262510D02*
X-1155000Y-46672500D01*
D11*
X3492500Y-51117500D02*
X4877500Y-49732500D01*
D10*
X9048750Y-17030000D02*
X9048750Y-16192500D01*
D11*
X4445000Y-1270000D02*
X3951261Y-1763739D01*
D10*
X3695000Y-26713750D02*
X3333750Y-26352500D01*
D10*
X9705000Y-52070000D02*
X9005000Y-52070000D01*
D11*
X8252500Y-46675000D02*
X8960000Y-46675000D01*
D11*
X10301260Y-46496260D02*
X10480000Y-46675000D01*
D10*
X6667500Y-40481250D02*
X6667500Y-41477500D01*
D10*
X9464990Y-25745000D02*
X10910000Y-27190010D01*
D10*
X0Y-2540000D02*
X0Y-5600000D01*
D11*
X11076239Y-39193761D02*
X5749482Y-39193761D01*
D10*
X8283750Y-19295000D02*
X9048750Y-18530000D01*
D11*
X3175000Y-38735000D02*
X3546594Y-38735000D01*
D10*
X-5772511Y-32461915D02*
X-3564990Y-34669436D01*
D11*
X5195000Y-7100000D02*
X5080000Y-7100000D01*
D11*
X7937500Y-38893750D02*
X5873750Y-38893750D01*
D11*
X-317500Y-46355000D02*
X-3189979Y-43482521D01*
D10*
X12928765Y-53269985D02*
X1907485Y-53269985D01*
D11*
X5873750Y-38893750D02*
X-476250Y-32543750D01*
D10*
X705000Y-51117500D02*
X-158750Y-51117500D01*
D11*
X3651250Y317500D02*
X4603750Y1270000D01*
D11*
X5749482Y-39193761D02*
X-776261Y-32668018D01*
D10*
X705000Y-52067500D02*
X705000Y-53199985D01*
D11*
X-1905000Y-10275000D02*
X-952500Y-9322500D01*
D10*
X10795000Y-35040000D02*
X10910000Y-34925000D01*
D11*
X-1155000Y-22745000D02*
X-1790000Y-23380000D01*
D10*
X-1523750Y-20745000D02*
X-2063750Y-20205000D01*
D11*
X8775000Y-5600000D02*
X8890000Y-5600000D01*
D11*
X8353740Y-48575000D02*
X7778750Y-48000010D01*
D10*
X635000Y-37609228D02*
X635000Y-37465000D01*
D11*
X5613760Y-40802166D02*
X5613760Y-46199666D01*
D11*
X-952500Y-9322500D02*
X-952500Y-6552500D01*
D11*
X-2840010Y-25541260D02*
X-2840009Y-33303019D01*
D11*
X245000Y-27536250D02*
X245000Y-26245000D01*
D10*
X10795000Y-37305000D02*
X10795000Y-35040000D01*
D10*
X5238750Y-40957500D02*
X4127500Y-39846250D01*
D11*
X-5397500Y-32306581D02*
X-5397500Y-19763419D01*
D11*
X3441251Y-48787499D02*
X3016250Y-49212500D01*
D10*
X11360000Y-47625000D02*
X10953750Y-47625000D01*
D11*
X5195000Y-27695000D02*
X5195000Y-28408924D01*
D11*
X-476250Y-1270000D02*
X-1905000Y-2698750D01*
D11*
X-1905000Y-7100000D02*
X-1905000Y-8775000D01*
D11*
X5080000Y-3810000D02*
X6870000Y-5600000D01*
D11*
X12700000Y0D02*
X11430000Y-1270000D01*
G75*
D12*
X10795000Y-9410000D03*
D12*
X10795000Y-10910000D03*
D13*
X11360000Y-48575000D03*
D13*
X8960000Y-47625000D03*
D13*
X11360000Y-46675000D03*
D13*
X8960000Y-48575000D03*
D13*
X11360000Y-47625000D03*
D13*
X8960000Y-46675000D03*
D14*
X2540000Y0D03*
D14*
X7620000Y-2540000D03*
D14*
X10160000Y0D03*
D14*
X12700000Y0D03*
D14*
X0Y-2540000D03*
D14*
X0Y0D03*
D14*
X5080000Y-2540000D03*
D14*
X10160000Y-2540000D03*
D14*
X7620000Y0D03*
D14*
X12700000Y-2540000D03*
D14*
X2540000Y-2540000D03*
D14*
X5080000Y0D03*
D15*
X-2063750Y-21705000D03*
D15*
X-2063750Y-20205000D03*
D15*
X6667500Y-42977500D03*
D15*
X6667500Y-41477500D03*
D16*
X3175000Y-14605000D03*
D16*
X635000Y-10795000D03*
D16*
X3175000Y-12065000D03*
D16*
X635000Y-13335000D03*
D17*
X9525000Y-37305000D03*
D17*
X12065000Y-37305000D03*
D18*
X9525000Y-42705000D03*
D17*
X8255000Y-37305000D03*
D17*
X10795000Y-37305000D03*
D18*
X12065000Y-42705000D03*
D18*
X10795000Y-42705000D03*
D18*
X8255000Y-42705000D03*
D19*
X10910000Y-27940000D03*
D19*
X9410000Y-27940000D03*
D20*
X7505000Y-52070000D03*
D20*
X9005000Y-52070000D03*
D19*
X9005000Y-50323750D03*
D19*
X7505000Y-50323750D03*
D21*
X9048750Y-17030000D03*
D21*
X9048750Y-18530000D03*
D12*
X5080000Y-5600000D03*
D12*
X5080000Y-7100000D03*
D20*
X-2655000Y-46672500D03*
D20*
X-1155000Y-46672500D03*
D22*
X8890000Y-7100000D03*
D22*
X8890000Y-5600000D03*
D22*
X6985000Y-7100000D03*
D22*
X6985000Y-5600000D03*
D12*
X5080000Y-49732500D03*
D12*
X5080000Y-51232500D03*
D16*
X3175000Y-41275000D03*
D16*
X635000Y-37465000D03*
D16*
X3175000Y-38735000D03*
D16*
X635000Y-40005000D03*
D22*
X12700000Y-7100000D03*
D22*
X12700000Y-5600000D03*
D13*
X705000Y-51117500D03*
D13*
X3105000Y-50167500D03*
D13*
X705000Y-52067500D03*
D13*
X3105000Y-52067500D03*
D13*
X705000Y-50167500D03*
D12*
X10795000Y-5600000D03*
D12*
X10795000Y-7100000D03*
D15*
X12700000Y-10910000D03*
D15*
X12700000Y-9410000D03*
D21*
X2381250Y-30841250D03*
D21*
X2381250Y-32341250D03*
D15*
X635000Y-31388750D03*
D15*
X635000Y-29888750D03*
D15*
X7778750Y-32341250D03*
D15*
X7778750Y-30841250D03*
D12*
X3175000Y-5600000D03*
D12*
X3175000Y-7100000D03*
D15*
X0Y-7100000D03*
D15*
X0Y-5600000D03*
D22*
X-1905000Y-10275000D03*
D22*
X-1905000Y-8775000D03*
D22*
X-1905000Y-7100000D03*
D22*
X-1905000Y-5600000D03*
D23*
X6180000Y-32391250D03*
D23*
X3980000Y-32391250D03*
D23*
X3980000Y-30791250D03*
D23*
X6180000Y-30791250D03*
D22*
X-2063750Y-24880000D03*
D22*
X-2063750Y-23380000D03*
D22*
X-2063750Y-28055000D03*
D22*
X-2063750Y-26555000D03*
D19*
X10910000Y-34925000D03*
D19*
X9410000Y-34925000D03*
D24*
X8645000Y-25245000D03*
D25*
X245000Y-24745000D03*
D24*
X8645000Y-21245000D03*
D26*
X5195000Y-19295000D03*
D24*
X8645000Y-22245000D03*
D25*
X245000Y-23245000D03*
D27*
X3195000Y-27695000D03*
D24*
X8645000Y-21745000D03*
D27*
X6695000Y-27695000D03*
D25*
X245000Y-25745000D03*
D26*
X7195000Y-19295000D03*
D27*
X5195000Y-27695000D03*
D24*
X8645000Y-23745000D03*
D25*
X245000Y-20745000D03*
D27*
X2695000Y-27695000D03*
D26*
X4195000Y-19295000D03*
D25*
X245000Y-26245000D03*
D27*
X4195000Y-27695000D03*
D26*
X4695000Y-19295000D03*
D25*
X245000Y-22245000D03*
D25*
X245000Y-21745000D03*
D26*
X6195000Y-19295000D03*
D25*
X245000Y-25245000D03*
D27*
X6195000Y-27695000D03*
D24*
X8645000Y-25745000D03*
D24*
X8645000Y-20745000D03*
D27*
X5695000Y-27695000D03*
D25*
X245000Y-24245000D03*
D27*
X2195000Y-27695000D03*
D24*
X8645000Y-24245000D03*
D27*
X3695000Y-27695000D03*
D25*
X245000Y-22745000D03*
D24*
X8645000Y-22745000D03*
D26*
X6695000Y-19295000D03*
D24*
X8645000Y-26245000D03*
D26*
X1695000Y-19295000D03*
D26*
X5695000Y-19295000D03*
D26*
X2195000Y-19295000D03*
D25*
X245000Y-23745000D03*
D24*
X8645000Y-24745000D03*
D24*
X8645000Y-23245000D03*
D26*
X2695000Y-19295000D03*
D27*
X4695000Y-27695000D03*
D26*
X3695000Y-19295000D03*
D26*
X3195000Y-19295000D03*
D27*
X7195000Y-27695000D03*
D25*
X245000Y-21245000D03*
D27*
X1695000Y-27695000D03*
D28*
X6667500Y-40481250D03*
D28*
X3016250Y-51117500D03*
D28*
X12700000Y-8362500D03*
D28*
X8572500Y-34925000D03*
D28*
X4127500Y-29051250D03*
D28*
X10477510Y-47148760D03*
D28*
X8255000Y-33178750D03*
D28*
X5556250Y-29051250D03*
D28*
X9366250Y-30638750D03*
D28*
X6667500Y-23812500D03*
D28*
X-158750Y-51117500D03*
D28*
X6667500Y-44291250D03*
D28*
X3333750Y-26352500D03*
D28*
X3016250Y-47307500D03*
D28*
X793750Y-6350000D03*
D28*
X0Y-8096250D03*
D28*
X1905000Y-33178750D03*
D28*
X-3651250Y-46672500D03*
D28*
X635000Y-32385000D03*
D28*
X-2063750Y-22542500D03*
D28*
X-51250Y-30638750D03*
D28*
X7092500Y-24447500D03*
D28*
X10795000Y-11747500D03*
D28*
X10795000Y-28892500D03*
D28*
X-1428750Y-19526250D03*
D28*
X9048750Y-16192500D03*
D28*
X6826250Y-50958750D03*
D28*
X3016250Y-49212500D03*
D28*
X6826250Y-49688750D03*
D28*
X1905000Y-30003750D03*
D28*
X8255000Y-30003750D03*
D28*
X10795000Y-7937500D03*
D28*
X8096250Y-18097500D03*
M02*
