M48
FMAT,2
METRIC,TZ
T3C0.200
T2C0.900
T1C1.000
%
G90
G05
M71
T3
X6.668Y-40.481
X3.016Y-51.117
X12.700Y-8.363
X8.572Y-34.925
X4.128Y-29.051
X10.478Y-47.149
X8.255Y-33.179
X5.556Y-29.051
X9.366Y-30.639
X6.668Y-23.812
X-0.159Y-51.117
X6.668Y-44.291
X3.334Y-26.352
X3.016Y-47.307
X0.794Y-6.350
X0.000Y-8.096
X1.905Y-33.179
X-3.651Y-46.672
X0.635Y-32.385
X-2.064Y-22.543
X-0.051Y-30.639
X7.093Y-24.448
X10.795Y-11.748
X10.795Y-28.892
X-1.429Y-19.526
X9.049Y-16.192
X6.826Y-50.959
X3.016Y-49.212
X6.826Y-49.689
X1.905Y-30.004
X8.255Y-30.004
X10.795Y-7.938
X8.096Y-18.098
T2
X3.175Y-14.605
X0.635Y-10.795
X3.175Y-12.065
X0.635Y-13.335
X3.175Y-41.275
X0.635Y-37.465
X3.175Y-38.735
X0.635Y-40.005
T1
X2.540Y0.000
X7.620Y-2.540
X10.160Y0.000
X12.700Y0.000
X0.000Y-2.540
X0.000Y0.000
X5.080Y-2.540
X10.160Y-2.540
X7.620Y0.000
X12.700Y-2.540
X2.540Y-2.540
X5.080Y0.000
M30
