%FSLAX46Y46*%
%MOMM*%
%ADD11C,0.150000*%
%ADD10C,0.300000*%
%AMPS12*
1,1,1.700000,0.000000,0.000000*
%
%ADD12PS12*%
%AMPS13*
1,1,1.400000,0.000000,0.000000*
%
%ADD13PS13*%
%AMPS14*
21,1,0.800000,0.800000,0.000000,0.000000,0.000000*
%
%ADD14PS14*%
%AMPS15*
1,1,0.400000,0.000000,0.000000*
%
%ADD15PS15*%
G01*
%LPD*%
G36*
X13559999Y-53460000D02*
X13599003Y-53452080D01*
X13631828Y-53429575D01*
X13653276Y-53396048D01*
X13659999Y-53360000D01*
X13660000Y-23736690D01*
X13652080Y-23697686D01*
X13629575Y-23664861D01*
X13596048Y-23643413D01*
X13556812Y-23636741D01*
X13518081Y-23645900D01*
X13489289Y-23665979D01*
X13181863Y-23973405D01*
X13166962Y-23986911D01*
X13161292Y-23991564D01*
X13127891Y-24013879D01*
X13123605Y-24016170D01*
X13086488Y-24031544D01*
X13081826Y-24032958D01*
X13042448Y-24040792D01*
X13035138Y-24041512D01*
X13015048Y-24042500D01*
X7864190Y-24042500D01*
X7825186Y-24050420D01*
X7793479Y-24071789D01*
X7420962Y-24444306D01*
X7398983Y-24477486D01*
X7393630Y-24497134D01*
X7393361Y-24497080D01*
X7389913Y-24514417D01*
X7386337Y-24528689D01*
X7381920Y-24543251D01*
X7376964Y-24557099D01*
X7371150Y-24571135D01*
X7364847Y-24584463D01*
X7357687Y-24597859D01*
X7350111Y-24610499D01*
X7341677Y-24623120D01*
X7332896Y-24634961D01*
X7323252Y-24646713D01*
X7313376Y-24657609D01*
X7302609Y-24668376D01*
X7291713Y-24678252D01*
X7279961Y-24687896D01*
X7268120Y-24696677D01*
X7255499Y-24705111D01*
X7242859Y-24712687D01*
X7229463Y-24719847D01*
X7216135Y-24726150D01*
X7202099Y-24731964D01*
X7188251Y-24736920D01*
X7173689Y-24741337D01*
X7159417Y-24744913D01*
X7144476Y-24747884D01*
X7129930Y-24750041D01*
X7114814Y-24751530D01*
X7100118Y-24752253D01*
X7084882Y-24752253D01*
X7070186Y-24751530D01*
X7055070Y-24750041D01*
X7040524Y-24747884D01*
X7025583Y-24744913D01*
X7011311Y-24741337D01*
X6996749Y-24736920D01*
X6982901Y-24731964D01*
X6968865Y-24726150D01*
X6955537Y-24719847D01*
X6942141Y-24712687D01*
X6929501Y-24705111D01*
X6916880Y-24696677D01*
X6905039Y-24687896D01*
X6893287Y-24678252D01*
X6882391Y-24668376D01*
X6871624Y-24657609D01*
X6861748Y-24646713D01*
X6852104Y-24634961D01*
X6843323Y-24623120D01*
X6834889Y-24610499D01*
X6827313Y-24597859D01*
X6820153Y-24584463D01*
X6813850Y-24571135D01*
X6808036Y-24557099D01*
X6803080Y-24543251D01*
X6798663Y-24528689D01*
X6795087Y-24514417D01*
X6792116Y-24499476D01*
X6789959Y-24484930D01*
X6788470Y-24469814D01*
X6787747Y-24455118D01*
X6787747Y-24439882D01*
X6788470Y-24425186D01*
X6789959Y-24410070D01*
X6792116Y-24395524D01*
X6795087Y-24380583D01*
X6798663Y-24366311D01*
X6803080Y-24351749D01*
X6808036Y-24337901D01*
X6813850Y-24323865D01*
X6820153Y-24310537D01*
X6827313Y-24297141D01*
X6834889Y-24284501D01*
X6843330Y-24271870D01*
X6849215Y-24263934D01*
X6866087Y-24227888D01*
X6867564Y-24188116D01*
X6853411Y-24150918D01*
X6825871Y-24122186D01*
X6789305Y-24106471D01*
X6744592Y-24107364D01*
X6734426Y-24109911D01*
X6719476Y-24112884D01*
X6704930Y-24115041D01*
X6689814Y-24116530D01*
X6675118Y-24117253D01*
X6659882Y-24117253D01*
X6645186Y-24116530D01*
X6630070Y-24115041D01*
X6615524Y-24112884D01*
X6600583Y-24109913D01*
X6586311Y-24106337D01*
X6571749Y-24101920D01*
X6557901Y-24096964D01*
X6543865Y-24091150D01*
X6530537Y-24084847D01*
X6517141Y-24077687D01*
X6504501Y-24070111D01*
X6491880Y-24061677D01*
X6480039Y-24052896D01*
X6468287Y-24043252D01*
X6457391Y-24033376D01*
X6446624Y-24022609D01*
X6436748Y-24011713D01*
X6427104Y-23999961D01*
X6418323Y-23988120D01*
X6409889Y-23975499D01*
X6402313Y-23962859D01*
X6395153Y-23949463D01*
X6388850Y-23936135D01*
X6383036Y-23922099D01*
X6378080Y-23908251D01*
X6373663Y-23893689D01*
X6370087Y-23879417D01*
X6367116Y-23864476D01*
X6364959Y-23849930D01*
X6363470Y-23834814D01*
X6362747Y-23820118D01*
X6362747Y-23804882D01*
X6363470Y-23790186D01*
X6364959Y-23775070D01*
X6367116Y-23760524D01*
X6370087Y-23745583D01*
X6373663Y-23731311D01*
X6378080Y-23716749D01*
X6383036Y-23702901D01*
X6388850Y-23688865D01*
X6395153Y-23675537D01*
X6402313Y-23662141D01*
X6409889Y-23649501D01*
X6418323Y-23636880D01*
X6427104Y-23625039D01*
X6436748Y-23613287D01*
X6446624Y-23602391D01*
X6457391Y-23591624D01*
X6468287Y-23581748D01*
X6480039Y-23572104D01*
X6491880Y-23563323D01*
X6504501Y-23554889D01*
X6517141Y-23547313D01*
X6530537Y-23540153D01*
X6543865Y-23533850D01*
X6557901Y-23528036D01*
X6571749Y-23523080D01*
X6586311Y-23518663D01*
X6600583Y-23515087D01*
X6615524Y-23512116D01*
X6630070Y-23509959D01*
X6645186Y-23508470D01*
X6659882Y-23507747D01*
X6675118Y-23507747D01*
X6689814Y-23508470D01*
X6704930Y-23509959D01*
X6719476Y-23512116D01*
X6734417Y-23515087D01*
X6748689Y-23518663D01*
X6763251Y-23523080D01*
X6777099Y-23528036D01*
X6791135Y-23533850D01*
X6804463Y-23540153D01*
X6817859Y-23547313D01*
X6830499Y-23554889D01*
X6845172Y-23564694D01*
X6845474Y-23564242D01*
X6878504Y-23579697D01*
X6902014Y-23582500D01*
X7165810Y-23582500D01*
X7204814Y-23574580D01*
X7236521Y-23553211D01*
X7452679Y-23337053D01*
X7458286Y-23333206D01*
X7472469Y-23319003D01*
X7476207Y-23315935D01*
X7509608Y-23293620D01*
X7513894Y-23291329D01*
X7551011Y-23275955D01*
X7555669Y-23274542D01*
X7595064Y-23266707D01*
X7602366Y-23265988D01*
X7622466Y-23265000D01*
X12774032Y-23265000D01*
X12813036Y-23257080D01*
X12844743Y-23235711D01*
X12985687Y-23094767D01*
X13007666Y-23061587D01*
X13014976Y-23024056D01*
X13014976Y-16824622D01*
X13008884Y-16793997D01*
X13009883Y-16793694D01*
X13007043Y-16784331D01*
X12999205Y-16744925D01*
X12998488Y-16737654D01*
X12997500Y-16717535D01*
X12997500Y-9026690D01*
X12989580Y-8987686D01*
X12968211Y-8955979D01*
X12703194Y-8690962D01*
X12670014Y-8668983D01*
X12650366Y-8663630D01*
X12650420Y-8663361D01*
X12633083Y-8659913D01*
X12618811Y-8656337D01*
X12604249Y-8651920D01*
X12590401Y-8646964D01*
X12576365Y-8641150D01*
X12563037Y-8634847D01*
X12549641Y-8627687D01*
X12537001Y-8620111D01*
X12524380Y-8611677D01*
X12512539Y-8602896D01*
X12500787Y-8593252D01*
X12489891Y-8583376D01*
X12479124Y-8572609D01*
X12469248Y-8561713D01*
X12459604Y-8549961D01*
X12450823Y-8538120D01*
X12442389Y-8525499D01*
X12434813Y-8512859D01*
X12427653Y-8499463D01*
X12421350Y-8486135D01*
X12415536Y-8472099D01*
X12410580Y-8458251D01*
X12406163Y-8443689D01*
X12402587Y-8429417D01*
X12399616Y-8414476D01*
X12397459Y-8399930D01*
X12395970Y-8384814D01*
X12395247Y-8370118D01*
X12395247Y-8354882D01*
X12395970Y-8340186D01*
X12397459Y-8325070D01*
X12399616Y-8310524D01*
X12402589Y-8295576D01*
X12403536Y-8291794D01*
X12405329Y-8252035D01*
X12391472Y-8214726D01*
X12364161Y-8185776D01*
X12327722Y-8169771D01*
X12306532Y-8167500D01*
X11029514Y-8167500D01*
X10990510Y-8175420D01*
X10972823Y-8185532D01*
X10972672Y-8185306D01*
X10957999Y-8195111D01*
X10945359Y-8202687D01*
X10931963Y-8209847D01*
X10918635Y-8216150D01*
X10904599Y-8221964D01*
X10890751Y-8226920D01*
X10876189Y-8231337D01*
X10861917Y-8234913D01*
X10846976Y-8237884D01*
X10832430Y-8240041D01*
X10817314Y-8241530D01*
X10802618Y-8242253D01*
X10787382Y-8242253D01*
X10772686Y-8241530D01*
X10757570Y-8240041D01*
X10743024Y-8237884D01*
X10728083Y-8234913D01*
X10713811Y-8231337D01*
X10699249Y-8226920D01*
X10685401Y-8221964D01*
X10671365Y-8216150D01*
X10658037Y-8209847D01*
X10644641Y-8202687D01*
X10632001Y-8195111D01*
X10619380Y-8186677D01*
X10607539Y-8177896D01*
X10595787Y-8168252D01*
X10584891Y-8158376D01*
X10574124Y-8147609D01*
X10564248Y-8136713D01*
X10554604Y-8124961D01*
X10545823Y-8113120D01*
X10537389Y-8100499D01*
X10529813Y-8087859D01*
X10522653Y-8074463D01*
X10516350Y-8061135D01*
X10510536Y-8047099D01*
X10505580Y-8033251D01*
X10501163Y-8018689D01*
X10497587Y-8004417D01*
X10494616Y-7989476D01*
X10492459Y-7974930D01*
X10490970Y-7959814D01*
X10490247Y-7945118D01*
X10490247Y-7929882D01*
X10490970Y-7915186D01*
X10492459Y-7900070D01*
X10494616Y-7885524D01*
X10497587Y-7870583D01*
X10501163Y-7856311D01*
X10505580Y-7841749D01*
X10510536Y-7827901D01*
X10516350Y-7813865D01*
X10522653Y-7800537D01*
X10529813Y-7787141D01*
X10537389Y-7774501D01*
X10545823Y-7761880D01*
X10554604Y-7750039D01*
X10564248Y-7738287D01*
X10574124Y-7727391D01*
X10584891Y-7716624D01*
X10595787Y-7706748D01*
X10607539Y-7697104D01*
X10619380Y-7688323D01*
X10632001Y-7679889D01*
X10644641Y-7672313D01*
X10658037Y-7665153D01*
X10671365Y-7658850D01*
X10685401Y-7653036D01*
X10699249Y-7648080D01*
X10713811Y-7643663D01*
X10728083Y-7640087D01*
X10743024Y-7637116D01*
X10757570Y-7634959D01*
X10772686Y-7633470D01*
X10787382Y-7632747D01*
X10802618Y-7632747D01*
X10817314Y-7633470D01*
X10832430Y-7634959D01*
X10846976Y-7637116D01*
X10861917Y-7640087D01*
X10876189Y-7643663D01*
X10890751Y-7648080D01*
X10904599Y-7653036D01*
X10918635Y-7658850D01*
X10931963Y-7665153D01*
X10945359Y-7672313D01*
X10957999Y-7679889D01*
X10972672Y-7689694D01*
X10972974Y-7689242D01*
X11006004Y-7704697D01*
X11029514Y-7707500D01*
X13015035Y-7707500D01*
X13035154Y-7708488D01*
X13042425Y-7709205D01*
X13081831Y-7717043D01*
X13086488Y-7718455D01*
X13123605Y-7733829D01*
X13127891Y-7736120D01*
X13161292Y-7758435D01*
X13165210Y-7761650D01*
X13179607Y-7775939D01*
X13184272Y-7779004D01*
X13489289Y-8084021D01*
X13522469Y-8106000D01*
X13561594Y-8113297D01*
X13600466Y-8104757D01*
X13632929Y-8081731D01*
X13653839Y-8047867D01*
X13660000Y-8013310D01*
X13660000Y-3233423D01*
X13652080Y-3194419D01*
X13629575Y-3161594D01*
X13596048Y-3140146D01*
X13556812Y-3133474D01*
X13518081Y-3142633D01*
X13482699Y-3169984D01*
X13470260Y-3185141D01*
X13417542Y-3243306D01*
X13403306Y-3257542D01*
X13345142Y-3310259D01*
X13329604Y-3323010D01*
X13266545Y-3369779D01*
X13249813Y-3380959D01*
X13182479Y-3421318D01*
X13164726Y-3430807D01*
X13093766Y-3464368D01*
X13075191Y-3472062D01*
X13001271Y-3498511D01*
X12982023Y-3504350D01*
X12905867Y-3523426D01*
X12886154Y-3527347D01*
X12808468Y-3538871D01*
X12788486Y-3540840D01*
X12710048Y-3544693D01*
X12689952Y-3544693D01*
X12611514Y-3540840D01*
X12591532Y-3538871D01*
X12513842Y-3527347D01*
X12494135Y-3523427D01*
X12417990Y-3504353D01*
X12398714Y-3498506D01*
X12324818Y-3472065D01*
X12306231Y-3464366D01*
X12235274Y-3430807D01*
X12217521Y-3421318D01*
X12150181Y-3380955D01*
X12133450Y-3369777D01*
X12070409Y-3323022D01*
X12054853Y-3310257D01*
X11996694Y-3257543D01*
X11982459Y-3243307D01*
X11929741Y-3185142D01*
X11916990Y-3169604D01*
X11870221Y-3106545D01*
X11859041Y-3089813D01*
X11818677Y-3022471D01*
X11809195Y-3004733D01*
X11775634Y-2933772D01*
X11767934Y-2915183D01*
X11741490Y-2841275D01*
X11735650Y-2822023D01*
X11716573Y-2745865D01*
X11712653Y-2726158D01*
X11701129Y-2648468D01*
X11699160Y-2628486D01*
X11695307Y-2550048D01*
X11695307Y-2529952D01*
X11699160Y-2451514D01*
X11701129Y-2431532D01*
X11712653Y-2353842D01*
X11716573Y-2334135D01*
X11735650Y-2257977D01*
X11741490Y-2238725D01*
X11767934Y-2164817D01*
X11775634Y-2146228D01*
X11809195Y-2075267D01*
X11818677Y-2057529D01*
X11859041Y-1990187D01*
X11870221Y-1973455D01*
X11916990Y-1910396D01*
X11929741Y-1894858D01*
X11982459Y-1836693D01*
X11996694Y-1822457D01*
X12054853Y-1769743D01*
X12070409Y-1756978D01*
X12133450Y-1710223D01*
X12150181Y-1699045D01*
X12217521Y-1658682D01*
X12235274Y-1649193D01*
X12306234Y-1615632D01*
X12324809Y-1607938D01*
X12398729Y-1581489D01*
X12417977Y-1575650D01*
X12494133Y-1556574D01*
X12513846Y-1552653D01*
X12591532Y-1541129D01*
X12611514Y-1539160D01*
X12689952Y-1535307D01*
X12710048Y-1535307D01*
X12788486Y-1539160D01*
X12808468Y-1541129D01*
X12886158Y-1552653D01*
X12905865Y-1556573D01*
X12982010Y-1575647D01*
X13001286Y-1581494D01*
X13075182Y-1607935D01*
X13093769Y-1615634D01*
X13164726Y-1649193D01*
X13182479Y-1658682D01*
X13249813Y-1699041D01*
X13266545Y-1710221D01*
X13329604Y-1756990D01*
X13345142Y-1769741D01*
X13403306Y-1822458D01*
X13417542Y-1836694D01*
X13470260Y-1894859D01*
X13482699Y-1910016D01*
X13513565Y-1935142D01*
X13551786Y-1946239D01*
X13591308Y-1941550D01*
X13625871Y-1921816D01*
X13650000Y-1890165D01*
X13660000Y-1846577D01*
X13660000Y-693423D01*
X13652080Y-654419D01*
X13629575Y-621594D01*
X13596048Y-600146D01*
X13556812Y-593474D01*
X13518081Y-602633D01*
X13482699Y-629984D01*
X13470260Y-645141D01*
X13417542Y-703306D01*
X13403306Y-717542D01*
X13345142Y-770259D01*
X13329604Y-783010D01*
X13266545Y-829779D01*
X13249813Y-840959D01*
X13182479Y-881318D01*
X13164726Y-890807D01*
X13093766Y-924368D01*
X13075191Y-932062D01*
X13001271Y-958511D01*
X12982023Y-964350D01*
X12905867Y-983426D01*
X12886154Y-987347D01*
X12808468Y-998871D01*
X12788486Y-1000840D01*
X12710048Y-1004693D01*
X12689952Y-1004693D01*
X12611514Y-1000840D01*
X12591532Y-998871D01*
X12513842Y-987347D01*
X12494135Y-983427D01*
X12417990Y-964353D01*
X12398714Y-958506D01*
X12324818Y-932065D01*
X12306231Y-924366D01*
X12235274Y-890807D01*
X12217521Y-881318D01*
X12150181Y-840955D01*
X12133450Y-829777D01*
X12070409Y-783022D01*
X12054853Y-770257D01*
X11996694Y-717543D01*
X11982459Y-703307D01*
X11929741Y-645142D01*
X11916990Y-629604D01*
X11870221Y-566545D01*
X11859041Y-549813D01*
X11818677Y-482471D01*
X11809195Y-464733D01*
X11775634Y-393772D01*
X11767934Y-375183D01*
X11741490Y-301275D01*
X11735650Y-282023D01*
X11716573Y-205865D01*
X11712653Y-186158D01*
X11701129Y-108468D01*
X11699160Y-88486D01*
X11695307Y-10048D01*
X11695307Y10048D01*
X11699160Y88486D01*
X11701129Y108468D01*
X11712653Y186158D01*
X11716573Y205865D01*
X11735650Y282023D01*
X11741490Y301275D01*
X11767934Y375183D01*
X11775634Y393772D01*
X11809195Y464733D01*
X11818677Y482471D01*
X11859041Y549813D01*
X11870221Y566545D01*
X11916990Y629604D01*
X11929741Y645142D01*
X11982459Y703307D01*
X11996694Y717543D01*
X12054853Y770257D01*
X12070409Y783022D01*
X12133450Y829777D01*
X12150181Y840955D01*
X12217521Y881318D01*
X12235274Y890807D01*
X12306234Y924368D01*
X12324809Y932062D01*
X12398729Y958511D01*
X12417977Y964350D01*
X12494133Y983426D01*
X12513846Y987347D01*
X12591532Y998871D01*
X12611514Y1000840D01*
X12689952Y1004693D01*
X12710048Y1004693D01*
X12788486Y1000840D01*
X12808468Y998871D01*
X12886158Y987347D01*
X12905865Y983427D01*
X12982010Y964353D01*
X13001286Y958506D01*
X13075182Y932065D01*
X13093769Y924366D01*
X13164726Y890807D01*
X13182479Y881318D01*
X13249813Y840959D01*
X13266545Y829779D01*
X13329604Y783010D01*
X13345142Y770259D01*
X13403306Y717542D01*
X13417542Y703306D01*
X13470260Y645141D01*
X13482699Y629984D01*
X13513565Y604858D01*
X13551786Y593761D01*
X13591308Y598450D01*
X13625871Y618184D01*
X13650000Y649835D01*
X13660000Y693423D01*
X13660000Y1820000D01*
X13652080Y1859004D01*
X13629575Y1891829D01*
X13596048Y1913277D01*
X13560000Y1920000D01*
X-5367492Y1920000D01*
X-5368720Y1919992D01*
X-5434781Y1919181D01*
X-5437234Y1919121D01*
X-5500780Y1916780D01*
X-5503232Y1916660D01*
X-5566658Y1912763D01*
X-5569104Y1912582D01*
X-5632441Y1907128D01*
X-5634884Y1906888D01*
X-5698069Y1899881D01*
X-5700506Y1899580D01*
X-5763471Y1891028D01*
X-5765897Y1890668D01*
X-5828684Y1880566D01*
X-5831104Y1880146D01*
X-5893555Y1868518D01*
X-5895962Y1868040D01*
X-5958204Y1854863D01*
X-5960596Y1854325D01*
X-6022398Y1839649D01*
X-6024781Y1839052D01*
X-6086292Y1822839D01*
X-6088657Y1822185D01*
X-6149671Y1804491D01*
X-6152018Y1803779D01*
X-6212630Y1784578D01*
X-6214963Y1783807D01*
X-6275055Y1763133D01*
X-6277364Y1762307D01*
X-6336938Y1740163D01*
X-6339228Y1739280D01*
X-6398282Y1715664D01*
X-6400551Y1714724D01*
X-6458977Y1689678D01*
X-6461218Y1688685D01*
X-6518983Y1662228D01*
X-6521205Y1661177D01*
X-6578351Y1633285D01*
X-6580542Y1632182D01*
X-6636949Y1602916D01*
X-6639112Y1601760D01*
X-6694808Y1571106D01*
X-6696944Y1569896D01*
X-6751864Y1537888D01*
X-6753970Y1536625D01*
X-6808098Y1503272D01*
X-6810172Y1501959D01*
X-6863441Y1467303D01*
X-6865481Y1465940D01*
X-6917891Y1429983D01*
X-6919897Y1428570D01*
X-6971403Y1391342D01*
X-6973376Y1389879D01*
X-7023995Y1351365D01*
X-7025929Y1349856D01*
X-7075545Y1310146D01*
X-7077443Y1308588D01*
X-7126087Y1267657D01*
X-7127944Y1266055D01*
X-7175572Y1223941D01*
X-7177391Y1222292D01*
X-7223929Y1179060D01*
X-7225707Y1177368D01*
X-7271225Y1132953D01*
X-7272959Y1131219D01*
X-7317362Y1085714D01*
X-7319055Y1083935D01*
X-7362295Y1037388D01*
X-7363944Y1035569D01*
X-7406056Y987943D01*
X-7407658Y986086D01*
X-7448589Y937442D01*
X-7450147Y935543D01*
X-7489876Y885902D01*
X-7491385Y883969D01*
X-7529864Y833396D01*
X-7531327Y831423D01*
X-7568559Y779911D01*
X-7569972Y777905D01*
X-7605945Y725472D01*
X-7607308Y723432D01*
X-7641955Y670177D01*
X-7643269Y668103D01*
X-7676633Y613956D01*
X-7677894Y611851D01*
X-7709891Y556951D01*
X-7711101Y554815D01*
X-7741759Y499112D01*
X-7742916Y496948D01*
X-7772175Y440555D01*
X-7773278Y438363D01*
X-7801187Y381181D01*
X-7802236Y378963D01*
X-7828685Y321220D01*
X-7829681Y318974D01*
X-7854729Y260539D01*
X-7855667Y258273D01*
X-7879275Y199240D01*
X-7880159Y196951D01*
X-7902308Y137366D01*
X-7903135Y135054D01*
X-7923798Y74991D01*
X-7924568Y72660D01*
X-7943778Y12020D01*
X-7944490Y9671D01*
X-7962194Y-51381D01*
X-7962848Y-53743D01*
X-7979047Y-115197D01*
X-7979644Y-117581D01*
X-7994330Y-179422D01*
X-7994868Y-181817D01*
X-8008039Y-244035D01*
X-8008517Y-246440D01*
X-8020148Y-308907D01*
X-8020568Y-311327D01*
X-8030666Y-374088D01*
X-8031026Y-376514D01*
X-8039581Y-439498D01*
X-8039882Y-441936D01*
X-8046886Y-505100D01*
X-8047126Y-507540D01*
X-8052582Y-570890D01*
X-8052763Y-573341D01*
X-8056660Y-636795D01*
X-8056780Y-639242D01*
X-8059121Y-702764D01*
X-8059181Y-705219D01*
X-8059992Y-771281D01*
X-8060000Y-772509D01*
X-8060000Y-21222818D01*
X-8052080Y-21261822D01*
X-8029575Y-21294647D01*
X-7996048Y-21316095D01*
X-7956812Y-21322767D01*
X-7918081Y-21313608D01*
X-7889289Y-21293529D01*
X-5175479Y-18579719D01*
X-5153500Y-18546539D01*
X-5146203Y-18507414D01*
X-5154743Y-18468542D01*
X-5177769Y-18436079D01*
X-5211633Y-18415169D01*
X-5270488Y-18412005D01*
X-5316604Y-18423556D01*
X-5350775Y-18430353D01*
X-5506105Y-18453394D01*
X-5540741Y-18456806D01*
X-5697591Y-18464512D01*
X-5732409Y-18464512D01*
X-5889246Y-18456806D01*
X-5923910Y-18453393D01*
X-6079237Y-18430352D01*
X-6113385Y-18423560D01*
X-6265698Y-18385407D01*
X-6299036Y-18375294D01*
X-6446853Y-18322405D01*
X-6479058Y-18309065D01*
X-6620985Y-18241939D01*
X-6651704Y-18225519D01*
X-6786395Y-18144787D01*
X-6815345Y-18125443D01*
X-6941461Y-18031910D01*
X-6968397Y-18009804D01*
X-7084724Y-17904372D01*
X-7109372Y-17879724D01*
X-7214804Y-17763397D01*
X-7236910Y-17736461D01*
X-7330443Y-17610345D01*
X-7349787Y-17581395D01*
X-7430519Y-17446704D01*
X-7446939Y-17415985D01*
X-7514065Y-17274058D01*
X-7527405Y-17241853D01*
X-7580294Y-17094036D01*
X-7590407Y-17060698D01*
X-7628560Y-16908385D01*
X-7635352Y-16874237D01*
X-7658393Y-16718910D01*
X-7661806Y-16684246D01*
X-7669512Y-16527409D01*
X-7669512Y-16492591D01*
X-7661806Y-16335754D01*
X-7658393Y-16301090D01*
X-7635352Y-16145763D01*
X-7628560Y-16111615D01*
X-7590407Y-15959302D01*
X-7580294Y-15925964D01*
X-7527405Y-15778147D01*
X-7514065Y-15745942D01*
X-7446939Y-15604015D01*
X-7430519Y-15573296D01*
X-7349787Y-15438605D01*
X-7330443Y-15409655D01*
X-7236910Y-15283539D01*
X-7214804Y-15256603D01*
X-7109372Y-15140276D01*
X-7084724Y-15115628D01*
X-6968397Y-15010196D01*
X-6941461Y-14988090D01*
X-6815345Y-14894557D01*
X-6786395Y-14875213D01*
X-6651704Y-14794481D01*
X-6620985Y-14778061D01*
X-6479058Y-14710935D01*
X-6446853Y-14697595D01*
X-6299036Y-14644706D01*
X-6265698Y-14634593D01*
X-6113385Y-14596440D01*
X-6079237Y-14589648D01*
X-5923910Y-14566607D01*
X-5889246Y-14563194D01*
X-5732409Y-14555488D01*
X-5697591Y-14555488D01*
X-5540741Y-14563194D01*
X-5506105Y-14566606D01*
X-5350775Y-14589647D01*
X-5316604Y-14596444D01*
X-5164297Y-14634594D01*
X-5130969Y-14644704D01*
X-4983147Y-14697595D01*
X-4950942Y-14710935D01*
X-4809006Y-14778066D01*
X-4778296Y-14794481D01*
X-4643624Y-14875200D01*
X-4614644Y-14894564D01*
X-4488528Y-14988098D01*
X-4461612Y-15010188D01*
X-4345264Y-15115639D01*
X-4320638Y-15140264D01*
X-4215189Y-15256609D01*
X-4193098Y-15283528D01*
X-4099557Y-15409654D01*
X-4080206Y-15438614D01*
X-3999481Y-15573296D01*
X-3983066Y-15604006D01*
X-3915935Y-15745942D01*
X-3902595Y-15778147D01*
X-3849706Y-15925964D01*
X-3839593Y-15959302D01*
X-3801444Y-16111599D01*
X-3794645Y-16145780D01*
X-3771608Y-16301090D01*
X-3768194Y-16335756D01*
X-3760488Y-16492590D01*
X-3760488Y-16527410D01*
X-3768194Y-16684244D01*
X-3771608Y-16718910D01*
X-3794645Y-16874220D01*
X-3801445Y-16908406D01*
X-3812994Y-16954512D01*
X-3814788Y-16994271D01*
X-3800933Y-17031581D01*
X-3773623Y-17060531D01*
X-3737184Y-17076538D01*
X-3697388Y-17077063D01*
X-3645280Y-17049520D01*
X-1844435Y-15248675D01*
X-1839390Y-15245230D01*
X-1824994Y-15230943D01*
X-1809707Y-15218398D01*
X-1776321Y-15196090D01*
X-1759054Y-15186861D01*
X-1721944Y-15171490D01*
X-1703203Y-15165805D01*
X-1663825Y-15157972D01*
X-1641884Y-15155812D01*
X-1621785Y-15154824D01*
X2152420Y-15154824D01*
X2191424Y-15146904D01*
X2223131Y-15125535D01*
X2348432Y-15000234D01*
X2370411Y-14967054D01*
X2377708Y-14927929D01*
X2371875Y-14895833D01*
X2360034Y-14862741D01*
X2354186Y-14843462D01*
X2338693Y-14781608D01*
X2334770Y-14761887D01*
X2325407Y-14698769D01*
X2323438Y-14678782D01*
X2320307Y-14615049D01*
X2320307Y-14594951D01*
X2323438Y-14531218D01*
X2325407Y-14511231D01*
X2334770Y-14448113D01*
X2338693Y-14428392D01*
X2354186Y-14366538D01*
X2360034Y-14347259D01*
X2381520Y-14287212D01*
X2389214Y-14268637D01*
X2416495Y-14210957D01*
X2425965Y-14193239D01*
X2458757Y-14138528D01*
X2469938Y-14121796D01*
X2507932Y-14070566D01*
X2520692Y-14055018D01*
X2563534Y-14007750D01*
X2577750Y-13993534D01*
X2625018Y-13950692D01*
X2640566Y-13937932D01*
X2691796Y-13899938D01*
X2708528Y-13888757D01*
X2763239Y-13855965D01*
X2780957Y-13846495D01*
X2838637Y-13819214D01*
X2857212Y-13811520D01*
X2917259Y-13790034D01*
X2936538Y-13784186D01*
X2998392Y-13768693D01*
X3018113Y-13764770D01*
X3023857Y-13763918D01*
X3061276Y-13750360D01*
X3090444Y-13723282D01*
X3106740Y-13686972D01*
X3107584Y-13647181D01*
X3092841Y-13610213D01*
X3064846Y-13581923D01*
X3009184Y-13565000D01*
X1530319Y-13565000D01*
X1491315Y-13572920D01*
X1458490Y-13595425D01*
X1436164Y-13631311D01*
X1428475Y-13652800D01*
X1420786Y-13671363D01*
X1393505Y-13729043D01*
X1384035Y-13746761D01*
X1351243Y-13801472D01*
X1340062Y-13818204D01*
X1302068Y-13869434D01*
X1289308Y-13884982D01*
X1246466Y-13932250D01*
X1232250Y-13946466D01*
X1184982Y-13989308D01*
X1169434Y-14002068D01*
X1118204Y-14040062D01*
X1101472Y-14051243D01*
X1046761Y-14084035D01*
X1029043Y-14093505D01*
X971363Y-14120786D01*
X952788Y-14128480D01*
X892741Y-14149966D01*
X873462Y-14155814D01*
X811612Y-14171306D01*
X791886Y-14175230D01*
X728766Y-14184593D01*
X708784Y-14186562D01*
X645048Y-14189693D01*
X624952Y-14189693D01*
X561216Y-14186562D01*
X541234Y-14184593D01*
X478114Y-14175230D01*
X458388Y-14171306D01*
X396538Y-14155814D01*
X377259Y-14149966D01*
X317212Y-14128480D01*
X298637Y-14120786D01*
X240957Y-14093505D01*
X223239Y-14084035D01*
X168528Y-14051243D01*
X151796Y-14040062D01*
X100566Y-14002068D01*
X85018Y-13989308D01*
X37750Y-13946466D01*
X23534Y-13932250D01*
X-19308Y-13884982D01*
X-32068Y-13869434D01*
X-70062Y-13818204D01*
X-81243Y-13801472D01*
X-114035Y-13746761D01*
X-123505Y-13729043D01*
X-150786Y-13671363D01*
X-158480Y-13652788D01*
X-179966Y-13592741D01*
X-185814Y-13573462D01*
X-201307Y-13511608D01*
X-205230Y-13491887D01*
X-214593Y-13428769D01*
X-216562Y-13408782D01*
X-219693Y-13345049D01*
X-219693Y-13324951D01*
X-216562Y-13261218D01*
X-214593Y-13241231D01*
X-205230Y-13178113D01*
X-201307Y-13158392D01*
X-185814Y-13096538D01*
X-179966Y-13077259D01*
X-158480Y-13017212D01*
X-150786Y-12998637D01*
X-123505Y-12940957D01*
X-114035Y-12923239D01*
X-81243Y-12868528D01*
X-70062Y-12851796D01*
X-32068Y-12800566D01*
X-19308Y-12785018D01*
X23534Y-12737750D01*
X37750Y-12723534D01*
X85018Y-12680692D01*
X100566Y-12667932D01*
X151796Y-12629938D01*
X168528Y-12618757D01*
X223239Y-12585965D01*
X240957Y-12576495D01*
X298637Y-12549214D01*
X317212Y-12541520D01*
X377259Y-12520034D01*
X396538Y-12514186D01*
X458392Y-12498693D01*
X478113Y-12494770D01*
X541231Y-12485407D01*
X561218Y-12483438D01*
X624951Y-12480307D01*
X645049Y-12480307D01*
X708782Y-12483438D01*
X728769Y-12485407D01*
X791887Y-12494770D01*
X811608Y-12498693D01*
X873462Y-12514186D01*
X892741Y-12520034D01*
X952788Y-12541520D01*
X971363Y-12549214D01*
X1029043Y-12576495D01*
X1046761Y-12585965D01*
X1101472Y-12618757D01*
X1118204Y-12629938D01*
X1169434Y-12667932D01*
X1184982Y-12680692D01*
X1232250Y-12723534D01*
X1246466Y-12737750D01*
X1289308Y-12785018D01*
X1302068Y-12800566D01*
X1340062Y-12851796D01*
X1351243Y-12868528D01*
X1384035Y-12923239D01*
X1393505Y-12940957D01*
X1420786Y-12998637D01*
X1428475Y-13017200D01*
X1436164Y-13038689D01*
X1456761Y-13072744D01*
X1489010Y-13096069D01*
X1530319Y-13105000D01*
X3009183Y-13105000D01*
X3048187Y-13097080D01*
X3081012Y-13074575D01*
X3102460Y-13041048D01*
X3109132Y-13001812D01*
X3099973Y-12963081D01*
X3076432Y-12930990D01*
X3023856Y-12906082D01*
X3018116Y-12905231D01*
X2998388Y-12901306D01*
X2936538Y-12885814D01*
X2917259Y-12879966D01*
X2857212Y-12858480D01*
X2838637Y-12850786D01*
X2780957Y-12823505D01*
X2763239Y-12814035D01*
X2708528Y-12781243D01*
X2691796Y-12770062D01*
X2640566Y-12732068D01*
X2625018Y-12719308D01*
X2577750Y-12676466D01*
X2563534Y-12662250D01*
X2520692Y-12614982D01*
X2507932Y-12599434D01*
X2469938Y-12548204D01*
X2458757Y-12531472D01*
X2425965Y-12476761D01*
X2416495Y-12459043D01*
X2389214Y-12401363D01*
X2381520Y-12382788D01*
X2360034Y-12322741D01*
X2354186Y-12303462D01*
X2338693Y-12241608D01*
X2334770Y-12221887D01*
X2325407Y-12158769D01*
X2323438Y-12138782D01*
X2320307Y-12075049D01*
X2320307Y-12054951D01*
X2323438Y-11991218D01*
X2325407Y-11971231D01*
X2334770Y-11908113D01*
X2338693Y-11888392D01*
X2354186Y-11826538D01*
X2360034Y-11807259D01*
X2381520Y-11747212D01*
X2389214Y-11728637D01*
X2416495Y-11670957D01*
X2425965Y-11653239D01*
X2458757Y-11598528D01*
X2469938Y-11581796D01*
X2507932Y-11530566D01*
X2520692Y-11515018D01*
X2563534Y-11467750D01*
X2577750Y-11453534D01*
X2625018Y-11410692D01*
X2640566Y-11397932D01*
X2691796Y-11359938D01*
X2708528Y-11348757D01*
X2763239Y-11315965D01*
X2780957Y-11306495D01*
X2814988Y-11290399D01*
X2846860Y-11266563D01*
X2866912Y-11232183D01*
X2871966Y-11192706D01*
X2861222Y-11154384D01*
X2836382Y-11123288D01*
X2801381Y-11104343D01*
X2772232Y-11100000D01*
X1498944Y-11100000D01*
X1459940Y-11107920D01*
X1427115Y-11130425D01*
X1408545Y-11157245D01*
X1393509Y-11189036D01*
X1384035Y-11206761D01*
X1351243Y-11261472D01*
X1340062Y-11278204D01*
X1302068Y-11329434D01*
X1289308Y-11344982D01*
X1246466Y-11392250D01*
X1232250Y-11406466D01*
X1184982Y-11449308D01*
X1169434Y-11462068D01*
X1118204Y-11500062D01*
X1101472Y-11511243D01*
X1046761Y-11544035D01*
X1029043Y-11553505D01*
X971363Y-11580786D01*
X952788Y-11588480D01*
X892741Y-11609966D01*
X873462Y-11615814D01*
X811612Y-11631306D01*
X791886Y-11635230D01*
X728766Y-11644593D01*
X708784Y-11646562D01*
X645048Y-11649693D01*
X624952Y-11649693D01*
X561216Y-11646562D01*
X541234Y-11644593D01*
X478114Y-11635230D01*
X458388Y-11631306D01*
X396538Y-11615814D01*
X377259Y-11609966D01*
X317212Y-11588480D01*
X298637Y-11580786D01*
X240957Y-11553505D01*
X223239Y-11544035D01*
X168528Y-11511243D01*
X151796Y-11500062D01*
X100566Y-11462068D01*
X85018Y-11449308D01*
X37750Y-11406466D01*
X23534Y-11392250D01*
X-19308Y-11344982D01*
X-32068Y-11329434D01*
X-70062Y-11278204D01*
X-81243Y-11261472D01*
X-114035Y-11206761D01*
X-123505Y-11189043D01*
X-150786Y-11131363D01*
X-158480Y-11112788D01*
X-179966Y-11052741D01*
X-185814Y-11033462D01*
X-201307Y-10971608D01*
X-205230Y-10951887D01*
X-214593Y-10888769D01*
X-216562Y-10868782D01*
X-219693Y-10805049D01*
X-219693Y-10784951D01*
X-216562Y-10721218D01*
X-214593Y-10701231D01*
X-205230Y-10638113D01*
X-201307Y-10618392D01*
X-185814Y-10556538D01*
X-179966Y-10537259D01*
X-158480Y-10477212D01*
X-150786Y-10458637D01*
X-123505Y-10400957D01*
X-114035Y-10383239D01*
X-81243Y-10328528D01*
X-70062Y-10311796D01*
X-32068Y-10260566D01*
X-19308Y-10245018D01*
X23534Y-10197750D01*
X37750Y-10183534D01*
X85018Y-10140692D01*
X100566Y-10127932D01*
X151796Y-10089938D01*
X168528Y-10078757D01*
X223239Y-10045965D01*
X240957Y-10036495D01*
X298637Y-10009214D01*
X317212Y-10001520D01*
X377259Y-9980034D01*
X396538Y-9974186D01*
X458392Y-9958693D01*
X478113Y-9954770D01*
X541231Y-9945407D01*
X561218Y-9943438D01*
X624951Y-9940307D01*
X645049Y-9940307D01*
X708782Y-9943438D01*
X728769Y-9945407D01*
X791887Y-9954770D01*
X811608Y-9958693D01*
X873462Y-9974186D01*
X892741Y-9980034D01*
X952788Y-10001520D01*
X971363Y-10009214D01*
X1029043Y-10036495D01*
X1046761Y-10045965D01*
X1101472Y-10078757D01*
X1118204Y-10089938D01*
X1169434Y-10127932D01*
X1184982Y-10140692D01*
X1232250Y-10183534D01*
X1246466Y-10197750D01*
X1289308Y-10245018D01*
X1302068Y-10260566D01*
X1340062Y-10311796D01*
X1351243Y-10328528D01*
X1384035Y-10383239D01*
X1393509Y-10400964D01*
X1408545Y-10432755D01*
X1432381Y-10464628D01*
X1466760Y-10484679D01*
X1498944Y-10490000D01*
X3316763Y-10490000D01*
X3336862Y-10490988D01*
X3358803Y-10493148D01*
X3398181Y-10500981D01*
X3416922Y-10506666D01*
X3454032Y-10522037D01*
X3471299Y-10531266D01*
X3504685Y-10553574D01*
X3519972Y-10566119D01*
X3534368Y-10580406D01*
X3539033Y-10583471D01*
X4986178Y-12030616D01*
X4989623Y-12035661D01*
X5003910Y-12050057D01*
X5016455Y-12065344D01*
X5038763Y-12098730D01*
X5047992Y-12115997D01*
X5063363Y-12153107D01*
X5069047Y-12171847D01*
X5076882Y-12211229D01*
X5079043Y-12233165D01*
X5080030Y-12253251D01*
X5080030Y-15265306D01*
X5079043Y-15285390D01*
X5076882Y-15307326D01*
X5069047Y-15346710D01*
X5063363Y-15365448D01*
X5047992Y-15402558D01*
X5038763Y-15419825D01*
X5016455Y-15453211D01*
X5002474Y-15470249D01*
X4988968Y-15485150D01*
X3750328Y-16723790D01*
X3735427Y-16737296D01*
X3718389Y-16751277D01*
X3685003Y-16773585D01*
X3667736Y-16782814D01*
X3630626Y-16798185D01*
X3611885Y-16803870D01*
X3572507Y-16811703D01*
X3550566Y-16813863D01*
X3530467Y-16814851D01*
X-1021556Y-16814852D01*
X-1060560Y-16822772D01*
X-1092267Y-16844141D01*
X-6461498Y-22213372D01*
X-6483477Y-22246552D01*
X-6490787Y-22284083D01*
X-6490787Y-29707707D01*
X-6482867Y-29746711D01*
X-6461498Y-29778418D01*
X-2170270Y-34069646D01*
X-2166423Y-34075253D01*
X-2152221Y-34089435D01*
X-2139824Y-34104542D01*
X-2117516Y-34137928D01*
X-2108287Y-34155195D01*
X-2092916Y-34192305D01*
X-2087234Y-34211036D01*
X-2079397Y-34250434D01*
X-2077238Y-34272366D01*
X-2076250Y-34292466D01*
X-2076250Y-37138494D01*
X-2068330Y-37177498D01*
X-2046961Y-37209205D01*
X-1230465Y-38025701D01*
X-1197285Y-38047680D01*
X-1159754Y-38054990D01*
X-427746Y-38054990D01*
X-388742Y-38047070D01*
X-357035Y-38025701D01*
X-191568Y-37860234D01*
X-169589Y-37827054D01*
X-162292Y-37787929D01*
X-168125Y-37755833D01*
X-179966Y-37722741D01*
X-185814Y-37703462D01*
X-201307Y-37641608D01*
X-205230Y-37621887D01*
X-214593Y-37558769D01*
X-216562Y-37538782D01*
X-219693Y-37475049D01*
X-219693Y-37454951D01*
X-216562Y-37391218D01*
X-214593Y-37371231D01*
X-205230Y-37308113D01*
X-201307Y-37288392D01*
X-185814Y-37226538D01*
X-179966Y-37207259D01*
X-158480Y-37147212D01*
X-150786Y-37128637D01*
X-123505Y-37070957D01*
X-114035Y-37053239D01*
X-81243Y-36998528D01*
X-70062Y-36981796D01*
X-32068Y-36930566D01*
X-19308Y-36915018D01*
X23534Y-36867750D01*
X37750Y-36853534D01*
X85018Y-36810692D01*
X100566Y-36797932D01*
X151796Y-36759938D01*
X168528Y-36748757D01*
X223239Y-36715965D01*
X240957Y-36706495D01*
X298637Y-36679214D01*
X317212Y-36671520D01*
X377259Y-36650034D01*
X396538Y-36644186D01*
X458392Y-36628693D01*
X478113Y-36624770D01*
X541231Y-36615407D01*
X561218Y-36613438D01*
X624951Y-36610307D01*
X645049Y-36610307D01*
X708782Y-36613438D01*
X728769Y-36615407D01*
X791887Y-36624770D01*
X811608Y-36628693D01*
X873462Y-36644186D01*
X892741Y-36650034D01*
X952788Y-36671520D01*
X971363Y-36679214D01*
X1029043Y-36706495D01*
X1046761Y-36715965D01*
X1101472Y-36748757D01*
X1118204Y-36759938D01*
X1169434Y-36797932D01*
X1184982Y-36810692D01*
X1232250Y-36853534D01*
X1246466Y-36867750D01*
X1289308Y-36915018D01*
X1302068Y-36930566D01*
X1340062Y-36981796D01*
X1351243Y-36998528D01*
X1384035Y-37053239D01*
X1393505Y-37070957D01*
X1420786Y-37128637D01*
X1428480Y-37147212D01*
X1449966Y-37207259D01*
X1455814Y-37226538D01*
X1471307Y-37288392D01*
X1475230Y-37308113D01*
X1484593Y-37371231D01*
X1486562Y-37391218D01*
X1489693Y-37454951D01*
X1489693Y-37475049D01*
X1486562Y-37538782D01*
X1484593Y-37558769D01*
X1475230Y-37621887D01*
X1471307Y-37641608D01*
X1455814Y-37703462D01*
X1449966Y-37722741D01*
X1428480Y-37782788D01*
X1420786Y-37801363D01*
X1393505Y-37859043D01*
X1384035Y-37876761D01*
X1351243Y-37931472D01*
X1340062Y-37948204D01*
X1302068Y-37999434D01*
X1289308Y-38014982D01*
X1246466Y-38062250D01*
X1232250Y-38076466D01*
X1184982Y-38119308D01*
X1169434Y-38132068D01*
X1118204Y-38170062D01*
X1101472Y-38181243D01*
X1046761Y-38214035D01*
X1029043Y-38223505D01*
X971363Y-38250786D01*
X952788Y-38258480D01*
X892741Y-38279966D01*
X873462Y-38285814D01*
X811612Y-38301306D01*
X791872Y-38305233D01*
X786146Y-38306082D01*
X748726Y-38319637D01*
X719557Y-38346714D01*
X703259Y-38383023D01*
X702413Y-38422813D01*
X717155Y-38459782D01*
X745147Y-38488074D01*
X800814Y-38505000D01*
X2279680Y-38505001D01*
X2318683Y-38497081D01*
X2351509Y-38474576D01*
X2373834Y-38438692D01*
X2381522Y-38417207D01*
X2389214Y-38398637D01*
X2416495Y-38340957D01*
X2425965Y-38323239D01*
X2458757Y-38268528D01*
X2469938Y-38251796D01*
X2507932Y-38200566D01*
X2520692Y-38185018D01*
X2563534Y-38137750D01*
X2577750Y-38123534D01*
X2625018Y-38080692D01*
X2640566Y-38067932D01*
X2691796Y-38029938D01*
X2708528Y-38018757D01*
X2763239Y-37985965D01*
X2780957Y-37976495D01*
X2838637Y-37949214D01*
X2857212Y-37941520D01*
X2917259Y-37920034D01*
X2936538Y-37914186D01*
X2998392Y-37898693D01*
X3018113Y-37894770D01*
X3081231Y-37885407D01*
X3101218Y-37883438D01*
X3164951Y-37880307D01*
X3185049Y-37880307D01*
X3248782Y-37883438D01*
X3268769Y-37885407D01*
X3331887Y-37894770D01*
X3351608Y-37898693D01*
X3413462Y-37914186D01*
X3432741Y-37920034D01*
X3492788Y-37941520D01*
X3511363Y-37949214D01*
X3569043Y-37976495D01*
X3586761Y-37985965D01*
X3641472Y-38018757D01*
X3658204Y-38029938D01*
X3709434Y-38067932D01*
X3724982Y-38080692D01*
X3772250Y-38123534D01*
X3786466Y-38137750D01*
X3829308Y-38185018D01*
X3842068Y-38200566D01*
X3880062Y-38251796D01*
X3891243Y-38268528D01*
X3924035Y-38323239D01*
X3933505Y-38340957D01*
X3960786Y-38398637D01*
X3968480Y-38417212D01*
X3989966Y-38477259D01*
X3995814Y-38496538D01*
X4011307Y-38558392D01*
X4015230Y-38578113D01*
X4024593Y-38641231D01*
X4026562Y-38661218D01*
X4029693Y-38724951D01*
X4029693Y-38745049D01*
X4026562Y-38808782D01*
X4024593Y-38828769D01*
X4015230Y-38891887D01*
X4011307Y-38911608D01*
X3995814Y-38973462D01*
X3989966Y-38992741D01*
X3968480Y-39052788D01*
X3960786Y-39071363D01*
X3933505Y-39129043D01*
X3924035Y-39146761D01*
X3891243Y-39201472D01*
X3880062Y-39218204D01*
X3842068Y-39269434D01*
X3829308Y-39284982D01*
X3786466Y-39332250D01*
X3772250Y-39346466D01*
X3724982Y-39389308D01*
X3709434Y-39402068D01*
X3658204Y-39440062D01*
X3641472Y-39451243D01*
X3586761Y-39484035D01*
X3569043Y-39493505D01*
X3511363Y-39520786D01*
X3492788Y-39528480D01*
X3432741Y-39549966D01*
X3413462Y-39555814D01*
X3351612Y-39571306D01*
X3331886Y-39575230D01*
X3268766Y-39584593D01*
X3248784Y-39586562D01*
X3185048Y-39589693D01*
X3164952Y-39589693D01*
X3101216Y-39586562D01*
X3081234Y-39584593D01*
X3018114Y-39575230D01*
X2998388Y-39571306D01*
X2936538Y-39555814D01*
X2917259Y-39549966D01*
X2857212Y-39528480D01*
X2838637Y-39520786D01*
X2780957Y-39493505D01*
X2763239Y-39484035D01*
X2708528Y-39451243D01*
X2691796Y-39440062D01*
X2640566Y-39402068D01*
X2625018Y-39389308D01*
X2577750Y-39346466D01*
X2563534Y-39332250D01*
X2520692Y-39284982D01*
X2507932Y-39269434D01*
X2469938Y-39218204D01*
X2458757Y-39201472D01*
X2425965Y-39146761D01*
X2416495Y-39129043D01*
X2389214Y-39071363D01*
X2381522Y-39052793D01*
X2373834Y-39031308D01*
X2353236Y-38997253D01*
X2320987Y-38973929D01*
X2279680Y-38964999D01*
X800806Y-38964998D01*
X761803Y-38972918D01*
X728977Y-38995423D01*
X707530Y-39028949D01*
X700857Y-39068186D01*
X710016Y-39106917D01*
X733556Y-39139008D01*
X786127Y-39163915D01*
X791882Y-39164769D01*
X811608Y-39168693D01*
X873462Y-39184186D01*
X892741Y-39190034D01*
X952788Y-39211520D01*
X971363Y-39219214D01*
X1029043Y-39246495D01*
X1046761Y-39255965D01*
X1101472Y-39288757D01*
X1118204Y-39299938D01*
X1169434Y-39337932D01*
X1184982Y-39350692D01*
X1232250Y-39393534D01*
X1246466Y-39407750D01*
X1289308Y-39455018D01*
X1302068Y-39470566D01*
X1340062Y-39521796D01*
X1351243Y-39538528D01*
X1384035Y-39593239D01*
X1393505Y-39610957D01*
X1420786Y-39668637D01*
X1428480Y-39687212D01*
X1449966Y-39747259D01*
X1455814Y-39766538D01*
X1471307Y-39828392D01*
X1475230Y-39848113D01*
X1484593Y-39911231D01*
X1486562Y-39931218D01*
X1489693Y-39994951D01*
X1489693Y-40015049D01*
X1486562Y-40078782D01*
X1484593Y-40098769D01*
X1475230Y-40161887D01*
X1471307Y-40181608D01*
X1455814Y-40243462D01*
X1449966Y-40262741D01*
X1428480Y-40322788D01*
X1420786Y-40341363D01*
X1393505Y-40399043D01*
X1384035Y-40416761D01*
X1351243Y-40471472D01*
X1340062Y-40488204D01*
X1302068Y-40539434D01*
X1289308Y-40554982D01*
X1246466Y-40602250D01*
X1232250Y-40616466D01*
X1184982Y-40659308D01*
X1169434Y-40672068D01*
X1118204Y-40710062D01*
X1101472Y-40721243D01*
X1046761Y-40754035D01*
X1029043Y-40763505D01*
X995012Y-40779601D01*
X963140Y-40803437D01*
X943088Y-40837817D01*
X938034Y-40877294D01*
X948778Y-40915616D01*
X973618Y-40946712D01*
X1008619Y-40965657D01*
X1037768Y-40970000D01*
X2311056Y-40970000D01*
X2350060Y-40962080D01*
X2382885Y-40939575D01*
X2401455Y-40912755D01*
X2416491Y-40880964D01*
X2425965Y-40863239D01*
X2458757Y-40808528D01*
X2469938Y-40791796D01*
X2507932Y-40740566D01*
X2520692Y-40725018D01*
X2563534Y-40677750D01*
X2577750Y-40663534D01*
X2625018Y-40620692D01*
X2640566Y-40607932D01*
X2691796Y-40569938D01*
X2708528Y-40558757D01*
X2763239Y-40525965D01*
X2780957Y-40516495D01*
X2838637Y-40489214D01*
X2857212Y-40481520D01*
X2917259Y-40460034D01*
X2936538Y-40454186D01*
X2998392Y-40438693D01*
X3018113Y-40434770D01*
X3081231Y-40425407D01*
X3101218Y-40423438D01*
X3164951Y-40420307D01*
X3185049Y-40420307D01*
X3248782Y-40423438D01*
X3268769Y-40425407D01*
X3331887Y-40434770D01*
X3351608Y-40438693D01*
X3413462Y-40454186D01*
X3432741Y-40460034D01*
X3492788Y-40481520D01*
X3511363Y-40489214D01*
X3569043Y-40516495D01*
X3586761Y-40525965D01*
X3641472Y-40558757D01*
X3658204Y-40569938D01*
X3709434Y-40607932D01*
X3724982Y-40620692D01*
X3772250Y-40663534D01*
X3786466Y-40677750D01*
X3829308Y-40725018D01*
X3842068Y-40740566D01*
X3880062Y-40791796D01*
X3891243Y-40808528D01*
X3924035Y-40863239D01*
X3933505Y-40880957D01*
X3960786Y-40938637D01*
X3968480Y-40957212D01*
X3989966Y-41017259D01*
X3995814Y-41036538D01*
X4011307Y-41098392D01*
X4015230Y-41118113D01*
X4024593Y-41181231D01*
X4026562Y-41201218D01*
X4029693Y-41264951D01*
X4029693Y-41285049D01*
X4026562Y-41348782D01*
X4024593Y-41368769D01*
X4015230Y-41431887D01*
X4011307Y-41451608D01*
X3995814Y-41513462D01*
X3989966Y-41532741D01*
X3968480Y-41592788D01*
X3960786Y-41611363D01*
X3933505Y-41669043D01*
X3924035Y-41686761D01*
X3891243Y-41741472D01*
X3880062Y-41758204D01*
X3842068Y-41809434D01*
X3829308Y-41824982D01*
X3786466Y-41872250D01*
X3772250Y-41886466D01*
X3724982Y-41929308D01*
X3709434Y-41942068D01*
X3658204Y-41980062D01*
X3641472Y-41991243D01*
X3586761Y-42024035D01*
X3569036Y-42033509D01*
X3537245Y-42048545D01*
X3505372Y-42072381D01*
X3485321Y-42106760D01*
X3480000Y-42138944D01*
X3480000Y-43170994D01*
X3487920Y-43209998D01*
X3509289Y-43241705D01*
X7082055Y-46814471D01*
X7115235Y-46836450D01*
X7152766Y-46843760D01*
X10475044Y-46843760D01*
X10477629Y-46843887D01*
X10482537Y-46844007D01*
X10485128Y-46844007D01*
X10499824Y-46844730D01*
X10514940Y-46846219D01*
X10529486Y-46848376D01*
X10544427Y-46851347D01*
X10558699Y-46854923D01*
X10573261Y-46859340D01*
X10587109Y-46864296D01*
X10601145Y-46870110D01*
X10614473Y-46876413D01*
X10627869Y-46883573D01*
X10640509Y-46891149D01*
X10653130Y-46899583D01*
X10664971Y-46908364D01*
X10676723Y-46918008D01*
X10687619Y-46927884D01*
X10698386Y-46938651D01*
X10708262Y-46949547D01*
X10717906Y-46961299D01*
X10726687Y-46973140D01*
X10735121Y-46985761D01*
X10742697Y-46998401D01*
X10749857Y-47011797D01*
X10756160Y-47025125D01*
X10761974Y-47039161D01*
X10766930Y-47053009D01*
X10771347Y-47067571D01*
X10774923Y-47081843D01*
X10777894Y-47096784D01*
X10780051Y-47111330D01*
X10781540Y-47126446D01*
X10782263Y-47141142D01*
X10782263Y-47156378D01*
X10781540Y-47171074D01*
X10780051Y-47186190D01*
X10777894Y-47200736D01*
X10774923Y-47215677D01*
X10771347Y-47229949D01*
X10766930Y-47244511D01*
X10761974Y-47258359D01*
X10756160Y-47272395D01*
X10749857Y-47285723D01*
X10742697Y-47299119D01*
X10735121Y-47311759D01*
X10726687Y-47324380D01*
X10717906Y-47336221D01*
X10708262Y-47347973D01*
X10698386Y-47358869D01*
X10687619Y-47369636D01*
X10676723Y-47379512D01*
X10664971Y-47389156D01*
X10653130Y-47397937D01*
X10640509Y-47406371D01*
X10627869Y-47413947D01*
X10614473Y-47421107D01*
X10601145Y-47427410D01*
X10587109Y-47433224D01*
X10573261Y-47438180D01*
X10558699Y-47442597D01*
X10544427Y-47446173D01*
X10529486Y-47449144D01*
X10514940Y-47451301D01*
X10499824Y-47452790D01*
X10485128Y-47453513D01*
X10482535Y-47453513D01*
X10477626Y-47453634D01*
X10475063Y-47453760D01*
X6987459Y-47453760D01*
X6967373Y-47452773D01*
X6945437Y-47450612D01*
X6906055Y-47442777D01*
X6887315Y-47437093D01*
X6850205Y-47421722D01*
X6832938Y-47412493D01*
X6799552Y-47390185D01*
X6784265Y-47377640D01*
X6769869Y-47363353D01*
X6765204Y-47360288D01*
X2963851Y-43558935D01*
X2960406Y-43553890D01*
X2946119Y-43539494D01*
X2933574Y-43524207D01*
X2911266Y-43490821D01*
X2902037Y-43473554D01*
X2886666Y-43436444D01*
X2880981Y-43417703D01*
X2873148Y-43378325D01*
X2870988Y-43356384D01*
X2870000Y-43336285D01*
X2870000Y-42138944D01*
X2862080Y-42099940D01*
X2839575Y-42067115D01*
X2812755Y-42048545D01*
X2780964Y-42033509D01*
X2763239Y-42024035D01*
X2708528Y-41991243D01*
X2691796Y-41980062D01*
X2640566Y-41942068D01*
X2625018Y-41929308D01*
X2577750Y-41886466D01*
X2563534Y-41872250D01*
X2520692Y-41824982D01*
X2507932Y-41809434D01*
X2469938Y-41758204D01*
X2458757Y-41741472D01*
X2425965Y-41686761D01*
X2416491Y-41669036D01*
X2401455Y-41637245D01*
X2377619Y-41605372D01*
X2343240Y-41585321D01*
X2311056Y-41580000D01*
X104983Y-41580000D01*
X84897Y-41579013D01*
X62961Y-41576852D01*
X23579Y-41569017D01*
X4839Y-41563333D01*
X-32271Y-41547962D01*
X-49533Y-41538735D01*
X-82933Y-41516419D01*
X-99962Y-41502443D01*
X-114861Y-41488939D01*
X-3645218Y-37958582D01*
X-3658724Y-37943681D01*
X-3672705Y-37926643D01*
X-3695013Y-37893257D01*
X-3704242Y-37875990D01*
X-3719613Y-37838880D01*
X-3725297Y-37820142D01*
X-3733132Y-37780758D01*
X-3735293Y-37758822D01*
X-3736280Y-37738738D01*
X-3736280Y-36389529D01*
X-3744200Y-36350525D01*
X-3766705Y-36317700D01*
X-3800232Y-36296252D01*
X-3839468Y-36289580D01*
X-3878199Y-36298739D01*
X-3910290Y-36322280D01*
X-3926679Y-36346773D01*
X-3983065Y-36465992D01*
X-3999485Y-36496711D01*
X-4080206Y-36631385D01*
X-4099557Y-36660346D01*
X-4193089Y-36786461D01*
X-4215199Y-36813403D01*
X-4320638Y-36929736D01*
X-4345264Y-36954361D01*
X-4461612Y-37059812D01*
X-4488528Y-37081902D01*
X-4614644Y-37175436D01*
X-4643624Y-37194800D01*
X-4778296Y-37275519D01*
X-4809006Y-37291934D01*
X-4950956Y-37359071D01*
X-4983131Y-37372398D01*
X-5130953Y-37425290D01*
X-5164314Y-37435410D01*
X-5316604Y-37473556D01*
X-5350775Y-37480353D01*
X-5506105Y-37503394D01*
X-5540741Y-37506806D01*
X-5697591Y-37514512D01*
X-5732409Y-37514512D01*
X-5889246Y-37506806D01*
X-5923910Y-37503393D01*
X-6079237Y-37480352D01*
X-6113385Y-37473560D01*
X-6265698Y-37435407D01*
X-6299036Y-37425294D01*
X-6446853Y-37372405D01*
X-6479058Y-37359065D01*
X-6620985Y-37291939D01*
X-6651704Y-37275519D01*
X-6786395Y-37194787D01*
X-6815345Y-37175443D01*
X-6941461Y-37081910D01*
X-6968397Y-37059804D01*
X-7084724Y-36954372D01*
X-7109372Y-36929724D01*
X-7214804Y-36813397D01*
X-7236910Y-36786461D01*
X-7330443Y-36660345D01*
X-7349787Y-36631395D01*
X-7430519Y-36496704D01*
X-7446939Y-36465985D01*
X-7514065Y-36324058D01*
X-7527405Y-36291853D01*
X-7580294Y-36144036D01*
X-7590407Y-36110698D01*
X-7628560Y-35958385D01*
X-7635352Y-35924237D01*
X-7658393Y-35768910D01*
X-7661806Y-35734246D01*
X-7669512Y-35577409D01*
X-7669512Y-35542591D01*
X-7661806Y-35385754D01*
X-7658393Y-35351090D01*
X-7635352Y-35195763D01*
X-7628560Y-35161615D01*
X-7590407Y-35009302D01*
X-7580294Y-34975964D01*
X-7527405Y-34828147D01*
X-7514065Y-34795942D01*
X-7446939Y-34654015D01*
X-7430519Y-34623296D01*
X-7349787Y-34488605D01*
X-7330443Y-34459655D01*
X-7236910Y-34333539D01*
X-7214804Y-34306603D01*
X-7109372Y-34190276D01*
X-7084724Y-34165628D01*
X-6968397Y-34060196D01*
X-6941461Y-34038090D01*
X-6815345Y-33944557D01*
X-6786395Y-33925213D01*
X-6651704Y-33844481D01*
X-6620985Y-33828061D01*
X-6479058Y-33760935D01*
X-6446853Y-33747595D01*
X-6299036Y-33694706D01*
X-6265698Y-33684593D01*
X-6113385Y-33646440D01*
X-6079237Y-33639648D01*
X-5923910Y-33616607D01*
X-5889246Y-33613194D01*
X-5732409Y-33605488D01*
X-5697591Y-33605488D01*
X-5540741Y-33613194D01*
X-5506105Y-33616606D01*
X-5350775Y-33639647D01*
X-5316604Y-33646444D01*
X-5166140Y-33684133D01*
X-5126381Y-33685928D01*
X-5089071Y-33672072D01*
X-5060120Y-33644763D01*
X-5044114Y-33608324D01*
X-5043587Y-33568528D01*
X-5071131Y-33516419D01*
X-7889289Y-30698261D01*
X-7922469Y-30676282D01*
X-7961594Y-30668985D01*
X-8000466Y-30677525D01*
X-8032929Y-30700551D01*
X-8053839Y-30734415D01*
X-8060000Y-30768972D01*
X-8060000Y-50767491D01*
X-8059992Y-50768719D01*
X-8059181Y-50834780D01*
X-8059121Y-50837235D01*
X-8056780Y-50900757D01*
X-8056660Y-50903204D01*
X-8052763Y-50966662D01*
X-8052582Y-50969114D01*
X-8047126Y-51032458D01*
X-8046886Y-51034897D01*
X-8039882Y-51098063D01*
X-8039581Y-51100501D01*
X-8031026Y-51163485D01*
X-8030666Y-51165912D01*
X-8020566Y-51228681D01*
X-8020147Y-51231098D01*
X-8008514Y-51293581D01*
X-8008035Y-51295989D01*
X-7994875Y-51358152D01*
X-7994337Y-51360546D01*
X-7979645Y-51422412D01*
X-7979049Y-51424794D01*
X-7962840Y-51486291D01*
X-7962185Y-51488656D01*
X-7944491Y-51549670D01*
X-7943779Y-51552018D01*
X-7924580Y-51612622D01*
X-7923810Y-51614953D01*
X-7903133Y-51675057D01*
X-7902306Y-51677367D01*
X-7880151Y-51736972D01*
X-7879267Y-51739264D01*
X-7855676Y-51798253D01*
X-7854737Y-51800519D01*
X-7829683Y-51858966D01*
X-7828689Y-51861210D01*
X-7802223Y-51918991D01*
X-7801173Y-51921210D01*
X-7773285Y-51978349D01*
X-7772182Y-51980541D01*
X-7742916Y-52036948D01*
X-7741760Y-52039111D01*
X-7711106Y-52094807D01*
X-7709896Y-52096943D01*
X-7677888Y-52151863D01*
X-7676625Y-52153969D01*
X-7643272Y-52208097D01*
X-7641959Y-52210170D01*
X-7607307Y-52263434D01*
X-7605944Y-52265476D01*
X-7569976Y-52317901D01*
X-7568562Y-52319907D01*
X-7531323Y-52371427D01*
X-7529862Y-52373398D01*
X-7491386Y-52423968D01*
X-7489876Y-52425902D01*
X-7450147Y-52475543D01*
X-7448589Y-52477442D01*
X-7407658Y-52526086D01*
X-7406056Y-52527943D01*
X-7363944Y-52575569D01*
X-7362295Y-52577388D01*
X-7319055Y-52623935D01*
X-7317363Y-52625713D01*
X-7272957Y-52671222D01*
X-7271222Y-52672957D01*
X-7225714Y-52717362D01*
X-7223936Y-52719055D01*
X-7177380Y-52762303D01*
X-7175561Y-52763951D01*
X-7127959Y-52806042D01*
X-7126102Y-52807644D01*
X-7077436Y-52848594D01*
X-7075537Y-52850152D01*
X-7025909Y-52889871D01*
X-7023975Y-52891381D01*
X-6973393Y-52929866D01*
X-6971422Y-52931328D01*
X-6919899Y-52968569D01*
X-6917892Y-52969982D01*
X-6865481Y-53005940D01*
X-6863441Y-53007303D01*
X-6810178Y-53041955D01*
X-6808104Y-53043268D01*
X-6753966Y-53076627D01*
X-6751859Y-53077890D01*
X-6696944Y-53109894D01*
X-6694811Y-53111103D01*
X-6639110Y-53141761D01*
X-6636946Y-53142918D01*
X-6580544Y-53172182D01*
X-6578351Y-53173285D01*
X-6521204Y-53201177D01*
X-6518984Y-53202227D01*
X-6461225Y-53228682D01*
X-6458982Y-53229677D01*
X-6400537Y-53254730D01*
X-6398269Y-53255669D01*
X-6339244Y-53279273D01*
X-6336955Y-53280156D01*
X-6277380Y-53302301D01*
X-6275070Y-53303128D01*
X-6214959Y-53323808D01*
X-6212628Y-53324577D01*
X-6152023Y-53343777D01*
X-6149674Y-53344490D01*
X-6088631Y-53362192D01*
X-6086266Y-53362846D01*
X-6024781Y-53379052D01*
X-6022398Y-53379649D01*
X-5960596Y-53394325D01*
X-5958204Y-53394863D01*
X-5895962Y-53408040D01*
X-5893555Y-53408518D01*
X-5831088Y-53420149D01*
X-5828669Y-53420569D01*
X-5765929Y-53430664D01*
X-5763501Y-53431024D01*
X-5700490Y-53439582D01*
X-5698054Y-53439883D01*
X-5634884Y-53446888D01*
X-5632441Y-53447128D01*
X-5569101Y-53452582D01*
X-5566653Y-53452763D01*
X-5503231Y-53456659D01*
X-5500783Y-53456779D01*
X-5437236Y-53459121D01*
X-5434781Y-53459181D01*
X-5368720Y-53459992D01*
X-5367492Y-53460000D01*
X13559999Y-53460000D01*
D02*
G37*
%LPC*%
G36*
X10170048Y-1004693D02*
X10149952Y-1004693D01*
X10071514Y-1000840D01*
X10051532Y-998871D01*
X9973842Y-987347D01*
X9954135Y-983427D01*
X9877990Y-964353D01*
X9858714Y-958506D01*
X9784818Y-932065D01*
X9766231Y-924366D01*
X9695274Y-890807D01*
X9677521Y-881318D01*
X9610181Y-840955D01*
X9593450Y-829777D01*
X9530409Y-783022D01*
X9514853Y-770257D01*
X9456694Y-717543D01*
X9442459Y-703307D01*
X9389741Y-645142D01*
X9376990Y-629604D01*
X9330221Y-566545D01*
X9319041Y-549813D01*
X9278677Y-482471D01*
X9269195Y-464733D01*
X9235634Y-393772D01*
X9227934Y-375183D01*
X9201490Y-301275D01*
X9195650Y-282023D01*
X9176573Y-205865D01*
X9172653Y-186158D01*
X9161129Y-108468D01*
X9159160Y-88486D01*
X9155307Y-10048D01*
X9155307Y10048D01*
X9159160Y88486D01*
X9161129Y108468D01*
X9172653Y186158D01*
X9176573Y205865D01*
X9195650Y282023D01*
X9201490Y301275D01*
X9227934Y375183D01*
X9235634Y393772D01*
X9269195Y464733D01*
X9278677Y482471D01*
X9319041Y549813D01*
X9330221Y566545D01*
X9376990Y629604D01*
X9389741Y645142D01*
X9442459Y703307D01*
X9456694Y717543D01*
X9514853Y770257D01*
X9530409Y783022D01*
X9593450Y829777D01*
X9610181Y840955D01*
X9677521Y881318D01*
X9695274Y890807D01*
X9766234Y924368D01*
X9784809Y932062D01*
X9858729Y958511D01*
X9877977Y964350D01*
X9954133Y983426D01*
X9973846Y987347D01*
X10051532Y998871D01*
X10071514Y1000840D01*
X10149952Y1004693D01*
X10170048Y1004693D01*
X10248486Y1000840D01*
X10268468Y998871D01*
X10346158Y987347D01*
X10365865Y983427D01*
X10442010Y964353D01*
X10461286Y958506D01*
X10535182Y932065D01*
X10553769Y924366D01*
X10624726Y890807D01*
X10642479Y881318D01*
X10709813Y840959D01*
X10726545Y829779D01*
X10789604Y783010D01*
X10805142Y770259D01*
X10863306Y717542D01*
X10877542Y703306D01*
X10930259Y645142D01*
X10943010Y629604D01*
X10989779Y566545D01*
X11000959Y549813D01*
X11041318Y482479D01*
X11050807Y464726D01*
X11084366Y393769D01*
X11092065Y375182D01*
X11118506Y301286D01*
X11124353Y282010D01*
X11143427Y205865D01*
X11147347Y186158D01*
X11158871Y108468D01*
X11160840Y88486D01*
X11164693Y10048D01*
X11164693Y-10048D01*
X11160840Y-88486D01*
X11158871Y-108468D01*
X11147347Y-186154D01*
X11143426Y-205867D01*
X11124350Y-282023D01*
X11118511Y-301271D01*
X11092062Y-375191D01*
X11084368Y-393766D01*
X11050807Y-464726D01*
X11041318Y-482479D01*
X11000959Y-549813D01*
X10989779Y-566545D01*
X10943010Y-629604D01*
X10930259Y-645142D01*
X10877542Y-703306D01*
X10863306Y-717542D01*
X10805142Y-770259D01*
X10789604Y-783010D01*
X10726545Y-829779D01*
X10709813Y-840959D01*
X10642479Y-881318D01*
X10624726Y-890807D01*
X10553766Y-924368D01*
X10535191Y-932062D01*
X10461271Y-958511D01*
X10442023Y-964350D01*
X10365867Y-983426D01*
X10346154Y-987347D01*
X10268468Y-998871D01*
X10248486Y-1000840D01*
X10170048Y-1004693D01*
D02*
G37*
%LPC*%
G36*
X7630048Y-1004693D02*
X7609952Y-1004693D01*
X7531514Y-1000840D01*
X7511532Y-998871D01*
X7433842Y-987347D01*
X7414135Y-983427D01*
X7337990Y-964353D01*
X7318714Y-958506D01*
X7244818Y-932065D01*
X7226231Y-924366D01*
X7155274Y-890807D01*
X7137521Y-881318D01*
X7070181Y-840955D01*
X7053450Y-829777D01*
X6990409Y-783022D01*
X6974853Y-770257D01*
X6916694Y-717543D01*
X6902459Y-703307D01*
X6849741Y-645142D01*
X6836990Y-629604D01*
X6790221Y-566545D01*
X6779041Y-549813D01*
X6738677Y-482471D01*
X6729195Y-464733D01*
X6695634Y-393772D01*
X6687934Y-375183D01*
X6661490Y-301275D01*
X6655650Y-282023D01*
X6636573Y-205865D01*
X6632653Y-186158D01*
X6621129Y-108468D01*
X6619160Y-88486D01*
X6615307Y-10048D01*
X6615307Y10048D01*
X6619160Y88486D01*
X6621129Y108468D01*
X6632653Y186158D01*
X6636573Y205865D01*
X6655650Y282023D01*
X6661490Y301275D01*
X6687934Y375183D01*
X6695634Y393772D01*
X6729195Y464733D01*
X6738677Y482471D01*
X6779041Y549813D01*
X6790221Y566545D01*
X6836990Y629604D01*
X6849741Y645142D01*
X6902459Y703307D01*
X6916694Y717543D01*
X6974853Y770257D01*
X6990409Y783022D01*
X7053450Y829777D01*
X7070181Y840955D01*
X7137521Y881318D01*
X7155274Y890807D01*
X7226234Y924368D01*
X7244809Y932062D01*
X7318729Y958511D01*
X7337977Y964350D01*
X7414133Y983426D01*
X7433846Y987347D01*
X7511532Y998871D01*
X7531514Y1000840D01*
X7609952Y1004693D01*
X7630048Y1004693D01*
X7708486Y1000840D01*
X7728468Y998871D01*
X7806158Y987347D01*
X7825865Y983427D01*
X7902010Y964353D01*
X7921286Y958506D01*
X7995182Y932065D01*
X8013769Y924366D01*
X8084726Y890807D01*
X8102479Y881318D01*
X8169813Y840959D01*
X8186545Y829779D01*
X8249604Y783010D01*
X8265142Y770259D01*
X8323306Y717542D01*
X8337542Y703306D01*
X8390259Y645142D01*
X8403010Y629604D01*
X8449779Y566545D01*
X8460959Y549813D01*
X8501318Y482479D01*
X8510807Y464726D01*
X8544366Y393769D01*
X8552065Y375182D01*
X8578506Y301286D01*
X8584353Y282010D01*
X8603427Y205865D01*
X8607347Y186158D01*
X8618871Y108468D01*
X8620840Y88486D01*
X8624693Y10048D01*
X8624693Y-10048D01*
X8620840Y-88486D01*
X8618871Y-108468D01*
X8607347Y-186154D01*
X8603426Y-205867D01*
X8584350Y-282023D01*
X8578511Y-301271D01*
X8552062Y-375191D01*
X8544368Y-393766D01*
X8510807Y-464726D01*
X8501318Y-482479D01*
X8460959Y-549813D01*
X8449779Y-566545D01*
X8403010Y-629604D01*
X8390259Y-645142D01*
X8337542Y-703306D01*
X8323306Y-717542D01*
X8265142Y-770259D01*
X8249604Y-783010D01*
X8186545Y-829779D01*
X8169813Y-840959D01*
X8102479Y-881318D01*
X8084726Y-890807D01*
X8013766Y-924368D01*
X7995191Y-932062D01*
X7921271Y-958511D01*
X7902023Y-964350D01*
X7825867Y-983426D01*
X7806154Y-987347D01*
X7728468Y-998871D01*
X7708486Y-1000840D01*
X7630048Y-1004693D01*
D02*
G37*
%LPC*%
G36*
X2550048Y-1004693D02*
X2529952Y-1004693D01*
X2451514Y-1000840D01*
X2431532Y-998871D01*
X2353842Y-987347D01*
X2334135Y-983427D01*
X2257990Y-964353D01*
X2238714Y-958506D01*
X2164818Y-932065D01*
X2146231Y-924366D01*
X2075274Y-890807D01*
X2057521Y-881318D01*
X1990181Y-840955D01*
X1973450Y-829777D01*
X1910409Y-783022D01*
X1894853Y-770257D01*
X1836694Y-717543D01*
X1822459Y-703307D01*
X1769741Y-645142D01*
X1756990Y-629604D01*
X1710221Y-566545D01*
X1699041Y-549813D01*
X1658677Y-482471D01*
X1649195Y-464733D01*
X1615634Y-393772D01*
X1607934Y-375183D01*
X1581490Y-301275D01*
X1575650Y-282023D01*
X1556573Y-205865D01*
X1552653Y-186158D01*
X1541129Y-108468D01*
X1539160Y-88486D01*
X1535307Y-10048D01*
X1535307Y10048D01*
X1539160Y88486D01*
X1541129Y108468D01*
X1552653Y186158D01*
X1556573Y205865D01*
X1575650Y282023D01*
X1581490Y301275D01*
X1607934Y375183D01*
X1615634Y393772D01*
X1649195Y464733D01*
X1658677Y482471D01*
X1699041Y549813D01*
X1710221Y566545D01*
X1756990Y629604D01*
X1769741Y645142D01*
X1822459Y703307D01*
X1836694Y717543D01*
X1894853Y770257D01*
X1910409Y783022D01*
X1973450Y829777D01*
X1990181Y840955D01*
X2057521Y881318D01*
X2075274Y890807D01*
X2146234Y924368D01*
X2164809Y932062D01*
X2238729Y958511D01*
X2257977Y964350D01*
X2334133Y983426D01*
X2353846Y987347D01*
X2431532Y998871D01*
X2451514Y1000840D01*
X2529952Y1004693D01*
X2550048Y1004693D01*
X2628486Y1000840D01*
X2648468Y998871D01*
X2726158Y987347D01*
X2745865Y983427D01*
X2822010Y964353D01*
X2841286Y958506D01*
X2915182Y932065D01*
X2933769Y924366D01*
X3004726Y890807D01*
X3022479Y881318D01*
X3089813Y840959D01*
X3106545Y829779D01*
X3169604Y783010D01*
X3185142Y770259D01*
X3243306Y717542D01*
X3257542Y703306D01*
X3310259Y645142D01*
X3323010Y629604D01*
X3369779Y566545D01*
X3380959Y549813D01*
X3421318Y482479D01*
X3430807Y464726D01*
X3464366Y393769D01*
X3472065Y375182D01*
X3498506Y301286D01*
X3504353Y282010D01*
X3523427Y205865D01*
X3527347Y186158D01*
X3538871Y108468D01*
X3540840Y88486D01*
X3544693Y10048D01*
X3544693Y-10048D01*
X3540840Y-88486D01*
X3538871Y-108468D01*
X3527347Y-186154D01*
X3523426Y-205867D01*
X3504350Y-282023D01*
X3498511Y-301271D01*
X3472062Y-375191D01*
X3464368Y-393766D01*
X3430807Y-464726D01*
X3421318Y-482479D01*
X3380959Y-549813D01*
X3369779Y-566545D01*
X3323010Y-629604D01*
X3310259Y-645142D01*
X3257542Y-703306D01*
X3243306Y-717542D01*
X3185142Y-770259D01*
X3169604Y-783010D01*
X3106545Y-829779D01*
X3089813Y-840959D01*
X3022479Y-881318D01*
X3004726Y-890807D01*
X2933766Y-924368D01*
X2915191Y-932062D01*
X2841271Y-958511D01*
X2822023Y-964350D01*
X2745867Y-983426D01*
X2726154Y-987347D01*
X2648468Y-998871D01*
X2628486Y-1000840D01*
X2550048Y-1004693D01*
D02*
G37*
%LPC*%
G36*
X10048Y-1004693D02*
X-10048Y-1004693D01*
X-88486Y-1000840D01*
X-108468Y-998871D01*
X-186158Y-987347D01*
X-205865Y-983427D01*
X-282010Y-964353D01*
X-301286Y-958506D01*
X-375182Y-932065D01*
X-393769Y-924366D01*
X-464726Y-890807D01*
X-482479Y-881318D01*
X-549819Y-840955D01*
X-566550Y-829777D01*
X-629591Y-783022D01*
X-645147Y-770257D01*
X-703306Y-717543D01*
X-717541Y-703307D01*
X-770259Y-645142D01*
X-783010Y-629604D01*
X-829779Y-566545D01*
X-840959Y-549813D01*
X-881323Y-482471D01*
X-890805Y-464733D01*
X-924366Y-393772D01*
X-932066Y-375183D01*
X-958510Y-301275D01*
X-964350Y-282023D01*
X-983427Y-205865D01*
X-987347Y-186158D01*
X-998871Y-108468D01*
X-1000840Y-88486D01*
X-1004693Y-10048D01*
X-1004693Y10048D01*
X-1000840Y88486D01*
X-998871Y108468D01*
X-987347Y186158D01*
X-983427Y205865D01*
X-964350Y282023D01*
X-958510Y301275D01*
X-932066Y375183D01*
X-924366Y393772D01*
X-890805Y464733D01*
X-881323Y482471D01*
X-840959Y549813D01*
X-829779Y566545D01*
X-783010Y629604D01*
X-770259Y645142D01*
X-717541Y703307D01*
X-703306Y717543D01*
X-645147Y770257D01*
X-629591Y783022D01*
X-566550Y829777D01*
X-549819Y840955D01*
X-482479Y881318D01*
X-464726Y890807D01*
X-393766Y924368D01*
X-375191Y932062D01*
X-301271Y958511D01*
X-282023Y964350D01*
X-205867Y983426D01*
X-186154Y987347D01*
X-108468Y998871D01*
X-88486Y1000840D01*
X-10048Y1004693D01*
X10048Y1004693D01*
X88486Y1000840D01*
X108468Y998871D01*
X186158Y987347D01*
X205865Y983427D01*
X282010Y964353D01*
X301286Y958506D01*
X375182Y932065D01*
X393769Y924366D01*
X464726Y890807D01*
X482479Y881318D01*
X549813Y840959D01*
X566545Y829779D01*
X629604Y783010D01*
X645142Y770259D01*
X703306Y717542D01*
X717542Y703306D01*
X770259Y645142D01*
X783010Y629604D01*
X829779Y566545D01*
X840959Y549813D01*
X881318Y482479D01*
X890807Y464726D01*
X924366Y393769D01*
X932065Y375182D01*
X958506Y301286D01*
X964353Y282010D01*
X983427Y205865D01*
X987347Y186158D01*
X998871Y108468D01*
X1000840Y88486D01*
X1004693Y10048D01*
X1004693Y-10048D01*
X1000840Y-88486D01*
X998871Y-108468D01*
X987347Y-186154D01*
X983426Y-205867D01*
X964350Y-282023D01*
X958511Y-301271D01*
X932062Y-375191D01*
X924368Y-393766D01*
X890807Y-464726D01*
X881318Y-482479D01*
X840959Y-549813D01*
X829779Y-566545D01*
X783010Y-629604D01*
X770259Y-645142D01*
X717542Y-703306D01*
X703306Y-717542D01*
X645142Y-770259D01*
X629604Y-783010D01*
X566545Y-829779D01*
X549813Y-840959D01*
X482479Y-881318D01*
X464726Y-890807D01*
X393766Y-924368D01*
X375191Y-932062D01*
X301271Y-958511D01*
X282023Y-964350D01*
X205867Y-983426D01*
X186154Y-987347D01*
X108468Y-998871D01*
X88486Y-1000840D01*
X10048Y-1004693D01*
D02*
G37*
%LPC*%
G36*
X4975000Y105000D02*
X4136216Y105000D01*
X4148137Y185364D01*
X4170792Y275807D01*
X4202202Y363594D01*
X4242068Y447882D01*
X4290004Y527858D01*
X4345548Y602750D01*
X4408165Y671836D01*
X4477248Y734451D01*
X4552144Y789998D01*
X4632117Y837932D01*
X4716407Y877798D01*
X4804192Y909208D01*
X4894637Y931863D01*
X4975000Y943784D01*
X4975000Y105000D01*
D02*
G37*
%LPC*%
G36*
X6023784Y105000D02*
X5185000Y105000D01*
X5185000Y943784D01*
X5265364Y931863D01*
X5355807Y909208D01*
X5443592Y877798D01*
X5527883Y837932D01*
X5607858Y789996D01*
X5682750Y734452D01*
X5751836Y671836D01*
X5814452Y602750D01*
X5869996Y527858D01*
X5917932Y447883D01*
X5957798Y363592D01*
X5989208Y275807D01*
X6011863Y185364D01*
X6023784Y105000D01*
D02*
G37*
%LPC*%
G36*
X-4852589Y-2924512D02*
X-4887409Y-2924512D01*
X-5014838Y-2918251D01*
X-5049505Y-2914837D01*
X-5175691Y-2896120D01*
X-5209872Y-2889321D01*
X-5333618Y-2858324D01*
X-5366941Y-2848214D01*
X-5487056Y-2805237D01*
X-5519239Y-2791906D01*
X-5634574Y-2737356D01*
X-5665291Y-2720938D01*
X-5774707Y-2655357D01*
X-5803680Y-2635999D01*
X-5906145Y-2560005D01*
X-5933076Y-2537903D01*
X-6027591Y-2452240D01*
X-6052239Y-2427592D01*
X-6137902Y-2333077D01*
X-6160004Y-2306146D01*
X-6235998Y-2203681D01*
X-6255356Y-2174708D01*
X-6320937Y-2065292D01*
X-6337355Y-2034575D01*
X-6391905Y-1919240D01*
X-6405236Y-1887057D01*
X-6448213Y-1766942D01*
X-6458323Y-1733619D01*
X-6489320Y-1609873D01*
X-6496119Y-1575692D01*
X-6514836Y-1449506D01*
X-6518250Y-1414839D01*
X-6524511Y-1287410D01*
X-6524511Y-1252591D01*
X-6518250Y-1125162D01*
X-6514836Y-1090495D01*
X-6496119Y-964308D01*
X-6489320Y-930127D01*
X-6458323Y-806381D01*
X-6448213Y-773058D01*
X-6405236Y-652943D01*
X-6391905Y-620760D01*
X-6337355Y-505423D01*
X-6320937Y-474706D01*
X-6255349Y-365281D01*
X-6236005Y-336331D01*
X-6160006Y-233857D01*
X-6137900Y-206921D01*
X-6052228Y-112396D01*
X-6027603Y-87770D01*
X-5933072Y-2092D01*
X-5906154Y19999D01*
X-5803679Y95998D01*
X-5774709Y115355D01*
X-5665291Y180938D01*
X-5634574Y197357D01*
X-5519239Y251906D01*
X-5487056Y265237D01*
X-5366955Y308210D01*
X-5333607Y318326D01*
X-5209861Y349323D01*
X-5175703Y356118D01*
X-5049504Y374837D01*
X-5014837Y378251D01*
X-4887408Y384512D01*
X-4852590Y384512D01*
X-4725161Y378251D01*
X-4690494Y374837D01*
X-4564295Y356118D01*
X-4530137Y349323D01*
X-4406391Y318326D01*
X-4373043Y308210D01*
X-4252942Y265237D01*
X-4220759Y251906D01*
X-4105424Y197356D01*
X-4074707Y180938D01*
X-3965286Y115354D01*
X-3936325Y96003D01*
X-3833845Y19999D01*
X-3806926Y-2092D01*
X-3712395Y-87770D01*
X-3687770Y-112396D01*
X-3602096Y-206923D01*
X-3579994Y-233854D01*
X-3504000Y-336319D01*
X-3484642Y-365292D01*
X-3419061Y-474708D01*
X-3402643Y-505425D01*
X-3348093Y-620760D01*
X-3334762Y-652943D01*
X-3291785Y-773058D01*
X-3281675Y-806381D01*
X-3250678Y-930127D01*
X-3243879Y-964308D01*
X-3225162Y-1090494D01*
X-3221748Y-1125161D01*
X-3215487Y-1252590D01*
X-3215487Y-1287410D01*
X-3221748Y-1414839D01*
X-3225162Y-1449506D01*
X-3243879Y-1575692D01*
X-3250678Y-1609873D01*
X-3281675Y-1733619D01*
X-3291785Y-1766942D01*
X-3334762Y-1887057D01*
X-3348093Y-1919240D01*
X-3402643Y-2034575D01*
X-3419061Y-2065292D01*
X-3484642Y-2174708D01*
X-3504000Y-2203681D01*
X-3579994Y-2306146D01*
X-3602096Y-2333077D01*
X-3687759Y-2427592D01*
X-3712407Y-2452240D01*
X-3806922Y-2537903D01*
X-3833853Y-2560005D01*
X-3936318Y-2635999D01*
X-3965291Y-2655357D01*
X-4074707Y-2720938D01*
X-4105424Y-2737356D01*
X-4220759Y-2791906D01*
X-4252942Y-2805237D01*
X-4373057Y-2848214D01*
X-4406380Y-2858324D01*
X-4530126Y-2889321D01*
X-4564307Y-2896120D01*
X-4690493Y-2914837D01*
X-4725160Y-2918251D01*
X-4852589Y-2924512D01*
D02*
G37*
%LPC*%
G36*
X5185000Y-943784D02*
X5185000Y-105000D01*
X6023784Y-105000D01*
X6011863Y-185363D01*
X5989208Y-275808D01*
X5957798Y-363593D01*
X5917932Y-447882D01*
X5869996Y-527858D01*
X5814452Y-602750D01*
X5751836Y-671836D01*
X5682750Y-734452D01*
X5607858Y-789996D01*
X5527882Y-837932D01*
X5443593Y-877798D01*
X5355808Y-909208D01*
X5265363Y-931863D01*
X5185000Y-943784D01*
D02*
G37*
%LPC*%
G36*
X4975000Y-943784D02*
X4894636Y-931863D01*
X4804193Y-909208D01*
X4716408Y-877798D01*
X4632117Y-837932D01*
X4552144Y-789998D01*
X4477248Y-734451D01*
X4408165Y-671836D01*
X4345548Y-602750D01*
X4290004Y-527858D01*
X4242068Y-447882D01*
X4202202Y-363594D01*
X4170792Y-275807D01*
X4148137Y-185364D01*
X4136216Y-105000D01*
X4975000Y-105000D01*
X4975000Y-943784D01*
D02*
G37*
%LPC*%
G36*
X7630048Y-3544693D02*
X7609952Y-3544693D01*
X7531514Y-3540840D01*
X7511532Y-3538871D01*
X7433842Y-3527347D01*
X7414135Y-3523427D01*
X7337990Y-3504353D01*
X7318714Y-3498506D01*
X7244818Y-3472065D01*
X7226231Y-3464366D01*
X7155274Y-3430807D01*
X7137521Y-3421318D01*
X7070181Y-3380955D01*
X7053450Y-3369777D01*
X6990409Y-3323022D01*
X6974853Y-3310257D01*
X6916694Y-3257543D01*
X6902459Y-3243307D01*
X6849741Y-3185142D01*
X6836990Y-3169604D01*
X6790221Y-3106545D01*
X6779041Y-3089813D01*
X6738677Y-3022471D01*
X6729195Y-3004733D01*
X6695634Y-2933772D01*
X6687934Y-2915183D01*
X6661490Y-2841275D01*
X6655650Y-2822023D01*
X6636573Y-2745865D01*
X6632653Y-2726158D01*
X6621129Y-2648468D01*
X6619160Y-2628486D01*
X6615307Y-2550048D01*
X6615307Y-2529952D01*
X6619160Y-2451514D01*
X6621129Y-2431532D01*
X6632653Y-2353842D01*
X6636573Y-2334135D01*
X6655650Y-2257977D01*
X6661490Y-2238725D01*
X6687934Y-2164817D01*
X6695634Y-2146228D01*
X6729195Y-2075267D01*
X6738677Y-2057529D01*
X6779041Y-1990187D01*
X6790221Y-1973455D01*
X6836990Y-1910396D01*
X6849741Y-1894858D01*
X6902459Y-1836693D01*
X6916694Y-1822457D01*
X6974853Y-1769743D01*
X6990409Y-1756978D01*
X7053450Y-1710223D01*
X7070181Y-1699045D01*
X7137521Y-1658682D01*
X7155274Y-1649193D01*
X7226234Y-1615632D01*
X7244809Y-1607938D01*
X7318729Y-1581489D01*
X7337977Y-1575650D01*
X7414133Y-1556574D01*
X7433846Y-1552653D01*
X7511532Y-1541129D01*
X7531514Y-1539160D01*
X7609952Y-1535307D01*
X7630048Y-1535307D01*
X7708486Y-1539160D01*
X7728468Y-1541129D01*
X7806158Y-1552653D01*
X7825865Y-1556573D01*
X7902010Y-1575647D01*
X7921286Y-1581494D01*
X7995182Y-1607935D01*
X8013769Y-1615634D01*
X8084726Y-1649193D01*
X8102479Y-1658682D01*
X8169813Y-1699041D01*
X8186545Y-1710221D01*
X8249604Y-1756990D01*
X8265142Y-1769741D01*
X8323306Y-1822458D01*
X8337542Y-1836694D01*
X8390259Y-1894858D01*
X8403010Y-1910396D01*
X8449779Y-1973455D01*
X8460959Y-1990187D01*
X8501318Y-2057521D01*
X8510807Y-2075274D01*
X8544366Y-2146231D01*
X8552065Y-2164818D01*
X8578506Y-2238714D01*
X8584353Y-2257990D01*
X8603427Y-2334135D01*
X8607347Y-2353842D01*
X8618871Y-2431532D01*
X8620840Y-2451514D01*
X8624693Y-2529952D01*
X8624693Y-2550048D01*
X8620840Y-2628486D01*
X8618871Y-2648468D01*
X8607347Y-2726154D01*
X8603426Y-2745867D01*
X8584350Y-2822023D01*
X8578511Y-2841271D01*
X8552059Y-2915198D01*
X8544368Y-2933766D01*
X8510807Y-3004726D01*
X8501318Y-3022479D01*
X8460959Y-3089813D01*
X8449779Y-3106545D01*
X8403010Y-3169604D01*
X8390259Y-3185142D01*
X8337542Y-3243306D01*
X8323306Y-3257542D01*
X8265142Y-3310259D01*
X8249604Y-3323010D01*
X8186545Y-3369779D01*
X8169813Y-3380959D01*
X8102479Y-3421318D01*
X8084726Y-3430807D01*
X8013766Y-3464368D01*
X7995191Y-3472062D01*
X7921271Y-3498511D01*
X7902023Y-3504350D01*
X7825867Y-3523426D01*
X7806154Y-3527347D01*
X7728468Y-3538871D01*
X7708486Y-3540840D01*
X7630048Y-3544693D01*
D02*
G37*
%LPC*%
G36*
X5090048Y-3544693D02*
X5069952Y-3544693D01*
X4991514Y-3540840D01*
X4971532Y-3538871D01*
X4893842Y-3527347D01*
X4874135Y-3523427D01*
X4797990Y-3504353D01*
X4778714Y-3498506D01*
X4704818Y-3472065D01*
X4686231Y-3464366D01*
X4615274Y-3430807D01*
X4597521Y-3421318D01*
X4530181Y-3380955D01*
X4513450Y-3369777D01*
X4450409Y-3323022D01*
X4434853Y-3310257D01*
X4376694Y-3257543D01*
X4362459Y-3243307D01*
X4309741Y-3185142D01*
X4296990Y-3169604D01*
X4250221Y-3106545D01*
X4239041Y-3089813D01*
X4198677Y-3022471D01*
X4189195Y-3004733D01*
X4155634Y-2933772D01*
X4147934Y-2915183D01*
X4121490Y-2841275D01*
X4115650Y-2822023D01*
X4096573Y-2745865D01*
X4092653Y-2726158D01*
X4081129Y-2648468D01*
X4079160Y-2628486D01*
X4075307Y-2550048D01*
X4075307Y-2529952D01*
X4079160Y-2451514D01*
X4081129Y-2431532D01*
X4092653Y-2353842D01*
X4096573Y-2334135D01*
X4115650Y-2257977D01*
X4121490Y-2238725D01*
X4147934Y-2164817D01*
X4155634Y-2146228D01*
X4189195Y-2075267D01*
X4198677Y-2057529D01*
X4239041Y-1990187D01*
X4250221Y-1973455D01*
X4296990Y-1910396D01*
X4309741Y-1894858D01*
X4362459Y-1836693D01*
X4376694Y-1822457D01*
X4434853Y-1769743D01*
X4450409Y-1756978D01*
X4513450Y-1710223D01*
X4530181Y-1699045D01*
X4597521Y-1658682D01*
X4615274Y-1649193D01*
X4686234Y-1615632D01*
X4704809Y-1607938D01*
X4778729Y-1581489D01*
X4797977Y-1575650D01*
X4874133Y-1556574D01*
X4893846Y-1552653D01*
X4971532Y-1541129D01*
X4991514Y-1539160D01*
X5069952Y-1535307D01*
X5090048Y-1535307D01*
X5168486Y-1539160D01*
X5188468Y-1541129D01*
X5266158Y-1552653D01*
X5285865Y-1556573D01*
X5362010Y-1575647D01*
X5381286Y-1581494D01*
X5455182Y-1607935D01*
X5473769Y-1615634D01*
X5544726Y-1649193D01*
X5562479Y-1658682D01*
X5629813Y-1699041D01*
X5646545Y-1710221D01*
X5709604Y-1756990D01*
X5725142Y-1769741D01*
X5783306Y-1822458D01*
X5797542Y-1836694D01*
X5850259Y-1894858D01*
X5863010Y-1910396D01*
X5909779Y-1973455D01*
X5920959Y-1990187D01*
X5961318Y-2057521D01*
X5970807Y-2075274D01*
X6004366Y-2146231D01*
X6012065Y-2164818D01*
X6038506Y-2238714D01*
X6044353Y-2257990D01*
X6063427Y-2334135D01*
X6067347Y-2353842D01*
X6078871Y-2431532D01*
X6080840Y-2451514D01*
X6084693Y-2529952D01*
X6084693Y-2550048D01*
X6080840Y-2628486D01*
X6078871Y-2648468D01*
X6067347Y-2726154D01*
X6063426Y-2745867D01*
X6044350Y-2822023D01*
X6038511Y-2841271D01*
X6012059Y-2915198D01*
X6004368Y-2933766D01*
X5970807Y-3004726D01*
X5961318Y-3022479D01*
X5920959Y-3089813D01*
X5909779Y-3106545D01*
X5863010Y-3169604D01*
X5850259Y-3185142D01*
X5797542Y-3243306D01*
X5783306Y-3257542D01*
X5725142Y-3310259D01*
X5709604Y-3323010D01*
X5646545Y-3369779D01*
X5629813Y-3380959D01*
X5562479Y-3421318D01*
X5544726Y-3430807D01*
X5473766Y-3464368D01*
X5455191Y-3472062D01*
X5381271Y-3498511D01*
X5362023Y-3504350D01*
X5285867Y-3523426D01*
X5266154Y-3527347D01*
X5188468Y-3538871D01*
X5168486Y-3540840D01*
X5090048Y-3544693D01*
D02*
G37*
%LPC*%
G36*
X2550048Y-3544693D02*
X2529952Y-3544693D01*
X2451514Y-3540840D01*
X2431532Y-3538871D01*
X2353842Y-3527347D01*
X2334135Y-3523427D01*
X2257990Y-3504353D01*
X2238714Y-3498506D01*
X2164818Y-3472065D01*
X2146231Y-3464366D01*
X2075274Y-3430807D01*
X2057521Y-3421318D01*
X1990181Y-3380955D01*
X1973450Y-3369777D01*
X1910409Y-3323022D01*
X1894853Y-3310257D01*
X1836694Y-3257543D01*
X1822459Y-3243307D01*
X1769741Y-3185142D01*
X1756990Y-3169604D01*
X1710221Y-3106545D01*
X1699041Y-3089813D01*
X1658677Y-3022471D01*
X1649195Y-3004733D01*
X1615634Y-2933772D01*
X1607934Y-2915183D01*
X1581490Y-2841275D01*
X1575650Y-2822023D01*
X1556573Y-2745865D01*
X1552653Y-2726158D01*
X1541129Y-2648468D01*
X1539160Y-2628486D01*
X1535307Y-2550048D01*
X1535307Y-2529952D01*
X1539160Y-2451514D01*
X1541129Y-2431532D01*
X1552653Y-2353842D01*
X1556573Y-2334135D01*
X1575650Y-2257977D01*
X1581490Y-2238725D01*
X1607934Y-2164817D01*
X1615634Y-2146228D01*
X1649195Y-2075267D01*
X1658677Y-2057529D01*
X1699041Y-1990187D01*
X1710221Y-1973455D01*
X1756990Y-1910396D01*
X1769741Y-1894858D01*
X1822459Y-1836693D01*
X1836694Y-1822457D01*
X1894853Y-1769743D01*
X1910409Y-1756978D01*
X1973450Y-1710223D01*
X1990181Y-1699045D01*
X2057521Y-1658682D01*
X2075274Y-1649193D01*
X2146234Y-1615632D01*
X2164809Y-1607938D01*
X2238729Y-1581489D01*
X2257977Y-1575650D01*
X2334133Y-1556574D01*
X2353846Y-1552653D01*
X2431532Y-1541129D01*
X2451514Y-1539160D01*
X2529952Y-1535307D01*
X2550048Y-1535307D01*
X2628486Y-1539160D01*
X2648468Y-1541129D01*
X2726158Y-1552653D01*
X2745865Y-1556573D01*
X2822010Y-1575647D01*
X2841286Y-1581494D01*
X2915182Y-1607935D01*
X2933769Y-1615634D01*
X3004726Y-1649193D01*
X3022479Y-1658682D01*
X3089813Y-1699041D01*
X3106545Y-1710221D01*
X3169604Y-1756990D01*
X3185142Y-1769741D01*
X3243306Y-1822458D01*
X3257542Y-1836694D01*
X3310259Y-1894858D01*
X3323010Y-1910396D01*
X3369779Y-1973455D01*
X3380959Y-1990187D01*
X3421318Y-2057521D01*
X3430807Y-2075274D01*
X3464366Y-2146231D01*
X3472065Y-2164818D01*
X3498506Y-2238714D01*
X3504353Y-2257990D01*
X3523427Y-2334135D01*
X3527347Y-2353842D01*
X3538871Y-2431532D01*
X3540840Y-2451514D01*
X3544693Y-2529952D01*
X3544693Y-2550048D01*
X3540840Y-2628486D01*
X3538871Y-2648468D01*
X3527347Y-2726154D01*
X3523426Y-2745867D01*
X3504350Y-2822023D01*
X3498511Y-2841271D01*
X3472059Y-2915198D01*
X3464368Y-2933766D01*
X3430807Y-3004726D01*
X3421318Y-3022479D01*
X3380959Y-3089813D01*
X3369779Y-3106545D01*
X3323010Y-3169604D01*
X3310259Y-3185142D01*
X3257542Y-3243306D01*
X3243306Y-3257542D01*
X3185142Y-3310259D01*
X3169604Y-3323010D01*
X3106545Y-3369779D01*
X3089813Y-3380959D01*
X3022479Y-3421318D01*
X3004726Y-3430807D01*
X2933766Y-3464368D01*
X2915191Y-3472062D01*
X2841271Y-3498511D01*
X2822023Y-3504350D01*
X2745867Y-3523426D01*
X2726154Y-3527347D01*
X2648468Y-3538871D01*
X2628486Y-3540840D01*
X2550048Y-3544693D01*
D02*
G37*
%LPC*%
G36*
X10048Y-3544693D02*
X-10048Y-3544693D01*
X-88486Y-3540840D01*
X-108468Y-3538871D01*
X-186158Y-3527347D01*
X-205865Y-3523427D01*
X-282010Y-3504353D01*
X-301286Y-3498506D01*
X-375182Y-3472065D01*
X-393769Y-3464366D01*
X-464726Y-3430807D01*
X-482479Y-3421318D01*
X-549819Y-3380955D01*
X-566550Y-3369777D01*
X-629591Y-3323022D01*
X-645147Y-3310257D01*
X-703306Y-3257543D01*
X-717541Y-3243307D01*
X-770259Y-3185142D01*
X-783010Y-3169604D01*
X-829779Y-3106545D01*
X-840959Y-3089813D01*
X-881323Y-3022471D01*
X-890805Y-3004733D01*
X-924366Y-2933772D01*
X-932066Y-2915183D01*
X-958510Y-2841275D01*
X-964350Y-2822023D01*
X-983427Y-2745865D01*
X-987347Y-2726158D01*
X-998871Y-2648468D01*
X-1000840Y-2628486D01*
X-1004693Y-2550048D01*
X-1004693Y-2529952D01*
X-1000840Y-2451514D01*
X-998871Y-2431532D01*
X-987347Y-2353842D01*
X-983427Y-2334135D01*
X-964350Y-2257977D01*
X-958510Y-2238725D01*
X-932066Y-2164817D01*
X-924366Y-2146228D01*
X-890805Y-2075267D01*
X-881323Y-2057529D01*
X-840959Y-1990187D01*
X-829779Y-1973455D01*
X-783010Y-1910396D01*
X-770259Y-1894858D01*
X-717541Y-1836693D01*
X-703306Y-1822457D01*
X-645147Y-1769743D01*
X-629591Y-1756978D01*
X-566550Y-1710223D01*
X-549819Y-1699045D01*
X-482479Y-1658682D01*
X-464726Y-1649193D01*
X-393766Y-1615632D01*
X-375191Y-1607938D01*
X-301271Y-1581489D01*
X-282023Y-1575650D01*
X-205867Y-1556574D01*
X-186154Y-1552653D01*
X-108468Y-1541129D01*
X-88486Y-1539160D01*
X-10048Y-1535307D01*
X10048Y-1535307D01*
X88486Y-1539160D01*
X108468Y-1541129D01*
X186158Y-1552653D01*
X205865Y-1556573D01*
X282010Y-1575647D01*
X301286Y-1581494D01*
X375182Y-1607935D01*
X393769Y-1615634D01*
X464726Y-1649193D01*
X482479Y-1658682D01*
X549813Y-1699041D01*
X566545Y-1710221D01*
X629604Y-1756990D01*
X645142Y-1769741D01*
X703306Y-1822458D01*
X717542Y-1836694D01*
X770259Y-1894858D01*
X783010Y-1910396D01*
X829779Y-1973455D01*
X840959Y-1990187D01*
X881318Y-2057521D01*
X890807Y-2075274D01*
X924366Y-2146231D01*
X932065Y-2164818D01*
X958506Y-2238714D01*
X964353Y-2257990D01*
X983427Y-2334135D01*
X987347Y-2353842D01*
X998871Y-2431532D01*
X1000840Y-2451514D01*
X1004693Y-2529952D01*
X1004693Y-2550048D01*
X1000840Y-2628486D01*
X998871Y-2648468D01*
X987347Y-2726154D01*
X983426Y-2745867D01*
X964350Y-2822023D01*
X958511Y-2841271D01*
X932059Y-2915198D01*
X924368Y-2933766D01*
X890807Y-3004726D01*
X881318Y-3022479D01*
X840959Y-3089813D01*
X829779Y-3106545D01*
X783010Y-3169604D01*
X770259Y-3185142D01*
X717542Y-3243306D01*
X703306Y-3257542D01*
X645142Y-3310259D01*
X629604Y-3323010D01*
X566545Y-3369779D01*
X549813Y-3380959D01*
X482479Y-3421318D01*
X464726Y-3430807D01*
X393766Y-3464368D01*
X375191Y-3472062D01*
X301271Y-3498511D01*
X282023Y-3504350D01*
X205867Y-3523426D01*
X186154Y-3527347D01*
X108468Y-3538871D01*
X88486Y-3540840D01*
X10048Y-3544693D01*
D02*
G37*
%LPC*%
G36*
X10055000Y-2435000D02*
X9216216Y-2435000D01*
X9228137Y-2354636D01*
X9250792Y-2264193D01*
X9282202Y-2176406D01*
X9322068Y-2092118D01*
X9370004Y-2012142D01*
X9425548Y-1937250D01*
X9488165Y-1868164D01*
X9557248Y-1805549D01*
X9632144Y-1750002D01*
X9712117Y-1702068D01*
X9796407Y-1662202D01*
X9884192Y-1630792D01*
X9974637Y-1608137D01*
X10055000Y-1596216D01*
X10055000Y-2435000D01*
D02*
G37*
%LPC*%
G36*
X11103784Y-2435000D02*
X10265000Y-2435000D01*
X10265000Y-1596216D01*
X10345364Y-1608137D01*
X10435807Y-1630792D01*
X10523592Y-1662202D01*
X10607883Y-1702068D01*
X10687858Y-1750004D01*
X10762750Y-1805548D01*
X10831836Y-1868164D01*
X10894452Y-1937250D01*
X10949996Y-2012142D01*
X10997932Y-2092117D01*
X11037798Y-2176408D01*
X11069208Y-2264193D01*
X11091863Y-2354636D01*
X11103784Y-2435000D01*
D02*
G37*
%LPC*%
G36*
X10265000Y-3483784D02*
X10265000Y-2645000D01*
X11103784Y-2645000D01*
X11091863Y-2725363D01*
X11069208Y-2815808D01*
X11037798Y-2903593D01*
X10997932Y-2987882D01*
X10949996Y-3067858D01*
X10894452Y-3142750D01*
X10831836Y-3211836D01*
X10762750Y-3274452D01*
X10687858Y-3329996D01*
X10607882Y-3377932D01*
X10523593Y-3417798D01*
X10435808Y-3449208D01*
X10345363Y-3471863D01*
X10265000Y-3483784D01*
D02*
G37*
%LPC*%
G36*
X10055000Y-3483784D02*
X9974636Y-3471863D01*
X9884193Y-3449208D01*
X9796408Y-3417798D01*
X9712117Y-3377932D01*
X9632144Y-3329998D01*
X9557248Y-3274451D01*
X9488165Y-3211836D01*
X9425548Y-3142750D01*
X9370004Y-3067858D01*
X9322068Y-2987882D01*
X9282202Y-2903594D01*
X9250792Y-2815807D01*
X9228137Y-2725364D01*
X9216216Y-2645000D01*
X10055000Y-2645000D01*
X10055000Y-3483784D01*
D02*
G37*
%LPC*%
G36*
X6675118Y-40786003D02*
X6659882Y-40786003D01*
X6645186Y-40785280D01*
X6630070Y-40783791D01*
X6615524Y-40781634D01*
X6600583Y-40778663D01*
X6586311Y-40775087D01*
X6571749Y-40770670D01*
X6557901Y-40765714D01*
X6543865Y-40759900D01*
X6530537Y-40753597D01*
X6517141Y-40746437D01*
X6504501Y-40738861D01*
X6491880Y-40730427D01*
X6480039Y-40721646D01*
X6468287Y-40712002D01*
X6457391Y-40702126D01*
X6446624Y-40691359D01*
X6436748Y-40680463D01*
X6427104Y-40668711D01*
X6418323Y-40656870D01*
X6409889Y-40644249D01*
X6402313Y-40631609D01*
X6395153Y-40618213D01*
X6388850Y-40604885D01*
X6383036Y-40590849D01*
X6378080Y-40577001D01*
X6373663Y-40562439D01*
X6370087Y-40548167D01*
X6367116Y-40533226D01*
X6364959Y-40518680D01*
X6363470Y-40503564D01*
X6362747Y-40488868D01*
X6362747Y-40486277D01*
X6362627Y-40481369D01*
X6362500Y-40478784D01*
X6362500Y-38426506D01*
X6354580Y-38387502D01*
X6333211Y-38355795D01*
X4189205Y-36211789D01*
X4156025Y-36189810D01*
X4118494Y-36182500D01*
X796199Y-36182500D01*
X776113Y-36181513D01*
X754177Y-36179352D01*
X714795Y-36171517D01*
X696055Y-36165833D01*
X658945Y-36150462D01*
X641678Y-36141233D01*
X608292Y-36118925D01*
X593005Y-36106380D01*
X578609Y-36092093D01*
X573944Y-36089028D01*
X-5928938Y-29586146D01*
X-5942444Y-29571245D01*
X-5956425Y-29554207D01*
X-5978733Y-29520821D01*
X-5987962Y-29503554D01*
X-6003333Y-29466444D01*
X-6009017Y-29447706D01*
X-6016852Y-29408322D01*
X-6019013Y-29386386D01*
X-6020000Y-29366302D01*
X-6020000Y-22544949D01*
X-6019013Y-22524863D01*
X-6016852Y-22502927D01*
X-6009017Y-22463545D01*
X-6003333Y-22444805D01*
X-5987962Y-22407695D01*
X-5978733Y-22390428D01*
X-5956425Y-22357042D01*
X-5943880Y-22341755D01*
X-5929593Y-22327359D01*
X-5926528Y-22322694D01*
X-1013935Y-17410101D01*
X-1008890Y-17406656D01*
X-994494Y-17392369D01*
X-979207Y-17379824D01*
X-945821Y-17357516D01*
X-928554Y-17348287D01*
X-891444Y-17332916D01*
X-872703Y-17327231D01*
X-833325Y-17319398D01*
X-811384Y-17317238D01*
X-791285Y-17316250D01*
X3800994Y-17316250D01*
X3839998Y-17308330D01*
X3871705Y-17286961D01*
X5539461Y-15619205D01*
X5561440Y-15586025D01*
X5568750Y-15548494D01*
X5568750Y-11756506D01*
X5560830Y-11717502D01*
X5539461Y-11685795D01*
X3712955Y-9859289D01*
X3679775Y-9837310D01*
X3642244Y-9830000D01*
X1431199Y-9830000D01*
X1411113Y-9829013D01*
X1389177Y-9826852D01*
X1349795Y-9819017D01*
X1331055Y-9813333D01*
X1293945Y-9797962D01*
X1276678Y-9788733D01*
X1243292Y-9766425D01*
X1228005Y-9753880D01*
X1213609Y-9739593D01*
X1208944Y-9736528D01*
X582601Y-9110185D01*
X579156Y-9105140D01*
X564869Y-9090744D01*
X552324Y-9075457D01*
X530016Y-9042071D01*
X520787Y-9024804D01*
X505416Y-8987694D01*
X499731Y-8968953D01*
X491898Y-8929575D01*
X489738Y-8907634D01*
X488750Y-8887535D01*
X488750Y-6352466D01*
X488877Y-6349881D01*
X488997Y-6344973D01*
X488997Y-6342382D01*
X489720Y-6327686D01*
X491209Y-6312570D01*
X493366Y-6298024D01*
X496337Y-6283083D01*
X499913Y-6268811D01*
X504330Y-6254249D01*
X509286Y-6240401D01*
X515100Y-6226365D01*
X521403Y-6213037D01*
X528563Y-6199641D01*
X536139Y-6187001D01*
X544573Y-6174380D01*
X553354Y-6162539D01*
X562998Y-6150787D01*
X572874Y-6139891D01*
X583641Y-6129124D01*
X594537Y-6119248D01*
X606289Y-6109604D01*
X618130Y-6100823D01*
X630751Y-6092389D01*
X643391Y-6084813D01*
X656787Y-6077653D01*
X670115Y-6071350D01*
X684151Y-6065536D01*
X697999Y-6060580D01*
X712561Y-6056163D01*
X726833Y-6052587D01*
X741774Y-6049616D01*
X756320Y-6047459D01*
X771436Y-6045970D01*
X786132Y-6045247D01*
X801368Y-6045247D01*
X816064Y-6045970D01*
X831180Y-6047459D01*
X845726Y-6049616D01*
X860667Y-6052587D01*
X874939Y-6056163D01*
X889501Y-6060580D01*
X903349Y-6065536D01*
X917385Y-6071350D01*
X930713Y-6077653D01*
X944109Y-6084813D01*
X956749Y-6092389D01*
X969370Y-6100823D01*
X981211Y-6109604D01*
X992963Y-6119248D01*
X1003859Y-6129124D01*
X1014626Y-6139891D01*
X1024502Y-6150787D01*
X1034146Y-6162539D01*
X1042927Y-6174380D01*
X1051361Y-6187001D01*
X1058937Y-6199641D01*
X1066097Y-6213037D01*
X1072400Y-6226365D01*
X1078214Y-6240401D01*
X1083170Y-6254249D01*
X1087587Y-6268811D01*
X1091163Y-6283083D01*
X1094134Y-6298024D01*
X1096291Y-6312570D01*
X1097780Y-6327686D01*
X1098503Y-6342382D01*
X1098503Y-6344975D01*
X1098624Y-6349884D01*
X1098750Y-6352447D01*
X1098750Y-8722244D01*
X1106670Y-8761248D01*
X1128039Y-8792955D01*
X1525795Y-9190711D01*
X1558975Y-9212690D01*
X1596506Y-9220000D01*
X3807535Y-9220000D01*
X3827634Y-9220988D01*
X3849575Y-9223148D01*
X3888953Y-9230981D01*
X3907694Y-9236666D01*
X3944804Y-9252037D01*
X3962071Y-9261266D01*
X3995457Y-9283574D01*
X4010744Y-9296119D01*
X4025140Y-9310406D01*
X4029805Y-9313471D01*
X6084898Y-11368564D01*
X6088343Y-11373609D01*
X6102630Y-11388005D01*
X6115175Y-11403292D01*
X6137483Y-11436678D01*
X6146712Y-11453945D01*
X6162083Y-11491055D01*
X6167767Y-11509795D01*
X6175602Y-11549177D01*
X6177763Y-11571113D01*
X6178750Y-11591199D01*
X6178750Y-15707244D01*
X6186670Y-15746248D01*
X6208039Y-15777955D01*
X8310190Y-17880106D01*
X8311913Y-17882007D01*
X8315296Y-17885561D01*
X8317126Y-17887391D01*
X8327002Y-17898287D01*
X8336646Y-17910039D01*
X8345427Y-17921880D01*
X8353861Y-17934501D01*
X8361437Y-17947141D01*
X8368597Y-17960537D01*
X8374900Y-17973865D01*
X8380714Y-17987901D01*
X8385670Y-18001749D01*
X8390087Y-18016311D01*
X8393663Y-18030583D01*
X8396634Y-18045524D01*
X8398791Y-18060070D01*
X8400280Y-18075186D01*
X8401003Y-18089882D01*
X8401003Y-18105118D01*
X8400280Y-18119814D01*
X8398791Y-18134930D01*
X8396634Y-18149476D01*
X8393663Y-18164417D01*
X8390087Y-18178689D01*
X8385670Y-18193251D01*
X8380714Y-18207099D01*
X8374900Y-18221135D01*
X8368597Y-18234463D01*
X8361437Y-18247859D01*
X8353861Y-18260499D01*
X8345427Y-18273120D01*
X8336646Y-18284961D01*
X8327002Y-18296713D01*
X8317126Y-18307609D01*
X8306359Y-18318376D01*
X8295463Y-18328252D01*
X8283711Y-18337896D01*
X8271870Y-18346677D01*
X8259249Y-18355111D01*
X8246609Y-18362687D01*
X8233213Y-18369847D01*
X8219885Y-18376150D01*
X8205849Y-18381964D01*
X8192001Y-18386920D01*
X8177439Y-18391337D01*
X8163167Y-18394913D01*
X8148226Y-18397884D01*
X8133680Y-18400041D01*
X8118564Y-18401530D01*
X8103868Y-18402253D01*
X8088632Y-18402253D01*
X8073936Y-18401530D01*
X8058820Y-18400041D01*
X8044274Y-18397884D01*
X8029333Y-18394913D01*
X8015061Y-18391337D01*
X8000499Y-18386920D01*
X7986651Y-18381964D01*
X7972615Y-18376150D01*
X7959287Y-18369847D01*
X7945891Y-18362687D01*
X7933251Y-18355111D01*
X7920630Y-18346677D01*
X7908789Y-18337896D01*
X7897037Y-18328252D01*
X7886141Y-18318376D01*
X7884311Y-18316546D01*
X7880757Y-18313163D01*
X7878856Y-18311440D01*
X5865086Y-16297670D01*
X5831906Y-16275691D01*
X5792781Y-16268394D01*
X5753909Y-16276934D01*
X5723664Y-16297670D01*
X4186146Y-17835188D01*
X4171245Y-17848694D01*
X4154207Y-17862675D01*
X4120821Y-17884983D01*
X4103554Y-17894212D01*
X4066444Y-17909583D01*
X4047706Y-17915267D01*
X4008322Y-17923102D01*
X3986386Y-17925263D01*
X3966302Y-17926250D01*
X-625994Y-17926250D01*
X-664998Y-17934170D01*
X-696705Y-17955539D01*
X-1561705Y-18820539D01*
X-1583684Y-18853719D01*
X-1590981Y-18892844D01*
X-1582441Y-18931716D01*
X-1561705Y-18961961D01*
X-1214809Y-19308857D01*
X-1213085Y-19310759D01*
X-1209703Y-19314312D01*
X-1207874Y-19316141D01*
X-1197998Y-19327037D01*
X-1188354Y-19338789D01*
X-1179573Y-19350630D01*
X-1171139Y-19363251D01*
X-1163563Y-19375891D01*
X-1156403Y-19389287D01*
X-1150100Y-19402615D01*
X-1144286Y-19416651D01*
X-1139330Y-19430499D01*
X-1134913Y-19445061D01*
X-1131337Y-19459333D01*
X-1128366Y-19474274D01*
X-1126209Y-19488820D01*
X-1124720Y-19503936D01*
X-1123997Y-19518632D01*
X-1123997Y-19533868D01*
X-1124720Y-19548564D01*
X-1126209Y-19563680D01*
X-1128366Y-19578226D01*
X-1131337Y-19593167D01*
X-1134913Y-19607439D01*
X-1139330Y-19622001D01*
X-1144286Y-19635849D01*
X-1150100Y-19649885D01*
X-1156403Y-19663213D01*
X-1163563Y-19676609D01*
X-1171139Y-19689249D01*
X-1179573Y-19701870D01*
X-1188354Y-19713711D01*
X-1197998Y-19725463D01*
X-1207874Y-19736359D01*
X-1218641Y-19747126D01*
X-1229537Y-19757002D01*
X-1241289Y-19766646D01*
X-1253130Y-19775427D01*
X-1265751Y-19783861D01*
X-1278391Y-19791437D01*
X-1291787Y-19798597D01*
X-1305115Y-19804900D01*
X-1319151Y-19810714D01*
X-1332999Y-19815670D01*
X-1347561Y-19820087D01*
X-1361833Y-19823663D01*
X-1376774Y-19826634D01*
X-1391320Y-19828791D01*
X-1406436Y-19830280D01*
X-1421132Y-19831003D01*
X-1436368Y-19831003D01*
X-1451064Y-19830280D01*
X-1466180Y-19828791D01*
X-1480726Y-19826634D01*
X-1495667Y-19823663D01*
X-1509939Y-19820087D01*
X-1524501Y-19815670D01*
X-1538349Y-19810714D01*
X-1552385Y-19804900D01*
X-1565713Y-19798597D01*
X-1579109Y-19791437D01*
X-1591749Y-19783861D01*
X-1604370Y-19775427D01*
X-1616211Y-19766646D01*
X-1627963Y-19757002D01*
X-1638859Y-19747126D01*
X-1640691Y-19745294D01*
X-1644247Y-19741909D01*
X-1646147Y-19740187D01*
X-1993039Y-19393295D01*
X-2026219Y-19371316D01*
X-2065344Y-19364019D01*
X-2104216Y-19372559D01*
X-2134461Y-19393295D01*
X-5380711Y-22639545D01*
X-5402690Y-22672725D01*
X-5410000Y-22710256D01*
X-5410000Y-29200994D01*
X-5402080Y-29239998D01*
X-5380711Y-29271705D01*
X-2318836Y-32333580D01*
X-2285656Y-32355559D01*
X-2246531Y-32362856D01*
X-2207659Y-32354316D01*
X-2177414Y-32333580D01*
X-267851Y-30424017D01*
X-266748Y-30423263D01*
X-261359Y-30417874D01*
X-250463Y-30407998D01*
X-238711Y-30398354D01*
X-226870Y-30389573D01*
X-214249Y-30381139D01*
X-201609Y-30373563D01*
X-188213Y-30366403D01*
X-174885Y-30360100D01*
X-160849Y-30354286D01*
X-147001Y-30349330D01*
X-132439Y-30344913D01*
X-118167Y-30341337D01*
X-103226Y-30338366D01*
X-88680Y-30336209D01*
X-73564Y-30334720D01*
X-58868Y-30333997D01*
X-56277Y-30333997D01*
X-51369Y-30333877D01*
X-48784Y-30333750D01*
X9363784Y-30333750D01*
X9366369Y-30333877D01*
X9371277Y-30333997D01*
X9373868Y-30333997D01*
X9388564Y-30334720D01*
X9403680Y-30336209D01*
X9418226Y-30338366D01*
X9433167Y-30341337D01*
X9447439Y-30344913D01*
X9462001Y-30349330D01*
X9475849Y-30354286D01*
X9489885Y-30360100D01*
X9503213Y-30366403D01*
X9516609Y-30373563D01*
X9529249Y-30381139D01*
X9541870Y-30389573D01*
X9553711Y-30398354D01*
X9565463Y-30407998D01*
X9576359Y-30417874D01*
X9587126Y-30428641D01*
X9597002Y-30439537D01*
X9606646Y-30451289D01*
X9615427Y-30463130D01*
X9623861Y-30475751D01*
X9631437Y-30488391D01*
X9638597Y-30501787D01*
X9644900Y-30515115D01*
X9650714Y-30529151D01*
X9655670Y-30542999D01*
X9660087Y-30557561D01*
X9663663Y-30571833D01*
X9666634Y-30586774D01*
X9668791Y-30601320D01*
X9670280Y-30616436D01*
X9671003Y-30631132D01*
X9671003Y-30646368D01*
X9670280Y-30661064D01*
X9668791Y-30676180D01*
X9666634Y-30690726D01*
X9663663Y-30705667D01*
X9660087Y-30719939D01*
X9655670Y-30734501D01*
X9650714Y-30748349D01*
X9644900Y-30762385D01*
X9638597Y-30775713D01*
X9631437Y-30789109D01*
X9623861Y-30801749D01*
X9615427Y-30814370D01*
X9606646Y-30826211D01*
X9597002Y-30837963D01*
X9587126Y-30848859D01*
X9576359Y-30859626D01*
X9565463Y-30869502D01*
X9553711Y-30879146D01*
X9541870Y-30887927D01*
X9529249Y-30896361D01*
X9516609Y-30903937D01*
X9503213Y-30911097D01*
X9489885Y-30917400D01*
X9475849Y-30923214D01*
X9462001Y-30928170D01*
X9447439Y-30932587D01*
X9433167Y-30936163D01*
X9418226Y-30939134D01*
X9403680Y-30941291D01*
X9388564Y-30942780D01*
X9373868Y-30943503D01*
X9371275Y-30943503D01*
X9366366Y-30943624D01*
X9363803Y-30943750D01*
X116506Y-30943750D01*
X77502Y-30951670D01*
X45795Y-30973039D01*
X-1746080Y-32764914D01*
X-1768059Y-32798094D01*
X-1775356Y-32837219D01*
X-1766816Y-32876091D01*
X-1746080Y-32906336D01*
X890795Y-35543211D01*
X923975Y-35565190D01*
X961506Y-35572500D01*
X4283785Y-35572500D01*
X4303884Y-35573488D01*
X4325825Y-35575648D01*
X4365203Y-35583481D01*
X4383944Y-35589166D01*
X4421054Y-35604537D01*
X4438321Y-35613766D01*
X4471707Y-35636074D01*
X4486994Y-35648619D01*
X4501390Y-35662906D01*
X4506055Y-35665971D01*
X6878648Y-38038564D01*
X6882093Y-38043609D01*
X6896380Y-38058005D01*
X6908925Y-38073292D01*
X6931233Y-38106678D01*
X6940462Y-38123945D01*
X6955833Y-38161055D01*
X6961517Y-38179795D01*
X6969352Y-38219177D01*
X6971513Y-38241113D01*
X6972500Y-38261199D01*
X6972500Y-40478803D01*
X6972374Y-40481366D01*
X6972253Y-40486275D01*
X6972253Y-40488868D01*
X6971530Y-40503564D01*
X6970041Y-40518680D01*
X6967884Y-40533226D01*
X6964913Y-40548167D01*
X6961337Y-40562439D01*
X6956920Y-40577001D01*
X6951964Y-40590849D01*
X6946150Y-40604885D01*
X6939847Y-40618213D01*
X6932687Y-40631609D01*
X6925111Y-40644249D01*
X6916677Y-40656870D01*
X6907896Y-40668711D01*
X6898252Y-40680463D01*
X6888376Y-40691359D01*
X6877609Y-40702126D01*
X6866713Y-40712002D01*
X6854961Y-40721646D01*
X6843120Y-40730427D01*
X6830499Y-40738861D01*
X6817859Y-40746437D01*
X6804463Y-40753597D01*
X6791135Y-40759900D01*
X6777099Y-40765714D01*
X6763251Y-40770670D01*
X6748689Y-40775087D01*
X6734417Y-40778663D01*
X6719476Y-40781634D01*
X6704930Y-40783791D01*
X6689814Y-40785280D01*
X6675118Y-40786003D01*
D02*
G37*
%LPC*%
G36*
X-5697591Y-10844512D02*
X-5732409Y-10844512D01*
X-5889246Y-10836806D01*
X-5923910Y-10833393D01*
X-6079237Y-10810352D01*
X-6113385Y-10803560D01*
X-6265698Y-10765407D01*
X-6299036Y-10755294D01*
X-6446853Y-10702405D01*
X-6479058Y-10689065D01*
X-6620985Y-10621939D01*
X-6651704Y-10605519D01*
X-6786395Y-10524787D01*
X-6815345Y-10505443D01*
X-6941461Y-10411910D01*
X-6968397Y-10389804D01*
X-7084724Y-10284372D01*
X-7109372Y-10259724D01*
X-7214804Y-10143397D01*
X-7236910Y-10116461D01*
X-7330443Y-9990345D01*
X-7349787Y-9961395D01*
X-7430519Y-9826704D01*
X-7446939Y-9795985D01*
X-7514065Y-9654058D01*
X-7527405Y-9621853D01*
X-7580294Y-9474036D01*
X-7590407Y-9440698D01*
X-7628560Y-9288385D01*
X-7635352Y-9254237D01*
X-7658393Y-9098910D01*
X-7661806Y-9064246D01*
X-7669512Y-8907409D01*
X-7669512Y-8872591D01*
X-7661806Y-8715754D01*
X-7658393Y-8681090D01*
X-7635352Y-8525763D01*
X-7628560Y-8491615D01*
X-7590407Y-8339302D01*
X-7580294Y-8305964D01*
X-7527405Y-8158147D01*
X-7514065Y-8125942D01*
X-7446939Y-7984015D01*
X-7430519Y-7953296D01*
X-7349787Y-7818605D01*
X-7330443Y-7789655D01*
X-7236910Y-7663539D01*
X-7214804Y-7636603D01*
X-7109372Y-7520276D01*
X-7084724Y-7495628D01*
X-6968397Y-7390196D01*
X-6941461Y-7368090D01*
X-6815345Y-7274557D01*
X-6786395Y-7255213D01*
X-6651704Y-7174481D01*
X-6620985Y-7158061D01*
X-6479058Y-7090935D01*
X-6446853Y-7077595D01*
X-6299036Y-7024706D01*
X-6265698Y-7014593D01*
X-6113385Y-6976440D01*
X-6079237Y-6969648D01*
X-5923910Y-6946607D01*
X-5889246Y-6943194D01*
X-5732409Y-6935488D01*
X-5697591Y-6935488D01*
X-5540741Y-6943194D01*
X-5506105Y-6946606D01*
X-5350775Y-6969647D01*
X-5316604Y-6976444D01*
X-5164297Y-7014594D01*
X-5130969Y-7024704D01*
X-4983147Y-7077595D01*
X-4950942Y-7090935D01*
X-4809006Y-7158066D01*
X-4778296Y-7174481D01*
X-4643624Y-7255200D01*
X-4614644Y-7274564D01*
X-4488528Y-7368098D01*
X-4461612Y-7390188D01*
X-4345264Y-7495639D01*
X-4320638Y-7520264D01*
X-4215189Y-7636609D01*
X-4193098Y-7663528D01*
X-4099557Y-7789654D01*
X-4080206Y-7818614D01*
X-3999481Y-7953296D01*
X-3983066Y-7984006D01*
X-3915935Y-8125942D01*
X-3902595Y-8158147D01*
X-3849706Y-8305964D01*
X-3839593Y-8339302D01*
X-3801444Y-8491599D01*
X-3794645Y-8525780D01*
X-3771608Y-8681090D01*
X-3768194Y-8715756D01*
X-3760488Y-8872590D01*
X-3760488Y-8907410D01*
X-3768194Y-9064244D01*
X-3771608Y-9098910D01*
X-3794645Y-9254220D01*
X-3801444Y-9288401D01*
X-3839593Y-9440698D01*
X-3849706Y-9474036D01*
X-3902595Y-9621853D01*
X-3915935Y-9654058D01*
X-3983061Y-9795985D01*
X-3999485Y-9826711D01*
X-4080206Y-9961385D01*
X-4099557Y-9990346D01*
X-4193089Y-10116461D01*
X-4215199Y-10143403D01*
X-4320638Y-10259736D01*
X-4345264Y-10284361D01*
X-4461612Y-10389812D01*
X-4488528Y-10411902D01*
X-4614644Y-10505436D01*
X-4643624Y-10524800D01*
X-4778296Y-10605519D01*
X-4809006Y-10621934D01*
X-4950956Y-10689071D01*
X-4983131Y-10702398D01*
X-5130953Y-10755290D01*
X-5164314Y-10765410D01*
X-5316604Y-10803556D01*
X-5350775Y-10810353D01*
X-5506105Y-10833394D01*
X-5540741Y-10836806D01*
X-5697591Y-10844512D01*
D02*
G37*
%LPC*%
G36*
X-5697591Y-45134512D02*
X-5732409Y-45134512D01*
X-5889246Y-45126806D01*
X-5923910Y-45123393D01*
X-6079237Y-45100352D01*
X-6113385Y-45093560D01*
X-6265698Y-45055407D01*
X-6299036Y-45045294D01*
X-6446853Y-44992405D01*
X-6479058Y-44979065D01*
X-6620985Y-44911939D01*
X-6651704Y-44895519D01*
X-6786395Y-44814787D01*
X-6815345Y-44795443D01*
X-6941461Y-44701910D01*
X-6968397Y-44679804D01*
X-7084724Y-44574372D01*
X-7109372Y-44549724D01*
X-7214804Y-44433397D01*
X-7236910Y-44406461D01*
X-7330443Y-44280345D01*
X-7349787Y-44251395D01*
X-7430519Y-44116704D01*
X-7446939Y-44085985D01*
X-7514065Y-43944058D01*
X-7527405Y-43911853D01*
X-7580294Y-43764036D01*
X-7590407Y-43730698D01*
X-7628560Y-43578385D01*
X-7635352Y-43544237D01*
X-7658393Y-43388910D01*
X-7661806Y-43354246D01*
X-7669512Y-43197409D01*
X-7669512Y-43162591D01*
X-7661806Y-43005754D01*
X-7658393Y-42971090D01*
X-7635352Y-42815763D01*
X-7628560Y-42781615D01*
X-7590407Y-42629302D01*
X-7580294Y-42595964D01*
X-7527405Y-42448147D01*
X-7514065Y-42415942D01*
X-7446939Y-42274015D01*
X-7430519Y-42243296D01*
X-7349787Y-42108605D01*
X-7330443Y-42079655D01*
X-7236910Y-41953539D01*
X-7214804Y-41926603D01*
X-7109372Y-41810276D01*
X-7084724Y-41785628D01*
X-6968397Y-41680196D01*
X-6941461Y-41658090D01*
X-6815345Y-41564557D01*
X-6786395Y-41545213D01*
X-6651704Y-41464481D01*
X-6620985Y-41448061D01*
X-6479058Y-41380935D01*
X-6446853Y-41367595D01*
X-6299036Y-41314706D01*
X-6265698Y-41304593D01*
X-6113385Y-41266440D01*
X-6079237Y-41259648D01*
X-5923910Y-41236607D01*
X-5889246Y-41233194D01*
X-5732409Y-41225488D01*
X-5697591Y-41225488D01*
X-5540741Y-41233194D01*
X-5506105Y-41236606D01*
X-5350775Y-41259647D01*
X-5316604Y-41266444D01*
X-5164297Y-41304594D01*
X-5130969Y-41314704D01*
X-4983147Y-41367595D01*
X-4950942Y-41380935D01*
X-4809006Y-41448066D01*
X-4778296Y-41464481D01*
X-4643624Y-41545200D01*
X-4614644Y-41564564D01*
X-4488528Y-41658098D01*
X-4461612Y-41680188D01*
X-4345264Y-41785639D01*
X-4320638Y-41810264D01*
X-4215189Y-41926609D01*
X-4193098Y-41953528D01*
X-4099557Y-42079654D01*
X-4080206Y-42108614D01*
X-3999481Y-42243296D01*
X-3983066Y-42274006D01*
X-3915935Y-42415942D01*
X-3902595Y-42448147D01*
X-3849706Y-42595964D01*
X-3839593Y-42629302D01*
X-3801444Y-42781599D01*
X-3794645Y-42815780D01*
X-3771608Y-42971090D01*
X-3768194Y-43005756D01*
X-3760488Y-43162590D01*
X-3760488Y-43197410D01*
X-3768194Y-43354244D01*
X-3771608Y-43388910D01*
X-3794645Y-43544220D01*
X-3801444Y-43578401D01*
X-3839593Y-43730698D01*
X-3849706Y-43764036D01*
X-3902595Y-43911853D01*
X-3915935Y-43944058D01*
X-3983061Y-44085985D01*
X-3999485Y-44116711D01*
X-4080206Y-44251385D01*
X-4099557Y-44280346D01*
X-4193089Y-44406461D01*
X-4215199Y-44433403D01*
X-4320638Y-44549736D01*
X-4345264Y-44574361D01*
X-4461612Y-44679812D01*
X-4488528Y-44701902D01*
X-4614644Y-44795436D01*
X-4643624Y-44814800D01*
X-4778296Y-44895519D01*
X-4809006Y-44911934D01*
X-4950956Y-44979071D01*
X-4983131Y-44992398D01*
X-5130953Y-45045290D01*
X-5164314Y-45055410D01*
X-5316604Y-45093556D01*
X-5350775Y-45100353D01*
X-5506105Y-45123394D01*
X-5540741Y-45126806D01*
X-5697591Y-45134512D01*
D02*
G37*
%LPC*%
G36*
X2463723Y-48815000D02*
X1677952Y-48815000D01*
X1620315Y-48805772D01*
X1587021Y-48789982D01*
X1557373Y-48765336D01*
X1534765Y-48734109D01*
X1520610Y-48698252D01*
X1515000Y-48653723D01*
X1515000Y-47867952D01*
X1524228Y-47810315D01*
X1540018Y-47777021D01*
X1564664Y-47747373D01*
X1595891Y-47724765D01*
X1631748Y-47710610D01*
X1676277Y-47705000D01*
X2255540Y-47705000D01*
X2294544Y-47697080D01*
X2326483Y-47675478D01*
X2687830Y-47311745D01*
X2709700Y-47278493D01*
X2715273Y-47257897D01*
X2715389Y-47257920D01*
X2715729Y-47256213D01*
X2715807Y-47255923D01*
X2715868Y-47255513D01*
X2718837Y-47240583D01*
X2722413Y-47226311D01*
X2726830Y-47211749D01*
X2731786Y-47197901D01*
X2737600Y-47183865D01*
X2743903Y-47170537D01*
X2751063Y-47157141D01*
X2758639Y-47144501D01*
X2767073Y-47131880D01*
X2775854Y-47120039D01*
X2785498Y-47108287D01*
X2795374Y-47097391D01*
X2806141Y-47086624D01*
X2817037Y-47076748D01*
X2828789Y-47067104D01*
X2840630Y-47058323D01*
X2853251Y-47049889D01*
X2865891Y-47042313D01*
X2879287Y-47035153D01*
X2892615Y-47028850D01*
X2906651Y-47023036D01*
X2920499Y-47018080D01*
X2935061Y-47013663D01*
X2949333Y-47010087D01*
X2964274Y-47007116D01*
X2978820Y-47004959D01*
X2993936Y-47003470D01*
X3008632Y-47002747D01*
X3023868Y-47002747D01*
X3038564Y-47003470D01*
X3053680Y-47004959D01*
X3068226Y-47007116D01*
X3083167Y-47010087D01*
X3097439Y-47013663D01*
X3112001Y-47018080D01*
X3125849Y-47023036D01*
X3139885Y-47028850D01*
X3153213Y-47035153D01*
X3166609Y-47042313D01*
X3179249Y-47049889D01*
X3191870Y-47058323D01*
X3203711Y-47067104D01*
X3215463Y-47076748D01*
X3226359Y-47086624D01*
X3237126Y-47097391D01*
X3247002Y-47108287D01*
X3256646Y-47120039D01*
X3265427Y-47131880D01*
X3273861Y-47144501D01*
X3281437Y-47157141D01*
X3288597Y-47170537D01*
X3294900Y-47183865D01*
X3300714Y-47197901D01*
X3305670Y-47211749D01*
X3310087Y-47226311D01*
X3313663Y-47240583D01*
X3316634Y-47255524D01*
X3318791Y-47270070D01*
X3320280Y-47285186D01*
X3321003Y-47299882D01*
X3321003Y-47315118D01*
X3320280Y-47329814D01*
X3318791Y-47344930D01*
X3316634Y-47359476D01*
X3313663Y-47374417D01*
X3310087Y-47388689D01*
X3305670Y-47403251D01*
X3300714Y-47417099D01*
X3294900Y-47431135D01*
X3288597Y-47444463D01*
X3281437Y-47457859D01*
X3273861Y-47470499D01*
X3265427Y-47483120D01*
X3256646Y-47494961D01*
X3247002Y-47506713D01*
X3237126Y-47517609D01*
X3226359Y-47528376D01*
X3215463Y-47538252D01*
X3203711Y-47547896D01*
X3191870Y-47556677D01*
X3179249Y-47565111D01*
X3166609Y-47572687D01*
X3153213Y-47579847D01*
X3139885Y-47586150D01*
X3125849Y-47591964D01*
X3112001Y-47596920D01*
X3097439Y-47601337D01*
X3083167Y-47604913D01*
X3065830Y-47608361D01*
X3065989Y-47609163D01*
X3033002Y-47621094D01*
X3014104Y-47636005D01*
X2654057Y-47998430D01*
X2632187Y-48031683D01*
X2625000Y-48068908D01*
X2625000Y-48652048D01*
X2615772Y-48709685D01*
X2599982Y-48742979D01*
X2575336Y-48772627D01*
X2544109Y-48795235D01*
X2508252Y-48809390D01*
X2463723Y-48815000D01*
D02*
G37*
%LPC*%
G36*
X970000Y-48155000D02*
X575000Y-48155000D01*
X575000Y-47760000D01*
X970000Y-47760000D01*
X970000Y-48155000D01*
D02*
G37*
%LPC*%
G36*
X365000Y-48155000D02*
X-30000Y-48155000D01*
X-30000Y-47760000D01*
X365000Y-47760000D01*
X365000Y-48155000D01*
D02*
G37*
%LPC*%
G36*
X970000Y-48760000D02*
X575000Y-48760000D01*
X575000Y-48365000D01*
X970000Y-48365000D01*
X970000Y-48760000D01*
D02*
G37*
%LPC*%
G36*
X365000Y-48760000D02*
X-30000Y-48760000D01*
X-30000Y-48365000D01*
X365000Y-48365000D01*
X365000Y-48760000D01*
D02*
G37*
%LPC*%
G36*
X-4852590Y-51924512D02*
X-4887410Y-51924512D01*
X-5014839Y-51918251D01*
X-5049506Y-51914837D01*
X-5175692Y-51896120D01*
X-5209873Y-51889321D01*
X-5333619Y-51858324D01*
X-5366942Y-51848214D01*
X-5487057Y-51805237D01*
X-5519240Y-51791906D01*
X-5634575Y-51737356D01*
X-5665292Y-51720938D01*
X-5774708Y-51655357D01*
X-5803681Y-51635999D01*
X-5906146Y-51560005D01*
X-5933077Y-51537903D01*
X-6027592Y-51452240D01*
X-6052240Y-51427592D01*
X-6137903Y-51333077D01*
X-6160005Y-51306146D01*
X-6235999Y-51203681D01*
X-6255357Y-51174708D01*
X-6320938Y-51065292D01*
X-6337356Y-51034575D01*
X-6391906Y-50919240D01*
X-6405237Y-50887057D01*
X-6448214Y-50766942D01*
X-6458324Y-50733619D01*
X-6489321Y-50609873D01*
X-6496120Y-50575692D01*
X-6514837Y-50449506D01*
X-6518251Y-50414839D01*
X-6524512Y-50287410D01*
X-6524512Y-50252591D01*
X-6518251Y-50125162D01*
X-6514837Y-50090495D01*
X-6496120Y-49964308D01*
X-6489321Y-49930127D01*
X-6458324Y-49806381D01*
X-6448214Y-49773058D01*
X-6405237Y-49652943D01*
X-6391906Y-49620760D01*
X-6337356Y-49505423D01*
X-6320938Y-49474706D01*
X-6255350Y-49365281D01*
X-6236006Y-49336331D01*
X-6160007Y-49233857D01*
X-6137901Y-49206921D01*
X-6052229Y-49112396D01*
X-6027604Y-49087770D01*
X-5933073Y-49002092D01*
X-5906155Y-48980001D01*
X-5803680Y-48904002D01*
X-5774710Y-48884645D01*
X-5665292Y-48819062D01*
X-5634575Y-48802643D01*
X-5519240Y-48748094D01*
X-5487057Y-48734763D01*
X-5366956Y-48691790D01*
X-5333608Y-48681674D01*
X-5209862Y-48650677D01*
X-5175704Y-48643882D01*
X-5049505Y-48625163D01*
X-5014838Y-48621749D01*
X-4887409Y-48615488D01*
X-4852591Y-48615488D01*
X-4725162Y-48621749D01*
X-4690495Y-48625163D01*
X-4564296Y-48643882D01*
X-4530138Y-48650677D01*
X-4406392Y-48681674D01*
X-4373044Y-48691790D01*
X-4252943Y-48734763D01*
X-4220760Y-48748094D01*
X-4105425Y-48802644D01*
X-4074708Y-48819062D01*
X-3965287Y-48884646D01*
X-3936326Y-48903997D01*
X-3833846Y-48980001D01*
X-3806927Y-49002092D01*
X-3712396Y-49087770D01*
X-3687771Y-49112396D01*
X-3602097Y-49206923D01*
X-3579995Y-49233854D01*
X-3504001Y-49336319D01*
X-3484643Y-49365292D01*
X-3419062Y-49474708D01*
X-3402644Y-49505425D01*
X-3348094Y-49620760D01*
X-3334763Y-49652943D01*
X-3291786Y-49773058D01*
X-3281676Y-49806381D01*
X-3250679Y-49930127D01*
X-3243880Y-49964308D01*
X-3225163Y-50090494D01*
X-3221749Y-50125161D01*
X-3215488Y-50252590D01*
X-3215488Y-50287410D01*
X-3221749Y-50414839D01*
X-3225163Y-50449506D01*
X-3243880Y-50575692D01*
X-3250679Y-50609873D01*
X-3281676Y-50733619D01*
X-3291786Y-50766942D01*
X-3334763Y-50887057D01*
X-3348094Y-50919240D01*
X-3402644Y-51034575D01*
X-3419062Y-51065292D01*
X-3484643Y-51174708D01*
X-3504001Y-51203681D01*
X-3579995Y-51306146D01*
X-3602097Y-51333077D01*
X-3687760Y-51427592D01*
X-3712408Y-51452240D01*
X-3806923Y-51537903D01*
X-3833854Y-51560005D01*
X-3936319Y-51635999D01*
X-3965292Y-51655357D01*
X-4074708Y-51720938D01*
X-4105425Y-51737356D01*
X-4220760Y-51791906D01*
X-4252943Y-51805237D01*
X-4373058Y-51848214D01*
X-4406381Y-51858324D01*
X-4530127Y-51889321D01*
X-4564308Y-51896120D01*
X-4690494Y-51914837D01*
X-4725161Y-51918251D01*
X-4852590Y-51924512D01*
D02*
G37*
%LPC*%
G36*
X2463723Y-50720000D02*
X1677952Y-50720000D01*
X1620315Y-50710772D01*
X1587021Y-50694982D01*
X1557373Y-50670336D01*
X1534765Y-50639109D01*
X1520610Y-50603252D01*
X1515000Y-50558723D01*
X1515000Y-49772952D01*
X1524228Y-49715315D01*
X1540018Y-49682021D01*
X1564664Y-49652373D01*
X1595891Y-49629765D01*
X1631748Y-49615610D01*
X1676277Y-49610000D01*
X2258310Y-49610000D01*
X2297314Y-49602080D01*
X2329021Y-49580711D01*
X2686700Y-49223032D01*
X2708679Y-49189852D01*
X2714907Y-49166988D01*
X2715865Y-49160526D01*
X2718837Y-49145583D01*
X2722413Y-49131311D01*
X2726830Y-49116749D01*
X2731786Y-49102901D01*
X2737600Y-49088865D01*
X2743903Y-49075537D01*
X2751063Y-49062141D01*
X2758639Y-49049501D01*
X2767073Y-49036880D01*
X2775854Y-49025039D01*
X2785498Y-49013287D01*
X2795374Y-49002391D01*
X2806141Y-48991624D01*
X2817037Y-48981748D01*
X2828789Y-48972104D01*
X2840630Y-48963323D01*
X2853251Y-48954889D01*
X2865891Y-48947313D01*
X2879287Y-48940153D01*
X2892615Y-48933850D01*
X2906651Y-48928036D01*
X2920499Y-48923080D01*
X2935061Y-48918663D01*
X2949333Y-48915087D01*
X2964274Y-48912116D01*
X2978820Y-48909959D01*
X2993936Y-48908470D01*
X3008632Y-48907747D01*
X3023868Y-48907747D01*
X3038564Y-48908470D01*
X3053680Y-48909959D01*
X3068226Y-48912116D01*
X3083167Y-48915087D01*
X3097439Y-48918663D01*
X3112001Y-48923080D01*
X3125849Y-48928036D01*
X3139885Y-48933850D01*
X3153213Y-48940153D01*
X3166609Y-48947313D01*
X3179249Y-48954889D01*
X3191870Y-48963323D01*
X3203711Y-48972104D01*
X3215463Y-48981748D01*
X3226359Y-48991624D01*
X3237126Y-49002391D01*
X3247002Y-49013287D01*
X3256646Y-49025039D01*
X3265427Y-49036880D01*
X3273861Y-49049501D01*
X3281437Y-49062141D01*
X3288597Y-49075537D01*
X3294900Y-49088865D01*
X3300714Y-49102901D01*
X3305670Y-49116749D01*
X3310087Y-49131311D01*
X3313663Y-49145583D01*
X3316634Y-49160524D01*
X3318791Y-49175070D01*
X3320280Y-49190186D01*
X3321003Y-49204882D01*
X3321003Y-49220118D01*
X3320280Y-49234814D01*
X3318791Y-49249930D01*
X3316634Y-49264476D01*
X3313663Y-49279417D01*
X3310087Y-49293689D01*
X3305670Y-49308251D01*
X3300714Y-49322099D01*
X3294900Y-49336135D01*
X3288597Y-49349463D01*
X3281437Y-49362859D01*
X3273861Y-49375499D01*
X3265427Y-49388120D01*
X3256646Y-49399961D01*
X3247002Y-49411713D01*
X3237126Y-49422609D01*
X3226359Y-49433376D01*
X3215463Y-49443252D01*
X3203711Y-49452896D01*
X3191870Y-49461677D01*
X3179249Y-49470111D01*
X3166609Y-49477687D01*
X3153213Y-49484847D01*
X3139885Y-49491150D01*
X3125849Y-49496964D01*
X3112001Y-49501920D01*
X3097439Y-49506337D01*
X3083160Y-49509914D01*
X3071964Y-49512141D01*
X3020759Y-49539509D01*
X2654289Y-49905979D01*
X2632310Y-49939159D01*
X2625000Y-49976690D01*
X2625000Y-50557048D01*
X2615772Y-50614685D01*
X2599982Y-50647979D01*
X2575336Y-50677627D01*
X2544109Y-50700235D01*
X2508252Y-50714390D01*
X2463723Y-50720000D01*
D02*
G37*
%LPC*%
G36*
X970000Y-50060000D02*
X575000Y-50060000D01*
X575000Y-49665000D01*
X970000Y-49665000D01*
X970000Y-50060000D01*
D02*
G37*
%LPC*%
G36*
X365000Y-50060000D02*
X-30000Y-50060000D01*
X-30000Y-49665000D01*
X365000Y-49665000D01*
X365000Y-50060000D01*
D02*
G37*
%LPC*%
G36*
X970000Y-50665000D02*
X575000Y-50665000D01*
X575000Y-50270000D01*
X970000Y-50270000D01*
X970000Y-50665000D01*
D02*
G37*
%LPC*%
G36*
X365000Y-50665000D02*
X-30000Y-50665000D01*
X-30000Y-50270000D01*
X365000Y-50270000D01*
X365000Y-50665000D01*
D02*
G37*
%LPC*%
G36*
X2463723Y-52625000D02*
X1677952Y-52625000D01*
X1620315Y-52615772D01*
X1587021Y-52599982D01*
X1557373Y-52575336D01*
X1534765Y-52544109D01*
X1520610Y-52508252D01*
X1515000Y-52463723D01*
X1515000Y-51677952D01*
X1524228Y-51620315D01*
X1540018Y-51587021D01*
X1564664Y-51557373D01*
X1595891Y-51534765D01*
X1631748Y-51520610D01*
X1676277Y-51515000D01*
X2252060Y-51515000D01*
X2291064Y-51507080D01*
X2322771Y-51485711D01*
X2687788Y-51120694D01*
X2709767Y-51087514D01*
X2715120Y-51067866D01*
X2715389Y-51067920D01*
X2718837Y-51050583D01*
X2722413Y-51036311D01*
X2726830Y-51021749D01*
X2731786Y-51007901D01*
X2737600Y-50993865D01*
X2743903Y-50980537D01*
X2751063Y-50967141D01*
X2758639Y-50954501D01*
X2767073Y-50941880D01*
X2775854Y-50930039D01*
X2785498Y-50918287D01*
X2795374Y-50907391D01*
X2806141Y-50896624D01*
X2817037Y-50886748D01*
X2828789Y-50877104D01*
X2840630Y-50868323D01*
X2853251Y-50859889D01*
X2865891Y-50852313D01*
X2879287Y-50845153D01*
X2892615Y-50838850D01*
X2906651Y-50833036D01*
X2920499Y-50828080D01*
X2935061Y-50823663D01*
X2949333Y-50820087D01*
X2964274Y-50817116D01*
X2978820Y-50814959D01*
X2993936Y-50813470D01*
X3008632Y-50812747D01*
X3023868Y-50812747D01*
X3038564Y-50813470D01*
X3053680Y-50814959D01*
X3068226Y-50817116D01*
X3083167Y-50820087D01*
X3097439Y-50823663D01*
X3112001Y-50828080D01*
X3125849Y-50833036D01*
X3139885Y-50838850D01*
X3153213Y-50845153D01*
X3166609Y-50852313D01*
X3179249Y-50859889D01*
X3191870Y-50868323D01*
X3203711Y-50877104D01*
X3215463Y-50886748D01*
X3226359Y-50896624D01*
X3237126Y-50907391D01*
X3247002Y-50918287D01*
X3256646Y-50930039D01*
X3265427Y-50941880D01*
X3273861Y-50954501D01*
X3281437Y-50967141D01*
X3288597Y-50980537D01*
X3294900Y-50993865D01*
X3300714Y-51007901D01*
X3305670Y-51021749D01*
X3310087Y-51036311D01*
X3313663Y-51050583D01*
X3316634Y-51065524D01*
X3318791Y-51080070D01*
X3320280Y-51095186D01*
X3321003Y-51109882D01*
X3321003Y-51125118D01*
X3320280Y-51139814D01*
X3318791Y-51154930D01*
X3316634Y-51169476D01*
X3313663Y-51184417D01*
X3310087Y-51198689D01*
X3305670Y-51213251D01*
X3300714Y-51227099D01*
X3294900Y-51241135D01*
X3288597Y-51254463D01*
X3281437Y-51267859D01*
X3273861Y-51280499D01*
X3265427Y-51293120D01*
X3256646Y-51304961D01*
X3247002Y-51316713D01*
X3237126Y-51327609D01*
X3226359Y-51338376D01*
X3215463Y-51348252D01*
X3203711Y-51357896D01*
X3191870Y-51366677D01*
X3179249Y-51375111D01*
X3166609Y-51382687D01*
X3153213Y-51389847D01*
X3139885Y-51396150D01*
X3125849Y-51401964D01*
X3112001Y-51406920D01*
X3097439Y-51411337D01*
X3083167Y-51414913D01*
X3065830Y-51418361D01*
X3065937Y-51418899D01*
X3031677Y-51431311D01*
X3013056Y-51445962D01*
X2654289Y-51804729D01*
X2632310Y-51837909D01*
X2625000Y-51875440D01*
X2625000Y-52462048D01*
X2615772Y-52519685D01*
X2599982Y-52552979D01*
X2575336Y-52582627D01*
X2544109Y-52605235D01*
X2508252Y-52619390D01*
X2463723Y-52625000D01*
D02*
G37*
%LPC*%
G36*
X970000Y-51965000D02*
X575000Y-51965000D01*
X575000Y-51570000D01*
X970000Y-51570000D01*
X970000Y-51965000D01*
D02*
G37*
%LPC*%
G36*
X365000Y-51965000D02*
X-30000Y-51965000D01*
X-30000Y-51570000D01*
X365000Y-51570000D01*
X365000Y-51965000D01*
D02*
G37*
%LPC*%
G36*
X970000Y-52570000D02*
X575000Y-52570000D01*
X575000Y-52175000D01*
X970000Y-52175000D01*
X970000Y-52570000D01*
D02*
G37*
%LPC*%
G36*
X365000Y-52570000D02*
X-30000Y-52570000D01*
X-30000Y-52175000D01*
X365000Y-52175000D01*
X365000Y-52570000D01*
D02*
G37*
G01*
%LPD*%
D10*
X3175000Y-41275000D02*
X102534Y-41275000D01*
D10*
X-1624250Y-15459824D02*
X-7869985Y-21705559D01*
D10*
X3968750Y-17621250D02*
X-793750Y-17621250D01*
D11*
X3213162Y-13335000D02*
X635000Y-13335000D01*
D10*
X-6795787Y-29875463D02*
X-6795787Y-22116327D01*
D10*
X4286250Y-35877500D02*
X6667500Y-38258750D01*
D11*
X-3056270Y-37585852D02*
X-3056270Y-34569602D01*
D10*
X1428750Y-9525000D02*
X3810000Y-9525000D01*
D10*
X793750Y-35877500D02*
X4286250Y-35877500D01*
D11*
X4400020Y-15112420D02*
X4400020Y-13290020D01*
D11*
X-334992Y-39035008D02*
X-1607114Y-39035008D01*
D10*
X793750Y-6350000D02*
X793750Y-8890000D01*
D11*
X7727500Y-23812500D02*
X13017500Y-23812500D01*
D11*
X13244976Y-16737476D02*
X13227500Y-16720000D01*
D11*
X13017500Y-7937500D02*
X10795000Y-7937500D01*
D11*
X3016250Y-47307500D02*
X2070000Y-48260000D01*
D10*
X-6795787Y-22116327D02*
X-1189313Y-16509853D01*
D10*
X4775030Y-15267754D02*
X4775030Y-12250802D01*
D11*
X12910722Y-23495000D02*
X13244976Y-23160746D01*
D10*
X-5715000Y-22542500D02*
X-5715000Y-29368750D01*
D10*
X8096250Y-18097500D02*
X5873750Y-15875000D01*
D10*
X-51250Y-30638750D02*
X8731250Y-30638750D01*
D10*
X5873750Y-15716250D02*
X3968750Y-17621250D01*
D11*
X-7494975Y-21860893D02*
X-1468916Y-15834834D01*
D11*
X-2756260Y-34445334D02*
X-7170797Y-30030797D01*
D10*
X10477510Y-47148760D02*
X6985010Y-47148760D01*
D11*
X3377597Y-16134843D02*
X4400020Y-15112420D01*
D11*
X7302500Y-23812500D02*
X7620000Y-23495000D01*
D11*
X13244976Y-23160746D02*
X13244976Y-16737476D01*
D10*
X-259990Y-38359990D02*
X-1327510Y-38359990D01*
D11*
X6667500Y-23812500D02*
X7302500Y-23812500D01*
D11*
X7092500Y-24447500D02*
X7727500Y-23812500D01*
D10*
X-2381250Y-34290000D02*
X-6795787Y-29875463D01*
D10*
X3810000Y-9525000D02*
X5715000Y-11430000D01*
D11*
X-1344648Y-16134844D02*
X3377597Y-16134843D01*
D11*
X-3056270Y-34569602D02*
X-7494975Y-30130897D01*
D11*
X13017500Y-23812500D02*
X13544986Y-23285014D01*
D10*
X-793750Y-17621250D02*
X-2063750Y-18891250D01*
D11*
X-1482845Y-38734999D02*
X-2756260Y-37461584D01*
D10*
X-7869985Y-30286231D02*
X-7869985Y-21705559D01*
D11*
X3016250Y-49212500D02*
X3016250Y-49218750D01*
D11*
X13544986Y-8464986D02*
X13017500Y-7937500D01*
D10*
X-51250Y-30638750D02*
X-2222500Y-32810000D01*
D11*
X-2756260Y-37461584D02*
X-2756260Y-34445334D01*
D11*
X2070000Y-52063750D02*
X3016250Y-51117500D01*
D10*
X8731250Y-30638750D02*
X9366250Y-30638750D01*
D11*
X13544986Y-23285014D02*
X13544986Y-8464986D01*
D10*
X4775030Y-12250802D02*
X3319228Y-10795000D01*
D11*
X13227500Y-16720000D02*
X13227500Y-8890000D01*
D10*
X-5715000Y-29368750D02*
X-2222500Y-32861250D01*
D11*
X13227500Y-8890000D02*
X12700000Y-8362500D01*
D10*
X5873750Y-11588750D02*
X5873750Y-15716250D01*
D10*
X-2222500Y-32810000D02*
X-2222500Y-32861250D01*
D11*
X-7494975Y-30130897D02*
X-7494975Y-21860893D01*
D11*
X3175000Y-38735000D02*
X-1482845Y-38734999D01*
D11*
X4400020Y-13290020D02*
X3175000Y-12065000D01*
D10*
X793750Y-8890000D02*
X1428750Y-9525000D01*
D10*
X-2222500Y-32861250D02*
X793750Y-35877500D01*
D11*
X3253328Y-15834834D02*
X4100010Y-14988152D01*
D10*
X3532932Y-16509852D02*
X4775030Y-15267754D01*
D10*
X5715000Y-11430000D02*
X5873750Y-11588750D01*
D10*
X-2063750Y-18891250D02*
X-5715000Y-22542500D01*
D11*
X-1607114Y-39035008D02*
X-3056270Y-37585852D01*
D11*
X2070000Y-52070000D02*
X2070000Y-52063750D01*
D11*
X635000Y-40005000D02*
X-334992Y-39035008D01*
D10*
X6667500Y-38258750D02*
X6667500Y-40481250D01*
D11*
X4100010Y-14221848D02*
X3213162Y-13335000D01*
D10*
X6985010Y-47148760D02*
X3175000Y-43338750D01*
D10*
X3175000Y-14605000D02*
X2320176Y-15459824D01*
D10*
X-3431280Y-37741186D02*
X-3431280Y-34724936D01*
D11*
X3016250Y-49218750D02*
X2070000Y-50165000D01*
D11*
X-1468916Y-15834834D02*
X3253328Y-15834834D01*
D11*
X-7170797Y-21960993D02*
X-1344648Y-16134844D01*
D11*
X4100010Y-14988152D02*
X4100010Y-14221848D01*
D10*
X5873750Y-15875000D02*
X5873750Y-15716250D01*
D10*
X-1428750Y-19526250D02*
X-2063750Y-18891250D01*
D10*
X-1189313Y-16509853D02*
X3532932Y-16509852D01*
D10*
X-3431280Y-34724936D02*
X-7869985Y-30286231D01*
D10*
X-1327510Y-38359990D02*
X-2381250Y-37306250D01*
D11*
X7620000Y-23495000D02*
X12910722Y-23495000D01*
D10*
X3319228Y-10795000D02*
X635000Y-10795000D01*
D10*
X635000Y-37465000D02*
X-259990Y-38359990D01*
D10*
X3175000Y-43338750D02*
X3175000Y-41275000D01*
D10*
X2320176Y-15459824D02*
X-1624250Y-15459824D01*
D10*
X-2381250Y-37306250D02*
X-2381250Y-34290000D01*
D11*
X-7170797Y-30030797D02*
X-7170797Y-21960993D01*
D10*
X102534Y-41275000D02*
X-3431280Y-37741186D01*
G75*
D12*
X2540000Y0D03*
D12*
X7620000Y-2540000D03*
D12*
X10160000Y0D03*
D12*
X12700000Y0D03*
D12*
X0Y-2540000D03*
D12*
X0Y0D03*
D12*
X5080000Y-2540000D03*
D12*
X10160000Y-2540000D03*
D12*
X7620000Y0D03*
D12*
X12700000Y-2540000D03*
D12*
X2540000Y-2540000D03*
D12*
X5080000Y0D03*
D13*
X3175000Y-14605000D03*
D13*
X635000Y-10795000D03*
D13*
X3175000Y-12065000D03*
D13*
X635000Y-13335000D03*
D14*
X470000Y-52070000D03*
D14*
X2070000Y-52070000D03*
D13*
X3175000Y-41275000D03*
D13*
X635000Y-37465000D03*
D13*
X3175000Y-38735000D03*
D13*
X635000Y-40005000D03*
D14*
X470000Y-48260000D03*
D14*
X2070000Y-48260000D03*
D14*
X470000Y-50165000D03*
D14*
X2070000Y-50165000D03*
D15*
X6667500Y-40481250D03*
D15*
X3016250Y-51117500D03*
D15*
X12700000Y-8362500D03*
D15*
X8572500Y-34925000D03*
D15*
X4127500Y-29051250D03*
D15*
X10477510Y-47148760D03*
D15*
X8255000Y-33178750D03*
D15*
X5556250Y-29051250D03*
D15*
X9366250Y-30638750D03*
D15*
X6667500Y-23812500D03*
D15*
X-158750Y-51117500D03*
D15*
X6667500Y-44291250D03*
D15*
X3333750Y-26352500D03*
D15*
X3016250Y-47307500D03*
D15*
X793750Y-6350000D03*
D15*
X0Y-8096250D03*
D15*
X1905000Y-33178750D03*
D15*
X-3651250Y-46672500D03*
D15*
X635000Y-32385000D03*
D15*
X-2063750Y-22542500D03*
D15*
X-51250Y-30638750D03*
D15*
X7092500Y-24447500D03*
D15*
X10795000Y-11747500D03*
D15*
X10795000Y-28892500D03*
D15*
X-1428750Y-19526250D03*
D15*
X9048750Y-16192500D03*
D15*
X6826250Y-50958750D03*
D15*
X3016250Y-49212500D03*
D15*
X6826250Y-49688750D03*
D15*
X1905000Y-30003750D03*
D15*
X8255000Y-30003750D03*
D15*
X10795000Y-7937500D03*
D15*
X8096250Y-18097500D03*
M02*
