%FSLAX46Y46*%
%MOMM*%
%ADD10C,0.150000*%
G01*
G01*
%LPD*%
D10*
X21113690Y8398095D02*
X20113690Y8398095D01*
D10*
X20113690Y8826667D02*
X20113690Y8398095D01*
D10*
X20161310Y8969524D02*
X20113690Y8826667D01*
D10*
X20208928Y9017143D02*
X20161310Y8969524D01*
D10*
X20304166Y9064762D02*
X20208928Y9017143D01*
D10*
X20399404Y9064762D02*
X20304166Y9064762D01*
D10*
X20494642Y9017143D02*
X20399404Y9064762D01*
D10*
X20542262Y8969524D02*
X20494642Y9017143D01*
D10*
X20589880Y8826667D02*
X20542262Y8969524D01*
D10*
X20589880Y8398095D02*
X20589880Y8826667D01*
D10*
X21113690Y9064762D02*
X20589880Y8731429D01*
D10*
X21113690Y10017143D02*
X20113690Y9350476D01*
D10*
X21113690Y9350476D02*
X20113690Y10017143D01*
D10*
X21113690Y2159166D02*
X20113690Y2159166D01*
D10*
X20113690Y2492500D02*
X20113690Y1825833D01*
D10*
X21113690Y3349642D02*
X20113690Y2682976D01*
D10*
X21113690Y2682976D02*
X20113690Y3349642D01*
D10*
X16135000Y25085000D02*
X10335000Y25085000D01*
D10*
X10335000Y24485000D02*
X9135000Y24485000D01*
D10*
X16135000Y14285000D02*
X10535000Y14285000D01*
D10*
X10335000Y25085000D02*
X10335000Y24485000D01*
D10*
X5350000Y27412500D02*
X7350000Y27412500D01*
D10*
X3600000Y28162500D02*
X3600000Y32162500D01*
D10*
X9100000Y28162500D02*
X9100000Y32162500D01*
D10*
X7350000Y32912500D02*
X5350000Y32912500D01*
D10*
X12395000Y11601250D02*
X12395000Y9201250D01*
D10*
X9195000Y10801250D02*
X9195000Y9201250D01*
D10*
X5795000Y4580000D02*
X5795000Y3205000D01*
D10*
X7295000Y7080000D02*
X14295000Y7080000D01*
D10*
X15795000Y4580000D02*
X15795000Y3205000D01*
D10*
X3175000Y30480000D02*
X3175000Y17780000D01*
D10*
X635000Y17780000D02*
X635000Y30480000D01*
D10*
X4425000Y18675000D02*
X3675000Y19050000D01*
D10*
X3675000Y19050000D02*
X4425000Y19425000D01*
D10*
X635000Y30480000D02*
X3175000Y30480000D01*
D10*
X4425000Y19425000D02*
X4425000Y18675000D01*
D10*
X3175000Y17780000D02*
X635000Y17780000D01*
D10*
X13335000Y43770000D02*
X20955000Y43770000D01*
D10*
X19650000Y10407500D02*
X19650000Y9007500D01*
D10*
X8255000Y42500000D02*
X13335000Y42500000D01*
D10*
X9762500Y32437500D02*
X11832500Y32437500D01*
D10*
X5345000Y25480000D02*
X5345000Y23410000D01*
D10*
X18450000Y10407500D02*
X18450000Y9007500D01*
D10*
X20955000Y43770000D02*
X20955000Y34970000D01*
D10*
X3545000Y25480000D02*
X3545000Y23410000D01*
D10*
X20955000Y34970000D02*
X635000Y34970000D01*
D10*
X19650000Y3740000D02*
X19650000Y2340000D01*
D10*
X9762500Y34237500D02*
X11832500Y34237500D01*
D10*
X18450000Y3740000D02*
X18450000Y2340000D01*
D10*
X8255000Y43770000D02*
X8255000Y42500000D01*
D10*
X635000Y43770000D02*
X8255000Y43770000D01*
D10*
X13335000Y42500000D02*
X13335000Y43770000D01*
D10*
X635000Y34970000D02*
X635000Y43770000D01*
G75*
M02*
