%FSLAX46Y46*%
%MOMM*%
%ADD10C,0.150000*%
%ADD11C,0.300000*%
%AMPS22*
1,1,1.700000,0.000000,0.000000*
%
%ADD22PS22*%
%AMPS13*
1,1,1.700000,0.000000,0.000000*
%
%ADD13PS13*%
%AMPS15*
1,1,1.700000,0.000000,0.000000*
%
%ADD15PS15*%
%AMPS19*
1,1,1.700000,0.000000,0.000000*
%
%ADD19PS19*%
%AMPS21*
1,1,1.700000,0.000000,0.000000*
%
%ADD21PS21*%
%AMPS12*
1,1,1.700000,0.000000,0.000000*
%
%ADD12PS12*%
%AMPS20*
1,1,1.700000,0.000000,0.000000*
%
%ADD20PS20*%
%AMPS14*
1,1,1.700000,0.000000,0.000000*
%
%ADD14PS14*%
%AMPS24*
1,1,0.500000,0.000000,0.000000*
%
%ADD24PS24*%
%AMPS26*
1,1,0.500000,0.000000,0.000000*
%
%ADD26PS26*%
%AMPS23*
1,1,0.500000,0.000000,0.000000*
%
%ADD23PS23*%
%AMPS25*
1,1,0.500000,0.000000,0.000000*
%
%ADD25PS25*%
%AMPS18*
21,1,1.000000,1.300000,0.000000,0.000000,270.000000*
1,1,1.300000,0.000000,-0.500000*
1,1,1.300000,0.000000,0.500000*
%
%ADD18PS18*%
%AMPS17*
21,1,1.000000,1.300000,0.000000,0.000000,270.000000*
1,1,1.300000,0.000000,-0.500000*
1,1,1.300000,0.000000,0.500000*
%
%ADD17PS17*%
%AMPS16*
21,1,1.000000,1.300000,0.000000,0.000000,270.000000*
1,1,1.300000,0.000000,-0.500000*
1,1,1.300000,0.000000,0.500000*
%
%ADD16PS16*%
G01*
G01*
%LPD*%
D10*
X10504990Y28547510D02*
X9207500Y29845000D01*
D10*
X13772511Y29647511D02*
X12382500Y28257500D01*
D10*
X13772511Y36512500D02*
X13772511Y29647511D01*
D10*
X15875000Y38100000D02*
X14062521Y36287521D01*
D10*
X12262374Y28547510D02*
X10504990Y28547510D01*
D10*
X13335000Y38100000D02*
X13482501Y37952499D01*
D10*
X14062521Y36287521D02*
X14062520Y29527384D01*
D10*
X10477500Y27940000D02*
X9207500Y26670000D01*
D11*
X10795000Y4445000D02*
X10795000Y7620000D01*
D10*
X14062520Y29527384D02*
X12475136Y27940000D01*
D10*
X13482501Y29767637D02*
X12262374Y28547510D01*
D11*
X13335000Y40640000D02*
X11747500Y42227500D01*
D10*
X13482501Y37952499D02*
X13482501Y29767637D01*
D11*
X500015Y20454985D02*
X1905000Y19050000D01*
D10*
X14605000Y39370000D02*
X14605000Y37344989D01*
D10*
X14605000Y37344989D02*
X13772511Y36512500D01*
D11*
X11747500Y42227500D02*
X2540000Y42227500D01*
D11*
X6032500Y3810000D02*
X10160000Y3810000D01*
D11*
X10160000Y3810000D02*
X10795000Y4445000D01*
D10*
X12475136Y27940000D02*
X10477500Y27940000D01*
D11*
X5397500Y3175000D02*
X6032500Y3810000D01*
D11*
X500015Y40187515D02*
X500015Y20454985D01*
D10*
X15875000Y40640000D02*
X14605000Y39370000D01*
D10*
X12382500Y28257500D02*
X9207500Y28257500D01*
D11*
X2540000Y42227500D02*
X500015Y40187515D01*
G75*
D12*
X13335000Y38100000D03*
D13*
X8255000Y40640000D03*
D14*
X5715000Y38100000D03*
D13*
X15875000Y40640000D03*
D15*
X15875000Y38100000D03*
D14*
X10795000Y40640000D03*
D13*
X5715000Y40640000D03*
D13*
X8255000Y38100000D03*
D13*
X13335000Y40640000D03*
D14*
X10795000Y38100000D03*
D16*
X15115000Y1980000D03*
D17*
X15115000Y5805000D03*
D16*
X6475000Y5805000D03*
D18*
X6475000Y1980000D03*
D19*
X1905000Y26670000D03*
D20*
X1905000Y19050000D03*
D21*
X1905000Y21590000D03*
D20*
X1905000Y29210000D03*
D22*
X1905000Y24130000D03*
D23*
X3175000Y635000D03*
D24*
X17780000Y1587500D03*
D25*
X17780000Y8255000D03*
D24*
X20161250Y16668750D03*
D25*
X11430000Y32067500D03*
D26*
X3175000Y3810000D03*
D25*
X20161250Y19685000D03*
D24*
X9207500Y26670000D03*
D25*
X5397500Y3175000D03*
D24*
X4445000Y6508750D03*
D23*
X20161250Y18891250D03*
D24*
X18256250Y17950000D03*
D24*
X18573750Y22225000D03*
D24*
X9207500Y28257500D03*
D24*
X5397500Y33337500D03*
D24*
X9207500Y29845000D03*
D24*
X8572500Y19843750D03*
D24*
X10795000Y7620000D03*
D25*
X10795000Y12065000D03*
D25*
X17145000Y6508750D03*
M02*
