M48
FMAT,2
METRIC,TZ
T3C0.200
T2C0.600
T1C1.000
%
G90
G05
M71
T3
X3.175Y0.635
X17.780Y1.587
X17.780Y8.255
X20.161Y16.669
X11.430Y32.068
X3.175Y3.810
X20.161Y19.685
X9.207Y26.670
X5.397Y3.175
X4.445Y6.509
X20.161Y18.891
X18.256Y17.950
X18.574Y22.225
X9.207Y28.258
X5.397Y33.337
X9.207Y29.845
X8.572Y19.844
X10.795Y7.620
X10.795Y12.065
X17.145Y6.509
T2
X15.115Y2.480G85X15.115Y1.480
X15.115Y6.305G85X15.115Y5.305
X6.475Y6.305G85X6.475Y5.305
X6.475Y2.480G85X6.475Y1.480
T1
X13.335Y38.100
X8.255Y40.640
X5.715Y38.100
X15.875Y40.640
X15.875Y38.100
X10.795Y40.640
X5.715Y40.640
X8.255Y38.100
X13.335Y40.640
X10.795Y38.100
X1.905Y26.670
X1.905Y19.050
X1.905Y21.590
X1.905Y29.210
X1.905Y24.130
M30
