%FSLAX46Y46*%
%MOMM*%
%AMPS20*
1,1,1.700000,0.000000,0.000000*
%
%ADD20PS20*%
%AMPS11*
1,1,1.700000,0.000000,0.000000*
%
%ADD11PS11*%
%AMPS13*
1,1,1.700000,0.000000,0.000000*
%
%ADD13PS13*%
%AMPS17*
1,1,1.700000,0.000000,0.000000*
%
%ADD17PS17*%
%AMPS19*
1,1,1.700000,0.000000,0.000000*
%
%ADD19PS19*%
%AMPS10*
1,1,1.700000,0.000000,0.000000*
%
%ADD10PS10*%
%AMPS18*
1,1,1.700000,0.000000,0.000000*
%
%ADD18PS18*%
%AMPS12*
1,1,1.700000,0.000000,0.000000*
%
%ADD12PS12*%
%AMPS22*
1,1,0.500000,0.000000,0.000000*
%
%ADD22PS22*%
%AMPS24*
1,1,0.500000,0.000000,0.000000*
%
%ADD24PS24*%
%AMPS21*
1,1,0.500000,0.000000,0.000000*
%
%ADD21PS21*%
%AMPS23*
1,1,0.500000,0.000000,0.000000*
%
%ADD23PS23*%
%AMPS16*
21,1,1.000000,1.300000,0.000000,0.000000,270.000000*
1,1,1.300000,0.000000,-0.500000*
1,1,1.300000,0.000000,0.500000*
%
%ADD16PS16*%
%AMPS15*
21,1,1.000000,1.300000,0.000000,0.000000,270.000000*
1,1,1.300000,0.000000,-0.500000*
1,1,1.300000,0.000000,0.500000*
%
%ADD15PS15*%
%AMPS14*
21,1,1.000000,1.300000,0.000000,0.000000,270.000000*
1,1,1.300000,0.000000,-0.500000*
1,1,1.300000,0.000000,0.500000*
%
%ADD14PS14*%
G01*
%LPD*%
G36*
X2779741Y310000D02*
X2818745Y317920D01*
X2851570Y340425D01*
X2873018Y373952D01*
X2879690Y413188D01*
X2866335Y458609D01*
X2866878Y458899D01*
X2858551Y474477D01*
X2850159Y492221D01*
X2844345Y506260D01*
X2837731Y524742D01*
X2833314Y539303D01*
X2828546Y558339D01*
X2825584Y573229D01*
X2822699Y592677D01*
X2821211Y607777D01*
X2820247Y627405D01*
X2820247Y642595D01*
X2821211Y662223D01*
X2822699Y677323D01*
X2825584Y696771D01*
X2828546Y711661D01*
X2833314Y730697D01*
X2837731Y745258D01*
X2844345Y763740D01*
X2850159Y777779D01*
X2858551Y795523D01*
X2865721Y808936D01*
X2875806Y825762D01*
X2884257Y838409D01*
X2895955Y854183D01*
X2905596Y865930D01*
X2918770Y880465D01*
X2929535Y891230D01*
X2944070Y904404D01*
X2955817Y914045D01*
X2971591Y925743D01*
X2984238Y934194D01*
X3001064Y944279D01*
X3014477Y951449D01*
X3032221Y959841D01*
X3046260Y965655D01*
X3064742Y972269D01*
X3079303Y976686D01*
X3098339Y981454D01*
X3113229Y984416D01*
X3132677Y987301D01*
X3147777Y988789D01*
X3167405Y989753D01*
X3182595Y989753D01*
X3202223Y988789D01*
X3217323Y987301D01*
X3236771Y984416D01*
X3251661Y981454D01*
X3270697Y976686D01*
X3285258Y972269D01*
X3303740Y965655D01*
X3317779Y959841D01*
X3335523Y951449D01*
X3348936Y944279D01*
X3365762Y934194D01*
X3378409Y925743D01*
X3394183Y914045D01*
X3405930Y904404D01*
X3420465Y891230D01*
X3431230Y880465D01*
X3444404Y865930D01*
X3454045Y854183D01*
X3465743Y838409D01*
X3474194Y825762D01*
X3484279Y808936D01*
X3491449Y795523D01*
X3499841Y777779D01*
X3505655Y763740D01*
X3512269Y745258D01*
X3516686Y730697D01*
X3521454Y711661D01*
X3524416Y696771D01*
X3527301Y677323D01*
X3528789Y662223D01*
X3529753Y642595D01*
X3529753Y627405D01*
X3528789Y607777D01*
X3527301Y592677D01*
X3524416Y573229D01*
X3521454Y558339D01*
X3516686Y539303D01*
X3512269Y524742D01*
X3505655Y506260D01*
X3499841Y492221D01*
X3491449Y474477D01*
X3483122Y458899D01*
X3483525Y458684D01*
X3471229Y423896D01*
X3473652Y384171D01*
X3491378Y348536D01*
X3521598Y322638D01*
X3570259Y310000D01*
X21180000Y310000D01*
X21219004Y317920D01*
X21251829Y340425D01*
X21273277Y373952D01*
X21280000Y410000D01*
X21280000Y44040000D01*
X21272080Y44079004D01*
X21249575Y44111829D01*
X21216048Y44133277D01*
X21180000Y44140000D01*
X410000Y44140000D01*
X370996Y44132080D01*
X338171Y44109575D01*
X316723Y44076048D01*
X310000Y44040000D01*
X310000Y410000D01*
X317920Y370996D01*
X340425Y338171D01*
X373952Y316723D01*
X410000Y310000D01*
X2779741Y310000D01*
D02*
G37*
%LPC*%
G36*
X15882595Y39685247D02*
X15867405Y39685247D01*
X15788967Y39689100D01*
X15773869Y39690588D01*
X15696183Y39702112D01*
X15681281Y39705076D01*
X15605126Y39724152D01*
X15590570Y39728567D01*
X15516657Y39755014D01*
X15502610Y39760832D01*
X15431644Y39794396D01*
X15418234Y39801563D01*
X15350878Y39841936D01*
X15338254Y39850371D01*
X15275183Y39897148D01*
X15263434Y39906790D01*
X15205272Y39959505D01*
X15194505Y39970272D01*
X15141790Y40028434D01*
X15132148Y40040183D01*
X15085371Y40103254D01*
X15076936Y40115878D01*
X15036563Y40183234D01*
X15029396Y40196644D01*
X14995832Y40267610D01*
X14990014Y40281657D01*
X14963567Y40355570D01*
X14959152Y40370126D01*
X14940076Y40446281D01*
X14937112Y40461183D01*
X14925588Y40538869D01*
X14924100Y40553967D01*
X14920247Y40632405D01*
X14920247Y40647595D01*
X14924100Y40726033D01*
X14925588Y40741131D01*
X14937111Y40818815D01*
X14940077Y40833724D01*
X14959148Y40909861D01*
X14963569Y40924436D01*
X14990011Y40998335D01*
X14995838Y41012403D01*
X15029396Y41083356D01*
X15036563Y41096766D01*
X15076936Y41164122D01*
X15085371Y41176746D01*
X15132148Y41239817D01*
X15141790Y41251566D01*
X15194505Y41309728D01*
X15205272Y41320495D01*
X15263434Y41373210D01*
X15275183Y41382852D01*
X15338254Y41429629D01*
X15350878Y41438064D01*
X15418234Y41478437D01*
X15431644Y41485604D01*
X15502597Y41519162D01*
X15516665Y41524989D01*
X15590564Y41551431D01*
X15605139Y41555852D01*
X15681276Y41574923D01*
X15696185Y41577889D01*
X15773869Y41589412D01*
X15788967Y41590900D01*
X15867405Y41594753D01*
X15882595Y41594753D01*
X15961033Y41590900D01*
X15976131Y41589412D01*
X16053817Y41577888D01*
X16068719Y41574924D01*
X16144874Y41555848D01*
X16159430Y41551433D01*
X16233343Y41524986D01*
X16247390Y41519168D01*
X16318356Y41485604D01*
X16331766Y41478437D01*
X16399126Y41438062D01*
X16411749Y41429627D01*
X16474797Y41382868D01*
X16486575Y41373202D01*
X16544740Y41320483D01*
X16555486Y41309737D01*
X16608210Y41251566D01*
X16617852Y41239817D01*
X16664629Y41176746D01*
X16673064Y41164122D01*
X16713437Y41096766D01*
X16720603Y41083359D01*
X16754168Y41012390D01*
X16759988Y40998339D01*
X16786432Y40924433D01*
X16790848Y40909874D01*
X16809924Y40833719D01*
X16812888Y40818817D01*
X16824412Y40741131D01*
X16825900Y40726033D01*
X16829753Y40647595D01*
X16829753Y40632405D01*
X16825900Y40553967D01*
X16824412Y40538869D01*
X16812888Y40461183D01*
X16809924Y40446281D01*
X16790848Y40370126D01*
X16786432Y40355567D01*
X16759988Y40281661D01*
X16754168Y40267610D01*
X16720603Y40196641D01*
X16713437Y40183234D01*
X16673064Y40115878D01*
X16664629Y40103254D01*
X16617852Y40040183D01*
X16608210Y40028434D01*
X16555486Y39970263D01*
X16544740Y39959517D01*
X16486575Y39906798D01*
X16474797Y39897132D01*
X16411749Y39850373D01*
X16399126Y39841938D01*
X16331766Y39801563D01*
X16318356Y39794396D01*
X16247403Y39760838D01*
X16233335Y39755011D01*
X16159436Y39728569D01*
X16144861Y39724148D01*
X16068724Y39705077D01*
X16053815Y39702111D01*
X15976131Y39690588D01*
X15961033Y39689100D01*
X15882595Y39685247D01*
D02*
G37*
%LPC*%
G36*
X13342595Y39685247D02*
X13327405Y39685247D01*
X13248967Y39689100D01*
X13233869Y39690588D01*
X13156183Y39702112D01*
X13141281Y39705076D01*
X13065126Y39724152D01*
X13050570Y39728567D01*
X12976657Y39755014D01*
X12962610Y39760832D01*
X12891644Y39794396D01*
X12878234Y39801563D01*
X12810878Y39841936D01*
X12798254Y39850371D01*
X12735183Y39897148D01*
X12723434Y39906790D01*
X12665272Y39959505D01*
X12654505Y39970272D01*
X12601790Y40028434D01*
X12592148Y40040183D01*
X12545371Y40103254D01*
X12536936Y40115878D01*
X12496563Y40183234D01*
X12489396Y40196644D01*
X12455832Y40267610D01*
X12450014Y40281657D01*
X12423567Y40355570D01*
X12419152Y40370126D01*
X12400076Y40446281D01*
X12397112Y40461183D01*
X12385588Y40538869D01*
X12384100Y40553967D01*
X12380247Y40632405D01*
X12380247Y40647595D01*
X12384100Y40726033D01*
X12385588Y40741131D01*
X12397111Y40818815D01*
X12400077Y40833724D01*
X12419148Y40909861D01*
X12423569Y40924436D01*
X12450011Y40998335D01*
X12455838Y41012403D01*
X12489396Y41083356D01*
X12496563Y41096766D01*
X12536936Y41164122D01*
X12545371Y41176746D01*
X12592148Y41239817D01*
X12601790Y41251566D01*
X12654505Y41309728D01*
X12665272Y41320495D01*
X12723434Y41373210D01*
X12735183Y41382852D01*
X12798254Y41429629D01*
X12810878Y41438064D01*
X12878234Y41478437D01*
X12891644Y41485604D01*
X12962597Y41519162D01*
X12976665Y41524989D01*
X13050564Y41551431D01*
X13065139Y41555852D01*
X13141276Y41574923D01*
X13156185Y41577889D01*
X13233869Y41589412D01*
X13248967Y41590900D01*
X13327405Y41594753D01*
X13342595Y41594753D01*
X13421033Y41590900D01*
X13436131Y41589412D01*
X13513817Y41577888D01*
X13528719Y41574924D01*
X13604874Y41555848D01*
X13619430Y41551433D01*
X13693343Y41524986D01*
X13707390Y41519168D01*
X13778356Y41485604D01*
X13791766Y41478437D01*
X13859126Y41438062D01*
X13871749Y41429627D01*
X13934797Y41382868D01*
X13946575Y41373202D01*
X14004740Y41320483D01*
X14015486Y41309737D01*
X14068210Y41251566D01*
X14077852Y41239817D01*
X14124629Y41176746D01*
X14133064Y41164122D01*
X14173437Y41096766D01*
X14180603Y41083359D01*
X14214168Y41012390D01*
X14219988Y40998339D01*
X14246432Y40924433D01*
X14250848Y40909874D01*
X14269924Y40833719D01*
X14272888Y40818817D01*
X14284412Y40741131D01*
X14285900Y40726033D01*
X14289753Y40647595D01*
X14289753Y40632405D01*
X14285900Y40553967D01*
X14284412Y40538869D01*
X14272888Y40461183D01*
X14269924Y40446281D01*
X14250848Y40370126D01*
X14246432Y40355567D01*
X14219988Y40281661D01*
X14214168Y40267610D01*
X14180603Y40196641D01*
X14173437Y40183234D01*
X14133064Y40115878D01*
X14124629Y40103254D01*
X14077852Y40040183D01*
X14068210Y40028434D01*
X14015486Y39970263D01*
X14004740Y39959517D01*
X13946575Y39906798D01*
X13934797Y39897132D01*
X13871749Y39850373D01*
X13859126Y39841938D01*
X13791766Y39801563D01*
X13778356Y39794396D01*
X13707403Y39760838D01*
X13693335Y39755011D01*
X13619436Y39728569D01*
X13604861Y39724148D01*
X13528724Y39705077D01*
X13513815Y39702111D01*
X13436131Y39690588D01*
X13421033Y39689100D01*
X13342595Y39685247D01*
D02*
G37*
%LPC*%
G36*
X10802595Y39685247D02*
X10787405Y39685247D01*
X10708967Y39689100D01*
X10693869Y39690588D01*
X10616183Y39702112D01*
X10601281Y39705076D01*
X10525126Y39724152D01*
X10510570Y39728567D01*
X10436657Y39755014D01*
X10422610Y39760832D01*
X10351644Y39794396D01*
X10338234Y39801563D01*
X10270878Y39841936D01*
X10258254Y39850371D01*
X10195183Y39897148D01*
X10183434Y39906790D01*
X10125272Y39959505D01*
X10114505Y39970272D01*
X10061790Y40028434D01*
X10052148Y40040183D01*
X10005371Y40103254D01*
X9996936Y40115878D01*
X9956563Y40183234D01*
X9949396Y40196644D01*
X9915832Y40267610D01*
X9910014Y40281657D01*
X9883567Y40355570D01*
X9879152Y40370126D01*
X9860076Y40446281D01*
X9857112Y40461183D01*
X9845588Y40538869D01*
X9844100Y40553967D01*
X9840247Y40632405D01*
X9840247Y40647595D01*
X9844100Y40726033D01*
X9845588Y40741131D01*
X9857111Y40818815D01*
X9860077Y40833724D01*
X9879148Y40909861D01*
X9883569Y40924436D01*
X9910011Y40998335D01*
X9915838Y41012403D01*
X9949396Y41083356D01*
X9956563Y41096766D01*
X9996936Y41164122D01*
X10005371Y41176746D01*
X10052148Y41239817D01*
X10061790Y41251566D01*
X10114505Y41309728D01*
X10125272Y41320495D01*
X10183434Y41373210D01*
X10195183Y41382852D01*
X10258254Y41429629D01*
X10270878Y41438064D01*
X10338234Y41478437D01*
X10351644Y41485604D01*
X10422597Y41519162D01*
X10436665Y41524989D01*
X10510564Y41551431D01*
X10525139Y41555852D01*
X10601276Y41574923D01*
X10616185Y41577889D01*
X10693869Y41589412D01*
X10708967Y41590900D01*
X10787405Y41594753D01*
X10802595Y41594753D01*
X10881033Y41590900D01*
X10896131Y41589412D01*
X10973817Y41577888D01*
X10988719Y41574924D01*
X11064874Y41555848D01*
X11079430Y41551433D01*
X11153343Y41524986D01*
X11167390Y41519168D01*
X11238356Y41485604D01*
X11251766Y41478437D01*
X11319126Y41438062D01*
X11331749Y41429627D01*
X11394797Y41382868D01*
X11406575Y41373202D01*
X11464740Y41320483D01*
X11475486Y41309737D01*
X11528210Y41251566D01*
X11537852Y41239817D01*
X11584629Y41176746D01*
X11593064Y41164122D01*
X11633437Y41096766D01*
X11640603Y41083359D01*
X11674168Y41012390D01*
X11679988Y40998339D01*
X11706432Y40924433D01*
X11710848Y40909874D01*
X11729924Y40833719D01*
X11732888Y40818817D01*
X11744412Y40741131D01*
X11745900Y40726033D01*
X11749753Y40647595D01*
X11749753Y40632405D01*
X11745900Y40553967D01*
X11744412Y40538869D01*
X11732888Y40461183D01*
X11729924Y40446281D01*
X11710848Y40370126D01*
X11706432Y40355567D01*
X11679988Y40281661D01*
X11674168Y40267610D01*
X11640603Y40196641D01*
X11633437Y40183234D01*
X11593064Y40115878D01*
X11584629Y40103254D01*
X11537852Y40040183D01*
X11528210Y40028434D01*
X11475486Y39970263D01*
X11464740Y39959517D01*
X11406575Y39906798D01*
X11394797Y39897132D01*
X11331749Y39850373D01*
X11319126Y39841938D01*
X11251766Y39801563D01*
X11238356Y39794396D01*
X11167403Y39760838D01*
X11153335Y39755011D01*
X11079436Y39728569D01*
X11064861Y39724148D01*
X10988724Y39705077D01*
X10973815Y39702111D01*
X10896131Y39690588D01*
X10881033Y39689100D01*
X10802595Y39685247D01*
D02*
G37*
%LPC*%
G36*
X8262595Y39685247D02*
X8247405Y39685247D01*
X8168967Y39689100D01*
X8153869Y39690588D01*
X8076183Y39702112D01*
X8061281Y39705076D01*
X7985126Y39724152D01*
X7970570Y39728567D01*
X7896657Y39755014D01*
X7882610Y39760832D01*
X7811644Y39794396D01*
X7798234Y39801563D01*
X7730878Y39841936D01*
X7718254Y39850371D01*
X7655183Y39897148D01*
X7643434Y39906790D01*
X7585272Y39959505D01*
X7574505Y39970272D01*
X7521790Y40028434D01*
X7512148Y40040183D01*
X7465371Y40103254D01*
X7456936Y40115878D01*
X7416563Y40183234D01*
X7409396Y40196644D01*
X7375832Y40267610D01*
X7370014Y40281657D01*
X7343567Y40355570D01*
X7339152Y40370126D01*
X7320076Y40446281D01*
X7317112Y40461183D01*
X7305588Y40538869D01*
X7304100Y40553967D01*
X7300247Y40632405D01*
X7300247Y40647595D01*
X7304100Y40726033D01*
X7305588Y40741131D01*
X7317111Y40818815D01*
X7320077Y40833724D01*
X7339148Y40909861D01*
X7343569Y40924436D01*
X7370011Y40998335D01*
X7375838Y41012403D01*
X7409396Y41083356D01*
X7416563Y41096766D01*
X7456936Y41164122D01*
X7465371Y41176746D01*
X7512148Y41239817D01*
X7521790Y41251566D01*
X7574505Y41309728D01*
X7585272Y41320495D01*
X7643434Y41373210D01*
X7655183Y41382852D01*
X7718254Y41429629D01*
X7730878Y41438064D01*
X7798234Y41478437D01*
X7811644Y41485604D01*
X7882597Y41519162D01*
X7896665Y41524989D01*
X7970564Y41551431D01*
X7985139Y41555852D01*
X8061276Y41574923D01*
X8076185Y41577889D01*
X8153869Y41589412D01*
X8168967Y41590900D01*
X8247405Y41594753D01*
X8262595Y41594753D01*
X8341033Y41590900D01*
X8356131Y41589412D01*
X8433817Y41577888D01*
X8448719Y41574924D01*
X8524874Y41555848D01*
X8539430Y41551433D01*
X8613343Y41524986D01*
X8627390Y41519168D01*
X8698356Y41485604D01*
X8711766Y41478437D01*
X8779126Y41438062D01*
X8791749Y41429627D01*
X8854797Y41382868D01*
X8866575Y41373202D01*
X8924740Y41320483D01*
X8935486Y41309737D01*
X8988210Y41251566D01*
X8997852Y41239817D01*
X9044629Y41176746D01*
X9053064Y41164122D01*
X9093437Y41096766D01*
X9100603Y41083359D01*
X9134168Y41012390D01*
X9139988Y40998339D01*
X9166432Y40924433D01*
X9170848Y40909874D01*
X9189924Y40833719D01*
X9192888Y40818817D01*
X9204412Y40741131D01*
X9205900Y40726033D01*
X9209753Y40647595D01*
X9209753Y40632405D01*
X9205900Y40553967D01*
X9204412Y40538869D01*
X9192888Y40461183D01*
X9189924Y40446281D01*
X9170848Y40370126D01*
X9166432Y40355567D01*
X9139988Y40281661D01*
X9134168Y40267610D01*
X9100603Y40196641D01*
X9093437Y40183234D01*
X9053064Y40115878D01*
X9044629Y40103254D01*
X8997852Y40040183D01*
X8988210Y40028434D01*
X8935486Y39970263D01*
X8924740Y39959517D01*
X8866575Y39906798D01*
X8854797Y39897132D01*
X8791749Y39850373D01*
X8779126Y39841938D01*
X8711766Y39801563D01*
X8698356Y39794396D01*
X8627403Y39760838D01*
X8613335Y39755011D01*
X8539436Y39728569D01*
X8524861Y39724148D01*
X8448724Y39705077D01*
X8433815Y39702111D01*
X8356131Y39690588D01*
X8341033Y39689100D01*
X8262595Y39685247D01*
D02*
G37*
%LPC*%
G36*
X5722595Y39685247D02*
X5707405Y39685247D01*
X5628967Y39689100D01*
X5613869Y39690588D01*
X5536183Y39702112D01*
X5521281Y39705076D01*
X5445126Y39724152D01*
X5430570Y39728567D01*
X5356657Y39755014D01*
X5342610Y39760832D01*
X5271644Y39794396D01*
X5258234Y39801563D01*
X5190878Y39841936D01*
X5178254Y39850371D01*
X5115183Y39897148D01*
X5103434Y39906790D01*
X5045272Y39959505D01*
X5034505Y39970272D01*
X4981790Y40028434D01*
X4972148Y40040183D01*
X4925371Y40103254D01*
X4916936Y40115878D01*
X4876563Y40183234D01*
X4869396Y40196644D01*
X4835832Y40267610D01*
X4830014Y40281657D01*
X4803567Y40355570D01*
X4799152Y40370126D01*
X4780076Y40446281D01*
X4777112Y40461183D01*
X4765588Y40538869D01*
X4764100Y40553967D01*
X4760247Y40632405D01*
X4760247Y40647595D01*
X4764100Y40726033D01*
X4765588Y40741131D01*
X4777111Y40818815D01*
X4780077Y40833724D01*
X4799148Y40909861D01*
X4803569Y40924436D01*
X4830011Y40998335D01*
X4835838Y41012403D01*
X4869396Y41083356D01*
X4876563Y41096766D01*
X4916936Y41164122D01*
X4925371Y41176746D01*
X4972148Y41239817D01*
X4981790Y41251566D01*
X5034505Y41309728D01*
X5045272Y41320495D01*
X5103434Y41373210D01*
X5115183Y41382852D01*
X5178254Y41429629D01*
X5190878Y41438064D01*
X5258234Y41478437D01*
X5271644Y41485604D01*
X5342597Y41519162D01*
X5356665Y41524989D01*
X5430564Y41551431D01*
X5445139Y41555852D01*
X5521276Y41574923D01*
X5536185Y41577889D01*
X5613869Y41589412D01*
X5628967Y41590900D01*
X5707405Y41594753D01*
X5722595Y41594753D01*
X5801033Y41590900D01*
X5816131Y41589412D01*
X5893817Y41577888D01*
X5908719Y41574924D01*
X5984874Y41555848D01*
X5999430Y41551433D01*
X6073343Y41524986D01*
X6087390Y41519168D01*
X6158356Y41485604D01*
X6171766Y41478437D01*
X6239126Y41438062D01*
X6251749Y41429627D01*
X6314797Y41382868D01*
X6326575Y41373202D01*
X6384740Y41320483D01*
X6395486Y41309737D01*
X6448210Y41251566D01*
X6457852Y41239817D01*
X6504629Y41176746D01*
X6513064Y41164122D01*
X6553437Y41096766D01*
X6560603Y41083359D01*
X6594168Y41012390D01*
X6599988Y40998339D01*
X6626432Y40924433D01*
X6630848Y40909874D01*
X6649924Y40833719D01*
X6652888Y40818817D01*
X6664412Y40741131D01*
X6665900Y40726033D01*
X6669753Y40647595D01*
X6669753Y40632405D01*
X6665900Y40553967D01*
X6664412Y40538869D01*
X6652888Y40461183D01*
X6649924Y40446281D01*
X6630848Y40370126D01*
X6626432Y40355567D01*
X6599988Y40281661D01*
X6594168Y40267610D01*
X6560603Y40196641D01*
X6553437Y40183234D01*
X6513064Y40115878D01*
X6504629Y40103254D01*
X6457852Y40040183D01*
X6448210Y40028434D01*
X6395486Y39970263D01*
X6384740Y39959517D01*
X6326575Y39906798D01*
X6314797Y39897132D01*
X6251749Y39850373D01*
X6239126Y39841938D01*
X6171766Y39801563D01*
X6158356Y39794396D01*
X6087403Y39760838D01*
X6073335Y39755011D01*
X5999436Y39728569D01*
X5984861Y39724148D01*
X5908724Y39705077D01*
X5893815Y39702111D01*
X5816131Y39690588D01*
X5801033Y39689100D01*
X5722595Y39685247D01*
D02*
G37*
%LPC*%
G36*
X15882595Y37145247D02*
X15867405Y37145247D01*
X15788967Y37149100D01*
X15773869Y37150588D01*
X15696183Y37162112D01*
X15681281Y37165076D01*
X15605126Y37184152D01*
X15590570Y37188567D01*
X15516657Y37215014D01*
X15502610Y37220832D01*
X15431644Y37254396D01*
X15418234Y37261563D01*
X15350878Y37301936D01*
X15338254Y37310371D01*
X15275183Y37357148D01*
X15263434Y37366790D01*
X15205272Y37419505D01*
X15194505Y37430272D01*
X15141790Y37488434D01*
X15132148Y37500183D01*
X15085371Y37563254D01*
X15076936Y37575878D01*
X15036563Y37643234D01*
X15029396Y37656644D01*
X14995832Y37727610D01*
X14990014Y37741657D01*
X14963567Y37815570D01*
X14959152Y37830126D01*
X14940076Y37906281D01*
X14937112Y37921183D01*
X14925588Y37998869D01*
X14924100Y38013967D01*
X14920247Y38092405D01*
X14920247Y38107595D01*
X14924100Y38186033D01*
X14925588Y38201131D01*
X14937111Y38278815D01*
X14940077Y38293724D01*
X14959148Y38369861D01*
X14963569Y38384436D01*
X14990011Y38458335D01*
X14995838Y38472403D01*
X15029396Y38543356D01*
X15036563Y38556766D01*
X15076936Y38624122D01*
X15085371Y38636746D01*
X15132148Y38699817D01*
X15141790Y38711566D01*
X15194505Y38769728D01*
X15205272Y38780495D01*
X15263434Y38833210D01*
X15275183Y38842852D01*
X15338254Y38889629D01*
X15350878Y38898064D01*
X15418234Y38938437D01*
X15431644Y38945604D01*
X15502597Y38979162D01*
X15516665Y38984989D01*
X15590564Y39011431D01*
X15605139Y39015852D01*
X15681276Y39034923D01*
X15696185Y39037889D01*
X15773869Y39049412D01*
X15788967Y39050900D01*
X15867405Y39054753D01*
X15882595Y39054753D01*
X15961033Y39050900D01*
X15976131Y39049412D01*
X16053817Y39037888D01*
X16068719Y39034924D01*
X16144874Y39015848D01*
X16159430Y39011433D01*
X16233343Y38984986D01*
X16247390Y38979168D01*
X16318356Y38945604D01*
X16331766Y38938437D01*
X16399126Y38898062D01*
X16411749Y38889627D01*
X16474797Y38842868D01*
X16486575Y38833202D01*
X16544740Y38780483D01*
X16555486Y38769737D01*
X16608210Y38711566D01*
X16617852Y38699817D01*
X16664629Y38636746D01*
X16673064Y38624122D01*
X16713437Y38556766D01*
X16720603Y38543359D01*
X16754168Y38472390D01*
X16759988Y38458339D01*
X16786432Y38384433D01*
X16790848Y38369874D01*
X16809924Y38293719D01*
X16812888Y38278817D01*
X16824412Y38201131D01*
X16825900Y38186033D01*
X16829753Y38107595D01*
X16829753Y38092405D01*
X16825900Y38013967D01*
X16824412Y37998869D01*
X16812888Y37921183D01*
X16809924Y37906281D01*
X16790848Y37830126D01*
X16786432Y37815567D01*
X16759988Y37741661D01*
X16754168Y37727610D01*
X16720603Y37656641D01*
X16713437Y37643234D01*
X16673064Y37575878D01*
X16664629Y37563254D01*
X16617852Y37500183D01*
X16608210Y37488434D01*
X16555486Y37430263D01*
X16544740Y37419517D01*
X16486575Y37366798D01*
X16474797Y37357132D01*
X16411749Y37310373D01*
X16399126Y37301938D01*
X16331766Y37261563D01*
X16318356Y37254396D01*
X16247403Y37220838D01*
X16233335Y37215011D01*
X16159436Y37188569D01*
X16144861Y37184148D01*
X16068724Y37165077D01*
X16053815Y37162111D01*
X15976131Y37150588D01*
X15961033Y37149100D01*
X15882595Y37145247D01*
D02*
G37*
%LPC*%
G36*
X13342595Y37145247D02*
X13327405Y37145247D01*
X13248967Y37149100D01*
X13233869Y37150588D01*
X13156183Y37162112D01*
X13141281Y37165076D01*
X13065126Y37184152D01*
X13050570Y37188567D01*
X12976657Y37215014D01*
X12962610Y37220832D01*
X12891644Y37254396D01*
X12878234Y37261563D01*
X12810878Y37301936D01*
X12798254Y37310371D01*
X12735183Y37357148D01*
X12723434Y37366790D01*
X12665272Y37419505D01*
X12654505Y37430272D01*
X12601790Y37488434D01*
X12592148Y37500183D01*
X12545371Y37563254D01*
X12536936Y37575878D01*
X12496563Y37643234D01*
X12489396Y37656644D01*
X12455832Y37727610D01*
X12450014Y37741657D01*
X12423567Y37815570D01*
X12419152Y37830126D01*
X12400076Y37906281D01*
X12397112Y37921183D01*
X12385588Y37998869D01*
X12384100Y38013967D01*
X12380247Y38092405D01*
X12380247Y38107595D01*
X12384100Y38186033D01*
X12385588Y38201131D01*
X12397111Y38278815D01*
X12400077Y38293724D01*
X12419148Y38369861D01*
X12423569Y38384436D01*
X12450011Y38458335D01*
X12455838Y38472403D01*
X12489396Y38543356D01*
X12496563Y38556766D01*
X12536936Y38624122D01*
X12545371Y38636746D01*
X12592148Y38699817D01*
X12601790Y38711566D01*
X12654505Y38769728D01*
X12665272Y38780495D01*
X12723434Y38833210D01*
X12735183Y38842852D01*
X12798254Y38889629D01*
X12810878Y38898064D01*
X12878234Y38938437D01*
X12891644Y38945604D01*
X12962597Y38979162D01*
X12976665Y38984989D01*
X13050564Y39011431D01*
X13065139Y39015852D01*
X13141276Y39034923D01*
X13156185Y39037889D01*
X13233869Y39049412D01*
X13248967Y39050900D01*
X13327405Y39054753D01*
X13342595Y39054753D01*
X13421033Y39050900D01*
X13436131Y39049412D01*
X13513817Y39037888D01*
X13528719Y39034924D01*
X13604874Y39015848D01*
X13619430Y39011433D01*
X13693343Y38984986D01*
X13707390Y38979168D01*
X13778356Y38945604D01*
X13791766Y38938437D01*
X13859126Y38898062D01*
X13871749Y38889627D01*
X13934797Y38842868D01*
X13946575Y38833202D01*
X14004740Y38780483D01*
X14015486Y38769737D01*
X14068210Y38711566D01*
X14077852Y38699817D01*
X14124629Y38636746D01*
X14133064Y38624122D01*
X14173437Y38556766D01*
X14180603Y38543359D01*
X14214168Y38472390D01*
X14219988Y38458339D01*
X14246432Y38384433D01*
X14250848Y38369874D01*
X14269924Y38293719D01*
X14272888Y38278817D01*
X14284412Y38201131D01*
X14285900Y38186033D01*
X14289753Y38107595D01*
X14289753Y38092405D01*
X14285900Y38013967D01*
X14284412Y37998869D01*
X14272888Y37921183D01*
X14269924Y37906281D01*
X14250848Y37830126D01*
X14246432Y37815567D01*
X14219988Y37741661D01*
X14214168Y37727610D01*
X14180603Y37656641D01*
X14173437Y37643234D01*
X14133064Y37575878D01*
X14124629Y37563254D01*
X14077852Y37500183D01*
X14068210Y37488434D01*
X14015486Y37430263D01*
X14004740Y37419517D01*
X13946575Y37366798D01*
X13934797Y37357132D01*
X13871749Y37310373D01*
X13859126Y37301938D01*
X13791766Y37261563D01*
X13778356Y37254396D01*
X13707403Y37220838D01*
X13693335Y37215011D01*
X13619436Y37188569D01*
X13604861Y37184148D01*
X13528724Y37165077D01*
X13513815Y37162111D01*
X13436131Y37150588D01*
X13421033Y37149100D01*
X13342595Y37145247D01*
D02*
G37*
%LPC*%
G36*
X10802595Y37145247D02*
X10787405Y37145247D01*
X10708967Y37149100D01*
X10693869Y37150588D01*
X10616183Y37162112D01*
X10601281Y37165076D01*
X10525126Y37184152D01*
X10510570Y37188567D01*
X10436657Y37215014D01*
X10422610Y37220832D01*
X10351644Y37254396D01*
X10338234Y37261563D01*
X10270878Y37301936D01*
X10258254Y37310371D01*
X10195183Y37357148D01*
X10183434Y37366790D01*
X10125272Y37419505D01*
X10114505Y37430272D01*
X10061790Y37488434D01*
X10052148Y37500183D01*
X10005371Y37563254D01*
X9996936Y37575878D01*
X9956563Y37643234D01*
X9949396Y37656644D01*
X9915832Y37727610D01*
X9910014Y37741657D01*
X9883567Y37815570D01*
X9879152Y37830126D01*
X9860076Y37906281D01*
X9857112Y37921183D01*
X9845588Y37998869D01*
X9844100Y38013967D01*
X9840247Y38092405D01*
X9840247Y38107595D01*
X9844100Y38186033D01*
X9845588Y38201131D01*
X9857111Y38278815D01*
X9860077Y38293724D01*
X9879148Y38369861D01*
X9883569Y38384436D01*
X9910011Y38458335D01*
X9915838Y38472403D01*
X9949396Y38543356D01*
X9956563Y38556766D01*
X9996936Y38624122D01*
X10005371Y38636746D01*
X10052148Y38699817D01*
X10061790Y38711566D01*
X10114505Y38769728D01*
X10125272Y38780495D01*
X10183434Y38833210D01*
X10195183Y38842852D01*
X10258254Y38889629D01*
X10270878Y38898064D01*
X10338234Y38938437D01*
X10351644Y38945604D01*
X10422597Y38979162D01*
X10436665Y38984989D01*
X10510564Y39011431D01*
X10525139Y39015852D01*
X10601276Y39034923D01*
X10616185Y39037889D01*
X10693869Y39049412D01*
X10708967Y39050900D01*
X10787405Y39054753D01*
X10802595Y39054753D01*
X10881033Y39050900D01*
X10896131Y39049412D01*
X10973817Y39037888D01*
X10988719Y39034924D01*
X11064874Y39015848D01*
X11079430Y39011433D01*
X11153343Y38984986D01*
X11167390Y38979168D01*
X11238356Y38945604D01*
X11251766Y38938437D01*
X11319126Y38898062D01*
X11331749Y38889627D01*
X11394797Y38842868D01*
X11406575Y38833202D01*
X11464740Y38780483D01*
X11475486Y38769737D01*
X11528210Y38711566D01*
X11537852Y38699817D01*
X11584629Y38636746D01*
X11593064Y38624122D01*
X11633437Y38556766D01*
X11640603Y38543359D01*
X11674168Y38472390D01*
X11679988Y38458339D01*
X11706432Y38384433D01*
X11710848Y38369874D01*
X11729924Y38293719D01*
X11732888Y38278817D01*
X11744412Y38201131D01*
X11745900Y38186033D01*
X11749753Y38107595D01*
X11749753Y38092405D01*
X11745900Y38013967D01*
X11744412Y37998869D01*
X11732888Y37921183D01*
X11729924Y37906281D01*
X11710848Y37830126D01*
X11706432Y37815567D01*
X11679988Y37741661D01*
X11674168Y37727610D01*
X11640603Y37656641D01*
X11633437Y37643234D01*
X11593064Y37575878D01*
X11584629Y37563254D01*
X11537852Y37500183D01*
X11528210Y37488434D01*
X11475486Y37430263D01*
X11464740Y37419517D01*
X11406575Y37366798D01*
X11394797Y37357132D01*
X11331749Y37310373D01*
X11319126Y37301938D01*
X11251766Y37261563D01*
X11238356Y37254396D01*
X11167403Y37220838D01*
X11153335Y37215011D01*
X11079436Y37188569D01*
X11064861Y37184148D01*
X10988724Y37165077D01*
X10973815Y37162111D01*
X10896131Y37150588D01*
X10881033Y37149100D01*
X10802595Y37145247D01*
D02*
G37*
%LPC*%
G36*
X8262595Y37145247D02*
X8247405Y37145247D01*
X8168967Y37149100D01*
X8153869Y37150588D01*
X8076183Y37162112D01*
X8061281Y37165076D01*
X7985126Y37184152D01*
X7970570Y37188567D01*
X7896657Y37215014D01*
X7882610Y37220832D01*
X7811644Y37254396D01*
X7798234Y37261563D01*
X7730878Y37301936D01*
X7718254Y37310371D01*
X7655183Y37357148D01*
X7643434Y37366790D01*
X7585272Y37419505D01*
X7574505Y37430272D01*
X7521790Y37488434D01*
X7512148Y37500183D01*
X7465371Y37563254D01*
X7456936Y37575878D01*
X7416563Y37643234D01*
X7409396Y37656644D01*
X7375832Y37727610D01*
X7370014Y37741657D01*
X7343567Y37815570D01*
X7339152Y37830126D01*
X7320076Y37906281D01*
X7317112Y37921183D01*
X7305588Y37998869D01*
X7304100Y38013967D01*
X7300247Y38092405D01*
X7300247Y38107595D01*
X7304100Y38186033D01*
X7305588Y38201131D01*
X7317111Y38278815D01*
X7320077Y38293724D01*
X7339148Y38369861D01*
X7343569Y38384436D01*
X7370011Y38458335D01*
X7375838Y38472403D01*
X7409396Y38543356D01*
X7416563Y38556766D01*
X7456936Y38624122D01*
X7465371Y38636746D01*
X7512148Y38699817D01*
X7521790Y38711566D01*
X7574505Y38769728D01*
X7585272Y38780495D01*
X7643434Y38833210D01*
X7655183Y38842852D01*
X7718254Y38889629D01*
X7730878Y38898064D01*
X7798234Y38938437D01*
X7811644Y38945604D01*
X7882597Y38979162D01*
X7896665Y38984989D01*
X7970564Y39011431D01*
X7985139Y39015852D01*
X8061276Y39034923D01*
X8076185Y39037889D01*
X8153869Y39049412D01*
X8168967Y39050900D01*
X8247405Y39054753D01*
X8262595Y39054753D01*
X8341033Y39050900D01*
X8356131Y39049412D01*
X8433817Y39037888D01*
X8448719Y39034924D01*
X8524874Y39015848D01*
X8539430Y39011433D01*
X8613343Y38984986D01*
X8627390Y38979168D01*
X8698356Y38945604D01*
X8711766Y38938437D01*
X8779126Y38898062D01*
X8791749Y38889627D01*
X8854797Y38842868D01*
X8866575Y38833202D01*
X8924740Y38780483D01*
X8935486Y38769737D01*
X8988210Y38711566D01*
X8997852Y38699817D01*
X9044629Y38636746D01*
X9053064Y38624122D01*
X9093437Y38556766D01*
X9100603Y38543359D01*
X9134168Y38472390D01*
X9139988Y38458339D01*
X9166432Y38384433D01*
X9170848Y38369874D01*
X9189924Y38293719D01*
X9192888Y38278817D01*
X9204412Y38201131D01*
X9205900Y38186033D01*
X9209753Y38107595D01*
X9209753Y38092405D01*
X9205900Y38013967D01*
X9204412Y37998869D01*
X9192888Y37921183D01*
X9189924Y37906281D01*
X9170848Y37830126D01*
X9166432Y37815567D01*
X9139988Y37741661D01*
X9134168Y37727610D01*
X9100603Y37656641D01*
X9093437Y37643234D01*
X9053064Y37575878D01*
X9044629Y37563254D01*
X8997852Y37500183D01*
X8988210Y37488434D01*
X8935486Y37430263D01*
X8924740Y37419517D01*
X8866575Y37366798D01*
X8854797Y37357132D01*
X8791749Y37310373D01*
X8779126Y37301938D01*
X8711766Y37261563D01*
X8698356Y37254396D01*
X8627403Y37220838D01*
X8613335Y37215011D01*
X8539436Y37188569D01*
X8524861Y37184148D01*
X8448724Y37165077D01*
X8433815Y37162111D01*
X8356131Y37150588D01*
X8341033Y37149100D01*
X8262595Y37145247D01*
D02*
G37*
%LPC*%
G36*
X11437595Y31712747D02*
X11422405Y31712747D01*
X11402777Y31713711D01*
X11387677Y31715199D01*
X11368229Y31718084D01*
X11353339Y31721046D01*
X11334303Y31725814D01*
X11319742Y31730231D01*
X11301260Y31736845D01*
X11287221Y31742659D01*
X11269477Y31751051D01*
X11256064Y31758221D01*
X11239238Y31768306D01*
X11226591Y31776757D01*
X11210817Y31788455D01*
X11199070Y31798096D01*
X11184535Y31811270D01*
X11173770Y31822035D01*
X11160596Y31836570D01*
X11150955Y31848317D01*
X11139257Y31864091D01*
X11130806Y31876738D01*
X11120721Y31893564D01*
X11113551Y31906977D01*
X11105159Y31924721D01*
X11099345Y31938760D01*
X11092731Y31957242D01*
X11088314Y31971803D01*
X11083546Y31990839D01*
X11080584Y32005729D01*
X11077699Y32025177D01*
X11076211Y32040277D01*
X11075247Y32059905D01*
X11075247Y32075095D01*
X11076211Y32094723D01*
X11077699Y32109823D01*
X11080584Y32129271D01*
X11083546Y32144161D01*
X11088314Y32163197D01*
X11092731Y32177758D01*
X11099345Y32196240D01*
X11105159Y32210279D01*
X11113551Y32228023D01*
X11120721Y32241436D01*
X11130806Y32258262D01*
X11139257Y32270909D01*
X11150955Y32286683D01*
X11160596Y32298430D01*
X11173770Y32312965D01*
X11184535Y32323730D01*
X11199070Y32336904D01*
X11210817Y32346545D01*
X11226591Y32358243D01*
X11239238Y32366694D01*
X11256064Y32376779D01*
X11269477Y32383949D01*
X11287221Y32392341D01*
X11301260Y32398155D01*
X11319742Y32404769D01*
X11334303Y32409186D01*
X11353339Y32413954D01*
X11368229Y32416916D01*
X11387677Y32419801D01*
X11402777Y32421289D01*
X11422405Y32422253D01*
X11437595Y32422253D01*
X11457223Y32421289D01*
X11472323Y32419801D01*
X11491771Y32416916D01*
X11506661Y32413954D01*
X11525697Y32409186D01*
X11540258Y32404769D01*
X11558740Y32398155D01*
X11572779Y32392341D01*
X11590523Y32383949D01*
X11603936Y32376779D01*
X11620762Y32366694D01*
X11633409Y32358243D01*
X11649183Y32346545D01*
X11660930Y32336904D01*
X11675465Y32323730D01*
X11686230Y32312965D01*
X11699404Y32298430D01*
X11709045Y32286683D01*
X11720743Y32270909D01*
X11729194Y32258262D01*
X11739279Y32241436D01*
X11746449Y32228023D01*
X11754841Y32210279D01*
X11760655Y32196240D01*
X11767269Y32177758D01*
X11771686Y32163197D01*
X11776454Y32144161D01*
X11779416Y32129271D01*
X11782301Y32109823D01*
X11783789Y32094723D01*
X11784753Y32075095D01*
X11784753Y32059905D01*
X11783789Y32040277D01*
X11782301Y32025177D01*
X11779416Y32005729D01*
X11776454Y31990839D01*
X11771686Y31971803D01*
X11767269Y31957242D01*
X11760655Y31938760D01*
X11754841Y31924721D01*
X11746449Y31906977D01*
X11739279Y31893564D01*
X11729194Y31876738D01*
X11720743Y31864091D01*
X11709045Y31848317D01*
X11699404Y31836570D01*
X11686230Y31822035D01*
X11675465Y31811270D01*
X11660930Y31798096D01*
X11649183Y31788455D01*
X11633409Y31776757D01*
X11620762Y31768306D01*
X11603936Y31758221D01*
X11590523Y31751051D01*
X11572779Y31742659D01*
X11558740Y31736845D01*
X11540258Y31730231D01*
X11525697Y31725814D01*
X11506661Y31721046D01*
X11491771Y31718084D01*
X11472323Y31715199D01*
X11457223Y31713711D01*
X11437595Y31712747D01*
D02*
G37*
%LPC*%
G36*
X16840002Y28040367D02*
X16814998Y28040367D01*
X16663049Y28047832D01*
X16638179Y28050282D01*
X16487696Y28072604D01*
X16463165Y28077484D01*
X16315608Y28114445D01*
X16291672Y28121706D01*
X16148461Y28172947D01*
X16125338Y28182525D01*
X15987833Y28247560D01*
X15965776Y28259350D01*
X15835308Y28337550D01*
X15814496Y28351455D01*
X15692312Y28442073D01*
X15672991Y28457931D01*
X15560286Y28560081D01*
X15542581Y28577786D01*
X15440431Y28690491D01*
X15424573Y28709812D01*
X15333955Y28831996D01*
X15320050Y28852808D01*
X15241850Y28983276D01*
X15230060Y29005333D01*
X15165025Y29142838D01*
X15155447Y29165961D01*
X15104206Y29309172D01*
X15096945Y29333108D01*
X15059984Y29480665D01*
X15055104Y29505196D01*
X15032782Y29655679D01*
X15030332Y29680549D01*
X15022867Y29832498D01*
X15022867Y29857502D01*
X15030332Y30009451D01*
X15032782Y30034321D01*
X15055104Y30184804D01*
X15059984Y30209335D01*
X15096945Y30356892D01*
X15104206Y30380828D01*
X15155447Y30524039D01*
X15165025Y30547162D01*
X15230060Y30684667D01*
X15241850Y30706724D01*
X15320050Y30837192D01*
X15333955Y30858004D01*
X15424573Y30980188D01*
X15440431Y30999509D01*
X15542581Y31112214D01*
X15560286Y31129919D01*
X15672991Y31232069D01*
X15692312Y31247927D01*
X15814496Y31338545D01*
X15835308Y31352450D01*
X15965776Y31430650D01*
X15987833Y31442440D01*
X16125338Y31507475D01*
X16148461Y31517053D01*
X16291672Y31568294D01*
X16315608Y31575555D01*
X16463165Y31612516D01*
X16487696Y31617396D01*
X16638179Y31639718D01*
X16663049Y31642168D01*
X16814998Y31649633D01*
X16840002Y31649633D01*
X16991951Y31642168D01*
X17016821Y31639718D01*
X17167304Y31617396D01*
X17191835Y31612516D01*
X17339392Y31575555D01*
X17363328Y31568294D01*
X17506539Y31517053D01*
X17529662Y31507475D01*
X17667167Y31442440D01*
X17689224Y31430650D01*
X17819692Y31352450D01*
X17840504Y31338545D01*
X17962675Y31247936D01*
X17982020Y31232059D01*
X18094713Y31129921D01*
X18112420Y31112214D01*
X18214559Y30999520D01*
X18230436Y30980175D01*
X18321045Y30858004D01*
X18334950Y30837192D01*
X18413150Y30706724D01*
X18424940Y30684667D01*
X18489975Y30547162D01*
X18499553Y30524039D01*
X18550794Y30380828D01*
X18558055Y30356892D01*
X18595016Y30209335D01*
X18599896Y30184804D01*
X18622218Y30034321D01*
X18624668Y30009451D01*
X18632133Y29857502D01*
X18632133Y29832498D01*
X18624668Y29680549D01*
X18622218Y29655679D01*
X18599896Y29505196D01*
X18595016Y29480665D01*
X18558055Y29333108D01*
X18550794Y29309172D01*
X18499553Y29165961D01*
X18489975Y29142838D01*
X18424940Y29005333D01*
X18413150Y28983276D01*
X18334950Y28852808D01*
X18321045Y28831996D01*
X18230427Y28709812D01*
X18214569Y28690491D01*
X18112419Y28577786D01*
X18094714Y28560081D01*
X17982009Y28457931D01*
X17962688Y28442073D01*
X17840504Y28351455D01*
X17819692Y28337550D01*
X17689224Y28259350D01*
X17667167Y28247560D01*
X17529662Y28182525D01*
X17506539Y28172947D01*
X17363328Y28121706D01*
X17339392Y28114445D01*
X17191835Y28077484D01*
X17167304Y28072604D01*
X17016821Y28050282D01*
X16991951Y28047832D01*
X16840002Y28040367D01*
D02*
G37*
%LPC*%
G36*
X9215095Y29490247D02*
X9199905Y29490247D01*
X9180277Y29491211D01*
X9165177Y29492699D01*
X9145729Y29495584D01*
X9130839Y29498546D01*
X9111803Y29503314D01*
X9097242Y29507731D01*
X9078760Y29514345D01*
X9064721Y29520159D01*
X9046977Y29528551D01*
X9033564Y29535721D01*
X9016738Y29545806D01*
X9004091Y29554257D01*
X8988317Y29565955D01*
X8976570Y29575596D01*
X8962035Y29588770D01*
X8951270Y29599535D01*
X8938096Y29614070D01*
X8928455Y29625817D01*
X8916757Y29641591D01*
X8908306Y29654238D01*
X8898221Y29671064D01*
X8891051Y29684477D01*
X8882659Y29702221D01*
X8876845Y29716260D01*
X8870231Y29734742D01*
X8865814Y29749303D01*
X8861046Y29768339D01*
X8858084Y29783229D01*
X8855199Y29802677D01*
X8853711Y29817777D01*
X8852747Y29837405D01*
X8852747Y29852595D01*
X8853711Y29872223D01*
X8855199Y29887323D01*
X8858084Y29906771D01*
X8861046Y29921661D01*
X8865814Y29940697D01*
X8870231Y29955258D01*
X8876845Y29973740D01*
X8882659Y29987779D01*
X8891051Y30005523D01*
X8898221Y30018936D01*
X8908306Y30035762D01*
X8916757Y30048409D01*
X8928455Y30064183D01*
X8938096Y30075930D01*
X8951270Y30090465D01*
X8962035Y30101230D01*
X8976570Y30114404D01*
X8988317Y30124045D01*
X9004091Y30135743D01*
X9016738Y30144194D01*
X9033564Y30154279D01*
X9046977Y30161449D01*
X9064721Y30169841D01*
X9078760Y30175655D01*
X9097242Y30182269D01*
X9111803Y30186686D01*
X9130839Y30191454D01*
X9145729Y30194416D01*
X9165177Y30197301D01*
X9180277Y30198789D01*
X9199905Y30199753D01*
X9215095Y30199753D01*
X9234723Y30198789D01*
X9249823Y30197301D01*
X9269271Y30194416D01*
X9284161Y30191454D01*
X9303197Y30186686D01*
X9317758Y30182269D01*
X9336240Y30175655D01*
X9350279Y30169841D01*
X9368023Y30161449D01*
X9381436Y30154279D01*
X9398262Y30144194D01*
X9410909Y30135743D01*
X9426683Y30124045D01*
X9438430Y30114404D01*
X9452965Y30101230D01*
X9463730Y30090465D01*
X9476904Y30075930D01*
X9486545Y30064183D01*
X9498243Y30048409D01*
X9506694Y30035762D01*
X9516779Y30018936D01*
X9523949Y30005523D01*
X9532341Y29987779D01*
X9538155Y29973740D01*
X9544769Y29955258D01*
X9549186Y29940697D01*
X9553954Y29921661D01*
X9556916Y29906771D01*
X9559801Y29887323D01*
X9561289Y29872223D01*
X9562253Y29852595D01*
X9562253Y29837405D01*
X9561289Y29817777D01*
X9559801Y29802677D01*
X9556916Y29783229D01*
X9553954Y29768339D01*
X9549186Y29749303D01*
X9544769Y29734742D01*
X9538155Y29716260D01*
X9532341Y29702221D01*
X9523949Y29684477D01*
X9516779Y29671064D01*
X9506694Y29654238D01*
X9498243Y29641591D01*
X9486545Y29625817D01*
X9476904Y29614070D01*
X9463730Y29599535D01*
X9452965Y29588770D01*
X9438430Y29575596D01*
X9426683Y29565955D01*
X9410909Y29554257D01*
X9398262Y29545806D01*
X9381436Y29535721D01*
X9368023Y29528551D01*
X9350279Y29520159D01*
X9336240Y29514345D01*
X9317758Y29507731D01*
X9303197Y29503314D01*
X9284161Y29498546D01*
X9269271Y29495584D01*
X9249823Y29492699D01*
X9234723Y29491211D01*
X9215095Y29490247D01*
D02*
G37*
%LPC*%
G36*
X9215095Y27902747D02*
X9199905Y27902747D01*
X9180277Y27903711D01*
X9165177Y27905199D01*
X9145729Y27908084D01*
X9130839Y27911046D01*
X9111803Y27915814D01*
X9097242Y27920231D01*
X9078760Y27926845D01*
X9064721Y27932659D01*
X9046977Y27941051D01*
X9033564Y27948221D01*
X9016738Y27958306D01*
X9004091Y27966757D01*
X8988317Y27978455D01*
X8976570Y27988096D01*
X8962035Y28001270D01*
X8951270Y28012035D01*
X8938096Y28026570D01*
X8928455Y28038317D01*
X8916757Y28054091D01*
X8908306Y28066738D01*
X8898221Y28083564D01*
X8891051Y28096977D01*
X8882659Y28114721D01*
X8876845Y28128760D01*
X8870231Y28147242D01*
X8865814Y28161803D01*
X8861046Y28180839D01*
X8858084Y28195729D01*
X8855199Y28215177D01*
X8853711Y28230277D01*
X8852747Y28249905D01*
X8852747Y28265095D01*
X8853711Y28284723D01*
X8855199Y28299823D01*
X8858084Y28319271D01*
X8861046Y28334161D01*
X8865814Y28353197D01*
X8870231Y28367758D01*
X8876845Y28386240D01*
X8882659Y28400279D01*
X8891051Y28418023D01*
X8898221Y28431436D01*
X8908306Y28448262D01*
X8916757Y28460909D01*
X8928455Y28476683D01*
X8938096Y28488430D01*
X8951270Y28502965D01*
X8962035Y28513730D01*
X8976570Y28526904D01*
X8988317Y28536545D01*
X9004091Y28548243D01*
X9016738Y28556694D01*
X9033564Y28566779D01*
X9046977Y28573949D01*
X9064721Y28582341D01*
X9078760Y28588155D01*
X9097242Y28594769D01*
X9111803Y28599186D01*
X9130839Y28603954D01*
X9145729Y28606916D01*
X9165177Y28609801D01*
X9180277Y28611289D01*
X9199905Y28612253D01*
X9215095Y28612253D01*
X9234723Y28611289D01*
X9249823Y28609801D01*
X9269271Y28606916D01*
X9284161Y28603954D01*
X9303197Y28599186D01*
X9317758Y28594769D01*
X9336240Y28588155D01*
X9350279Y28582341D01*
X9368023Y28573949D01*
X9381436Y28566779D01*
X9398262Y28556694D01*
X9410909Y28548243D01*
X9426683Y28536545D01*
X9438430Y28526904D01*
X9452965Y28513730D01*
X9463730Y28502965D01*
X9476904Y28488430D01*
X9486545Y28476683D01*
X9498243Y28460909D01*
X9506694Y28448262D01*
X9516779Y28431436D01*
X9523949Y28418023D01*
X9532341Y28400279D01*
X9538155Y28386240D01*
X9544769Y28367758D01*
X9549186Y28353197D01*
X9553954Y28334161D01*
X9556916Y28319271D01*
X9559801Y28299823D01*
X9561289Y28284723D01*
X9562253Y28265095D01*
X9562253Y28249905D01*
X9561289Y28230277D01*
X9559801Y28215177D01*
X9556916Y28195729D01*
X9553954Y28180839D01*
X9549186Y28161803D01*
X9544769Y28147242D01*
X9538155Y28128760D01*
X9532341Y28114721D01*
X9523949Y28096977D01*
X9516779Y28083564D01*
X9506694Y28066738D01*
X9498243Y28054091D01*
X9486545Y28038317D01*
X9476904Y28026570D01*
X9463730Y28012035D01*
X9452965Y28001270D01*
X9438430Y27988096D01*
X9426683Y27978455D01*
X9410909Y27966757D01*
X9398262Y27958306D01*
X9381436Y27948221D01*
X9368023Y27941051D01*
X9350279Y27932659D01*
X9336240Y27926845D01*
X9317758Y27920231D01*
X9303197Y27915814D01*
X9284161Y27911046D01*
X9269271Y27908084D01*
X9249823Y27905199D01*
X9234723Y27903711D01*
X9215095Y27902747D01*
D02*
G37*
%LPC*%
G36*
X1912595Y25715247D02*
X1897405Y25715247D01*
X1818967Y25719100D01*
X1803869Y25720588D01*
X1726183Y25732112D01*
X1711281Y25735076D01*
X1635126Y25754152D01*
X1620567Y25758568D01*
X1546661Y25785012D01*
X1532610Y25790832D01*
X1461641Y25824397D01*
X1448234Y25831563D01*
X1380878Y25871936D01*
X1368254Y25880371D01*
X1305183Y25927148D01*
X1293434Y25936790D01*
X1235263Y25989514D01*
X1224517Y26000260D01*
X1171798Y26058425D01*
X1162132Y26070203D01*
X1115373Y26133251D01*
X1106938Y26145874D01*
X1066563Y26213234D01*
X1059396Y26226644D01*
X1025838Y26297597D01*
X1020011Y26311665D01*
X993569Y26385564D01*
X989148Y26400139D01*
X970077Y26476276D01*
X967111Y26491185D01*
X955588Y26568869D01*
X954100Y26583967D01*
X950247Y26662405D01*
X950247Y26677595D01*
X954100Y26756033D01*
X955588Y26771131D01*
X967112Y26848817D01*
X970076Y26863719D01*
X989152Y26939874D01*
X993567Y26954430D01*
X1020014Y27028343D01*
X1025832Y27042390D01*
X1059396Y27113356D01*
X1066563Y27126766D01*
X1106936Y27194122D01*
X1115371Y27206746D01*
X1162148Y27269817D01*
X1171790Y27281566D01*
X1224505Y27339728D01*
X1235272Y27350495D01*
X1293434Y27403210D01*
X1305183Y27412852D01*
X1368254Y27459629D01*
X1380878Y27468064D01*
X1448234Y27508437D01*
X1461644Y27515604D01*
X1532610Y27549168D01*
X1546657Y27554986D01*
X1620570Y27581433D01*
X1635126Y27585848D01*
X1711281Y27604924D01*
X1726183Y27607888D01*
X1803869Y27619412D01*
X1818967Y27620900D01*
X1897405Y27624753D01*
X1912595Y27624753D01*
X1991033Y27620900D01*
X2006131Y27619412D01*
X2083815Y27607889D01*
X2098724Y27604923D01*
X2174861Y27585852D01*
X2189436Y27581431D01*
X2263335Y27554989D01*
X2277403Y27549162D01*
X2348356Y27515604D01*
X2361766Y27508437D01*
X2429122Y27468064D01*
X2441746Y27459629D01*
X2504817Y27412852D01*
X2516566Y27403210D01*
X2574728Y27350495D01*
X2585495Y27339728D01*
X2638210Y27281566D01*
X2647852Y27269817D01*
X2694629Y27206746D01*
X2703064Y27194122D01*
X2743437Y27126766D01*
X2750604Y27113356D01*
X2784162Y27042403D01*
X2789989Y27028335D01*
X2816431Y26954436D01*
X2820852Y26939861D01*
X2839923Y26863724D01*
X2842889Y26848815D01*
X2854412Y26771131D01*
X2855900Y26756033D01*
X2859753Y26677595D01*
X2859753Y26662405D01*
X2855900Y26583967D01*
X2854412Y26568869D01*
X2842888Y26491183D01*
X2839924Y26476281D01*
X2820848Y26400126D01*
X2816433Y26385570D01*
X2789986Y26311657D01*
X2784168Y26297610D01*
X2750604Y26226644D01*
X2743437Y26213234D01*
X2703062Y26145874D01*
X2694627Y26133251D01*
X2647868Y26070203D01*
X2638202Y26058425D01*
X2585483Y26000260D01*
X2574737Y25989514D01*
X2516566Y25936790D01*
X2504817Y25927148D01*
X2441746Y25880371D01*
X2429122Y25871936D01*
X2361766Y25831563D01*
X2348359Y25824397D01*
X2277390Y25790832D01*
X2263339Y25785012D01*
X2189433Y25758568D01*
X2174874Y25754152D01*
X2098719Y25735076D01*
X2083817Y25732112D01*
X2006131Y25720588D01*
X1991033Y25719100D01*
X1912595Y25715247D01*
D02*
G37*
%LPC*%
G36*
X9215095Y26315247D02*
X9199905Y26315247D01*
X9180277Y26316211D01*
X9165177Y26317699D01*
X9145729Y26320584D01*
X9130839Y26323546D01*
X9111803Y26328314D01*
X9097242Y26332731D01*
X9078760Y26339345D01*
X9064721Y26345159D01*
X9046977Y26353551D01*
X9033564Y26360721D01*
X9016738Y26370806D01*
X9004091Y26379257D01*
X8988317Y26390955D01*
X8976570Y26400596D01*
X8962035Y26413770D01*
X8951270Y26424535D01*
X8938096Y26439070D01*
X8928455Y26450817D01*
X8916757Y26466591D01*
X8908306Y26479238D01*
X8898221Y26496064D01*
X8891051Y26509477D01*
X8882659Y26527221D01*
X8876845Y26541260D01*
X8870231Y26559742D01*
X8865814Y26574303D01*
X8861046Y26593339D01*
X8858084Y26608229D01*
X8855199Y26627677D01*
X8853711Y26642777D01*
X8852747Y26662405D01*
X8852747Y26677595D01*
X8853711Y26697223D01*
X8855199Y26712323D01*
X8858084Y26731771D01*
X8861046Y26746661D01*
X8865814Y26765697D01*
X8870231Y26780258D01*
X8876845Y26798740D01*
X8882659Y26812779D01*
X8891051Y26830523D01*
X8898221Y26843936D01*
X8908306Y26860762D01*
X8916757Y26873409D01*
X8928455Y26889183D01*
X8938096Y26900930D01*
X8951270Y26915465D01*
X8962035Y26926230D01*
X8976570Y26939404D01*
X8988317Y26949045D01*
X9004091Y26960743D01*
X9016738Y26969194D01*
X9033564Y26979279D01*
X9046977Y26986449D01*
X9064721Y26994841D01*
X9078760Y27000655D01*
X9097242Y27007269D01*
X9111803Y27011686D01*
X9130839Y27016454D01*
X9145729Y27019416D01*
X9165177Y27022301D01*
X9180277Y27023789D01*
X9199905Y27024753D01*
X9215095Y27024753D01*
X9234723Y27023789D01*
X9249823Y27022301D01*
X9269271Y27019416D01*
X9284161Y27016454D01*
X9303197Y27011686D01*
X9317758Y27007269D01*
X9336240Y27000655D01*
X9350279Y26994841D01*
X9368023Y26986449D01*
X9381436Y26979279D01*
X9398262Y26969194D01*
X9410909Y26960743D01*
X9426683Y26949045D01*
X9438430Y26939404D01*
X9452965Y26926230D01*
X9463730Y26915465D01*
X9476904Y26900930D01*
X9486545Y26889183D01*
X9498243Y26873409D01*
X9506694Y26860762D01*
X9516779Y26843936D01*
X9523949Y26830523D01*
X9532341Y26812779D01*
X9538155Y26798740D01*
X9544769Y26780258D01*
X9549186Y26765697D01*
X9553954Y26746661D01*
X9556916Y26731771D01*
X9559801Y26712323D01*
X9561289Y26697223D01*
X9562253Y26677595D01*
X9562253Y26662405D01*
X9561289Y26642777D01*
X9559801Y26627677D01*
X9556916Y26608229D01*
X9553954Y26593339D01*
X9549186Y26574303D01*
X9544769Y26559742D01*
X9538155Y26541260D01*
X9532341Y26527221D01*
X9523949Y26509477D01*
X9516779Y26496064D01*
X9506694Y26479238D01*
X9498243Y26466591D01*
X9486545Y26450817D01*
X9476904Y26439070D01*
X9463730Y26424535D01*
X9452965Y26413770D01*
X9438430Y26400596D01*
X9426683Y26390955D01*
X9410909Y26379257D01*
X9398262Y26370806D01*
X9381436Y26360721D01*
X9368023Y26353551D01*
X9350279Y26345159D01*
X9336240Y26339345D01*
X9317758Y26332731D01*
X9303197Y26328314D01*
X9284161Y26323546D01*
X9269271Y26320584D01*
X9249823Y26317699D01*
X9234723Y26316211D01*
X9215095Y26315247D01*
D02*
G37*
%LPC*%
G36*
X1912595Y23175247D02*
X1897405Y23175247D01*
X1818967Y23179100D01*
X1803869Y23180588D01*
X1726183Y23192112D01*
X1711281Y23195076D01*
X1635126Y23214152D01*
X1620567Y23218568D01*
X1546661Y23245012D01*
X1532610Y23250832D01*
X1461641Y23284397D01*
X1448234Y23291563D01*
X1380878Y23331936D01*
X1368254Y23340371D01*
X1305183Y23387148D01*
X1293434Y23396790D01*
X1235263Y23449514D01*
X1224517Y23460260D01*
X1171798Y23518425D01*
X1162132Y23530203D01*
X1115373Y23593251D01*
X1106938Y23605874D01*
X1066563Y23673234D01*
X1059396Y23686644D01*
X1025838Y23757597D01*
X1020011Y23771665D01*
X993569Y23845564D01*
X989148Y23860139D01*
X970077Y23936276D01*
X967111Y23951185D01*
X955588Y24028869D01*
X954100Y24043967D01*
X950247Y24122405D01*
X950247Y24137595D01*
X954100Y24216033D01*
X955588Y24231131D01*
X967112Y24308817D01*
X970076Y24323719D01*
X989152Y24399874D01*
X993567Y24414430D01*
X1020014Y24488343D01*
X1025832Y24502390D01*
X1059396Y24573356D01*
X1066563Y24586766D01*
X1106936Y24654122D01*
X1115371Y24666746D01*
X1162148Y24729817D01*
X1171790Y24741566D01*
X1224505Y24799728D01*
X1235272Y24810495D01*
X1293434Y24863210D01*
X1305183Y24872852D01*
X1368254Y24919629D01*
X1380878Y24928064D01*
X1448234Y24968437D01*
X1461644Y24975604D01*
X1532610Y25009168D01*
X1546657Y25014986D01*
X1620570Y25041433D01*
X1635126Y25045848D01*
X1711281Y25064924D01*
X1726183Y25067888D01*
X1803869Y25079412D01*
X1818967Y25080900D01*
X1897405Y25084753D01*
X1912595Y25084753D01*
X1991033Y25080900D01*
X2006131Y25079412D01*
X2083815Y25067889D01*
X2098724Y25064923D01*
X2174861Y25045852D01*
X2189436Y25041431D01*
X2263335Y25014989D01*
X2277403Y25009162D01*
X2348356Y24975604D01*
X2361766Y24968437D01*
X2429122Y24928064D01*
X2441746Y24919629D01*
X2504817Y24872852D01*
X2516566Y24863210D01*
X2574728Y24810495D01*
X2585495Y24799728D01*
X2638210Y24741566D01*
X2647852Y24729817D01*
X2694629Y24666746D01*
X2703064Y24654122D01*
X2743437Y24586766D01*
X2750604Y24573356D01*
X2784162Y24502403D01*
X2789989Y24488335D01*
X2816431Y24414436D01*
X2820852Y24399861D01*
X2839923Y24323724D01*
X2842889Y24308815D01*
X2854412Y24231131D01*
X2855900Y24216033D01*
X2859753Y24137595D01*
X2859753Y24122405D01*
X2855900Y24043967D01*
X2854412Y24028869D01*
X2842888Y23951183D01*
X2839924Y23936281D01*
X2820848Y23860126D01*
X2816433Y23845570D01*
X2789986Y23771657D01*
X2784168Y23757610D01*
X2750604Y23686644D01*
X2743437Y23673234D01*
X2703062Y23605874D01*
X2694627Y23593251D01*
X2647868Y23530203D01*
X2638202Y23518425D01*
X2585483Y23460260D01*
X2574737Y23449514D01*
X2516566Y23396790D01*
X2504817Y23387148D01*
X2441746Y23340371D01*
X2429122Y23331936D01*
X2361766Y23291563D01*
X2348359Y23284397D01*
X2277390Y23250832D01*
X2263339Y23245012D01*
X2189433Y23218568D01*
X2174874Y23214152D01*
X2098719Y23195076D01*
X2083817Y23192112D01*
X2006131Y23180588D01*
X1991033Y23179100D01*
X1912595Y23175247D01*
D02*
G37*
%LPC*%
G36*
X1912595Y20635247D02*
X1897405Y20635247D01*
X1818967Y20639100D01*
X1803869Y20640588D01*
X1726183Y20652112D01*
X1711281Y20655076D01*
X1635126Y20674152D01*
X1620567Y20678568D01*
X1546661Y20705012D01*
X1532610Y20710832D01*
X1461641Y20744397D01*
X1448234Y20751563D01*
X1380878Y20791936D01*
X1368254Y20800371D01*
X1305183Y20847148D01*
X1293434Y20856790D01*
X1235263Y20909514D01*
X1224517Y20920260D01*
X1171798Y20978425D01*
X1162132Y20990203D01*
X1115373Y21053251D01*
X1106938Y21065874D01*
X1066563Y21133234D01*
X1059396Y21146644D01*
X1025838Y21217597D01*
X1020011Y21231665D01*
X993569Y21305564D01*
X989148Y21320139D01*
X970077Y21396276D01*
X967111Y21411185D01*
X955588Y21488869D01*
X954100Y21503967D01*
X950247Y21582405D01*
X950247Y21597595D01*
X954100Y21676033D01*
X955588Y21691131D01*
X967112Y21768817D01*
X970076Y21783719D01*
X989152Y21859874D01*
X993567Y21874430D01*
X1020014Y21948343D01*
X1025832Y21962390D01*
X1059396Y22033356D01*
X1066563Y22046766D01*
X1106936Y22114122D01*
X1115371Y22126746D01*
X1162148Y22189817D01*
X1171790Y22201566D01*
X1224505Y22259728D01*
X1235272Y22270495D01*
X1293434Y22323210D01*
X1305183Y22332852D01*
X1368254Y22379629D01*
X1380878Y22388064D01*
X1448234Y22428437D01*
X1461644Y22435604D01*
X1532610Y22469168D01*
X1546657Y22474986D01*
X1620570Y22501433D01*
X1635126Y22505848D01*
X1711281Y22524924D01*
X1726183Y22527888D01*
X1803869Y22539412D01*
X1818967Y22540900D01*
X1897405Y22544753D01*
X1912595Y22544753D01*
X1991033Y22540900D01*
X2006131Y22539412D01*
X2083815Y22527889D01*
X2098724Y22524923D01*
X2174861Y22505852D01*
X2189436Y22501431D01*
X2263335Y22474989D01*
X2277403Y22469162D01*
X2348356Y22435604D01*
X2361766Y22428437D01*
X2429122Y22388064D01*
X2441746Y22379629D01*
X2504817Y22332852D01*
X2516566Y22323210D01*
X2574728Y22270495D01*
X2585495Y22259728D01*
X2638210Y22201566D01*
X2647852Y22189817D01*
X2694629Y22126746D01*
X2703064Y22114122D01*
X2743437Y22046766D01*
X2750604Y22033356D01*
X2784162Y21962403D01*
X2789989Y21948335D01*
X2816431Y21874436D01*
X2820852Y21859861D01*
X2839923Y21783724D01*
X2842889Y21768815D01*
X2854412Y21691131D01*
X2855900Y21676033D01*
X2859753Y21597595D01*
X2859753Y21582405D01*
X2855900Y21503967D01*
X2854412Y21488869D01*
X2842888Y21411183D01*
X2839924Y21396281D01*
X2820848Y21320126D01*
X2816433Y21305570D01*
X2789986Y21231657D01*
X2784168Y21217610D01*
X2750604Y21146644D01*
X2743437Y21133234D01*
X2703062Y21065874D01*
X2694627Y21053251D01*
X2647868Y20990203D01*
X2638202Y20978425D01*
X2585483Y20920260D01*
X2574737Y20909514D01*
X2516566Y20856790D01*
X2504817Y20847148D01*
X2441746Y20800371D01*
X2429122Y20791936D01*
X2361766Y20751563D01*
X2348359Y20744397D01*
X2277390Y20710832D01*
X2263339Y20705012D01*
X2189433Y20678568D01*
X2174874Y20674152D01*
X2098719Y20655076D01*
X2083817Y20652112D01*
X2006131Y20640588D01*
X1991033Y20639100D01*
X1912595Y20635247D01*
D02*
G37*
%LPC*%
G36*
X1912595Y18095247D02*
X1897405Y18095247D01*
X1818967Y18099100D01*
X1803869Y18100588D01*
X1726183Y18112112D01*
X1711281Y18115076D01*
X1635126Y18134152D01*
X1620567Y18138568D01*
X1546661Y18165012D01*
X1532610Y18170832D01*
X1461641Y18204397D01*
X1448234Y18211563D01*
X1380878Y18251936D01*
X1368254Y18260371D01*
X1305183Y18307148D01*
X1293434Y18316790D01*
X1235263Y18369514D01*
X1224517Y18380260D01*
X1171798Y18438425D01*
X1162132Y18450203D01*
X1115373Y18513251D01*
X1106938Y18525874D01*
X1066563Y18593234D01*
X1059396Y18606644D01*
X1025838Y18677597D01*
X1020011Y18691665D01*
X993569Y18765564D01*
X989148Y18780139D01*
X970077Y18856276D01*
X967111Y18871185D01*
X955588Y18948869D01*
X954100Y18963967D01*
X950247Y19042405D01*
X950247Y19057595D01*
X954100Y19136033D01*
X955588Y19151131D01*
X967112Y19228817D01*
X970076Y19243719D01*
X989152Y19319874D01*
X993567Y19334430D01*
X1020014Y19408343D01*
X1025832Y19422390D01*
X1059396Y19493356D01*
X1066563Y19506766D01*
X1106936Y19574122D01*
X1115371Y19586746D01*
X1162148Y19649817D01*
X1171790Y19661566D01*
X1224505Y19719728D01*
X1235272Y19730495D01*
X1293434Y19783210D01*
X1305183Y19792852D01*
X1368254Y19839629D01*
X1380878Y19848064D01*
X1448234Y19888437D01*
X1461644Y19895604D01*
X1532610Y19929168D01*
X1546657Y19934986D01*
X1620570Y19961433D01*
X1635126Y19965848D01*
X1711281Y19984924D01*
X1726183Y19987888D01*
X1803869Y19999412D01*
X1818967Y20000900D01*
X1897405Y20004753D01*
X1912595Y20004753D01*
X1991033Y20000900D01*
X2006131Y19999412D01*
X2083815Y19987889D01*
X2098724Y19984923D01*
X2174861Y19965852D01*
X2189436Y19961431D01*
X2263335Y19934989D01*
X2277403Y19929162D01*
X2348356Y19895604D01*
X2361766Y19888437D01*
X2429122Y19848064D01*
X2441746Y19839629D01*
X2504817Y19792852D01*
X2516566Y19783210D01*
X2574728Y19730495D01*
X2585495Y19719728D01*
X2638210Y19661566D01*
X2647852Y19649817D01*
X2694629Y19586746D01*
X2703064Y19574122D01*
X2743437Y19506766D01*
X2750604Y19493356D01*
X2784162Y19422403D01*
X2789989Y19408335D01*
X2816431Y19334436D01*
X2820852Y19319861D01*
X2839923Y19243724D01*
X2842889Y19228815D01*
X2854412Y19151131D01*
X2855900Y19136033D01*
X2859753Y19057595D01*
X2859753Y19042405D01*
X2855900Y18963967D01*
X2854412Y18948869D01*
X2842888Y18871183D01*
X2839924Y18856281D01*
X2820848Y18780126D01*
X2816433Y18765570D01*
X2789986Y18691657D01*
X2784168Y18677610D01*
X2750604Y18606644D01*
X2743437Y18593234D01*
X2703062Y18525874D01*
X2694627Y18513251D01*
X2647868Y18450203D01*
X2638202Y18438425D01*
X2585483Y18380260D01*
X2574737Y18369514D01*
X2516566Y18316790D01*
X2504817Y18307148D01*
X2441746Y18260371D01*
X2429122Y18251936D01*
X2361766Y18211563D01*
X2348359Y18204397D01*
X2277390Y18170832D01*
X2263339Y18165012D01*
X2189433Y18138568D01*
X2174874Y18134152D01*
X2098719Y18115076D01*
X2083817Y18112112D01*
X2006131Y18100588D01*
X1991033Y18099100D01*
X1912595Y18095247D01*
D02*
G37*
%LPC*%
G36*
X20168845Y18536497D02*
X20153655Y18536497D01*
X20134027Y18537461D01*
X20118927Y18538949D01*
X20099479Y18541834D01*
X20084589Y18544796D01*
X20065553Y18549564D01*
X20050992Y18553981D01*
X20032510Y18560595D01*
X20018471Y18566409D01*
X20000727Y18574801D01*
X19987314Y18581971D01*
X19970488Y18592056D01*
X19957841Y18600507D01*
X19942067Y18612205D01*
X19930320Y18621846D01*
X19915785Y18635020D01*
X19905020Y18645785D01*
X19891846Y18660320D01*
X19882205Y18672067D01*
X19870507Y18687841D01*
X19862056Y18700488D01*
X19851971Y18717314D01*
X19844801Y18730727D01*
X19836409Y18748471D01*
X19830595Y18762510D01*
X19823981Y18780992D01*
X19819564Y18795553D01*
X19814796Y18814589D01*
X19811834Y18829479D01*
X19808949Y18848927D01*
X19807461Y18864027D01*
X19806497Y18883655D01*
X19806497Y18898845D01*
X19807461Y18918473D01*
X19808949Y18933573D01*
X19811834Y18953021D01*
X19814796Y18967911D01*
X19819564Y18986947D01*
X19823981Y19001508D01*
X19830595Y19019990D01*
X19836409Y19034029D01*
X19844801Y19051773D01*
X19851971Y19065186D01*
X19862056Y19082012D01*
X19870507Y19094659D01*
X19882205Y19110433D01*
X19891846Y19122180D01*
X19905020Y19136715D01*
X19915785Y19147480D01*
X19930320Y19160654D01*
X19942067Y19170295D01*
X19957841Y19181993D01*
X19970488Y19190444D01*
X19987314Y19200529D01*
X20000727Y19207699D01*
X20018471Y19216091D01*
X20032510Y19221905D01*
X20050992Y19228519D01*
X20065553Y19232936D01*
X20084589Y19237704D01*
X20099479Y19240666D01*
X20118927Y19243551D01*
X20134027Y19245039D01*
X20153655Y19246003D01*
X20168845Y19246003D01*
X20188473Y19245039D01*
X20203573Y19243551D01*
X20223021Y19240666D01*
X20237911Y19237704D01*
X20256947Y19232936D01*
X20271508Y19228519D01*
X20289990Y19221905D01*
X20304029Y19216091D01*
X20321773Y19207699D01*
X20335186Y19200529D01*
X20352012Y19190444D01*
X20364659Y19181993D01*
X20380433Y19170295D01*
X20392180Y19160654D01*
X20406715Y19147480D01*
X20417480Y19136715D01*
X20430654Y19122180D01*
X20440295Y19110433D01*
X20451993Y19094659D01*
X20460444Y19082012D01*
X20470529Y19065186D01*
X20477699Y19051773D01*
X20486091Y19034029D01*
X20491905Y19019990D01*
X20498519Y19001508D01*
X20502936Y18986947D01*
X20507704Y18967911D01*
X20510666Y18953021D01*
X20513551Y18933573D01*
X20515039Y18918473D01*
X20516003Y18898845D01*
X20516003Y18883655D01*
X20515039Y18864027D01*
X20513551Y18848927D01*
X20510666Y18829479D01*
X20507704Y18814589D01*
X20502936Y18795553D01*
X20498519Y18780992D01*
X20491905Y18762510D01*
X20486091Y18748471D01*
X20477699Y18730727D01*
X20470529Y18717314D01*
X20460444Y18700488D01*
X20451993Y18687841D01*
X20440295Y18672067D01*
X20430654Y18660320D01*
X20417480Y18645785D01*
X20406715Y18635020D01*
X20392180Y18621846D01*
X20380433Y18612205D01*
X20364659Y18600507D01*
X20352012Y18592056D01*
X20335186Y18581971D01*
X20321773Y18574801D01*
X20304029Y18566409D01*
X20289990Y18560595D01*
X20271508Y18553981D01*
X20256947Y18549564D01*
X20237911Y18544796D01*
X20223021Y18541834D01*
X20203573Y18538949D01*
X20188473Y18537461D01*
X20168845Y18536497D01*
D02*
G37*
%LPC*%
G36*
X18263845Y17595247D02*
X18248655Y17595247D01*
X18229027Y17596211D01*
X18213927Y17597699D01*
X18194479Y17600584D01*
X18179589Y17603546D01*
X18160553Y17608314D01*
X18145992Y17612731D01*
X18127510Y17619345D01*
X18113471Y17625159D01*
X18095727Y17633551D01*
X18082314Y17640721D01*
X18065488Y17650806D01*
X18052841Y17659257D01*
X18037067Y17670955D01*
X18025320Y17680596D01*
X18010785Y17693770D01*
X18000020Y17704535D01*
X17986846Y17719070D01*
X17977205Y17730817D01*
X17965507Y17746591D01*
X17957056Y17759238D01*
X17946971Y17776064D01*
X17939801Y17789477D01*
X17931409Y17807221D01*
X17925595Y17821260D01*
X17918981Y17839742D01*
X17914564Y17854303D01*
X17909796Y17873339D01*
X17906834Y17888229D01*
X17903949Y17907677D01*
X17902461Y17922777D01*
X17901497Y17942405D01*
X17901497Y17957595D01*
X17902461Y17977223D01*
X17903949Y17992323D01*
X17906834Y18011771D01*
X17909796Y18026661D01*
X17914564Y18045697D01*
X17918981Y18060258D01*
X17925595Y18078740D01*
X17931409Y18092779D01*
X17939801Y18110523D01*
X17946971Y18123936D01*
X17957056Y18140762D01*
X17965507Y18153409D01*
X17977205Y18169183D01*
X17986846Y18180930D01*
X18000020Y18195465D01*
X18010785Y18206230D01*
X18025320Y18219404D01*
X18037067Y18229045D01*
X18052841Y18240743D01*
X18065488Y18249194D01*
X18082314Y18259279D01*
X18095727Y18266449D01*
X18113471Y18274841D01*
X18127510Y18280655D01*
X18145992Y18287269D01*
X18160553Y18291686D01*
X18179589Y18296454D01*
X18194479Y18299416D01*
X18213927Y18302301D01*
X18229027Y18303789D01*
X18248655Y18304753D01*
X18263845Y18304753D01*
X18283473Y18303789D01*
X18298573Y18302301D01*
X18318021Y18299416D01*
X18332911Y18296454D01*
X18351947Y18291686D01*
X18366508Y18287269D01*
X18384990Y18280655D01*
X18399029Y18274841D01*
X18416773Y18266449D01*
X18430186Y18259279D01*
X18447012Y18249194D01*
X18459659Y18240743D01*
X18475433Y18229045D01*
X18487180Y18219404D01*
X18501715Y18206230D01*
X18512480Y18195465D01*
X18525654Y18180930D01*
X18535295Y18169183D01*
X18546993Y18153409D01*
X18555444Y18140762D01*
X18565529Y18123936D01*
X18572699Y18110523D01*
X18581091Y18092779D01*
X18586905Y18078740D01*
X18593519Y18060258D01*
X18597936Y18045697D01*
X18602704Y18026661D01*
X18605666Y18011771D01*
X18608551Y17992323D01*
X18610039Y17977223D01*
X18611003Y17957595D01*
X18611003Y17942405D01*
X18610039Y17922777D01*
X18608551Y17907677D01*
X18605666Y17888229D01*
X18602704Y17873339D01*
X18597936Y17854303D01*
X18593519Y17839742D01*
X18586905Y17821260D01*
X18581091Y17807221D01*
X18572699Y17789477D01*
X18565529Y17776064D01*
X18555444Y17759238D01*
X18546993Y17746591D01*
X18535295Y17730817D01*
X18525654Y17719070D01*
X18512480Y17704535D01*
X18501715Y17693770D01*
X18487180Y17680596D01*
X18475433Y17670955D01*
X18459659Y17659257D01*
X18447012Y17650806D01*
X18430186Y17640721D01*
X18416773Y17633551D01*
X18399029Y17625159D01*
X18384990Y17619345D01*
X18366508Y17612731D01*
X18351947Y17608314D01*
X18332911Y17603546D01*
X18318021Y17600584D01*
X18298573Y17597699D01*
X18283473Y17596211D01*
X18263845Y17595247D01*
D02*
G37*
%LPC*%
G36*
X4775002Y9942867D02*
X4749998Y9942867D01*
X4598049Y9950332D01*
X4573179Y9952782D01*
X4422696Y9975104D01*
X4398165Y9979984D01*
X4250608Y10016945D01*
X4226672Y10024206D01*
X4083461Y10075447D01*
X4060338Y10085025D01*
X3922833Y10150060D01*
X3900776Y10161850D01*
X3770308Y10240050D01*
X3749496Y10253955D01*
X3627312Y10344573D01*
X3607991Y10360431D01*
X3495286Y10462581D01*
X3477581Y10480286D01*
X3375431Y10592991D01*
X3359573Y10612312D01*
X3268955Y10734496D01*
X3255050Y10755308D01*
X3176850Y10885776D01*
X3165060Y10907833D01*
X3100025Y11045338D01*
X3090447Y11068461D01*
X3039206Y11211672D01*
X3031945Y11235608D01*
X2994984Y11383165D01*
X2990104Y11407696D01*
X2967782Y11558179D01*
X2965332Y11583049D01*
X2957867Y11734998D01*
X2957867Y11760002D01*
X2965332Y11911951D01*
X2967782Y11936821D01*
X2990104Y12087304D01*
X2994984Y12111835D01*
X3031945Y12259392D01*
X3039206Y12283328D01*
X3090447Y12426539D01*
X3100025Y12449662D01*
X3165060Y12587167D01*
X3176850Y12609224D01*
X3255050Y12739692D01*
X3268955Y12760504D01*
X3359573Y12882688D01*
X3375431Y12902009D01*
X3477581Y13014714D01*
X3495286Y13032419D01*
X3607991Y13134569D01*
X3627312Y13150427D01*
X3749496Y13241045D01*
X3770308Y13254950D01*
X3900776Y13333150D01*
X3922833Y13344940D01*
X4060338Y13409975D01*
X4083461Y13419553D01*
X4226672Y13470794D01*
X4250608Y13478055D01*
X4398165Y13515016D01*
X4422696Y13519896D01*
X4573179Y13542218D01*
X4598049Y13544668D01*
X4749998Y13552133D01*
X4775002Y13552133D01*
X4926951Y13544668D01*
X4951821Y13542218D01*
X5102304Y13519896D01*
X5126835Y13515016D01*
X5274392Y13478055D01*
X5298328Y13470794D01*
X5441539Y13419553D01*
X5464662Y13409975D01*
X5602167Y13344940D01*
X5624224Y13333150D01*
X5754692Y13254950D01*
X5775504Y13241045D01*
X5897675Y13150436D01*
X5917020Y13134559D01*
X6029713Y13032421D01*
X6047420Y13014714D01*
X6149559Y12902020D01*
X6165436Y12882675D01*
X6256045Y12760504D01*
X6269950Y12739692D01*
X6348150Y12609224D01*
X6359940Y12587167D01*
X6424975Y12449662D01*
X6434553Y12426539D01*
X6485794Y12283328D01*
X6493055Y12259392D01*
X6530016Y12111835D01*
X6534896Y12087304D01*
X6557218Y11936821D01*
X6559668Y11911951D01*
X6567133Y11760002D01*
X6567133Y11734998D01*
X6559668Y11583049D01*
X6557218Y11558179D01*
X6534896Y11407696D01*
X6530016Y11383165D01*
X6493055Y11235608D01*
X6485794Y11211672D01*
X6434553Y11068461D01*
X6424975Y11045338D01*
X6359940Y10907833D01*
X6348150Y10885776D01*
X6269950Y10755308D01*
X6256045Y10734496D01*
X6165427Y10612312D01*
X6149569Y10592991D01*
X6047419Y10480286D01*
X6029714Y10462581D01*
X5917009Y10360431D01*
X5897688Y10344573D01*
X5775504Y10253955D01*
X5754692Y10240050D01*
X5624224Y10161850D01*
X5602167Y10150060D01*
X5464662Y10085025D01*
X5441539Y10075447D01*
X5298328Y10024206D01*
X5274392Y10016945D01*
X5126835Y9979984D01*
X5102304Y9975104D01*
X4951821Y9952782D01*
X4926951Y9950332D01*
X4775002Y9942867D01*
D02*
G37*
%LPC*%
G36*
X17787595Y7900247D02*
X17772405Y7900247D01*
X17752777Y7901211D01*
X17737677Y7902699D01*
X17718229Y7905584D01*
X17703339Y7908546D01*
X17684303Y7913314D01*
X17669742Y7917731D01*
X17651260Y7924345D01*
X17637221Y7930159D01*
X17619477Y7938551D01*
X17606064Y7945721D01*
X17589238Y7955806D01*
X17576591Y7964257D01*
X17560817Y7975955D01*
X17549070Y7985596D01*
X17534535Y7998770D01*
X17523770Y8009535D01*
X17510596Y8024070D01*
X17500955Y8035817D01*
X17489257Y8051591D01*
X17480806Y8064238D01*
X17470721Y8081064D01*
X17463551Y8094477D01*
X17455159Y8112221D01*
X17449345Y8126260D01*
X17442731Y8144742D01*
X17438314Y8159303D01*
X17433546Y8178339D01*
X17430584Y8193229D01*
X17427699Y8212677D01*
X17426211Y8227777D01*
X17425247Y8247405D01*
X17425247Y8262595D01*
X17426211Y8282223D01*
X17427699Y8297323D01*
X17430584Y8316771D01*
X17433546Y8331661D01*
X17438314Y8350697D01*
X17442731Y8365258D01*
X17449345Y8383740D01*
X17455159Y8397779D01*
X17463551Y8415523D01*
X17470721Y8428936D01*
X17480806Y8445762D01*
X17489257Y8458409D01*
X17500955Y8474183D01*
X17510596Y8485930D01*
X17523770Y8500465D01*
X17534535Y8511230D01*
X17549070Y8524404D01*
X17560817Y8534045D01*
X17576591Y8545743D01*
X17589238Y8554194D01*
X17606064Y8564279D01*
X17619477Y8571449D01*
X17637221Y8579841D01*
X17651260Y8585655D01*
X17669742Y8592269D01*
X17684303Y8596686D01*
X17703339Y8601454D01*
X17718229Y8604416D01*
X17737677Y8607301D01*
X17752777Y8608789D01*
X17772405Y8609753D01*
X17787595Y8609753D01*
X17807223Y8608789D01*
X17822323Y8607301D01*
X17841771Y8604416D01*
X17856661Y8601454D01*
X17875697Y8596686D01*
X17890258Y8592269D01*
X17908740Y8585655D01*
X17922779Y8579841D01*
X17940523Y8571449D01*
X17953936Y8564279D01*
X17970762Y8554194D01*
X17983409Y8545743D01*
X17999183Y8534045D01*
X18010930Y8524404D01*
X18025465Y8511230D01*
X18036230Y8500465D01*
X18049404Y8485930D01*
X18059045Y8474183D01*
X18070743Y8458409D01*
X18079194Y8445762D01*
X18089279Y8428936D01*
X18096449Y8415523D01*
X18104841Y8397779D01*
X18110655Y8383740D01*
X18117269Y8365258D01*
X18121686Y8350697D01*
X18126454Y8331661D01*
X18129416Y8316771D01*
X18132301Y8297323D01*
X18133789Y8282223D01*
X18134753Y8262595D01*
X18134753Y8247405D01*
X18133789Y8227777D01*
X18132301Y8212677D01*
X18129416Y8193229D01*
X18126454Y8178339D01*
X18121686Y8159303D01*
X18117269Y8144742D01*
X18110655Y8126260D01*
X18104841Y8112221D01*
X18096449Y8094477D01*
X18089279Y8081064D01*
X18079194Y8064238D01*
X18070743Y8051591D01*
X18059045Y8035817D01*
X18049404Y8024070D01*
X18036230Y8009535D01*
X18025465Y7998770D01*
X18010930Y7985596D01*
X17999183Y7975955D01*
X17983409Y7964257D01*
X17970762Y7955806D01*
X17953936Y7945721D01*
X17940523Y7938551D01*
X17922779Y7930159D01*
X17908740Y7924345D01*
X17890258Y7917731D01*
X17875697Y7913314D01*
X17856661Y7908546D01*
X17841771Y7905584D01*
X17822323Y7902699D01*
X17807223Y7901211D01*
X17787595Y7900247D01*
D02*
G37*
%LPC*%
G36*
X10802595Y7265247D02*
X10787405Y7265247D01*
X10767777Y7266211D01*
X10752677Y7267699D01*
X10733229Y7270584D01*
X10718339Y7273546D01*
X10699303Y7278314D01*
X10684742Y7282731D01*
X10666260Y7289345D01*
X10652221Y7295159D01*
X10634477Y7303551D01*
X10621064Y7310721D01*
X10604238Y7320806D01*
X10591591Y7329257D01*
X10575817Y7340955D01*
X10564070Y7350596D01*
X10549535Y7363770D01*
X10538770Y7374535D01*
X10525596Y7389070D01*
X10515955Y7400817D01*
X10504257Y7416591D01*
X10495806Y7429238D01*
X10485721Y7446064D01*
X10478551Y7459477D01*
X10470159Y7477221D01*
X10464345Y7491260D01*
X10457731Y7509742D01*
X10453314Y7524303D01*
X10448546Y7543339D01*
X10445584Y7558229D01*
X10442699Y7577677D01*
X10441211Y7592777D01*
X10440247Y7612405D01*
X10440247Y7627595D01*
X10441211Y7647223D01*
X10442699Y7662323D01*
X10445584Y7681771D01*
X10448546Y7696661D01*
X10453314Y7715697D01*
X10457731Y7730258D01*
X10464345Y7748740D01*
X10470159Y7762779D01*
X10478551Y7780523D01*
X10485721Y7793936D01*
X10495806Y7810762D01*
X10504257Y7823409D01*
X10515955Y7839183D01*
X10525596Y7850930D01*
X10538770Y7865465D01*
X10549535Y7876230D01*
X10564070Y7889404D01*
X10575817Y7899045D01*
X10591591Y7910743D01*
X10604238Y7919194D01*
X10621064Y7929279D01*
X10634477Y7936449D01*
X10652221Y7944841D01*
X10666260Y7950655D01*
X10684742Y7957269D01*
X10699303Y7961686D01*
X10718339Y7966454D01*
X10733229Y7969416D01*
X10752677Y7972301D01*
X10767777Y7973789D01*
X10787405Y7974753D01*
X10802595Y7974753D01*
X10822223Y7973789D01*
X10837323Y7972301D01*
X10856771Y7969416D01*
X10871661Y7966454D01*
X10890697Y7961686D01*
X10905258Y7957269D01*
X10923740Y7950655D01*
X10937779Y7944841D01*
X10955523Y7936449D01*
X10968936Y7929279D01*
X10985762Y7919194D01*
X10998409Y7910743D01*
X11014183Y7899045D01*
X11025930Y7889404D01*
X11040465Y7876230D01*
X11051230Y7865465D01*
X11064404Y7850930D01*
X11074045Y7839183D01*
X11085743Y7823409D01*
X11094194Y7810762D01*
X11104279Y7793936D01*
X11111449Y7780523D01*
X11119841Y7762779D01*
X11125655Y7748740D01*
X11132269Y7730258D01*
X11136686Y7715697D01*
X11141454Y7696661D01*
X11144416Y7681771D01*
X11147301Y7662323D01*
X11148789Y7647223D01*
X11149753Y7627595D01*
X11149753Y7612405D01*
X11148789Y7592777D01*
X11147301Y7577677D01*
X11144416Y7558229D01*
X11141454Y7543339D01*
X11136686Y7524303D01*
X11132269Y7509742D01*
X11125655Y7491260D01*
X11119841Y7477221D01*
X11111449Y7459477D01*
X11104279Y7446064D01*
X11094194Y7429238D01*
X11085743Y7416591D01*
X11074045Y7400817D01*
X11064404Y7389070D01*
X11051230Y7374535D01*
X11040465Y7363770D01*
X11025930Y7350596D01*
X11014183Y7340955D01*
X10998409Y7329257D01*
X10985762Y7320806D01*
X10968936Y7310721D01*
X10955523Y7303551D01*
X10937779Y7295159D01*
X10923740Y7289345D01*
X10905258Y7282731D01*
X10890697Y7278314D01*
X10871661Y7273546D01*
X10856771Y7270584D01*
X10837323Y7267699D01*
X10822223Y7266211D01*
X10802595Y7265247D01*
D02*
G37*
%LPC*%
G36*
X13919425Y4575000D02*
X13670575Y4575000D01*
X13664400Y4575076D01*
X13651440Y4575394D01*
X13638992Y4576006D01*
X13626731Y4576911D01*
X13614313Y4578134D01*
X13602095Y4579641D01*
X13589706Y4581479D01*
X13577657Y4583569D01*
X13565373Y4586013D01*
X13553363Y4588709D01*
X13541255Y4591742D01*
X13529426Y4595015D01*
X13517432Y4598654D01*
X13505783Y4602502D01*
X13494032Y4606707D01*
X13482538Y4611141D01*
X13471021Y4615912D01*
X13459760Y4620904D01*
X13448482Y4626237D01*
X13437515Y4631757D01*
X13426464Y4637664D01*
X13415770Y4643723D01*
X13405078Y4650131D01*
X13394678Y4656717D01*
X13384292Y4663656D01*
X13374258Y4670723D01*
X13364206Y4678178D01*
X13354522Y4685735D01*
X13344849Y4693674D01*
X13335550Y4701696D01*
X13326317Y4710063D01*
X13317415Y4718538D01*
X13308538Y4727415D01*
X13300084Y4736295D01*
X13291677Y4745572D01*
X13283667Y4754858D01*
X13275743Y4764514D01*
X13268182Y4774202D01*
X13260717Y4784266D01*
X13253656Y4794292D01*
X13246717Y4804678D01*
X13240131Y4815078D01*
X13233723Y4825770D01*
X13227664Y4836464D01*
X13221757Y4847515D01*
X13216237Y4858482D01*
X13210904Y4869760D01*
X13205912Y4881021D01*
X13201141Y4892538D01*
X13196707Y4904032D01*
X13192502Y4915783D01*
X13188654Y4927432D01*
X13185015Y4939426D01*
X13181742Y4951255D01*
X13178709Y4963363D01*
X13176013Y4975373D01*
X13173569Y4987657D01*
X13171479Y4999706D01*
X13169641Y5012095D01*
X13168134Y5024313D01*
X13166911Y5036731D01*
X13166006Y5048992D01*
X13165394Y5061440D01*
X13165092Y5073740D01*
X13165092Y5086260D01*
X13165394Y5098560D01*
X13166006Y5111008D01*
X13166911Y5123269D01*
X13168134Y5135687D01*
X13169641Y5147905D01*
X13171479Y5160294D01*
X13173569Y5172343D01*
X13176013Y5184627D01*
X13178709Y5196637D01*
X13181742Y5208745D01*
X13185015Y5220574D01*
X13188654Y5232568D01*
X13192502Y5244217D01*
X13196707Y5255968D01*
X13201141Y5267462D01*
X13205912Y5278979D01*
X13210904Y5290240D01*
X13216237Y5301518D01*
X13221757Y5312485D01*
X13227664Y5323536D01*
X13233723Y5334230D01*
X13240131Y5344922D01*
X13246717Y5355322D01*
X13253656Y5365708D01*
X13260717Y5375734D01*
X13268182Y5385798D01*
X13275743Y5395486D01*
X13283667Y5405142D01*
X13291677Y5414428D01*
X13300084Y5423705D01*
X13308538Y5432585D01*
X13317415Y5441462D01*
X13326295Y5449916D01*
X13335572Y5458323D01*
X13344858Y5466333D01*
X13354514Y5474257D01*
X13364202Y5481818D01*
X13374266Y5489283D01*
X13384292Y5496344D01*
X13394678Y5503283D01*
X13405083Y5509872D01*
X13415792Y5516290D01*
X13426464Y5522336D01*
X13437497Y5528234D01*
X13448457Y5533750D01*
X13459777Y5539104D01*
X13471021Y5544088D01*
X13482538Y5548859D01*
X13494032Y5553293D01*
X13505783Y5557498D01*
X13517432Y5561346D01*
X13529426Y5564985D01*
X13541255Y5568258D01*
X13553363Y5571291D01*
X13565373Y5573987D01*
X13577657Y5576431D01*
X13589706Y5578521D01*
X13602095Y5580359D01*
X13614313Y5581866D01*
X13626731Y5583089D01*
X13638992Y5583994D01*
X13651440Y5584606D01*
X13664400Y5584924D01*
X13670575Y5585000D01*
X13919425Y5585000D01*
X13925600Y5584924D01*
X13938560Y5584606D01*
X13951008Y5583994D01*
X13963269Y5583089D01*
X13975687Y5581866D01*
X13987905Y5580359D01*
X14000294Y5578521D01*
X14012343Y5576431D01*
X14024627Y5573987D01*
X14036637Y5571291D01*
X14048745Y5568258D01*
X14060574Y5564985D01*
X14072568Y5561346D01*
X14084217Y5557498D01*
X14095968Y5553293D01*
X14107462Y5548859D01*
X14118979Y5544088D01*
X14130240Y5539096D01*
X14141518Y5533763D01*
X14152485Y5528243D01*
X14163536Y5522336D01*
X14174230Y5516277D01*
X14184922Y5509869D01*
X14195322Y5503283D01*
X14205708Y5496344D01*
X14215734Y5489283D01*
X14225798Y5481818D01*
X14235486Y5474257D01*
X14245142Y5466333D01*
X14254428Y5458323D01*
X14263705Y5449916D01*
X14272585Y5441462D01*
X14281462Y5432585D01*
X14289916Y5423705D01*
X14298323Y5414428D01*
X14306333Y5405142D01*
X14314257Y5395486D01*
X14321818Y5385798D01*
X14329283Y5375734D01*
X14336344Y5365708D01*
X14343283Y5355322D01*
X14349869Y5344922D01*
X14356277Y5334230D01*
X14362336Y5323536D01*
X14368243Y5312485D01*
X14373763Y5301518D01*
X14379096Y5290240D01*
X14384088Y5278979D01*
X14388859Y5267462D01*
X14393293Y5255968D01*
X14397498Y5244217D01*
X14401346Y5232568D01*
X14404985Y5220574D01*
X14408258Y5208745D01*
X14411291Y5196637D01*
X14413987Y5184627D01*
X14416431Y5172343D01*
X14418521Y5160294D01*
X14420359Y5147905D01*
X14421866Y5135687D01*
X14423089Y5123269D01*
X14423994Y5111008D01*
X14424606Y5098560D01*
X14424908Y5086260D01*
X14424908Y5073740D01*
X14424606Y5061440D01*
X14423994Y5048992D01*
X14423089Y5036731D01*
X14421866Y5024313D01*
X14420359Y5012095D01*
X14418521Y4999706D01*
X14416431Y4987657D01*
X14413987Y4975373D01*
X14411291Y4963363D01*
X14408258Y4951255D01*
X14404985Y4939426D01*
X14401346Y4927432D01*
X14397498Y4915783D01*
X14393293Y4904032D01*
X14388859Y4892538D01*
X14384088Y4881021D01*
X14379096Y4869760D01*
X14373763Y4858482D01*
X14368243Y4847515D01*
X14362336Y4836464D01*
X14356277Y4825770D01*
X14349869Y4815078D01*
X14343283Y4804678D01*
X14336344Y4794292D01*
X14329283Y4784266D01*
X14321818Y4774202D01*
X14314257Y4764514D01*
X14306333Y4754858D01*
X14298323Y4745572D01*
X14289916Y4736295D01*
X14281462Y4727415D01*
X14272585Y4718538D01*
X14263705Y4710084D01*
X14254428Y4701677D01*
X14245142Y4693667D01*
X14235486Y4685743D01*
X14225798Y4678182D01*
X14215734Y4670717D01*
X14205708Y4663656D01*
X14195322Y4656717D01*
X14184922Y4650131D01*
X14174230Y4643723D01*
X14163536Y4637664D01*
X14152485Y4631757D01*
X14141518Y4626237D01*
X14130240Y4620904D01*
X14118979Y4615912D01*
X14107462Y4611141D01*
X14095968Y4606707D01*
X14084217Y4602502D01*
X14072568Y4598654D01*
X14060574Y4595015D01*
X14048745Y4591742D01*
X14036637Y4588709D01*
X14024627Y4586013D01*
X14012343Y4583569D01*
X14000294Y4581479D01*
X13987905Y4579641D01*
X13975687Y4578134D01*
X13963269Y4576911D01*
X13951008Y4576006D01*
X13938560Y4575394D01*
X13925600Y4575076D01*
X13919425Y4575000D01*
D02*
G37*
%LPC*%
G36*
X7807524Y4575368D02*
X7782476Y4575368D01*
X7758001Y4576571D01*
X7733088Y4579024D01*
X7708816Y4582625D01*
X7684271Y4587507D01*
X7660505Y4593459D01*
X7636535Y4600731D01*
X7613440Y4608995D01*
X7590319Y4618572D01*
X7568154Y4629055D01*
X7546085Y4640851D01*
X7525045Y4653462D01*
X7504243Y4667362D01*
X7484529Y4681982D01*
X7465205Y4697841D01*
X7447027Y4714316D01*
X7429316Y4732027D01*
X7412841Y4750205D01*
X7396982Y4769529D01*
X7382355Y4789252D01*
X7368473Y4810028D01*
X7355852Y4831084D01*
X7344057Y4853150D01*
X7333564Y4875338D01*
X7323998Y4898432D01*
X7315731Y4921535D01*
X7308459Y4945505D01*
X7302507Y4969271D01*
X7297625Y4993816D01*
X7294024Y5018088D01*
X7291571Y5043001D01*
X7290368Y5067476D01*
X7290368Y5092524D01*
X7291571Y5116999D01*
X7294024Y5141912D01*
X7297625Y5166184D01*
X7302507Y5190729D01*
X7308459Y5214495D01*
X7315731Y5238465D01*
X7323998Y5261568D01*
X7333564Y5284662D01*
X7344057Y5306850D01*
X7355852Y5328916D01*
X7368473Y5349972D01*
X7382355Y5370748D01*
X7396982Y5390471D01*
X7412841Y5409795D01*
X7429316Y5427973D01*
X7447025Y5445682D01*
X7465197Y5462152D01*
X7484538Y5478025D01*
X7504240Y5492636D01*
X7525038Y5506533D01*
X7546084Y5519148D01*
X7568150Y5530943D01*
X7590338Y5541436D01*
X7613432Y5551002D01*
X7636535Y5559269D01*
X7660505Y5566541D01*
X7684271Y5572493D01*
X7708816Y5577375D01*
X7733088Y5580976D01*
X7758001Y5583429D01*
X7782476Y5584632D01*
X7807524Y5584632D01*
X7831999Y5583429D01*
X7856912Y5580976D01*
X7881184Y5577375D01*
X7905729Y5572493D01*
X7929495Y5566541D01*
X7953465Y5559269D01*
X7976568Y5551002D01*
X7999662Y5541436D01*
X8021850Y5530943D01*
X8043916Y5519148D01*
X8064962Y5506533D01*
X8085760Y5492636D01*
X8105462Y5478025D01*
X8124803Y5462152D01*
X8142975Y5445682D01*
X8160684Y5427973D01*
X8177159Y5409795D01*
X8193018Y5390471D01*
X8207638Y5370757D01*
X8221538Y5349955D01*
X8234149Y5328915D01*
X8245945Y5306846D01*
X8256428Y5284681D01*
X8266005Y5261560D01*
X8274269Y5238465D01*
X8281541Y5214495D01*
X8287493Y5190729D01*
X8292375Y5166184D01*
X8295976Y5141912D01*
X8298429Y5116999D01*
X8299632Y5092524D01*
X8299632Y5067476D01*
X8298429Y5043001D01*
X8295976Y5018088D01*
X8292375Y4993816D01*
X8287493Y4969271D01*
X8281541Y4945505D01*
X8274269Y4921535D01*
X8266002Y4898432D01*
X8256436Y4875338D01*
X8245943Y4853150D01*
X8234148Y4831084D01*
X8221527Y4810028D01*
X8207645Y4789252D01*
X8193018Y4769529D01*
X8177159Y4750205D01*
X8160684Y4732027D01*
X8142973Y4714316D01*
X8124795Y4697841D01*
X8105471Y4681982D01*
X8085748Y4667355D01*
X8064972Y4653473D01*
X8043916Y4640852D01*
X8021850Y4629057D01*
X7999662Y4618564D01*
X7976568Y4608998D01*
X7953465Y4600731D01*
X7929495Y4593459D01*
X7905729Y4587507D01*
X7881184Y4582625D01*
X7856912Y4579024D01*
X7831999Y4576571D01*
X7807524Y4575368D01*
D02*
G37*
%LPC*%
G36*
X5405095Y2820247D02*
X5389905Y2820247D01*
X5370277Y2821211D01*
X5355177Y2822699D01*
X5335729Y2825584D01*
X5320839Y2828546D01*
X5301803Y2833314D01*
X5287242Y2837731D01*
X5268760Y2844345D01*
X5254721Y2850159D01*
X5236977Y2858551D01*
X5223564Y2865721D01*
X5206738Y2875806D01*
X5194091Y2884257D01*
X5178317Y2895955D01*
X5166570Y2905596D01*
X5152035Y2918770D01*
X5141270Y2929535D01*
X5128096Y2944070D01*
X5118455Y2955817D01*
X5106757Y2971591D01*
X5098306Y2984238D01*
X5088221Y3001064D01*
X5081051Y3014477D01*
X5072659Y3032221D01*
X5066845Y3046260D01*
X5060231Y3064742D01*
X5055814Y3079303D01*
X5051046Y3098339D01*
X5048084Y3113229D01*
X5045199Y3132677D01*
X5043711Y3147777D01*
X5042747Y3167405D01*
X5042747Y3182595D01*
X5043711Y3202223D01*
X5045199Y3217323D01*
X5048084Y3236771D01*
X5051046Y3251661D01*
X5055814Y3270697D01*
X5060231Y3285258D01*
X5066845Y3303740D01*
X5072659Y3317779D01*
X5081051Y3335523D01*
X5088221Y3348936D01*
X5098306Y3365762D01*
X5106757Y3378409D01*
X5118455Y3394183D01*
X5128096Y3405930D01*
X5141270Y3420465D01*
X5152035Y3431230D01*
X5166570Y3444404D01*
X5178317Y3454045D01*
X5194091Y3465743D01*
X5206738Y3474194D01*
X5223564Y3484279D01*
X5236977Y3491449D01*
X5254721Y3499841D01*
X5268760Y3505655D01*
X5287242Y3512269D01*
X5301803Y3516686D01*
X5320839Y3521454D01*
X5335729Y3524416D01*
X5355177Y3527301D01*
X5370277Y3528789D01*
X5389905Y3529753D01*
X5405095Y3529753D01*
X5424723Y3528789D01*
X5439823Y3527301D01*
X5459271Y3524416D01*
X5474161Y3521454D01*
X5493197Y3516686D01*
X5507758Y3512269D01*
X5526240Y3505655D01*
X5540279Y3499841D01*
X5558023Y3491449D01*
X5571436Y3484279D01*
X5588262Y3474194D01*
X5600909Y3465743D01*
X5616683Y3454045D01*
X5628430Y3444404D01*
X5642965Y3431230D01*
X5653730Y3420465D01*
X5666904Y3405930D01*
X5676545Y3394183D01*
X5688243Y3378409D01*
X5696694Y3365762D01*
X5706779Y3348936D01*
X5713949Y3335523D01*
X5722341Y3317779D01*
X5728155Y3303740D01*
X5734769Y3285258D01*
X5739186Y3270697D01*
X5743954Y3251661D01*
X5746916Y3236771D01*
X5749801Y3217323D01*
X5751289Y3202223D01*
X5752253Y3182595D01*
X5752253Y3167405D01*
X5751289Y3147777D01*
X5749801Y3132677D01*
X5746916Y3113229D01*
X5743954Y3098339D01*
X5739186Y3079303D01*
X5734769Y3064742D01*
X5728155Y3046260D01*
X5722341Y3032221D01*
X5713949Y3014477D01*
X5706779Y3001064D01*
X5696694Y2984238D01*
X5688243Y2971591D01*
X5676545Y2955817D01*
X5666904Y2944070D01*
X5653730Y2929535D01*
X5642965Y2918770D01*
X5628430Y2905596D01*
X5616683Y2895955D01*
X5600909Y2884257D01*
X5588262Y2875806D01*
X5571436Y2865721D01*
X5558023Y2858551D01*
X5540279Y2850159D01*
X5526240Y2844345D01*
X5507758Y2837731D01*
X5493197Y2833314D01*
X5474161Y2828546D01*
X5459271Y2825584D01*
X5439823Y2822699D01*
X5424723Y2821211D01*
X5405095Y2820247D01*
D02*
G37*
%LPC*%
G36*
X17787595Y1232747D02*
X17772405Y1232747D01*
X17752777Y1233711D01*
X17737677Y1235199D01*
X17718229Y1238084D01*
X17703339Y1241046D01*
X17684303Y1245814D01*
X17669742Y1250231D01*
X17651260Y1256845D01*
X17637221Y1262659D01*
X17619477Y1271051D01*
X17606064Y1278221D01*
X17589238Y1288306D01*
X17576591Y1296757D01*
X17560817Y1308455D01*
X17549070Y1318096D01*
X17534535Y1331270D01*
X17523770Y1342035D01*
X17510596Y1356570D01*
X17500955Y1368317D01*
X17489257Y1384091D01*
X17480806Y1396738D01*
X17470721Y1413564D01*
X17463551Y1426977D01*
X17455159Y1444721D01*
X17449345Y1458760D01*
X17442731Y1477242D01*
X17438314Y1491803D01*
X17433546Y1510839D01*
X17430584Y1525729D01*
X17427699Y1545177D01*
X17426211Y1560277D01*
X17425247Y1579905D01*
X17425247Y1595095D01*
X17426211Y1614723D01*
X17427699Y1629823D01*
X17430584Y1649271D01*
X17433546Y1664161D01*
X17438314Y1683197D01*
X17442731Y1697758D01*
X17449345Y1716240D01*
X17455159Y1730279D01*
X17463551Y1748023D01*
X17470721Y1761436D01*
X17480806Y1778262D01*
X17489257Y1790909D01*
X17500955Y1806683D01*
X17510596Y1818430D01*
X17523770Y1832965D01*
X17534535Y1843730D01*
X17549070Y1856904D01*
X17560817Y1866545D01*
X17576591Y1878243D01*
X17589238Y1886694D01*
X17606064Y1896779D01*
X17619477Y1903949D01*
X17637221Y1912341D01*
X17651260Y1918155D01*
X17669742Y1924769D01*
X17684303Y1929186D01*
X17703339Y1933954D01*
X17718229Y1936916D01*
X17737677Y1939801D01*
X17752777Y1941289D01*
X17772405Y1942253D01*
X17787595Y1942253D01*
X17807223Y1941289D01*
X17822323Y1939801D01*
X17841771Y1936916D01*
X17856661Y1933954D01*
X17875697Y1929186D01*
X17890258Y1924769D01*
X17908740Y1918155D01*
X17922779Y1912341D01*
X17940523Y1903949D01*
X17953936Y1896779D01*
X17970762Y1886694D01*
X17983409Y1878243D01*
X17999183Y1866545D01*
X18010930Y1856904D01*
X18025465Y1843730D01*
X18036230Y1832965D01*
X18049404Y1818430D01*
X18059045Y1806683D01*
X18070743Y1790909D01*
X18079194Y1778262D01*
X18089279Y1761436D01*
X18096449Y1748023D01*
X18104841Y1730279D01*
X18110655Y1716240D01*
X18117269Y1697758D01*
X18121686Y1683197D01*
X18126454Y1664161D01*
X18129416Y1649271D01*
X18132301Y1629823D01*
X18133789Y1614723D01*
X18134753Y1595095D01*
X18134753Y1579905D01*
X18133789Y1560277D01*
X18132301Y1545177D01*
X18129416Y1525729D01*
X18126454Y1510839D01*
X18121686Y1491803D01*
X18117269Y1477242D01*
X18110655Y1458760D01*
X18104841Y1444721D01*
X18096449Y1426977D01*
X18089279Y1413564D01*
X18079194Y1396738D01*
X18070743Y1384091D01*
X18059045Y1368317D01*
X18049404Y1356570D01*
X18036230Y1342035D01*
X18025465Y1331270D01*
X18010930Y1318096D01*
X17999183Y1308455D01*
X17983409Y1296757D01*
X17970762Y1288306D01*
X17953936Y1278221D01*
X17940523Y1271051D01*
X17922779Y1262659D01*
X17908740Y1256845D01*
X17890258Y1250231D01*
X17875697Y1245814D01*
X17856661Y1241046D01*
X17841771Y1238084D01*
X17822323Y1235199D01*
X17807223Y1233711D01*
X17787595Y1232747D01*
D02*
G37*
G01*
%LPD*%
G75*
D10*
X13335000Y38100000D03*
D11*
X8255000Y40640000D03*
D12*
X5715000Y38100000D03*
D11*
X15875000Y40640000D03*
D13*
X15875000Y38100000D03*
D12*
X10795000Y40640000D03*
D11*
X5715000Y40640000D03*
D11*
X8255000Y38100000D03*
D11*
X13335000Y40640000D03*
D12*
X10795000Y38100000D03*
D14*
X15115000Y1980000D03*
D15*
X15115000Y5805000D03*
D14*
X6475000Y5805000D03*
D16*
X6475000Y1980000D03*
D17*
X1905000Y26670000D03*
D18*
X1905000Y19050000D03*
D19*
X1905000Y21590000D03*
D18*
X1905000Y29210000D03*
D20*
X1905000Y24130000D03*
D21*
X3175000Y635000D03*
D22*
X17780000Y1587500D03*
D23*
X17780000Y8255000D03*
D22*
X20161250Y16668750D03*
D23*
X11430000Y32067500D03*
D24*
X3175000Y3810000D03*
D23*
X20161250Y19685000D03*
D22*
X9207500Y26670000D03*
D23*
X5397500Y3175000D03*
D22*
X4445000Y6508750D03*
D21*
X20161250Y18891250D03*
D22*
X18256250Y17950000D03*
D22*
X18573750Y22225000D03*
D22*
X9207500Y28257500D03*
D22*
X5397500Y33337500D03*
D22*
X9207500Y29845000D03*
D22*
X8572500Y19843750D03*
D22*
X10795000Y7620000D03*
D23*
X10795000Y12065000D03*
D23*
X17145000Y6508750D03*
M02*
