%FSLAX46Y46*%
%MOMM*%
%ADD10C,0.150000*%
G01*
G01*
%LPD*%
D10*
X8571786Y18573810D02*
X8952738Y19573810D01*
D10*
X8571786Y18573810D02*
X8190833Y19573810D01*
D10*
X7762262Y18573810D02*
X7762262Y19573810D01*
D10*
X7428928Y19573810D02*
X8095595Y19573810D01*
D10*
X7333690Y18573810D02*
X6952738Y19573810D01*
D10*
X6571786Y18573810D02*
X6952738Y19573810D01*
D10*
X6714643Y18907142D02*
X7190833Y18907142D01*
D10*
X6333690Y18573810D02*
X6333690Y19573810D01*
D10*
X5905119Y19573810D02*
X6333690Y19573810D01*
D10*
X5762262Y19526190D02*
X5905119Y19573810D01*
D10*
X5714643Y19478572D02*
X5762262Y19526190D01*
D10*
X5667024Y19383334D02*
X5714643Y19478572D01*
D10*
X5667024Y19288096D02*
X5667024Y19383334D01*
D10*
X5714643Y19192858D02*
X5667024Y19288096D01*
D10*
X5762262Y19145238D02*
X5714643Y19192858D01*
D10*
X5905119Y19097620D02*
X5762262Y19145238D01*
D10*
X6333690Y19097620D02*
X5905119Y19097620D01*
D10*
X5667024Y18573810D02*
X6000357Y19097620D01*
D10*
X4714643Y19430952D02*
X4667024Y19335714D01*
D10*
X4809881Y19526190D02*
X4714643Y19430952D01*
D10*
X4905119Y19573810D02*
X4809881Y19526190D01*
D10*
X5095595Y19573810D02*
X4905119Y19573810D01*
D10*
X5190833Y19526190D02*
X5095595Y19573810D01*
D10*
X5286071Y19430952D02*
X5190833Y19526190D01*
D10*
X5333690Y19335714D02*
X5286071Y19430952D01*
D10*
X5381309Y19192858D02*
X5333690Y19335714D01*
D10*
X5381309Y18954762D02*
X5381309Y19192858D01*
D10*
X5333690Y18811904D02*
X5381309Y18954762D01*
D10*
X5286071Y18716666D02*
X5333690Y18811904D01*
D10*
X5190833Y18621428D02*
X5286071Y18716666D01*
D10*
X5095595Y18573810D02*
X5190833Y18621428D01*
D10*
X4905119Y18573810D02*
X5095595Y18573810D01*
D10*
X4809881Y18621428D02*
X4905119Y18573810D01*
D10*
X4714643Y18716666D02*
X4809881Y18621428D01*
D10*
X4667024Y18811904D02*
X4714643Y18716666D01*
D10*
X4667024Y18954762D02*
X4667024Y18811904D01*
D10*
X4667024Y18954762D02*
X4905119Y18954762D01*
D10*
X4333690Y18573810D02*
X4333690Y19573810D01*
D10*
X3714643Y19573810D02*
X4333690Y19573810D01*
D10*
X3952738Y19097620D02*
X4333690Y19097620D01*
D10*
X3714643Y18573810D02*
X4333690Y18573810D01*
D10*
X3238452Y18573810D02*
X3238452Y19573810D01*
D10*
X2905119Y19573810D02*
X3571785Y19573810D01*
D10*
X12858810Y35814168D02*
X13858810Y35814168D01*
D10*
X13858810Y36147500D02*
X13858810Y35480832D01*
D10*
X12858810Y37004644D02*
X13858810Y36337976D01*
D10*
X12858810Y36337976D02*
X13858810Y37004644D01*
D10*
X6095952Y34909404D02*
X6000714Y34957024D01*
D10*
X6191190Y34814168D02*
X6095952Y34909404D01*
D10*
X6238809Y34718928D02*
X6191190Y34814168D01*
D10*
X6238809Y34528452D02*
X6238809Y34718928D01*
D10*
X6191190Y34433216D02*
X6238809Y34528452D01*
D10*
X6095952Y34337976D02*
X6191190Y34433216D01*
D10*
X6000714Y34290356D02*
X6095952Y34337976D01*
D10*
X5857857Y34242740D02*
X6000714Y34290356D01*
D10*
X5619762Y34242740D02*
X5857857Y34242740D01*
D10*
X5476905Y34290356D02*
X5619762Y34242740D01*
D10*
X5381666Y34337976D02*
X5476905Y34290356D01*
D10*
X5286428Y34433216D02*
X5381666Y34337976D01*
D10*
X5238809Y34528452D02*
X5286428Y34433216D01*
D10*
X5238809Y34718928D02*
X5238809Y34528452D01*
D10*
X5286428Y34814168D02*
X5238809Y34718928D01*
D10*
X5381666Y34909404D02*
X5286428Y34814168D01*
D10*
X5476905Y34957024D02*
X5381666Y34909404D01*
D10*
X5619762Y34957024D02*
X5476905Y34957024D01*
D10*
X5619762Y34957024D02*
X5619762Y34718928D01*
D10*
X5238809Y35290356D02*
X6238809Y35290356D01*
D10*
X5238809Y35957024D02*
X6238809Y35290356D01*
D10*
X5238809Y35957024D02*
X6238809Y35957024D01*
D10*
X5238809Y36337976D02*
X6238809Y36337976D01*
D10*
X6238809Y36671308D02*
X6238809Y36337976D01*
D10*
X6191190Y36814168D02*
X6238809Y36671308D01*
D10*
X6095952Y36909404D02*
X6191190Y36814168D01*
D10*
X6000714Y36957024D02*
X6095952Y36909404D01*
D10*
X5857857Y37004644D02*
X6000714Y36957024D01*
D10*
X5619762Y37004644D02*
X5857857Y37004644D01*
D10*
X5476905Y36957024D02*
X5619762Y37004644D01*
D10*
X5381666Y36909404D02*
X5476905Y36957024D01*
D10*
X5286428Y36814168D02*
X5381666Y36909404D01*
D10*
X5238809Y36671308D02*
X5286428Y36814168D01*
D10*
X5238809Y36337976D02*
X5238809Y36671308D01*
D10*
X15398810Y41782976D02*
X16398810Y41782976D01*
D10*
X16398810Y42211548D02*
X16398810Y41782976D01*
D10*
X16351190Y42354404D02*
X16398810Y42211548D01*
D10*
X16303571Y42402024D02*
X16351190Y42354404D01*
D10*
X16208333Y42449644D02*
X16303571Y42402024D01*
D10*
X16113095Y42449644D02*
X16208333Y42449644D01*
D10*
X16017857Y42402024D02*
X16113095Y42449644D01*
D10*
X15970238Y42354404D02*
X16017857Y42402024D01*
D10*
X15922619Y42211548D02*
X15970238Y42354404D01*
D10*
X15922619Y42211548D02*
X15922619Y41782976D01*
D10*
X15875000Y42354404D02*
X15922619Y42211548D01*
D10*
X15827381Y42402024D02*
X15875000Y42354404D01*
D10*
X15732143Y42449644D02*
X15827381Y42402024D01*
D10*
X15589286Y42449644D02*
X15732143Y42449644D01*
D10*
X15494048Y42402024D02*
X15589286Y42449644D01*
D10*
X15446429Y42354404D02*
X15494048Y42402024D01*
D10*
X15398810Y42211548D02*
X15446429Y42354404D01*
D10*
X15398810Y41782976D02*
X15398810Y42211548D01*
D10*
X15398810Y42973452D02*
X16398810Y42973452D01*
D10*
X16398810Y43306784D02*
X16398810Y42640120D01*
D10*
X7047976Y22066190D02*
X6952738Y21970952D01*
D10*
X7190833Y22113810D02*
X7047976Y22066190D01*
D10*
X7381309Y22113810D02*
X7190833Y22113810D01*
D10*
X7524166Y22066190D02*
X7381309Y22113810D01*
D10*
X7619404Y21970952D02*
X7524166Y22066190D01*
D10*
X7619404Y21875714D02*
X7619404Y21970952D01*
D10*
X7571785Y21780476D02*
X7619404Y21875714D01*
D10*
X7524166Y21732858D02*
X7571785Y21780476D01*
D10*
X7428928Y21685238D02*
X7524166Y21732858D01*
D10*
X7143214Y21590000D02*
X7428928Y21685238D01*
D10*
X7047976Y21542380D02*
X7143214Y21590000D01*
D10*
X7000357Y21494762D02*
X7047976Y21542380D01*
D10*
X6952738Y21399524D02*
X7000357Y21494762D01*
D10*
X6952738Y21256666D02*
X6952738Y21399524D01*
D10*
X7047976Y21161428D02*
X6952738Y21256666D01*
D10*
X7190833Y21113810D02*
X7047976Y21161428D01*
D10*
X7381309Y21113810D02*
X7190833Y21113810D01*
D10*
X7524166Y21161428D02*
X7381309Y21113810D01*
D10*
X7619404Y21256666D02*
X7524166Y21161428D01*
D10*
X6476547Y21113810D02*
X6714643Y22113810D01*
D10*
X6476547Y21113810D02*
X6238452Y22113810D01*
D10*
X6000357Y21113810D02*
X6238452Y22113810D01*
D10*
X6000357Y21113810D02*
X5762262Y22113810D01*
D10*
X4857500Y21970952D02*
X4809881Y21875714D01*
D10*
X4952738Y22066190D02*
X4857500Y21970952D01*
D10*
X5047976Y22113810D02*
X4952738Y22066190D01*
D10*
X5238452Y22113810D02*
X5047976Y22113810D01*
D10*
X5333690Y22066190D02*
X5238452Y22113810D01*
D10*
X5428928Y21970952D02*
X5333690Y22066190D01*
D10*
X5476547Y21875714D02*
X5428928Y21970952D01*
D10*
X5524166Y21732858D02*
X5476547Y21875714D01*
D10*
X5524166Y21494762D02*
X5524166Y21732858D01*
D10*
X5476547Y21351904D02*
X5524166Y21494762D01*
D10*
X5428928Y21256666D02*
X5476547Y21351904D01*
D10*
X5333690Y21161428D02*
X5428928Y21256666D01*
D10*
X5238452Y21113810D02*
X5333690Y21161428D01*
D10*
X5047976Y21113810D02*
X5238452Y21113810D01*
D10*
X4952738Y21161428D02*
X5047976Y21113810D01*
D10*
X4857500Y21256666D02*
X4952738Y21161428D01*
D10*
X4809881Y21351904D02*
X4857500Y21256666D01*
D10*
X4476547Y21113810D02*
X4476547Y22113810D01*
D10*
X3905119Y21113810D02*
X4476547Y21113810D01*
D10*
X3667023Y21113810D02*
X3667023Y22113810D01*
D10*
X3667023Y21447142D02*
X3000357Y22113810D01*
D10*
X3000357Y21113810D02*
X3428928Y21685238D01*
D10*
X19510476Y825476D02*
X21034286Y825476D01*
D10*
X21034286Y1158809D02*
X21034286Y825476D01*
D10*
X19510476Y1158809D02*
X19510476Y825476D01*
D10*
X20796190Y1587381D02*
X20843810Y1539761D01*
D10*
X20843810Y1635000D02*
X20796190Y1587381D01*
D10*
X20891428Y1587381D02*
X20843810Y1635000D01*
D10*
X20843810Y1539761D02*
X20891428Y1587381D01*
D10*
X19700952Y1587381D02*
X20510476Y1587381D01*
D10*
X19558096Y1539761D02*
X19700952Y1587381D01*
D10*
X19510476Y1444523D02*
X19558096Y1539761D01*
D10*
X19510476Y1349285D02*
X19510476Y1444523D01*
D10*
X20034286Y1968333D02*
X20510476Y1968333D01*
D10*
X19891428Y2015952D02*
X20034286Y1968333D01*
D10*
X19843810Y2111190D02*
X19891428Y2015952D01*
D10*
X19843810Y2254047D02*
X19843810Y2111190D01*
D10*
X19891428Y2349285D02*
X19843810Y2254047D01*
D10*
X20034286Y2492143D02*
X19891428Y2349285D01*
D10*
X19843810Y2492143D02*
X20510476Y2492143D01*
D10*
X20224762Y3396904D02*
X20224762Y2825476D01*
D10*
X20320000Y3396904D02*
X20224762Y3396904D01*
D10*
X20415238Y3349285D02*
X20320000Y3396904D01*
D10*
X20462858Y3301666D02*
X20415238Y3349285D01*
D10*
X20510476Y3206428D02*
X20462858Y3301666D01*
D10*
X20510476Y3063571D02*
X20510476Y3206428D01*
D10*
X20462858Y2968333D02*
X20510476Y3063571D01*
D10*
X20367620Y2873095D02*
X20462858Y2968333D01*
D10*
X20224762Y2825476D02*
X20367620Y2873095D01*
D10*
X20129524Y2825476D02*
X20224762Y2825476D01*
D10*
X19986666Y2873095D02*
X20129524Y2825476D01*
D10*
X19891428Y2968333D02*
X19986666Y2873095D01*
D10*
X19843810Y3063571D02*
X19891428Y2968333D01*
D10*
X19843810Y3206428D02*
X19843810Y3063571D01*
D10*
X19891428Y3301666D02*
X19843810Y3206428D01*
D10*
X19986666Y3396904D02*
X19891428Y3301666D01*
D10*
X19891428Y3730238D02*
X19939048Y3777857D01*
D10*
X19843810Y3777857D02*
X19891428Y3730238D01*
D10*
X19891428Y3825476D02*
X19843810Y3777857D01*
D10*
X19939048Y3777857D02*
X19891428Y3825476D01*
D10*
X19843810Y4396905D02*
X20510476Y4111190D01*
D10*
X19843810Y4396905D02*
X20510476Y4682619D01*
D10*
X19653334Y4301666D02*
X19843810Y4396905D01*
D10*
X19558096Y4206428D02*
X19653334Y4301666D01*
D10*
X19510476Y4111190D02*
X19558096Y4206428D01*
D10*
X19510476Y4063571D02*
X19510476Y4111190D01*
D10*
X20034286Y5015952D02*
X20843810Y5015952D01*
D10*
X19891428Y5063571D02*
X20034286Y5015952D01*
D10*
X19843810Y5158809D02*
X19891428Y5063571D01*
D10*
X19843810Y5254047D02*
X19843810Y5158809D01*
D10*
X20510476Y5206428D02*
X20510476Y4873095D01*
D10*
X19510476Y5825476D02*
X21034286Y5825476D01*
D10*
X21034286Y5825476D02*
X21034286Y5492143D01*
D10*
X19510476Y5825476D02*
X19510476Y5492143D01*
D10*
X20653334Y6587381D02*
X20605714Y6587381D01*
D10*
X20748572Y6635000D02*
X20653334Y6587381D01*
D10*
X20796190Y6682619D02*
X20748572Y6635000D01*
D10*
X20843810Y6777857D02*
X20796190Y6682619D01*
D10*
X20843810Y6968333D02*
X20843810Y6777857D01*
D10*
X20796190Y7063571D02*
X20843810Y6968333D01*
D10*
X20748572Y7111190D02*
X20796190Y7063571D01*
D10*
X20653334Y7158809D02*
X20748572Y7111190D01*
D10*
X20558096Y7158809D02*
X20653334Y7158809D01*
D10*
X20462858Y7111190D02*
X20558096Y7158809D01*
D10*
X20320000Y7015952D02*
X20462858Y7111190D01*
D10*
X19843810Y6539762D02*
X20320000Y7015952D01*
D10*
X19843810Y7206428D02*
X19843810Y6539762D01*
D10*
X20700952Y7730238D02*
X20653334Y7635000D01*
D10*
X20843810Y7873095D02*
X20700952Y7730238D01*
D10*
X19843810Y7873095D02*
X20843810Y7873095D01*
D10*
X19510476Y8396904D02*
X21034286Y9254047D01*
D10*
X20796190Y9635000D02*
X20843810Y9777857D01*
D10*
X20653334Y9539762D02*
X20796190Y9635000D01*
D10*
X20415238Y9492143D02*
X20653334Y9539762D01*
D10*
X20272380Y9492143D02*
X20415238Y9492143D01*
D10*
X20034286Y9539762D02*
X20272380Y9492143D01*
D10*
X19891428Y9635000D02*
X20034286Y9539762D01*
D10*
X19843810Y9777857D02*
X19891428Y9635000D01*
D10*
X19843810Y9873095D02*
X19843810Y9777857D01*
D10*
X19891428Y10015952D02*
X19843810Y9873095D01*
D10*
X20034286Y10111190D02*
X19891428Y10015952D01*
D10*
X20272380Y10158809D02*
X20034286Y10111190D01*
D10*
X20415238Y10158809D02*
X20272380Y10158809D01*
D10*
X20653334Y10111190D02*
X20415238Y10158809D01*
D10*
X20796190Y10015952D02*
X20653334Y10111190D01*
D10*
X20843810Y9873095D02*
X20796190Y10015952D01*
D10*
X20843810Y9777857D02*
X20843810Y9873095D01*
D10*
X20843810Y11063571D02*
X20843810Y10539762D01*
D10*
X20462858Y10777857D02*
X20843810Y11063571D01*
D10*
X20462858Y10920714D02*
X20462858Y10777857D01*
D10*
X20415238Y11015952D02*
X20462858Y10920714D01*
D10*
X20367620Y11063571D02*
X20415238Y11015952D01*
D10*
X20224762Y11111190D02*
X20367620Y11063571D01*
D10*
X20129524Y11111190D02*
X20224762Y11111190D01*
D10*
X19986666Y11063571D02*
X20129524Y11111190D01*
D10*
X19891428Y10968333D02*
X19986666Y11063571D01*
D10*
X19843810Y10825476D02*
X19891428Y10968333D01*
D10*
X19843810Y10682619D02*
X19843810Y10825476D01*
D10*
X19891428Y10539762D02*
X19843810Y10682619D01*
D10*
X19939048Y10492143D02*
X19891428Y10539762D01*
D10*
X20034286Y10444524D02*
X19939048Y10492143D01*
D10*
X18343810Y825476D02*
X19343810Y825476D01*
D10*
X18343810Y1492142D02*
X19343810Y1492142D01*
D10*
X18867620Y1492142D02*
X18867620Y825476D01*
D10*
X18962858Y1968333D02*
X19010476Y2063571D01*
D10*
X18867620Y1873095D02*
X18962858Y1968333D01*
D10*
X18724762Y1825476D02*
X18867620Y1873095D01*
D10*
X18629524Y1825476D02*
X18724762Y1825476D01*
D10*
X18486666Y1873095D02*
X18629524Y1825476D01*
D10*
X18391428Y1968333D02*
X18486666Y1873095D01*
D10*
X18343810Y2063571D02*
X18391428Y1968333D01*
D10*
X18343810Y2206428D02*
X18343810Y2063571D01*
D10*
X18391428Y2301666D02*
X18343810Y2206428D01*
D10*
X18486666Y2396904D02*
X18391428Y2301666D01*
D10*
X18629524Y2444523D02*
X18486666Y2396904D01*
D10*
X18724762Y2444523D02*
X18629524Y2444523D01*
D10*
X18867620Y2396904D02*
X18724762Y2444523D01*
D10*
X18962858Y2301666D02*
X18867620Y2396904D01*
D10*
X19010476Y2206428D02*
X18962858Y2301666D01*
D10*
X19010476Y2063571D02*
X19010476Y2206428D01*
D10*
X18343810Y2777857D02*
X19010476Y2777857D01*
D10*
X18962858Y2920714D02*
X18820000Y2777857D01*
D10*
X19010476Y3015952D02*
X18962858Y2920714D01*
D10*
X19010476Y3158809D02*
X19010476Y3015952D01*
D10*
X18962858Y3254047D02*
X19010476Y3158809D01*
D10*
X18820000Y3301666D02*
X18962858Y3254047D01*
D10*
X18343810Y3301666D02*
X18820000Y3301666D01*
D10*
X18962858Y3444523D02*
X18820000Y3301666D01*
D10*
X19010476Y3539761D02*
X18962858Y3444523D01*
D10*
X19010476Y3682619D02*
X19010476Y3539761D01*
D10*
X18962858Y3777857D02*
X19010476Y3682619D01*
D10*
X18820000Y3825476D02*
X18962858Y3777857D01*
D10*
X18343810Y3825476D02*
X18820000Y3825476D01*
D10*
X19296190Y4206428D02*
X19343810Y4158809D01*
D10*
X19343810Y4254047D02*
X19296190Y4206428D01*
D10*
X19391428Y4206428D02*
X19343810Y4254047D01*
D10*
X19343810Y4158809D02*
X19391428Y4206428D01*
D10*
X18343810Y4206428D02*
X19010476Y4206428D01*
D10*
X18724762Y5111190D02*
X18724762Y4539762D01*
D10*
X18820000Y5111190D02*
X18724762Y5111190D01*
D10*
X18915238Y5063571D02*
X18820000Y5111190D01*
D10*
X18962858Y5015952D02*
X18915238Y5063571D01*
D10*
X19010476Y4920714D02*
X18962858Y5015952D01*
D10*
X19010476Y4777857D02*
X19010476Y4920714D01*
D10*
X18962858Y4682619D02*
X19010476Y4777857D01*
D10*
X18867620Y4587381D02*
X18962858Y4682619D01*
D10*
X18724762Y4539762D02*
X18867620Y4587381D01*
D10*
X18629524Y4539762D02*
X18724762Y4539762D01*
D10*
X18486666Y4587381D02*
X18629524Y4539762D01*
D10*
X18391428Y4682619D02*
X18486666Y4587381D01*
D10*
X18343810Y4777857D02*
X18391428Y4682619D01*
D10*
X18343810Y4920714D02*
X18343810Y4777857D01*
D10*
X18391428Y5015952D02*
X18343810Y4920714D01*
D10*
X18486666Y5111190D02*
X18391428Y5015952D01*
D10*
X18343810Y5825476D02*
X19343810Y5825476D01*
D10*
X19343810Y6254047D02*
X19343810Y5825476D01*
D10*
X19296190Y6396904D02*
X19343810Y6254047D01*
D10*
X19248572Y6444523D02*
X19296190Y6396904D01*
D10*
X19153334Y6492143D02*
X19248572Y6444523D01*
D10*
X19010476Y6492143D02*
X19153334Y6492143D01*
D10*
X18915238Y6444523D02*
X19010476Y6492143D01*
D10*
X18867620Y6396904D02*
X18915238Y6444523D01*
D10*
X18820000Y6254047D02*
X18867620Y6396904D01*
D10*
X18820000Y5825476D02*
X18820000Y6254047D01*
D10*
X18343810Y6825476D02*
X19010476Y6825476D01*
D10*
X18867620Y6873095D02*
X18724762Y6825476D01*
D10*
X18962858Y6968333D02*
X18867620Y6873095D01*
D10*
X19010476Y7063571D02*
X18962858Y6968333D01*
D10*
X19010476Y7206428D02*
X19010476Y7063571D01*
D10*
X18962858Y7539762D02*
X19010476Y7635000D01*
D10*
X18867620Y7444523D02*
X18962858Y7539762D01*
D10*
X18724762Y7396904D02*
X18867620Y7444523D01*
D10*
X18629524Y7396904D02*
X18724762Y7396904D01*
D10*
X18486666Y7444523D02*
X18629524Y7396904D01*
D10*
X18391428Y7539762D02*
X18486666Y7444523D01*
D10*
X18343810Y7635000D02*
X18391428Y7539762D01*
D10*
X18343810Y7777857D02*
X18343810Y7635000D01*
D10*
X18391428Y7873095D02*
X18343810Y7777857D01*
D10*
X18486666Y7968333D02*
X18391428Y7873095D01*
D10*
X18629524Y8015952D02*
X18486666Y7968333D01*
D10*
X18724762Y8015952D02*
X18629524Y8015952D01*
D10*
X18867620Y7968333D02*
X18724762Y8015952D01*
D10*
X18962858Y7873095D02*
X18867620Y7968333D01*
D10*
X19010476Y7777857D02*
X18962858Y7873095D01*
D10*
X19010476Y7635000D02*
X19010476Y7777857D01*
D10*
X18248572Y8873095D02*
X19010476Y8873095D01*
D10*
X18105714Y8825476D02*
X18248572Y8873095D01*
D10*
X18058096Y8777857D02*
X18105714Y8825476D01*
D10*
X18010476Y8682619D02*
X18058096Y8777857D01*
D10*
X18010476Y8539762D02*
X18010476Y8682619D01*
D10*
X18058096Y8444524D02*
X18010476Y8539762D01*
D10*
X18962858Y8777857D02*
X18867620Y8873095D01*
D10*
X19010476Y8682619D02*
X18962858Y8777857D01*
D10*
X19010476Y8539762D02*
X19010476Y8682619D01*
D10*
X18962858Y8444524D02*
X19010476Y8539762D01*
D10*
X18867620Y8349285D02*
X18962858Y8444524D01*
D10*
X18724762Y8301666D02*
X18867620Y8349285D01*
D10*
X18629524Y8301666D02*
X18724762Y8301666D01*
D10*
X18486666Y8349285D02*
X18629524Y8301666D01*
D10*
X18391428Y8444524D02*
X18486666Y8349285D01*
D10*
X18343810Y8539762D02*
X18391428Y8444524D01*
D10*
X18343810Y8682619D02*
X18343810Y8539762D01*
D10*
X18391428Y8777857D02*
X18343810Y8682619D01*
D10*
X18486666Y8873095D02*
X18391428Y8777857D01*
D10*
X5095595Y29590952D02*
X5047976Y29495714D01*
D10*
X5190833Y29686190D02*
X5095595Y29590952D01*
D10*
X5286071Y29733810D02*
X5190833Y29686190D01*
D10*
X5476547Y29733810D02*
X5286071Y29733810D01*
D10*
X5571786Y29686190D02*
X5476547Y29733810D01*
D10*
X5667024Y29590952D02*
X5571786Y29686190D01*
D10*
X5714643Y29495714D02*
X5667024Y29590952D01*
D10*
X5762262Y29352858D02*
X5714643Y29495714D01*
D10*
X5762262Y29114762D02*
X5762262Y29352858D01*
D10*
X5714643Y28971904D02*
X5762262Y29114762D01*
D10*
X5667024Y28876666D02*
X5714643Y28971904D01*
D10*
X5571786Y28781428D02*
X5667024Y28876666D01*
D10*
X5476547Y28733810D02*
X5571786Y28781428D01*
D10*
X5286071Y28733810D02*
X5476547Y28733810D01*
D10*
X5190833Y28781428D02*
X5286071Y28733810D01*
D10*
X5095595Y28876666D02*
X5190833Y28781428D01*
D10*
X5047976Y28971904D02*
X5095595Y28876666D01*
D10*
X5047976Y29114762D02*
X5047976Y28971904D01*
D10*
X5047976Y29114762D02*
X5286071Y29114762D01*
D10*
X4714643Y28733810D02*
X4714643Y29733810D01*
D10*
X4047976Y28733810D02*
X4714643Y29733810D01*
D10*
X4047976Y28733810D02*
X4047976Y29733810D01*
D10*
X3667023Y28733810D02*
X3667023Y29733810D01*
D10*
X3333690Y29733810D02*
X3667023Y29733810D01*
D10*
X3190833Y29686190D02*
X3333690Y29733810D01*
D10*
X3095595Y29590952D02*
X3190833Y29686190D01*
D10*
X3047976Y29495714D02*
X3095595Y29590952D01*
D10*
X3000357Y29352858D02*
X3047976Y29495714D01*
D10*
X3000357Y29114762D02*
X3000357Y29352858D01*
D10*
X3047976Y28971904D02*
X3000357Y29114762D01*
D10*
X3095595Y28876666D02*
X3047976Y28971904D01*
D10*
X3190833Y28781428D02*
X3095595Y28876666D01*
D10*
X3333690Y28733810D02*
X3190833Y28781428D01*
D10*
X3667023Y28733810D02*
X3333690Y28733810D01*
D10*
X12858810Y42021072D02*
X13858810Y41640120D01*
D10*
X12858810Y42021072D02*
X13858810Y42402024D01*
D10*
X12858810Y42640120D02*
X13858810Y42640120D01*
D10*
X13811190Y43163928D02*
X13858810Y43259168D01*
D10*
X13715952Y43068692D02*
X13811190Y43163928D01*
D10*
X13620714Y43021072D02*
X13715952Y43068692D01*
D10*
X13477857Y42973452D02*
X13620714Y43021072D01*
D10*
X13239762Y42973452D02*
X13477857Y42973452D01*
D10*
X13096905Y43021072D02*
X13239762Y42973452D01*
D10*
X13001667Y43068692D02*
X13096905Y43021072D01*
D10*
X12906429Y43163928D02*
X13001667Y43068692D01*
D10*
X12858810Y43259168D02*
X12906429Y43163928D01*
D10*
X12858810Y43449644D02*
X12858810Y43259168D01*
D10*
X12906429Y43544880D02*
X12858810Y43449644D01*
D10*
X13001667Y43640120D02*
X12906429Y43544880D01*
D10*
X13096905Y43687736D02*
X13001667Y43640120D01*
D10*
X13239762Y43735356D02*
X13096905Y43687736D01*
D10*
X13477857Y43735356D02*
X13239762Y43735356D01*
D10*
X13620714Y43687736D02*
X13477857Y43735356D01*
D10*
X13715952Y43640120D02*
X13620714Y43687736D01*
D10*
X13811190Y43544880D02*
X13715952Y43640120D01*
D10*
X13858810Y43449644D02*
X13811190Y43544880D01*
D10*
X13858810Y43259168D02*
X13858810Y43449644D01*
D10*
X10318810Y35290356D02*
X11318810Y34909404D01*
D10*
X10318810Y35290356D02*
X11318810Y35671308D01*
D10*
X10318810Y35909404D02*
X11318810Y35909404D01*
D10*
X10318810Y36290356D02*
X11318810Y36290356D01*
D10*
X10318810Y36957024D02*
X11318810Y36290356D01*
D10*
X10318810Y36957024D02*
X11318810Y36957024D01*
D10*
X15398810Y35385596D02*
X16398810Y35385596D01*
D10*
X16398810Y35814168D02*
X16398810Y35385596D01*
D10*
X16351190Y35957024D02*
X16398810Y35814168D01*
D10*
X16303571Y36004644D02*
X16351190Y35957024D01*
D10*
X16208333Y36052260D02*
X16303571Y36004644D01*
D10*
X16113095Y36052260D02*
X16208333Y36052260D01*
D10*
X16017857Y36004644D02*
X16113095Y36052260D01*
D10*
X15970238Y35957024D02*
X16017857Y36004644D01*
D10*
X15922619Y35814168D02*
X15970238Y35957024D01*
D10*
X15922619Y35385596D02*
X15922619Y35814168D01*
D10*
X15398810Y36052260D02*
X15922619Y35718928D01*
D10*
X15398810Y37004644D02*
X16398810Y36337976D01*
D10*
X15398810Y36337976D02*
X16398810Y37004644D01*
D10*
X5238809Y41782976D02*
X6238809Y41782976D01*
D10*
X6238809Y42211548D02*
X6238809Y41782976D01*
D10*
X6191190Y42354404D02*
X6238809Y42211548D01*
D10*
X6143571Y42402024D02*
X6191190Y42354404D01*
D10*
X6048333Y42449644D02*
X6143571Y42402024D01*
D10*
X5953095Y42449644D02*
X6048333Y42449644D01*
D10*
X5857857Y42402024D02*
X5953095Y42449644D01*
D10*
X5810238Y42354404D02*
X5857857Y42402024D01*
D10*
X5762619Y42211548D02*
X5810238Y42354404D01*
D10*
X5762619Y41782976D02*
X5762619Y42211548D01*
D10*
X5238809Y42449644D02*
X5762619Y42116308D01*
D10*
X6191190Y43306784D02*
X6095952Y43402024D01*
D10*
X6238809Y43163928D02*
X6191190Y43306784D01*
D10*
X6238809Y42973452D02*
X6238809Y43163928D01*
D10*
X6191190Y42830596D02*
X6238809Y42973452D01*
D10*
X6095952Y42735356D02*
X6191190Y42830596D01*
D10*
X6000714Y42735356D02*
X6095952Y42735356D01*
D10*
X5905476Y42782976D02*
X6000714Y42735356D01*
D10*
X5857857Y42830596D02*
X5905476Y42782976D01*
D10*
X5810238Y42925832D02*
X5857857Y42830596D01*
D10*
X5715000Y43211548D02*
X5810238Y42925832D01*
D10*
X5667381Y43306784D02*
X5715000Y43211548D01*
D10*
X5619762Y43354404D02*
X5667381Y43306784D01*
D10*
X5524524Y43402024D02*
X5619762Y43354404D01*
D10*
X5381666Y43402024D02*
X5524524Y43402024D01*
D10*
X5286428Y43306784D02*
X5381666Y43402024D01*
D10*
X5238809Y43163928D02*
X5286428Y43306784D01*
D10*
X5238809Y42973452D02*
X5238809Y43163928D01*
D10*
X5286428Y42830596D02*
X5238809Y42973452D01*
D10*
X5381666Y42735356D02*
X5286428Y42830596D01*
D10*
X5238809Y43925832D02*
X6238809Y43925832D01*
D10*
X6238809Y44259168D02*
X6238809Y43592500D01*
D10*
X8731190Y32957024D02*
X8635952Y33052262D01*
D10*
X8778810Y32814166D02*
X8731190Y32957024D01*
D10*
X8778810Y32623690D02*
X8778810Y32814166D01*
D10*
X8731190Y32480834D02*
X8778810Y32623690D01*
D10*
X8635952Y32385596D02*
X8731190Y32480834D01*
D10*
X8540714Y32385596D02*
X8635952Y32385596D01*
D10*
X8445476Y32433214D02*
X8540714Y32385596D01*
D10*
X8397857Y32480834D02*
X8445476Y32433214D01*
D10*
X8350238Y32576072D02*
X8397857Y32480834D01*
D10*
X8255000Y32861786D02*
X8350238Y32576072D01*
D10*
X8207381Y32957024D02*
X8255000Y32861786D01*
D10*
X8159762Y33004644D02*
X8207381Y32957024D01*
D10*
X8064524Y33052262D02*
X8159762Y33004644D01*
D10*
X7921666Y33052262D02*
X8064524Y33052262D01*
D10*
X7826428Y32957024D02*
X7921666Y33052262D01*
D10*
X7778809Y32814166D02*
X7826428Y32957024D01*
D10*
X7778809Y32623690D02*
X7778809Y32814166D01*
D10*
X7826428Y32480834D02*
X7778809Y32623690D01*
D10*
X7921666Y32385596D02*
X7826428Y32480834D01*
D10*
X7778809Y33528452D02*
X8778810Y33290358D01*
D10*
X7778809Y33528452D02*
X8778810Y33766548D01*
D10*
X7778809Y34004644D02*
X8778810Y33766548D01*
D10*
X7778809Y34004644D02*
X8778810Y34242740D01*
D10*
X8635952Y35147500D02*
X8540714Y35195120D01*
D10*
X8731190Y35052264D02*
X8635952Y35147500D01*
D10*
X8778810Y34957024D02*
X8731190Y35052264D01*
D10*
X8778810Y34766548D02*
X8778810Y34957024D01*
D10*
X8731190Y34671308D02*
X8778810Y34766548D01*
D10*
X8635952Y34576072D02*
X8731190Y34671308D01*
D10*
X8540714Y34528452D02*
X8635952Y34576072D01*
D10*
X8397857Y34480832D02*
X8540714Y34528452D01*
D10*
X8159762Y34480832D02*
X8397857Y34480832D01*
D10*
X8016905Y34528452D02*
X8159762Y34480832D01*
D10*
X7921666Y34576072D02*
X8016905Y34528452D01*
D10*
X7826428Y34671308D02*
X7921666Y34576072D01*
D10*
X7778809Y34766548D02*
X7826428Y34671308D01*
D10*
X7778809Y34957024D02*
X7778809Y34766548D01*
D10*
X7826428Y35052264D02*
X7778809Y34957024D01*
D10*
X7921666Y35147500D02*
X7826428Y35052264D01*
D10*
X8016905Y35195120D02*
X7921666Y35147500D01*
D10*
X7778809Y35528452D02*
X8778810Y35528452D01*
D10*
X7778809Y36099880D02*
X7778809Y35528452D01*
D10*
X7778809Y36337976D02*
X8778810Y36337976D01*
D10*
X8112143Y36337976D02*
X8778810Y37004644D01*
D10*
X7778809Y37004644D02*
X8350238Y36576072D01*
D10*
X6667024Y24606190D02*
X6571786Y24510952D01*
D10*
X6809881Y24653810D02*
X6667024Y24606190D01*
D10*
X7000357Y24653810D02*
X6809881Y24653810D01*
D10*
X7143214Y24606190D02*
X7000357Y24653810D01*
D10*
X7238452Y24510952D02*
X7143214Y24606190D01*
D10*
X7238452Y24415714D02*
X7238452Y24510952D01*
D10*
X7190833Y24320476D02*
X7238452Y24415714D01*
D10*
X7143214Y24272858D02*
X7190833Y24320476D01*
D10*
X7047976Y24225238D02*
X7143214Y24272858D01*
D10*
X6762262Y24130000D02*
X7047976Y24225238D01*
D10*
X6667024Y24082380D02*
X6762262Y24130000D01*
D10*
X6619405Y24034762D02*
X6667024Y24082380D01*
D10*
X6571786Y23939524D02*
X6619405Y24034762D01*
D10*
X6571786Y23796666D02*
X6571786Y23939524D01*
D10*
X6667024Y23701428D02*
X6571786Y23796666D01*
D10*
X6809881Y23653810D02*
X6667024Y23701428D01*
D10*
X7000357Y23653810D02*
X6809881Y23653810D01*
D10*
X7143214Y23701428D02*
X7000357Y23653810D01*
D10*
X7238452Y23796666D02*
X7143214Y23701428D01*
D10*
X6095595Y23653810D02*
X6333690Y24653810D01*
D10*
X6095595Y23653810D02*
X5857500Y24653810D01*
D10*
X5619405Y23653810D02*
X5857500Y24653810D01*
D10*
X5619405Y23653810D02*
X5381309Y24653810D01*
D10*
X5095595Y23653810D02*
X5095595Y24653810D01*
D10*
X4762262Y24653810D02*
X5095595Y24653810D01*
D10*
X4619405Y24606190D02*
X4762262Y24653810D01*
D10*
X4524166Y24510952D02*
X4619405Y24606190D01*
D10*
X4476547Y24415714D02*
X4524166Y24510952D01*
D10*
X4428928Y24272858D02*
X4476547Y24415714D01*
D10*
X4428928Y24034762D02*
X4428928Y24272858D01*
D10*
X4476547Y23891904D02*
X4428928Y24034762D01*
D10*
X4524166Y23796666D02*
X4476547Y23891904D01*
D10*
X4619405Y23701428D02*
X4524166Y23796666D01*
D10*
X4762262Y23653810D02*
X4619405Y23701428D01*
D10*
X5095595Y23653810D02*
X4762262Y23653810D01*
D10*
X4095595Y23653810D02*
X4095595Y24653810D01*
D10*
X3571785Y24606190D02*
X3476547Y24653810D01*
D10*
X3667023Y24510952D02*
X3571785Y24606190D01*
D10*
X3714643Y24415714D02*
X3667023Y24510952D01*
D10*
X3762262Y24272858D02*
X3714643Y24415714D01*
D10*
X3762262Y24034762D02*
X3762262Y24272858D01*
D10*
X3714643Y23891904D02*
X3762262Y24034762D01*
D10*
X3667023Y23796666D02*
X3714643Y23891904D01*
D10*
X3571785Y23701428D02*
X3667023Y23796666D01*
D10*
X3476547Y23653810D02*
X3571785Y23701428D01*
D10*
X3286071Y23653810D02*
X3476547Y23653810D01*
D10*
X3190833Y23701428D02*
X3286071Y23653810D01*
D10*
X3095595Y23796666D02*
X3190833Y23701428D01*
D10*
X3047976Y23891904D02*
X3095595Y23796666D01*
D10*
X3000357Y24034762D02*
X3047976Y23891904D01*
D10*
X3000357Y24272858D02*
X3000357Y24034762D01*
D10*
X3047976Y24415714D02*
X3000357Y24272858D01*
D10*
X3095595Y24510952D02*
X3047976Y24415714D01*
D10*
X3190833Y24606190D02*
X3095595Y24510952D01*
D10*
X3286071Y24653810D02*
X3190833Y24606190D01*
D10*
X3476547Y24653810D02*
X3286071Y24653810D01*
D10*
X7190833Y26193810D02*
X7190833Y27193810D01*
D10*
X6762262Y27193810D02*
X7190833Y27193810D01*
D10*
X6619405Y27146190D02*
X6762262Y27193810D01*
D10*
X6571786Y27098572D02*
X6619405Y27146190D01*
D10*
X6524166Y27003334D02*
X6571786Y27098572D01*
D10*
X6524166Y26908096D02*
X6524166Y27003334D01*
D10*
X6571786Y26812858D02*
X6524166Y26908096D01*
D10*
X6619405Y26765238D02*
X6571786Y26812858D01*
D10*
X6762262Y26717620D02*
X6619405Y26765238D01*
D10*
X7190833Y26717620D02*
X6762262Y26717620D01*
D10*
X6524166Y26193810D02*
X6857500Y26717620D01*
D10*
X6190833Y26193810D02*
X6190833Y27193810D01*
D10*
X5571786Y27193810D02*
X6190833Y27193810D01*
D10*
X5809881Y26717620D02*
X6190833Y26717620D01*
D10*
X5571786Y26193810D02*
X6190833Y26193810D01*
D10*
X4762262Y27146190D02*
X4667024Y27050952D01*
D10*
X4905119Y27193810D02*
X4762262Y27146190D01*
D10*
X5095595Y27193810D02*
X4905119Y27193810D01*
D10*
X5238452Y27146190D02*
X5095595Y27193810D01*
D10*
X5333690Y27050952D02*
X5238452Y27146190D01*
D10*
X5333690Y26955714D02*
X5333690Y27050952D01*
D10*
X5286071Y26860476D02*
X5333690Y26955714D01*
D10*
X5238452Y26812858D02*
X5286071Y26860476D01*
D10*
X5143214Y26765238D02*
X5238452Y26812858D01*
D10*
X4857500Y26670000D02*
X5143214Y26765238D01*
D10*
X4762262Y26622380D02*
X4857500Y26670000D01*
D10*
X4714643Y26574762D02*
X4762262Y26622380D01*
D10*
X4667024Y26479524D02*
X4714643Y26574762D01*
D10*
X4667024Y26336666D02*
X4667024Y26479524D01*
D10*
X4762262Y26241428D02*
X4667024Y26336666D01*
D10*
X4905119Y26193810D02*
X4762262Y26241428D01*
D10*
X5095595Y26193810D02*
X4905119Y26193810D01*
D10*
X5238452Y26241428D02*
X5095595Y26193810D01*
D10*
X5333690Y26336666D02*
X5238452Y26241428D01*
D10*
X4333690Y26193810D02*
X4333690Y27193810D01*
D10*
X3714643Y27193810D02*
X4333690Y27193810D01*
D10*
X3952738Y26717620D02*
X4333690Y26717620D01*
D10*
X3714643Y26193810D02*
X4333690Y26193810D01*
D10*
X3238452Y26193810D02*
X3238452Y27193810D01*
D10*
X2905119Y27193810D02*
X3571785Y27193810D01*
D10*
X7778809Y41782976D02*
X8778810Y41782976D01*
D10*
X8778810Y42116308D02*
X8778810Y41782976D01*
D10*
X8731190Y42259168D02*
X8778810Y42116308D01*
D10*
X8635952Y42354404D02*
X8731190Y42259168D01*
D10*
X8540714Y42402024D02*
X8635952Y42354404D01*
D10*
X8397857Y42449644D02*
X8540714Y42402024D01*
D10*
X8159762Y42449644D02*
X8397857Y42449644D01*
D10*
X8016905Y42402024D02*
X8159762Y42449644D01*
D10*
X7921666Y42354404D02*
X8016905Y42402024D01*
D10*
X7826428Y42259168D02*
X7921666Y42354404D01*
D10*
X7778809Y42116308D02*
X7826428Y42259168D01*
D10*
X7778809Y41782976D02*
X7778809Y42116308D01*
D10*
X7778809Y42782976D02*
X8778810Y42782976D01*
D10*
X8731190Y43306784D02*
X8778810Y43402024D01*
D10*
X8635952Y43211548D02*
X8731190Y43306784D01*
D10*
X8540714Y43163928D02*
X8635952Y43211548D01*
D10*
X8397857Y43116308D02*
X8540714Y43163928D01*
D10*
X8159762Y43116308D02*
X8397857Y43116308D01*
D10*
X8016905Y43163928D02*
X8159762Y43116308D01*
D10*
X7921666Y43211548D02*
X8016905Y43163928D01*
D10*
X7826428Y43306784D02*
X7921666Y43211548D01*
D10*
X7778809Y43402024D02*
X7826428Y43306784D01*
D10*
X7778809Y43592500D02*
X7778809Y43402024D01*
D10*
X7826428Y43687736D02*
X7778809Y43592500D01*
D10*
X7921666Y43782976D02*
X7826428Y43687736D01*
D10*
X8016905Y43830596D02*
X7921666Y43782976D01*
D10*
X8159762Y43878216D02*
X8016905Y43830596D01*
D10*
X8397857Y43878216D02*
X8159762Y43878216D01*
D10*
X8540714Y43830596D02*
X8397857Y43878216D01*
D10*
X8635952Y43782976D02*
X8540714Y43830596D01*
D10*
X8731190Y43687736D02*
X8635952Y43782976D01*
D10*
X8778810Y43592500D02*
X8731190Y43687736D01*
D10*
X8778810Y43402024D02*
X8778810Y43592500D01*
G75*
M02*
