%FSLAX46Y46*%
%MOMM*%
%AMPS41*
1,1,1.800000,0.000000,0.000000*
%
%ADD41PS41*%
%AMPS26*
1,1,1.800000,0.000000,0.000000*
%
%ADD26PS26*%
%AMPS28*
1,1,1.800000,0.000000,0.000000*
%
%ADD28PS28*%
%AMPS38*
1,1,1.800000,0.000000,0.000000*
%
%ADD38PS38*%
%AMPS40*
1,1,1.800000,0.000000,0.000000*
%
%ADD40PS40*%
%AMPS25*
1,1,1.800000,0.000000,0.000000*
%
%ADD25PS25*%
%AMPS39*
1,1,1.800000,0.000000,0.000000*
%
%ADD39PS39*%
%AMPS27*
1,1,1.800000,0.000000,0.000000*
%
%ADD27PS27*%
%AMPS19*
21,1,0.800000,1.100000,0.000000,0.000000,180.000000*
%
%ADD19PS19*%
%AMPS17*
21,1,0.900000,0.900000,0.000000,0.000000,270.000000*
%
%ADD17PS17*%
%AMPS18*
21,1,0.900000,0.850000,0.000000,0.000000,90.000000*
%
%ADD18PS18*%
%AMPS14*
21,1,0.900000,0.850000,0.000000,0.000000,270.000000*
%
%ADD14PS14*%
%AMPS33*
21,1,0.370000,1.100000,0.000000,0.000000,0.000000*
%
%ADD33PS33*%
%AMPS31*
21,1,0.620000,1.100000,0.000000,0.000000,0.000000*
%
%ADD31PS31*%
%AMPS24*
21,1,0.600000,1.000000,0.000000,0.000000,0.000000*
%
%ADD24PS24*%
%AMPS13*
21,1,0.600000,1.000000,0.000000,0.000000,90.000000*
%
%ADD13PS13*%
%AMPS20*
21,1,0.600000,1.000000,0.000000,0.000000,180.000000*
%
%ADD20PS20*%
%AMPS23*
21,1,0.600000,1.000000,0.000000,0.000000,270.000000*
%
%ADD23PS23*%
%AMPS30*
21,1,0.930000,0.730000,0.000000,0.000000,0.000000*
%
%ADD30PS30*%
%AMPS22*
21,1,0.930000,0.730000,0.000000,0.000000,90.000000*
%
%ADD22PS22*%
%AMPS29*
21,1,0.930000,0.730000,0.000000,0.000000,180.000000*
%
%ADD29PS29*%
%AMPS21*
21,1,0.930000,0.730000,0.000000,0.000000,270.000000*
%
%ADD21PS21*%
%AMPS15*
21,1,1.100000,1.700000,0.000000,0.000000,0.000000*
%
%ADD15PS15*%
%AMPS16*
21,1,1.100000,1.700000,0.000000,0.000000,180.000000*
%
%ADD16PS16*%
%AMPS12*
21,1,0.593541,1.808625,0.000000,0.000000,90.000000*
%
%ADD12PS12*%
%AMPS11*
21,1,0.593541,1.808625,0.000000,0.000000,270.000000*
%
%ADD11PS11*%
%AMPS43*
1,1,0.400000,0.000000,0.000000*
%
%ADD43PS43*%
%AMPS45*
1,1,0.400000,0.000000,0.000000*
%
%ADD45PS45*%
%AMPS42*
1,1,0.400000,0.000000,0.000000*
%
%ADD42PS42*%
%AMPS44*
1,1,0.400000,0.000000,0.000000*
%
%ADD44PS44*%
%AMPS37*
21,1,1.000000,1.400000,0.000000,0.000000,270.000000*
1,1,1.400000,0.000000,-0.500000*
1,1,1.400000,0.000000,0.500000*
%
%ADD37PS37*%
%AMPS35*
21,1,1.000000,1.400000,0.000000,0.000000,270.000000*
1,1,1.400000,0.000000,-0.500000*
1,1,1.400000,0.000000,0.500000*
%
%ADD35PS35*%
%AMPS32*
21,1,1.000000,1.400000,0.000000,0.000000,270.000000*
1,1,1.400000,0.000000,-0.500000*
1,1,1.400000,0.000000,0.500000*
%
%ADD32PS32*%
%AMPS10*
1,1,3.400000,0.000000,0.000000*
%
%ADD10PS10*%
%AMPS34*
1,1,0.800000,0.000000,0.000000*
%
%ADD34PS34*%
%AMPS36*
21,1,0.250000,0.800000,0.000000,0.000000,0.000000*
1,1,0.800000,0.125000,0.000000*
1,1,0.800000,-0.125000,0.000000*
%
%ADD36PS36*%
G01*
G01*
%LPD*%
G75*
D10*
X16827500Y29845000D03*
D10*
X4762500Y11747500D03*
D11*
X9873482Y18060000D03*
D12*
X16796518Y21310000D03*
D12*
X16796518Y16760000D03*
D11*
X9873482Y23260000D03*
D12*
X16796518Y23910000D03*
D12*
X16796518Y19360000D03*
D12*
X16796518Y20660000D03*
D12*
X16796518Y20010000D03*
D12*
X16796518Y22610000D03*
D11*
X9873482Y17410000D03*
D12*
X16796518Y23260000D03*
D11*
X9873482Y20660000D03*
D12*
X16796518Y18710000D03*
D11*
X9873482Y21960000D03*
D12*
X16796518Y18060000D03*
D11*
X9873482Y22610000D03*
D12*
X16796518Y17410000D03*
D11*
X9873482Y20010000D03*
D11*
X9873482Y16110000D03*
D12*
X16796518Y15460000D03*
D11*
X9873482Y21310000D03*
D11*
X9873482Y23910000D03*
D12*
X16796518Y16110000D03*
D11*
X9873482Y16760000D03*
D11*
X9873482Y18710000D03*
D12*
X16796518Y21960000D03*
D11*
X9873482Y19360000D03*
D11*
X9873482Y15460000D03*
D13*
X4445000Y4330000D03*
D13*
X4445000Y5830000D03*
D14*
X19367500Y18617500D03*
D14*
X19367500Y20117500D03*
D15*
X4450000Y26962500D03*
D16*
X8250000Y33362500D03*
D16*
X4450000Y33362500D03*
D15*
X8250000Y26962500D03*
D17*
X19050000Y3340000D03*
D17*
X19050000Y1740000D03*
D14*
X19367500Y15442500D03*
D14*
X19367500Y16942500D03*
D18*
X3175000Y2972500D03*
D18*
X3175000Y1472500D03*
D19*
X11745000Y8801250D03*
D19*
X10795000Y11201250D03*
D19*
X9845000Y8801250D03*
D19*
X11745000Y11201250D03*
D19*
X10795000Y8801250D03*
D19*
X9845000Y11201250D03*
D20*
X7735000Y25082500D03*
D20*
X6235000Y25082500D03*
D21*
X10002500Y33337500D03*
D22*
X12222500Y33337500D03*
D23*
X19050000Y13132500D03*
D23*
X19050000Y11632500D03*
D18*
X7302500Y22022500D03*
D18*
X7302500Y20522500D03*
D24*
X10045000Y26670000D03*
D24*
X11545000Y26670000D03*
D17*
X19050000Y10007500D03*
D17*
X19050000Y8407500D03*
D25*
X13335000Y38100000D03*
D26*
X8255000Y40640000D03*
D27*
X5715000Y38100000D03*
D26*
X15875000Y40640000D03*
D28*
X15875000Y38100000D03*
D27*
X10795000Y40640000D03*
D26*
X5715000Y40640000D03*
D26*
X8255000Y38100000D03*
D26*
X13335000Y40640000D03*
D27*
X10795000Y38100000D03*
D18*
X4445000Y2972500D03*
D18*
X4445000Y1472500D03*
D29*
X4445000Y25240000D03*
D30*
X4445000Y23020000D03*
D23*
X19050000Y6465000D03*
D23*
X19050000Y4965000D03*
D31*
X7695000Y6180000D03*
D32*
X15115000Y1980000D03*
D33*
X12545000Y6180000D03*
D34*
X7795000Y5080000D03*
D33*
X10045000Y6180000D03*
D33*
X11045000Y6180000D03*
D35*
X15115000Y5805000D03*
D31*
X13895000Y6180000D03*
D33*
X12045000Y6180000D03*
D33*
X9045000Y6180000D03*
D31*
X13145000Y6180000D03*
D33*
X11545000Y6180000D03*
D33*
X9545000Y6180000D03*
D36*
X13795000Y5080000D03*
D32*
X6475000Y5805000D03*
D37*
X6475000Y1980000D03*
D33*
X10545000Y6180000D03*
D31*
X8445000Y6180000D03*
D24*
X10045000Y29845000D03*
D24*
X11545000Y29845000D03*
D20*
X11545000Y28257500D03*
D20*
X10045000Y28257500D03*
D13*
X17145000Y4330000D03*
D13*
X17145000Y5830000D03*
D38*
X1905000Y26670000D03*
D39*
X1905000Y19050000D03*
D40*
X1905000Y21590000D03*
D39*
X1905000Y29210000D03*
D41*
X1905000Y24130000D03*
D42*
X3175000Y635000D03*
D43*
X17780000Y1587500D03*
D44*
X17780000Y8255000D03*
D43*
X20161250Y16668750D03*
D44*
X11430000Y32067500D03*
D45*
X3175000Y3810000D03*
D44*
X20161250Y19685000D03*
D43*
X9207500Y26670000D03*
D44*
X5397500Y3175000D03*
D43*
X4445000Y6508750D03*
D42*
X20161250Y18891250D03*
D43*
X18256250Y17950000D03*
D43*
X18573750Y22225000D03*
D43*
X9207500Y28257500D03*
D43*
X5397500Y33337500D03*
D43*
X9207500Y29845000D03*
D43*
X8572500Y19843750D03*
D43*
X10795000Y7620000D03*
D44*
X10795000Y12065000D03*
D44*
X17145000Y6508750D03*
M02*
