%FSLAX46Y46*%
%MOMM*%
%ADD10C,0.200000*%
%ADD11C,0.350000*%
%AMPS12*
1,1,1.400000,0.000000,0.000000*
%
%ADD12PS12*%
%AMPS13*
1,1,0.600000,0.000000,0.000000*
%
%ADD13PS13*%
G01*
%LPD*%
G36*
X-8760000Y6477000D02*
X-8720996Y6484920D01*
X-8688171Y6507425D01*
X-8666723Y6540952D01*
X-8660000Y6577000D01*
X-8660000Y8787167D01*
X-8667614Y8825441D01*
X-8668728Y8828130D01*
X-8670711Y8832604D01*
X-8671233Y8833708D01*
X-8678928Y8852285D01*
X-8679342Y8853442D01*
X-8681105Y8858012D01*
X-8681571Y8859136D01*
X-8684881Y8868386D01*
X-8685233Y8869547D01*
X-8686771Y8874203D01*
X-8687191Y8875377D01*
X-8693035Y8894642D01*
X-8693340Y8895858D01*
X-8694646Y8900576D01*
X-8695001Y8901745D01*
X-8697383Y8911260D01*
X-8697621Y8912454D01*
X-8698694Y8917234D01*
X-8698993Y8918428D01*
X-8702919Y8938168D01*
X-8703099Y8939379D01*
X-8703939Y8944222D01*
X-8704174Y8945404D01*
X-8705616Y8955122D01*
X-8705735Y8956332D01*
X-8706335Y8961191D01*
X-8706518Y8962422D01*
X-8708489Y8982440D01*
X-8708550Y8983671D01*
X-8708911Y8988562D01*
X-8709029Y8989763D01*
X-8709511Y8999558D01*
X-8709511Y9000780D01*
X-8709631Y9005688D01*
X-8709693Y9006950D01*
X-8709693Y9027050D01*
X-8709631Y9028312D01*
X-8709511Y9033220D01*
X-8709511Y9034442D01*
X-8709029Y9044237D01*
X-8708911Y9045438D01*
X-8708550Y9050329D01*
X-8708489Y9051560D01*
X-8706518Y9071578D01*
X-8706335Y9072809D01*
X-8705735Y9077668D01*
X-8705616Y9078878D01*
X-8704174Y9088596D01*
X-8703939Y9089778D01*
X-8703099Y9094621D01*
X-8702919Y9095832D01*
X-8698993Y9115572D01*
X-8698694Y9116766D01*
X-8697621Y9121546D01*
X-8697383Y9122740D01*
X-8695001Y9132255D01*
X-8694646Y9133424D01*
X-8693340Y9138142D01*
X-8693035Y9139358D01*
X-8687191Y9158623D01*
X-8686771Y9159797D01*
X-8685233Y9164453D01*
X-8684881Y9165614D01*
X-8681571Y9174864D01*
X-8681105Y9175988D01*
X-8679342Y9180558D01*
X-8678928Y9181715D01*
X-8671233Y9200292D01*
X-8670711Y9201396D01*
X-8668729Y9205870D01*
X-8668261Y9206998D01*
X-8664055Y9215893D01*
X-8663478Y9216973D01*
X-8661276Y9221346D01*
X-8660745Y9222469D01*
X-8651260Y9240214D01*
X-8650629Y9241267D01*
X-8648201Y9245553D01*
X-8647632Y9246618D01*
X-8642583Y9255042D01*
X-8641909Y9256050D01*
X-8639284Y9260194D01*
X-8638641Y9261267D01*
X-8627484Y9277964D01*
X-8626736Y9278972D01*
X-8623918Y9282974D01*
X-8623234Y9283997D01*
X-8617384Y9291885D01*
X-8616606Y9292833D01*
X-8613593Y9296693D01*
X-8612858Y9297684D01*
X-8600101Y9313230D01*
X-8599299Y9314114D01*
X-8596072Y9317854D01*
X-8595306Y9318788D01*
X-8588723Y9326052D01*
X-8587854Y9326921D01*
X-8584468Y9330478D01*
X-8583636Y9331396D01*
X-8569397Y9345635D01*
X-8568479Y9346467D01*
X-8564924Y9349851D01*
X-8564060Y9350715D01*
X-8556796Y9357298D01*
X-8555863Y9358064D01*
X-8552142Y9361274D01*
X-8551228Y9362102D01*
X-8535675Y9374866D01*
X-8534692Y9375595D01*
X-8530815Y9378620D01*
X-8529875Y9379392D01*
X-8521992Y9385238D01*
X-8520965Y9385924D01*
X-8516955Y9388749D01*
X-8515979Y9389473D01*
X-8499242Y9400656D01*
X-8498192Y9401286D01*
X-8494058Y9403903D01*
X-8493031Y9404589D01*
X-8484618Y9409632D01*
X-8483553Y9410201D01*
X-8479267Y9412629D01*
X-8478214Y9413260D01*
X-8460469Y9422745D01*
X-8459346Y9423276D01*
X-8454973Y9425478D01*
X-8453893Y9426055D01*
X-8444998Y9430261D01*
X-8443870Y9430729D01*
X-8439396Y9432711D01*
X-8438292Y9433233D01*
X-8419715Y9440928D01*
X-8418558Y9441342D01*
X-8413988Y9443105D01*
X-8412864Y9443571D01*
X-8403614Y9446881D01*
X-8402453Y9447233D01*
X-8397797Y9448771D01*
X-8396623Y9449191D01*
X-8377358Y9455035D01*
X-8376142Y9455340D01*
X-8371424Y9456646D01*
X-8370255Y9457001D01*
X-8360740Y9459383D01*
X-8359546Y9459621D01*
X-8354766Y9460694D01*
X-8353572Y9460993D01*
X-8333832Y9464919D01*
X-8332621Y9465099D01*
X-8327778Y9465939D01*
X-8326596Y9466174D01*
X-8316878Y9467616D01*
X-8315668Y9467735D01*
X-8310809Y9468335D01*
X-8309578Y9468518D01*
X-8289560Y9470489D01*
X-8288329Y9470550D01*
X-8283438Y9470911D01*
X-8282237Y9471029D01*
X-8272442Y9471511D01*
X-8271220Y9471511D01*
X-8266312Y9471631D01*
X-8265050Y9471693D01*
X-8244950Y9471693D01*
X-8243688Y9471631D01*
X-8238780Y9471511D01*
X-8237558Y9471511D01*
X-8227763Y9471029D01*
X-8226562Y9470911D01*
X-8221671Y9470550D01*
X-8220440Y9470489D01*
X-8200422Y9468518D01*
X-8199191Y9468335D01*
X-8194332Y9467735D01*
X-8193122Y9467616D01*
X-8183404Y9466174D01*
X-8182222Y9465939D01*
X-8177379Y9465099D01*
X-8176168Y9464919D01*
X-8156428Y9460993D01*
X-8155234Y9460694D01*
X-8150454Y9459621D01*
X-8149260Y9459383D01*
X-8139745Y9457001D01*
X-8138576Y9456646D01*
X-8133858Y9455340D01*
X-8132642Y9455035D01*
X-8113377Y9449191D01*
X-8112203Y9448771D01*
X-8107547Y9447233D01*
X-8106386Y9446881D01*
X-8097136Y9443571D01*
X-8096012Y9443105D01*
X-8091442Y9441342D01*
X-8090285Y9440928D01*
X-8071708Y9433233D01*
X-8070604Y9432711D01*
X-8066130Y9430729D01*
X-8065002Y9430261D01*
X-8056107Y9426055D01*
X-8055027Y9425478D01*
X-8050654Y9423276D01*
X-8049531Y9422745D01*
X-8031786Y9413260D01*
X-8030733Y9412629D01*
X-8026447Y9410201D01*
X-8025382Y9409632D01*
X-8016969Y9404589D01*
X-8015942Y9403903D01*
X-8011808Y9401286D01*
X-8010758Y9400656D01*
X-7994021Y9389473D01*
X-7993045Y9388749D01*
X-7989035Y9385924D01*
X-7988008Y9385238D01*
X-7980125Y9379392D01*
X-7979185Y9378620D01*
X-7975308Y9375595D01*
X-7974325Y9374866D01*
X-7958772Y9362102D01*
X-7957858Y9361274D01*
X-7954137Y9358064D01*
X-7953204Y9357298D01*
X-7945940Y9350715D01*
X-7945076Y9349851D01*
X-7941521Y9346467D01*
X-7940603Y9345635D01*
X-7926364Y9331396D01*
X-7925532Y9330478D01*
X-7922146Y9326921D01*
X-7921277Y9326052D01*
X-7914694Y9318788D01*
X-7913928Y9317854D01*
X-7910701Y9314114D01*
X-7909899Y9313230D01*
X-7897142Y9297684D01*
X-7896407Y9296693D01*
X-7893394Y9292833D01*
X-7892616Y9291885D01*
X-7886766Y9283997D01*
X-7886082Y9282974D01*
X-7883264Y9278972D01*
X-7882530Y9277983D01*
X-7871351Y9261251D01*
X-7870726Y9260209D01*
X-7868092Y9256051D01*
X-7867416Y9255039D01*
X-7862364Y9246611D01*
X-7861785Y9245528D01*
X-7859371Y9241265D01*
X-7858735Y9240203D01*
X-7849258Y9222472D01*
X-7848737Y9221371D01*
X-7846526Y9216979D01*
X-7845940Y9215882D01*
X-7841745Y9207013D01*
X-7841269Y9205863D01*
X-7839283Y9201383D01*
X-7838770Y9200299D01*
X-7831073Y9181717D01*
X-7830658Y9180558D01*
X-7828895Y9175988D01*
X-7828429Y9174864D01*
X-7825119Y9165614D01*
X-7824767Y9164453D01*
X-7823229Y9159797D01*
X-7822809Y9158623D01*
X-7816965Y9139358D01*
X-7816660Y9138142D01*
X-7815354Y9133424D01*
X-7814999Y9132255D01*
X-7812617Y9122740D01*
X-7812379Y9121546D01*
X-7811306Y9116766D01*
X-7811007Y9115572D01*
X-7807081Y9095832D01*
X-7806901Y9094621D01*
X-7806061Y9089778D01*
X-7805826Y9088596D01*
X-7804384Y9078878D01*
X-7804265Y9077668D01*
X-7803665Y9072809D01*
X-7803482Y9071578D01*
X-7801511Y9051560D01*
X-7801450Y9050329D01*
X-7801089Y9045438D01*
X-7800971Y9044237D01*
X-7800489Y9034442D01*
X-7800489Y9033220D01*
X-7800369Y9028312D01*
X-7800307Y9027050D01*
X-7800307Y9006950D01*
X-7800369Y9005688D01*
X-7800489Y9000780D01*
X-7800489Y8999558D01*
X-7800971Y8989763D01*
X-7801089Y8988562D01*
X-7801450Y8983671D01*
X-7801511Y8982440D01*
X-7803482Y8962422D01*
X-7803665Y8961191D01*
X-7804265Y8956332D01*
X-7804384Y8955122D01*
X-7805826Y8945404D01*
X-7806061Y8944222D01*
X-7806901Y8939379D01*
X-7807081Y8938168D01*
X-7811007Y8918428D01*
X-7811306Y8917234D01*
X-7812379Y8912454D01*
X-7812617Y8911260D01*
X-7814999Y8901745D01*
X-7815354Y8900576D01*
X-7816660Y8895858D01*
X-7816965Y8894642D01*
X-7822809Y8875377D01*
X-7823229Y8874203D01*
X-7824767Y8869547D01*
X-7825119Y8868386D01*
X-7828429Y8859136D01*
X-7828895Y8858012D01*
X-7830658Y8853442D01*
X-7831072Y8852285D01*
X-7838767Y8833708D01*
X-7839289Y8832604D01*
X-7841272Y8828130D01*
X-7842386Y8825441D01*
X-7850000Y8787167D01*
X-7850000Y6577000D01*
X-7842080Y6537996D01*
X-7819575Y6505171D01*
X-7786048Y6483723D01*
X-7750000Y6477000D01*
X9590000Y6477000D01*
X9629004Y6484920D01*
X9661829Y6507425D01*
X9683277Y6540952D01*
X9690000Y6577000D01*
X9690000Y19090000D01*
X9682080Y19129004D01*
X9659575Y19161829D01*
X9626048Y19183277D01*
X9590000Y19190000D01*
X-9590000Y19190000D01*
X-9629004Y19182080D01*
X-9661829Y19159575D01*
X-9683277Y19126048D01*
X-9690000Y19090000D01*
X-9690000Y6577000D01*
X-9682080Y6537996D01*
X-9659575Y6505171D01*
X-9626048Y6483723D01*
X-9590000Y6477000D01*
X-8760000Y6477000D01*
D02*
G37*
%LPC*%
G36*
X5097410Y14920488D02*
X5062590Y14920488D01*
X4905756Y14928194D01*
X4871090Y14931608D01*
X4715780Y14954645D01*
X4681599Y14961444D01*
X4529302Y14999593D01*
X4495964Y15009706D01*
X4348147Y15062595D01*
X4315942Y15075935D01*
X4174006Y15143066D01*
X4143296Y15159481D01*
X4008614Y15240206D01*
X3979654Y15259557D01*
X3853528Y15353098D01*
X3826609Y15375189D01*
X3710264Y15480638D01*
X3685639Y15505264D01*
X3580188Y15621612D01*
X3558098Y15648528D01*
X3464564Y15774644D01*
X3445200Y15803624D01*
X3364481Y15938296D01*
X3348066Y15969006D01*
X3280935Y16110942D01*
X3267595Y16143147D01*
X3214704Y16290969D01*
X3204594Y16324297D01*
X3166444Y16476604D01*
X3159647Y16510775D01*
X3136606Y16666105D01*
X3133194Y16700741D01*
X3125488Y16857591D01*
X3125488Y16892409D01*
X3133194Y17049246D01*
X3136607Y17083910D01*
X3159648Y17239237D01*
X3166440Y17273385D01*
X3204593Y17425698D01*
X3214706Y17459036D01*
X3267595Y17606853D01*
X3280935Y17639058D01*
X3348061Y17780985D01*
X3364481Y17811704D01*
X3445213Y17946395D01*
X3464557Y17975345D01*
X3558090Y18101461D01*
X3580196Y18128397D01*
X3685628Y18244724D01*
X3710276Y18269372D01*
X3826603Y18374804D01*
X3853539Y18396910D01*
X3979655Y18490443D01*
X4008605Y18509787D01*
X4143296Y18590519D01*
X4174015Y18606939D01*
X4315942Y18674065D01*
X4348147Y18687405D01*
X4495964Y18740294D01*
X4529302Y18750407D01*
X4681615Y18788560D01*
X4715763Y18795352D01*
X4871090Y18818393D01*
X4905754Y18821806D01*
X5062591Y18829512D01*
X5097409Y18829512D01*
X5254246Y18821806D01*
X5288910Y18818393D01*
X5444237Y18795352D01*
X5478385Y18788560D01*
X5630698Y18750407D01*
X5664036Y18740294D01*
X5811853Y18687405D01*
X5844058Y18674065D01*
X5985985Y18606939D01*
X6016704Y18590519D01*
X6151395Y18509787D01*
X6180345Y18490443D01*
X6306461Y18396910D01*
X6333397Y18374804D01*
X6449724Y18269372D01*
X6474372Y18244724D01*
X6579804Y18128397D01*
X6601910Y18101461D01*
X6695443Y17975345D01*
X6714787Y17946395D01*
X6795519Y17811704D01*
X6811939Y17780985D01*
X6879065Y17639058D01*
X6892405Y17606853D01*
X6945294Y17459036D01*
X6955407Y17425698D01*
X6993560Y17273385D01*
X7000352Y17239237D01*
X7023393Y17083910D01*
X7026806Y17049246D01*
X7034512Y16892409D01*
X7034512Y16857591D01*
X7026806Y16700741D01*
X7023394Y16666105D01*
X7000353Y16510775D01*
X6993556Y16476604D01*
X6955410Y16324314D01*
X6945290Y16290953D01*
X6892398Y16143131D01*
X6879071Y16110956D01*
X6811934Y15969006D01*
X6795519Y15938296D01*
X6714800Y15803624D01*
X6695436Y15774644D01*
X6601902Y15648528D01*
X6579812Y15621612D01*
X6474361Y15505264D01*
X6449736Y15480638D01*
X6333403Y15375199D01*
X6306461Y15353089D01*
X6180346Y15259557D01*
X6151385Y15240206D01*
X6016711Y15159485D01*
X5985985Y15143061D01*
X5844058Y15075935D01*
X5811853Y15062595D01*
X5664036Y15009706D01*
X5630698Y14999593D01*
X5478401Y14961444D01*
X5444220Y14954645D01*
X5288910Y14931608D01*
X5254244Y14928194D01*
X5097410Y14920488D01*
D02*
G37*
%LPC*%
G36*
X-5062590Y14920488D02*
X-5097410Y14920488D01*
X-5254244Y14928194D01*
X-5288910Y14931608D01*
X-5444220Y14954645D01*
X-5478401Y14961444D01*
X-5630698Y14999593D01*
X-5664036Y15009706D01*
X-5811853Y15062595D01*
X-5844058Y15075935D01*
X-5985994Y15143066D01*
X-6016704Y15159481D01*
X-6151386Y15240206D01*
X-6180346Y15259557D01*
X-6306472Y15353098D01*
X-6333391Y15375189D01*
X-6449736Y15480638D01*
X-6474361Y15505264D01*
X-6579812Y15621612D01*
X-6601902Y15648528D01*
X-6695436Y15774644D01*
X-6714800Y15803624D01*
X-6795519Y15938296D01*
X-6811934Y15969006D01*
X-6879065Y16110942D01*
X-6892405Y16143147D01*
X-6945296Y16290969D01*
X-6955406Y16324297D01*
X-6993556Y16476604D01*
X-7000353Y16510775D01*
X-7023394Y16666105D01*
X-7026806Y16700741D01*
X-7034512Y16857591D01*
X-7034512Y16892409D01*
X-7026806Y17049246D01*
X-7023393Y17083910D01*
X-7000352Y17239237D01*
X-6993560Y17273385D01*
X-6955407Y17425698D01*
X-6945294Y17459036D01*
X-6892405Y17606853D01*
X-6879065Y17639058D01*
X-6811939Y17780985D01*
X-6795519Y17811704D01*
X-6714787Y17946395D01*
X-6695443Y17975345D01*
X-6601910Y18101461D01*
X-6579804Y18128397D01*
X-6474372Y18244724D01*
X-6449724Y18269372D01*
X-6333397Y18374804D01*
X-6306461Y18396910D01*
X-6180345Y18490443D01*
X-6151395Y18509787D01*
X-6016704Y18590519D01*
X-5985985Y18606939D01*
X-5844058Y18674065D01*
X-5811853Y18687405D01*
X-5664036Y18740294D01*
X-5630698Y18750407D01*
X-5478385Y18788560D01*
X-5444237Y18795352D01*
X-5288910Y18818393D01*
X-5254246Y18821806D01*
X-5097409Y18829512D01*
X-5062591Y18829512D01*
X-4905754Y18821806D01*
X-4871090Y18818393D01*
X-4715763Y18795352D01*
X-4681615Y18788560D01*
X-4529302Y18750407D01*
X-4495964Y18740294D01*
X-4348147Y18687405D01*
X-4315942Y18674065D01*
X-4174015Y18606939D01*
X-4143296Y18590519D01*
X-4008605Y18509787D01*
X-3979655Y18490443D01*
X-3853539Y18396910D01*
X-3826603Y18374804D01*
X-3710276Y18269372D01*
X-3685628Y18244724D01*
X-3580196Y18128397D01*
X-3558090Y18101461D01*
X-3464557Y17975345D01*
X-3445213Y17946395D01*
X-3364481Y17811704D01*
X-3348061Y17780985D01*
X-3280935Y17639058D01*
X-3267595Y17606853D01*
X-3214706Y17459036D01*
X-3204593Y17425698D01*
X-3166440Y17273385D01*
X-3159648Y17239237D01*
X-3136607Y17083910D01*
X-3133194Y17049246D01*
X-3125488Y16892409D01*
X-3125488Y16857591D01*
X-3133194Y16700741D01*
X-3136606Y16666105D01*
X-3159647Y16510775D01*
X-3166444Y16476604D01*
X-3204590Y16324314D01*
X-3214710Y16290953D01*
X-3267602Y16143131D01*
X-3280929Y16110956D01*
X-3348066Y15969006D01*
X-3364481Y15938296D01*
X-3445200Y15803624D01*
X-3464564Y15774644D01*
X-3558098Y15648528D01*
X-3580188Y15621612D01*
X-3685639Y15505264D01*
X-3710264Y15480638D01*
X-3826597Y15375199D01*
X-3853539Y15353089D01*
X-3979654Y15259557D01*
X-4008615Y15240206D01*
X-4143289Y15159485D01*
X-4174015Y15143061D01*
X-4315942Y15075935D01*
X-4348147Y15062595D01*
X-4495964Y15009706D01*
X-4529302Y14999593D01*
X-4681599Y14961444D01*
X-4715780Y14954645D01*
X-4871090Y14931608D01*
X-4905756Y14928194D01*
X-5062590Y14920488D01*
D02*
G37*
%LPC*%
G36*
X652410Y9520488D02*
X617590Y9520488D01*
X553857Y9523619D01*
X519221Y9527031D01*
X456114Y9536392D01*
X421933Y9543191D01*
X360080Y9558684D01*
X326738Y9568798D01*
X266671Y9590291D01*
X234510Y9603612D01*
X176834Y9630891D01*
X146117Y9647311D01*
X91403Y9680105D01*
X62450Y9699450D01*
X11202Y9737458D01*
X-15708Y9759542D01*
X-62985Y9802392D01*
X-87608Y9827015D01*
X-130458Y9874292D01*
X-152542Y9901202D01*
X-190550Y9952450D01*
X-209895Y9981403D01*
X-242689Y10036117D01*
X-259109Y10066834D01*
X-286388Y10124510D01*
X-299709Y10156671D01*
X-321202Y10216738D01*
X-331316Y10250080D01*
X-346809Y10311933D01*
X-353608Y10346114D01*
X-362969Y10409221D01*
X-366381Y10443857D01*
X-369512Y10507590D01*
X-369512Y10542410D01*
X-366381Y10606143D01*
X-362969Y10640779D01*
X-353608Y10703886D01*
X-346809Y10738067D01*
X-331316Y10799920D01*
X-321202Y10833262D01*
X-299709Y10893329D01*
X-286388Y10925490D01*
X-259109Y10983166D01*
X-242689Y11013883D01*
X-209895Y11068597D01*
X-190550Y11097550D01*
X-152542Y11148798D01*
X-130458Y11175708D01*
X-87608Y11222985D01*
X-62985Y11247608D01*
X-15708Y11290458D01*
X11202Y11312542D01*
X62450Y11350550D01*
X91403Y11369895D01*
X146117Y11402689D01*
X176834Y11419109D01*
X234510Y11446388D01*
X266671Y11459709D01*
X326738Y11481202D01*
X360080Y11491316D01*
X421933Y11506809D01*
X456114Y11513608D01*
X519221Y11522969D01*
X553857Y11526381D01*
X617590Y11529512D01*
X652410Y11529512D01*
X716143Y11526381D01*
X750779Y11522969D01*
X813886Y11513608D01*
X848067Y11506809D01*
X909920Y11491316D01*
X943262Y11481202D01*
X1003329Y11459709D01*
X1035490Y11446388D01*
X1093166Y11419109D01*
X1123883Y11402689D01*
X1178597Y11369895D01*
X1207550Y11350550D01*
X1258798Y11312542D01*
X1285708Y11290458D01*
X1332985Y11247608D01*
X1357608Y11222985D01*
X1400458Y11175708D01*
X1422542Y11148798D01*
X1460550Y11097550D01*
X1479895Y11068597D01*
X1512689Y11013883D01*
X1529109Y10983166D01*
X1556388Y10925490D01*
X1569709Y10893329D01*
X1591202Y10833262D01*
X1601316Y10799920D01*
X1616814Y10738047D01*
X1623604Y10703909D01*
X1632970Y10640776D01*
X1636381Y10606145D01*
X1639512Y10542409D01*
X1639512Y10507591D01*
X1636381Y10443855D01*
X1632970Y10409224D01*
X1623604Y10346091D01*
X1616814Y10311953D01*
X1601316Y10250080D01*
X1591202Y10216738D01*
X1569709Y10156671D01*
X1556388Y10124510D01*
X1529109Y10066834D01*
X1512689Y10036117D01*
X1479895Y9981403D01*
X1460550Y9952450D01*
X1422542Y9901202D01*
X1400458Y9874292D01*
X1357608Y9827015D01*
X1332985Y9802392D01*
X1285708Y9759542D01*
X1258798Y9737458D01*
X1207550Y9699450D01*
X1178597Y9680105D01*
X1123883Y9647311D01*
X1093166Y9630891D01*
X1035490Y9603612D01*
X1003329Y9590291D01*
X943262Y9568798D01*
X909920Y9558684D01*
X848067Y9543191D01*
X813886Y9536392D01*
X750779Y9527031D01*
X716143Y9523619D01*
X652410Y9520488D01*
D02*
G37*
%LPC*%
G36*
X-2155000Y10775000D02*
X-2872404Y10775000D01*
X-2862287Y10815390D01*
X-2829215Y10907817D01*
X-2787238Y10996569D01*
X-2736772Y11080767D01*
X-2678287Y11159625D01*
X-2612362Y11232362D01*
X-2539625Y11298287D01*
X-2460767Y11356772D01*
X-2376569Y11407238D01*
X-2287817Y11449215D01*
X-2195390Y11482287D01*
X-2155000Y11492404D01*
X-2155000Y10775000D01*
D02*
G37*
%LPC*%
G36*
X-937596Y10775000D02*
X-1655000Y10775000D01*
X-1655000Y11492404D01*
X-1614610Y11482287D01*
X-1522183Y11449215D01*
X-1433431Y11407238D01*
X-1349233Y11356772D01*
X-1270375Y11298287D01*
X-1197638Y11232362D01*
X-1131713Y11159625D01*
X-1073228Y11080767D01*
X-1022762Y10996569D01*
X-980785Y10907817D01*
X-947713Y10815390D01*
X-937596Y10775000D01*
D02*
G37*
%LPC*%
G36*
X-1655000Y9557596D02*
X-1655000Y10275000D01*
X-937596Y10275000D01*
X-947713Y10234610D01*
X-980785Y10142183D01*
X-1022762Y10053431D01*
X-1073228Y9969233D01*
X-1131713Y9890375D01*
X-1197638Y9817638D01*
X-1270375Y9751713D01*
X-1349233Y9693228D01*
X-1433431Y9642762D01*
X-1522183Y9600785D01*
X-1614610Y9567713D01*
X-1655000Y9557596D01*
D02*
G37*
%LPC*%
G36*
X-2155000Y9557596D02*
X-2195390Y9567713D01*
X-2287817Y9600785D01*
X-2376569Y9642762D01*
X-2460767Y9693228D01*
X-2539625Y9751713D01*
X-2612362Y9817638D01*
X-2678287Y9890375D01*
X-2736772Y9969233D01*
X-2787238Y10053431D01*
X-2829215Y10142183D01*
X-2862287Y10234610D01*
X-2872404Y10275000D01*
X-2155000Y10275000D01*
X-2155000Y9557596D01*
D02*
G37*
%LPC*%
G36*
X1922410Y6980488D02*
X1887590Y6980488D01*
X1823857Y6983619D01*
X1789221Y6987031D01*
X1726114Y6996392D01*
X1691933Y7003191D01*
X1630080Y7018684D01*
X1596738Y7028798D01*
X1536671Y7050291D01*
X1504510Y7063612D01*
X1446834Y7090891D01*
X1416117Y7107311D01*
X1361403Y7140105D01*
X1332450Y7159450D01*
X1281202Y7197458D01*
X1254292Y7219542D01*
X1207015Y7262392D01*
X1182392Y7287015D01*
X1139542Y7334292D01*
X1117458Y7361202D01*
X1079450Y7412450D01*
X1060105Y7441403D01*
X1027311Y7496117D01*
X1010891Y7526834D01*
X983612Y7584510D01*
X970291Y7616671D01*
X948798Y7676738D01*
X938684Y7710080D01*
X923191Y7771933D01*
X916392Y7806114D01*
X907031Y7869221D01*
X903619Y7903857D01*
X900488Y7967590D01*
X900488Y8002410D01*
X903619Y8066143D01*
X907031Y8100779D01*
X916392Y8163886D01*
X923191Y8198067D01*
X938684Y8259920D01*
X948798Y8293262D01*
X970291Y8353329D01*
X983612Y8385490D01*
X1010891Y8443166D01*
X1027311Y8473883D01*
X1060105Y8528597D01*
X1079450Y8557550D01*
X1117458Y8608798D01*
X1139542Y8635708D01*
X1182392Y8682985D01*
X1207015Y8707608D01*
X1254292Y8750458D01*
X1281202Y8772542D01*
X1332450Y8810550D01*
X1361403Y8829895D01*
X1416117Y8862689D01*
X1446834Y8879109D01*
X1504510Y8906388D01*
X1536671Y8919709D01*
X1596738Y8941202D01*
X1630080Y8951316D01*
X1691933Y8966809D01*
X1726114Y8973608D01*
X1789221Y8982969D01*
X1823857Y8986381D01*
X1887590Y8989512D01*
X1922410Y8989512D01*
X1986143Y8986381D01*
X2020779Y8982969D01*
X2083886Y8973608D01*
X2118067Y8966809D01*
X2179920Y8951316D01*
X2213262Y8941202D01*
X2273329Y8919709D01*
X2305490Y8906388D01*
X2363166Y8879109D01*
X2393883Y8862689D01*
X2448597Y8829895D01*
X2477550Y8810550D01*
X2528798Y8772542D01*
X2555708Y8750458D01*
X2602985Y8707608D01*
X2627608Y8682985D01*
X2670458Y8635708D01*
X2692542Y8608798D01*
X2730550Y8557550D01*
X2749895Y8528597D01*
X2782689Y8473883D01*
X2799109Y8443166D01*
X2826388Y8385490D01*
X2839709Y8353329D01*
X2861202Y8293262D01*
X2871316Y8259920D01*
X2886814Y8198047D01*
X2893604Y8163909D01*
X2902970Y8100776D01*
X2906381Y8066145D01*
X2909512Y8002409D01*
X2909512Y7967591D01*
X2906381Y7903855D01*
X2902970Y7869224D01*
X2893604Y7806091D01*
X2886814Y7771953D01*
X2871316Y7710080D01*
X2861202Y7676738D01*
X2839709Y7616671D01*
X2826388Y7584510D01*
X2799109Y7526834D01*
X2782689Y7496117D01*
X2749895Y7441403D01*
X2730550Y7412450D01*
X2692542Y7361202D01*
X2670458Y7334292D01*
X2627608Y7287015D01*
X2602985Y7262392D01*
X2555708Y7219542D01*
X2528798Y7197458D01*
X2477550Y7159450D01*
X2448597Y7140105D01*
X2393883Y7107311D01*
X2363166Y7090891D01*
X2305490Y7063612D01*
X2273329Y7050291D01*
X2213262Y7028798D01*
X2179920Y7018684D01*
X2118067Y7003191D01*
X2083886Y6996392D01*
X2020779Y6987031D01*
X1986143Y6983619D01*
X1922410Y6980488D01*
D02*
G37*
%LPC*%
G36*
X-617590Y6980488D02*
X-652410Y6980488D01*
X-716143Y6983619D01*
X-750779Y6987031D01*
X-813886Y6996392D01*
X-848067Y7003191D01*
X-909920Y7018684D01*
X-943262Y7028798D01*
X-1003329Y7050291D01*
X-1035490Y7063612D01*
X-1093166Y7090891D01*
X-1123883Y7107311D01*
X-1178597Y7140105D01*
X-1207550Y7159450D01*
X-1258798Y7197458D01*
X-1285708Y7219542D01*
X-1332985Y7262392D01*
X-1357608Y7287015D01*
X-1400458Y7334292D01*
X-1422542Y7361202D01*
X-1460550Y7412450D01*
X-1479895Y7441403D01*
X-1512689Y7496117D01*
X-1529109Y7526834D01*
X-1556388Y7584510D01*
X-1569709Y7616671D01*
X-1591202Y7676738D01*
X-1601316Y7710080D01*
X-1616809Y7771933D01*
X-1623608Y7806114D01*
X-1632969Y7869221D01*
X-1636381Y7903857D01*
X-1639512Y7967590D01*
X-1639512Y8002410D01*
X-1636381Y8066143D01*
X-1632969Y8100779D01*
X-1623608Y8163886D01*
X-1616809Y8198067D01*
X-1601316Y8259920D01*
X-1591202Y8293262D01*
X-1569709Y8353329D01*
X-1556388Y8385490D01*
X-1529109Y8443166D01*
X-1512689Y8473883D01*
X-1479895Y8528597D01*
X-1460550Y8557550D01*
X-1422542Y8608798D01*
X-1400458Y8635708D01*
X-1357608Y8682985D01*
X-1332985Y8707608D01*
X-1285708Y8750458D01*
X-1258798Y8772542D01*
X-1207550Y8810550D01*
X-1178597Y8829895D01*
X-1123883Y8862689D01*
X-1093166Y8879109D01*
X-1035490Y8906388D01*
X-1003329Y8919709D01*
X-943262Y8941202D01*
X-909920Y8951316D01*
X-848067Y8966809D01*
X-813886Y8973608D01*
X-750779Y8982969D01*
X-716143Y8986381D01*
X-652410Y8989512D01*
X-617590Y8989512D01*
X-553857Y8986381D01*
X-519221Y8982969D01*
X-456114Y8973608D01*
X-421933Y8966809D01*
X-360080Y8951316D01*
X-326738Y8941202D01*
X-266671Y8919709D01*
X-234510Y8906388D01*
X-176834Y8879109D01*
X-146117Y8862689D01*
X-91403Y8829895D01*
X-62450Y8810550D01*
X-11202Y8772542D01*
X15708Y8750458D01*
X62985Y8707608D01*
X87608Y8682985D01*
X130458Y8635708D01*
X152542Y8608798D01*
X190550Y8557550D01*
X209895Y8528597D01*
X242689Y8473883D01*
X259109Y8443166D01*
X286388Y8385490D01*
X299709Y8353329D01*
X321202Y8293262D01*
X331316Y8259920D01*
X346814Y8198047D01*
X353604Y8163909D01*
X362970Y8100776D01*
X366381Y8066145D01*
X369512Y8002409D01*
X369512Y7967591D01*
X366381Y7903855D01*
X362970Y7869224D01*
X353604Y7806091D01*
X346814Y7771953D01*
X331316Y7710080D01*
X321202Y7676738D01*
X299709Y7616671D01*
X286388Y7584510D01*
X259109Y7526834D01*
X242689Y7496117D01*
X209895Y7441403D01*
X190550Y7412450D01*
X152542Y7361202D01*
X130458Y7334292D01*
X87608Y7287015D01*
X62985Y7262392D01*
X15708Y7219542D01*
X-11202Y7197458D01*
X-62450Y7159450D01*
X-91403Y7140105D01*
X-146117Y7107311D01*
X-176834Y7090891D01*
X-234510Y7063612D01*
X-266671Y7050291D01*
X-326738Y7028798D01*
X-360080Y7018684D01*
X-421933Y7003191D01*
X-456114Y6996392D01*
X-519221Y6987031D01*
X-553857Y6983619D01*
X-617590Y6980488D01*
D02*
G37*
%LPD*%
G36*
X-5498406Y-80020159D02*
X-5459534Y-80011619D01*
X-5429289Y-79990883D01*
X-1339289Y-75900883D01*
X-1317310Y-75867703D01*
X-1310000Y-75830172D01*
X-1310000Y-4100000D01*
X-1317920Y-4060996D01*
X-1340425Y-4028171D01*
X-1373952Y-4006723D01*
X-1410000Y-4000000D01*
X-9590000Y-4000000D01*
X-9629004Y-4007920D01*
X-9661829Y-4030425D01*
X-9683277Y-4063952D01*
X-9690000Y-4100000D01*
X-9690000Y-75830172D01*
X-9682080Y-75869176D01*
X-9660711Y-75900883D01*
X-5570711Y-79990883D01*
X-5537531Y-80012862D01*
X-5498406Y-80020159D01*
D02*
G37*
%LPD*%
G36*
X5501594Y-80020159D02*
X5540466Y-80011619D01*
X5570711Y-79990883D01*
X9660711Y-75900883D01*
X9682690Y-75867703D01*
X9690000Y-75830172D01*
X9690000Y-4100000D01*
X9682080Y-4060996D01*
X9659575Y-4028171D01*
X9626048Y-4006723D01*
X9590000Y-4000000D01*
X1410000Y-4000000D01*
X1370996Y-4007920D01*
X1338171Y-4030425D01*
X1316723Y-4063952D01*
X1310000Y-4100000D01*
X1310000Y-75830172D01*
X1317920Y-75869176D01*
X1339289Y-75900883D01*
X5429289Y-79990883D01*
X5462469Y-80012862D01*
X5501594Y-80020159D01*
D02*
G37*
G01*
%LPD*%
D10*
X-8255000Y6350000D02*
X-7858000Y5953000D01*
D10*
X-7858000Y5953000D02*
X-3175000Y5953000D01*
D11*
X5500000Y-4500000D02*
X5500000Y8500000D01*
D10*
X-8255000Y9017000D02*
X-8255000Y6350000D01*
G75*
D12*
X1905000Y7985000D03*
D12*
X-1905000Y10525000D03*
D12*
X-635000Y7985000D03*
D12*
X635000Y10525000D03*
D13*
X-3175000Y12557000D03*
D13*
X-3175000Y5953000D03*
D13*
X9000000Y-4500000D03*
D13*
X2667000Y10779000D03*
D13*
X8255000Y8493000D03*
D13*
X5500000Y-4500000D03*
D13*
X8255000Y10017000D03*
D13*
X-3175000Y9509000D03*
D13*
X-1524000Y15478000D03*
D13*
X-8255000Y9017000D03*
D13*
X-5500000Y-4500000D03*
D13*
X-9000000Y-4500000D03*
D13*
X-2000000Y-4500000D03*
D13*
X2000000Y-4500000D03*
D13*
X-9349995Y7493000D03*
M02*
