M48
FMAT,2
METRIC,TZ
T3C0.300
T2C0.900
T1C3.300
%
G90
G05
M71
T3
X-3.175Y12.557
X-3.175Y5.953
X9.000Y-4.500
X2.667Y10.779
X8.255Y8.493
X5.500Y-4.500
X8.255Y10.017
X-3.175Y9.509
X-1.524Y15.478
X-8.255Y9.017
X-5.500Y-4.500
X-9.000Y-4.500
X-2.000Y-4.500
X2.000Y-4.500
X-9.350Y7.493
T2
X1.905Y7.985
X-1.905Y10.525
X-0.635Y7.985
X0.635Y10.525
T1
X0.000Y0.000
X5.080Y16.875
X-5.080Y16.875
M30
