%FSLAX46Y46*%
%MOMM*%
%ADD10C,0.010000*%
G01*
G01*
%LPD*%
D10*
X-10000000Y-2000000D02*
X-9500001Y-1500000D01*
D10*
X-9500001Y1500000D02*
X-10000000Y2000000D01*
D10*
X-10000000Y2000000D02*
X-10000000Y19500000D01*
D10*
X-10000000Y19500000D02*
X10000000Y19500000D01*
D10*
X10000000Y19500000D02*
X10000000Y2000000D01*
D10*
X10000000Y2000000D02*
X9500000Y1500000D01*
D10*
X9500000Y-1500000D02*
X10000000Y-2000000D01*
D10*
X10000000Y-2000000D02*
X10000000Y-76000000D01*
D10*
X10000000Y-76000000D02*
X5500000Y-80500000D01*
D10*
X5500000Y-80500000D02*
X1000000Y-76000000D01*
D10*
X1000000Y-76000000D02*
X1000000Y-3499999D01*
D10*
X0Y-2499999D02*
X0Y-2499999D01*
D10*
X-1000000Y-3499999D02*
X-1000000Y-76000000D01*
D10*
X-1000000Y-76000000D02*
X-5500000Y-80500000D01*
D10*
X-5500000Y-80500000D02*
X-10000000Y-76000000D01*
D10*
X-10000000Y-76000000D02*
X-10000000Y-2000000D01*
G75*
G03*
D10*
X-9500001Y-1500000D02*
X-9500001Y1500000I-1499999J1500000D01*
G03*
D10*
X9500000Y1500000D02*
X9500000Y-1500000I1500000J-1500000D01*
G03*
D10*
X1000000Y-3499999D02*
X0Y-2499999I-1000000J0D01*
G03*
D10*
X0Y-2499999D02*
X-1000000Y-3499999I0J-1000000D01*
M02*
