%FSLAX46Y46*%
%MOMM*%
%AMPS14*
1,1,1.600000,0.000000,0.000000*
%
%ADD14PS14*%
%AMPS12*
1,1,1.600000,0.000000,0.000000*
%
%ADD12PS12*%
%AMPS16*
1,1,0.400000,0.000000,0.000000*
%
%ADD16PS16*%
%AMPS15*
1,1,1.190600,0.000000,0.000000*
%
%ADD15PS15*%
%AMPS10*
1,1,3.400000,0.000000,0.000000*
%
%ADD10PS10*%
%AMPS13*
1,1,3.500000,0.000000,0.000000*
%
%ADD13PS13*%
%AMPS11*
1,1,3.500000,0.000000,0.000000*
%
%ADD11PS11*%
G01*
G01*
%LPD*%
G75*
D10*
X63627000Y17145000D03*
D10*
X1270000Y17145000D03*
D11*
X44450000Y31750000D03*
D12*
X42545000Y22860000D03*
D12*
X38735000Y25400000D03*
D12*
X40005000Y22860000D03*
D11*
X36830000Y31750000D03*
D12*
X41275000Y25400000D03*
D13*
X35560000Y2540000D03*
D14*
X38735000Y11430000D03*
D14*
X42545000Y8890000D03*
D14*
X41275000Y11430000D03*
D13*
X45720000Y2540000D03*
D14*
X40005000Y8890000D03*
D15*
X61341000Y22225000D03*
D15*
X59309000Y22225000D03*
D15*
X60325000Y29845000D03*
D11*
X27940000Y31750000D03*
D12*
X26035000Y22860000D03*
D12*
X22225000Y25400000D03*
D12*
X23495000Y22860000D03*
D11*
X20320000Y31750000D03*
D12*
X24765000Y25400000D03*
D13*
X52070000Y2540000D03*
D14*
X55245000Y11430000D03*
D14*
X59055000Y8890000D03*
D14*
X57785000Y11430000D03*
D13*
X62230000Y2540000D03*
D14*
X56515000Y8890000D03*
D13*
X2540000Y2540000D03*
D14*
X5715000Y11430000D03*
D14*
X9525000Y8890000D03*
D14*
X8255000Y11430000D03*
D13*
X12700000Y2540000D03*
D14*
X6985000Y8890000D03*
D13*
X19050000Y2540000D03*
D14*
X22225000Y11430000D03*
D14*
X26035000Y8890000D03*
D14*
X24765000Y11430000D03*
D13*
X29210000Y2540000D03*
D14*
X23495000Y8890000D03*
D16*
X50800000Y20320000D03*
D16*
X9525000Y1905000D03*
D16*
X8255000Y23495000D03*
D16*
X32385000Y4445000D03*
D16*
X16129000Y22098000D03*
D16*
X20066000Y22098000D03*
D16*
X48514000Y25400000D03*
D16*
X57150000Y25400000D03*
D16*
X26035000Y3810000D03*
D16*
X59055000Y1905000D03*
D16*
X15875000Y4445000D03*
D16*
X34163000Y19939000D03*
D16*
X3937000Y20955000D03*
D16*
X26035000Y1905000D03*
D16*
X9271000Y25400000D03*
D16*
X16129000Y26797000D03*
D16*
X44450000Y8890000D03*
D16*
X27686000Y22225000D03*
D16*
X4699000Y19685000D03*
D16*
X10795000Y24511000D03*
D16*
X3429000Y32004000D03*
D16*
X50673000Y26670000D03*
D16*
X42545000Y1905000D03*
D16*
X35814000Y26797000D03*
D16*
X14097000Y18796000D03*
D16*
X57150000Y26670000D03*
D16*
X48895000Y4445000D03*
D16*
X55880000Y30734000D03*
D16*
X57150000Y27305000D03*
D16*
X42545000Y3810000D03*
D16*
X57150000Y24765000D03*
D16*
X2159000Y30480000D03*
D16*
X8763000Y25908000D03*
D16*
X9779000Y24511000D03*
D16*
X62230000Y30480000D03*
D16*
X20066000Y26797000D03*
D16*
X57150000Y24130000D03*
D16*
X10287000Y25908000D03*
D16*
X11430000Y8890000D03*
D16*
X27940000Y8890000D03*
D16*
X53975000Y30734000D03*
D16*
X9525000Y3810000D03*
D16*
X57150000Y27940000D03*
D16*
X51816000Y30226000D03*
D16*
X14351000Y31877000D03*
D16*
X14478000Y20193000D03*
D16*
X15875000Y31877000D03*
M02*
