%FSLAX46Y46*%
%MOMM*%
%ADD10C,0.150000*%
G01*
G01*
%LPD*%
D10*
X12254286Y6492905D02*
X12254286Y7254809D01*
D10*
X12301905Y6350047D02*
X12254286Y6492905D01*
D10*
X12349524Y6302428D02*
X12301905Y6350047D01*
D10*
X12444762Y6254809D02*
X12349524Y6302428D01*
D10*
X12540000Y6254809D02*
X12444762Y6254809D01*
D10*
X12635238Y6302428D02*
X12540000Y6254809D01*
D10*
X12682857Y6350047D02*
X12635238Y6302428D01*
D10*
X12730476Y6492905D02*
X12682857Y6350047D01*
D10*
X12730476Y6588143D02*
X12730476Y6492905D01*
D10*
X11873333Y6254809D02*
X11873333Y7254809D01*
D10*
X11301905Y6254809D02*
X11873333Y6254809D01*
D10*
X10444762Y7111952D02*
X10397142Y7016714D01*
D10*
X10540000Y7207190D02*
X10444762Y7111952D01*
D10*
X10635238Y7254809D02*
X10540000Y7207190D01*
D10*
X10825714Y7254809D02*
X10635238Y7254809D01*
D10*
X10920952Y7207190D02*
X10825714Y7254809D01*
D10*
X11016190Y7111952D02*
X10920952Y7207190D01*
D10*
X11063809Y7016714D02*
X11016190Y7111952D01*
D10*
X11111428Y6873857D02*
X11063809Y7016714D01*
D10*
X11111428Y6635762D02*
X11111428Y6873857D01*
D10*
X11063809Y6492905D02*
X11111428Y6635762D01*
D10*
X11016190Y6397666D02*
X11063809Y6492905D01*
D10*
X10920952Y6302428D02*
X11016190Y6397666D01*
D10*
X10825714Y6254809D02*
X10920952Y6302428D01*
D10*
X10635238Y6254809D02*
X10825714Y6254809D01*
D10*
X10540000Y6302428D02*
X10635238Y6254809D01*
D10*
X10444762Y6397666D02*
X10540000Y6302428D01*
D10*
X10397142Y6492905D02*
X10444762Y6397666D01*
D10*
X9682857Y6492905D02*
X9682857Y7254809D01*
D10*
X9730476Y6350047D02*
X9682857Y6492905D01*
D10*
X9778095Y6302428D02*
X9730476Y6350047D01*
D10*
X9873333Y6254809D02*
X9778095Y6302428D01*
D10*
X9968572Y6254809D02*
X9873333Y6254809D01*
D10*
X10063810Y6302428D02*
X9968572Y6254809D01*
D10*
X10111428Y6350047D02*
X10063810Y6302428D01*
D10*
X10159048Y6492905D02*
X10111428Y6350047D01*
D10*
X10159048Y6588143D02*
X10159048Y6492905D01*
D10*
X9301904Y6254809D02*
X9301904Y7254809D01*
D10*
X8730476Y6254809D02*
X9301904Y6254809D01*
D10*
X7873333Y7111952D02*
X7825714Y7016714D01*
D10*
X7968571Y7207190D02*
X7873333Y7111952D01*
D10*
X8063809Y7254809D02*
X7968571Y7207190D01*
D10*
X8254285Y7254809D02*
X8063809Y7254809D01*
D10*
X8349523Y7207190D02*
X8254285Y7254809D01*
D10*
X8444762Y7111952D02*
X8349523Y7207190D01*
D10*
X8492381Y7016714D02*
X8444762Y7111952D01*
D10*
X8540000Y6873857D02*
X8492381Y7016714D01*
D10*
X8540000Y6635762D02*
X8540000Y6873857D01*
D10*
X8492381Y6492905D02*
X8540000Y6635762D01*
D10*
X8444762Y6397666D02*
X8492381Y6492905D01*
D10*
X8349523Y6302428D02*
X8444762Y6397666D01*
D10*
X8254285Y6254809D02*
X8349523Y6302428D01*
D10*
X8063809Y6254809D02*
X8254285Y6254809D01*
D10*
X7968571Y6302428D02*
X8063809Y6254809D01*
D10*
X7873333Y6397666D02*
X7968571Y6302428D01*
D10*
X7825714Y6492905D02*
X7873333Y6397666D01*
D10*
X7111428Y6492905D02*
X7111428Y7254809D01*
D10*
X7159047Y6350047D02*
X7111428Y6492905D01*
D10*
X7206666Y6302428D02*
X7159047Y6350047D01*
D10*
X7301904Y6254809D02*
X7206666Y6302428D01*
D10*
X7397143Y6254809D02*
X7301904Y6254809D01*
D10*
X7492381Y6302428D02*
X7397143Y6254809D01*
D10*
X7540000Y6350047D02*
X7492381Y6302428D01*
D10*
X7587619Y6492905D02*
X7540000Y6350047D01*
D10*
X7587619Y6588143D02*
X7587619Y6492905D01*
D10*
X6730476Y6254809D02*
X6730476Y7254809D01*
D10*
X6159047Y6254809D02*
X6730476Y6254809D01*
D10*
X5301905Y7111952D02*
X5254286Y7016714D01*
D10*
X5397143Y7207190D02*
X5301905Y7111952D01*
D10*
X5492381Y7254809D02*
X5397143Y7207190D01*
D10*
X5682857Y7254809D02*
X5492381Y7254809D01*
D10*
X5778095Y7207190D02*
X5682857Y7254809D01*
D10*
X5873333Y7111952D02*
X5778095Y7207190D01*
D10*
X5920952Y7016714D02*
X5873333Y7111952D01*
D10*
X5968571Y6873857D02*
X5920952Y7016714D01*
D10*
X5968571Y6635762D02*
X5968571Y6873857D01*
D10*
X5920952Y6492905D02*
X5968571Y6635762D01*
D10*
X5873333Y6397666D02*
X5920952Y6492905D01*
D10*
X5778095Y6302428D02*
X5873333Y6397666D01*
D10*
X5682857Y6254809D02*
X5778095Y6302428D01*
D10*
X5492381Y6254809D02*
X5682857Y6254809D01*
D10*
X5397143Y6302428D02*
X5492381Y6254809D01*
D10*
X5301905Y6397666D02*
X5397143Y6302428D01*
D10*
X5254286Y6492905D02*
X5301905Y6397666D01*
D10*
X4540000Y6492905D02*
X4540000Y7254809D01*
D10*
X4587619Y6350047D02*
X4540000Y6492905D01*
D10*
X4635238Y6302428D02*
X4587619Y6350047D01*
D10*
X4730476Y6254809D02*
X4635238Y6302428D01*
D10*
X4825714Y6254809D02*
X4730476Y6254809D01*
D10*
X4920952Y6302428D02*
X4825714Y6254809D01*
D10*
X4968571Y6350047D02*
X4920952Y6302428D01*
D10*
X5016190Y6492905D02*
X4968571Y6350047D01*
D10*
X5016190Y6588143D02*
X5016190Y6492905D01*
D10*
X4159047Y6254809D02*
X4159047Y7254809D01*
D10*
X3587619Y6254809D02*
X4159047Y6254809D01*
D10*
X2730476Y7111952D02*
X2682857Y7016714D01*
D10*
X2825714Y7207190D02*
X2730476Y7111952D01*
D10*
X2920952Y7254809D02*
X2825714Y7207190D01*
D10*
X3111428Y7254809D02*
X2920952Y7254809D01*
D10*
X3206666Y7207190D02*
X3111428Y7254809D01*
D10*
X3301904Y7111952D02*
X3206666Y7207190D01*
D10*
X3349523Y7016714D02*
X3301904Y7111952D01*
D10*
X3397143Y6873857D02*
X3349523Y7016714D01*
D10*
X3397143Y6635762D02*
X3397143Y6873857D01*
D10*
X3349523Y6492905D02*
X3397143Y6635762D01*
D10*
X3301904Y6397666D02*
X3349523Y6492905D01*
D10*
X3206666Y6302428D02*
X3301904Y6397666D01*
D10*
X3111428Y6254809D02*
X3206666Y6302428D01*
D10*
X2920952Y6254809D02*
X3111428Y6254809D01*
D10*
X2825714Y6302428D02*
X2920952Y6254809D01*
D10*
X2730476Y6397666D02*
X2825714Y6302428D01*
D10*
X2682857Y6492905D02*
X2730476Y6397666D01*
G75*
M02*
