%FSLAX46Y46*%
%MOMM*%
%ADD11C,0.150000*%
%ADD12C,0.300000*%
%ADD10C,0.500000*%
%AMPS26*
1,1,1.400000,0.000000,0.000000*
%
%ADD26PS26*%
%AMPS25*
1,1,1.400000,0.000000,0.000000*
%
%ADD25PS25*%
%AMPS13*
21,1,0.800000,0.800000,0.000000,0.000000,180.000000*
%
%ADD13PS13*%
%AMPS32*
21,1,0.600000,1.500000,0.000000,0.000000,0.000000*
%
%ADD32PS32*%
%AMPS31*
21,1,0.600000,1.500000,0.000000,0.000000,180.000000*
%
%ADD31PS31*%
%AMPS22*
21,1,0.700000,1.000000,0.000000,0.000000,0.000000*
%
%ADD22PS22*%
%AMPS28*
21,1,0.700000,1.000000,0.000000,0.000000,270.000000*
%
%ADD28PS28*%
%AMPS24*
21,1,1.400000,1.200000,0.000000,0.000000,90.000000*
%
%ADD24PS24*%
%AMPS34*
1,1,0.400000,0.000000,0.000000*
%
%ADD34PS34*%
%AMPS18*
1,1,0.360000,0.220000,-0.195000*
1,1,0.360000,-0.220000,0.195000*
1,1,0.360000,0.220000,0.195000*
21,1,0.800000,0.390000,0.000000,0.000000,0.000000*
21,1,0.440000,0.750000,0.000000,0.000000,0.000000*
1,1,0.360000,-0.220000,-0.195000*
%
%ADD18PS18*%
%AMPS21*
1,1,0.360000,0.195000,0.220000*
1,1,0.360000,-0.195000,-0.220000*
1,1,0.360000,-0.195000,0.220000*
21,1,0.800000,0.390000,0.000000,0.000000,90.000000*
21,1,0.440000,0.750000,0.000000,0.000000,90.000000*
1,1,0.360000,0.195000,-0.220000*
%
%ADD21PS21*%
%AMPS23*
1,1,0.360000,-0.220000,0.195000*
1,1,0.360000,0.220000,-0.195000*
1,1,0.360000,-0.220000,-0.195000*
21,1,0.800000,0.390000,0.000000,0.000000,180.000000*
21,1,0.440000,0.750000,0.000000,0.000000,180.000000*
1,1,0.360000,0.220000,0.195000*
%
%ADD23PS23*%
%AMPS33*
1,1,0.360000,-0.195000,-0.220000*
1,1,0.360000,0.195000,0.220000*
1,1,0.360000,0.195000,-0.220000*
21,1,0.800000,0.390000,0.000000,0.000000,270.000000*
21,1,0.440000,0.750000,0.000000,0.000000,270.000000*
1,1,0.360000,-0.195000,0.220000*
%
%ADD33PS33*%
%AMPS29*
1,1,0.100000,0.250000,-0.500000*
1,1,0.100000,-0.250000,0.500000*
1,1,0.100000,0.250000,0.500000*
21,1,0.600000,1.000000,0.000000,0.000000,0.000000*
21,1,0.500000,1.100000,0.000000,0.000000,0.000000*
1,1,0.100000,-0.250000,-0.500000*
%
%ADD29PS29*%
%AMPS30*
1,1,0.100000,-0.250000,0.500000*
1,1,0.100000,0.250000,-0.500000*
1,1,0.100000,-0.250000,-0.500000*
21,1,0.600000,1.000000,0.000000,0.000000,180.000000*
21,1,0.500000,1.100000,0.000000,0.000000,180.000000*
1,1,0.100000,0.250000,0.500000*
%
%ADD30PS30*%
%AMPS20*
1,1,0.240000,0.130000,-0.330000*
1,1,0.240000,-0.130000,0.330000*
1,1,0.240000,0.130000,0.330000*
21,1,0.500000,0.660000,0.000000,0.000000,0.000000*
21,1,0.260000,0.900000,0.000000,0.000000,0.000000*
1,1,0.240000,-0.130000,-0.330000*
%
%ADD20PS20*%
%AMPS19*
1,1,0.240000,0.330000,0.130000*
1,1,0.240000,-0.330000,-0.130000*
1,1,0.240000,-0.330000,0.130000*
21,1,0.500000,0.660000,0.000000,0.000000,90.000000*
21,1,0.260000,0.900000,0.000000,0.000000,90.000000*
1,1,0.240000,0.330000,-0.130000*
%
%ADD19PS19*%
%AMPS14*
1,1,0.100000,0.100000,-0.725000*
1,1,0.100000,-0.100000,0.725000*
1,1,0.100000,0.100000,0.725000*
21,1,0.300000,1.450000,0.000000,0.000000,0.000000*
21,1,0.200000,1.550000,0.000000,0.000000,0.000000*
1,1,0.100000,-0.100000,-0.725000*
%
%ADD14PS14*%
%AMPS17*
1,1,0.100000,0.725000,0.100000*
1,1,0.100000,-0.725000,-0.100000*
1,1,0.100000,-0.725000,0.100000*
21,1,0.300000,1.450000,0.000000,0.000000,90.000000*
21,1,0.200000,1.550000,0.000000,0.000000,90.000000*
1,1,0.100000,0.725000,-0.100000*
%
%ADD17PS17*%
%AMPS15*
1,1,0.100000,-0.100000,0.725000*
1,1,0.100000,0.100000,-0.725000*
1,1,0.100000,-0.100000,-0.725000*
21,1,0.300000,1.450000,0.000000,0.000000,180.000000*
21,1,0.200000,1.550000,0.000000,0.000000,180.000000*
1,1,0.100000,0.100000,0.725000*
%
%ADD15PS15*%
%AMPS16*
1,1,0.100000,-0.725000,-0.100000*
1,1,0.100000,0.725000,0.100000*
1,1,0.100000,0.725000,-0.100000*
21,1,0.300000,1.450000,0.000000,0.000000,270.000000*
21,1,0.200000,1.550000,0.000000,0.000000,270.000000*
1,1,0.100000,-0.725000,0.100000*
%
%ADD16PS16*%
%AMPS27*
1,1,0.787400,0.000000,0.000000*
%
%ADD27PS27*%
G01*
%LPD*%
G36*
X20220000Y20574000D02*
X20259004Y20581920D01*
X20291829Y20604425D01*
X20313277Y20637952D01*
X20320000Y20674000D01*
X20320000Y28221000D01*
X20312080Y28260004D01*
X20289575Y28292829D01*
X20256048Y28314277D01*
X20220000Y28321000D01*
X15975000Y28321000D01*
X15935996Y28313080D01*
X15903171Y28290575D01*
X15881723Y28257048D01*
X15875000Y28221000D01*
X15875000Y26242000D01*
X15882920Y26202996D01*
X15905425Y26170171D01*
X15938952Y26148723D01*
X15975000Y26142000D01*
X16379000Y26142000D01*
X16418004Y26149920D01*
X16450829Y26172425D01*
X16472277Y26205952D01*
X16479000Y26242000D01*
X16479000Y26303048D01*
X16488228Y26360685D01*
X16504018Y26393979D01*
X16528664Y26423627D01*
X16559891Y26446235D01*
X16595748Y26460390D01*
X16640277Y26466000D01*
X16954000Y26466000D01*
X16993004Y26473920D01*
X17025829Y26496425D01*
X17047277Y26529952D01*
X17054000Y26566000D01*
X17054000Y26816338D01*
X17046080Y26855342D01*
X17023575Y26888167D01*
X16978808Y26913061D01*
X16978816Y26913088D01*
X16978691Y26913126D01*
X16978308Y26913339D01*
X16976470Y26913800D01*
X16957207Y26919642D01*
X16945211Y26923935D01*
X16926625Y26931634D01*
X16915103Y26937084D01*
X16897350Y26946573D01*
X16886429Y26953119D01*
X16869691Y26964303D01*
X16859429Y26971914D01*
X16843906Y26984654D01*
X16834470Y26993205D01*
X16820205Y27007470D01*
X16811654Y27016906D01*
X16798914Y27032429D01*
X16791303Y27042691D01*
X16780119Y27059429D01*
X16773573Y27070350D01*
X16764084Y27088103D01*
X16758634Y27099625D01*
X16750935Y27118211D01*
X16746642Y27130207D01*
X16740798Y27149475D01*
X16737700Y27161843D01*
X16733779Y27181556D01*
X16731903Y27194202D01*
X16729932Y27214204D01*
X16729247Y27228142D01*
X16729000Y27238229D01*
X16729000Y27625771D01*
X16729247Y27635858D01*
X16729932Y27649796D01*
X16731903Y27669798D01*
X16733779Y27682444D01*
X16737700Y27702157D01*
X16740798Y27714525D01*
X16746642Y27733793D01*
X16750935Y27745789D01*
X16758634Y27764375D01*
X16764084Y27775897D01*
X16773573Y27793650D01*
X16780119Y27804571D01*
X16791303Y27821309D01*
X16798914Y27831571D01*
X16811654Y27847094D01*
X16820205Y27856530D01*
X16834470Y27870795D01*
X16843906Y27879346D01*
X16859429Y27892086D01*
X16869691Y27899697D01*
X16886429Y27910881D01*
X16897350Y27917427D01*
X16915103Y27926916D01*
X16926625Y27932366D01*
X16945211Y27940065D01*
X16957207Y27944358D01*
X16976475Y27950202D01*
X16988843Y27953300D01*
X17008556Y27957221D01*
X17021202Y27959097D01*
X17041204Y27961068D01*
X17055142Y27961753D01*
X17065229Y27962000D01*
X17502771Y27962000D01*
X17512858Y27961753D01*
X17526796Y27961068D01*
X17546798Y27959097D01*
X17559444Y27957221D01*
X17579157Y27953300D01*
X17591525Y27950202D01*
X17610793Y27944358D01*
X17622789Y27940065D01*
X17641375Y27932366D01*
X17652897Y27926916D01*
X17670650Y27917427D01*
X17681571Y27910881D01*
X17698309Y27899697D01*
X17708571Y27892086D01*
X17724094Y27879346D01*
X17733530Y27870795D01*
X17747795Y27856530D01*
X17756346Y27847094D01*
X17769086Y27831571D01*
X17776697Y27821309D01*
X17787881Y27804571D01*
X17794427Y27793650D01*
X17803916Y27775897D01*
X17809366Y27764375D01*
X17817065Y27745789D01*
X17821358Y27733793D01*
X17827202Y27714525D01*
X17830300Y27702157D01*
X17834221Y27682444D01*
X17836097Y27669799D01*
X17838068Y27649795D01*
X17838753Y27635856D01*
X17839000Y27625770D01*
X17839000Y27238229D01*
X17838753Y27228142D01*
X17838068Y27214204D01*
X17836097Y27194202D01*
X17834221Y27181556D01*
X17830300Y27161843D01*
X17827202Y27149475D01*
X17821358Y27130207D01*
X17817065Y27118211D01*
X17809366Y27099625D01*
X17803916Y27088103D01*
X17794427Y27070350D01*
X17787881Y27059429D01*
X17776697Y27042691D01*
X17769086Y27032429D01*
X17756346Y27016906D01*
X17747795Y27007470D01*
X17733530Y26993205D01*
X17724094Y26984654D01*
X17708571Y26971914D01*
X17698309Y26964303D01*
X17681571Y26953119D01*
X17670650Y26946573D01*
X17652897Y26937084D01*
X17641375Y26931634D01*
X17622789Y26923935D01*
X17610793Y26919642D01*
X17591530Y26913800D01*
X17589692Y26913339D01*
X17553784Y26896175D01*
X17527413Y26866366D01*
X17514000Y26816338D01*
X17514000Y26566000D01*
X17521920Y26526996D01*
X17544425Y26494171D01*
X17577952Y26472723D01*
X17614000Y26466000D01*
X17826048Y26466000D01*
X17883684Y26456772D01*
X17891146Y26453233D01*
X17929781Y26443674D01*
X17969084Y26449941D01*
X18002830Y26471042D01*
X18025673Y26503633D01*
X18027208Y26511000D01*
X18729000Y26511000D01*
X18729000Y24711000D01*
X18146690Y24711000D01*
X18107686Y24703080D01*
X18074861Y24680575D01*
X18053413Y24647048D01*
X18046741Y24607812D01*
X18055900Y24569081D01*
X18075979Y24540289D01*
X18320979Y24295289D01*
X18354159Y24273310D01*
X18391690Y24266000D01*
X19426048Y24266000D01*
X19483685Y24256772D01*
X19516979Y24240982D01*
X19546627Y24216336D01*
X19569235Y24185109D01*
X19583390Y24149252D01*
X19589000Y24104723D01*
X19589000Y22718952D01*
X19579772Y22661315D01*
X19563982Y22628021D01*
X19539336Y22598373D01*
X19508109Y22575765D01*
X19472252Y22561610D01*
X19427723Y22556000D01*
X19114000Y22556000D01*
X19074996Y22548080D01*
X19042171Y22525575D01*
X19020723Y22492048D01*
X19014000Y22456000D01*
X19014000Y22205662D01*
X19021920Y22166658D01*
X19044425Y22133833D01*
X19089192Y22108939D01*
X19089184Y22108912D01*
X19089309Y22108874D01*
X19089692Y22108661D01*
X19091530Y22108200D01*
X19110793Y22102358D01*
X19122789Y22098065D01*
X19141375Y22090366D01*
X19152897Y22084916D01*
X19170650Y22075427D01*
X19181571Y22068881D01*
X19198309Y22057697D01*
X19208571Y22050086D01*
X19224094Y22037346D01*
X19233530Y22028795D01*
X19247795Y22014530D01*
X19256346Y22005094D01*
X19269086Y21989571D01*
X19276697Y21979309D01*
X19287881Y21962571D01*
X19294427Y21951650D01*
X19303916Y21933897D01*
X19309366Y21922375D01*
X19317065Y21903789D01*
X19321358Y21891793D01*
X19327202Y21872525D01*
X19330300Y21860157D01*
X19334221Y21840444D01*
X19336097Y21827798D01*
X19338068Y21807796D01*
X19338753Y21793858D01*
X19339000Y21783771D01*
X19339000Y21396229D01*
X19338753Y21386142D01*
X19338068Y21372204D01*
X19336097Y21352202D01*
X19334221Y21339556D01*
X19330300Y21319843D01*
X19327202Y21307475D01*
X19321358Y21288207D01*
X19317065Y21276211D01*
X19309366Y21257625D01*
X19303916Y21246103D01*
X19294427Y21228350D01*
X19287881Y21217429D01*
X19276697Y21200691D01*
X19269086Y21190429D01*
X19256346Y21174906D01*
X19247795Y21165470D01*
X19233530Y21151205D01*
X19224094Y21142654D01*
X19208571Y21129914D01*
X19198309Y21122303D01*
X19181571Y21111119D01*
X19170650Y21104573D01*
X19152897Y21095084D01*
X19141375Y21089634D01*
X19122789Y21081935D01*
X19110793Y21077642D01*
X19091525Y21071798D01*
X19079157Y21068700D01*
X19059444Y21064779D01*
X19046798Y21062903D01*
X19026796Y21060932D01*
X19012858Y21060247D01*
X19002771Y21060000D01*
X18565229Y21060000D01*
X18555142Y21060247D01*
X18541204Y21060932D01*
X18521202Y21062903D01*
X18508556Y21064779D01*
X18488843Y21068700D01*
X18476475Y21071798D01*
X18457207Y21077642D01*
X18445211Y21081935D01*
X18426625Y21089634D01*
X18415103Y21095084D01*
X18397350Y21104573D01*
X18386429Y21111119D01*
X18369691Y21122303D01*
X18359429Y21129914D01*
X18343906Y21142654D01*
X18334470Y21151205D01*
X18320205Y21165470D01*
X18311654Y21174906D01*
X18298914Y21190429D01*
X18291303Y21200691D01*
X18280119Y21217429D01*
X18273573Y21228350D01*
X18264084Y21246103D01*
X18258634Y21257625D01*
X18250935Y21276211D01*
X18246642Y21288207D01*
X18240798Y21307475D01*
X18237700Y21319843D01*
X18233779Y21339556D01*
X18231903Y21352202D01*
X18229932Y21372204D01*
X18229247Y21386142D01*
X18229000Y21396229D01*
X18229000Y21783771D01*
X18229247Y21793858D01*
X18229932Y21807796D01*
X18231903Y21827798D01*
X18233779Y21840444D01*
X18237700Y21860157D01*
X18240798Y21872525D01*
X18246642Y21891793D01*
X18250935Y21903789D01*
X18258634Y21922375D01*
X18264084Y21933897D01*
X18273573Y21951650D01*
X18280119Y21962571D01*
X18291303Y21979309D01*
X18298914Y21989571D01*
X18311654Y22005094D01*
X18320205Y22014530D01*
X18334470Y22028795D01*
X18343906Y22037346D01*
X18359429Y22050086D01*
X18369691Y22057697D01*
X18386429Y22068881D01*
X18397350Y22075427D01*
X18415103Y22084916D01*
X18426625Y22090366D01*
X18445211Y22098065D01*
X18457207Y22102358D01*
X18476470Y22108200D01*
X18478308Y22108661D01*
X18514216Y22125825D01*
X18540587Y22155634D01*
X18554000Y22205662D01*
X18554000Y22456000D01*
X18546080Y22495004D01*
X18523575Y22527829D01*
X18490048Y22549277D01*
X18454000Y22556000D01*
X18241952Y22556000D01*
X18184316Y22565228D01*
X18176854Y22568767D01*
X18138219Y22578326D01*
X18098916Y22572059D01*
X18065170Y22550958D01*
X18042327Y22518367D01*
X18040792Y22511000D01*
X17339000Y22511000D01*
X17339000Y23416000D01*
X17331080Y23455004D01*
X17308575Y23487829D01*
X17275048Y23509277D01*
X17239000Y23516000D01*
X16434000Y23516000D01*
X16434000Y24379844D01*
X16426080Y24418848D01*
X16403575Y24451673D01*
X16372266Y24472233D01*
X16347896Y24482326D01*
X16343607Y24484619D01*
X16310206Y24506934D01*
X16306468Y24510002D01*
X16292285Y24524205D01*
X16287056Y24527674D01*
X16098053Y24716677D01*
X16094206Y24722284D01*
X16080003Y24736467D01*
X16076930Y24740212D01*
X16058149Y24768322D01*
X16029896Y24796354D01*
X15992947Y24811145D01*
X15953156Y24810354D01*
X15916824Y24794105D01*
X15889708Y24764973D01*
X15875000Y24712769D01*
X15875000Y20674000D01*
X15882920Y20634996D01*
X15905425Y20602171D01*
X15938952Y20580723D01*
X15975000Y20574000D01*
X20220000Y20574000D01*
D02*
G37*
%LPC*%
G36*
X19384000Y27537000D02*
X18889000Y27537000D01*
X18889000Y28007000D01*
X19008921Y28007000D01*
X19041272Y28005410D01*
X19078173Y27999936D01*
X19114378Y27990868D01*
X19149515Y27978295D01*
X19183246Y27962340D01*
X19215256Y27943155D01*
X19245216Y27920934D01*
X19272871Y27895871D01*
X19297934Y27868216D01*
X19320155Y27838256D01*
X19339340Y27806246D01*
X19355295Y27772515D01*
X19367868Y27737378D01*
X19376933Y27701183D01*
X19382411Y27664261D01*
X19384000Y27631919D01*
X19384000Y27537000D01*
D02*
G37*
%LPC*%
G36*
X18679000Y27537000D02*
X18184000Y27537000D01*
X18184000Y27631921D01*
X18185590Y27664272D01*
X18191064Y27701173D01*
X18200132Y27737378D01*
X18212705Y27772515D01*
X18228660Y27806246D01*
X18247845Y27838256D01*
X18270066Y27868216D01*
X18295129Y27895871D01*
X18322784Y27920934D01*
X18352744Y27943155D01*
X18384754Y27962340D01*
X18418485Y27978295D01*
X18453622Y27990868D01*
X18489827Y27999936D01*
X18526728Y28005410D01*
X18559079Y28007000D01*
X18679000Y28007000D01*
X18679000Y27537000D01*
D02*
G37*
%LPC*%
G36*
X19008921Y26857000D02*
X18889000Y26857000D01*
X18889000Y27327000D01*
X19384000Y27327000D01*
X19384000Y27232079D01*
X19382410Y27199728D01*
X19376936Y27162827D01*
X19367868Y27126622D01*
X19355295Y27091485D01*
X19339340Y27057754D01*
X19320155Y27025744D01*
X19297934Y26995784D01*
X19272871Y26968129D01*
X19245216Y26943066D01*
X19215256Y26920845D01*
X19183246Y26901660D01*
X19149515Y26885705D01*
X19114378Y26873132D01*
X19078173Y26864064D01*
X19041272Y26858590D01*
X19008921Y26857000D01*
D02*
G37*
%LPC*%
G36*
X18679000Y26857000D02*
X18559079Y26857000D01*
X18526728Y26858590D01*
X18489827Y26864064D01*
X18453622Y26873132D01*
X18418485Y26885705D01*
X18384754Y26901660D01*
X18352744Y26920845D01*
X18322784Y26943066D01*
X18295129Y26968129D01*
X18270066Y26995784D01*
X18247845Y27025744D01*
X18228660Y27057754D01*
X18212705Y27091485D01*
X18200132Y27126622D01*
X18191064Y27162827D01*
X18185590Y27199728D01*
X18184000Y27232079D01*
X18184000Y27327000D01*
X18679000Y27327000D01*
X18679000Y26857000D01*
D02*
G37*
%LPC*%
G36*
X19634000Y25716000D02*
X18939000Y25716000D01*
X18939000Y26511000D01*
X19634000Y26511000D01*
X19634000Y25716000D01*
D02*
G37*
%LPC*%
G36*
X19634000Y24711000D02*
X18939000Y24711000D01*
X18939000Y25506000D01*
X19634000Y25506000D01*
X19634000Y24711000D01*
D02*
G37*
%LPC*%
G36*
X17129000Y22511000D02*
X16434000Y22511000D01*
X16434000Y23306000D01*
X17129000Y23306000D01*
X17129000Y22511000D01*
D02*
G37*
%LPC*%
G36*
X17884000Y21695000D02*
X17389000Y21695000D01*
X17389000Y22165000D01*
X17508921Y22165000D01*
X17541272Y22163410D01*
X17578173Y22157936D01*
X17614378Y22148868D01*
X17649515Y22136295D01*
X17683246Y22120340D01*
X17715256Y22101155D01*
X17745216Y22078934D01*
X17772871Y22053871D01*
X17797934Y22026216D01*
X17820155Y21996256D01*
X17839340Y21964246D01*
X17855295Y21930515D01*
X17867868Y21895378D01*
X17876936Y21859173D01*
X17882410Y21822272D01*
X17884000Y21789921D01*
X17884000Y21695000D01*
D02*
G37*
%LPC*%
G36*
X17179000Y21695000D02*
X16684000Y21695000D01*
X16684000Y21789921D01*
X16685590Y21822272D01*
X16691064Y21859173D01*
X16700132Y21895378D01*
X16712705Y21930515D01*
X16728660Y21964246D01*
X16747845Y21996256D01*
X16770066Y22026216D01*
X16795129Y22053871D01*
X16822784Y22078934D01*
X16852744Y22101155D01*
X16884754Y22120340D01*
X16918485Y22136295D01*
X16953622Y22148868D01*
X16989827Y22157936D01*
X17026728Y22163410D01*
X17059079Y22165000D01*
X17179000Y22165000D01*
X17179000Y21695000D01*
D02*
G37*
%LPC*%
G36*
X17508921Y21015000D02*
X17389000Y21015000D01*
X17389000Y21485000D01*
X17884000Y21485000D01*
X17884000Y21390079D01*
X17882410Y21357728D01*
X17876936Y21320827D01*
X17867868Y21284622D01*
X17855295Y21249485D01*
X17839340Y21215754D01*
X17820155Y21183744D01*
X17797934Y21153784D01*
X17772871Y21126129D01*
X17745216Y21101066D01*
X17715256Y21078845D01*
X17683246Y21059660D01*
X17649515Y21043705D01*
X17614378Y21031132D01*
X17578173Y21022064D01*
X17541272Y21016590D01*
X17508921Y21015000D01*
D02*
G37*
%LPC*%
G36*
X17179000Y21015000D02*
X17059079Y21015000D01*
X17026728Y21016590D01*
X16989827Y21022064D01*
X16953622Y21031132D01*
X16918485Y21043705D01*
X16884754Y21059660D01*
X16852744Y21078845D01*
X16822784Y21101066D01*
X16795129Y21126129D01*
X16770066Y21153784D01*
X16747845Y21183744D01*
X16728660Y21215754D01*
X16712705Y21249485D01*
X16700132Y21284622D01*
X16691064Y21320827D01*
X16685590Y21357728D01*
X16684000Y21390079D01*
X16684000Y21485000D01*
X17179000Y21485000D01*
X17179000Y21015000D01*
D02*
G37*
G01*
%LPD*%
D10*
X40005000Y6350000D02*
X39440000Y5785000D01*
D11*
X11430000Y12815000D02*
X8890000Y15355000D01*
D11*
X12780253Y33564975D02*
X12446000Y33230722D01*
D11*
X12021000Y33230000D02*
X12021000Y32004000D01*
D11*
X51628000Y24795000D02*
X50247999Y26175001D01*
D11*
X5839267Y15921011D02*
X6418990Y15921010D01*
D10*
X41275000Y11430000D02*
X41275000Y7620000D01*
D11*
X60325000Y26670000D02*
X57150000Y26670000D01*
D12*
X32893000Y26576000D02*
X32893000Y29349000D01*
D12*
X15994001Y19438999D02*
X28575000Y19438999D01*
D12*
X13471000Y27412000D02*
X14290990Y27412000D01*
D11*
X24533980Y16221020D02*
X25400000Y15355000D01*
D11*
X7747000Y24511000D02*
X6521000Y23285000D01*
D11*
X808011Y20952267D02*
X5839267Y15921011D01*
D11*
X59055000Y27940000D02*
X57150000Y27940000D01*
D11*
X11391446Y18921110D02*
X11021000Y19291556D01*
D11*
X41043980Y16221020D02*
X41910000Y15355000D01*
D11*
X9021000Y30362000D02*
X9021000Y32210722D01*
D11*
X28042310Y18021080D02*
X12805144Y18021080D01*
D10*
X14824980Y5684980D02*
X14925000Y5785000D01*
D11*
X1108022Y21076534D02*
X1108022Y31628466D01*
D11*
X11780846Y18621101D02*
X11267177Y18621101D01*
D12*
X4251010Y23912000D02*
X3187000Y22847990D01*
D11*
X47428000Y26350000D02*
X48453000Y26350000D01*
D11*
X44831000Y15621000D02*
X54344000Y15621000D01*
D11*
X21590000Y12065000D02*
X22225000Y11430000D01*
D11*
X45028000Y26350000D02*
X44765000Y26350000D01*
D11*
X5080000Y13855000D02*
X5080000Y12065000D01*
D12*
X13589000Y21705000D02*
X14617000Y21705000D01*
D11*
X16256000Y24883998D02*
X16453999Y24685999D01*
D10*
X31435000Y5785000D02*
X24060000Y5785000D01*
D11*
X2598556Y27912000D02*
X2008055Y27321499D01*
D12*
X28575000Y20713000D02*
X28575000Y19438999D01*
D10*
X16825000Y5785000D02*
X21660000Y5785000D01*
D11*
X27940000Y8890000D02*
X27940000Y12815000D01*
D12*
X51828000Y20320000D02*
X50800000Y20320000D01*
D12*
X38735000Y25400000D02*
X39735010Y24399990D01*
D12*
X53528000Y26470000D02*
X53328000Y26670000D01*
D11*
X11656578Y18321090D02*
X11142910Y18321090D01*
D12*
X46736000Y25400000D02*
X47428000Y25400000D01*
D11*
X9521000Y32135000D02*
X7791015Y33864985D01*
D11*
X6870000Y3810000D02*
X6870000Y1955000D01*
D11*
X48448000Y24450000D02*
X48895000Y24003000D01*
D12*
X4687000Y19697000D02*
X4699000Y19685000D01*
D10*
X49845000Y8185000D02*
X54540000Y8185000D01*
D12*
X14097000Y18796000D02*
X15351002Y18796000D01*
D11*
X25400000Y12065000D02*
X24765000Y11430000D01*
D12*
X18784000Y27432000D02*
X18784000Y25661000D01*
D11*
X2750000Y28912000D02*
X1408033Y27570033D01*
D12*
X13471000Y26912000D02*
X14427400Y26912000D01*
D11*
X508000Y20770798D02*
X5080000Y16198798D01*
D12*
X32385000Y31115000D02*
X33909000Y31115000D01*
D12*
X5071000Y23412000D02*
X5071000Y22228000D01*
D11*
X59690000Y28575000D02*
X59055000Y27940000D01*
D10*
X48524998Y6985000D02*
X55880000Y6985000D01*
D11*
X11905114Y18921110D02*
X11391446Y18921110D01*
D12*
X41925990Y24399990D02*
X42926000Y25400000D01*
D12*
X50800000Y30214000D02*
X51804000Y30214000D01*
D12*
X15240000Y21082000D02*
X15240000Y20193000D01*
D11*
X9521000Y19943000D02*
X9521000Y21962000D01*
D12*
X45720000Y25400000D02*
X45028000Y25400000D01*
D10*
X15625000Y6985000D02*
X16825000Y8185000D01*
D11*
X10408002Y25400000D02*
X11420002Y26412000D01*
D11*
X23919010Y29674990D02*
X19220010Y29674990D01*
D12*
X53086000Y31369000D02*
X52578000Y30861000D01*
D11*
X28693804Y16521030D02*
X43930970Y16521030D01*
D11*
X12805144Y18021080D02*
X11905114Y18921110D01*
D11*
X2620252Y33564974D02*
X808011Y31752733D01*
D12*
X52209000Y28714000D02*
X50800000Y28714000D01*
D12*
X4318000Y30492000D02*
X2171000Y30492000D01*
D12*
X11521000Y21142010D02*
X12458010Y20205000D01*
D11*
X60960000Y26035000D02*
X60325000Y25400000D01*
D10*
X48895000Y5785000D02*
X48895000Y4445000D01*
D11*
X5071000Y27912000D02*
X2598556Y27912000D01*
D12*
X17284000Y21590000D02*
X17284000Y23361000D01*
D11*
X10910970Y16521030D02*
X11811000Y15621000D01*
D11*
X48387000Y21336000D02*
X37211000Y21336000D01*
D11*
X16810747Y33564975D02*
X12780253Y33564975D01*
D11*
X42770665Y25775009D02*
X42395656Y25400000D01*
D11*
X16453999Y24685999D02*
X17605001Y24685999D01*
D10*
X56515000Y7620000D02*
X56515000Y8890000D01*
D10*
X15875000Y5785000D02*
X15875000Y4445000D01*
D12*
X4318000Y31992000D02*
X3441000Y31992000D01*
D11*
X54610000Y13855000D02*
X54610000Y12065000D01*
D12*
X14427400Y26912000D02*
X14996020Y27480620D01*
D11*
X28445268Y15921011D02*
X39438990Y15921010D01*
D12*
X35687000Y29337000D02*
X45339000Y29337000D01*
D11*
X6418990Y15921010D02*
X6985000Y15355000D01*
D12*
X60960000Y28575000D02*
X62230000Y29845000D01*
D11*
X37211000Y21336000D02*
X35560000Y22987000D01*
D11*
X44055238Y16821041D02*
X44955268Y15921011D01*
D11*
X18784000Y23361000D02*
X18834000Y23411000D01*
D11*
X9021000Y18243556D02*
X9021000Y21962000D01*
D10*
X23495000Y6350000D02*
X23495000Y8890000D01*
D11*
X41910000Y13855000D02*
X41910000Y12065000D01*
D11*
X28321000Y15621000D02*
X37834000Y15621000D01*
D10*
X30235000Y6985000D02*
X31435000Y8185000D01*
D11*
X7521000Y21962000D02*
X7521000Y18895000D01*
D12*
X15863000Y31865000D02*
X15875000Y31877000D01*
D11*
X8890000Y12065000D02*
X8255000Y11430000D01*
D11*
X6087804Y16521030D02*
X10910970Y16521030D01*
D11*
X12183804Y16521030D02*
X27420970Y16521030D01*
D11*
X1108022Y31628466D02*
X2744519Y33264963D01*
D11*
X17907000Y32893000D02*
X16935015Y33864985D01*
D11*
X5071000Y28912000D02*
X2750000Y28912000D01*
D11*
X37086731Y21035991D02*
X35435732Y22686990D01*
D12*
X51828000Y26670000D02*
X52578000Y25920000D01*
D11*
X28942340Y17121050D02*
X28042310Y18021080D01*
D11*
X2008055Y21449335D02*
X6336338Y17121052D01*
D12*
X49010000Y28702000D02*
X50788000Y28702000D01*
D12*
X28575000Y19438999D02*
X52446999Y19438999D01*
D11*
X16933000Y25912000D02*
X17234000Y25611000D01*
D10*
X41910000Y6985000D02*
X46745000Y6985000D01*
D12*
X14290990Y27412000D02*
X14546010Y27667020D01*
D11*
X55880000Y28345000D02*
X56745000Y28345000D01*
D11*
X808011Y31752733D02*
X808011Y20952267D01*
D10*
X6985000Y6985000D02*
X7635010Y6334990D01*
D11*
X24880000Y3810000D02*
X26035000Y3810000D01*
D11*
X8759000Y25912000D02*
X8763000Y25908000D01*
D12*
X3187000Y22847990D02*
X3187000Y21844000D01*
D12*
X52578000Y25920000D02*
X52578000Y24795000D01*
D11*
X53975000Y28345000D02*
X55650000Y26670000D01*
D12*
X29038000Y21176000D02*
X28575000Y20713000D01*
D12*
X45339000Y29337000D02*
X47371000Y31369000D01*
D12*
X39735010Y24399990D02*
X41925990Y24399990D01*
D12*
X52209000Y28690000D02*
X53328000Y27571000D01*
D11*
X58420000Y12065000D02*
X57785000Y11430000D01*
D11*
X27669506Y17121052D02*
X28569537Y16221020D01*
D11*
X38100000Y12065000D02*
X38735000Y11430000D01*
D11*
X47428000Y24450000D02*
X48448000Y24450000D01*
D11*
X40005000Y13855000D02*
X40005000Y8890000D01*
D11*
X12432340Y17121052D02*
X27669506Y17121052D01*
D11*
X18834000Y23457000D02*
X18834000Y23411000D01*
D11*
X11780846Y18621101D02*
X12680876Y17721071D01*
D12*
X33008000Y29464000D02*
X33782000Y29464000D01*
D11*
X39890000Y1955000D02*
X39840000Y1905000D01*
D11*
X15917010Y25611990D02*
X16256000Y25273000D01*
D11*
X59690000Y24765000D02*
X57404000Y24765000D01*
D11*
X12446000Y30353000D02*
X13471000Y29328000D01*
D11*
X9021000Y32210722D02*
X7666748Y33564974D01*
D10*
X8890000Y6985000D02*
X11430000Y6985000D01*
D11*
X54610000Y12065000D02*
X55245000Y11430000D01*
D11*
X45079536Y16221020D02*
X44179506Y17121050D01*
D12*
X15351002Y18796000D02*
X15994001Y19438999D01*
D10*
X57785000Y6350000D02*
X57785000Y11430000D01*
D11*
X2744519Y33264963D02*
X7502037Y33264963D01*
D11*
X57553980Y16221020D02*
X45079536Y16221020D01*
D12*
X35814000Y27432000D02*
X35814000Y26797000D01*
D12*
X51828000Y26670000D02*
X50673000Y26670000D01*
D11*
X34163000Y24765000D02*
X34163000Y26576000D01*
D12*
X13589000Y20205000D02*
X14466000Y20205000D01*
D11*
X17605001Y24685999D02*
X18834000Y23457000D01*
D11*
X6212071Y16821041D02*
X11035238Y16821041D01*
D12*
X33782000Y29464000D02*
X35814000Y27432000D01*
D12*
X50788000Y28702000D02*
X50800000Y28714000D01*
D12*
X13332000Y21962000D02*
X13589000Y21705000D01*
D11*
X60325000Y24130000D02*
X57150000Y24130000D01*
D11*
X9271000Y25400000D02*
X10408002Y25400000D01*
D11*
X5071000Y25912000D02*
X8759000Y25912000D01*
D11*
X31623000Y22479000D02*
X31623000Y21176000D01*
D10*
X38100000Y6985000D02*
X34535000Y6985000D01*
D11*
X55880000Y29845000D02*
X55880000Y30734000D01*
D11*
X9521000Y30362000D02*
X9521000Y32135000D01*
D11*
X8023980Y16221020D02*
X8890000Y15355000D01*
D11*
X12308072Y16821041D02*
X27545238Y16821041D01*
D11*
X44765000Y26350000D02*
X44190010Y25775010D01*
D11*
X56400000Y3810000D02*
X56400000Y1955000D01*
D11*
X17284000Y25661000D02*
X17234000Y25611000D01*
D12*
X64008000Y30734000D02*
X63373000Y31369000D01*
D11*
X8370000Y3810000D02*
X9525000Y3810000D01*
D11*
X11532310Y18021082D02*
X9243474Y18021082D01*
D11*
X508000Y31877000D02*
X508000Y20770798D01*
D11*
X9783000Y26412000D02*
X10287000Y25908000D01*
D11*
X56400000Y1955000D02*
X56350000Y1905000D01*
D12*
X6521000Y30362000D02*
X4448000Y30362000D01*
D10*
X39440000Y5785000D02*
X33335000Y5785000D01*
D11*
X12556608Y17421060D02*
X27793774Y17421060D01*
D12*
X4687000Y21844000D02*
X4687000Y19697000D01*
D11*
X58420000Y15355000D02*
X60960000Y12815000D01*
D12*
X17284000Y23361000D02*
X17234000Y23411000D01*
D11*
X56515000Y13855000D02*
X56515000Y8890000D01*
D11*
X1708044Y27445766D02*
X1708044Y21325068D01*
D12*
X63373000Y31369000D02*
X53086000Y31369000D01*
D11*
X48453000Y26350000D02*
X49195010Y25607990D01*
D10*
X8255000Y11430000D02*
X8255000Y7620000D01*
D11*
X19220010Y29674990D02*
X17907000Y30988000D01*
D12*
X33909000Y31115000D02*
X35687000Y29337000D01*
D10*
X6380020Y5684980D02*
X14824980Y5684980D01*
D11*
X11935268Y15921011D02*
X22928990Y15921010D01*
D10*
X5715000Y11430000D02*
X5715000Y6350000D01*
D11*
X60325000Y25400000D02*
X57150000Y25400000D01*
D11*
X53975000Y29845000D02*
X53975000Y30734000D01*
D11*
X7521000Y18895000D02*
X8994940Y17421060D01*
D11*
X60960000Y5715000D02*
X59055000Y3810000D01*
D12*
X52070000Y31369000D02*
X52578000Y30861000D01*
D11*
X23380000Y1955000D02*
X23330000Y1905000D01*
D11*
X56745000Y28345000D02*
X57150000Y27940000D01*
D12*
X41440000Y1905000D02*
X42545000Y1905000D01*
D10*
X32385000Y5785000D02*
X32385000Y4445000D01*
D11*
X38100000Y13855000D02*
X38100000Y12065000D01*
D11*
X38100000Y15355000D02*
X37834000Y15621000D01*
D11*
X25400000Y13855000D02*
X25400000Y12065000D01*
D11*
X6870000Y1955000D02*
X6820000Y1905000D01*
D12*
X14996020Y30121020D02*
X15863000Y30988000D01*
D12*
X32893000Y29349000D02*
X33008000Y29464000D01*
D12*
X11521000Y21962000D02*
X11521000Y21142010D01*
D11*
X9119207Y17721071D02*
X8521000Y18319278D01*
D12*
X31508000Y29464000D02*
X31508000Y30238000D01*
D10*
X5715000Y6350000D02*
X6380020Y5684980D01*
D11*
X48511268Y21035990D02*
X37086731Y21035991D01*
D10*
X34535000Y6985000D02*
X33335000Y8185000D01*
D11*
X11420002Y26412000D02*
X13471000Y26412000D01*
D11*
X49195009Y21719731D02*
X48511268Y21035990D01*
D11*
X30353000Y25065010D02*
X29845000Y24557010D01*
D11*
X7013000Y24412000D02*
X5071000Y24412000D01*
D11*
X27940000Y12815000D02*
X25400000Y15355000D01*
D12*
X8420000Y1905000D02*
X9525000Y1905000D01*
D12*
X46482000Y27674000D02*
X46482000Y25654000D01*
D11*
X8994940Y17421060D02*
X11283774Y17421060D01*
D10*
X55245000Y8890000D02*
X55245000Y11430000D01*
D10*
X57220000Y5785000D02*
X57785000Y6350000D01*
D12*
X53528000Y22195000D02*
X53528000Y20520000D01*
D11*
X11521000Y31841000D02*
X11684000Y32004000D01*
D10*
X24765000Y11430000D02*
X24765000Y7620000D01*
D11*
X16256000Y25273000D02*
X16256000Y24883998D01*
D11*
X8521000Y18319278D02*
X8521000Y21962000D01*
D12*
X47510000Y28702000D02*
X46482000Y27674000D01*
D10*
X11430000Y6985000D02*
X12630000Y8185000D01*
D12*
X12021000Y21962000D02*
X13332000Y21962000D01*
D12*
X15863000Y30988000D02*
X15863000Y31865000D01*
D12*
X13471000Y21823000D02*
X13589000Y21705000D01*
D11*
X13471000Y25912000D02*
X16933000Y25912000D01*
D11*
X59055000Y3810000D02*
X57900000Y3810000D01*
D11*
X6521000Y23285000D02*
X6521000Y21962000D01*
D11*
X29845000Y24557010D02*
X29036990Y24557010D01*
D11*
X8890000Y13855000D02*
X8890000Y12065000D01*
D10*
X12630000Y8185000D02*
X14925000Y8185000D01*
D11*
X14605000Y25611990D02*
X15917010Y25611990D01*
D11*
X44955268Y15921011D02*
X55948990Y15921010D01*
D10*
X6985000Y8890000D02*
X6985000Y6985000D01*
D11*
X7666748Y33564974D02*
X2620252Y33564974D01*
D11*
X43930970Y16521030D02*
X44831000Y15621000D01*
D12*
X48514000Y25400000D02*
X47428000Y25400000D01*
D11*
X39438990Y15921010D02*
X40005000Y15355000D01*
D10*
X46745000Y6985000D02*
X47945000Y8185000D01*
D12*
X53528000Y24795000D02*
X53528000Y26470000D01*
D11*
X44450000Y8890000D02*
X44450000Y12815000D01*
D10*
X38735000Y7620000D02*
X38100000Y6985000D01*
D12*
X52209000Y28714000D02*
X52209000Y28690000D01*
D11*
X33227990Y22686990D02*
X32893000Y22352000D01*
D10*
X24060000Y5785000D02*
X23495000Y6350000D01*
D11*
X12655985Y33864985D02*
X12021000Y33230000D01*
D12*
X50788000Y30226000D02*
X50800000Y30214000D01*
D11*
X43081334Y25024990D02*
X42081323Y24024979D01*
D12*
X53528000Y20520000D02*
X53328000Y20320000D01*
D11*
X28912722Y24257000D02*
X33655000Y24257000D01*
D11*
X45028000Y24450000D02*
X44765000Y24450000D01*
D12*
X15240000Y20193000D02*
X15994001Y19438999D01*
D11*
X28818072Y16821041D02*
X44055238Y16821041D01*
D10*
X12700000Y6985000D02*
X15625000Y6985000D01*
D11*
X8255000Y23495000D02*
X9652000Y23495000D01*
D11*
X57404000Y24765000D02*
X57150000Y24765000D01*
D11*
X40005000Y22860000D02*
X41169979Y24024979D01*
D11*
X60960000Y27305000D02*
X60325000Y26670000D01*
D11*
X6870000Y1855000D02*
X6820000Y1905000D01*
D11*
X21324000Y15621000D02*
X21590000Y15355000D01*
D11*
X11408042Y17721071D02*
X9119207Y17721071D01*
D12*
X14996020Y27480620D02*
X14996020Y30121020D01*
D11*
X2008055Y27321499D02*
X2008055Y21449335D01*
D11*
X49195010Y25607990D02*
X49195009Y21719731D01*
D11*
X11159506Y17121052D02*
X12059537Y16221020D01*
D11*
X5071000Y28412000D02*
X2674278Y28412000D01*
D12*
X5071000Y22228000D02*
X4687000Y21844000D01*
D11*
X44765000Y24450000D02*
X44190010Y25024990D01*
D12*
X60960000Y23495000D02*
X63373000Y23495000D01*
D11*
X21590000Y13855000D02*
X21590000Y12065000D01*
D12*
X46031990Y28747990D02*
X46031990Y25711990D01*
D10*
X40005000Y8890000D02*
X40005000Y6350000D01*
D11*
X29036990Y24557010D02*
X23919010Y29674990D01*
D11*
X30353000Y26576000D02*
X30353000Y25065010D01*
D12*
X55499000Y25273000D02*
X56261000Y26035000D01*
D11*
X44190010Y25024990D02*
X43081334Y25024990D01*
D11*
X27918042Y17721071D02*
X28818072Y16821041D01*
D11*
X44179506Y17121050D02*
X28942340Y17121050D01*
D12*
X31508000Y30238000D02*
X32385000Y31115000D01*
D11*
X5963536Y16221020D02*
X8023980Y16221020D01*
D11*
X18784000Y21590000D02*
X18784000Y23361000D01*
D11*
X33655000Y24257000D02*
X34163000Y24765000D01*
D11*
X10795000Y24511000D02*
X10369999Y24936001D01*
D11*
X19095742Y29374980D02*
X17606990Y30863732D01*
D12*
X64008000Y24130000D02*
X64008000Y30734000D01*
D10*
X22225000Y6350000D02*
X22225000Y11430000D01*
D11*
X6336338Y17121052D02*
X11159506Y17121052D01*
D11*
X23495000Y13855000D02*
X23495000Y8890000D01*
D11*
X35435732Y22686990D02*
X33227990Y22686990D01*
D10*
X47945000Y6405002D02*
X48524998Y6985000D01*
D11*
X11430000Y8890000D02*
X11430000Y12815000D01*
D10*
X24765000Y7620000D02*
X25400000Y6985000D01*
D11*
X10521000Y19367278D02*
X10521000Y21962000D01*
D11*
X5080000Y16198798D02*
X5080000Y15355000D01*
D11*
X42395656Y25400000D02*
X41275000Y25400000D01*
D12*
X3441000Y31992000D02*
X3429000Y32004000D01*
D11*
X11021000Y19291556D02*
X11021000Y21962000D01*
D11*
X14405010Y25412000D02*
X14605000Y25611990D01*
D12*
X31623000Y26576000D02*
X31623000Y29349000D01*
D12*
X51804000Y30214000D02*
X51816000Y30226000D01*
D11*
X10021000Y23126000D02*
X10021000Y21962000D01*
D12*
X6489000Y31992000D02*
X4318000Y31992000D01*
D11*
X13471000Y29328000D02*
X13471000Y28912000D01*
D11*
X13471000Y25412000D02*
X14405010Y25412000D01*
D11*
X11684000Y32004000D02*
X12021000Y32004000D01*
D12*
X5071000Y23912000D02*
X4251010Y23912000D01*
D12*
X14617000Y21705000D02*
X15240000Y21082000D01*
D11*
X5963536Y16221020D02*
X1108022Y21076534D01*
D11*
X54344000Y15621000D02*
X54610000Y15355000D01*
D11*
X22928990Y15921010D02*
X23495000Y15355000D01*
D10*
X49845000Y5785000D02*
X57220000Y5785000D01*
D11*
X11521000Y30362000D02*
X11521000Y31841000D01*
D11*
X17606990Y32768732D02*
X16810747Y33564975D01*
D10*
X21660000Y5785000D02*
X22225000Y6350000D01*
D11*
X59690000Y27305000D02*
X57150000Y27305000D01*
D11*
X12021000Y32004000D02*
X12021000Y30362000D01*
D11*
X27420970Y16521030D02*
X28321000Y15621000D01*
D12*
X52578000Y30861000D02*
X52578000Y29083000D01*
D12*
X63373000Y23495000D02*
X64008000Y24130000D01*
D11*
X12446000Y33230722D02*
X12446000Y30353000D01*
D12*
X34163000Y21176000D02*
X34163000Y19939000D01*
D11*
X6870000Y1855000D02*
X6820000Y1905000D01*
D10*
X7635010Y6334990D02*
X12049990Y6334990D01*
D12*
X56261000Y26035000D02*
X59690000Y26035000D01*
D12*
X14546010Y27667020D02*
X14546010Y30804990D01*
D12*
X55499000Y21336000D02*
X55499000Y25273000D01*
D10*
X8255000Y7620000D02*
X8890000Y6985000D01*
D11*
X17907000Y30988000D02*
X17907000Y32893000D01*
D11*
X17606990Y30863732D02*
X17606990Y32768732D01*
D11*
X10369999Y24936001D02*
X7537001Y24936001D01*
D11*
X7791015Y33864985D02*
X2495985Y33864985D01*
D12*
X30353000Y21176000D02*
X29038000Y21176000D01*
D11*
X41390000Y3810000D02*
X42545000Y3810000D01*
D12*
X4448000Y30362000D02*
X4318000Y30492000D01*
D11*
X42081323Y24024979D02*
X41169979Y24024979D01*
D12*
X24930000Y1905000D02*
X26035000Y1905000D01*
D11*
X35560000Y22987000D02*
X32131000Y22987000D01*
D11*
X48895000Y21844000D02*
X48387000Y21336000D01*
D10*
X54540000Y8185000D02*
X55245000Y8890000D01*
D11*
X11656578Y18321090D02*
X12556608Y17421060D01*
D11*
X1408033Y27570033D02*
X1408033Y21200801D01*
D11*
X32893000Y22352000D02*
X32893000Y21176000D01*
D12*
X54483000Y20320000D02*
X55499000Y21336000D01*
D12*
X31623000Y29349000D02*
X31508000Y29464000D01*
D11*
X11532310Y18021082D02*
X12432340Y17121052D01*
D12*
X3187000Y21844000D02*
X3187000Y21705000D01*
D12*
X42926000Y25400000D02*
X45028000Y25400000D01*
D10*
X55880000Y6985000D02*
X56515000Y7620000D01*
D11*
X2674278Y28412000D02*
X1708044Y27445766D01*
D11*
X11408042Y17721071D02*
X12308072Y16821041D01*
D11*
X9779000Y24511000D02*
X7747000Y24511000D01*
D11*
X27545238Y16821041D02*
X28445268Y15921011D01*
D12*
X52446999Y19438999D02*
X53328000Y20320000D01*
D12*
X7021000Y31460000D02*
X6489000Y31992000D01*
D11*
X5071000Y26412000D02*
X9783000Y26412000D01*
D11*
X11035238Y16821041D02*
X11935268Y15921011D01*
D11*
X11142910Y18321090D02*
X9521000Y19943000D01*
D12*
X53328000Y27571000D02*
X53328000Y26670000D01*
D11*
X23794742Y29374980D02*
X28912722Y24257000D01*
D10*
X38735000Y11430000D02*
X38735000Y7620000D01*
D11*
X60960000Y12815000D02*
X60960000Y5715000D01*
D12*
X18784000Y25661000D02*
X18834000Y25611000D01*
D11*
X11283774Y17421060D02*
X12183804Y16521030D01*
D11*
X5080000Y12065000D02*
X5715000Y11430000D01*
D11*
X7502037Y33264963D02*
X8521000Y32246000D01*
D11*
X50247999Y26175001D02*
X50247999Y28161999D01*
D12*
X46482000Y25654000D02*
X46736000Y25400000D01*
D11*
X8521000Y32246000D02*
X8521000Y30362000D01*
D11*
X44190010Y25775010D02*
X42770665Y25775009D01*
D11*
X11267177Y18621101D02*
X10521000Y19367278D01*
D12*
X47371000Y31369000D02*
X52070000Y31369000D01*
D11*
X16935015Y33864985D02*
X12655985Y33864985D01*
D11*
X55650000Y26670000D02*
X57150000Y26670000D01*
D11*
X6985000Y13855000D02*
X6985000Y8890000D01*
D11*
X28569537Y16221020D02*
X41043980Y16221020D01*
D12*
X49010000Y30226000D02*
X50788000Y30226000D01*
D12*
X28575000Y22213000D02*
X27698000Y22213000D01*
D10*
X12049990Y6334990D02*
X12700000Y6985000D01*
D11*
X9243474Y18021082D02*
X9021000Y18243556D01*
D11*
X50247999Y28161999D02*
X50800000Y28714000D01*
D11*
X23380000Y3810000D02*
X23380000Y1955000D01*
D11*
X48895000Y24003000D02*
X48895000Y21844000D01*
D11*
X7537001Y24936001D02*
X7013000Y24412000D01*
D12*
X62230000Y29845000D02*
X62230000Y30480000D01*
D11*
X12680876Y17721071D02*
X27918042Y17721071D01*
D12*
X27698000Y22213000D02*
X27686000Y22225000D01*
D11*
X12059537Y16221020D02*
X24533980Y16221020D01*
D12*
X14466000Y20205000D02*
X14478000Y20193000D01*
D11*
X55948990Y15921010D02*
X56515000Y15355000D01*
D12*
X14363000Y31865000D02*
X14351000Y31877000D01*
D12*
X7021000Y30362000D02*
X7021000Y31460000D01*
D10*
X25400000Y6985000D02*
X30235000Y6985000D01*
D12*
X2171000Y30492000D02*
X2159000Y30480000D01*
D11*
X32131000Y22987000D02*
X31623000Y22479000D01*
D12*
X12458010Y20205000D02*
X13589000Y20205000D01*
D11*
X39890000Y3810000D02*
X39890000Y1955000D01*
D12*
X53328000Y20320000D02*
X54483000Y20320000D01*
D10*
X47945000Y5785000D02*
X47945000Y6405002D01*
D12*
X3187000Y21705000D02*
X3937000Y20955000D01*
D11*
X44450000Y12815000D02*
X41910000Y15355000D01*
D12*
X52578000Y29083000D02*
X52209000Y28714000D01*
D11*
X60960000Y24765000D02*
X60325000Y24130000D01*
D10*
X41275000Y7620000D02*
X41910000Y6985000D01*
D11*
X41910000Y12065000D02*
X41275000Y11430000D01*
D11*
X1408033Y21200801D02*
X6087804Y16521030D01*
D11*
X2495985Y33864985D02*
X508000Y31877000D01*
D11*
X17284000Y27432000D02*
X17284000Y25661000D01*
D11*
X27793774Y17421060D02*
X28693804Y16521030D01*
D12*
X13471000Y23412000D02*
X13471000Y21823000D01*
D12*
X47510000Y30226000D02*
X46031990Y28747990D01*
D12*
X14363000Y30988000D02*
X14363000Y31865000D01*
D11*
X1708044Y21325068D02*
X6212071Y16821041D01*
D11*
X11811000Y15621000D02*
X21324000Y15621000D01*
D12*
X14546010Y30804990D02*
X14363000Y30988000D01*
D11*
X57553980Y16221020D02*
X58420000Y15355000D01*
D12*
X57950000Y1905000D02*
X59055000Y1905000D01*
D11*
X19095742Y29374980D02*
X23794742Y29374980D01*
D11*
X9652000Y23495000D02*
X10021000Y23126000D01*
D11*
X58420000Y13855000D02*
X58420000Y12065000D01*
D12*
X46031990Y25711990D02*
X45720000Y25400000D01*
G75*
D13*
X24930000Y1905000D03*
D13*
X23330000Y1905000D03*
D14*
X11021000Y21962000D03*
D15*
X10521000Y30362000D03*
D14*
X7021000Y21962000D03*
D16*
X5071000Y25412000D03*
D14*
X8021000Y21962000D03*
D15*
X9021000Y30362000D03*
D17*
X13471000Y27412000D03*
D14*
X7521000Y21962000D03*
D17*
X13471000Y23912000D03*
D15*
X11521000Y30362000D03*
D16*
X5071000Y23412000D03*
D17*
X13471000Y25412000D03*
D14*
X9521000Y21962000D03*
D15*
X6521000Y30362000D03*
D17*
X13471000Y27912000D03*
D16*
X5071000Y26412000D03*
D15*
X12021000Y30362000D03*
D17*
X13471000Y26412000D03*
D16*
X5071000Y25912000D03*
D15*
X8021000Y30362000D03*
D15*
X7521000Y30362000D03*
D16*
X5071000Y24412000D03*
D15*
X11021000Y30362000D03*
D17*
X13471000Y24412000D03*
D14*
X11521000Y21962000D03*
D14*
X6521000Y21962000D03*
D17*
X13471000Y24912000D03*
D15*
X10021000Y30362000D03*
D17*
X13471000Y28412000D03*
D14*
X10021000Y21962000D03*
D17*
X13471000Y26912000D03*
D15*
X8521000Y30362000D03*
D14*
X8521000Y21962000D03*
D16*
X5071000Y23912000D03*
D14*
X12021000Y21962000D03*
D16*
X5071000Y28912000D03*
D16*
X5071000Y24912000D03*
D16*
X5071000Y28412000D03*
D15*
X9521000Y30362000D03*
D14*
X10521000Y21962000D03*
D14*
X9021000Y21962000D03*
D16*
X5071000Y27912000D03*
D17*
X13471000Y25912000D03*
D16*
X5071000Y26912000D03*
D16*
X5071000Y27412000D03*
D17*
X13471000Y23412000D03*
D15*
X7021000Y30362000D03*
D17*
X13471000Y28912000D03*
D18*
X15863000Y30988000D03*
D18*
X14363000Y30988000D03*
D19*
X5080000Y13855000D03*
D19*
X5080000Y15355000D03*
D20*
X39890000Y3810000D03*
D20*
X41390000Y3810000D03*
D21*
X50800000Y30214000D03*
D21*
X50800000Y28714000D03*
D19*
X8890000Y13855000D03*
D19*
X8890000Y15355000D03*
D22*
X48895000Y5785000D03*
D22*
X49845000Y8185000D03*
D22*
X47945000Y5785000D03*
D22*
X47945000Y8185000D03*
D22*
X49845000Y5785000D03*
D19*
X55880000Y28345000D03*
D19*
X55880000Y29845000D03*
D19*
X54610000Y13855000D03*
D19*
X54610000Y15355000D03*
D23*
X31508000Y29464000D03*
D23*
X33008000Y29464000D03*
D24*
X17234000Y25611000D03*
D24*
X17234000Y23411000D03*
D24*
X18834000Y23411000D03*
D24*
X18834000Y25611000D03*
D22*
X15875000Y5785000D03*
D22*
X16825000Y8185000D03*
D22*
X14925000Y5785000D03*
D22*
X14925000Y8185000D03*
D22*
X16825000Y5785000D03*
D23*
X3187000Y21844000D03*
D23*
X4687000Y21844000D03*
D25*
X42545000Y22860000D03*
D25*
X38735000Y25400000D03*
D25*
X40005000Y22860000D03*
D25*
X41275000Y25400000D03*
D20*
X23380000Y3810000D03*
D20*
X24880000Y3810000D03*
D19*
X56515000Y13855000D03*
D19*
X56515000Y15355000D03*
D18*
X18784000Y21590000D03*
D18*
X17284000Y21590000D03*
D13*
X8420000Y1905000D03*
D13*
X6820000Y1905000D03*
D19*
X40005000Y13855000D03*
D19*
X40005000Y15355000D03*
D21*
X4318000Y31992000D03*
D21*
X4318000Y30492000D03*
D23*
X51828000Y20320000D03*
D23*
X53328000Y20320000D03*
D26*
X38735000Y11430000D03*
D26*
X42545000Y8890000D03*
D26*
X41275000Y11430000D03*
D26*
X40005000Y8890000D03*
D20*
X6870000Y3810000D03*
D20*
X8370000Y3810000D03*
D27*
X59690000Y26035000D03*
D27*
X59690000Y28575000D03*
D27*
X59690000Y24765000D03*
D27*
X60960000Y28575000D03*
D27*
X59690000Y23495000D03*
D27*
X60960000Y27305000D03*
D27*
X60960000Y24765000D03*
D27*
X59690000Y27305000D03*
D27*
X60960000Y26035000D03*
D27*
X60960000Y23495000D03*
D25*
X26035000Y22860000D03*
D25*
X22225000Y25400000D03*
D25*
X23495000Y22860000D03*
D25*
X24765000Y25400000D03*
D23*
X47510000Y30226000D03*
D23*
X49010000Y30226000D03*
D23*
X51828000Y26670000D03*
D23*
X53328000Y26670000D03*
D19*
X38100000Y13855000D03*
D19*
X38100000Y15355000D03*
D21*
X28575000Y22213000D03*
D21*
X28575000Y20713000D03*
D23*
X17284000Y27432000D03*
D23*
X18784000Y27432000D03*
D20*
X56400000Y3810000D03*
D20*
X57900000Y3810000D03*
D19*
X21590000Y13855000D03*
D19*
X21590000Y15355000D03*
D26*
X55245000Y11430000D03*
D26*
X59055000Y8890000D03*
D26*
X57785000Y11430000D03*
D26*
X56515000Y8890000D03*
D22*
X32385000Y5785000D03*
D22*
X33335000Y8185000D03*
D22*
X31435000Y5785000D03*
D22*
X31435000Y8185000D03*
D22*
X33335000Y5785000D03*
D19*
X58420000Y13855000D03*
D19*
X58420000Y15355000D03*
D28*
X47428000Y26350000D03*
D28*
X45028000Y25400000D03*
D28*
X47428000Y24450000D03*
D28*
X45028000Y26350000D03*
D28*
X47428000Y25400000D03*
D28*
X45028000Y24450000D03*
D26*
X5715000Y11430000D03*
D26*
X9525000Y8890000D03*
D26*
X8255000Y11430000D03*
D26*
X6985000Y8890000D03*
D19*
X25400000Y13855000D03*
D19*
X25400000Y15355000D03*
D21*
X53975000Y29845000D03*
D21*
X53975000Y28345000D03*
D13*
X57950000Y1905000D03*
D13*
X56350000Y1905000D03*
D18*
X49010000Y28702000D03*
D18*
X47510000Y28702000D03*
D13*
X41440000Y1905000D03*
D13*
X39840000Y1905000D03*
D19*
X23495000Y13855000D03*
D19*
X23495000Y15355000D03*
D26*
X22225000Y11430000D03*
D26*
X26035000Y8890000D03*
D26*
X24765000Y11430000D03*
D26*
X23495000Y8890000D03*
D29*
X53528000Y22195000D03*
D29*
X51628000Y22195000D03*
D30*
X51628000Y24795000D03*
D30*
X53528000Y24795000D03*
D30*
X52578000Y24795000D03*
D19*
X6985000Y13855000D03*
D19*
X6985000Y15355000D03*
D31*
X32893000Y26576000D03*
D31*
X30353000Y26576000D03*
D32*
X32893000Y21176000D03*
D31*
X34163000Y26576000D03*
D31*
X31623000Y26576000D03*
D32*
X30353000Y21176000D03*
D32*
X31623000Y21176000D03*
D32*
X34163000Y21176000D03*
D19*
X41910000Y13855000D03*
D19*
X41910000Y15355000D03*
D33*
X13589000Y20205000D03*
D33*
X13589000Y21705000D03*
D34*
X50800000Y20320000D03*
D34*
X9525000Y1905000D03*
D34*
X8255000Y23495000D03*
D34*
X32385000Y4445000D03*
D34*
X16129000Y22098000D03*
D34*
X20066000Y22098000D03*
D34*
X48514000Y25400000D03*
D34*
X57150000Y25400000D03*
D34*
X26035000Y3810000D03*
D34*
X59055000Y1905000D03*
D34*
X15875000Y4445000D03*
D34*
X34163000Y19939000D03*
D34*
X3937000Y20955000D03*
D34*
X26035000Y1905000D03*
D34*
X9271000Y25400000D03*
D34*
X16129000Y26797000D03*
D34*
X44450000Y8890000D03*
D34*
X27686000Y22225000D03*
D34*
X4699000Y19685000D03*
D34*
X10795000Y24511000D03*
D34*
X3429000Y32004000D03*
D34*
X50673000Y26670000D03*
D34*
X42545000Y1905000D03*
D34*
X35814000Y26797000D03*
D34*
X14097000Y18796000D03*
D34*
X57150000Y26670000D03*
D34*
X48895000Y4445000D03*
D34*
X55880000Y30734000D03*
D34*
X57150000Y27305000D03*
D34*
X42545000Y3810000D03*
D34*
X57150000Y24765000D03*
D34*
X2159000Y30480000D03*
D34*
X8763000Y25908000D03*
D34*
X9779000Y24511000D03*
D34*
X62230000Y30480000D03*
D34*
X20066000Y26797000D03*
D34*
X57150000Y24130000D03*
D34*
X10287000Y25908000D03*
D34*
X11430000Y8890000D03*
D34*
X27940000Y8890000D03*
D34*
X53975000Y30734000D03*
D34*
X9525000Y3810000D03*
D34*
X57150000Y27940000D03*
D34*
X51816000Y30226000D03*
D34*
X14351000Y31877000D03*
D34*
X14478000Y20193000D03*
D34*
X15875000Y31877000D03*
M02*
