M48
FMAT,2
METRIC,TZ
T5C0.200
T3C0.900
T4C0.991
T1C3.200
T2C3.300
%
G90
G05
M71
T5
X50.800Y20.320
X9.525Y1.905
X8.255Y23.495
X32.385Y4.445
X16.129Y22.098
X20.066Y22.098
X48.514Y25.400
X57.150Y25.400
X26.035Y3.810
X59.055Y1.905
X15.875Y4.445
X34.163Y19.939
X3.937Y20.955
X26.035Y1.905
X9.271Y25.400
X16.129Y26.797
X44.450Y8.890
X27.686Y22.225
X4.699Y19.685
X10.795Y24.511
X3.429Y32.004
X50.673Y26.670
X42.545Y1.905
X35.814Y26.797
X14.097Y18.796
X57.150Y26.670
X48.895Y4.445
X55.880Y30.734
X57.150Y27.305
X42.545Y3.810
X57.150Y24.765
X2.159Y30.480
X8.763Y25.908
X9.779Y24.511
X62.230Y30.480
X20.066Y26.797
X57.150Y24.130
X10.287Y25.908
X11.430Y8.890
X27.940Y8.890
X53.975Y30.734
X9.525Y3.810
X57.150Y27.940
X51.816Y30.226
X14.351Y31.877
X14.478Y20.193
X15.875Y31.877
T3
X42.545Y22.860
X38.735Y25.400
X40.005Y22.860
X41.275Y25.400
X38.735Y11.430
X42.545Y8.890
X41.275Y11.430
X40.005Y8.890
X26.035Y22.860
X22.225Y25.400
X23.495Y22.860
X24.765Y25.400
X55.245Y11.430
X59.055Y8.890
X57.785Y11.430
X56.515Y8.890
X5.715Y11.430
X9.525Y8.890
X8.255Y11.430
X6.985Y8.890
X22.225Y11.430
X26.035Y8.890
X24.765Y11.430
X23.495Y8.890
T4
X61.341Y22.225
X59.309Y22.225
X60.325Y29.845
T1
X63.627Y17.145
X1.270Y17.145
T2
X44.450Y31.750
X36.830Y31.750
X35.560Y2.540
X45.720Y2.540
X27.940Y31.750
X20.320Y31.750
X52.070Y2.540
X62.230Y2.540
X2.540Y2.540
X12.700Y2.540
X19.050Y2.540
X29.210Y2.540
M30
