%FSLAX46Y46*%
%MOMM*%
%ADD11C,0.150000*%
%ADD10C,0.300000*%
%AMPS13*
1,1,1.400000,0.000000,0.000000*
%
%ADD13PS13*%
%AMPS12*
1,1,1.400000,0.000000,0.000000*
%
%ADD12PS12*%
%AMPS14*
1,1,0.400000,0.000000,0.000000*
%
%ADD14PS14*%
G01*
%LPD*%
G36*
X65740000Y310000D02*
X65779004Y317920D01*
X65811829Y340425D01*
X65833277Y373952D01*
X65840000Y410000D01*
X65840000Y33880000D01*
X65832080Y33919004D01*
X65809575Y33951829D01*
X65776048Y33973277D01*
X65740000Y33980000D01*
X14190756Y33980000D01*
X14151752Y33972080D01*
X14118927Y33949575D01*
X14097479Y33916048D01*
X14090807Y33876812D01*
X14099966Y33838081D01*
X14120045Y33809289D01*
X14564938Y33364396D01*
X14578444Y33349495D01*
X14592425Y33332457D01*
X14614733Y33299071D01*
X14623962Y33281804D01*
X14639333Y33244694D01*
X14645017Y33225956D01*
X14652852Y33186572D01*
X14655013Y33164636D01*
X14656000Y33144552D01*
X14656000Y32083861D01*
X14667591Y32037586D01*
X14667504Y32037545D01*
X14667712Y32037106D01*
X14667808Y32036721D01*
X14668552Y32035330D01*
X14674849Y32022013D01*
X14682543Y32003440D01*
X14687497Y31989596D01*
X14693337Y31970345D01*
X14696913Y31956071D01*
X14700844Y31936306D01*
X14702998Y31921781D01*
X14704970Y31901754D01*
X14705692Y31887074D01*
X14705692Y31866926D01*
X14704970Y31852246D01*
X14702998Y31832219D01*
X14700844Y31817694D01*
X14696913Y31797929D01*
X14693337Y31783655D01*
X14687497Y31764404D01*
X14682543Y31750560D01*
X14674849Y31731987D01*
X14668551Y31718668D01*
X14659069Y31700928D01*
X14651503Y31688305D01*
X14640331Y31671587D01*
X14631555Y31659753D01*
X14618802Y31644213D01*
X14608924Y31633314D01*
X14594686Y31619076D01*
X14583787Y31609198D01*
X14568247Y31596445D01*
X14556413Y31587669D01*
X14539695Y31576497D01*
X14527072Y31568931D01*
X14509332Y31559449D01*
X14496013Y31553151D01*
X14477440Y31545457D01*
X14463596Y31540503D01*
X14444345Y31534663D01*
X14430071Y31531087D01*
X14410306Y31527156D01*
X14395781Y31525002D01*
X14375754Y31523030D01*
X14361074Y31522308D01*
X14340926Y31522308D01*
X14326246Y31523030D01*
X14306219Y31525002D01*
X14291694Y31527156D01*
X14271929Y31531087D01*
X14257655Y31534663D01*
X14238404Y31540503D01*
X14224560Y31545457D01*
X14205987Y31553151D01*
X14192668Y31559449D01*
X14174928Y31568931D01*
X14162305Y31576497D01*
X14145587Y31587669D01*
X14133753Y31596445D01*
X14118213Y31609198D01*
X14107314Y31619076D01*
X14093076Y31633314D01*
X14083198Y31644213D01*
X14070445Y31659753D01*
X14061669Y31671587D01*
X14050497Y31688305D01*
X14042931Y31700928D01*
X14033449Y31718668D01*
X14027151Y31731987D01*
X14019457Y31750560D01*
X14014503Y31764404D01*
X14008663Y31783655D01*
X14005087Y31797929D01*
X14001156Y31817694D01*
X13999002Y31832219D01*
X13997030Y31852246D01*
X13996308Y31866926D01*
X13996308Y31887074D01*
X13997030Y31901754D01*
X13999002Y31921781D01*
X14001156Y31936306D01*
X14005087Y31956071D01*
X14008663Y31970345D01*
X14014503Y31989596D01*
X14019457Y32003440D01*
X14027151Y32022013D01*
X14033448Y32035330D01*
X14034192Y32036721D01*
X14034288Y32037106D01*
X14034496Y32037545D01*
X14034409Y32037586D01*
X14046000Y32083861D01*
X14046000Y32979244D01*
X14038080Y33018248D01*
X14016711Y33049955D01*
X13610970Y33455696D01*
X13577790Y33477675D01*
X13540259Y33484985D01*
X-332259Y33484985D01*
X-371263Y33477065D01*
X-402970Y33455696D01*
X-435696Y33422970D01*
X-457675Y33389790D01*
X-464985Y33352259D01*
X-464985Y30885000D01*
X-457065Y30845996D01*
X-434560Y30813171D01*
X-401033Y30791723D01*
X-364985Y30785000D01*
X1952139Y30785000D01*
X1998414Y30796591D01*
X1998455Y30796504D01*
X1998894Y30796712D01*
X1999279Y30796808D01*
X2000670Y30797552D01*
X2013987Y30803849D01*
X2032560Y30811543D01*
X2046404Y30816497D01*
X2065655Y30822337D01*
X2079929Y30825913D01*
X2099694Y30829844D01*
X2114219Y30831998D01*
X2134246Y30833970D01*
X2148926Y30834692D01*
X2169074Y30834692D01*
X2183754Y30833970D01*
X2203781Y30831998D01*
X2218306Y30829844D01*
X2238071Y30825913D01*
X2252345Y30822337D01*
X2271596Y30816497D01*
X2285440Y30811543D01*
X2304013Y30803849D01*
X2317332Y30797551D01*
X2335072Y30788069D01*
X2347695Y30780503D01*
X2364413Y30769331D01*
X2376247Y30760555D01*
X2391787Y30747802D01*
X2402686Y30737924D01*
X2416924Y30723686D01*
X2426802Y30712787D01*
X2439555Y30697247D01*
X2448331Y30685413D01*
X2459503Y30668695D01*
X2467069Y30656072D01*
X2476551Y30638332D01*
X2482849Y30625013D01*
X2490543Y30606440D01*
X2495497Y30592596D01*
X2501337Y30573345D01*
X2504913Y30559071D01*
X2508844Y30539306D01*
X2510998Y30524781D01*
X2512970Y30504754D01*
X2513692Y30490074D01*
X2513692Y30469926D01*
X2512970Y30455246D01*
X2510998Y30435219D01*
X2508844Y30420694D01*
X2504913Y30400929D01*
X2501337Y30386655D01*
X2495497Y30367404D01*
X2490543Y30353560D01*
X2482849Y30334987D01*
X2476551Y30321668D01*
X2467069Y30303928D01*
X2459503Y30291305D01*
X2448331Y30274587D01*
X2439555Y30262753D01*
X2426802Y30247213D01*
X2416924Y30236314D01*
X2402686Y30222076D01*
X2391787Y30212198D01*
X2376247Y30199445D01*
X2364413Y30190669D01*
X2347695Y30179497D01*
X2335072Y30171931D01*
X2317332Y30162449D01*
X2304013Y30156151D01*
X2285440Y30148457D01*
X2271596Y30143503D01*
X2252345Y30137663D01*
X2238071Y30134087D01*
X2218306Y30130156D01*
X2203781Y30128002D01*
X2183754Y30126030D01*
X2169074Y30125308D01*
X2148926Y30125308D01*
X2134246Y30126030D01*
X2114219Y30128002D01*
X2099694Y30130156D01*
X2079929Y30134087D01*
X2065655Y30137663D01*
X2046404Y30143503D01*
X2032560Y30148457D01*
X2013987Y30156151D01*
X2000670Y30162448D01*
X1999279Y30163192D01*
X1998894Y30163288D01*
X1998455Y30163496D01*
X1998414Y30163409D01*
X1952139Y30175000D01*
X-364985Y30175000D01*
X-403989Y30167080D01*
X-436814Y30144575D01*
X-458262Y30111048D01*
X-464985Y30075000D01*
X-464985Y20114741D01*
X-457065Y20075737D01*
X-435696Y20044030D01*
X-29955Y19638289D01*
X3225Y19616310D01*
X40756Y19609000D01*
X4244872Y19609000D01*
X4283876Y19616920D01*
X4316701Y19639425D01*
X4338149Y19672952D01*
X4344751Y19704085D01*
X4345030Y19709756D01*
X4347002Y19729781D01*
X4349156Y19744306D01*
X4353087Y19764071D01*
X4356663Y19778345D01*
X4362503Y19797596D01*
X4367457Y19811440D01*
X4375151Y19830013D01*
X4381449Y19843332D01*
X4390931Y19861072D01*
X4398497Y19873695D01*
X4409669Y19890413D01*
X4418445Y19902247D01*
X4431198Y19917787D01*
X4441076Y19928686D01*
X4455314Y19942924D01*
X4466213Y19952802D01*
X4481753Y19965555D01*
X4493587Y19974331D01*
X4510305Y19985503D01*
X4522928Y19993069D01*
X4540668Y20002551D01*
X4553987Y20008849D01*
X4572560Y20016543D01*
X4586404Y20021497D01*
X4605655Y20027337D01*
X4619929Y20030913D01*
X4639694Y20034844D01*
X4654219Y20036998D01*
X4674246Y20038970D01*
X4688926Y20039692D01*
X4709074Y20039692D01*
X4723754Y20038970D01*
X4743781Y20036998D01*
X4758306Y20034844D01*
X4778071Y20030913D01*
X4792345Y20027337D01*
X4811596Y20021497D01*
X4825440Y20016543D01*
X4844013Y20008849D01*
X4857332Y20002551D01*
X4875072Y19993069D01*
X4887695Y19985503D01*
X4904413Y19974331D01*
X4916247Y19965555D01*
X4931787Y19952802D01*
X4942686Y19942924D01*
X4956924Y19928686D01*
X4966802Y19917787D01*
X4979555Y19902247D01*
X4988331Y19890413D01*
X4999503Y19873695D01*
X5007069Y19861072D01*
X5016551Y19843332D01*
X5022849Y19830013D01*
X5030543Y19811440D01*
X5035497Y19797596D01*
X5041337Y19778345D01*
X5044913Y19764071D01*
X5048844Y19744306D01*
X5050998Y19729781D01*
X5052970Y19709756D01*
X5053249Y19704085D01*
X5063076Y19665518D01*
X5087168Y19633838D01*
X5121708Y19614064D01*
X5153128Y19609000D01*
X13586552Y19609000D01*
X13606636Y19608013D01*
X13628572Y19605852D01*
X13667956Y19598017D01*
X13686694Y19592333D01*
X13723804Y19576962D01*
X13741071Y19567733D01*
X13774457Y19545425D01*
X13791495Y19531444D01*
X13806396Y19517938D01*
X14166393Y19157941D01*
X14207313Y19133418D01*
X14207280Y19133326D01*
X14207741Y19133161D01*
X14208083Y19132956D01*
X14209597Y19132497D01*
X14223440Y19127543D01*
X14242013Y19119849D01*
X14255332Y19113551D01*
X14273072Y19104069D01*
X14285695Y19096503D01*
X14302413Y19085331D01*
X14314247Y19076555D01*
X14329787Y19063802D01*
X14340686Y19053924D01*
X14354924Y19039686D01*
X14364802Y19028787D01*
X14377555Y19013247D01*
X14386331Y19001413D01*
X14397503Y18984695D01*
X14405069Y18972072D01*
X14414551Y18954332D01*
X14420849Y18941013D01*
X14428543Y18922440D01*
X14433497Y18908596D01*
X14439337Y18889345D01*
X14442913Y18875071D01*
X14446844Y18855306D01*
X14448998Y18840781D01*
X14450970Y18820754D01*
X14451692Y18806074D01*
X14451692Y18785926D01*
X14450970Y18771246D01*
X14448998Y18751219D01*
X14446844Y18736694D01*
X14442913Y18716929D01*
X14439337Y18702655D01*
X14433497Y18683404D01*
X14428543Y18669560D01*
X14420849Y18650987D01*
X14414551Y18637668D01*
X14405069Y18619928D01*
X14397503Y18607305D01*
X14386331Y18590587D01*
X14377555Y18578753D01*
X14364802Y18563213D01*
X14354924Y18552314D01*
X14340686Y18538076D01*
X14329787Y18528198D01*
X14314247Y18515445D01*
X14302413Y18506669D01*
X14285695Y18495497D01*
X14273072Y18487931D01*
X14255332Y18478449D01*
X14242013Y18472151D01*
X14223440Y18464457D01*
X14209596Y18459503D01*
X14190345Y18453663D01*
X14176071Y18450087D01*
X14156306Y18446156D01*
X14141781Y18444002D01*
X14121754Y18442030D01*
X14107074Y18441308D01*
X14086926Y18441308D01*
X14072246Y18442030D01*
X14052219Y18444002D01*
X14037694Y18446156D01*
X14017929Y18450087D01*
X14003655Y18453663D01*
X13984404Y18459503D01*
X13970560Y18464457D01*
X13951987Y18472151D01*
X13938668Y18478449D01*
X13920928Y18487931D01*
X13908305Y18495497D01*
X13891587Y18506669D01*
X13879753Y18515445D01*
X13864213Y18528198D01*
X13853314Y18538076D01*
X13839076Y18552314D01*
X13829198Y18563213D01*
X13816445Y18578753D01*
X13807669Y18590587D01*
X13796497Y18607305D01*
X13788931Y18619928D01*
X13779449Y18637668D01*
X13773151Y18650987D01*
X13765457Y18669560D01*
X13760503Y18683403D01*
X13760044Y18684917D01*
X13759839Y18685259D01*
X13759674Y18685720D01*
X13759582Y18685687D01*
X13735059Y18726607D01*
X13491955Y18969711D01*
X13458775Y18991690D01*
X13421244Y18999000D01*
X2239877Y18999000D01*
X2200873Y18991080D01*
X2168048Y18968575D01*
X2146600Y18935048D01*
X2139928Y18895812D01*
X2149087Y18857081D01*
X2188467Y18813227D01*
X2313608Y18738220D01*
X2342569Y18718869D01*
X2464754Y18628251D01*
X2491670Y18606161D01*
X2604369Y18504017D01*
X2629016Y18479370D01*
X2731161Y18366670D01*
X2753251Y18339754D01*
X2843869Y18217569D01*
X2863220Y18188608D01*
X2941419Y18058142D01*
X2957843Y18027415D01*
X3022871Y17889925D01*
X3036211Y17857720D01*
X3087447Y17714522D01*
X3097560Y17681184D01*
X3134521Y17533630D01*
X3141313Y17499482D01*
X3163634Y17349009D01*
X3167047Y17314345D01*
X3174512Y17162409D01*
X3174512Y17127591D01*
X3167047Y16975655D01*
X3163634Y16940991D01*
X3141313Y16790518D01*
X3134521Y16756370D01*
X3097560Y16608816D01*
X3087447Y16575478D01*
X3036211Y16432280D01*
X3022871Y16400075D01*
X2957843Y16262585D01*
X2941419Y16231858D01*
X2863220Y16101392D01*
X2843869Y16072431D01*
X2753248Y15950242D01*
X2731164Y15923335D01*
X2629014Y15810630D01*
X2604370Y15785986D01*
X2491665Y15683836D01*
X2464758Y15661752D01*
X2342569Y15571131D01*
X2313608Y15551780D01*
X2183142Y15473581D01*
X2152415Y15457157D01*
X2014925Y15392129D01*
X1982720Y15378789D01*
X1839522Y15327553D01*
X1806184Y15317440D01*
X1658630Y15280479D01*
X1624482Y15273687D01*
X1474009Y15251366D01*
X1439345Y15247953D01*
X1287409Y15240488D01*
X1252591Y15240488D01*
X1100655Y15247953D01*
X1065991Y15251366D01*
X915518Y15273687D01*
X881370Y15280479D01*
X733816Y15317440D01*
X700478Y15327553D01*
X557280Y15378789D01*
X525075Y15392129D01*
X387585Y15457157D01*
X356858Y15473581D01*
X226392Y15551780D01*
X197431Y15571131D01*
X75242Y15661752D01*
X48335Y15683836D01*
X-64370Y15785986D01*
X-89014Y15810630D01*
X-191164Y15923335D01*
X-213248Y15950242D01*
X-303869Y16072431D01*
X-323220Y16101392D01*
X-401419Y16231858D01*
X-417843Y16262585D01*
X-482871Y16400075D01*
X-496211Y16432280D01*
X-547447Y16575478D01*
X-557560Y16608816D01*
X-594521Y16756370D01*
X-601313Y16790518D01*
X-623634Y16940991D01*
X-627047Y16975655D01*
X-634512Y17127591D01*
X-634512Y17162409D01*
X-627047Y17314345D01*
X-623634Y17349009D01*
X-601313Y17499482D01*
X-594521Y17533630D01*
X-557560Y17681184D01*
X-547447Y17714522D01*
X-496211Y17857720D01*
X-482871Y17889925D01*
X-417843Y18027415D01*
X-401419Y18058142D01*
X-323220Y18188608D01*
X-303869Y18217569D01*
X-213248Y18339758D01*
X-191164Y18366665D01*
X-89014Y18479370D01*
X-64370Y18504014D01*
X48335Y18606164D01*
X75242Y18628248D01*
X197431Y18718869D01*
X226392Y18738220D01*
X351533Y18813227D01*
X380916Y18840072D01*
X397501Y18876251D01*
X398662Y18916034D01*
X384213Y18953118D01*
X356445Y18981630D01*
X300123Y18999000D01*
X-124535Y18999000D01*
X-144634Y18999988D01*
X-166575Y19002148D01*
X-205953Y19009981D01*
X-224694Y19015666D01*
X-261804Y19031037D01*
X-279071Y19040266D01*
X-312457Y19062574D01*
X-327744Y19075119D01*
X-342140Y19089406D01*
X-346805Y19092471D01*
X-789289Y19534955D01*
X-822469Y19556934D01*
X-861594Y19564231D01*
X-900466Y19555691D01*
X-932929Y19532665D01*
X-953839Y19498801D01*
X-960000Y19464244D01*
X-960000Y410000D01*
X-952080Y370996D01*
X-929575Y338171D01*
X-896048Y316723D01*
X-860000Y310000D01*
X65740000Y310000D01*
D02*
G37*
%LPC*%
G36*
X8265074Y23140308D02*
X8244926Y23140308D01*
X8230246Y23141030D01*
X8210219Y23143002D01*
X8195694Y23145156D01*
X8175929Y23149087D01*
X8161655Y23152663D01*
X8142404Y23158503D01*
X8128560Y23163457D01*
X8109987Y23171151D01*
X8096668Y23177449D01*
X8078928Y23186931D01*
X8066305Y23194497D01*
X8049587Y23205669D01*
X8037753Y23214445D01*
X8022213Y23227198D01*
X8011314Y23237076D01*
X7997076Y23251314D01*
X7987198Y23262213D01*
X7974445Y23277753D01*
X7965669Y23289587D01*
X7954497Y23306305D01*
X7946931Y23318928D01*
X7937449Y23336668D01*
X7931151Y23349987D01*
X7923457Y23368560D01*
X7918503Y23382404D01*
X7912663Y23401655D01*
X7909087Y23415929D01*
X7905156Y23435694D01*
X7903002Y23450219D01*
X7901030Y23470246D01*
X7900308Y23484926D01*
X7900308Y23505074D01*
X7901030Y23519754D01*
X7903002Y23539781D01*
X7905156Y23554306D01*
X7909087Y23574071D01*
X7912663Y23588345D01*
X7918503Y23607596D01*
X7923457Y23621440D01*
X7931151Y23640013D01*
X7937449Y23653332D01*
X7946931Y23671072D01*
X7954497Y23683695D01*
X7965669Y23700413D01*
X7974445Y23712247D01*
X7987198Y23727787D01*
X7998731Y23740512D01*
X7998165Y23741025D01*
X8017690Y23770501D01*
X8025000Y23808032D01*
X8025000Y26121925D01*
X8025988Y26142044D01*
X8026705Y26149315D01*
X8034543Y26188721D01*
X8035955Y26193378D01*
X8051329Y26230495D01*
X8053620Y26234781D01*
X8075935Y26268182D01*
X8079150Y26272100D01*
X8093439Y26286497D01*
X8096504Y26291162D01*
X11430243Y29624901D01*
X11445142Y29638405D01*
X11450808Y29643055D01*
X11484209Y29665372D01*
X11488499Y29667665D01*
X11525616Y29683039D01*
X11530274Y29684452D01*
X11569669Y29692287D01*
X11576991Y29693008D01*
X11597049Y29693994D01*
X12318981Y29693999D01*
X12319021Y29694000D01*
X19692638Y29694000D01*
X19731642Y29701920D01*
X19764467Y29724425D01*
X19785915Y29757952D01*
X19792587Y29797188D01*
X19783428Y29835919D01*
X19759887Y29868010D01*
X19726327Y29888155D01*
X19588129Y29937603D01*
X19555942Y29950935D01*
X19414006Y30018066D01*
X19383296Y30034481D01*
X19248614Y30115206D01*
X19219654Y30134557D01*
X19093528Y30228098D01*
X19066609Y30250189D01*
X18950264Y30355638D01*
X18925639Y30380264D01*
X18820188Y30496612D01*
X18798098Y30523528D01*
X18704564Y30649644D01*
X18685200Y30678624D01*
X18604481Y30813296D01*
X18588066Y30844006D01*
X18520935Y30985942D01*
X18507595Y31018147D01*
X18454704Y31165969D01*
X18444594Y31199297D01*
X18406444Y31351604D01*
X18399647Y31385775D01*
X18376606Y31541105D01*
X18373194Y31575741D01*
X18365488Y31732591D01*
X18365488Y31767409D01*
X18373194Y31924246D01*
X18376607Y31958910D01*
X18399648Y32114237D01*
X18406440Y32148385D01*
X18444593Y32300698D01*
X18454706Y32334036D01*
X18507595Y32481853D01*
X18520935Y32514058D01*
X18588061Y32655985D01*
X18604481Y32686704D01*
X18685213Y32821395D01*
X18704557Y32850345D01*
X18798090Y32976461D01*
X18820196Y33003397D01*
X18925628Y33119724D01*
X18950276Y33144372D01*
X19066603Y33249804D01*
X19093539Y33271910D01*
X19219655Y33365443D01*
X19248605Y33384787D01*
X19383296Y33465519D01*
X19414015Y33481939D01*
X19555942Y33549065D01*
X19588147Y33562405D01*
X19735964Y33615294D01*
X19769302Y33625407D01*
X19921615Y33663560D01*
X19955763Y33670352D01*
X20111090Y33693393D01*
X20145754Y33696806D01*
X20302591Y33704512D01*
X20337409Y33704512D01*
X20494246Y33696806D01*
X20528910Y33693393D01*
X20684237Y33670352D01*
X20718385Y33663560D01*
X20870698Y33625407D01*
X20904036Y33615294D01*
X21051853Y33562405D01*
X21084058Y33549065D01*
X21225985Y33481939D01*
X21256704Y33465519D01*
X21391395Y33384787D01*
X21420345Y33365443D01*
X21546461Y33271910D01*
X21573397Y33249804D01*
X21689724Y33144372D01*
X21714372Y33119724D01*
X21819804Y33003397D01*
X21841910Y32976461D01*
X21935443Y32850345D01*
X21954787Y32821395D01*
X22035519Y32686704D01*
X22051939Y32655985D01*
X22119065Y32514058D01*
X22132405Y32481853D01*
X22185294Y32334036D01*
X22195407Y32300698D01*
X22233560Y32148385D01*
X22240352Y32114237D01*
X22263393Y31958910D01*
X22266806Y31924246D01*
X22274512Y31767409D01*
X22274512Y31732591D01*
X22266806Y31575741D01*
X22263394Y31541105D01*
X22240353Y31385775D01*
X22233556Y31351604D01*
X22195410Y31199314D01*
X22185290Y31165953D01*
X22132398Y31018131D01*
X22119071Y30985956D01*
X22051934Y30844006D01*
X22035519Y30813296D01*
X21954800Y30678624D01*
X21935436Y30649644D01*
X21841902Y30523528D01*
X21819812Y30496612D01*
X21714361Y30380264D01*
X21689736Y30355638D01*
X21573403Y30250199D01*
X21546461Y30228089D01*
X21420346Y30134557D01*
X21391385Y30115206D01*
X21256711Y30034485D01*
X21225985Y30018061D01*
X21084058Y29950935D01*
X21051871Y29937603D01*
X20913673Y29888155D01*
X20879618Y29867558D01*
X20856293Y29835309D01*
X20847394Y29796518D01*
X20854329Y29757327D01*
X20876001Y29723946D01*
X20908977Y29701661D01*
X20947362Y29694000D01*
X27312638Y29694000D01*
X27351642Y29701920D01*
X27384467Y29724425D01*
X27405915Y29757952D01*
X27412587Y29797188D01*
X27403428Y29835919D01*
X27379887Y29868010D01*
X27346327Y29888155D01*
X27208129Y29937603D01*
X27175942Y29950935D01*
X27034006Y30018066D01*
X27003296Y30034481D01*
X26868614Y30115206D01*
X26839654Y30134557D01*
X26713528Y30228098D01*
X26686609Y30250189D01*
X26570264Y30355638D01*
X26545639Y30380264D01*
X26440188Y30496612D01*
X26418098Y30523528D01*
X26324564Y30649644D01*
X26305200Y30678624D01*
X26224481Y30813296D01*
X26208066Y30844006D01*
X26140935Y30985942D01*
X26127595Y31018147D01*
X26074704Y31165969D01*
X26064594Y31199297D01*
X26026444Y31351604D01*
X26019647Y31385775D01*
X25996606Y31541105D01*
X25993194Y31575741D01*
X25985488Y31732591D01*
X25985488Y31767409D01*
X25993194Y31924246D01*
X25996607Y31958910D01*
X26019648Y32114237D01*
X26026440Y32148385D01*
X26064593Y32300698D01*
X26074706Y32334036D01*
X26127595Y32481853D01*
X26140935Y32514058D01*
X26208061Y32655985D01*
X26224481Y32686704D01*
X26305213Y32821395D01*
X26324557Y32850345D01*
X26418090Y32976461D01*
X26440196Y33003397D01*
X26545628Y33119724D01*
X26570276Y33144372D01*
X26686603Y33249804D01*
X26713539Y33271910D01*
X26839655Y33365443D01*
X26868605Y33384787D01*
X27003296Y33465519D01*
X27034015Y33481939D01*
X27175942Y33549065D01*
X27208147Y33562405D01*
X27355964Y33615294D01*
X27389302Y33625407D01*
X27541615Y33663560D01*
X27575763Y33670352D01*
X27731090Y33693393D01*
X27765754Y33696806D01*
X27922591Y33704512D01*
X27957409Y33704512D01*
X28114246Y33696806D01*
X28148910Y33693393D01*
X28304237Y33670352D01*
X28338385Y33663560D01*
X28490698Y33625407D01*
X28524036Y33615294D01*
X28671853Y33562405D01*
X28704058Y33549065D01*
X28845985Y33481939D01*
X28876704Y33465519D01*
X29011395Y33384787D01*
X29040345Y33365443D01*
X29166461Y33271910D01*
X29193397Y33249804D01*
X29309724Y33144372D01*
X29334372Y33119724D01*
X29439804Y33003397D01*
X29461910Y32976461D01*
X29555443Y32850345D01*
X29574787Y32821395D01*
X29655519Y32686704D01*
X29671939Y32655985D01*
X29739065Y32514058D01*
X29752405Y32481853D01*
X29805294Y32334036D01*
X29815407Y32300698D01*
X29853560Y32148385D01*
X29860352Y32114237D01*
X29883393Y31958910D01*
X29886806Y31924246D01*
X29894512Y31767409D01*
X29894512Y31732591D01*
X29886806Y31575741D01*
X29883394Y31541105D01*
X29860353Y31385775D01*
X29853556Y31351604D01*
X29815410Y31199314D01*
X29805290Y31165953D01*
X29752398Y31018131D01*
X29739071Y30985956D01*
X29671934Y30844006D01*
X29655519Y30813296D01*
X29574800Y30678624D01*
X29555436Y30649644D01*
X29461902Y30523528D01*
X29439812Y30496612D01*
X29334361Y30380264D01*
X29309736Y30355638D01*
X29193403Y30250199D01*
X29166461Y30228089D01*
X29040346Y30134557D01*
X29011385Y30115206D01*
X28876711Y30034485D01*
X28845985Y30018061D01*
X28704058Y29950935D01*
X28671871Y29937603D01*
X28533673Y29888155D01*
X28499618Y29867558D01*
X28476293Y29835309D01*
X28467394Y29796518D01*
X28474329Y29757327D01*
X28496001Y29723946D01*
X28528977Y29701661D01*
X28567362Y29694000D01*
X36202638Y29694000D01*
X36241642Y29701920D01*
X36274467Y29724425D01*
X36295915Y29757952D01*
X36302587Y29797188D01*
X36293428Y29835919D01*
X36269887Y29868010D01*
X36236327Y29888155D01*
X36098129Y29937603D01*
X36065942Y29950935D01*
X35924006Y30018066D01*
X35893296Y30034481D01*
X35758614Y30115206D01*
X35729654Y30134557D01*
X35603528Y30228098D01*
X35576609Y30250189D01*
X35460264Y30355638D01*
X35435639Y30380264D01*
X35330188Y30496612D01*
X35308098Y30523528D01*
X35214564Y30649644D01*
X35195200Y30678624D01*
X35114481Y30813296D01*
X35098066Y30844006D01*
X35030935Y30985942D01*
X35017595Y31018147D01*
X34964704Y31165969D01*
X34954594Y31199297D01*
X34916444Y31351604D01*
X34909647Y31385775D01*
X34886606Y31541105D01*
X34883194Y31575741D01*
X34875488Y31732591D01*
X34875488Y31767409D01*
X34883194Y31924246D01*
X34886607Y31958910D01*
X34909648Y32114237D01*
X34916440Y32148385D01*
X34954593Y32300698D01*
X34964706Y32334036D01*
X35017595Y32481853D01*
X35030935Y32514058D01*
X35098061Y32655985D01*
X35114481Y32686704D01*
X35195213Y32821395D01*
X35214557Y32850345D01*
X35308090Y32976461D01*
X35330196Y33003397D01*
X35435628Y33119724D01*
X35460276Y33144372D01*
X35576603Y33249804D01*
X35603539Y33271910D01*
X35729655Y33365443D01*
X35758605Y33384787D01*
X35893296Y33465519D01*
X35924015Y33481939D01*
X36065942Y33549065D01*
X36098147Y33562405D01*
X36245964Y33615294D01*
X36279302Y33625407D01*
X36431615Y33663560D01*
X36465763Y33670352D01*
X36621090Y33693393D01*
X36655754Y33696806D01*
X36812591Y33704512D01*
X36847409Y33704512D01*
X37004246Y33696806D01*
X37038910Y33693393D01*
X37194237Y33670352D01*
X37228385Y33663560D01*
X37380698Y33625407D01*
X37414036Y33615294D01*
X37561853Y33562405D01*
X37594058Y33549065D01*
X37735985Y33481939D01*
X37766704Y33465519D01*
X37901395Y33384787D01*
X37930345Y33365443D01*
X38056461Y33271910D01*
X38083397Y33249804D01*
X38199724Y33144372D01*
X38224372Y33119724D01*
X38329804Y33003397D01*
X38351910Y32976461D01*
X38445443Y32850345D01*
X38464787Y32821395D01*
X38545519Y32686704D01*
X38561939Y32655985D01*
X38629065Y32514058D01*
X38642405Y32481853D01*
X38695294Y32334036D01*
X38705407Y32300698D01*
X38743560Y32148385D01*
X38750352Y32114237D01*
X38773393Y31958910D01*
X38776806Y31924246D01*
X38784512Y31767409D01*
X38784512Y31732591D01*
X38776806Y31575741D01*
X38773394Y31541105D01*
X38750353Y31385775D01*
X38743556Y31351604D01*
X38705410Y31199314D01*
X38695290Y31165953D01*
X38642398Y31018131D01*
X38629071Y30985956D01*
X38561934Y30844006D01*
X38545519Y30813296D01*
X38464800Y30678624D01*
X38445436Y30649644D01*
X38351902Y30523528D01*
X38329812Y30496612D01*
X38224361Y30380264D01*
X38199736Y30355638D01*
X38083403Y30250199D01*
X38056461Y30228089D01*
X37930346Y30134557D01*
X37901385Y30115206D01*
X37766711Y30034485D01*
X37735985Y30018061D01*
X37594058Y29950935D01*
X37561871Y29937603D01*
X37423673Y29888155D01*
X37389618Y29867558D01*
X37366293Y29835309D01*
X37357394Y29796518D01*
X37364329Y29757327D01*
X37386001Y29723946D01*
X37418977Y29701661D01*
X37457362Y29694000D01*
X43822638Y29694000D01*
X43861642Y29701920D01*
X43894467Y29724425D01*
X43915915Y29757952D01*
X43922587Y29797188D01*
X43913428Y29835919D01*
X43889887Y29868010D01*
X43856327Y29888155D01*
X43718129Y29937603D01*
X43685942Y29950935D01*
X43544006Y30018066D01*
X43513296Y30034481D01*
X43378614Y30115206D01*
X43349654Y30134557D01*
X43223528Y30228098D01*
X43196609Y30250189D01*
X43080264Y30355638D01*
X43055639Y30380264D01*
X42950188Y30496612D01*
X42928098Y30523528D01*
X42834564Y30649644D01*
X42815200Y30678624D01*
X42734481Y30813296D01*
X42718066Y30844006D01*
X42650935Y30985942D01*
X42637595Y31018147D01*
X42584704Y31165969D01*
X42574594Y31199297D01*
X42536444Y31351604D01*
X42529647Y31385775D01*
X42506606Y31541105D01*
X42503194Y31575741D01*
X42495488Y31732591D01*
X42495488Y31767409D01*
X42503194Y31924246D01*
X42506607Y31958910D01*
X42529648Y32114237D01*
X42536440Y32148385D01*
X42574593Y32300698D01*
X42584706Y32334036D01*
X42637595Y32481853D01*
X42650935Y32514058D01*
X42718061Y32655985D01*
X42734481Y32686704D01*
X42815213Y32821395D01*
X42834557Y32850345D01*
X42928090Y32976461D01*
X42950196Y33003397D01*
X43055628Y33119724D01*
X43080276Y33144372D01*
X43196603Y33249804D01*
X43223539Y33271910D01*
X43349655Y33365443D01*
X43378605Y33384787D01*
X43513296Y33465519D01*
X43544015Y33481939D01*
X43685942Y33549065D01*
X43718147Y33562405D01*
X43865964Y33615294D01*
X43899302Y33625407D01*
X44051615Y33663560D01*
X44085763Y33670352D01*
X44241090Y33693393D01*
X44275754Y33696806D01*
X44432591Y33704512D01*
X44467409Y33704512D01*
X44624246Y33696806D01*
X44658910Y33693393D01*
X44814237Y33670352D01*
X44848385Y33663560D01*
X45000698Y33625407D01*
X45034036Y33615294D01*
X45181853Y33562405D01*
X45214058Y33549065D01*
X45355985Y33481939D01*
X45386704Y33465519D01*
X45521395Y33384787D01*
X45550345Y33365443D01*
X45676461Y33271910D01*
X45703397Y33249804D01*
X45819724Y33144372D01*
X45844372Y33119724D01*
X45949804Y33003397D01*
X45971910Y32976461D01*
X46065443Y32850345D01*
X46084787Y32821395D01*
X46165519Y32686704D01*
X46181939Y32655985D01*
X46249065Y32514058D01*
X46262405Y32481853D01*
X46315294Y32334036D01*
X46325407Y32300698D01*
X46363560Y32148385D01*
X46370352Y32114237D01*
X46393393Y31958910D01*
X46396806Y31924246D01*
X46404512Y31767409D01*
X46404512Y31732591D01*
X46396806Y31575741D01*
X46393394Y31541105D01*
X46370353Y31385775D01*
X46363556Y31351604D01*
X46325410Y31199314D01*
X46315290Y31165953D01*
X46262398Y31018131D01*
X46249071Y30985956D01*
X46181934Y30844006D01*
X46165519Y30813296D01*
X46084800Y30678624D01*
X46065436Y30649644D01*
X45971902Y30523528D01*
X45949812Y30496612D01*
X45844361Y30380264D01*
X45819736Y30355638D01*
X45703403Y30250199D01*
X45676461Y30228089D01*
X45550346Y30134557D01*
X45521385Y30115206D01*
X45386711Y30034485D01*
X45355985Y30018061D01*
X45214058Y29950935D01*
X45181871Y29937603D01*
X45043673Y29888155D01*
X45009618Y29867558D01*
X44986293Y29835309D01*
X44977394Y29796518D01*
X44984329Y29757327D01*
X45006001Y29723946D01*
X45038977Y29701661D01*
X45077362Y29694000D01*
X55623548Y29694000D01*
X55643638Y29693012D01*
X55650948Y29692292D01*
X55690326Y29684458D01*
X55694988Y29683044D01*
X55732105Y29667670D01*
X55736391Y29665379D01*
X55769792Y29643064D01*
X55775462Y29638411D01*
X55790363Y29624905D01*
X57091287Y28323981D01*
X57124467Y28302002D01*
X57157649Y28295539D01*
X57157613Y28294813D01*
X57174754Y28293970D01*
X57194781Y28291998D01*
X57209306Y28289844D01*
X57229071Y28285913D01*
X57243345Y28282337D01*
X57262596Y28276497D01*
X57276440Y28271543D01*
X57295013Y28263849D01*
X57308332Y28257551D01*
X57326072Y28248069D01*
X57338695Y28240503D01*
X57355413Y28229331D01*
X57367247Y28220555D01*
X57382787Y28207802D01*
X57393686Y28197924D01*
X57407924Y28183686D01*
X57417802Y28172787D01*
X57430555Y28157247D01*
X57439331Y28145413D01*
X57450503Y28128695D01*
X57458069Y28116072D01*
X57467551Y28098332D01*
X57473849Y28085013D01*
X57481543Y28066440D01*
X57486497Y28052596D01*
X57492337Y28033345D01*
X57495913Y28019071D01*
X57499844Y27999306D01*
X57501998Y27984781D01*
X57503970Y27964754D01*
X57504692Y27950074D01*
X57504692Y27929926D01*
X57503970Y27915246D01*
X57501998Y27895219D01*
X57499844Y27880694D01*
X57495913Y27860929D01*
X57492337Y27846655D01*
X57486497Y27827404D01*
X57481543Y27813560D01*
X57473849Y27794987D01*
X57467551Y27781668D01*
X57458069Y27763928D01*
X57450503Y27751305D01*
X57439331Y27734587D01*
X57430555Y27722753D01*
X57417802Y27707213D01*
X57407924Y27696314D01*
X57404821Y27693211D01*
X57382842Y27660031D01*
X57375545Y27620906D01*
X57384085Y27582034D01*
X57404821Y27551789D01*
X57407924Y27548686D01*
X57417802Y27537787D01*
X57430555Y27522247D01*
X57439331Y27510413D01*
X57450503Y27493695D01*
X57458069Y27481072D01*
X57467551Y27463332D01*
X57473849Y27450013D01*
X57481543Y27431440D01*
X57486497Y27417596D01*
X57492337Y27398345D01*
X57495913Y27384071D01*
X57499844Y27364306D01*
X57501998Y27349781D01*
X57503970Y27329754D01*
X57504692Y27315074D01*
X57504692Y27294926D01*
X57503970Y27280246D01*
X57501998Y27260219D01*
X57499844Y27245694D01*
X57495913Y27225929D01*
X57492337Y27211655D01*
X57486497Y27192404D01*
X57481543Y27178560D01*
X57473849Y27159987D01*
X57467551Y27146668D01*
X57458069Y27128928D01*
X57450503Y27116305D01*
X57439331Y27099587D01*
X57430555Y27087753D01*
X57417802Y27072213D01*
X57407924Y27061314D01*
X57404821Y27058211D01*
X57382842Y27025031D01*
X57375545Y26985906D01*
X57384085Y26947034D01*
X57404821Y26916789D01*
X57407924Y26913686D01*
X57417802Y26902787D01*
X57430555Y26887247D01*
X57439331Y26875413D01*
X57450503Y26858695D01*
X57458069Y26846072D01*
X57467551Y26828332D01*
X57473849Y26815013D01*
X57481543Y26796440D01*
X57486497Y26782596D01*
X57492337Y26763345D01*
X57495913Y26749071D01*
X57499844Y26729306D01*
X57501998Y26714781D01*
X57503970Y26694754D01*
X57504692Y26680074D01*
X57504692Y26659926D01*
X57503970Y26645246D01*
X57501998Y26625219D01*
X57499844Y26610694D01*
X57495913Y26590929D01*
X57492337Y26576655D01*
X57486497Y26557404D01*
X57481543Y26543560D01*
X57473849Y26524987D01*
X57467551Y26511668D01*
X57458069Y26493928D01*
X57450503Y26481305D01*
X57439331Y26464587D01*
X57430555Y26452753D01*
X57417802Y26437213D01*
X57407924Y26426314D01*
X57393686Y26412076D01*
X57382787Y26402198D01*
X57367247Y26389445D01*
X57355413Y26380669D01*
X57338695Y26369497D01*
X57326072Y26361931D01*
X57308332Y26352449D01*
X57295013Y26346151D01*
X57276440Y26338457D01*
X57262596Y26333503D01*
X57243345Y26327663D01*
X57229071Y26324087D01*
X57209306Y26320156D01*
X57194781Y26318002D01*
X57174754Y26316030D01*
X57160074Y26315308D01*
X57139926Y26315308D01*
X57125246Y26316030D01*
X57105219Y26318002D01*
X57090694Y26320156D01*
X57070929Y26324087D01*
X57056655Y26327663D01*
X57037404Y26333503D01*
X57023560Y26338457D01*
X57004987Y26346151D01*
X56991668Y26352449D01*
X56973928Y26361931D01*
X56961305Y26369497D01*
X56944587Y26380669D01*
X56932753Y26389445D01*
X56917213Y26402198D01*
X56906314Y26412076D01*
X56892076Y26426314D01*
X56882198Y26437213D01*
X56869445Y26452753D01*
X56860669Y26464587D01*
X56849497Y26481305D01*
X56841931Y26493928D01*
X56832449Y26511668D01*
X56826151Y26524987D01*
X56818457Y26543560D01*
X56813503Y26557404D01*
X56807663Y26576655D01*
X56804087Y26590929D01*
X56800156Y26610694D01*
X56798002Y26625219D01*
X56796030Y26645246D01*
X56795187Y26662387D01*
X56794425Y26662350D01*
X56787388Y26697006D01*
X56766019Y26728713D01*
X56525690Y26969042D01*
X56492510Y26991021D01*
X56453385Y26998318D01*
X56414513Y26989778D01*
X56382050Y26966752D01*
X56361140Y26932888D01*
X56354979Y26898331D01*
X56354979Y26561711D01*
X56362899Y26522707D01*
X56384268Y26491000D01*
X57091287Y25783981D01*
X57124467Y25762002D01*
X57157649Y25755539D01*
X57157613Y25754813D01*
X57174754Y25753970D01*
X57194781Y25751998D01*
X57209306Y25749844D01*
X57229071Y25745913D01*
X57243345Y25742337D01*
X57262596Y25736497D01*
X57276440Y25731543D01*
X57295013Y25723849D01*
X57308332Y25717551D01*
X57326072Y25708069D01*
X57338695Y25700503D01*
X57355413Y25689331D01*
X57367247Y25680555D01*
X57382787Y25667802D01*
X57393686Y25657924D01*
X57407924Y25643686D01*
X57417802Y25632787D01*
X57430555Y25617247D01*
X57439331Y25605413D01*
X57450503Y25588695D01*
X57458069Y25576072D01*
X57467551Y25558332D01*
X57473849Y25545013D01*
X57481543Y25526440D01*
X57486497Y25512596D01*
X57492337Y25493345D01*
X57495913Y25479071D01*
X57499844Y25459306D01*
X57501998Y25444781D01*
X57503970Y25424754D01*
X57504692Y25410074D01*
X57504692Y25389926D01*
X57503970Y25375246D01*
X57501998Y25355219D01*
X57499844Y25340694D01*
X57495913Y25320929D01*
X57492337Y25306655D01*
X57486497Y25287404D01*
X57481543Y25273560D01*
X57473849Y25254987D01*
X57467551Y25241668D01*
X57458069Y25223928D01*
X57450503Y25211305D01*
X57439331Y25194587D01*
X57430555Y25182753D01*
X57417802Y25167213D01*
X57407924Y25156314D01*
X57404821Y25153211D01*
X57382842Y25120031D01*
X57375545Y25080906D01*
X57384085Y25042034D01*
X57404821Y25011789D01*
X57407924Y25008686D01*
X57417802Y24997787D01*
X57430555Y24982247D01*
X57439331Y24970413D01*
X57450503Y24953695D01*
X57458069Y24941072D01*
X57467551Y24923332D01*
X57473849Y24910013D01*
X57481543Y24891440D01*
X57486497Y24877596D01*
X57492337Y24858345D01*
X57495913Y24844071D01*
X57499844Y24824306D01*
X57501998Y24809781D01*
X57503970Y24789754D01*
X57504692Y24775074D01*
X57504692Y24754926D01*
X57503970Y24740246D01*
X57501998Y24720219D01*
X57499844Y24705694D01*
X57495913Y24685929D01*
X57492337Y24671655D01*
X57486497Y24652404D01*
X57481543Y24638560D01*
X57473849Y24619987D01*
X57467551Y24606668D01*
X57458069Y24588928D01*
X57450503Y24576305D01*
X57439331Y24559587D01*
X57430555Y24547753D01*
X57417802Y24532213D01*
X57407924Y24521314D01*
X57404821Y24518211D01*
X57382842Y24485031D01*
X57375545Y24445906D01*
X57384085Y24407034D01*
X57404821Y24376789D01*
X57407924Y24373686D01*
X57417802Y24362787D01*
X57430555Y24347247D01*
X57439331Y24335413D01*
X57450503Y24318695D01*
X57458069Y24306072D01*
X57467551Y24288332D01*
X57473849Y24275013D01*
X57481543Y24256440D01*
X57486497Y24242596D01*
X57492337Y24223345D01*
X57495913Y24209071D01*
X57499844Y24189306D01*
X57501998Y24174781D01*
X57503970Y24154754D01*
X57504692Y24140074D01*
X57504692Y24119926D01*
X57503970Y24105246D01*
X57501998Y24085219D01*
X57499844Y24070694D01*
X57495913Y24050929D01*
X57492337Y24036655D01*
X57486497Y24017404D01*
X57481543Y24003560D01*
X57473849Y23984987D01*
X57467551Y23971668D01*
X57458069Y23953928D01*
X57450503Y23941305D01*
X57439331Y23924587D01*
X57430555Y23912753D01*
X57417802Y23897213D01*
X57407924Y23886314D01*
X57393686Y23872076D01*
X57382787Y23862198D01*
X57367247Y23849445D01*
X57355413Y23840669D01*
X57338695Y23829497D01*
X57326072Y23821931D01*
X57308332Y23812449D01*
X57295013Y23806151D01*
X57276440Y23798457D01*
X57262596Y23793503D01*
X57243345Y23787663D01*
X57229071Y23784087D01*
X57209306Y23780156D01*
X57194781Y23778002D01*
X57174754Y23776030D01*
X57160074Y23775308D01*
X57139926Y23775308D01*
X57125246Y23776030D01*
X57105219Y23778002D01*
X57090694Y23780156D01*
X57070929Y23784087D01*
X57056655Y23787663D01*
X57037404Y23793503D01*
X57023560Y23798457D01*
X57004987Y23806151D01*
X56991668Y23812449D01*
X56973928Y23821931D01*
X56961305Y23829497D01*
X56944587Y23840669D01*
X56932753Y23849445D01*
X56917213Y23862198D01*
X56906314Y23872076D01*
X56892076Y23886314D01*
X56882198Y23897213D01*
X56869445Y23912753D01*
X56860669Y23924587D01*
X56849497Y23941305D01*
X56841931Y23953928D01*
X56832449Y23971668D01*
X56826151Y23984987D01*
X56818457Y24003560D01*
X56813503Y24017404D01*
X56807663Y24036655D01*
X56804087Y24050929D01*
X56800156Y24070694D01*
X56798002Y24085219D01*
X56796030Y24105246D01*
X56795187Y24122387D01*
X56794425Y24122350D01*
X56787388Y24157006D01*
X56766019Y24188713D01*
X55367012Y25587720D01*
X55363165Y25593327D01*
X55348962Y25607510D01*
X55345894Y25611248D01*
X55323579Y25644649D01*
X55321288Y25648935D01*
X55305914Y25686052D01*
X55304501Y25690710D01*
X55296666Y25730105D01*
X55295947Y25737407D01*
X55294959Y25757507D01*
X55294959Y27269351D01*
X55287039Y27308355D01*
X55265670Y27340062D01*
X54901071Y27704661D01*
X54867891Y27726640D01*
X54830360Y27733950D01*
X12352640Y27733950D01*
X12313636Y27726030D01*
X12281929Y27704661D01*
X11054289Y26477021D01*
X11032310Y26443841D01*
X11025000Y26406310D01*
X11025000Y24824032D01*
X11032920Y24785028D01*
X11051809Y24757001D01*
X11051269Y24756512D01*
X11062802Y24743787D01*
X11075555Y24728247D01*
X11084331Y24716413D01*
X11095503Y24699695D01*
X11103069Y24687072D01*
X11112551Y24669332D01*
X11118849Y24656013D01*
X11126543Y24637440D01*
X11131497Y24623596D01*
X11137337Y24604345D01*
X11140913Y24590071D01*
X11144844Y24570306D01*
X11146998Y24555781D01*
X11148970Y24535754D01*
X11149692Y24521074D01*
X11149692Y24500926D01*
X11148970Y24486246D01*
X11146998Y24466219D01*
X11144844Y24451694D01*
X11140913Y24431929D01*
X11137337Y24417655D01*
X11131497Y24398404D01*
X11126543Y24384560D01*
X11118849Y24365987D01*
X11112551Y24352668D01*
X11103069Y24334928D01*
X11095503Y24322305D01*
X11084331Y24305587D01*
X11075555Y24293753D01*
X11062802Y24278213D01*
X11052924Y24267314D01*
X11038686Y24253076D01*
X11027787Y24243198D01*
X11012247Y24230445D01*
X11000413Y24221669D01*
X10983695Y24210497D01*
X10971072Y24202931D01*
X10953332Y24193449D01*
X10940013Y24187151D01*
X10921440Y24179457D01*
X10907596Y24174503D01*
X10888345Y24168663D01*
X10874071Y24165087D01*
X10854306Y24161156D01*
X10839781Y24159002D01*
X10819754Y24157030D01*
X10805074Y24156308D01*
X10784926Y24156308D01*
X10770246Y24157030D01*
X10750219Y24159002D01*
X10735694Y24161156D01*
X10715929Y24165087D01*
X10701655Y24168663D01*
X10682404Y24174503D01*
X10668560Y24179457D01*
X10649987Y24187151D01*
X10636668Y24193449D01*
X10618928Y24202931D01*
X10606305Y24210497D01*
X10589587Y24221669D01*
X10577753Y24230445D01*
X10562213Y24243198D01*
X10551314Y24253076D01*
X10537076Y24267314D01*
X10527198Y24278213D01*
X10514445Y24293753D01*
X10505669Y24305587D01*
X10494497Y24322305D01*
X10486931Y24334928D01*
X10477449Y24352668D01*
X10471151Y24365987D01*
X10463457Y24384560D01*
X10458503Y24398404D01*
X10452663Y24417655D01*
X10449087Y24431929D01*
X10445156Y24451694D01*
X10443002Y24466219D01*
X10441030Y24486246D01*
X10440308Y24500926D01*
X10440308Y24521074D01*
X10441030Y24535754D01*
X10443002Y24555781D01*
X10445156Y24570306D01*
X10449087Y24590071D01*
X10452663Y24604345D01*
X10458503Y24623596D01*
X10463457Y24637440D01*
X10471151Y24656013D01*
X10477449Y24669332D01*
X10486931Y24687072D01*
X10494497Y24699695D01*
X10505669Y24716413D01*
X10514445Y24728247D01*
X10527198Y24743787D01*
X10538731Y24756512D01*
X10538165Y24757025D01*
X10557690Y24786501D01*
X10565000Y24824032D01*
X10565000Y25489575D01*
X10557080Y25528579D01*
X10534575Y25561404D01*
X10501048Y25582852D01*
X10461812Y25589524D01*
X10426728Y25581961D01*
X10413450Y25576460D01*
X10399596Y25571503D01*
X10380345Y25565663D01*
X10366071Y25562087D01*
X10346306Y25558156D01*
X10331781Y25556002D01*
X10311754Y25554030D01*
X10297074Y25553308D01*
X10276926Y25553308D01*
X10262246Y25554030D01*
X10242219Y25556002D01*
X10227694Y25558156D01*
X10207929Y25562087D01*
X10193655Y25565663D01*
X10174404Y25571503D01*
X10160550Y25576460D01*
X10147272Y25581961D01*
X10108207Y25589572D01*
X10069268Y25581343D01*
X10036622Y25558578D01*
X10015441Y25524883D01*
X10009000Y25489575D01*
X10009000Y24824032D01*
X10016920Y24785028D01*
X10035809Y24757001D01*
X10035269Y24756512D01*
X10046802Y24743787D01*
X10059555Y24728247D01*
X10068331Y24716413D01*
X10079503Y24699695D01*
X10087069Y24687072D01*
X10096551Y24669332D01*
X10102849Y24656013D01*
X10110543Y24637440D01*
X10115497Y24623596D01*
X10121337Y24604345D01*
X10124913Y24590071D01*
X10128844Y24570306D01*
X10130998Y24555781D01*
X10132970Y24535754D01*
X10133692Y24521074D01*
X10133692Y24500926D01*
X10132970Y24486246D01*
X10130998Y24466219D01*
X10128844Y24451694D01*
X10124913Y24431929D01*
X10121337Y24417655D01*
X10115497Y24398404D01*
X10110543Y24384560D01*
X10102849Y24365987D01*
X10096551Y24352668D01*
X10087069Y24334928D01*
X10079503Y24322305D01*
X10068331Y24305587D01*
X10059555Y24293753D01*
X10046802Y24278213D01*
X10036924Y24267314D01*
X10022686Y24253076D01*
X10011787Y24243198D01*
X9996247Y24230445D01*
X9984413Y24221669D01*
X9967695Y24210497D01*
X9955072Y24202931D01*
X9937332Y24193449D01*
X9924013Y24187151D01*
X9905440Y24179457D01*
X9891596Y24174503D01*
X9872345Y24168663D01*
X9858071Y24165087D01*
X9838306Y24161156D01*
X9823781Y24159002D01*
X9803754Y24157030D01*
X9789074Y24156308D01*
X9768926Y24156308D01*
X9754246Y24157030D01*
X9734219Y24159002D01*
X9719694Y24161156D01*
X9699929Y24165087D01*
X9685655Y24168663D01*
X9666404Y24174503D01*
X9652560Y24179457D01*
X9633987Y24187151D01*
X9620668Y24193449D01*
X9602928Y24202931D01*
X9590305Y24210497D01*
X9573587Y24221669D01*
X9561753Y24230445D01*
X9546213Y24243198D01*
X9535314Y24253076D01*
X9521076Y24267314D01*
X9511198Y24278213D01*
X9498445Y24293753D01*
X9489669Y24305587D01*
X9478497Y24322305D01*
X9470931Y24334928D01*
X9461449Y24352668D01*
X9455151Y24365987D01*
X9447457Y24384560D01*
X9442503Y24398404D01*
X9436663Y24417655D01*
X9433087Y24431929D01*
X9429156Y24451694D01*
X9427002Y24466219D01*
X9425030Y24486246D01*
X9424308Y24500926D01*
X9424308Y24521074D01*
X9425030Y24535754D01*
X9427002Y24555781D01*
X9429156Y24570306D01*
X9433087Y24590071D01*
X9436663Y24604345D01*
X9442503Y24623596D01*
X9447457Y24637440D01*
X9455151Y24656013D01*
X9461449Y24669332D01*
X9470931Y24687072D01*
X9478497Y24699695D01*
X9489669Y24716413D01*
X9498445Y24728247D01*
X9511198Y24743787D01*
X9522731Y24756512D01*
X9522165Y24757025D01*
X9541690Y24786501D01*
X9549000Y24824032D01*
X9549000Y24981575D01*
X9541080Y25020579D01*
X9518575Y25053404D01*
X9485048Y25074852D01*
X9445812Y25081524D01*
X9410728Y25073961D01*
X9397450Y25068460D01*
X9383596Y25063503D01*
X9364345Y25057663D01*
X9350071Y25054087D01*
X9330306Y25050156D01*
X9315781Y25048002D01*
X9295754Y25046030D01*
X9281074Y25045308D01*
X9260926Y25045308D01*
X9246246Y25046030D01*
X9226219Y25048002D01*
X9211694Y25050156D01*
X9191929Y25054087D01*
X9177655Y25057663D01*
X9158404Y25063503D01*
X9144560Y25068457D01*
X9125987Y25076151D01*
X9112668Y25082449D01*
X9094928Y25091931D01*
X9082305Y25099497D01*
X9065587Y25110669D01*
X9053753Y25119445D01*
X9038213Y25132198D01*
X9027314Y25142076D01*
X9013076Y25156314D01*
X9003198Y25167213D01*
X8990445Y25182753D01*
X8981669Y25194587D01*
X8970497Y25211305D01*
X8962931Y25223928D01*
X8953449Y25241668D01*
X8947151Y25254987D01*
X8939457Y25273560D01*
X8934503Y25287404D01*
X8928663Y25306655D01*
X8925087Y25320929D01*
X8921156Y25340694D01*
X8919002Y25355219D01*
X8917030Y25375246D01*
X8916308Y25389926D01*
X8916308Y25410074D01*
X8917030Y25424752D01*
X8919210Y25446890D01*
X8915150Y25486482D01*
X8895970Y25521355D01*
X8864708Y25545985D01*
X8809890Y25556210D01*
X8787752Y25554030D01*
X8773074Y25553308D01*
X8752926Y25553308D01*
X8738246Y25554030D01*
X8718219Y25556002D01*
X8703694Y25558156D01*
X8683929Y25562087D01*
X8669655Y25565663D01*
X8650404Y25571503D01*
X8636550Y25576460D01*
X8623272Y25581961D01*
X8584207Y25589572D01*
X8545268Y25581343D01*
X8512622Y25558578D01*
X8491441Y25524883D01*
X8485000Y25489575D01*
X8485000Y23808032D01*
X8492920Y23769028D01*
X8511809Y23741001D01*
X8511269Y23740512D01*
X8522802Y23727787D01*
X8535555Y23712247D01*
X8544331Y23700413D01*
X8555503Y23683695D01*
X8563069Y23671072D01*
X8572551Y23653332D01*
X8578849Y23640013D01*
X8586543Y23621440D01*
X8591497Y23607596D01*
X8597337Y23588345D01*
X8600913Y23574071D01*
X8604844Y23554306D01*
X8606998Y23539781D01*
X8608970Y23519754D01*
X8609692Y23505074D01*
X8609692Y23484926D01*
X8608970Y23470246D01*
X8606998Y23450219D01*
X8604844Y23435694D01*
X8600913Y23415929D01*
X8597337Y23401655D01*
X8591497Y23382404D01*
X8586543Y23368560D01*
X8578849Y23349987D01*
X8572551Y23336668D01*
X8563069Y23318928D01*
X8555503Y23306305D01*
X8544331Y23289587D01*
X8535555Y23277753D01*
X8522802Y23262213D01*
X8512924Y23251314D01*
X8498686Y23237076D01*
X8487787Y23227198D01*
X8472247Y23214445D01*
X8460413Y23205669D01*
X8443695Y23194497D01*
X8431072Y23186931D01*
X8413332Y23177449D01*
X8400013Y23171151D01*
X8381440Y23163457D01*
X8367596Y23158503D01*
X8348345Y23152663D01*
X8334071Y23149087D01*
X8314306Y23145156D01*
X8299781Y23143002D01*
X8279754Y23141030D01*
X8265074Y23140308D01*
D02*
G37*
%LPC*%
G36*
X60342409Y29045188D02*
X60307591Y29045188D01*
X60263923Y29047333D01*
X60229266Y29050747D01*
X60186053Y29057158D01*
X60151872Y29063957D01*
X60109508Y29074568D01*
X60076149Y29084687D01*
X60035029Y29099400D01*
X60002831Y29112738D01*
X59963317Y29131427D01*
X59932625Y29147832D01*
X59895121Y29170311D01*
X59866171Y29189655D01*
X59831076Y29215682D01*
X59804132Y29237794D01*
X59771766Y29267130D01*
X59747130Y29291766D01*
X59717794Y29324132D01*
X59695682Y29351076D01*
X59669655Y29386171D01*
X59650311Y29415121D01*
X59627832Y29452625D01*
X59611427Y29483317D01*
X59592734Y29522837D01*
X59579407Y29555013D01*
X59564681Y29596170D01*
X59554572Y29629496D01*
X59543957Y29671872D01*
X59537157Y29706058D01*
X59530747Y29749266D01*
X59527333Y29783923D01*
X59525188Y29827591D01*
X59525188Y29862409D01*
X59527333Y29906077D01*
X59530747Y29940734D01*
X59537158Y29983947D01*
X59543957Y30018128D01*
X59554568Y30060492D01*
X59564687Y30093851D01*
X59579400Y30134971D01*
X59592738Y30167169D01*
X59611427Y30206683D01*
X59627832Y30237375D01*
X59650311Y30274879D01*
X59669655Y30303829D01*
X59695682Y30338924D01*
X59717794Y30365868D01*
X59747130Y30398234D01*
X59771766Y30422870D01*
X59804132Y30452206D01*
X59831076Y30474318D01*
X59866171Y30500345D01*
X59895121Y30519689D01*
X59932625Y30542168D01*
X59963317Y30558573D01*
X60002831Y30577262D01*
X60035029Y30590600D01*
X60076149Y30605313D01*
X60109508Y30615432D01*
X60151872Y30626043D01*
X60186053Y30632842D01*
X60229266Y30639253D01*
X60263923Y30642667D01*
X60307591Y30644812D01*
X60342409Y30644812D01*
X60386077Y30642667D01*
X60420734Y30639253D01*
X60463947Y30632842D01*
X60498128Y30626043D01*
X60540492Y30615432D01*
X60573851Y30605313D01*
X60614971Y30590600D01*
X60647169Y30577262D01*
X60686683Y30558573D01*
X60717375Y30542168D01*
X60754869Y30519695D01*
X60783831Y30500343D01*
X60818936Y30474308D01*
X60845857Y30452215D01*
X60878228Y30422876D01*
X60902871Y30398233D01*
X60932212Y30365861D01*
X60954306Y30338939D01*
X60980349Y30303823D01*
X60999696Y30274868D01*
X61022160Y30237389D01*
X61038578Y30206674D01*
X61057266Y30167163D01*
X61070593Y30134987D01*
X61085319Y30093830D01*
X61095428Y30060504D01*
X61106043Y30018128D01*
X61112843Y29983942D01*
X61119253Y29940734D01*
X61122667Y29906077D01*
X61124812Y29862409D01*
X61124812Y29827591D01*
X61122667Y29783923D01*
X61119253Y29749266D01*
X61112843Y29706058D01*
X61106043Y29671872D01*
X61095428Y29629496D01*
X61085319Y29596170D01*
X61070593Y29555013D01*
X61057266Y29522837D01*
X61038573Y29483317D01*
X61022168Y29452625D01*
X60999689Y29415121D01*
X60980345Y29386171D01*
X60954318Y29351076D01*
X60932211Y29324137D01*
X60902864Y29291759D01*
X60878240Y29267136D01*
X60845855Y29237784D01*
X60818938Y29215694D01*
X60783831Y29189657D01*
X60754869Y29170305D01*
X60717375Y29147832D01*
X60686683Y29131427D01*
X60647169Y29112738D01*
X60614971Y29099400D01*
X60573851Y29084687D01*
X60540492Y29074568D01*
X60498128Y29063957D01*
X60463947Y29057158D01*
X60420734Y29050747D01*
X60386077Y29047333D01*
X60342409Y29045188D01*
D02*
G37*
%LPC*%
G36*
X41542525Y21554990D02*
X39593248Y21554990D01*
X39573148Y21555978D01*
X39551216Y21558137D01*
X39511818Y21565974D01*
X39493087Y21571656D01*
X39455977Y21587027D01*
X39438710Y21596256D01*
X39405324Y21618564D01*
X39390217Y21630961D01*
X39376035Y21645163D01*
X39370806Y21648632D01*
X37703757Y23315681D01*
X37670577Y23337660D01*
X37633046Y23344970D01*
X26992726Y23344970D01*
X26953722Y23337050D01*
X26922015Y23315681D01*
X26861568Y23255234D01*
X26839589Y23222054D01*
X26832292Y23182929D01*
X26838125Y23150833D01*
X26849966Y23117741D01*
X26855814Y23098462D01*
X26871306Y23036612D01*
X26875230Y23016886D01*
X26884593Y22953766D01*
X26886562Y22933784D01*
X26889693Y22870048D01*
X26889693Y22849952D01*
X26886562Y22786216D01*
X26884593Y22766234D01*
X26875230Y22703114D01*
X26871306Y22683388D01*
X26855814Y22621538D01*
X26849966Y22602259D01*
X26828480Y22542212D01*
X26820786Y22523637D01*
X26793505Y22465957D01*
X26784035Y22448239D01*
X26751243Y22393528D01*
X26740062Y22376796D01*
X26702068Y22325566D01*
X26689308Y22310018D01*
X26646466Y22262750D01*
X26632250Y22248534D01*
X26584982Y22205692D01*
X26569434Y22192932D01*
X26518204Y22154938D01*
X26501472Y22143757D01*
X26446761Y22110965D01*
X26429043Y22101495D01*
X26371363Y22074214D01*
X26352788Y22066520D01*
X26292741Y22045034D01*
X26273462Y22039186D01*
X26211608Y22023693D01*
X26191887Y22019770D01*
X26128769Y22010407D01*
X26108782Y22008438D01*
X26045049Y22005307D01*
X26024951Y22005307D01*
X25961218Y22008438D01*
X25941231Y22010407D01*
X25878113Y22019770D01*
X25858392Y22023693D01*
X25796538Y22039186D01*
X25777259Y22045034D01*
X25717212Y22066520D01*
X25698637Y22074214D01*
X25640957Y22101495D01*
X25623239Y22110965D01*
X25568528Y22143757D01*
X25551796Y22154938D01*
X25500566Y22192932D01*
X25485018Y22205692D01*
X25437750Y22248534D01*
X25423534Y22262750D01*
X25380692Y22310018D01*
X25367932Y22325566D01*
X25329938Y22376796D01*
X25318757Y22393528D01*
X25285965Y22448239D01*
X25276495Y22465957D01*
X25249214Y22523637D01*
X25241520Y22542212D01*
X25220034Y22602259D01*
X25214186Y22621538D01*
X25198693Y22683392D01*
X25194770Y22703113D01*
X25185407Y22766231D01*
X25183438Y22786218D01*
X25180307Y22849951D01*
X25180307Y22870049D01*
X25183438Y22933782D01*
X25185407Y22953769D01*
X25194770Y23016887D01*
X25198693Y23036608D01*
X25214186Y23098462D01*
X25220034Y23117741D01*
X25241520Y23177788D01*
X25249214Y23196363D01*
X25276495Y23254043D01*
X25285965Y23271761D01*
X25318757Y23326472D01*
X25329938Y23343204D01*
X25367932Y23394434D01*
X25380692Y23409982D01*
X25423534Y23457250D01*
X25437750Y23471466D01*
X25485018Y23514308D01*
X25500566Y23527068D01*
X25551796Y23565062D01*
X25568528Y23576243D01*
X25623526Y23609207D01*
X25652909Y23636052D01*
X25669494Y23672231D01*
X25670655Y23712013D01*
X25656207Y23749098D01*
X25628439Y23777610D01*
X25572116Y23794980D01*
X24796670Y23794980D01*
X24757666Y23787060D01*
X24725959Y23765691D01*
X24290720Y23330452D01*
X24268741Y23297272D01*
X24261444Y23258147D01*
X24271033Y23216983D01*
X24280786Y23196363D01*
X24288480Y23177788D01*
X24309966Y23117741D01*
X24315814Y23098462D01*
X24331306Y23036612D01*
X24335230Y23016886D01*
X24344593Y22953766D01*
X24346562Y22933784D01*
X24349693Y22870048D01*
X24349693Y22849952D01*
X24346562Y22786216D01*
X24344593Y22766234D01*
X24335230Y22703114D01*
X24331306Y22683388D01*
X24315814Y22621538D01*
X24309966Y22602259D01*
X24288480Y22542212D01*
X24280786Y22523637D01*
X24253505Y22465957D01*
X24244035Y22448239D01*
X24211243Y22393528D01*
X24200062Y22376796D01*
X24162068Y22325566D01*
X24149308Y22310018D01*
X24106466Y22262750D01*
X24092250Y22248534D01*
X24044982Y22205692D01*
X24029434Y22192932D01*
X23978204Y22154938D01*
X23961472Y22143757D01*
X23906761Y22110965D01*
X23889043Y22101495D01*
X23831363Y22074214D01*
X23812788Y22066520D01*
X23752741Y22045034D01*
X23733462Y22039186D01*
X23671608Y22023693D01*
X23651887Y22019770D01*
X23588769Y22010407D01*
X23568782Y22008438D01*
X23505049Y22005307D01*
X23484951Y22005307D01*
X23421218Y22008438D01*
X23401231Y22010407D01*
X23338113Y22019770D01*
X23318392Y22023693D01*
X23256538Y22039186D01*
X23237259Y22045034D01*
X23177212Y22066520D01*
X23158637Y22074214D01*
X23100957Y22101495D01*
X23083239Y22110965D01*
X23028528Y22143757D01*
X23011796Y22154938D01*
X22960566Y22192932D01*
X22945018Y22205692D01*
X22897750Y22248534D01*
X22883534Y22262750D01*
X22840692Y22310018D01*
X22827932Y22325566D01*
X22789938Y22376796D01*
X22778757Y22393528D01*
X22745965Y22448239D01*
X22736495Y22465957D01*
X22709214Y22523637D01*
X22701520Y22542212D01*
X22680034Y22602259D01*
X22674186Y22621538D01*
X22658693Y22683392D01*
X22654770Y22703113D01*
X22645407Y22766231D01*
X22643438Y22786218D01*
X22640307Y22849951D01*
X22640307Y22870049D01*
X22643438Y22933782D01*
X22645407Y22953769D01*
X22654770Y23016887D01*
X22658693Y23036608D01*
X22674186Y23098462D01*
X22680034Y23117741D01*
X22701520Y23177788D01*
X22709214Y23196363D01*
X22736495Y23254043D01*
X22745965Y23271761D01*
X22778757Y23326472D01*
X22789938Y23343204D01*
X22827932Y23394434D01*
X22840692Y23409982D01*
X22883534Y23457250D01*
X22897750Y23471466D01*
X22945018Y23514308D01*
X22960566Y23527068D01*
X23011796Y23565062D01*
X23028528Y23576243D01*
X23083239Y23609035D01*
X23100957Y23618505D01*
X23158637Y23645786D01*
X23177212Y23653480D01*
X23237259Y23674966D01*
X23256538Y23680814D01*
X23318392Y23696307D01*
X23338113Y23700230D01*
X23401231Y23709593D01*
X23421218Y23711562D01*
X23484951Y23714693D01*
X23505049Y23714693D01*
X23568782Y23711562D01*
X23588769Y23709593D01*
X23651887Y23700230D01*
X23671608Y23696307D01*
X23733462Y23680814D01*
X23752741Y23674966D01*
X23812788Y23653480D01*
X23831363Y23645786D01*
X23851983Y23636033D01*
X23890627Y23626516D01*
X23929924Y23632825D01*
X23965452Y23655720D01*
X24234011Y23924279D01*
X24255990Y23957459D01*
X24263287Y23996584D01*
X24254747Y24035456D01*
X24231721Y24067919D01*
X24197857Y24088829D01*
X24163300Y24094990D01*
X23227476Y24094990D01*
X23207376Y24095978D01*
X23185444Y24098137D01*
X23146046Y24105974D01*
X23127315Y24111656D01*
X23090205Y24127027D01*
X23072938Y24136256D01*
X23039552Y24158564D01*
X23024445Y24170961D01*
X23010263Y24185163D01*
X23005034Y24188632D01*
X22620234Y24573432D01*
X22587054Y24595411D01*
X22547929Y24602708D01*
X22515833Y24596875D01*
X22482741Y24585034D01*
X22463462Y24579186D01*
X22401608Y24563693D01*
X22381887Y24559770D01*
X22318769Y24550407D01*
X22298782Y24548438D01*
X22235049Y24545307D01*
X22214951Y24545307D01*
X22151218Y24548438D01*
X22131231Y24550407D01*
X22068113Y24559770D01*
X22048392Y24563693D01*
X21986538Y24579186D01*
X21967259Y24585034D01*
X21907212Y24606520D01*
X21888637Y24614214D01*
X21830957Y24641495D01*
X21813239Y24650965D01*
X21758528Y24683757D01*
X21741796Y24694938D01*
X21690566Y24732932D01*
X21675024Y24745687D01*
X21627750Y24788534D01*
X21613534Y24802750D01*
X21570692Y24850018D01*
X21557932Y24865566D01*
X21519938Y24916796D01*
X21508757Y24933528D01*
X21475965Y24988239D01*
X21466495Y25005957D01*
X21439214Y25063637D01*
X21431520Y25082212D01*
X21410034Y25142259D01*
X21404186Y25161538D01*
X21388693Y25223392D01*
X21384770Y25243113D01*
X21375407Y25306231D01*
X21373438Y25326218D01*
X21370307Y25389951D01*
X21370307Y25410049D01*
X21373438Y25473782D01*
X21375407Y25493769D01*
X21384770Y25556887D01*
X21388693Y25576608D01*
X21404186Y25638462D01*
X21410034Y25657741D01*
X21431520Y25717788D01*
X21439214Y25736363D01*
X21466495Y25794043D01*
X21475965Y25811761D01*
X21508757Y25866472D01*
X21519938Y25883204D01*
X21557932Y25934434D01*
X21570692Y25949982D01*
X21613534Y25997250D01*
X21627750Y26011466D01*
X21675018Y26054308D01*
X21690566Y26067068D01*
X21741796Y26105062D01*
X21758528Y26116243D01*
X21813239Y26149035D01*
X21830957Y26158505D01*
X21888637Y26185786D01*
X21907212Y26193480D01*
X21967259Y26214966D01*
X21986538Y26220814D01*
X22048392Y26236307D01*
X22068113Y26240230D01*
X22131231Y26249593D01*
X22151218Y26251562D01*
X22214951Y26254693D01*
X22235049Y26254693D01*
X22298782Y26251562D01*
X22318769Y26249593D01*
X22381887Y26240230D01*
X22401608Y26236307D01*
X22463462Y26220814D01*
X22482741Y26214966D01*
X22542788Y26193480D01*
X22561363Y26185786D01*
X22619043Y26158505D01*
X22636761Y26149035D01*
X22691472Y26116243D01*
X22708204Y26105062D01*
X22759434Y26067068D01*
X22774982Y26054308D01*
X22822250Y26011466D01*
X22836466Y25997250D01*
X22879308Y25949982D01*
X22892068Y25934434D01*
X22930062Y25883204D01*
X22941243Y25866472D01*
X22974035Y25811761D01*
X22983505Y25794043D01*
X23010786Y25736363D01*
X23018480Y25717788D01*
X23039966Y25657741D01*
X23045814Y25638462D01*
X23061306Y25576612D01*
X23065230Y25556886D01*
X23074593Y25493766D01*
X23076562Y25473784D01*
X23079693Y25410048D01*
X23079693Y25389952D01*
X23076562Y25326216D01*
X23074593Y25306234D01*
X23065230Y25243114D01*
X23061306Y25223388D01*
X23045814Y25161538D01*
X23039966Y25142259D01*
X23028125Y25109167D01*
X23022442Y25069775D01*
X23032573Y25031287D01*
X23051568Y25004766D01*
X23322055Y24734279D01*
X23355235Y24712300D01*
X23392766Y24704990D01*
X24018357Y24704990D01*
X24057361Y24712910D01*
X24090186Y24735415D01*
X24111634Y24768942D01*
X24118306Y24808178D01*
X24109147Y24846909D01*
X24098678Y24864560D01*
X24059938Y24916796D01*
X24048757Y24933528D01*
X24015965Y24988239D01*
X24006495Y25005957D01*
X23979214Y25063637D01*
X23971520Y25082212D01*
X23950034Y25142259D01*
X23944186Y25161538D01*
X23928693Y25223392D01*
X23924770Y25243113D01*
X23915407Y25306231D01*
X23913438Y25326218D01*
X23910307Y25389951D01*
X23910307Y25410049D01*
X23913438Y25473782D01*
X23915407Y25493769D01*
X23924770Y25556887D01*
X23928693Y25576608D01*
X23944186Y25638462D01*
X23950034Y25657741D01*
X23971520Y25717788D01*
X23979214Y25736363D01*
X24006495Y25794043D01*
X24015965Y25811761D01*
X24048757Y25866472D01*
X24059938Y25883204D01*
X24097932Y25934434D01*
X24110692Y25949982D01*
X24153534Y25997250D01*
X24167750Y26011466D01*
X24215018Y26054308D01*
X24230566Y26067068D01*
X24281796Y26105062D01*
X24298528Y26116243D01*
X24353239Y26149035D01*
X24370957Y26158505D01*
X24428637Y26185786D01*
X24447212Y26193480D01*
X24507259Y26214966D01*
X24526538Y26220814D01*
X24588392Y26236307D01*
X24608113Y26240230D01*
X24671231Y26249593D01*
X24691218Y26251562D01*
X24754951Y26254693D01*
X24775049Y26254693D01*
X24838782Y26251562D01*
X24858769Y26249593D01*
X24921887Y26240230D01*
X24941608Y26236307D01*
X25003462Y26220814D01*
X25022741Y26214966D01*
X25082788Y26193480D01*
X25101363Y26185786D01*
X25159043Y26158505D01*
X25176761Y26149035D01*
X25231472Y26116243D01*
X25248204Y26105062D01*
X25299434Y26067068D01*
X25314982Y26054308D01*
X25362250Y26011466D01*
X25376466Y25997250D01*
X25419308Y25949982D01*
X25432068Y25934434D01*
X25470062Y25883204D01*
X25481243Y25866472D01*
X25514035Y25811761D01*
X25523505Y25794043D01*
X25550786Y25736363D01*
X25558480Y25717788D01*
X25579966Y25657741D01*
X25585814Y25638462D01*
X25601306Y25576612D01*
X25605230Y25556886D01*
X25614593Y25493766D01*
X25616562Y25473784D01*
X25619693Y25410048D01*
X25619693Y25389952D01*
X25616562Y25326216D01*
X25614593Y25306234D01*
X25605230Y25243114D01*
X25601306Y25223388D01*
X25585814Y25161538D01*
X25579963Y25142249D01*
X25578688Y25138686D01*
X25573006Y25099294D01*
X25583138Y25060806D01*
X25607480Y25029319D01*
X25642175Y25009819D01*
X25672843Y25005000D01*
X36665148Y25005000D01*
X36704152Y25012920D01*
X36735859Y25034289D01*
X38184695Y26483125D01*
X38189740Y26486570D01*
X38204137Y26500859D01*
X38208055Y26504074D01*
X38241456Y26526389D01*
X38245742Y26528680D01*
X38282859Y26544054D01*
X38287520Y26545467D01*
X38326904Y26553303D01*
X38334214Y26554023D01*
X38354294Y26555010D01*
X40347538Y26555010D01*
X40367628Y26554022D01*
X40374938Y26553302D01*
X40414316Y26545468D01*
X40418978Y26544054D01*
X40456095Y26528680D01*
X40460381Y26526389D01*
X40493782Y26504074D01*
X40499452Y26499421D01*
X40514353Y26485915D01*
X40804548Y26195720D01*
X40837728Y26173741D01*
X40876853Y26166444D01*
X40918017Y26176033D01*
X40938637Y26185786D01*
X40957212Y26193480D01*
X41017259Y26214966D01*
X41036538Y26220814D01*
X41098392Y26236307D01*
X41118113Y26240230D01*
X41181231Y26249593D01*
X41201218Y26251562D01*
X41264951Y26254693D01*
X41285049Y26254693D01*
X41348782Y26251562D01*
X41368769Y26249593D01*
X41431887Y26240230D01*
X41451608Y26236307D01*
X41513462Y26220814D01*
X41532741Y26214966D01*
X41592788Y26193480D01*
X41611363Y26185786D01*
X41669043Y26158505D01*
X41686761Y26149035D01*
X41741472Y26116243D01*
X41758204Y26105062D01*
X41809434Y26067068D01*
X41824982Y26054308D01*
X41872250Y26011466D01*
X41886466Y25997250D01*
X41929308Y25949982D01*
X41942068Y25934434D01*
X41980062Y25883204D01*
X41991243Y25866472D01*
X42024035Y25811761D01*
X42033505Y25794043D01*
X42060786Y25736363D01*
X42068480Y25717788D01*
X42089966Y25657741D01*
X42095814Y25638462D01*
X42111306Y25576612D01*
X42115230Y25556886D01*
X42124593Y25493766D01*
X42126562Y25473784D01*
X42129693Y25410048D01*
X42129693Y25389952D01*
X42126562Y25326216D01*
X42124593Y25306234D01*
X42115230Y25243114D01*
X42111306Y25223388D01*
X42095814Y25161538D01*
X42089966Y25142259D01*
X42068480Y25082212D01*
X42060786Y25063637D01*
X42033505Y25005957D01*
X42024035Y24988239D01*
X41991243Y24933528D01*
X41980062Y24916796D01*
X41942068Y24865566D01*
X41929308Y24850018D01*
X41886466Y24802750D01*
X41872250Y24788534D01*
X41824976Y24745687D01*
X41809434Y24732932D01*
X41758204Y24694938D01*
X41741472Y24683757D01*
X41686761Y24650965D01*
X41669043Y24641495D01*
X41611363Y24614214D01*
X41592788Y24606520D01*
X41532741Y24585034D01*
X41513462Y24579186D01*
X41451608Y24563693D01*
X41431887Y24559770D01*
X41368769Y24550407D01*
X41348782Y24548438D01*
X41285049Y24545307D01*
X41264951Y24545307D01*
X41201218Y24548438D01*
X41181231Y24550407D01*
X41118113Y24559770D01*
X41098392Y24563693D01*
X41036538Y24579186D01*
X41017259Y24585034D01*
X40957212Y24606520D01*
X40938637Y24614214D01*
X40880957Y24641495D01*
X40863239Y24650965D01*
X40808528Y24683757D01*
X40791796Y24694938D01*
X40740566Y24732932D01*
X40725024Y24745687D01*
X40677750Y24788534D01*
X40663534Y24802750D01*
X40620692Y24850018D01*
X40607932Y24865566D01*
X40569938Y24916796D01*
X40558757Y24933528D01*
X40525965Y24988239D01*
X40516495Y25005957D01*
X40489214Y25063637D01*
X40481520Y25082212D01*
X40460034Y25142259D01*
X40454186Y25161538D01*
X40438693Y25223392D01*
X40434770Y25243113D01*
X40425407Y25306231D01*
X40423438Y25326218D01*
X40420307Y25389951D01*
X40420307Y25410049D01*
X40423438Y25473782D01*
X40425407Y25493769D01*
X40434770Y25556887D01*
X40438693Y25576608D01*
X40454186Y25638462D01*
X40460034Y25657741D01*
X40481520Y25717788D01*
X40489214Y25736363D01*
X40498967Y25756983D01*
X40508484Y25795627D01*
X40502175Y25834924D01*
X40479280Y25870452D01*
X40284011Y26065721D01*
X40250831Y26087700D01*
X40213300Y26095010D01*
X39481643Y26095010D01*
X39442639Y26087090D01*
X39409814Y26064585D01*
X39388366Y26031058D01*
X39381694Y25991822D01*
X39390853Y25953091D01*
X39401322Y25935440D01*
X39440062Y25883204D01*
X39451243Y25866472D01*
X39484035Y25811761D01*
X39493505Y25794043D01*
X39520786Y25736363D01*
X39528480Y25717788D01*
X39549966Y25657741D01*
X39555814Y25638462D01*
X39571306Y25576612D01*
X39575230Y25556886D01*
X39584593Y25493766D01*
X39586562Y25473784D01*
X39589693Y25410048D01*
X39589693Y25389952D01*
X39586562Y25326216D01*
X39584593Y25306234D01*
X39575230Y25243114D01*
X39571306Y25223388D01*
X39555814Y25161538D01*
X39549966Y25142259D01*
X39528480Y25082212D01*
X39520786Y25063637D01*
X39493505Y25005957D01*
X39484035Y24988239D01*
X39451243Y24933528D01*
X39440062Y24916796D01*
X39402068Y24865566D01*
X39389308Y24850018D01*
X39346466Y24802750D01*
X39332250Y24788534D01*
X39284976Y24745687D01*
X39269434Y24732932D01*
X39218204Y24694938D01*
X39201472Y24683757D01*
X39146761Y24650965D01*
X39129043Y24641495D01*
X39071363Y24614214D01*
X39052788Y24606520D01*
X38992741Y24585034D01*
X38973462Y24579186D01*
X38911608Y24563693D01*
X38891887Y24559770D01*
X38828769Y24550407D01*
X38808782Y24548438D01*
X38745049Y24545307D01*
X38724951Y24545307D01*
X38661218Y24548438D01*
X38641231Y24550407D01*
X38578113Y24559770D01*
X38558392Y24563693D01*
X38496538Y24579186D01*
X38477259Y24585034D01*
X38444167Y24596875D01*
X38404775Y24602558D01*
X38366287Y24592427D01*
X38339766Y24573432D01*
X38192025Y24425691D01*
X38170046Y24392511D01*
X38162749Y24353386D01*
X38171289Y24314514D01*
X38194315Y24282051D01*
X38228179Y24261141D01*
X38262736Y24254980D01*
X38837568Y24254980D01*
X38857658Y24253992D01*
X38864968Y24253272D01*
X38904346Y24245438D01*
X38909008Y24244024D01*
X38946125Y24228650D01*
X38950411Y24226359D01*
X38983812Y24204044D01*
X38989482Y24199391D01*
X39004383Y24185885D01*
X39534548Y23655720D01*
X39567728Y23633741D01*
X39606853Y23626444D01*
X39648017Y23636033D01*
X39668637Y23645786D01*
X39687212Y23653480D01*
X39747259Y23674966D01*
X39766538Y23680814D01*
X39828392Y23696307D01*
X39848113Y23700230D01*
X39911231Y23709593D01*
X39931218Y23711562D01*
X39994951Y23714693D01*
X40015049Y23714693D01*
X40078782Y23711562D01*
X40098769Y23709593D01*
X40161887Y23700230D01*
X40181608Y23696307D01*
X40243462Y23680814D01*
X40262741Y23674966D01*
X40322788Y23653480D01*
X40341363Y23645786D01*
X40399043Y23618505D01*
X40416761Y23609035D01*
X40471472Y23576243D01*
X40488204Y23565062D01*
X40539434Y23527068D01*
X40554982Y23514308D01*
X40602250Y23471466D01*
X40616466Y23457250D01*
X40659308Y23409982D01*
X40672068Y23394434D01*
X40710062Y23343204D01*
X40721243Y23326472D01*
X40754035Y23271761D01*
X40763505Y23254043D01*
X40790786Y23196363D01*
X40798480Y23177788D01*
X40819966Y23117741D01*
X40825814Y23098462D01*
X40841306Y23036612D01*
X40845230Y23016886D01*
X40854593Y22953766D01*
X40856562Y22933784D01*
X40859693Y22870048D01*
X40859693Y22849952D01*
X40856562Y22786216D01*
X40854593Y22766234D01*
X40845230Y22703114D01*
X40841306Y22683388D01*
X40825814Y22621538D01*
X40819966Y22602259D01*
X40798480Y22542212D01*
X40790786Y22523637D01*
X40763505Y22465957D01*
X40754035Y22448239D01*
X40721243Y22393528D01*
X40710062Y22376796D01*
X40671322Y22324560D01*
X40654449Y22288514D01*
X40652972Y22248742D01*
X40667124Y22211543D01*
X40694664Y22182811D01*
X40731230Y22167096D01*
X40751643Y22164990D01*
X41377234Y22164990D01*
X41416238Y22172910D01*
X41447945Y22194279D01*
X41718432Y22464766D01*
X41740411Y22497946D01*
X41747708Y22537071D01*
X41741875Y22569167D01*
X41730034Y22602259D01*
X41724186Y22621538D01*
X41708693Y22683392D01*
X41704770Y22703113D01*
X41695407Y22766231D01*
X41693438Y22786218D01*
X41690307Y22849951D01*
X41690307Y22870049D01*
X41693438Y22933782D01*
X41695407Y22953769D01*
X41704770Y23016887D01*
X41708693Y23036608D01*
X41724186Y23098462D01*
X41730034Y23117741D01*
X41751520Y23177788D01*
X41759214Y23196363D01*
X41786495Y23254043D01*
X41795965Y23271761D01*
X41828757Y23326472D01*
X41839938Y23343204D01*
X41877932Y23394434D01*
X41890692Y23409982D01*
X41933534Y23457250D01*
X41947750Y23471466D01*
X41995018Y23514308D01*
X42010566Y23527068D01*
X42061796Y23565062D01*
X42078528Y23576243D01*
X42133239Y23609035D01*
X42150957Y23618505D01*
X42208637Y23645786D01*
X42227212Y23653480D01*
X42287259Y23674966D01*
X42306538Y23680814D01*
X42368392Y23696307D01*
X42388113Y23700230D01*
X42451231Y23709593D01*
X42471218Y23711562D01*
X42534951Y23714693D01*
X42555049Y23714693D01*
X42618782Y23711562D01*
X42638769Y23709593D01*
X42701887Y23700230D01*
X42721608Y23696307D01*
X42783462Y23680814D01*
X42802741Y23674966D01*
X42862788Y23653480D01*
X42881363Y23645786D01*
X42939043Y23618505D01*
X42956761Y23609035D01*
X43011472Y23576243D01*
X43028204Y23565062D01*
X43079434Y23527068D01*
X43094982Y23514308D01*
X43142250Y23471466D01*
X43156466Y23457250D01*
X43199308Y23409982D01*
X43212068Y23394434D01*
X43250062Y23343204D01*
X43261243Y23326472D01*
X43294035Y23271761D01*
X43303509Y23254036D01*
X43318545Y23222245D01*
X43342381Y23190372D01*
X43376760Y23170321D01*
X43408944Y23165000D01*
X45806244Y23165000D01*
X45845248Y23172920D01*
X45876955Y23194289D01*
X48152059Y25469393D01*
X48176582Y25510313D01*
X48176674Y25510280D01*
X48176839Y25510741D01*
X48177044Y25511083D01*
X48177503Y25512597D01*
X48182457Y25526440D01*
X48190151Y25545013D01*
X48196449Y25558332D01*
X48205931Y25576072D01*
X48213497Y25588695D01*
X48224669Y25605413D01*
X48233445Y25617247D01*
X48246198Y25632787D01*
X48256076Y25643686D01*
X48270314Y25657924D01*
X48281213Y25667802D01*
X48296753Y25680555D01*
X48308587Y25689331D01*
X48325305Y25700503D01*
X48337928Y25708069D01*
X48355668Y25717551D01*
X48368987Y25723849D01*
X48387560Y25731543D01*
X48401404Y25736497D01*
X48420655Y25742337D01*
X48434929Y25745913D01*
X48454694Y25749844D01*
X48469219Y25751998D01*
X48489246Y25753970D01*
X48503926Y25754692D01*
X48524074Y25754692D01*
X48538754Y25753970D01*
X48558781Y25751998D01*
X48573306Y25749844D01*
X48593071Y25745913D01*
X48607345Y25742337D01*
X48626596Y25736497D01*
X48640440Y25731543D01*
X48659013Y25723849D01*
X48672332Y25717551D01*
X48690072Y25708069D01*
X48702695Y25700503D01*
X48719413Y25689331D01*
X48731247Y25680555D01*
X48746787Y25667802D01*
X48757686Y25657924D01*
X48771924Y25643686D01*
X48781802Y25632787D01*
X48794555Y25617247D01*
X48803331Y25605413D01*
X48814503Y25588695D01*
X48822069Y25576072D01*
X48831551Y25558332D01*
X48837849Y25545013D01*
X48845543Y25526440D01*
X48850497Y25512596D01*
X48856337Y25493345D01*
X48859913Y25479071D01*
X48863844Y25459306D01*
X48865998Y25444781D01*
X48867970Y25424754D01*
X48868692Y25410074D01*
X48868692Y25389926D01*
X48867970Y25375246D01*
X48865998Y25355219D01*
X48863844Y25340694D01*
X48859913Y25320929D01*
X48856337Y25306655D01*
X48850497Y25287404D01*
X48845543Y25273560D01*
X48837849Y25254987D01*
X48831551Y25241668D01*
X48822069Y25223928D01*
X48814503Y25211305D01*
X48803331Y25194587D01*
X48794555Y25182753D01*
X48781802Y25167213D01*
X48771924Y25156314D01*
X48757686Y25142076D01*
X48746787Y25132198D01*
X48731247Y25119445D01*
X48719413Y25110669D01*
X48702695Y25099497D01*
X48690072Y25091931D01*
X48672332Y25082449D01*
X48659013Y25076151D01*
X48640440Y25068457D01*
X48626597Y25063503D01*
X48625083Y25063044D01*
X48624741Y25062839D01*
X48624280Y25062674D01*
X48624313Y25062582D01*
X48583393Y25038059D01*
X46194185Y22648851D01*
X46189140Y22645406D01*
X46174744Y22631119D01*
X46159457Y22618574D01*
X46126071Y22596266D01*
X46108804Y22587037D01*
X46071694Y22571666D01*
X46052953Y22565981D01*
X46013575Y22558148D01*
X45991634Y22555988D01*
X45971535Y22555000D01*
X43408944Y22555000D01*
X43369940Y22547080D01*
X43337115Y22524575D01*
X43318545Y22497755D01*
X43303509Y22465964D01*
X43294035Y22448239D01*
X43261243Y22393528D01*
X43250062Y22376796D01*
X43212068Y22325566D01*
X43199308Y22310018D01*
X43156466Y22262750D01*
X43142250Y22248534D01*
X43094982Y22205692D01*
X43079434Y22192932D01*
X43028204Y22154938D01*
X43011472Y22143757D01*
X42956761Y22110965D01*
X42939043Y22101495D01*
X42881363Y22074214D01*
X42862788Y22066520D01*
X42802741Y22045034D01*
X42783462Y22039186D01*
X42721608Y22023693D01*
X42701887Y22019770D01*
X42638769Y22010407D01*
X42618782Y22008438D01*
X42555049Y22005307D01*
X42534951Y22005307D01*
X42471218Y22008438D01*
X42451231Y22010407D01*
X42388113Y22019770D01*
X42368392Y22023693D01*
X42306538Y22039186D01*
X42287259Y22045034D01*
X42254167Y22056875D01*
X42214775Y22062558D01*
X42176287Y22052427D01*
X42149766Y22033432D01*
X41765175Y21648841D01*
X41760130Y21645396D01*
X41745734Y21631109D01*
X41730447Y21618564D01*
X41697061Y21596256D01*
X41679794Y21587027D01*
X41642684Y21571656D01*
X41623943Y21565971D01*
X41584565Y21558138D01*
X41562624Y21555978D01*
X41542525Y21554990D01*
D02*
G37*
%LPC*%
G36*
X61358409Y21425188D02*
X61323591Y21425188D01*
X61279923Y21427333D01*
X61245266Y21430747D01*
X61202053Y21437158D01*
X61167872Y21443957D01*
X61125508Y21454568D01*
X61092149Y21464687D01*
X61051029Y21479400D01*
X61018831Y21492738D01*
X60979317Y21511427D01*
X60948625Y21527832D01*
X60911121Y21550311D01*
X60882171Y21569655D01*
X60847076Y21595682D01*
X60820132Y21617794D01*
X60787766Y21647130D01*
X60763130Y21671766D01*
X60733794Y21704132D01*
X60711682Y21731076D01*
X60685655Y21766171D01*
X60666311Y21795121D01*
X60643832Y21832625D01*
X60627427Y21863317D01*
X60608734Y21902837D01*
X60595407Y21935013D01*
X60580681Y21976170D01*
X60570572Y22009496D01*
X60559957Y22051872D01*
X60553157Y22086058D01*
X60546747Y22129266D01*
X60543333Y22163923D01*
X60541188Y22207591D01*
X60541188Y22242409D01*
X60543333Y22286077D01*
X60546747Y22320734D01*
X60553158Y22363947D01*
X60559957Y22398128D01*
X60570568Y22440492D01*
X60580687Y22473851D01*
X60595400Y22514971D01*
X60608738Y22547169D01*
X60627427Y22586683D01*
X60643832Y22617375D01*
X60666311Y22654879D01*
X60685655Y22683829D01*
X60711682Y22718924D01*
X60733794Y22745868D01*
X60763130Y22778234D01*
X60787766Y22802870D01*
X60820132Y22832206D01*
X60847076Y22854318D01*
X60882171Y22880345D01*
X60911121Y22899689D01*
X60948625Y22922168D01*
X60979317Y22938573D01*
X61018831Y22957262D01*
X61051029Y22970600D01*
X61092149Y22985313D01*
X61125508Y22995432D01*
X61167872Y23006043D01*
X61202053Y23012842D01*
X61245266Y23019253D01*
X61279923Y23022667D01*
X61323591Y23024812D01*
X61358409Y23024812D01*
X61402077Y23022667D01*
X61436734Y23019253D01*
X61479947Y23012842D01*
X61514128Y23006043D01*
X61556492Y22995432D01*
X61589851Y22985313D01*
X61630971Y22970600D01*
X61663169Y22957262D01*
X61702683Y22938573D01*
X61733375Y22922168D01*
X61770869Y22899695D01*
X61799831Y22880343D01*
X61834936Y22854308D01*
X61861857Y22832215D01*
X61894228Y22802876D01*
X61918871Y22778233D01*
X61948212Y22745861D01*
X61970306Y22718939D01*
X61996349Y22683823D01*
X62015696Y22654868D01*
X62038160Y22617389D01*
X62054578Y22586674D01*
X62073266Y22547163D01*
X62086593Y22514987D01*
X62101319Y22473830D01*
X62111428Y22440504D01*
X62122043Y22398128D01*
X62128843Y22363942D01*
X62135253Y22320734D01*
X62138667Y22286077D01*
X62140812Y22242409D01*
X62140812Y22207591D01*
X62138667Y22163923D01*
X62135253Y22129266D01*
X62128843Y22086058D01*
X62122043Y22051872D01*
X62111428Y22009496D01*
X62101319Y21976170D01*
X62086593Y21935013D01*
X62073266Y21902837D01*
X62054573Y21863317D01*
X62038168Y21832625D01*
X62015689Y21795121D01*
X61996345Y21766171D01*
X61970318Y21731076D01*
X61948211Y21704137D01*
X61918864Y21671759D01*
X61894240Y21647136D01*
X61861855Y21617784D01*
X61834938Y21595694D01*
X61799831Y21569657D01*
X61770869Y21550305D01*
X61733375Y21527832D01*
X61702683Y21511427D01*
X61663169Y21492738D01*
X61630971Y21479400D01*
X61589851Y21464687D01*
X61556492Y21454568D01*
X61514128Y21443957D01*
X61479947Y21437158D01*
X61436734Y21430747D01*
X61402077Y21427333D01*
X61358409Y21425188D01*
D02*
G37*
%LPC*%
G36*
X59326409Y21425188D02*
X59291591Y21425188D01*
X59247923Y21427333D01*
X59213266Y21430747D01*
X59170053Y21437158D01*
X59135872Y21443957D01*
X59093508Y21454568D01*
X59060149Y21464687D01*
X59019029Y21479400D01*
X58986831Y21492738D01*
X58947317Y21511427D01*
X58916625Y21527832D01*
X58879121Y21550311D01*
X58850171Y21569655D01*
X58815076Y21595682D01*
X58788132Y21617794D01*
X58755766Y21647130D01*
X58731130Y21671766D01*
X58701794Y21704132D01*
X58679682Y21731076D01*
X58653655Y21766171D01*
X58634311Y21795121D01*
X58611832Y21832625D01*
X58595427Y21863317D01*
X58576734Y21902837D01*
X58563407Y21935013D01*
X58548681Y21976170D01*
X58538572Y22009496D01*
X58527957Y22051872D01*
X58521157Y22086058D01*
X58514747Y22129266D01*
X58511333Y22163923D01*
X58509188Y22207591D01*
X58509188Y22242409D01*
X58511333Y22286077D01*
X58514747Y22320734D01*
X58521158Y22363947D01*
X58527957Y22398128D01*
X58538568Y22440492D01*
X58548687Y22473851D01*
X58563400Y22514971D01*
X58576738Y22547169D01*
X58595427Y22586683D01*
X58611832Y22617375D01*
X58634311Y22654879D01*
X58653655Y22683829D01*
X58679682Y22718924D01*
X58701794Y22745868D01*
X58731130Y22778234D01*
X58755766Y22802870D01*
X58788132Y22832206D01*
X58815076Y22854318D01*
X58850171Y22880345D01*
X58879121Y22899689D01*
X58916625Y22922168D01*
X58947317Y22938573D01*
X58986831Y22957262D01*
X59019029Y22970600D01*
X59060149Y22985313D01*
X59093508Y22995432D01*
X59135872Y23006043D01*
X59170053Y23012842D01*
X59213266Y23019253D01*
X59247923Y23022667D01*
X59291591Y23024812D01*
X59326409Y23024812D01*
X59370077Y23022667D01*
X59404734Y23019253D01*
X59447947Y23012842D01*
X59482128Y23006043D01*
X59524492Y22995432D01*
X59557851Y22985313D01*
X59598971Y22970600D01*
X59631169Y22957262D01*
X59670683Y22938573D01*
X59701375Y22922168D01*
X59738869Y22899695D01*
X59767831Y22880343D01*
X59802936Y22854308D01*
X59829857Y22832215D01*
X59862228Y22802876D01*
X59886871Y22778233D01*
X59916212Y22745861D01*
X59938306Y22718939D01*
X59964349Y22683823D01*
X59983696Y22654868D01*
X60006160Y22617389D01*
X60022578Y22586674D01*
X60041266Y22547163D01*
X60054593Y22514987D01*
X60069319Y22473830D01*
X60079428Y22440504D01*
X60090043Y22398128D01*
X60096843Y22363942D01*
X60103253Y22320734D01*
X60106667Y22286077D01*
X60108812Y22242409D01*
X60108812Y22207591D01*
X60106667Y22163923D01*
X60103253Y22129266D01*
X60096843Y22086058D01*
X60090043Y22051872D01*
X60079428Y22009496D01*
X60069319Y21976170D01*
X60054593Y21935013D01*
X60041266Y21902837D01*
X60022573Y21863317D01*
X60006168Y21832625D01*
X59983689Y21795121D01*
X59964345Y21766171D01*
X59938318Y21731076D01*
X59916211Y21704137D01*
X59886864Y21671759D01*
X59862240Y21647136D01*
X59829855Y21617784D01*
X59802938Y21595694D01*
X59767831Y21569657D01*
X59738869Y21550305D01*
X59701375Y21527832D01*
X59670683Y21511427D01*
X59631169Y21492738D01*
X59598971Y21479400D01*
X59557851Y21464687D01*
X59524492Y21454568D01*
X59482128Y21443957D01*
X59447947Y21437158D01*
X59404734Y21430747D01*
X59370077Y21427333D01*
X59326409Y21425188D01*
D02*
G37*
%LPC*%
G36*
X63644409Y15240488D02*
X63609591Y15240488D01*
X63457655Y15247953D01*
X63422991Y15251366D01*
X63272518Y15273687D01*
X63238370Y15280479D01*
X63090816Y15317440D01*
X63057478Y15327553D01*
X62914280Y15378789D01*
X62882075Y15392129D01*
X62744585Y15457157D01*
X62713858Y15473581D01*
X62583392Y15551780D01*
X62554431Y15571131D01*
X62432242Y15661752D01*
X62405335Y15683836D01*
X62292630Y15785986D01*
X62267986Y15810630D01*
X62165836Y15923335D01*
X62143752Y15950242D01*
X62053131Y16072431D01*
X62033780Y16101392D01*
X61955581Y16231858D01*
X61939157Y16262585D01*
X61874129Y16400075D01*
X61860789Y16432280D01*
X61809553Y16575478D01*
X61799440Y16608816D01*
X61762479Y16756370D01*
X61755687Y16790518D01*
X61733366Y16940991D01*
X61729953Y16975655D01*
X61722488Y17127591D01*
X61722488Y17162409D01*
X61729953Y17314345D01*
X61733366Y17349009D01*
X61755687Y17499482D01*
X61762479Y17533630D01*
X61799440Y17681184D01*
X61809553Y17714522D01*
X61860789Y17857720D01*
X61874129Y17889925D01*
X61939157Y18027415D01*
X61955581Y18058142D01*
X62033780Y18188608D01*
X62053131Y18217569D01*
X62143752Y18339758D01*
X62165836Y18366665D01*
X62267986Y18479370D01*
X62292630Y18504014D01*
X62405335Y18606164D01*
X62432242Y18628248D01*
X62554431Y18718869D01*
X62583392Y18738220D01*
X62713858Y18816419D01*
X62744585Y18832843D01*
X62882075Y18897871D01*
X62914280Y18911211D01*
X63057478Y18962447D01*
X63090816Y18972560D01*
X63238370Y19009521D01*
X63272518Y19016313D01*
X63422991Y19038634D01*
X63457655Y19042047D01*
X63609591Y19049512D01*
X63644409Y19049512D01*
X63796345Y19042047D01*
X63831009Y19038634D01*
X63981482Y19016313D01*
X64015630Y19009521D01*
X64163184Y18972560D01*
X64196522Y18962447D01*
X64339720Y18911211D01*
X64371925Y18897871D01*
X64509415Y18832843D01*
X64540142Y18816419D01*
X64670608Y18738220D01*
X64699569Y18718869D01*
X64821754Y18628251D01*
X64848670Y18606161D01*
X64961369Y18504017D01*
X64986016Y18479370D01*
X65088161Y18366670D01*
X65110251Y18339754D01*
X65200869Y18217569D01*
X65220220Y18188608D01*
X65298419Y18058142D01*
X65314843Y18027415D01*
X65379871Y17889925D01*
X65393211Y17857720D01*
X65444447Y17714522D01*
X65454560Y17681184D01*
X65491521Y17533630D01*
X65498313Y17499482D01*
X65520634Y17349009D01*
X65524047Y17314345D01*
X65531512Y17162409D01*
X65531512Y17127591D01*
X65524047Y16975655D01*
X65520634Y16940991D01*
X65498313Y16790518D01*
X65491521Y16756370D01*
X65454560Y16608816D01*
X65444447Y16575478D01*
X65393211Y16432280D01*
X65379871Y16400075D01*
X65314843Y16262585D01*
X65298419Y16231858D01*
X65220220Y16101392D01*
X65200869Y16072431D01*
X65110248Y15950242D01*
X65088164Y15923335D01*
X64986014Y15810630D01*
X64961370Y15785986D01*
X64848665Y15683836D01*
X64821758Y15661752D01*
X64699569Y15571131D01*
X64670608Y15551780D01*
X64540142Y15473581D01*
X64509415Y15457157D01*
X64371925Y15392129D01*
X64339720Y15378789D01*
X64196522Y15327553D01*
X64163184Y15317440D01*
X64015630Y15280479D01*
X63981482Y15273687D01*
X63831009Y15251366D01*
X63796345Y15247953D01*
X63644409Y15240488D01*
D02*
G37*
%LPC*%
G36*
X57795049Y10575307D02*
X57774951Y10575307D01*
X57711218Y10578438D01*
X57691231Y10580407D01*
X57628113Y10589770D01*
X57608392Y10593693D01*
X57546538Y10609186D01*
X57527259Y10615034D01*
X57467212Y10636520D01*
X57448637Y10644214D01*
X57390957Y10671495D01*
X57373239Y10680965D01*
X57318528Y10713757D01*
X57301796Y10724938D01*
X57250566Y10762932D01*
X57235018Y10775692D01*
X57187750Y10818534D01*
X57173534Y10832750D01*
X57130692Y10880018D01*
X57117932Y10895566D01*
X57079938Y10946796D01*
X57068757Y10963528D01*
X57035965Y11018239D01*
X57026495Y11035957D01*
X56999214Y11093637D01*
X56991520Y11112212D01*
X56970034Y11172259D01*
X56964186Y11191538D01*
X56948694Y11253388D01*
X56944770Y11273114D01*
X56935407Y11336234D01*
X56933438Y11356216D01*
X56930307Y11419952D01*
X56930307Y11440048D01*
X56933438Y11503784D01*
X56935407Y11523766D01*
X56944770Y11586886D01*
X56948694Y11606612D01*
X56964186Y11668462D01*
X56970034Y11687741D01*
X56991520Y11747788D01*
X56999214Y11766363D01*
X57026495Y11824043D01*
X57035965Y11841761D01*
X57068757Y11896472D01*
X57079938Y11913204D01*
X57117932Y11964434D01*
X57130692Y11979982D01*
X57173534Y12027250D01*
X57187750Y12041466D01*
X57235018Y12084308D01*
X57250566Y12097068D01*
X57301796Y12135062D01*
X57318528Y12146243D01*
X57373239Y12179035D01*
X57390957Y12188505D01*
X57448637Y12215786D01*
X57467212Y12223480D01*
X57527259Y12244966D01*
X57546538Y12250814D01*
X57608392Y12266307D01*
X57628113Y12270230D01*
X57691231Y12279593D01*
X57711218Y12281562D01*
X57774951Y12284693D01*
X57795049Y12284693D01*
X57858782Y12281562D01*
X57878769Y12279593D01*
X57941887Y12270230D01*
X57961608Y12266307D01*
X58023462Y12250814D01*
X58042741Y12244966D01*
X58102788Y12223480D01*
X58121363Y12215786D01*
X58179043Y12188505D01*
X58196761Y12179035D01*
X58251472Y12146243D01*
X58268204Y12135062D01*
X58319434Y12097068D01*
X58334982Y12084308D01*
X58382250Y12041466D01*
X58396466Y12027250D01*
X58439308Y11979982D01*
X58452068Y11964434D01*
X58490062Y11913204D01*
X58501243Y11896472D01*
X58534035Y11841761D01*
X58543505Y11824043D01*
X58570786Y11766363D01*
X58578480Y11747788D01*
X58599966Y11687741D01*
X58605814Y11668462D01*
X58621307Y11606608D01*
X58625230Y11586887D01*
X58634593Y11523769D01*
X58636562Y11503782D01*
X58639693Y11440049D01*
X58639693Y11419951D01*
X58636562Y11356218D01*
X58634593Y11336231D01*
X58625230Y11273113D01*
X58621307Y11253392D01*
X58605814Y11191538D01*
X58599966Y11172259D01*
X58578480Y11112212D01*
X58570786Y11093637D01*
X58543505Y11035957D01*
X58534035Y11018239D01*
X58501243Y10963528D01*
X58490062Y10946796D01*
X58452068Y10895566D01*
X58439308Y10880018D01*
X58396466Y10832750D01*
X58382250Y10818534D01*
X58334982Y10775692D01*
X58319434Y10762932D01*
X58268204Y10724938D01*
X58251472Y10713757D01*
X58196761Y10680965D01*
X58179043Y10671495D01*
X58121363Y10644214D01*
X58102788Y10636520D01*
X58042741Y10615034D01*
X58023462Y10609186D01*
X57961608Y10593693D01*
X57941887Y10589770D01*
X57878769Y10580407D01*
X57858782Y10578438D01*
X57795049Y10575307D01*
D02*
G37*
%LPC*%
G36*
X55255049Y10575307D02*
X55234951Y10575307D01*
X55171218Y10578438D01*
X55151231Y10580407D01*
X55088113Y10589770D01*
X55068392Y10593693D01*
X55006538Y10609186D01*
X54987259Y10615034D01*
X54927212Y10636520D01*
X54908637Y10644214D01*
X54850957Y10671495D01*
X54833239Y10680965D01*
X54778528Y10713757D01*
X54761796Y10724938D01*
X54710566Y10762932D01*
X54695018Y10775692D01*
X54647750Y10818534D01*
X54633534Y10832750D01*
X54590692Y10880018D01*
X54577932Y10895566D01*
X54539938Y10946796D01*
X54528757Y10963528D01*
X54495965Y11018239D01*
X54486495Y11035957D01*
X54459214Y11093637D01*
X54451520Y11112212D01*
X54430034Y11172259D01*
X54424186Y11191538D01*
X54408694Y11253388D01*
X54404770Y11273114D01*
X54395407Y11336234D01*
X54393438Y11356216D01*
X54390307Y11419952D01*
X54390307Y11440048D01*
X54393438Y11503784D01*
X54395407Y11523766D01*
X54404770Y11586886D01*
X54408694Y11606612D01*
X54424186Y11668462D01*
X54430034Y11687741D01*
X54451520Y11747788D01*
X54459214Y11766363D01*
X54486495Y11824043D01*
X54495965Y11841761D01*
X54528757Y11896472D01*
X54539938Y11913204D01*
X54577932Y11964434D01*
X54590692Y11979982D01*
X54633534Y12027250D01*
X54647750Y12041466D01*
X54695018Y12084308D01*
X54710566Y12097068D01*
X54761796Y12135062D01*
X54778528Y12146243D01*
X54833239Y12179035D01*
X54850957Y12188505D01*
X54908637Y12215786D01*
X54927212Y12223480D01*
X54987259Y12244966D01*
X55006538Y12250814D01*
X55068392Y12266307D01*
X55088113Y12270230D01*
X55151231Y12279593D01*
X55171218Y12281562D01*
X55234951Y12284693D01*
X55255049Y12284693D01*
X55318782Y12281562D01*
X55338769Y12279593D01*
X55401887Y12270230D01*
X55421608Y12266307D01*
X55483462Y12250814D01*
X55502741Y12244966D01*
X55562788Y12223480D01*
X55581363Y12215786D01*
X55639043Y12188505D01*
X55656761Y12179035D01*
X55711472Y12146243D01*
X55728204Y12135062D01*
X55779434Y12097068D01*
X55794982Y12084308D01*
X55842250Y12041466D01*
X55856466Y12027250D01*
X55899308Y11979982D01*
X55912068Y11964434D01*
X55950062Y11913204D01*
X55961243Y11896472D01*
X55994035Y11841761D01*
X56003505Y11824043D01*
X56030786Y11766363D01*
X56038480Y11747788D01*
X56059966Y11687741D01*
X56065814Y11668462D01*
X56081307Y11606608D01*
X56085230Y11586887D01*
X56094593Y11523769D01*
X56096562Y11503782D01*
X56099693Y11440049D01*
X56099693Y11419951D01*
X56096562Y11356218D01*
X56094593Y11336231D01*
X56085230Y11273113D01*
X56081307Y11253392D01*
X56065814Y11191538D01*
X56059966Y11172259D01*
X56038480Y11112212D01*
X56030786Y11093637D01*
X56003505Y11035957D01*
X55994035Y11018239D01*
X55961243Y10963528D01*
X55950062Y10946796D01*
X55912068Y10895566D01*
X55899308Y10880018D01*
X55856466Y10832750D01*
X55842250Y10818534D01*
X55794982Y10775692D01*
X55779434Y10762932D01*
X55728204Y10724938D01*
X55711472Y10713757D01*
X55656761Y10680965D01*
X55639043Y10671495D01*
X55581363Y10644214D01*
X55562788Y10636520D01*
X55502741Y10615034D01*
X55483462Y10609186D01*
X55421608Y10593693D01*
X55401887Y10589770D01*
X55338769Y10580407D01*
X55318782Y10578438D01*
X55255049Y10575307D01*
D02*
G37*
%LPC*%
G36*
X41285049Y10575307D02*
X41264951Y10575307D01*
X41201218Y10578438D01*
X41181231Y10580407D01*
X41118113Y10589770D01*
X41098392Y10593693D01*
X41036538Y10609186D01*
X41017259Y10615034D01*
X40957212Y10636520D01*
X40938637Y10644214D01*
X40880957Y10671495D01*
X40863239Y10680965D01*
X40808528Y10713757D01*
X40791796Y10724938D01*
X40740566Y10762932D01*
X40725018Y10775692D01*
X40677750Y10818534D01*
X40663534Y10832750D01*
X40620692Y10880018D01*
X40607932Y10895566D01*
X40569938Y10946796D01*
X40558757Y10963528D01*
X40525965Y11018239D01*
X40516495Y11035957D01*
X40489214Y11093637D01*
X40481520Y11112212D01*
X40460034Y11172259D01*
X40454186Y11191538D01*
X40438694Y11253388D01*
X40434770Y11273114D01*
X40425407Y11336234D01*
X40423438Y11356216D01*
X40420307Y11419952D01*
X40420307Y11440048D01*
X40423438Y11503784D01*
X40425407Y11523766D01*
X40434770Y11586886D01*
X40438694Y11606612D01*
X40454186Y11668462D01*
X40460034Y11687741D01*
X40481520Y11747788D01*
X40489214Y11766363D01*
X40516495Y11824043D01*
X40525965Y11841761D01*
X40558757Y11896472D01*
X40569938Y11913204D01*
X40607932Y11964434D01*
X40620692Y11979982D01*
X40663534Y12027250D01*
X40677750Y12041466D01*
X40725018Y12084308D01*
X40740566Y12097068D01*
X40791796Y12135062D01*
X40808528Y12146243D01*
X40863239Y12179035D01*
X40880957Y12188505D01*
X40938637Y12215786D01*
X40957212Y12223480D01*
X41017259Y12244966D01*
X41036538Y12250814D01*
X41098392Y12266307D01*
X41118113Y12270230D01*
X41181231Y12279593D01*
X41201218Y12281562D01*
X41264951Y12284693D01*
X41285049Y12284693D01*
X41348782Y12281562D01*
X41368769Y12279593D01*
X41431887Y12270230D01*
X41451608Y12266307D01*
X41513462Y12250814D01*
X41532741Y12244966D01*
X41592788Y12223480D01*
X41611363Y12215786D01*
X41669043Y12188505D01*
X41686761Y12179035D01*
X41741472Y12146243D01*
X41758204Y12135062D01*
X41809434Y12097068D01*
X41824982Y12084308D01*
X41872250Y12041466D01*
X41886466Y12027250D01*
X41929308Y11979982D01*
X41942068Y11964434D01*
X41980062Y11913204D01*
X41991243Y11896472D01*
X42024035Y11841761D01*
X42033505Y11824043D01*
X42060786Y11766363D01*
X42068480Y11747788D01*
X42089966Y11687741D01*
X42095814Y11668462D01*
X42111307Y11606608D01*
X42115230Y11586887D01*
X42124593Y11523769D01*
X42126562Y11503782D01*
X42129693Y11440049D01*
X42129693Y11419951D01*
X42126562Y11356218D01*
X42124593Y11336231D01*
X42115230Y11273113D01*
X42111307Y11253392D01*
X42095814Y11191538D01*
X42089966Y11172259D01*
X42068480Y11112212D01*
X42060786Y11093637D01*
X42033505Y11035957D01*
X42024035Y11018239D01*
X41991243Y10963528D01*
X41980062Y10946796D01*
X41942068Y10895566D01*
X41929308Y10880018D01*
X41886466Y10832750D01*
X41872250Y10818534D01*
X41824982Y10775692D01*
X41809434Y10762932D01*
X41758204Y10724938D01*
X41741472Y10713757D01*
X41686761Y10680965D01*
X41669043Y10671495D01*
X41611363Y10644214D01*
X41592788Y10636520D01*
X41532741Y10615034D01*
X41513462Y10609186D01*
X41451608Y10593693D01*
X41431887Y10589770D01*
X41368769Y10580407D01*
X41348782Y10578438D01*
X41285049Y10575307D01*
D02*
G37*
%LPC*%
G36*
X38745049Y10575307D02*
X38724951Y10575307D01*
X38661218Y10578438D01*
X38641231Y10580407D01*
X38578113Y10589770D01*
X38558392Y10593693D01*
X38496538Y10609186D01*
X38477259Y10615034D01*
X38417212Y10636520D01*
X38398637Y10644214D01*
X38340957Y10671495D01*
X38323239Y10680965D01*
X38268528Y10713757D01*
X38251796Y10724938D01*
X38200566Y10762932D01*
X38185018Y10775692D01*
X38137750Y10818534D01*
X38123534Y10832750D01*
X38080692Y10880018D01*
X38067932Y10895566D01*
X38029938Y10946796D01*
X38018757Y10963528D01*
X37985965Y11018239D01*
X37976495Y11035957D01*
X37949214Y11093637D01*
X37941520Y11112212D01*
X37920034Y11172259D01*
X37914186Y11191538D01*
X37898694Y11253388D01*
X37894770Y11273114D01*
X37885407Y11336234D01*
X37883438Y11356216D01*
X37880307Y11419952D01*
X37880307Y11440048D01*
X37883438Y11503784D01*
X37885407Y11523766D01*
X37894770Y11586886D01*
X37898694Y11606612D01*
X37914186Y11668462D01*
X37920034Y11687741D01*
X37941520Y11747788D01*
X37949214Y11766363D01*
X37976495Y11824043D01*
X37985965Y11841761D01*
X38018757Y11896472D01*
X38029938Y11913204D01*
X38067932Y11964434D01*
X38080692Y11979982D01*
X38123534Y12027250D01*
X38137750Y12041466D01*
X38185018Y12084308D01*
X38200566Y12097068D01*
X38251796Y12135062D01*
X38268528Y12146243D01*
X38323239Y12179035D01*
X38340957Y12188505D01*
X38398637Y12215786D01*
X38417212Y12223480D01*
X38477259Y12244966D01*
X38496538Y12250814D01*
X38558392Y12266307D01*
X38578113Y12270230D01*
X38641231Y12279593D01*
X38661218Y12281562D01*
X38724951Y12284693D01*
X38745049Y12284693D01*
X38808782Y12281562D01*
X38828769Y12279593D01*
X38891887Y12270230D01*
X38911608Y12266307D01*
X38973462Y12250814D01*
X38992741Y12244966D01*
X39052788Y12223480D01*
X39071363Y12215786D01*
X39129043Y12188505D01*
X39146761Y12179035D01*
X39201472Y12146243D01*
X39218204Y12135062D01*
X39269434Y12097068D01*
X39284982Y12084308D01*
X39332250Y12041466D01*
X39346466Y12027250D01*
X39389308Y11979982D01*
X39402068Y11964434D01*
X39440062Y11913204D01*
X39451243Y11896472D01*
X39484035Y11841761D01*
X39493505Y11824043D01*
X39520786Y11766363D01*
X39528480Y11747788D01*
X39549966Y11687741D01*
X39555814Y11668462D01*
X39571307Y11606608D01*
X39575230Y11586887D01*
X39584593Y11523769D01*
X39586562Y11503782D01*
X39589693Y11440049D01*
X39589693Y11419951D01*
X39586562Y11356218D01*
X39584593Y11336231D01*
X39575230Y11273113D01*
X39571307Y11253392D01*
X39555814Y11191538D01*
X39549966Y11172259D01*
X39528480Y11112212D01*
X39520786Y11093637D01*
X39493505Y11035957D01*
X39484035Y11018239D01*
X39451243Y10963528D01*
X39440062Y10946796D01*
X39402068Y10895566D01*
X39389308Y10880018D01*
X39346466Y10832750D01*
X39332250Y10818534D01*
X39284982Y10775692D01*
X39269434Y10762932D01*
X39218204Y10724938D01*
X39201472Y10713757D01*
X39146761Y10680965D01*
X39129043Y10671495D01*
X39071363Y10644214D01*
X39052788Y10636520D01*
X38992741Y10615034D01*
X38973462Y10609186D01*
X38911608Y10593693D01*
X38891887Y10589770D01*
X38828769Y10580407D01*
X38808782Y10578438D01*
X38745049Y10575307D01*
D02*
G37*
%LPC*%
G36*
X24775049Y10575307D02*
X24754951Y10575307D01*
X24691218Y10578438D01*
X24671231Y10580407D01*
X24608113Y10589770D01*
X24588392Y10593693D01*
X24526538Y10609186D01*
X24507259Y10615034D01*
X24447212Y10636520D01*
X24428637Y10644214D01*
X24370957Y10671495D01*
X24353239Y10680965D01*
X24298528Y10713757D01*
X24281796Y10724938D01*
X24230566Y10762932D01*
X24215018Y10775692D01*
X24167750Y10818534D01*
X24153534Y10832750D01*
X24110692Y10880018D01*
X24097932Y10895566D01*
X24059938Y10946796D01*
X24048757Y10963528D01*
X24015965Y11018239D01*
X24006495Y11035957D01*
X23979214Y11093637D01*
X23971520Y11112212D01*
X23950034Y11172259D01*
X23944186Y11191538D01*
X23928694Y11253388D01*
X23924770Y11273114D01*
X23915407Y11336234D01*
X23913438Y11356216D01*
X23910307Y11419952D01*
X23910307Y11440048D01*
X23913438Y11503784D01*
X23915407Y11523766D01*
X23924770Y11586886D01*
X23928694Y11606612D01*
X23944186Y11668462D01*
X23950034Y11687741D01*
X23971520Y11747788D01*
X23979214Y11766363D01*
X24006495Y11824043D01*
X24015965Y11841761D01*
X24048757Y11896472D01*
X24059938Y11913204D01*
X24097932Y11964434D01*
X24110692Y11979982D01*
X24153534Y12027250D01*
X24167750Y12041466D01*
X24215018Y12084308D01*
X24230566Y12097068D01*
X24281796Y12135062D01*
X24298528Y12146243D01*
X24353239Y12179035D01*
X24370957Y12188505D01*
X24428637Y12215786D01*
X24447212Y12223480D01*
X24507259Y12244966D01*
X24526538Y12250814D01*
X24588392Y12266307D01*
X24608113Y12270230D01*
X24671231Y12279593D01*
X24691218Y12281562D01*
X24754951Y12284693D01*
X24775049Y12284693D01*
X24838782Y12281562D01*
X24858769Y12279593D01*
X24921887Y12270230D01*
X24941608Y12266307D01*
X25003462Y12250814D01*
X25022741Y12244966D01*
X25082788Y12223480D01*
X25101363Y12215786D01*
X25159043Y12188505D01*
X25176761Y12179035D01*
X25231472Y12146243D01*
X25248204Y12135062D01*
X25299434Y12097068D01*
X25314982Y12084308D01*
X25362250Y12041466D01*
X25376466Y12027250D01*
X25419308Y11979982D01*
X25432068Y11964434D01*
X25470062Y11913204D01*
X25481243Y11896472D01*
X25514035Y11841761D01*
X25523505Y11824043D01*
X25550786Y11766363D01*
X25558480Y11747788D01*
X25579966Y11687741D01*
X25585814Y11668462D01*
X25601307Y11606608D01*
X25605230Y11586887D01*
X25614593Y11523769D01*
X25616562Y11503782D01*
X25619693Y11440049D01*
X25619693Y11419951D01*
X25616562Y11356218D01*
X25614593Y11336231D01*
X25605230Y11273113D01*
X25601307Y11253392D01*
X25585814Y11191538D01*
X25579966Y11172259D01*
X25558480Y11112212D01*
X25550786Y11093637D01*
X25523505Y11035957D01*
X25514035Y11018239D01*
X25481243Y10963528D01*
X25470062Y10946796D01*
X25432068Y10895566D01*
X25419308Y10880018D01*
X25376466Y10832750D01*
X25362250Y10818534D01*
X25314982Y10775692D01*
X25299434Y10762932D01*
X25248204Y10724938D01*
X25231472Y10713757D01*
X25176761Y10680965D01*
X25159043Y10671495D01*
X25101363Y10644214D01*
X25082788Y10636520D01*
X25022741Y10615034D01*
X25003462Y10609186D01*
X24941608Y10593693D01*
X24921887Y10589770D01*
X24858769Y10580407D01*
X24838782Y10578438D01*
X24775049Y10575307D01*
D02*
G37*
%LPC*%
G36*
X22235049Y10575307D02*
X22214951Y10575307D01*
X22151218Y10578438D01*
X22131231Y10580407D01*
X22068113Y10589770D01*
X22048392Y10593693D01*
X21986538Y10609186D01*
X21967259Y10615034D01*
X21907212Y10636520D01*
X21888637Y10644214D01*
X21830957Y10671495D01*
X21813239Y10680965D01*
X21758528Y10713757D01*
X21741796Y10724938D01*
X21690566Y10762932D01*
X21675018Y10775692D01*
X21627750Y10818534D01*
X21613534Y10832750D01*
X21570692Y10880018D01*
X21557932Y10895566D01*
X21519938Y10946796D01*
X21508757Y10963528D01*
X21475965Y11018239D01*
X21466495Y11035957D01*
X21439214Y11093637D01*
X21431520Y11112212D01*
X21410034Y11172259D01*
X21404186Y11191538D01*
X21388694Y11253388D01*
X21384770Y11273114D01*
X21375407Y11336234D01*
X21373438Y11356216D01*
X21370307Y11419952D01*
X21370307Y11440048D01*
X21373438Y11503784D01*
X21375407Y11523766D01*
X21384770Y11586886D01*
X21388694Y11606612D01*
X21404186Y11668462D01*
X21410034Y11687741D01*
X21431520Y11747788D01*
X21439214Y11766363D01*
X21466495Y11824043D01*
X21475965Y11841761D01*
X21508757Y11896472D01*
X21519938Y11913204D01*
X21557932Y11964434D01*
X21570692Y11979982D01*
X21613534Y12027250D01*
X21627750Y12041466D01*
X21675018Y12084308D01*
X21690566Y12097068D01*
X21741796Y12135062D01*
X21758528Y12146243D01*
X21813239Y12179035D01*
X21830957Y12188505D01*
X21888637Y12215786D01*
X21907212Y12223480D01*
X21967259Y12244966D01*
X21986538Y12250814D01*
X22048392Y12266307D01*
X22068113Y12270230D01*
X22131231Y12279593D01*
X22151218Y12281562D01*
X22214951Y12284693D01*
X22235049Y12284693D01*
X22298782Y12281562D01*
X22318769Y12279593D01*
X22381887Y12270230D01*
X22401608Y12266307D01*
X22463462Y12250814D01*
X22482741Y12244966D01*
X22542788Y12223480D01*
X22561363Y12215786D01*
X22619043Y12188505D01*
X22636761Y12179035D01*
X22691472Y12146243D01*
X22708204Y12135062D01*
X22759434Y12097068D01*
X22774982Y12084308D01*
X22822250Y12041466D01*
X22836466Y12027250D01*
X22879308Y11979982D01*
X22892068Y11964434D01*
X22930062Y11913204D01*
X22941243Y11896472D01*
X22974035Y11841761D01*
X22983505Y11824043D01*
X23010786Y11766363D01*
X23018480Y11747788D01*
X23039966Y11687741D01*
X23045814Y11668462D01*
X23061307Y11606608D01*
X23065230Y11586887D01*
X23074593Y11523769D01*
X23076562Y11503782D01*
X23079693Y11440049D01*
X23079693Y11419951D01*
X23076562Y11356218D01*
X23074593Y11336231D01*
X23065230Y11273113D01*
X23061307Y11253392D01*
X23045814Y11191538D01*
X23039966Y11172259D01*
X23018480Y11112212D01*
X23010786Y11093637D01*
X22983505Y11035957D01*
X22974035Y11018239D01*
X22941243Y10963528D01*
X22930062Y10946796D01*
X22892068Y10895566D01*
X22879308Y10880018D01*
X22836466Y10832750D01*
X22822250Y10818534D01*
X22774982Y10775692D01*
X22759434Y10762932D01*
X22708204Y10724938D01*
X22691472Y10713757D01*
X22636761Y10680965D01*
X22619043Y10671495D01*
X22561363Y10644214D01*
X22542788Y10636520D01*
X22482741Y10615034D01*
X22463462Y10609186D01*
X22401608Y10593693D01*
X22381887Y10589770D01*
X22318769Y10580407D01*
X22298782Y10578438D01*
X22235049Y10575307D01*
D02*
G37*
%LPC*%
G36*
X8265049Y10575307D02*
X8244951Y10575307D01*
X8181218Y10578438D01*
X8161231Y10580407D01*
X8098113Y10589770D01*
X8078392Y10593693D01*
X8016538Y10609186D01*
X7997259Y10615034D01*
X7937212Y10636520D01*
X7918637Y10644214D01*
X7860957Y10671495D01*
X7843239Y10680965D01*
X7788528Y10713757D01*
X7771796Y10724938D01*
X7720566Y10762932D01*
X7705018Y10775692D01*
X7657750Y10818534D01*
X7643534Y10832750D01*
X7600692Y10880018D01*
X7587932Y10895566D01*
X7549938Y10946796D01*
X7538757Y10963528D01*
X7505965Y11018239D01*
X7496495Y11035957D01*
X7469214Y11093637D01*
X7461520Y11112212D01*
X7440034Y11172259D01*
X7434186Y11191538D01*
X7418694Y11253388D01*
X7414770Y11273114D01*
X7405407Y11336234D01*
X7403438Y11356216D01*
X7400307Y11419952D01*
X7400307Y11440048D01*
X7403438Y11503784D01*
X7405407Y11523766D01*
X7414770Y11586886D01*
X7418694Y11606612D01*
X7434186Y11668462D01*
X7440034Y11687741D01*
X7461520Y11747788D01*
X7469214Y11766363D01*
X7496495Y11824043D01*
X7505965Y11841761D01*
X7538757Y11896472D01*
X7549938Y11913204D01*
X7587932Y11964434D01*
X7600692Y11979982D01*
X7643534Y12027250D01*
X7657750Y12041466D01*
X7705018Y12084308D01*
X7720566Y12097068D01*
X7771796Y12135062D01*
X7788528Y12146243D01*
X7843239Y12179035D01*
X7860957Y12188505D01*
X7918637Y12215786D01*
X7937212Y12223480D01*
X7997259Y12244966D01*
X8016538Y12250814D01*
X8078392Y12266307D01*
X8098113Y12270230D01*
X8161231Y12279593D01*
X8181218Y12281562D01*
X8244951Y12284693D01*
X8265049Y12284693D01*
X8328782Y12281562D01*
X8348769Y12279593D01*
X8411887Y12270230D01*
X8431608Y12266307D01*
X8493462Y12250814D01*
X8512741Y12244966D01*
X8572788Y12223480D01*
X8591363Y12215786D01*
X8649043Y12188505D01*
X8666761Y12179035D01*
X8721472Y12146243D01*
X8738204Y12135062D01*
X8789434Y12097068D01*
X8804982Y12084308D01*
X8852250Y12041466D01*
X8866466Y12027250D01*
X8909308Y11979982D01*
X8922068Y11964434D01*
X8960062Y11913204D01*
X8971243Y11896472D01*
X9004035Y11841761D01*
X9013505Y11824043D01*
X9040786Y11766363D01*
X9048480Y11747788D01*
X9069966Y11687741D01*
X9075814Y11668462D01*
X9091307Y11606608D01*
X9095230Y11586887D01*
X9104593Y11523769D01*
X9106562Y11503782D01*
X9109693Y11440049D01*
X9109693Y11419951D01*
X9106562Y11356218D01*
X9104593Y11336231D01*
X9095230Y11273113D01*
X9091307Y11253392D01*
X9075814Y11191538D01*
X9069966Y11172259D01*
X9048480Y11112212D01*
X9040786Y11093637D01*
X9013505Y11035957D01*
X9004035Y11018239D01*
X8971243Y10963528D01*
X8960062Y10946796D01*
X8922068Y10895566D01*
X8909308Y10880018D01*
X8866466Y10832750D01*
X8852250Y10818534D01*
X8804982Y10775692D01*
X8789434Y10762932D01*
X8738204Y10724938D01*
X8721472Y10713757D01*
X8666761Y10680965D01*
X8649043Y10671495D01*
X8591363Y10644214D01*
X8572788Y10636520D01*
X8512741Y10615034D01*
X8493462Y10609186D01*
X8431608Y10593693D01*
X8411887Y10589770D01*
X8348769Y10580407D01*
X8328782Y10578438D01*
X8265049Y10575307D01*
D02*
G37*
%LPC*%
G36*
X5725049Y10575307D02*
X5704951Y10575307D01*
X5641218Y10578438D01*
X5621231Y10580407D01*
X5558113Y10589770D01*
X5538392Y10593693D01*
X5476538Y10609186D01*
X5457259Y10615034D01*
X5397212Y10636520D01*
X5378637Y10644214D01*
X5320957Y10671495D01*
X5303239Y10680965D01*
X5248528Y10713757D01*
X5231796Y10724938D01*
X5180566Y10762932D01*
X5165018Y10775692D01*
X5117750Y10818534D01*
X5103534Y10832750D01*
X5060692Y10880018D01*
X5047932Y10895566D01*
X5009938Y10946796D01*
X4998757Y10963528D01*
X4965965Y11018239D01*
X4956495Y11035957D01*
X4929214Y11093637D01*
X4921520Y11112212D01*
X4900034Y11172259D01*
X4894186Y11191538D01*
X4878694Y11253388D01*
X4874770Y11273114D01*
X4865407Y11336234D01*
X4863438Y11356216D01*
X4860307Y11419952D01*
X4860307Y11440048D01*
X4863438Y11503784D01*
X4865407Y11523766D01*
X4874770Y11586886D01*
X4878694Y11606612D01*
X4894186Y11668462D01*
X4900034Y11687741D01*
X4921520Y11747788D01*
X4929214Y11766363D01*
X4956495Y11824043D01*
X4965965Y11841761D01*
X4998757Y11896472D01*
X5009938Y11913204D01*
X5047932Y11964434D01*
X5060692Y11979982D01*
X5103534Y12027250D01*
X5117750Y12041466D01*
X5165018Y12084308D01*
X5180566Y12097068D01*
X5231796Y12135062D01*
X5248528Y12146243D01*
X5303239Y12179035D01*
X5320957Y12188505D01*
X5378637Y12215786D01*
X5397212Y12223480D01*
X5457259Y12244966D01*
X5476538Y12250814D01*
X5538392Y12266307D01*
X5558113Y12270230D01*
X5621231Y12279593D01*
X5641218Y12281562D01*
X5704951Y12284693D01*
X5725049Y12284693D01*
X5788782Y12281562D01*
X5808769Y12279593D01*
X5871887Y12270230D01*
X5891608Y12266307D01*
X5953462Y12250814D01*
X5972741Y12244966D01*
X6032788Y12223480D01*
X6051363Y12215786D01*
X6109043Y12188505D01*
X6126761Y12179035D01*
X6181472Y12146243D01*
X6198204Y12135062D01*
X6249434Y12097068D01*
X6264982Y12084308D01*
X6312250Y12041466D01*
X6326466Y12027250D01*
X6369308Y11979982D01*
X6382068Y11964434D01*
X6420062Y11913204D01*
X6431243Y11896472D01*
X6464035Y11841761D01*
X6473505Y11824043D01*
X6500786Y11766363D01*
X6508480Y11747788D01*
X6529966Y11687741D01*
X6535814Y11668462D01*
X6551307Y11606608D01*
X6555230Y11586887D01*
X6564593Y11523769D01*
X6566562Y11503782D01*
X6569693Y11440049D01*
X6569693Y11419951D01*
X6566562Y11356218D01*
X6564593Y11336231D01*
X6555230Y11273113D01*
X6551307Y11253392D01*
X6535814Y11191538D01*
X6529966Y11172259D01*
X6508480Y11112212D01*
X6500786Y11093637D01*
X6473505Y11035957D01*
X6464035Y11018239D01*
X6431243Y10963528D01*
X6420062Y10946796D01*
X6382068Y10895566D01*
X6369308Y10880018D01*
X6326466Y10832750D01*
X6312250Y10818534D01*
X6264982Y10775692D01*
X6249434Y10762932D01*
X6198204Y10724938D01*
X6181472Y10713757D01*
X6126761Y10680965D01*
X6109043Y10671495D01*
X6051363Y10644214D01*
X6032788Y10636520D01*
X5972741Y10615034D01*
X5953462Y10609186D01*
X5891608Y10593693D01*
X5871887Y10589770D01*
X5808769Y10580407D01*
X5788782Y10578438D01*
X5725049Y10575307D01*
D02*
G37*
%LPC*%
G36*
X9420000Y8995000D02*
X8631581Y8995000D01*
X8642059Y9065634D01*
X8663523Y9151325D01*
X8693286Y9234505D01*
X8731060Y9314369D01*
X8776482Y9390154D01*
X8829101Y9461103D01*
X8888434Y9526566D01*
X8953897Y9585899D01*
X9024846Y9638518D01*
X9100631Y9683940D01*
X9180495Y9721714D01*
X9263678Y9751478D01*
X9349364Y9772940D01*
X9420000Y9783419D01*
X9420000Y8995000D01*
D02*
G37*
%LPC*%
G36*
X10418419Y8995000D02*
X9630000Y8995000D01*
X9630000Y9783419D01*
X9700636Y9772940D01*
X9786322Y9751478D01*
X9869505Y9721714D01*
X9949369Y9683940D01*
X10025154Y9638518D01*
X10096103Y9585899D01*
X10161566Y9526566D01*
X10220899Y9461103D01*
X10273518Y9390154D01*
X10318940Y9314369D01*
X10356714Y9234505D01*
X10386478Y9151322D01*
X10407940Y9065636D01*
X10418419Y8995000D01*
D02*
G37*
%LPC*%
G36*
X25930000Y8995000D02*
X25141581Y8995000D01*
X25152059Y9065634D01*
X25173523Y9151325D01*
X25203286Y9234505D01*
X25241060Y9314369D01*
X25286482Y9390154D01*
X25339101Y9461103D01*
X25398434Y9526566D01*
X25463897Y9585899D01*
X25534846Y9638518D01*
X25610631Y9683940D01*
X25690495Y9721714D01*
X25773678Y9751478D01*
X25859364Y9772940D01*
X25930000Y9783419D01*
X25930000Y8995000D01*
D02*
G37*
%LPC*%
G36*
X26928419Y8995000D02*
X26140000Y8995000D01*
X26140000Y9783419D01*
X26210636Y9772940D01*
X26296322Y9751478D01*
X26379505Y9721714D01*
X26459369Y9683940D01*
X26535154Y9638518D01*
X26606103Y9585899D01*
X26671566Y9526566D01*
X26730899Y9461103D01*
X26783518Y9390154D01*
X26828940Y9314369D01*
X26866714Y9234505D01*
X26896478Y9151322D01*
X26917940Y9065636D01*
X26928419Y8995000D01*
D02*
G37*
%LPC*%
G36*
X42440000Y8995000D02*
X41651581Y8995000D01*
X41662059Y9065634D01*
X41683523Y9151325D01*
X41713286Y9234505D01*
X41751060Y9314369D01*
X41796482Y9390154D01*
X41849101Y9461103D01*
X41908434Y9526566D01*
X41973897Y9585899D01*
X42044846Y9638518D01*
X42120631Y9683940D01*
X42200495Y9721714D01*
X42283678Y9751478D01*
X42369364Y9772940D01*
X42440000Y9783419D01*
X42440000Y8995000D01*
D02*
G37*
%LPC*%
G36*
X43438419Y8995000D02*
X42650000Y8995000D01*
X42650000Y9783419D01*
X42720636Y9772940D01*
X42806322Y9751478D01*
X42889505Y9721714D01*
X42969369Y9683940D01*
X43045154Y9638518D01*
X43116103Y9585899D01*
X43181566Y9526566D01*
X43240899Y9461103D01*
X43293518Y9390154D01*
X43338940Y9314369D01*
X43376714Y9234505D01*
X43406478Y9151322D01*
X43427940Y9065636D01*
X43438419Y8995000D01*
D02*
G37*
%LPC*%
G36*
X58950000Y8995000D02*
X58161581Y8995000D01*
X58172059Y9065634D01*
X58193523Y9151325D01*
X58223286Y9234505D01*
X58261060Y9314369D01*
X58306482Y9390154D01*
X58359101Y9461103D01*
X58418434Y9526566D01*
X58483897Y9585899D01*
X58554846Y9638518D01*
X58630631Y9683940D01*
X58710495Y9721714D01*
X58793678Y9751478D01*
X58879364Y9772940D01*
X58950000Y9783419D01*
X58950000Y8995000D01*
D02*
G37*
%LPC*%
G36*
X59948419Y8995000D02*
X59160000Y8995000D01*
X59160000Y9783419D01*
X59230636Y9772940D01*
X59316322Y9751478D01*
X59399505Y9721714D01*
X59479369Y9683940D01*
X59555154Y9638518D01*
X59626103Y9585899D01*
X59691566Y9526566D01*
X59750899Y9461103D01*
X59803518Y9390154D01*
X59848940Y9314369D01*
X59886714Y9234505D01*
X59916478Y9151322D01*
X59937940Y9065636D01*
X59948419Y8995000D01*
D02*
G37*
%LPC*%
G36*
X56525049Y8035307D02*
X56504951Y8035307D01*
X56441218Y8038438D01*
X56421231Y8040407D01*
X56358113Y8049770D01*
X56338392Y8053693D01*
X56276538Y8069186D01*
X56257259Y8075034D01*
X56197212Y8096520D01*
X56178637Y8104214D01*
X56120957Y8131495D01*
X56103239Y8140965D01*
X56048528Y8173757D01*
X56031796Y8184938D01*
X55980566Y8222932D01*
X55965018Y8235692D01*
X55917750Y8278534D01*
X55903534Y8292750D01*
X55860692Y8340018D01*
X55847932Y8355566D01*
X55809938Y8406796D01*
X55798757Y8423528D01*
X55765965Y8478239D01*
X55756495Y8495957D01*
X55729214Y8553637D01*
X55721520Y8572212D01*
X55700034Y8632259D01*
X55694186Y8651538D01*
X55678694Y8713388D01*
X55674770Y8733114D01*
X55665407Y8796234D01*
X55663438Y8816216D01*
X55660307Y8879952D01*
X55660307Y8900048D01*
X55663438Y8963784D01*
X55665407Y8983766D01*
X55674770Y9046886D01*
X55678694Y9066612D01*
X55694186Y9128462D01*
X55700034Y9147741D01*
X55721520Y9207788D01*
X55729214Y9226363D01*
X55756495Y9284043D01*
X55765965Y9301761D01*
X55798757Y9356472D01*
X55809938Y9373204D01*
X55847932Y9424434D01*
X55860692Y9439982D01*
X55903534Y9487250D01*
X55917750Y9501466D01*
X55965018Y9544308D01*
X55980566Y9557068D01*
X56031796Y9595062D01*
X56048528Y9606243D01*
X56103239Y9639035D01*
X56120957Y9648505D01*
X56178637Y9675786D01*
X56197212Y9683480D01*
X56257259Y9704966D01*
X56276538Y9710814D01*
X56338392Y9726307D01*
X56358113Y9730230D01*
X56421231Y9739593D01*
X56441218Y9741562D01*
X56504951Y9744693D01*
X56525049Y9744693D01*
X56588782Y9741562D01*
X56608769Y9739593D01*
X56671887Y9730230D01*
X56691608Y9726307D01*
X56753462Y9710814D01*
X56772741Y9704966D01*
X56832788Y9683480D01*
X56851363Y9675786D01*
X56909043Y9648505D01*
X56926761Y9639035D01*
X56981472Y9606243D01*
X56998204Y9595062D01*
X57049434Y9557068D01*
X57064982Y9544308D01*
X57112250Y9501466D01*
X57126466Y9487250D01*
X57169308Y9439982D01*
X57182068Y9424434D01*
X57220062Y9373204D01*
X57231243Y9356472D01*
X57264035Y9301761D01*
X57273505Y9284043D01*
X57300786Y9226363D01*
X57308480Y9207788D01*
X57329966Y9147741D01*
X57335814Y9128462D01*
X57351307Y9066608D01*
X57355230Y9046887D01*
X57364593Y8983769D01*
X57366562Y8963782D01*
X57369693Y8900049D01*
X57369693Y8879951D01*
X57366562Y8816218D01*
X57364593Y8796231D01*
X57355230Y8733113D01*
X57351307Y8713392D01*
X57335814Y8651538D01*
X57329966Y8632259D01*
X57308480Y8572212D01*
X57300786Y8553637D01*
X57273505Y8495957D01*
X57264035Y8478239D01*
X57231243Y8423528D01*
X57220062Y8406796D01*
X57182068Y8355566D01*
X57169308Y8340018D01*
X57126466Y8292750D01*
X57112250Y8278534D01*
X57064982Y8235692D01*
X57049434Y8222932D01*
X56998204Y8184938D01*
X56981472Y8173757D01*
X56926761Y8140965D01*
X56909043Y8131495D01*
X56851363Y8104214D01*
X56832788Y8096520D01*
X56772741Y8075034D01*
X56753462Y8069186D01*
X56691608Y8053693D01*
X56671887Y8049770D01*
X56608769Y8040407D01*
X56588782Y8038438D01*
X56525049Y8035307D01*
D02*
G37*
%LPC*%
G36*
X40015049Y8035307D02*
X39994951Y8035307D01*
X39931218Y8038438D01*
X39911231Y8040407D01*
X39848113Y8049770D01*
X39828392Y8053693D01*
X39766538Y8069186D01*
X39747259Y8075034D01*
X39687212Y8096520D01*
X39668637Y8104214D01*
X39610957Y8131495D01*
X39593239Y8140965D01*
X39538528Y8173757D01*
X39521796Y8184938D01*
X39470566Y8222932D01*
X39455018Y8235692D01*
X39407750Y8278534D01*
X39393534Y8292750D01*
X39350692Y8340018D01*
X39337932Y8355566D01*
X39299938Y8406796D01*
X39288757Y8423528D01*
X39255965Y8478239D01*
X39246495Y8495957D01*
X39219214Y8553637D01*
X39211520Y8572212D01*
X39190034Y8632259D01*
X39184186Y8651538D01*
X39168694Y8713388D01*
X39164770Y8733114D01*
X39155407Y8796234D01*
X39153438Y8816216D01*
X39150307Y8879952D01*
X39150307Y8900048D01*
X39153438Y8963784D01*
X39155407Y8983766D01*
X39164770Y9046886D01*
X39168694Y9066612D01*
X39184186Y9128462D01*
X39190034Y9147741D01*
X39211520Y9207788D01*
X39219214Y9226363D01*
X39246495Y9284043D01*
X39255965Y9301761D01*
X39288757Y9356472D01*
X39299938Y9373204D01*
X39337932Y9424434D01*
X39350692Y9439982D01*
X39393534Y9487250D01*
X39407750Y9501466D01*
X39455018Y9544308D01*
X39470566Y9557068D01*
X39521796Y9595062D01*
X39538528Y9606243D01*
X39593239Y9639035D01*
X39610957Y9648505D01*
X39668637Y9675786D01*
X39687212Y9683480D01*
X39747259Y9704966D01*
X39766538Y9710814D01*
X39828392Y9726307D01*
X39848113Y9730230D01*
X39911231Y9739593D01*
X39931218Y9741562D01*
X39994951Y9744693D01*
X40015049Y9744693D01*
X40078782Y9741562D01*
X40098769Y9739593D01*
X40161887Y9730230D01*
X40181608Y9726307D01*
X40243462Y9710814D01*
X40262741Y9704966D01*
X40322788Y9683480D01*
X40341363Y9675786D01*
X40399043Y9648505D01*
X40416761Y9639035D01*
X40471472Y9606243D01*
X40488204Y9595062D01*
X40539434Y9557068D01*
X40554982Y9544308D01*
X40602250Y9501466D01*
X40616466Y9487250D01*
X40659308Y9439982D01*
X40672068Y9424434D01*
X40710062Y9373204D01*
X40721243Y9356472D01*
X40754035Y9301761D01*
X40763505Y9284043D01*
X40790786Y9226363D01*
X40798480Y9207788D01*
X40819966Y9147741D01*
X40825814Y9128462D01*
X40841307Y9066608D01*
X40845230Y9046887D01*
X40854593Y8983769D01*
X40856562Y8963782D01*
X40859693Y8900049D01*
X40859693Y8879951D01*
X40856562Y8816218D01*
X40854593Y8796231D01*
X40845230Y8733113D01*
X40841307Y8713392D01*
X40825814Y8651538D01*
X40819966Y8632259D01*
X40798480Y8572212D01*
X40790786Y8553637D01*
X40763505Y8495957D01*
X40754035Y8478239D01*
X40721243Y8423528D01*
X40710062Y8406796D01*
X40672068Y8355566D01*
X40659308Y8340018D01*
X40616466Y8292750D01*
X40602250Y8278534D01*
X40554982Y8235692D01*
X40539434Y8222932D01*
X40488204Y8184938D01*
X40471472Y8173757D01*
X40416761Y8140965D01*
X40399043Y8131495D01*
X40341363Y8104214D01*
X40322788Y8096520D01*
X40262741Y8075034D01*
X40243462Y8069186D01*
X40181608Y8053693D01*
X40161887Y8049770D01*
X40098769Y8040407D01*
X40078782Y8038438D01*
X40015049Y8035307D01*
D02*
G37*
%LPC*%
G36*
X23505049Y8035307D02*
X23484951Y8035307D01*
X23421218Y8038438D01*
X23401231Y8040407D01*
X23338113Y8049770D01*
X23318392Y8053693D01*
X23256538Y8069186D01*
X23237259Y8075034D01*
X23177212Y8096520D01*
X23158637Y8104214D01*
X23100957Y8131495D01*
X23083239Y8140965D01*
X23028528Y8173757D01*
X23011796Y8184938D01*
X22960566Y8222932D01*
X22945018Y8235692D01*
X22897750Y8278534D01*
X22883534Y8292750D01*
X22840692Y8340018D01*
X22827932Y8355566D01*
X22789938Y8406796D01*
X22778757Y8423528D01*
X22745965Y8478239D01*
X22736495Y8495957D01*
X22709214Y8553637D01*
X22701520Y8572212D01*
X22680034Y8632259D01*
X22674186Y8651538D01*
X22658694Y8713388D01*
X22654770Y8733114D01*
X22645407Y8796234D01*
X22643438Y8816216D01*
X22640307Y8879952D01*
X22640307Y8900048D01*
X22643438Y8963784D01*
X22645407Y8983766D01*
X22654770Y9046886D01*
X22658694Y9066612D01*
X22674186Y9128462D01*
X22680034Y9147741D01*
X22701520Y9207788D01*
X22709214Y9226363D01*
X22736495Y9284043D01*
X22745965Y9301761D01*
X22778757Y9356472D01*
X22789938Y9373204D01*
X22827932Y9424434D01*
X22840692Y9439982D01*
X22883534Y9487250D01*
X22897750Y9501466D01*
X22945018Y9544308D01*
X22960566Y9557068D01*
X23011796Y9595062D01*
X23028528Y9606243D01*
X23083239Y9639035D01*
X23100957Y9648505D01*
X23158637Y9675786D01*
X23177212Y9683480D01*
X23237259Y9704966D01*
X23256538Y9710814D01*
X23318392Y9726307D01*
X23338113Y9730230D01*
X23401231Y9739593D01*
X23421218Y9741562D01*
X23484951Y9744693D01*
X23505049Y9744693D01*
X23568782Y9741562D01*
X23588769Y9739593D01*
X23651887Y9730230D01*
X23671608Y9726307D01*
X23733462Y9710814D01*
X23752741Y9704966D01*
X23812788Y9683480D01*
X23831363Y9675786D01*
X23889043Y9648505D01*
X23906761Y9639035D01*
X23961472Y9606243D01*
X23978204Y9595062D01*
X24029434Y9557068D01*
X24044982Y9544308D01*
X24092250Y9501466D01*
X24106466Y9487250D01*
X24149308Y9439982D01*
X24162068Y9424434D01*
X24200062Y9373204D01*
X24211243Y9356472D01*
X24244035Y9301761D01*
X24253505Y9284043D01*
X24280786Y9226363D01*
X24288480Y9207788D01*
X24309966Y9147741D01*
X24315814Y9128462D01*
X24331307Y9066608D01*
X24335230Y9046887D01*
X24344593Y8983769D01*
X24346562Y8963782D01*
X24349693Y8900049D01*
X24349693Y8879951D01*
X24346562Y8816218D01*
X24344593Y8796231D01*
X24335230Y8733113D01*
X24331307Y8713392D01*
X24315814Y8651538D01*
X24309966Y8632259D01*
X24288480Y8572212D01*
X24280786Y8553637D01*
X24253505Y8495957D01*
X24244035Y8478239D01*
X24211243Y8423528D01*
X24200062Y8406796D01*
X24162068Y8355566D01*
X24149308Y8340018D01*
X24106466Y8292750D01*
X24092250Y8278534D01*
X24044982Y8235692D01*
X24029434Y8222932D01*
X23978204Y8184938D01*
X23961472Y8173757D01*
X23906761Y8140965D01*
X23889043Y8131495D01*
X23831363Y8104214D01*
X23812788Y8096520D01*
X23752741Y8075034D01*
X23733462Y8069186D01*
X23671608Y8053693D01*
X23651887Y8049770D01*
X23588769Y8040407D01*
X23568782Y8038438D01*
X23505049Y8035307D01*
D02*
G37*
%LPC*%
G36*
X6995049Y8035307D02*
X6974951Y8035307D01*
X6911218Y8038438D01*
X6891231Y8040407D01*
X6828113Y8049770D01*
X6808392Y8053693D01*
X6746538Y8069186D01*
X6727259Y8075034D01*
X6667212Y8096520D01*
X6648637Y8104214D01*
X6590957Y8131495D01*
X6573239Y8140965D01*
X6518528Y8173757D01*
X6501796Y8184938D01*
X6450566Y8222932D01*
X6435018Y8235692D01*
X6387750Y8278534D01*
X6373534Y8292750D01*
X6330692Y8340018D01*
X6317932Y8355566D01*
X6279938Y8406796D01*
X6268757Y8423528D01*
X6235965Y8478239D01*
X6226495Y8495957D01*
X6199214Y8553637D01*
X6191520Y8572212D01*
X6170034Y8632259D01*
X6164186Y8651538D01*
X6148694Y8713388D01*
X6144770Y8733114D01*
X6135407Y8796234D01*
X6133438Y8816216D01*
X6130307Y8879952D01*
X6130307Y8900048D01*
X6133438Y8963784D01*
X6135407Y8983766D01*
X6144770Y9046886D01*
X6148694Y9066612D01*
X6164186Y9128462D01*
X6170034Y9147741D01*
X6191520Y9207788D01*
X6199214Y9226363D01*
X6226495Y9284043D01*
X6235965Y9301761D01*
X6268757Y9356472D01*
X6279938Y9373204D01*
X6317932Y9424434D01*
X6330692Y9439982D01*
X6373534Y9487250D01*
X6387750Y9501466D01*
X6435018Y9544308D01*
X6450566Y9557068D01*
X6501796Y9595062D01*
X6518528Y9606243D01*
X6573239Y9639035D01*
X6590957Y9648505D01*
X6648637Y9675786D01*
X6667212Y9683480D01*
X6727259Y9704966D01*
X6746538Y9710814D01*
X6808392Y9726307D01*
X6828113Y9730230D01*
X6891231Y9739593D01*
X6911218Y9741562D01*
X6974951Y9744693D01*
X6995049Y9744693D01*
X7058782Y9741562D01*
X7078769Y9739593D01*
X7141887Y9730230D01*
X7161608Y9726307D01*
X7223462Y9710814D01*
X7242741Y9704966D01*
X7302788Y9683480D01*
X7321363Y9675786D01*
X7379043Y9648505D01*
X7396761Y9639035D01*
X7451472Y9606243D01*
X7468204Y9595062D01*
X7519434Y9557068D01*
X7534982Y9544308D01*
X7582250Y9501466D01*
X7596466Y9487250D01*
X7639308Y9439982D01*
X7652068Y9424434D01*
X7690062Y9373204D01*
X7701243Y9356472D01*
X7734035Y9301761D01*
X7743505Y9284043D01*
X7770786Y9226363D01*
X7778480Y9207788D01*
X7799966Y9147741D01*
X7805814Y9128462D01*
X7821307Y9066608D01*
X7825230Y9046887D01*
X7834593Y8983769D01*
X7836562Y8963782D01*
X7839693Y8900049D01*
X7839693Y8879951D01*
X7836562Y8816218D01*
X7834593Y8796231D01*
X7825230Y8733113D01*
X7821307Y8713392D01*
X7805814Y8651538D01*
X7799966Y8632259D01*
X7778480Y8572212D01*
X7770786Y8553637D01*
X7743505Y8495957D01*
X7734035Y8478239D01*
X7701243Y8423528D01*
X7690062Y8406796D01*
X7652068Y8355566D01*
X7639308Y8340018D01*
X7596466Y8292750D01*
X7582250Y8278534D01*
X7534982Y8235692D01*
X7519434Y8222932D01*
X7468204Y8184938D01*
X7451472Y8173757D01*
X7396761Y8140965D01*
X7379043Y8131495D01*
X7321363Y8104214D01*
X7302788Y8096520D01*
X7242741Y8075034D01*
X7223462Y8069186D01*
X7161608Y8053693D01*
X7141887Y8049770D01*
X7078769Y8040407D01*
X7058782Y8038438D01*
X6995049Y8035307D01*
D02*
G37*
%LPC*%
G36*
X42555074Y3455308D02*
X42534926Y3455308D01*
X42520246Y3456030D01*
X42500219Y3458002D01*
X42485694Y3460156D01*
X42465929Y3464087D01*
X42451655Y3467663D01*
X42432404Y3473503D01*
X42418560Y3478457D01*
X42399987Y3486151D01*
X42386668Y3492449D01*
X42368928Y3501931D01*
X42356305Y3509497D01*
X42339587Y3520669D01*
X42327753Y3529445D01*
X42312213Y3542198D01*
X42301314Y3552076D01*
X42287076Y3566314D01*
X42277198Y3577213D01*
X42264445Y3592753D01*
X42255669Y3604587D01*
X42244497Y3621305D01*
X42236931Y3633928D01*
X42227449Y3651668D01*
X42221151Y3664987D01*
X42213457Y3683560D01*
X42208503Y3697404D01*
X42202663Y3716655D01*
X42199087Y3730929D01*
X42195156Y3750694D01*
X42193002Y3765219D01*
X42191030Y3785246D01*
X42190308Y3799926D01*
X42190308Y3820074D01*
X42191030Y3834754D01*
X42193002Y3854781D01*
X42195156Y3869306D01*
X42199087Y3889071D01*
X42202663Y3903345D01*
X42208503Y3922596D01*
X42213457Y3936440D01*
X42221151Y3955013D01*
X42227449Y3968332D01*
X42236931Y3986072D01*
X42244497Y3998695D01*
X42255669Y4015413D01*
X42264445Y4027247D01*
X42277198Y4042787D01*
X42287076Y4053686D01*
X42301314Y4067924D01*
X42312213Y4077802D01*
X42327753Y4090555D01*
X42339587Y4099331D01*
X42356305Y4110503D01*
X42368928Y4118069D01*
X42386668Y4127551D01*
X42399987Y4133849D01*
X42418560Y4141543D01*
X42432404Y4146497D01*
X42451655Y4152337D01*
X42465929Y4155913D01*
X42485694Y4159844D01*
X42500219Y4161998D01*
X42520246Y4163970D01*
X42537387Y4164813D01*
X42537350Y4165575D01*
X42572006Y4172612D01*
X42603713Y4193981D01*
X44190711Y5780979D01*
X44212690Y5814159D01*
X44220000Y5851690D01*
X44220000Y8576968D01*
X44212080Y8615972D01*
X44193191Y8643999D01*
X44193731Y8644488D01*
X44182198Y8657213D01*
X44169445Y8672753D01*
X44160669Y8684587D01*
X44149497Y8701305D01*
X44141931Y8713928D01*
X44132449Y8731668D01*
X44126151Y8744987D01*
X44118457Y8763560D01*
X44113503Y8777404D01*
X44107663Y8796655D01*
X44104087Y8810929D01*
X44100156Y8830694D01*
X44098002Y8845219D01*
X44096030Y8865246D01*
X44095308Y8879926D01*
X44095308Y8900074D01*
X44096030Y8914754D01*
X44098002Y8934781D01*
X44100156Y8949306D01*
X44104087Y8969071D01*
X44107663Y8983345D01*
X44113503Y9002596D01*
X44118457Y9016440D01*
X44126151Y9035013D01*
X44132449Y9048332D01*
X44141931Y9066072D01*
X44149497Y9078695D01*
X44160669Y9095413D01*
X44169445Y9107247D01*
X44182198Y9122787D01*
X44192076Y9133686D01*
X44206314Y9147924D01*
X44217213Y9157802D01*
X44232753Y9170555D01*
X44244587Y9179331D01*
X44261305Y9190503D01*
X44273928Y9198069D01*
X44291668Y9207551D01*
X44304987Y9213849D01*
X44323560Y9221543D01*
X44337404Y9226497D01*
X44356655Y9232337D01*
X44370929Y9235913D01*
X44390694Y9239844D01*
X44405219Y9241998D01*
X44425246Y9243970D01*
X44439926Y9244692D01*
X44460074Y9244692D01*
X44474754Y9243970D01*
X44494781Y9241998D01*
X44509306Y9239844D01*
X44529071Y9235913D01*
X44543345Y9232337D01*
X44562596Y9226497D01*
X44576440Y9221543D01*
X44595013Y9213849D01*
X44608332Y9207551D01*
X44626072Y9198069D01*
X44638695Y9190503D01*
X44655413Y9179331D01*
X44667247Y9170555D01*
X44682787Y9157802D01*
X44693686Y9147924D01*
X44707924Y9133686D01*
X44717802Y9122787D01*
X44730555Y9107247D01*
X44739331Y9095413D01*
X44750503Y9078695D01*
X44758069Y9066072D01*
X44767551Y9048332D01*
X44773849Y9035013D01*
X44781543Y9016440D01*
X44786497Y9002596D01*
X44792337Y8983345D01*
X44795913Y8969071D01*
X44799844Y8949306D01*
X44801998Y8934781D01*
X44803970Y8914754D01*
X44804692Y8900074D01*
X44804692Y8879926D01*
X44803970Y8865246D01*
X44801998Y8845219D01*
X44799844Y8830694D01*
X44795913Y8810929D01*
X44792337Y8796655D01*
X44786497Y8777404D01*
X44781543Y8763560D01*
X44773849Y8744987D01*
X44767551Y8731668D01*
X44758069Y8713928D01*
X44750503Y8701305D01*
X44739331Y8684587D01*
X44730555Y8672753D01*
X44717802Y8657213D01*
X44706269Y8644488D01*
X44706835Y8643975D01*
X44687310Y8614499D01*
X44680000Y8576968D01*
X44680000Y5717446D01*
X44679013Y5697366D01*
X44678293Y5690056D01*
X44670457Y5650672D01*
X44669044Y5646011D01*
X44653670Y5608894D01*
X44651379Y5604608D01*
X44629064Y5571207D01*
X44625849Y5567289D01*
X44611560Y5552892D01*
X44608495Y5548227D01*
X42928981Y3868713D01*
X42907002Y3835533D01*
X42900539Y3802351D01*
X42899813Y3802387D01*
X42898970Y3785246D01*
X42896998Y3765219D01*
X42894844Y3750694D01*
X42890913Y3730929D01*
X42887337Y3716655D01*
X42881497Y3697404D01*
X42876543Y3683560D01*
X42868849Y3664987D01*
X42862551Y3651668D01*
X42853069Y3633928D01*
X42845503Y3621305D01*
X42834331Y3604587D01*
X42825555Y3592753D01*
X42812802Y3577213D01*
X42802924Y3566314D01*
X42788686Y3552076D01*
X42777787Y3542198D01*
X42762247Y3529445D01*
X42750413Y3520669D01*
X42733695Y3509497D01*
X42721072Y3501931D01*
X42703332Y3492449D01*
X42690013Y3486151D01*
X42671440Y3478457D01*
X42657596Y3473503D01*
X42638345Y3467663D01*
X42624071Y3464087D01*
X42604306Y3460156D01*
X42589781Y3458002D01*
X42569754Y3456030D01*
X42555074Y3455308D01*
D02*
G37*
%LPC*%
G36*
X26045074Y3455308D02*
X26024926Y3455308D01*
X26010246Y3456030D01*
X25990219Y3458002D01*
X25975694Y3460156D01*
X25955929Y3464087D01*
X25941655Y3467663D01*
X25922404Y3473503D01*
X25908560Y3478457D01*
X25889987Y3486151D01*
X25876668Y3492449D01*
X25858928Y3501931D01*
X25846305Y3509497D01*
X25829587Y3520669D01*
X25817753Y3529445D01*
X25802213Y3542198D01*
X25791314Y3552076D01*
X25777076Y3566314D01*
X25767198Y3577213D01*
X25754445Y3592753D01*
X25745669Y3604587D01*
X25734497Y3621305D01*
X25726931Y3633928D01*
X25717449Y3651668D01*
X25711151Y3664987D01*
X25703457Y3683560D01*
X25698503Y3697404D01*
X25692663Y3716655D01*
X25689087Y3730929D01*
X25685156Y3750694D01*
X25683002Y3765219D01*
X25681030Y3785246D01*
X25680308Y3799926D01*
X25680308Y3820074D01*
X25681030Y3834754D01*
X25683002Y3854781D01*
X25685156Y3869306D01*
X25689087Y3889071D01*
X25692663Y3903345D01*
X25698503Y3922596D01*
X25703457Y3936440D01*
X25711151Y3955013D01*
X25717449Y3968332D01*
X25726931Y3986072D01*
X25734497Y3998695D01*
X25745669Y4015413D01*
X25754445Y4027247D01*
X25767198Y4042787D01*
X25777076Y4053686D01*
X25791314Y4067924D01*
X25802213Y4077802D01*
X25817753Y4090555D01*
X25829587Y4099331D01*
X25846305Y4110503D01*
X25858928Y4118069D01*
X25876668Y4127551D01*
X25889987Y4133849D01*
X25908560Y4141543D01*
X25922404Y4146497D01*
X25941655Y4152337D01*
X25955929Y4155913D01*
X25975694Y4159844D01*
X25990219Y4161998D01*
X26010246Y4163970D01*
X26027387Y4164813D01*
X26027350Y4165575D01*
X26062006Y4172612D01*
X26093713Y4193981D01*
X27680711Y5780979D01*
X27702690Y5814159D01*
X27710000Y5851690D01*
X27710000Y8576968D01*
X27702080Y8615972D01*
X27683191Y8643999D01*
X27683731Y8644488D01*
X27672198Y8657213D01*
X27659445Y8672753D01*
X27650669Y8684587D01*
X27639497Y8701305D01*
X27631931Y8713928D01*
X27622449Y8731668D01*
X27616151Y8744987D01*
X27608457Y8763560D01*
X27603503Y8777404D01*
X27597663Y8796655D01*
X27594087Y8810929D01*
X27590156Y8830694D01*
X27588002Y8845219D01*
X27586030Y8865246D01*
X27585308Y8879926D01*
X27585308Y8900074D01*
X27586030Y8914754D01*
X27588002Y8934781D01*
X27590156Y8949306D01*
X27594087Y8969071D01*
X27597663Y8983345D01*
X27603503Y9002596D01*
X27608457Y9016440D01*
X27616151Y9035013D01*
X27622449Y9048332D01*
X27631931Y9066072D01*
X27639497Y9078695D01*
X27650669Y9095413D01*
X27659445Y9107247D01*
X27672198Y9122787D01*
X27682076Y9133686D01*
X27696314Y9147924D01*
X27707213Y9157802D01*
X27722753Y9170555D01*
X27734587Y9179331D01*
X27751305Y9190503D01*
X27763928Y9198069D01*
X27781668Y9207551D01*
X27794987Y9213849D01*
X27813560Y9221543D01*
X27827404Y9226497D01*
X27846655Y9232337D01*
X27860929Y9235913D01*
X27880694Y9239844D01*
X27895219Y9241998D01*
X27915246Y9243970D01*
X27929926Y9244692D01*
X27950074Y9244692D01*
X27964754Y9243970D01*
X27984781Y9241998D01*
X27999306Y9239844D01*
X28019071Y9235913D01*
X28033345Y9232337D01*
X28052596Y9226497D01*
X28066440Y9221543D01*
X28085013Y9213849D01*
X28098332Y9207551D01*
X28116072Y9198069D01*
X28128695Y9190503D01*
X28145413Y9179331D01*
X28157247Y9170555D01*
X28172787Y9157802D01*
X28183686Y9147924D01*
X28197924Y9133686D01*
X28207802Y9122787D01*
X28220555Y9107247D01*
X28229331Y9095413D01*
X28240503Y9078695D01*
X28248069Y9066072D01*
X28257551Y9048332D01*
X28263849Y9035013D01*
X28271543Y9016440D01*
X28276497Y9002596D01*
X28282337Y8983345D01*
X28285913Y8969071D01*
X28289844Y8949306D01*
X28291998Y8934781D01*
X28293970Y8914754D01*
X28294692Y8900074D01*
X28294692Y8879926D01*
X28293970Y8865246D01*
X28291998Y8845219D01*
X28289844Y8830694D01*
X28285913Y8810929D01*
X28282337Y8796655D01*
X28276497Y8777404D01*
X28271543Y8763560D01*
X28263849Y8744987D01*
X28257551Y8731668D01*
X28248069Y8713928D01*
X28240503Y8701305D01*
X28229331Y8684587D01*
X28220555Y8672753D01*
X28207802Y8657213D01*
X28196269Y8644488D01*
X28196835Y8643975D01*
X28177310Y8614499D01*
X28170000Y8576968D01*
X28170000Y5717446D01*
X28169013Y5697366D01*
X28168293Y5690056D01*
X28160457Y5650672D01*
X28159044Y5646011D01*
X28143670Y5608894D01*
X28141379Y5604608D01*
X28119064Y5571207D01*
X28115849Y5567289D01*
X28101560Y5552892D01*
X28098495Y5548227D01*
X26418981Y3868713D01*
X26397002Y3835533D01*
X26390539Y3802351D01*
X26389813Y3802387D01*
X26388970Y3785246D01*
X26386998Y3765219D01*
X26384844Y3750694D01*
X26380913Y3730929D01*
X26377337Y3716655D01*
X26371497Y3697404D01*
X26366543Y3683560D01*
X26358849Y3664987D01*
X26352551Y3651668D01*
X26343069Y3633928D01*
X26335503Y3621305D01*
X26324331Y3604587D01*
X26315555Y3592753D01*
X26302802Y3577213D01*
X26292924Y3566314D01*
X26278686Y3552076D01*
X26267787Y3542198D01*
X26252247Y3529445D01*
X26240413Y3520669D01*
X26223695Y3509497D01*
X26211072Y3501931D01*
X26193332Y3492449D01*
X26180013Y3486151D01*
X26161440Y3478457D01*
X26147596Y3473503D01*
X26128345Y3467663D01*
X26114071Y3464087D01*
X26094306Y3460156D01*
X26079781Y3458002D01*
X26059754Y3456030D01*
X26045074Y3455308D01*
D02*
G37*
%LPC*%
G36*
X9535074Y3455308D02*
X9514926Y3455308D01*
X9500246Y3456030D01*
X9480219Y3458002D01*
X9465694Y3460156D01*
X9445929Y3464087D01*
X9431655Y3467663D01*
X9412404Y3473503D01*
X9398560Y3478457D01*
X9379987Y3486151D01*
X9366668Y3492449D01*
X9348928Y3501931D01*
X9336305Y3509497D01*
X9319587Y3520669D01*
X9307753Y3529445D01*
X9292213Y3542198D01*
X9281314Y3552076D01*
X9267076Y3566314D01*
X9257198Y3577213D01*
X9244445Y3592753D01*
X9235669Y3604587D01*
X9224497Y3621305D01*
X9216931Y3633928D01*
X9207449Y3651668D01*
X9201151Y3664987D01*
X9193457Y3683560D01*
X9188503Y3697404D01*
X9182663Y3716655D01*
X9179087Y3730929D01*
X9175156Y3750694D01*
X9173002Y3765219D01*
X9171030Y3785246D01*
X9170308Y3799926D01*
X9170308Y3820074D01*
X9171030Y3834754D01*
X9173002Y3854781D01*
X9175156Y3869306D01*
X9179087Y3889071D01*
X9182663Y3903345D01*
X9188503Y3922596D01*
X9193457Y3936440D01*
X9201151Y3955013D01*
X9207449Y3968332D01*
X9216931Y3986072D01*
X9224497Y3998695D01*
X9235669Y4015413D01*
X9244445Y4027247D01*
X9257198Y4042787D01*
X9267076Y4053686D01*
X9281314Y4067924D01*
X9292213Y4077802D01*
X9307753Y4090555D01*
X9319587Y4099331D01*
X9336305Y4110503D01*
X9348928Y4118069D01*
X9366668Y4127551D01*
X9379987Y4133849D01*
X9398560Y4141543D01*
X9412404Y4146497D01*
X9431655Y4152337D01*
X9445929Y4155913D01*
X9465694Y4159844D01*
X9480219Y4161998D01*
X9500246Y4163970D01*
X9517387Y4164813D01*
X9517350Y4165575D01*
X9552006Y4172612D01*
X9583713Y4193981D01*
X11170711Y5780979D01*
X11192690Y5814159D01*
X11200000Y5851690D01*
X11200000Y8576968D01*
X11192080Y8615972D01*
X11173191Y8643999D01*
X11173731Y8644488D01*
X11162198Y8657213D01*
X11149445Y8672753D01*
X11140669Y8684587D01*
X11129497Y8701305D01*
X11121931Y8713928D01*
X11112449Y8731668D01*
X11106151Y8744987D01*
X11098457Y8763560D01*
X11093503Y8777404D01*
X11087663Y8796655D01*
X11084087Y8810929D01*
X11080156Y8830694D01*
X11078002Y8845219D01*
X11076030Y8865246D01*
X11075308Y8879926D01*
X11075308Y8900074D01*
X11076030Y8914754D01*
X11078002Y8934781D01*
X11080156Y8949306D01*
X11084087Y8969071D01*
X11087663Y8983345D01*
X11093503Y9002596D01*
X11098457Y9016440D01*
X11106151Y9035013D01*
X11112449Y9048332D01*
X11121931Y9066072D01*
X11129497Y9078695D01*
X11140669Y9095413D01*
X11149445Y9107247D01*
X11162198Y9122787D01*
X11172076Y9133686D01*
X11186314Y9147924D01*
X11197213Y9157802D01*
X11212753Y9170555D01*
X11224587Y9179331D01*
X11241305Y9190503D01*
X11253928Y9198069D01*
X11271668Y9207551D01*
X11284987Y9213849D01*
X11303560Y9221543D01*
X11317404Y9226497D01*
X11336655Y9232337D01*
X11350929Y9235913D01*
X11370694Y9239844D01*
X11385219Y9241998D01*
X11405246Y9243970D01*
X11419926Y9244692D01*
X11440074Y9244692D01*
X11454754Y9243970D01*
X11474781Y9241998D01*
X11489306Y9239844D01*
X11509071Y9235913D01*
X11523345Y9232337D01*
X11542596Y9226497D01*
X11556440Y9221543D01*
X11575013Y9213849D01*
X11588332Y9207551D01*
X11606072Y9198069D01*
X11618695Y9190503D01*
X11635413Y9179331D01*
X11647247Y9170555D01*
X11662787Y9157802D01*
X11673686Y9147924D01*
X11687924Y9133686D01*
X11697802Y9122787D01*
X11710555Y9107247D01*
X11719331Y9095413D01*
X11730503Y9078695D01*
X11738069Y9066072D01*
X11747551Y9048332D01*
X11753849Y9035013D01*
X11761543Y9016440D01*
X11766497Y9002596D01*
X11772337Y8983345D01*
X11775913Y8969071D01*
X11779844Y8949306D01*
X11781998Y8934781D01*
X11783970Y8914754D01*
X11784692Y8900074D01*
X11784692Y8879926D01*
X11783970Y8865246D01*
X11781998Y8845219D01*
X11779844Y8830694D01*
X11775913Y8810929D01*
X11772337Y8796655D01*
X11766497Y8777404D01*
X11761543Y8763560D01*
X11753849Y8744987D01*
X11747551Y8731668D01*
X11738069Y8713928D01*
X11730503Y8701305D01*
X11719331Y8684587D01*
X11710555Y8672753D01*
X11697802Y8657213D01*
X11686269Y8644488D01*
X11686835Y8643975D01*
X11667310Y8614499D01*
X11660000Y8576968D01*
X11660000Y5717446D01*
X11659013Y5697366D01*
X11658293Y5690056D01*
X11650457Y5650672D01*
X11649044Y5646011D01*
X11633670Y5608894D01*
X11631379Y5604608D01*
X11609064Y5571207D01*
X11605849Y5567289D01*
X11591560Y5552892D01*
X11588495Y5548227D01*
X9908981Y3868713D01*
X9887002Y3835533D01*
X9880539Y3802351D01*
X9879813Y3802387D01*
X9878970Y3785246D01*
X9876998Y3765219D01*
X9874844Y3750694D01*
X9870913Y3730929D01*
X9867337Y3716655D01*
X9861497Y3697404D01*
X9856543Y3683560D01*
X9848849Y3664987D01*
X9842551Y3651668D01*
X9833069Y3633928D01*
X9825503Y3621305D01*
X9814331Y3604587D01*
X9805555Y3592753D01*
X9792802Y3577213D01*
X9782924Y3566314D01*
X9768686Y3552076D01*
X9757787Y3542198D01*
X9742247Y3529445D01*
X9730413Y3520669D01*
X9713695Y3509497D01*
X9701072Y3501931D01*
X9683332Y3492449D01*
X9670013Y3486151D01*
X9651440Y3478457D01*
X9637596Y3473503D01*
X9618345Y3467663D01*
X9604071Y3464087D01*
X9584306Y3460156D01*
X9569781Y3458002D01*
X9549754Y3456030D01*
X9535074Y3455308D01*
D02*
G37*
%LPC*%
G36*
X59160000Y7996581D02*
X59160000Y8785000D01*
X59948419Y8785000D01*
X59937940Y8714364D01*
X59916478Y8628678D01*
X59886714Y8545495D01*
X59848940Y8465631D01*
X59803518Y8389846D01*
X59750899Y8318897D01*
X59691566Y8253434D01*
X59626103Y8194101D01*
X59555154Y8141482D01*
X59479369Y8096060D01*
X59399505Y8058286D01*
X59316322Y8028522D01*
X59230636Y8007060D01*
X59160000Y7996581D01*
D02*
G37*
%LPC*%
G36*
X58950000Y7996581D02*
X58879364Y8007060D01*
X58793678Y8028522D01*
X58710495Y8058286D01*
X58630631Y8096060D01*
X58554846Y8141482D01*
X58483897Y8194101D01*
X58418434Y8253434D01*
X58359101Y8318897D01*
X58306482Y8389846D01*
X58261060Y8465631D01*
X58223286Y8545495D01*
X58193523Y8628675D01*
X58172059Y8714366D01*
X58161581Y8785000D01*
X58950000Y8785000D01*
X58950000Y7996581D01*
D02*
G37*
%LPC*%
G36*
X42650000Y7996581D02*
X42650000Y8785000D01*
X43438419Y8785000D01*
X43427940Y8714364D01*
X43406478Y8628678D01*
X43376714Y8545495D01*
X43338940Y8465631D01*
X43293518Y8389846D01*
X43240899Y8318897D01*
X43181566Y8253434D01*
X43116103Y8194101D01*
X43045154Y8141482D01*
X42969369Y8096060D01*
X42889505Y8058286D01*
X42806322Y8028522D01*
X42720636Y8007060D01*
X42650000Y7996581D01*
D02*
G37*
%LPC*%
G36*
X42440000Y7996581D02*
X42369364Y8007060D01*
X42283678Y8028522D01*
X42200495Y8058286D01*
X42120631Y8096060D01*
X42044846Y8141482D01*
X41973897Y8194101D01*
X41908434Y8253434D01*
X41849101Y8318897D01*
X41796482Y8389846D01*
X41751060Y8465631D01*
X41713286Y8545495D01*
X41683523Y8628675D01*
X41662059Y8714366D01*
X41651581Y8785000D01*
X42440000Y8785000D01*
X42440000Y7996581D01*
D02*
G37*
%LPC*%
G36*
X26140000Y7996581D02*
X26140000Y8785000D01*
X26928419Y8785000D01*
X26917940Y8714364D01*
X26896478Y8628678D01*
X26866714Y8545495D01*
X26828940Y8465631D01*
X26783518Y8389846D01*
X26730899Y8318897D01*
X26671566Y8253434D01*
X26606103Y8194101D01*
X26535154Y8141482D01*
X26459369Y8096060D01*
X26379505Y8058286D01*
X26296322Y8028522D01*
X26210636Y8007060D01*
X26140000Y7996581D01*
D02*
G37*
%LPC*%
G36*
X25930000Y7996581D02*
X25859364Y8007060D01*
X25773678Y8028522D01*
X25690495Y8058286D01*
X25610631Y8096060D01*
X25534846Y8141482D01*
X25463897Y8194101D01*
X25398434Y8253434D01*
X25339101Y8318897D01*
X25286482Y8389846D01*
X25241060Y8465631D01*
X25203286Y8545495D01*
X25173523Y8628675D01*
X25152059Y8714366D01*
X25141581Y8785000D01*
X25930000Y8785000D01*
X25930000Y7996581D01*
D02*
G37*
%LPC*%
G36*
X9630000Y7996581D02*
X9630000Y8785000D01*
X10418419Y8785000D01*
X10407940Y8714364D01*
X10386478Y8628678D01*
X10356714Y8545495D01*
X10318940Y8465631D01*
X10273518Y8389846D01*
X10220899Y8318897D01*
X10161566Y8253434D01*
X10096103Y8194101D01*
X10025154Y8141482D01*
X9949369Y8096060D01*
X9869505Y8058286D01*
X9786322Y8028522D01*
X9700636Y8007060D01*
X9630000Y7996581D01*
D02*
G37*
%LPC*%
G36*
X9420000Y7996581D02*
X9349364Y8007060D01*
X9263678Y8028522D01*
X9180495Y8058286D01*
X9100631Y8096060D01*
X9024846Y8141482D01*
X8953897Y8194101D01*
X8888434Y8253434D01*
X8829101Y8318897D01*
X8776482Y8389846D01*
X8731060Y8465631D01*
X8693286Y8545495D01*
X8663523Y8628675D01*
X8642059Y8714366D01*
X8631581Y8785000D01*
X9420000Y8785000D01*
X9420000Y7996581D01*
D02*
G37*
%LPC*%
G36*
X62247409Y585488D02*
X62212591Y585488D01*
X62055754Y593194D01*
X62021090Y596607D01*
X61865763Y619648D01*
X61831615Y626440D01*
X61679302Y664593D01*
X61645964Y674706D01*
X61498147Y727595D01*
X61465942Y740935D01*
X61324015Y808061D01*
X61293296Y824481D01*
X61158605Y905213D01*
X61129655Y924557D01*
X61003539Y1018090D01*
X60976603Y1040196D01*
X60860276Y1145628D01*
X60835628Y1170276D01*
X60730196Y1286603D01*
X60708090Y1313539D01*
X60614557Y1439655D01*
X60595213Y1468605D01*
X60514481Y1603296D01*
X60498061Y1634015D01*
X60430935Y1775942D01*
X60417595Y1808147D01*
X60364706Y1955964D01*
X60354593Y1989302D01*
X60316440Y2141615D01*
X60309648Y2175763D01*
X60286607Y2331090D01*
X60283194Y2365754D01*
X60275488Y2522591D01*
X60275488Y2557409D01*
X60283194Y2714259D01*
X60286606Y2748895D01*
X60309647Y2904225D01*
X60316444Y2938396D01*
X60354590Y3090686D01*
X60364710Y3124047D01*
X60417602Y3271869D01*
X60430929Y3304044D01*
X60498066Y3445994D01*
X60514481Y3476704D01*
X60595200Y3611376D01*
X60614564Y3640356D01*
X60708098Y3766472D01*
X60730188Y3793388D01*
X60835639Y3909736D01*
X60860264Y3934362D01*
X60976597Y4039801D01*
X61003539Y4061911D01*
X61129654Y4155443D01*
X61158615Y4174794D01*
X61293289Y4255515D01*
X61324015Y4271939D01*
X61465942Y4339065D01*
X61498147Y4352405D01*
X61645964Y4405294D01*
X61679302Y4415407D01*
X61831599Y4453556D01*
X61865780Y4460355D01*
X62021090Y4483392D01*
X62055756Y4486806D01*
X62212590Y4494512D01*
X62247410Y4494512D01*
X62404244Y4486806D01*
X62438910Y4483392D01*
X62594220Y4460355D01*
X62628401Y4453556D01*
X62780698Y4415407D01*
X62814036Y4405294D01*
X62961853Y4352405D01*
X62994058Y4339065D01*
X63135994Y4271934D01*
X63166704Y4255519D01*
X63301386Y4174794D01*
X63330346Y4155443D01*
X63456472Y4061902D01*
X63483391Y4039811D01*
X63599736Y3934362D01*
X63624361Y3909736D01*
X63729812Y3793388D01*
X63751902Y3766472D01*
X63845436Y3640356D01*
X63864800Y3611376D01*
X63945519Y3476704D01*
X63961934Y3445994D01*
X64029065Y3304058D01*
X64042405Y3271853D01*
X64095296Y3124031D01*
X64105406Y3090703D01*
X64143556Y2938396D01*
X64150353Y2904225D01*
X64173394Y2748895D01*
X64176806Y2714259D01*
X64184512Y2557409D01*
X64184512Y2522591D01*
X64176806Y2365754D01*
X64173393Y2331090D01*
X64150352Y2175763D01*
X64143560Y2141615D01*
X64105407Y1989302D01*
X64095294Y1955964D01*
X64042405Y1808147D01*
X64029065Y1775942D01*
X63961939Y1634015D01*
X63945519Y1603296D01*
X63864787Y1468605D01*
X63845443Y1439655D01*
X63751910Y1313539D01*
X63729804Y1286603D01*
X63624372Y1170276D01*
X63599724Y1145628D01*
X63483397Y1040196D01*
X63456461Y1018090D01*
X63330345Y924557D01*
X63301395Y905213D01*
X63166704Y824481D01*
X63135985Y808061D01*
X62994058Y740935D01*
X62961853Y727595D01*
X62814036Y674706D01*
X62780698Y664593D01*
X62628385Y626440D01*
X62594237Y619648D01*
X62438910Y596607D01*
X62404246Y593194D01*
X62247409Y585488D01*
D02*
G37*
%LPC*%
G36*
X52087409Y585488D02*
X52052591Y585488D01*
X51895754Y593194D01*
X51861090Y596607D01*
X51705763Y619648D01*
X51671615Y626440D01*
X51519302Y664593D01*
X51485964Y674706D01*
X51338147Y727595D01*
X51305942Y740935D01*
X51164015Y808061D01*
X51133296Y824481D01*
X50998605Y905213D01*
X50969655Y924557D01*
X50843539Y1018090D01*
X50816603Y1040196D01*
X50700276Y1145628D01*
X50675628Y1170276D01*
X50570196Y1286603D01*
X50548090Y1313539D01*
X50454557Y1439655D01*
X50435213Y1468605D01*
X50354481Y1603296D01*
X50338061Y1634015D01*
X50270935Y1775942D01*
X50257595Y1808147D01*
X50204706Y1955964D01*
X50194593Y1989302D01*
X50156440Y2141615D01*
X50149648Y2175763D01*
X50126607Y2331090D01*
X50123194Y2365754D01*
X50115488Y2522591D01*
X50115488Y2557409D01*
X50123194Y2714259D01*
X50126606Y2748895D01*
X50149647Y2904225D01*
X50156444Y2938396D01*
X50194590Y3090686D01*
X50204710Y3124047D01*
X50257602Y3271869D01*
X50270929Y3304044D01*
X50338066Y3445994D01*
X50354481Y3476704D01*
X50435200Y3611376D01*
X50454564Y3640356D01*
X50548098Y3766472D01*
X50570188Y3793388D01*
X50675639Y3909736D01*
X50700264Y3934362D01*
X50816597Y4039801D01*
X50843539Y4061911D01*
X50969654Y4155443D01*
X50998615Y4174794D01*
X51133289Y4255515D01*
X51164015Y4271939D01*
X51305942Y4339065D01*
X51338147Y4352405D01*
X51485964Y4405294D01*
X51519302Y4415407D01*
X51671599Y4453556D01*
X51705780Y4460355D01*
X51861090Y4483392D01*
X51895756Y4486806D01*
X52052590Y4494512D01*
X52087410Y4494512D01*
X52244244Y4486806D01*
X52278910Y4483392D01*
X52434220Y4460355D01*
X52468401Y4453556D01*
X52620698Y4415407D01*
X52654036Y4405294D01*
X52801853Y4352405D01*
X52834058Y4339065D01*
X52975994Y4271934D01*
X53006704Y4255519D01*
X53141386Y4174794D01*
X53170346Y4155443D01*
X53296472Y4061902D01*
X53323391Y4039811D01*
X53439736Y3934362D01*
X53464361Y3909736D01*
X53569812Y3793388D01*
X53591902Y3766472D01*
X53685436Y3640356D01*
X53704800Y3611376D01*
X53785519Y3476704D01*
X53801934Y3445994D01*
X53869065Y3304058D01*
X53882405Y3271853D01*
X53935296Y3124031D01*
X53945406Y3090703D01*
X53983556Y2938396D01*
X53990353Y2904225D01*
X54013394Y2748895D01*
X54016806Y2714259D01*
X54024512Y2557409D01*
X54024512Y2522591D01*
X54016806Y2365754D01*
X54013393Y2331090D01*
X53990352Y2175763D01*
X53983560Y2141615D01*
X53945407Y1989302D01*
X53935294Y1955964D01*
X53882405Y1808147D01*
X53869065Y1775942D01*
X53801939Y1634015D01*
X53785519Y1603296D01*
X53704787Y1468605D01*
X53685443Y1439655D01*
X53591910Y1313539D01*
X53569804Y1286603D01*
X53464372Y1170276D01*
X53439724Y1145628D01*
X53323397Y1040196D01*
X53296461Y1018090D01*
X53170345Y924557D01*
X53141395Y905213D01*
X53006704Y824481D01*
X52975985Y808061D01*
X52834058Y740935D01*
X52801853Y727595D01*
X52654036Y674706D01*
X52620698Y664593D01*
X52468385Y626440D01*
X52434237Y619648D01*
X52278910Y596607D01*
X52244246Y593194D01*
X52087409Y585488D01*
D02*
G37*
%LPC*%
G36*
X45737409Y585488D02*
X45702591Y585488D01*
X45545754Y593194D01*
X45511090Y596607D01*
X45355763Y619648D01*
X45321615Y626440D01*
X45169302Y664593D01*
X45135964Y674706D01*
X44988147Y727595D01*
X44955942Y740935D01*
X44814015Y808061D01*
X44783296Y824481D01*
X44648605Y905213D01*
X44619655Y924557D01*
X44493539Y1018090D01*
X44466603Y1040196D01*
X44350276Y1145628D01*
X44325628Y1170276D01*
X44220196Y1286603D01*
X44198090Y1313539D01*
X44104557Y1439655D01*
X44085213Y1468605D01*
X44004481Y1603296D01*
X43988061Y1634015D01*
X43920935Y1775942D01*
X43907595Y1808147D01*
X43854706Y1955964D01*
X43844593Y1989302D01*
X43806440Y2141615D01*
X43799648Y2175763D01*
X43776607Y2331090D01*
X43773194Y2365754D01*
X43765488Y2522591D01*
X43765488Y2557409D01*
X43773194Y2714259D01*
X43776606Y2748895D01*
X43799647Y2904225D01*
X43806444Y2938396D01*
X43844590Y3090686D01*
X43854710Y3124047D01*
X43907602Y3271869D01*
X43920929Y3304044D01*
X43988066Y3445994D01*
X44004481Y3476704D01*
X44085200Y3611376D01*
X44104564Y3640356D01*
X44198098Y3766472D01*
X44220188Y3793388D01*
X44325639Y3909736D01*
X44350264Y3934362D01*
X44466597Y4039801D01*
X44493539Y4061911D01*
X44619654Y4155443D01*
X44648615Y4174794D01*
X44783289Y4255515D01*
X44814015Y4271939D01*
X44955942Y4339065D01*
X44988147Y4352405D01*
X45135964Y4405294D01*
X45169302Y4415407D01*
X45321599Y4453556D01*
X45355780Y4460355D01*
X45511090Y4483392D01*
X45545756Y4486806D01*
X45702590Y4494512D01*
X45737410Y4494512D01*
X45894244Y4486806D01*
X45928910Y4483392D01*
X46084220Y4460355D01*
X46118401Y4453556D01*
X46270698Y4415407D01*
X46304036Y4405294D01*
X46451853Y4352405D01*
X46484058Y4339065D01*
X46625994Y4271934D01*
X46656704Y4255519D01*
X46791386Y4174794D01*
X46820346Y4155443D01*
X46946472Y4061902D01*
X46973391Y4039811D01*
X47089736Y3934362D01*
X47114361Y3909736D01*
X47219812Y3793388D01*
X47241902Y3766472D01*
X47335436Y3640356D01*
X47354800Y3611376D01*
X47435519Y3476704D01*
X47451934Y3445994D01*
X47519065Y3304058D01*
X47532405Y3271853D01*
X47585296Y3124031D01*
X47595406Y3090703D01*
X47633556Y2938396D01*
X47640353Y2904225D01*
X47663394Y2748895D01*
X47666806Y2714259D01*
X47674512Y2557409D01*
X47674512Y2522591D01*
X47666806Y2365754D01*
X47663393Y2331090D01*
X47640352Y2175763D01*
X47633560Y2141615D01*
X47595407Y1989302D01*
X47585294Y1955964D01*
X47532405Y1808147D01*
X47519065Y1775942D01*
X47451939Y1634015D01*
X47435519Y1603296D01*
X47354787Y1468605D01*
X47335443Y1439655D01*
X47241910Y1313539D01*
X47219804Y1286603D01*
X47114372Y1170276D01*
X47089724Y1145628D01*
X46973397Y1040196D01*
X46946461Y1018090D01*
X46820345Y924557D01*
X46791395Y905213D01*
X46656704Y824481D01*
X46625985Y808061D01*
X46484058Y740935D01*
X46451853Y727595D01*
X46304036Y674706D01*
X46270698Y664593D01*
X46118385Y626440D01*
X46084237Y619648D01*
X45928910Y596607D01*
X45894246Y593194D01*
X45737409Y585488D01*
D02*
G37*
%LPC*%
G36*
X35577409Y585488D02*
X35542591Y585488D01*
X35385754Y593194D01*
X35351090Y596607D01*
X35195763Y619648D01*
X35161615Y626440D01*
X35009302Y664593D01*
X34975964Y674706D01*
X34828147Y727595D01*
X34795942Y740935D01*
X34654015Y808061D01*
X34623296Y824481D01*
X34488605Y905213D01*
X34459655Y924557D01*
X34333539Y1018090D01*
X34306603Y1040196D01*
X34190276Y1145628D01*
X34165628Y1170276D01*
X34060196Y1286603D01*
X34038090Y1313539D01*
X33944557Y1439655D01*
X33925213Y1468605D01*
X33844481Y1603296D01*
X33828061Y1634015D01*
X33760935Y1775942D01*
X33747595Y1808147D01*
X33694706Y1955964D01*
X33684593Y1989302D01*
X33646440Y2141615D01*
X33639648Y2175763D01*
X33616607Y2331090D01*
X33613194Y2365754D01*
X33605488Y2522591D01*
X33605488Y2557409D01*
X33613194Y2714259D01*
X33616606Y2748895D01*
X33639647Y2904225D01*
X33646444Y2938396D01*
X33684590Y3090686D01*
X33694710Y3124047D01*
X33747602Y3271869D01*
X33760929Y3304044D01*
X33828066Y3445994D01*
X33844481Y3476704D01*
X33925200Y3611376D01*
X33944564Y3640356D01*
X34038098Y3766472D01*
X34060188Y3793388D01*
X34165639Y3909736D01*
X34190264Y3934362D01*
X34306597Y4039801D01*
X34333539Y4061911D01*
X34459654Y4155443D01*
X34488615Y4174794D01*
X34623289Y4255515D01*
X34654015Y4271939D01*
X34795942Y4339065D01*
X34828147Y4352405D01*
X34975964Y4405294D01*
X35009302Y4415407D01*
X35161599Y4453556D01*
X35195780Y4460355D01*
X35351090Y4483392D01*
X35385756Y4486806D01*
X35542590Y4494512D01*
X35577410Y4494512D01*
X35734244Y4486806D01*
X35768910Y4483392D01*
X35924220Y4460355D01*
X35958401Y4453556D01*
X36110698Y4415407D01*
X36144036Y4405294D01*
X36291853Y4352405D01*
X36324058Y4339065D01*
X36465994Y4271934D01*
X36496704Y4255519D01*
X36631386Y4174794D01*
X36660346Y4155443D01*
X36786472Y4061902D01*
X36813391Y4039811D01*
X36929736Y3934362D01*
X36954361Y3909736D01*
X37059812Y3793388D01*
X37081902Y3766472D01*
X37175436Y3640356D01*
X37194800Y3611376D01*
X37275519Y3476704D01*
X37291934Y3445994D01*
X37359065Y3304058D01*
X37372405Y3271853D01*
X37425296Y3124031D01*
X37435406Y3090703D01*
X37473556Y2938396D01*
X37480353Y2904225D01*
X37503394Y2748895D01*
X37506806Y2714259D01*
X37514512Y2557409D01*
X37514512Y2522591D01*
X37506806Y2365754D01*
X37503393Y2331090D01*
X37480352Y2175763D01*
X37473560Y2141615D01*
X37435407Y1989302D01*
X37425294Y1955964D01*
X37372405Y1808147D01*
X37359065Y1775942D01*
X37291939Y1634015D01*
X37275519Y1603296D01*
X37194787Y1468605D01*
X37175443Y1439655D01*
X37081910Y1313539D01*
X37059804Y1286603D01*
X36954372Y1170276D01*
X36929724Y1145628D01*
X36813397Y1040196D01*
X36786461Y1018090D01*
X36660345Y924557D01*
X36631395Y905213D01*
X36496704Y824481D01*
X36465985Y808061D01*
X36324058Y740935D01*
X36291853Y727595D01*
X36144036Y674706D01*
X36110698Y664593D01*
X35958385Y626440D01*
X35924237Y619648D01*
X35768910Y596607D01*
X35734246Y593194D01*
X35577409Y585488D01*
D02*
G37*
%LPC*%
G36*
X29227409Y585488D02*
X29192591Y585488D01*
X29035754Y593194D01*
X29001090Y596607D01*
X28845763Y619648D01*
X28811615Y626440D01*
X28659302Y664593D01*
X28625964Y674706D01*
X28478147Y727595D01*
X28445942Y740935D01*
X28304015Y808061D01*
X28273296Y824481D01*
X28138605Y905213D01*
X28109655Y924557D01*
X27983539Y1018090D01*
X27956603Y1040196D01*
X27840276Y1145628D01*
X27815628Y1170276D01*
X27710196Y1286603D01*
X27688090Y1313539D01*
X27594557Y1439655D01*
X27575213Y1468605D01*
X27494481Y1603296D01*
X27478061Y1634015D01*
X27410935Y1775942D01*
X27397595Y1808147D01*
X27344706Y1955964D01*
X27334593Y1989302D01*
X27296440Y2141615D01*
X27289648Y2175763D01*
X27266607Y2331090D01*
X27263194Y2365754D01*
X27255488Y2522591D01*
X27255488Y2557409D01*
X27263194Y2714259D01*
X27266606Y2748895D01*
X27289647Y2904225D01*
X27296444Y2938396D01*
X27334590Y3090686D01*
X27344710Y3124047D01*
X27397602Y3271869D01*
X27410929Y3304044D01*
X27478066Y3445994D01*
X27494481Y3476704D01*
X27575200Y3611376D01*
X27594564Y3640356D01*
X27688098Y3766472D01*
X27710188Y3793388D01*
X27815639Y3909736D01*
X27840264Y3934362D01*
X27956597Y4039801D01*
X27983539Y4061911D01*
X28109654Y4155443D01*
X28138615Y4174794D01*
X28273289Y4255515D01*
X28304015Y4271939D01*
X28445942Y4339065D01*
X28478147Y4352405D01*
X28625964Y4405294D01*
X28659302Y4415407D01*
X28811599Y4453556D01*
X28845780Y4460355D01*
X29001090Y4483392D01*
X29035756Y4486806D01*
X29192590Y4494512D01*
X29227410Y4494512D01*
X29384244Y4486806D01*
X29418910Y4483392D01*
X29574220Y4460355D01*
X29608401Y4453556D01*
X29760698Y4415407D01*
X29794036Y4405294D01*
X29941853Y4352405D01*
X29974058Y4339065D01*
X30115994Y4271934D01*
X30146704Y4255519D01*
X30281386Y4174794D01*
X30310346Y4155443D01*
X30436472Y4061902D01*
X30463391Y4039811D01*
X30579736Y3934362D01*
X30604361Y3909736D01*
X30709812Y3793388D01*
X30731902Y3766472D01*
X30825436Y3640356D01*
X30844800Y3611376D01*
X30925519Y3476704D01*
X30941934Y3445994D01*
X31009065Y3304058D01*
X31022405Y3271853D01*
X31075296Y3124031D01*
X31085406Y3090703D01*
X31123556Y2938396D01*
X31130353Y2904225D01*
X31153394Y2748895D01*
X31156806Y2714259D01*
X31164512Y2557409D01*
X31164512Y2522591D01*
X31156806Y2365754D01*
X31153393Y2331090D01*
X31130352Y2175763D01*
X31123560Y2141615D01*
X31085407Y1989302D01*
X31075294Y1955964D01*
X31022405Y1808147D01*
X31009065Y1775942D01*
X30941939Y1634015D01*
X30925519Y1603296D01*
X30844787Y1468605D01*
X30825443Y1439655D01*
X30731910Y1313539D01*
X30709804Y1286603D01*
X30604372Y1170276D01*
X30579724Y1145628D01*
X30463397Y1040196D01*
X30436461Y1018090D01*
X30310345Y924557D01*
X30281395Y905213D01*
X30146704Y824481D01*
X30115985Y808061D01*
X29974058Y740935D01*
X29941853Y727595D01*
X29794036Y674706D01*
X29760698Y664593D01*
X29608385Y626440D01*
X29574237Y619648D01*
X29418910Y596607D01*
X29384246Y593194D01*
X29227409Y585488D01*
D02*
G37*
%LPC*%
G36*
X19067409Y585488D02*
X19032591Y585488D01*
X18875754Y593194D01*
X18841090Y596607D01*
X18685763Y619648D01*
X18651615Y626440D01*
X18499302Y664593D01*
X18465964Y674706D01*
X18318147Y727595D01*
X18285942Y740935D01*
X18144015Y808061D01*
X18113296Y824481D01*
X17978605Y905213D01*
X17949655Y924557D01*
X17823539Y1018090D01*
X17796603Y1040196D01*
X17680276Y1145628D01*
X17655628Y1170276D01*
X17550196Y1286603D01*
X17528090Y1313539D01*
X17434557Y1439655D01*
X17415213Y1468605D01*
X17334481Y1603296D01*
X17318061Y1634015D01*
X17250935Y1775942D01*
X17237595Y1808147D01*
X17184706Y1955964D01*
X17174593Y1989302D01*
X17136440Y2141615D01*
X17129648Y2175763D01*
X17106607Y2331090D01*
X17103194Y2365754D01*
X17095488Y2522591D01*
X17095488Y2557409D01*
X17103194Y2714259D01*
X17106606Y2748895D01*
X17129647Y2904225D01*
X17136444Y2938396D01*
X17174590Y3090686D01*
X17184710Y3124047D01*
X17237602Y3271869D01*
X17250929Y3304044D01*
X17318066Y3445994D01*
X17334481Y3476704D01*
X17415200Y3611376D01*
X17434564Y3640356D01*
X17528098Y3766472D01*
X17550188Y3793388D01*
X17655639Y3909736D01*
X17680264Y3934362D01*
X17796597Y4039801D01*
X17823539Y4061911D01*
X17949654Y4155443D01*
X17978615Y4174794D01*
X18113289Y4255515D01*
X18144015Y4271939D01*
X18285942Y4339065D01*
X18318147Y4352405D01*
X18465964Y4405294D01*
X18499302Y4415407D01*
X18651599Y4453556D01*
X18685780Y4460355D01*
X18841090Y4483392D01*
X18875756Y4486806D01*
X19032590Y4494512D01*
X19067410Y4494512D01*
X19224244Y4486806D01*
X19258910Y4483392D01*
X19414220Y4460355D01*
X19448401Y4453556D01*
X19600698Y4415407D01*
X19634036Y4405294D01*
X19781853Y4352405D01*
X19814058Y4339065D01*
X19955994Y4271934D01*
X19986704Y4255519D01*
X20121386Y4174794D01*
X20150346Y4155443D01*
X20276472Y4061902D01*
X20303391Y4039811D01*
X20419736Y3934362D01*
X20444361Y3909736D01*
X20549812Y3793388D01*
X20571902Y3766472D01*
X20665436Y3640356D01*
X20684800Y3611376D01*
X20765519Y3476704D01*
X20781934Y3445994D01*
X20849065Y3304058D01*
X20862405Y3271853D01*
X20915296Y3124031D01*
X20925406Y3090703D01*
X20963556Y2938396D01*
X20970353Y2904225D01*
X20993394Y2748895D01*
X20996806Y2714259D01*
X21004512Y2557409D01*
X21004512Y2522591D01*
X20996806Y2365754D01*
X20993393Y2331090D01*
X20970352Y2175763D01*
X20963560Y2141615D01*
X20925407Y1989302D01*
X20915294Y1955964D01*
X20862405Y1808147D01*
X20849065Y1775942D01*
X20781939Y1634015D01*
X20765519Y1603296D01*
X20684787Y1468605D01*
X20665443Y1439655D01*
X20571910Y1313539D01*
X20549804Y1286603D01*
X20444372Y1170276D01*
X20419724Y1145628D01*
X20303397Y1040196D01*
X20276461Y1018090D01*
X20150345Y924557D01*
X20121395Y905213D01*
X19986704Y824481D01*
X19955985Y808061D01*
X19814058Y740935D01*
X19781853Y727595D01*
X19634036Y674706D01*
X19600698Y664593D01*
X19448385Y626440D01*
X19414237Y619648D01*
X19258910Y596607D01*
X19224246Y593194D01*
X19067409Y585488D01*
D02*
G37*
%LPC*%
G36*
X12717409Y585488D02*
X12682591Y585488D01*
X12525754Y593194D01*
X12491090Y596607D01*
X12335763Y619648D01*
X12301615Y626440D01*
X12149302Y664593D01*
X12115964Y674706D01*
X11968147Y727595D01*
X11935942Y740935D01*
X11794015Y808061D01*
X11763296Y824481D01*
X11628605Y905213D01*
X11599655Y924557D01*
X11473539Y1018090D01*
X11446603Y1040196D01*
X11330276Y1145628D01*
X11305628Y1170276D01*
X11200196Y1286603D01*
X11178090Y1313539D01*
X11084557Y1439655D01*
X11065213Y1468605D01*
X10984481Y1603296D01*
X10968061Y1634015D01*
X10900935Y1775942D01*
X10887595Y1808147D01*
X10834706Y1955964D01*
X10824593Y1989302D01*
X10786440Y2141615D01*
X10779648Y2175763D01*
X10756607Y2331090D01*
X10753194Y2365754D01*
X10745488Y2522591D01*
X10745488Y2557409D01*
X10753194Y2714259D01*
X10756606Y2748895D01*
X10779647Y2904225D01*
X10786444Y2938396D01*
X10824590Y3090686D01*
X10834710Y3124047D01*
X10887602Y3271869D01*
X10900929Y3304044D01*
X10968066Y3445994D01*
X10984481Y3476704D01*
X11065200Y3611376D01*
X11084564Y3640356D01*
X11178098Y3766472D01*
X11200188Y3793388D01*
X11305639Y3909736D01*
X11330264Y3934362D01*
X11446597Y4039801D01*
X11473539Y4061911D01*
X11599654Y4155443D01*
X11628615Y4174794D01*
X11763289Y4255515D01*
X11794015Y4271939D01*
X11935942Y4339065D01*
X11968147Y4352405D01*
X12115964Y4405294D01*
X12149302Y4415407D01*
X12301599Y4453556D01*
X12335780Y4460355D01*
X12491090Y4483392D01*
X12525756Y4486806D01*
X12682590Y4494512D01*
X12717410Y4494512D01*
X12874244Y4486806D01*
X12908910Y4483392D01*
X13064220Y4460355D01*
X13098401Y4453556D01*
X13250698Y4415407D01*
X13284036Y4405294D01*
X13431853Y4352405D01*
X13464058Y4339065D01*
X13605994Y4271934D01*
X13636704Y4255519D01*
X13771386Y4174794D01*
X13800346Y4155443D01*
X13926472Y4061902D01*
X13953391Y4039811D01*
X14069736Y3934362D01*
X14094361Y3909736D01*
X14199812Y3793388D01*
X14221902Y3766472D01*
X14315436Y3640356D01*
X14334800Y3611376D01*
X14415519Y3476704D01*
X14431934Y3445994D01*
X14499065Y3304058D01*
X14512405Y3271853D01*
X14565296Y3124031D01*
X14575406Y3090703D01*
X14613556Y2938396D01*
X14620353Y2904225D01*
X14643394Y2748895D01*
X14646806Y2714259D01*
X14654512Y2557409D01*
X14654512Y2522591D01*
X14646806Y2365754D01*
X14643393Y2331090D01*
X14620352Y2175763D01*
X14613560Y2141615D01*
X14575407Y1989302D01*
X14565294Y1955964D01*
X14512405Y1808147D01*
X14499065Y1775942D01*
X14431939Y1634015D01*
X14415519Y1603296D01*
X14334787Y1468605D01*
X14315443Y1439655D01*
X14221910Y1313539D01*
X14199804Y1286603D01*
X14094372Y1170276D01*
X14069724Y1145628D01*
X13953397Y1040196D01*
X13926461Y1018090D01*
X13800345Y924557D01*
X13771395Y905213D01*
X13636704Y824481D01*
X13605985Y808061D01*
X13464058Y740935D01*
X13431853Y727595D01*
X13284036Y674706D01*
X13250698Y664593D01*
X13098385Y626440D01*
X13064237Y619648D01*
X12908910Y596607D01*
X12874246Y593194D01*
X12717409Y585488D01*
D02*
G37*
%LPC*%
G36*
X2557409Y585488D02*
X2522591Y585488D01*
X2365754Y593194D01*
X2331090Y596607D01*
X2175763Y619648D01*
X2141615Y626440D01*
X1989302Y664593D01*
X1955964Y674706D01*
X1808147Y727595D01*
X1775942Y740935D01*
X1634015Y808061D01*
X1603296Y824481D01*
X1468605Y905213D01*
X1439655Y924557D01*
X1313539Y1018090D01*
X1286603Y1040196D01*
X1170276Y1145628D01*
X1145628Y1170276D01*
X1040196Y1286603D01*
X1018090Y1313539D01*
X924557Y1439655D01*
X905213Y1468605D01*
X824481Y1603296D01*
X808061Y1634015D01*
X740935Y1775942D01*
X727595Y1808147D01*
X674706Y1955964D01*
X664593Y1989302D01*
X626440Y2141615D01*
X619648Y2175763D01*
X596607Y2331090D01*
X593194Y2365754D01*
X585488Y2522591D01*
X585488Y2557409D01*
X593194Y2714259D01*
X596606Y2748895D01*
X619647Y2904225D01*
X626444Y2938396D01*
X664590Y3090686D01*
X674710Y3124047D01*
X727602Y3271869D01*
X740929Y3304044D01*
X808066Y3445994D01*
X824481Y3476704D01*
X905200Y3611376D01*
X924564Y3640356D01*
X1018098Y3766472D01*
X1040188Y3793388D01*
X1145639Y3909736D01*
X1170264Y3934362D01*
X1286597Y4039801D01*
X1313539Y4061911D01*
X1439654Y4155443D01*
X1468615Y4174794D01*
X1603289Y4255515D01*
X1634015Y4271939D01*
X1775942Y4339065D01*
X1808147Y4352405D01*
X1955964Y4405294D01*
X1989302Y4415407D01*
X2141599Y4453556D01*
X2175780Y4460355D01*
X2331090Y4483392D01*
X2365756Y4486806D01*
X2522590Y4494512D01*
X2557410Y4494512D01*
X2714244Y4486806D01*
X2748910Y4483392D01*
X2904220Y4460355D01*
X2938401Y4453556D01*
X3090698Y4415407D01*
X3124036Y4405294D01*
X3271853Y4352405D01*
X3304058Y4339065D01*
X3445994Y4271934D01*
X3476704Y4255519D01*
X3611386Y4174794D01*
X3640346Y4155443D01*
X3766472Y4061902D01*
X3793391Y4039811D01*
X3909736Y3934362D01*
X3934361Y3909736D01*
X4039812Y3793388D01*
X4061902Y3766472D01*
X4155436Y3640356D01*
X4174800Y3611376D01*
X4255519Y3476704D01*
X4271934Y3445994D01*
X4339065Y3304058D01*
X4352405Y3271853D01*
X4405296Y3124031D01*
X4415406Y3090703D01*
X4453556Y2938396D01*
X4460353Y2904225D01*
X4483394Y2748895D01*
X4486806Y2714259D01*
X4494512Y2557409D01*
X4494512Y2522591D01*
X4486806Y2365754D01*
X4483393Y2331090D01*
X4460352Y2175763D01*
X4453560Y2141615D01*
X4415407Y1989302D01*
X4405294Y1955964D01*
X4352405Y1808147D01*
X4339065Y1775942D01*
X4271939Y1634015D01*
X4255519Y1603296D01*
X4174787Y1468605D01*
X4155443Y1439655D01*
X4061910Y1313539D01*
X4039804Y1286603D01*
X3934372Y1170276D01*
X3909724Y1145628D01*
X3793397Y1040196D01*
X3766461Y1018090D01*
X3640345Y924557D01*
X3611395Y905213D01*
X3476704Y824481D01*
X3445985Y808061D01*
X3304058Y740935D01*
X3271853Y727595D01*
X3124036Y674706D01*
X3090698Y664593D01*
X2938385Y626440D01*
X2904237Y619648D01*
X2748910Y596607D01*
X2714246Y593194D01*
X2557409Y585488D01*
D02*
G37*
G01*
%LPD*%
D10*
X-500015Y33789985D02*
X-769985Y33520015D01*
D10*
X13589000Y19304000D02*
X14097000Y18796000D01*
D11*
X10287000Y26459278D02*
X10287000Y25908000D01*
D10*
X26824970Y23649970D02*
X37800802Y23649970D01*
D11*
X55128928Y28263960D02*
X12515960Y28263960D01*
D11*
X54967050Y27963950D02*
X12723950Y27963950D01*
D11*
X40349990Y26325010D02*
X41275000Y25400000D01*
D10*
X-769985Y33520015D02*
X-769985Y30480000D01*
D11*
X12091681Y28263959D02*
X10287000Y26459278D01*
D11*
X57150000Y27305000D02*
X57150000Y27310998D01*
D11*
X55524959Y27406041D02*
X54967050Y27963950D01*
D10*
X45974000Y22860000D02*
X46990000Y23876000D01*
D10*
X14351000Y31877000D02*
X14351000Y33147000D01*
D10*
X14351000Y33147000D02*
X13708015Y33789985D01*
D11*
X9271000Y26291834D02*
X9271000Y25400000D01*
D11*
X36801838Y24775000D02*
X38351848Y26325010D01*
D11*
X55626000Y29464000D02*
X12319000Y29464000D01*
D11*
X24765000Y25400000D02*
X25390000Y24775000D01*
D10*
X4699000Y19304000D02*
X13589000Y19304000D01*
D11*
X11430000Y5715000D02*
X11430000Y8890000D01*
D11*
X55377464Y28863980D02*
X12226980Y28863980D01*
D11*
X55824969Y26090031D02*
X55824969Y27567919D01*
D11*
X56724999Y27735999D02*
X56724999Y27940723D01*
D11*
X38351848Y26325010D02*
X40349990Y26325010D01*
D11*
X10795000Y26543000D02*
X10795000Y24511000D01*
D11*
X55524959Y25755041D02*
X55524959Y27406041D01*
D11*
X57150000Y27940000D02*
X55626000Y29464000D01*
D11*
X57150000Y27310998D02*
X56724999Y27735999D01*
D11*
X56724999Y27940723D02*
X55501732Y29163990D01*
D10*
X-769985Y19946985D02*
X-127000Y19304000D01*
D11*
X9779000Y26375556D02*
X9779000Y24511000D01*
D11*
X11967412Y28563968D02*
X9779000Y26375556D01*
D10*
X23225010Y24399990D02*
X37734990Y24399990D01*
D10*
X2159000Y30480000D02*
X-769985Y30480000D01*
D11*
X27940000Y5715000D02*
X27940000Y8890000D01*
D11*
X12723950Y27963950D02*
X12215950Y27963950D01*
D11*
X9525000Y3810000D02*
X11430000Y5715000D01*
D11*
X55824969Y27567919D02*
X55128928Y28263960D01*
D10*
X37800802Y23649970D02*
X39590782Y21859990D01*
D11*
X8763000Y26208112D02*
X8763000Y25908000D01*
D11*
X11594605Y29463995D02*
X8255000Y26124390D01*
D11*
X57150000Y26670000D02*
X56424989Y27395011D01*
D11*
X57150000Y25400000D02*
X56124979Y26425021D01*
D11*
X8255000Y26124390D02*
X8255000Y23495000D01*
D11*
X12434970Y28563970D02*
X11967412Y28563968D01*
D11*
X55253196Y28563970D02*
X12434970Y28563970D01*
D10*
X42545000Y22860000D02*
X45974000Y22860000D01*
D11*
X56424989Y27395011D02*
X56424989Y27816455D01*
D11*
X57150000Y24765000D02*
X55824969Y26090031D01*
D10*
X41544990Y21859990D02*
X42545000Y22860000D01*
D10*
X46990000Y23876000D02*
X48514000Y25400000D01*
D11*
X55501732Y29163990D02*
X12272990Y29163990D01*
D11*
X23495000Y22860000D02*
X24659980Y24024980D01*
D11*
X26035000Y3810000D02*
X27940000Y5715000D01*
D11*
X42545000Y3810000D02*
X44450000Y5715000D01*
D10*
X-769985Y30480000D02*
X-769985Y19946985D01*
D11*
X25390000Y24775000D02*
X36801838Y24775000D01*
D11*
X56124979Y27692187D02*
X55253196Y28563970D01*
D10*
X26035000Y22860000D02*
X26824970Y23649970D01*
D11*
X56424989Y27816455D02*
X55377464Y28863980D01*
D10*
X-127000Y19304000D02*
X4699000Y19304000D01*
D11*
X12226980Y28863980D02*
X11843143Y28863977D01*
D10*
X39590782Y21859990D02*
X41544990Y21859990D01*
D11*
X38840020Y24024980D02*
X40005000Y22860000D01*
D11*
X57150000Y24130000D02*
X55524959Y25755041D01*
D11*
X12319000Y29464000D02*
X11594605Y29463995D01*
D10*
X22225000Y25400000D02*
X23225010Y24399990D01*
D11*
X12515960Y28263960D02*
X12091681Y28263959D01*
D11*
X11843143Y28863977D02*
X9271000Y26291834D01*
D10*
X37734990Y24399990D02*
X38735000Y25400000D01*
D11*
X12272990Y29163990D02*
X11718874Y29163986D01*
D10*
X13708015Y33789985D02*
X-500015Y33789985D01*
D11*
X44450000Y5715000D02*
X44450000Y8890000D01*
D11*
X12215950Y27963950D02*
X10795000Y26543000D01*
D11*
X11718874Y29163986D02*
X8763000Y26208112D01*
D11*
X56124979Y26425021D02*
X56124979Y27692187D01*
D10*
X4699000Y19685000D02*
X4699000Y19304000D01*
D11*
X24659980Y24024980D02*
X38840020Y24024980D01*
G75*
D12*
X42545000Y22860000D03*
D12*
X38735000Y25400000D03*
D12*
X40005000Y22860000D03*
D12*
X41275000Y25400000D03*
D13*
X38735000Y11430000D03*
D13*
X42545000Y8890000D03*
D13*
X41275000Y11430000D03*
D13*
X40005000Y8890000D03*
D12*
X26035000Y22860000D03*
D12*
X22225000Y25400000D03*
D12*
X23495000Y22860000D03*
D12*
X24765000Y25400000D03*
D13*
X55245000Y11430000D03*
D13*
X59055000Y8890000D03*
D13*
X57785000Y11430000D03*
D13*
X56515000Y8890000D03*
D13*
X5715000Y11430000D03*
D13*
X9525000Y8890000D03*
D13*
X8255000Y11430000D03*
D13*
X6985000Y8890000D03*
D13*
X22225000Y11430000D03*
D13*
X26035000Y8890000D03*
D13*
X24765000Y11430000D03*
D13*
X23495000Y8890000D03*
D14*
X50800000Y20320000D03*
D14*
X9525000Y1905000D03*
D14*
X8255000Y23495000D03*
D14*
X32385000Y4445000D03*
D14*
X16129000Y22098000D03*
D14*
X20066000Y22098000D03*
D14*
X48514000Y25400000D03*
D14*
X57150000Y25400000D03*
D14*
X26035000Y3810000D03*
D14*
X59055000Y1905000D03*
D14*
X15875000Y4445000D03*
D14*
X34163000Y19939000D03*
D14*
X3937000Y20955000D03*
D14*
X26035000Y1905000D03*
D14*
X9271000Y25400000D03*
D14*
X16129000Y26797000D03*
D14*
X44450000Y8890000D03*
D14*
X27686000Y22225000D03*
D14*
X4699000Y19685000D03*
D14*
X10795000Y24511000D03*
D14*
X3429000Y32004000D03*
D14*
X50673000Y26670000D03*
D14*
X42545000Y1905000D03*
D14*
X35814000Y26797000D03*
D14*
X14097000Y18796000D03*
D14*
X57150000Y26670000D03*
D14*
X48895000Y4445000D03*
D14*
X55880000Y30734000D03*
D14*
X57150000Y27305000D03*
D14*
X42545000Y3810000D03*
D14*
X57150000Y24765000D03*
D14*
X2159000Y30480000D03*
D14*
X8763000Y25908000D03*
D14*
X9779000Y24511000D03*
D14*
X62230000Y30480000D03*
D14*
X20066000Y26797000D03*
D14*
X57150000Y24130000D03*
D14*
X10287000Y25908000D03*
D14*
X11430000Y8890000D03*
D14*
X27940000Y8890000D03*
D14*
X53975000Y30734000D03*
D14*
X9525000Y3810000D03*
D14*
X57150000Y27940000D03*
D14*
X51816000Y30226000D03*
D14*
X14351000Y31877000D03*
D14*
X14478000Y20193000D03*
D14*
X15875000Y31877000D03*
M02*
