%FSLAX46Y46*%
%MOMM*%
%AMPS10*
21,1,0.700000,1.000000,0.000000,0.000000,180.000000*
%
%ADD10PS10*%
%AMPS18*
21,1,0.800000,0.750000,0.000000,0.000000,0.000000*
%
%ADD18PS18*%
%AMPS24*
21,1,0.800000,0.750000,0.000000,0.000000,90.000000*
%
%ADD24PS24*%
%AMPS23*
21,1,0.800000,0.750000,0.000000,0.000000,180.000000*
%
%ADD23PS23*%
%AMPS11*
21,1,0.800000,0.750000,0.000000,0.000000,270.000000*
%
%ADD11PS11*%
%AMPS19*
21,1,1.400000,1.200000,0.000000,0.000000,180.000000*
%
%ADD19PS19*%
%AMPS26*
21,1,0.600000,1.500000,0.000000,0.000000,90.000000*
%
%ADD26PS26*%
%AMPS25*
21,1,0.600000,1.500000,0.000000,0.000000,270.000000*
%
%ADD25PS25*%
%AMPS20*
21,1,0.500000,0.900000,0.000000,0.000000,90.000000*
%
%ADD20PS20*%
%AMPS17*
21,1,0.500000,0.900000,0.000000,0.000000,180.000000*
%
%ADD17PS17*%
%AMPS16*
21,1,0.500000,0.900000,0.000000,0.000000,270.000000*
%
%ADD16PS16*%
%AMPS15*
1,1,0.100000,-0.100000,-0.725000*
1,1,0.100000,-0.100000,0.725000*
21,1,0.300000,1.450000,0.000000,0.000000,0.000000*
21,1,0.200000,1.550000,0.000000,0.000000,0.000000*
1,1,0.100000,0.100000,-0.725000*
1,1,0.100000,0.100000,0.725000*
%
%ADD15PS15*%
%AMPS13*
1,1,0.100000,0.725000,-0.100000*
1,1,0.100000,-0.725000,-0.100000*
21,1,0.300000,1.450000,0.000000,0.000000,90.000000*
21,1,0.200000,1.550000,0.000000,0.000000,90.000000*
1,1,0.100000,0.725000,0.100000*
1,1,0.100000,-0.725000,0.100000*
%
%ADD13PS13*%
%AMPS14*
1,1,0.100000,0.100000,0.725000*
1,1,0.100000,0.100000,-0.725000*
21,1,0.300000,1.450000,0.000000,0.000000,180.000000*
21,1,0.200000,1.550000,0.000000,0.000000,180.000000*
1,1,0.100000,-0.100000,0.725000*
1,1,0.100000,-0.100000,-0.725000*
%
%ADD14PS14*%
%AMPS12*
1,1,0.100000,-0.725000,0.100000*
1,1,0.100000,0.725000,0.100000*
21,1,0.300000,1.450000,0.000000,0.000000,270.000000*
21,1,0.200000,1.550000,0.000000,0.000000,270.000000*
1,1,0.100000,-0.725000,-0.100000*
1,1,0.100000,0.725000,-0.100000*
%
%ADD12PS12*%
%AMPS22*
1,1,0.100000,-0.250000,-0.500000*
1,1,0.100000,-0.250000,0.500000*
21,1,0.600000,1.000000,0.000000,0.000000,0.000000*
21,1,0.500000,1.100000,0.000000,0.000000,0.000000*
1,1,0.100000,0.250000,-0.500000*
1,1,0.100000,0.250000,0.500000*
%
%ADD22PS22*%
%AMPS21*
1,1,0.100000,0.250000,0.500000*
1,1,0.100000,0.250000,-0.500000*
21,1,0.600000,1.000000,0.000000,0.000000,180.000000*
21,1,0.500000,1.100000,0.000000,0.000000,180.000000*
1,1,0.100000,-0.250000,0.500000*
1,1,0.100000,-0.250000,-0.500000*
%
%ADD21PS21*%
G01*
G01*
%LPD*%
G75*
D10*
X39050000Y18104000D03*
D10*
X38100000Y20504000D03*
D10*
X37150000Y18104000D03*
D10*
X39050000Y20504000D03*
D10*
X38100000Y18104000D03*
D10*
X37150000Y20504000D03*
D11*
X22900000Y3150000D03*
D11*
X22900000Y4650000D03*
D12*
X15800000Y19250000D03*
D13*
X24200000Y19750000D03*
D12*
X15800000Y23250000D03*
D14*
X19250000Y25200000D03*
D12*
X15800000Y22250000D03*
D13*
X24200000Y21250000D03*
D15*
X21250000Y16800000D03*
D12*
X15800000Y22750000D03*
D15*
X17750000Y16800000D03*
D13*
X24200000Y18750000D03*
D14*
X17250000Y25200000D03*
D15*
X19250000Y16800000D03*
D12*
X15800000Y20750000D03*
D13*
X24200000Y23750000D03*
D15*
X21750000Y16800000D03*
D14*
X20250000Y25200000D03*
D13*
X24200000Y18250000D03*
D15*
X20250000Y16800000D03*
D14*
X19750000Y25200000D03*
D13*
X24200000Y22250000D03*
D13*
X24200000Y22750000D03*
D14*
X18250000Y25200000D03*
D13*
X24200000Y19250000D03*
D15*
X18250000Y16800000D03*
D12*
X15800000Y18750000D03*
D12*
X15800000Y23750000D03*
D15*
X18750000Y16800000D03*
D13*
X24200000Y20250000D03*
D15*
X22250000Y16800000D03*
D12*
X15800000Y20250000D03*
D15*
X20750000Y16800000D03*
D13*
X24200000Y21750000D03*
D12*
X15800000Y21750000D03*
D14*
X17750000Y25200000D03*
D12*
X15800000Y18250000D03*
D14*
X22750000Y25200000D03*
D14*
X18750000Y25200000D03*
D14*
X22250000Y25200000D03*
D13*
X24200000Y20750000D03*
D12*
X15800000Y19750000D03*
D12*
X15800000Y21250000D03*
D14*
X21750000Y25200000D03*
D15*
X19750000Y16800000D03*
D14*
X20750000Y25200000D03*
D14*
X21250000Y25200000D03*
D15*
X17250000Y16800000D03*
D13*
X24200000Y23250000D03*
D15*
X22750000Y16800000D03*
D16*
X28000000Y12750000D03*
D16*
X28000000Y11250000D03*
D17*
X16244000Y10668000D03*
D17*
X14744000Y10668000D03*
D18*
X26971992Y1396080D03*
D18*
X25471992Y1396080D03*
D19*
X18122000Y12581000D03*
D19*
X20322000Y12581000D03*
D19*
X20322000Y14181000D03*
D19*
X18122000Y14181000D03*
D20*
X12000000Y14250000D03*
D20*
X12000000Y15750000D03*
D20*
X12000000Y11250000D03*
D20*
X12000000Y12750000D03*
D11*
X16222000Y12631000D03*
D11*
X16222000Y14131000D03*
D20*
X28000000Y14250000D03*
D20*
X28000000Y15750000D03*
D11*
X24400000Y13050000D03*
D11*
X24400000Y14550000D03*
D21*
X25750000Y5700000D03*
D21*
X27650000Y5700000D03*
D22*
X27650000Y3100000D03*
D22*
X25750000Y3100000D03*
D22*
X26700000Y3100000D03*
D23*
X36588000Y22606000D03*
D23*
X38088000Y22606000D03*
D11*
X38862000Y11188000D03*
D11*
X38862000Y12688000D03*
D16*
X25000000Y29750000D03*
D16*
X25000000Y28250000D03*
D23*
X14377000Y16635000D03*
D23*
X15877000Y16635000D03*
D18*
X26023000Y25527000D03*
D18*
X24523000Y25527000D03*
D24*
X38862000Y15990000D03*
D24*
X38862000Y14490000D03*
D11*
X12530000Y4965000D03*
D11*
X12530000Y6465000D03*
D24*
X22222000Y14131000D03*
D24*
X22222000Y12631000D03*
D18*
X27450000Y7321000D03*
D18*
X25950000Y7321000D03*
D23*
X14744000Y9271000D03*
D23*
X16244000Y9271000D03*
D25*
X15080000Y6350000D03*
D25*
X15080000Y3810000D03*
D26*
X20480000Y6350000D03*
D25*
X15080000Y7620000D03*
D25*
X15080000Y5080000D03*
D26*
X20480000Y3810000D03*
D26*
X20480000Y5080000D03*
D26*
X20480000Y7620000D03*
D24*
X15367000Y26785000D03*
D24*
X15367000Y25285000D03*
M02*
