M48
FMAT,2
METRIC,TZ
T3C0.200
T2C0.900
T1C1.000
%
G90
G05
M71
T3
X27.619Y0.888
X28.300Y3.100
X21.209Y20.193
X38.862Y10.414
X19.200Y11.700
X38.862Y13.600
X26.416Y26.536
X21.000Y18.000
X13.843Y10.668
X18.900Y15.600
X38.100Y17.145
X23.500Y5.200
X23.662Y3.138
X15.600Y11.700
X35.941Y23.150
X18.923Y10.287
X11.800Y4.200
X17.700Y2.900
X21.209Y10.668
X22.900Y11.700
X27.970Y7.829
X18.684Y23.129
X25.162Y14.562
X25.162Y13.038
X11.684Y6.350
X21.590Y6.858
X24.930Y0.975
X25.616Y26.536
X15.875Y16.002
X22.900Y13.400
X14.351Y26.797
X27.970Y6.813
X22.900Y15.000
X21.590Y7.620
X15.600Y13.300
X18.923Y18.415
X13.843Y9.271
X15.367Y24.638
X21.336Y22.606
X18.923Y9.525
X25.430Y7.829
X25.430Y6.813
X24.930Y1.875
X17.000Y15.000
X14.351Y16.002
X38.100Y21.463
X27.619Y1.904
X17.000Y11.700
X20.200Y15.600
X20.778Y22.598
X15.600Y15.000
X18.288Y23.622
T2
X34.905Y19.110
X31.095Y21.650
X32.365Y19.110
X33.635Y21.650
X8.905Y19.110
X5.095Y21.650
X6.365Y19.110
X7.635Y21.650
T1
X9.540Y12.000
X7.000Y12.000
X4.460Y12.000
X9.540Y15.000
X7.000Y15.000
X4.460Y15.000
X22.540Y29.000
X20.000Y29.000
X17.460Y29.000
X35.540Y15.000
X33.000Y15.000
X30.460Y15.000
X35.540Y12.000
X33.000Y12.000
X30.460Y12.000
M30
