%FSLAX46Y46*%
%MOMM*%
%ADD10C,0.100000*%
%ADD11C,0.300000*%
%AMPS24*
1,1,1.400000,0.000000,0.000000*
%
%ADD24PS24*%
%AMPS12*
1,1,1.700000,0.000000,0.000000*
%
%ADD12PS12*%
%AMPS22*
1,1,1.400000,0.000000,0.000000*
%
%ADD22PS22*%
%AMPS23*
1,1,1.400000,0.000000,0.000000*
%
%ADD23PS23*%
%AMPS36*
1,1,1.700000,0.000000,0.000000*
%
%ADD36PS36*%
%AMPS34*
1,1,1.700000,0.000000,0.000000*
%
%ADD34PS34*%
%AMPS28*
1,1,1.400000,0.000000,0.000000*
%
%ADD28PS28*%
%AMPS13*
1,1,1.700000,0.000000,0.000000*
%
%ADD13PS13*%
%AMPS26*
1,1,1.400000,0.000000,0.000000*
%
%ADD26PS26*%
%AMPS39*
1,1,1.700000,0.000000,0.000000*
%
%ADD39PS39*%
%AMPS27*
1,1,1.400000,0.000000,0.000000*
%
%ADD27PS27*%
%AMPS14*
21,1,0.700000,1.000000,0.000000,0.000000,180.000000*
%
%ADD14PS14*%
%AMPS25*
21,1,0.800000,0.750000,0.000000,0.000000,0.000000*
%
%ADD25PS25*%
%AMPS35*
21,1,0.800000,0.750000,0.000000,0.000000,90.000000*
%
%ADD35PS35*%
%AMPS33*
21,1,0.800000,0.750000,0.000000,0.000000,180.000000*
%
%ADD33PS33*%
%AMPS15*
21,1,0.800000,0.750000,0.000000,0.000000,270.000000*
%
%ADD15PS15*%
%AMPS29*
21,1,1.400000,1.200000,0.000000,0.000000,180.000000*
%
%ADD29PS29*%
%AMPS38*
21,1,0.600000,1.500000,0.000000,0.000000,90.000000*
%
%ADD38PS38*%
%AMPS37*
21,1,0.600000,1.500000,0.000000,0.000000,270.000000*
%
%ADD37PS37*%
%AMPS30*
21,1,0.500000,0.900000,0.000000,0.000000,90.000000*
%
%ADD30PS30*%
%AMPS21*
21,1,0.500000,0.900000,0.000000,0.000000,180.000000*
%
%ADD21PS21*%
%AMPS20*
21,1,0.500000,0.900000,0.000000,0.000000,270.000000*
%
%ADD20PS20*%
%AMPS43*
1,1,0.400000,0.000000,0.000000*
%
%ADD43PS43*%
%AMPS45*
1,1,0.400000,0.000000,0.000000*
%
%ADD45PS45*%
%AMPS44*
1,1,0.400000,0.000000,0.000000*
%
%ADD44PS44*%
%AMPS41*
1,1,0.400000,0.000000,0.000000*
%
%ADD41PS41*%
%AMPS40*
1,1,0.400000,0.000000,0.000000*
%
%ADD40PS40*%
%AMPS42*
1,1,0.400000,0.000000,0.000000*
%
%ADD42PS42*%
%AMPS19*
1,1,0.100000,0.100000,-0.725000*
1,1,0.100000,-0.100000,0.725000*
1,1,0.100000,0.100000,0.725000*
21,1,0.300000,1.450000,0.000000,0.000000,0.000000*
21,1,0.200000,1.550000,0.000000,0.000000,0.000000*
1,1,0.100000,-0.100000,-0.725000*
%
%ADD19PS19*%
%AMPS17*
1,1,0.100000,0.725000,0.100000*
1,1,0.100000,-0.725000,-0.100000*
1,1,0.100000,-0.725000,0.100000*
21,1,0.300000,1.450000,0.000000,0.000000,90.000000*
21,1,0.200000,1.550000,0.000000,0.000000,90.000000*
1,1,0.100000,0.725000,-0.100000*
%
%ADD17PS17*%
%AMPS18*
1,1,0.100000,-0.100000,0.725000*
1,1,0.100000,0.100000,-0.725000*
1,1,0.100000,-0.100000,-0.725000*
21,1,0.300000,1.450000,0.000000,0.000000,180.000000*
21,1,0.200000,1.550000,0.000000,0.000000,180.000000*
1,1,0.100000,0.100000,0.725000*
%
%ADD18PS18*%
%AMPS16*
1,1,0.100000,-0.725000,-0.100000*
1,1,0.100000,0.725000,0.100000*
1,1,0.100000,0.725000,-0.100000*
21,1,0.300000,1.450000,0.000000,0.000000,270.000000*
21,1,0.200000,1.550000,0.000000,0.000000,270.000000*
1,1,0.100000,-0.725000,0.100000*
%
%ADD16PS16*%
%AMPS32*
1,1,0.100000,0.250000,-0.500000*
1,1,0.100000,-0.250000,0.500000*
1,1,0.100000,0.250000,0.500000*
21,1,0.600000,1.000000,0.000000,0.000000,0.000000*
21,1,0.500000,1.100000,0.000000,0.000000,0.000000*
1,1,0.100000,-0.250000,-0.500000*
%
%ADD32PS32*%
%AMPS31*
1,1,0.100000,-0.250000,0.500000*
1,1,0.100000,0.250000,-0.500000*
1,1,0.100000,-0.250000,-0.500000*
21,1,0.600000,1.000000,0.000000,0.000000,180.000000*
21,1,0.500000,1.100000,0.000000,0.000000,180.000000*
1,1,0.100000,0.250000,0.500000*
%
%ADD31PS31*%
G01*
%LPD*%
G36*
X23000000Y11500000D02*
X23039004Y11507920D01*
X23071829Y11530425D01*
X23093277Y11563952D01*
X23100000Y11600000D01*
X23100000Y15100000D01*
X23092080Y15139004D01*
X23069575Y15171829D01*
X23036048Y15193277D01*
X23000000Y15200000D01*
X20510051Y15200000D01*
X20501397Y15201757D01*
X20500000Y15209246D01*
X20500000Y15825202D01*
X20492080Y15864206D01*
X20469575Y15897031D01*
X20436048Y15918479D01*
X20380494Y15923281D01*
X20372743Y15921739D01*
X20372720Y15921736D01*
X20357609Y15920248D01*
X20356407Y15920188D01*
X20348756Y15920000D01*
X20151244Y15920000D01*
X20143593Y15920188D01*
X20142391Y15920248D01*
X20127280Y15921736D01*
X20127263Y15921739D01*
X20112363Y15924701D01*
X20097777Y15929127D01*
X20083782Y15934925D01*
X20083767Y15934932D01*
X20070337Y15942110D01*
X20070328Y15942115D01*
X20060559Y15948643D01*
X20023729Y15963728D01*
X19983933Y15963254D01*
X19947473Y15947294D01*
X19920126Y15918379D01*
X19905000Y15865498D01*
X19905000Y14986000D01*
X19912920Y14946996D01*
X19935425Y14914171D01*
X19968952Y14892723D01*
X20005000Y14886000D01*
X21017677Y14886000D01*
X21037301Y14884300D01*
X21067465Y14874551D01*
X21091520Y14858369D01*
X21110171Y14836180D01*
X21121976Y14809704D01*
X21127000Y14774001D01*
X21127000Y14386000D01*
X21134920Y14346996D01*
X21157425Y14314171D01*
X21190952Y14292723D01*
X21227000Y14286000D01*
X21642000Y14286000D01*
X21681004Y14293920D01*
X21713829Y14316425D01*
X21735277Y14349952D01*
X21742000Y14386000D01*
X21742000Y14526677D01*
X21743700Y14546301D01*
X21753449Y14576465D01*
X21769631Y14600520D01*
X21791820Y14619171D01*
X21818296Y14630976D01*
X21853999Y14636000D01*
X22592677Y14636000D01*
X22612301Y14634300D01*
X22642465Y14624551D01*
X22666520Y14608369D01*
X22685171Y14586180D01*
X22696976Y14559704D01*
X22702000Y14524001D01*
X22702000Y13735323D01*
X22700300Y13715699D01*
X22690551Y13685535D01*
X22674369Y13661480D01*
X22652180Y13642829D01*
X22625704Y13631024D01*
X22590001Y13626000D01*
X21851323Y13626000D01*
X21831699Y13627700D01*
X21801535Y13637449D01*
X21777480Y13653631D01*
X21758829Y13675820D01*
X21747024Y13702296D01*
X21742000Y13737999D01*
X21742000Y13876000D01*
X21734080Y13915004D01*
X21711575Y13947829D01*
X21678048Y13969277D01*
X21642000Y13976000D01*
X21227000Y13976000D01*
X21187996Y13968080D01*
X21155171Y13945575D01*
X21133723Y13912048D01*
X21127000Y13876000D01*
X21127000Y13585323D01*
X21125300Y13565699D01*
X21114353Y13531828D01*
X21101216Y13500037D01*
X21101566Y13460239D01*
X21117411Y13423730D01*
X21146241Y13396292D01*
X21199387Y13381000D01*
X21222000Y13381000D01*
X21222000Y12686000D01*
X19422000Y12686000D01*
X19422000Y13135376D01*
X19414080Y13174380D01*
X19391575Y13207205D01*
X19358048Y13228653D01*
X19318812Y13235325D01*
X19280081Y13226166D01*
X19251289Y13206087D01*
X18956289Y12911087D01*
X18934310Y12877907D01*
X18927000Y12840376D01*
X18927000Y11985323D01*
X18925300Y11965699D01*
X18915551Y11935535D01*
X18899369Y11911480D01*
X18877180Y11892829D01*
X18850704Y11881024D01*
X18815001Y11876000D01*
X17426323Y11876000D01*
X17406699Y11877700D01*
X17376535Y11887449D01*
X17352480Y11903631D01*
X17333829Y11925820D01*
X17322024Y11952296D01*
X17317000Y11987999D01*
X17317000Y12376000D01*
X17309080Y12415004D01*
X17286575Y12447829D01*
X17253048Y12469277D01*
X17217000Y12476000D01*
X16802000Y12476000D01*
X16762996Y12468080D01*
X16730171Y12445575D01*
X16708723Y12412048D01*
X16702000Y12376000D01*
X16702000Y12235323D01*
X16700300Y12215699D01*
X16690551Y12185535D01*
X16674369Y12161480D01*
X16652180Y12142829D01*
X16625704Y12131024D01*
X16590001Y12126000D01*
X15851323Y12126000D01*
X15831699Y12127700D01*
X15801535Y12137449D01*
X15777480Y12153631D01*
X15758829Y12175820D01*
X15747024Y12202296D01*
X15742000Y12237999D01*
X15742000Y13026677D01*
X15743700Y13046301D01*
X15753449Y13076465D01*
X15769631Y13100520D01*
X15791820Y13119171D01*
X15818296Y13130976D01*
X15853999Y13136000D01*
X16592677Y13136000D01*
X16612301Y13134300D01*
X16642465Y13124551D01*
X16666520Y13108369D01*
X16685171Y13086180D01*
X16696976Y13059704D01*
X16702000Y13024001D01*
X16702000Y12886000D01*
X16709920Y12846996D01*
X16732425Y12814171D01*
X16765952Y12792723D01*
X16802000Y12786000D01*
X17217000Y12786000D01*
X17256004Y12793920D01*
X17288829Y12816425D01*
X17310277Y12849952D01*
X17317000Y12886000D01*
X17317000Y13176677D01*
X17318700Y13196301D01*
X17329647Y13230172D01*
X17342784Y13261963D01*
X17342434Y13301761D01*
X17326589Y13338270D01*
X17297759Y13365708D01*
X17244613Y13381000D01*
X17222000Y13381000D01*
X17222000Y14076000D01*
X18127000Y14076000D01*
X18166004Y14083920D01*
X18198829Y14106425D01*
X18220277Y14139952D01*
X18227000Y14176000D01*
X18227000Y14981000D01*
X19033000Y14981000D01*
X19072004Y14988920D01*
X19104829Y15011425D01*
X19126277Y15044952D01*
X19133000Y15081000D01*
X19133000Y15848678D01*
X19125080Y15887682D01*
X19102575Y15920507D01*
X19080137Y15936872D01*
X19070337Y15942110D01*
X19070328Y15942115D01*
X19055658Y15951918D01*
X19055213Y15951252D01*
X19023255Y15966104D01*
X18983479Y15967472D01*
X18944875Y15951120D01*
X18944342Y15951918D01*
X18929672Y15942115D01*
X18929663Y15942110D01*
X18916233Y15934932D01*
X18916218Y15934925D01*
X18902223Y15929127D01*
X18887637Y15924701D01*
X18872737Y15921739D01*
X18872720Y15921736D01*
X18857609Y15920248D01*
X18856407Y15920188D01*
X18848756Y15920000D01*
X18651244Y15920000D01*
X18643593Y15920188D01*
X18642391Y15920248D01*
X18627280Y15921736D01*
X18627257Y15921739D01*
X18619506Y15923281D01*
X18579707Y15923121D01*
X18543122Y15907451D01*
X18515547Y15878752D01*
X18500000Y15825202D01*
X18500000Y15210051D01*
X18498243Y15201397D01*
X18490754Y15200000D01*
X15500000Y15200000D01*
X15460996Y15192080D01*
X15428171Y15169575D01*
X15406723Y15136048D01*
X15400000Y15100000D01*
X15400000Y11600000D01*
X15407920Y11560996D01*
X15430425Y11528171D01*
X15463952Y11506723D01*
X15500000Y11500000D01*
X23000000Y11500000D01*
D02*
G37*
%LPC*%
G36*
X18017000Y14286000D02*
X17222000Y14286000D01*
X17222000Y14981000D01*
X18017000Y14981000D01*
X18017000Y14286000D01*
D02*
G37*
%LPC*%
G36*
X16797000Y14236000D02*
X16327000Y14236000D01*
X16327000Y14731000D01*
X16797000Y14731000D01*
X16797000Y14236000D01*
D02*
G37*
%LPC*%
G36*
X16117000Y14236000D02*
X15647000Y14236000D01*
X15647000Y14731000D01*
X16117000Y14731000D01*
X16117000Y14236000D01*
D02*
G37*
%LPC*%
G36*
X16797000Y13531000D02*
X16327000Y13531000D01*
X16327000Y14026000D01*
X16797000Y14026000D01*
X16797000Y13531000D01*
D02*
G37*
%LPC*%
G36*
X16117000Y13531000D02*
X15647000Y13531000D01*
X15647000Y14026000D01*
X16117000Y14026000D01*
X16117000Y13531000D01*
D02*
G37*
%LPC*%
G36*
X22797000Y12736000D02*
X22327000Y12736000D01*
X22327000Y13231000D01*
X22797000Y13231000D01*
X22797000Y12736000D01*
D02*
G37*
%LPC*%
G36*
X22117000Y12736000D02*
X21647000Y12736000D01*
X21647000Y13231000D01*
X22117000Y13231000D01*
X22117000Y12736000D01*
D02*
G37*
%LPC*%
G36*
X22797000Y12031000D02*
X22327000Y12031000D01*
X22327000Y12526000D01*
X22797000Y12526000D01*
X22797000Y12031000D01*
D02*
G37*
%LPC*%
G36*
X22117000Y12031000D02*
X21647000Y12031000D01*
X21647000Y12526000D01*
X22117000Y12526000D01*
X22117000Y12031000D01*
D02*
G37*
%LPC*%
G36*
X21222000Y11781000D02*
X20427000Y11781000D01*
X20427000Y12476000D01*
X21222000Y12476000D01*
X21222000Y11781000D01*
D02*
G37*
%LPC*%
G36*
X20217000Y11781000D02*
X19422000Y11781000D01*
X19422000Y12476000D01*
X20217000Y12476000D01*
X20217000Y11781000D01*
D02*
G37*
G01*
%LPD*%
D10*
X11837000Y14250000D02*
X12000000Y14250000D01*
D11*
X25938000Y7321000D02*
X25430000Y7829000D01*
D11*
X23650000Y3150000D02*
X23662000Y3138000D01*
D11*
X12530000Y6465000D02*
X14965000Y6465000D01*
D10*
X19250000Y25200000D02*
X19250000Y26897434D01*
D10*
X27739000Y11250000D02*
X28000000Y11250000D01*
D11*
X36588000Y22606000D02*
X36485010Y22606000D01*
D11*
X38100000Y21463000D02*
X38100000Y20504000D01*
D10*
X39050000Y18104000D02*
X39050000Y18704000D01*
D11*
X25471992Y1396080D02*
X25408992Y1396080D01*
D11*
X25938000Y7321000D02*
X25430000Y6813000D01*
D11*
X14377000Y16028000D02*
X14351000Y16002000D01*
D10*
X18955000Y7544999D02*
X18955000Y6301433D01*
D10*
X17349990Y5549990D02*
X15610000Y3810000D01*
D10*
X33702000Y20447000D02*
X37093000Y20447000D01*
D11*
X14363000Y26785000D02*
X14351000Y26797000D01*
D10*
X26927990Y13908441D02*
X27436431Y13400000D01*
D11*
X25408992Y1396080D02*
X24929992Y1875080D01*
D10*
X24200000Y21750000D02*
X25085566Y21750000D01*
D10*
X12953999Y13553999D02*
X12953999Y20007567D01*
D10*
X24821000Y28250000D02*
X25000000Y28250000D01*
D10*
X39050000Y23180000D02*
X39050000Y20504000D01*
D10*
X20372000Y14131000D02*
X20322000Y14181000D01*
D10*
X21189999Y10687001D02*
X21209000Y10668000D01*
D11*
X15452000Y25200000D02*
X15367000Y25285000D01*
D11*
X38862000Y12573000D02*
X38862000Y12688000D01*
D10*
X20750000Y26472980D02*
X21463000Y27185980D01*
D11*
X15800000Y16712000D02*
X15877000Y16635000D01*
D10*
X12000000Y12750000D02*
X12150000Y12750000D01*
D10*
X16222000Y12631000D02*
X18072000Y12631000D01*
D11*
X22950000Y4650000D02*
X23500000Y5200000D01*
D11*
X27958000Y6813000D02*
X27450000Y7321000D01*
D10*
X19788556Y27435990D02*
X24006990Y27435990D01*
D10*
X27178001Y16637001D02*
X27749990Y17208990D01*
D10*
X22379434Y6350000D02*
X20480000Y6350000D01*
D11*
X12530000Y4930000D02*
X11800000Y4200000D01*
D10*
X19685000Y18415000D02*
X20250000Y17850000D01*
D11*
X15367000Y25285000D02*
X15367000Y24638000D01*
D10*
X31850010Y13149990D02*
X33000000Y12000000D01*
D10*
X12310002Y12000000D02*
X13204010Y12894008D01*
D10*
X19750000Y16800000D02*
X19750000Y14753000D01*
D10*
X14550000Y21250000D02*
X15800000Y21250000D01*
D10*
X26035000Y15093547D02*
X26035000Y11684000D01*
D10*
X23974980Y16800000D02*
X22750000Y16800000D01*
D10*
X26685464Y26935970D02*
X21635970Y26935970D01*
D10*
X25232000Y21250000D02*
X26677980Y19804020D01*
D10*
X22540000Y29000000D02*
X21226000Y27686000D01*
D11*
X15800000Y18750000D02*
X14980010Y18750000D01*
D10*
X19288000Y16762000D02*
X19250000Y16800000D01*
D10*
X21226000Y27686000D02*
X19685000Y27686000D01*
D10*
X15857000Y20193000D02*
X15800000Y20250000D01*
D11*
X25750000Y5700000D02*
X25750000Y7121000D01*
D10*
X24200000Y21250000D02*
X25232000Y21250000D01*
D10*
X26035000Y11684000D02*
X22606000Y8255000D01*
D10*
X24200000Y16928547D02*
X26035000Y15093547D01*
D11*
X14965000Y6465000D02*
X15080000Y6350000D01*
D10*
X25129434Y9100000D02*
X22379434Y6350000D01*
D10*
X15080000Y7620000D02*
X15480000Y7620000D01*
D11*
X14980010Y18750000D02*
X14377000Y18146990D01*
D10*
X16244000Y9271000D02*
X17907000Y9271000D01*
D10*
X35403557Y8849990D02*
X25232990Y8849990D01*
D10*
X28649990Y13149990D02*
X31850010Y13149990D01*
D10*
X36599999Y18764001D02*
X36599999Y17248001D01*
D11*
X14965000Y4965000D02*
X15080000Y5080000D01*
D10*
X15801000Y23749000D02*
X15800000Y23750000D01*
D10*
X18955000Y6301433D02*
X18203557Y5549990D01*
D10*
X19685000Y27686000D02*
X18750000Y26751000D01*
D10*
X37150000Y10596433D02*
X35403557Y8849990D01*
D10*
X16244000Y10668000D02*
X16263001Y10687001D01*
D11*
X17750000Y26119970D02*
X17750000Y25200000D01*
D10*
X12953999Y20007567D02*
X14696432Y21750000D01*
D10*
X36899990Y16948010D02*
X36899990Y10699990D01*
D10*
X38481000Y23749000D02*
X39050000Y23180000D01*
D11*
X25750000Y3100000D02*
X25750000Y1674088D01*
D11*
X25028990Y23241000D02*
X25654000Y23241000D01*
D11*
X24400000Y14550000D02*
X25150000Y14550000D01*
D11*
X26023000Y23610000D02*
X26023000Y25527000D01*
D11*
X24200000Y23750000D02*
X24200000Y25204000D01*
D11*
X20750000Y17750000D02*
X21000000Y18000000D01*
D10*
X18407000Y12581000D02*
X19288000Y13462000D01*
D10*
X21463000Y5080000D02*
X20480000Y5080000D01*
D10*
X7000000Y15000000D02*
X8284000Y13716000D01*
D11*
X24200000Y23250000D02*
X25019990Y23250000D01*
D11*
X36485010Y22606000D02*
X35941000Y23150010D01*
D10*
X28000000Y12750000D02*
X28250000Y12750000D01*
D11*
X38100000Y16752000D02*
X38862000Y15990000D01*
D11*
X38100000Y16752000D02*
X38100000Y17145000D01*
D10*
X35734000Y23749000D02*
X38481000Y23749000D01*
D10*
X11749990Y17209990D02*
X9540000Y15000000D01*
D10*
X15610000Y3810000D02*
X15080000Y3810000D01*
D10*
X21635970Y26935970D02*
X21250000Y26550000D01*
D11*
X26971992Y1396080D02*
X27110992Y1396080D01*
D11*
X21250000Y15850000D02*
X21599999Y15500001D01*
D11*
X38100000Y21463000D02*
X38100000Y22594000D01*
D10*
X24130000Y30353000D02*
X24733000Y29750000D01*
D10*
X28250000Y14250000D02*
X28599978Y13900022D01*
D10*
X22222000Y14131000D02*
X20372000Y14131000D01*
D11*
X38862000Y11188000D02*
X38862000Y10414000D01*
D10*
X21209000Y20193000D02*
X15857000Y20193000D01*
D10*
X37093000Y20447000D02*
X37150000Y20504000D01*
D10*
X12000000Y20636000D02*
X13614000Y22250000D01*
D10*
X18288000Y23622000D02*
X18288000Y25162000D01*
D10*
X39050000Y18704000D02*
X38831000Y18923000D01*
D11*
X25750000Y1674088D02*
X25471992Y1396080D01*
D11*
X20480000Y3810000D02*
X22060000Y3810000D01*
D10*
X35540000Y15000000D02*
X34190011Y13650011D01*
D10*
X18676436Y6376436D02*
X18676436Y7620000D01*
D10*
X14744000Y10668000D02*
X13843000Y10668000D01*
D10*
X22606000Y8255000D02*
X19665002Y8255000D01*
D10*
X18203557Y5549990D02*
X17349990Y5549990D01*
D11*
X16042000Y16800000D02*
X15877000Y16635000D01*
D10*
X21250000Y26550000D02*
X21250000Y25200000D01*
D10*
X13204010Y12894008D02*
X13204010Y19904010D01*
D11*
X11799000Y6465000D02*
X11684000Y6350000D01*
D11*
X15367000Y26785000D02*
X14363000Y26785000D01*
D10*
X26927990Y19907576D02*
X26927990Y13908441D01*
D10*
X20750000Y25200000D02*
X20750000Y26472980D01*
D10*
X27650000Y3100000D02*
X28300000Y3100000D01*
D10*
X25784990Y11814990D02*
X25784990Y14989990D01*
D11*
X24606644Y25527000D02*
X25615614Y26535970D01*
D10*
X11176000Y10668000D02*
X11758000Y11250000D01*
D10*
X27749990Y17208990D02*
X27749990Y25871444D01*
D10*
X14744000Y9271000D02*
X13843000Y9271000D01*
D10*
X35300000Y9100000D02*
X25129434Y9100000D01*
D10*
X28000000Y15750000D02*
X28000000Y25975000D01*
D10*
X19750000Y23626313D02*
X19750000Y25200000D01*
D10*
X17300000Y5800000D02*
X18100000Y5800000D01*
D10*
X15800000Y23750000D02*
X17017000Y23750000D01*
D11*
X24523000Y25527000D02*
X24523000Y25666000D01*
D10*
X27436431Y13400000D02*
X34140000Y13400000D01*
D10*
X22475010Y8505010D02*
X25784990Y11814990D01*
D11*
X22900000Y3150000D02*
X23650000Y3150000D01*
D10*
X13614000Y22250000D02*
X15800000Y22250000D01*
D10*
X15480000Y7620000D02*
X17300000Y5800000D01*
D10*
X20250000Y17850000D02*
X20250000Y16800000D01*
D10*
X36599999Y17248001D02*
X36899990Y16948010D01*
D10*
X26677980Y19804020D02*
X26677980Y12311020D01*
D11*
X26023000Y26142970D02*
X26416000Y26535970D01*
D10*
X11749990Y20739557D02*
X11749990Y17209990D01*
D10*
X24200000Y18250000D02*
X24200000Y16928547D01*
D11*
X22900000Y4650000D02*
X22950000Y4650000D01*
D11*
X15877000Y16004000D02*
X15875000Y16002000D01*
D11*
X12530000Y4965000D02*
X14965000Y4965000D01*
D11*
X21599999Y15500001D02*
X23449999Y15500001D01*
D11*
X17250000Y16800000D02*
X16042000Y16800000D01*
D10*
X15800000Y22750000D02*
X13760433Y22750000D01*
D10*
X19561445Y8505010D02*
X22475010Y8505010D01*
D11*
X20750000Y16800000D02*
X20750000Y17750000D01*
D11*
X24523000Y25527000D02*
X24606644Y25527000D01*
D11*
X26700000Y3100000D02*
X26700000Y1668072D01*
D10*
X27178001Y14011998D02*
X27178001Y16637001D01*
D10*
X24200000Y18750000D02*
X24200000Y18250000D01*
D10*
X37150000Y18104000D02*
X37150000Y10596433D01*
D10*
X28000000Y25975000D02*
X26789020Y27185980D01*
D11*
X24400000Y13050000D02*
X25150000Y13050000D01*
D11*
X25750000Y7121000D02*
X25950000Y7321000D01*
D10*
X18288000Y25162000D02*
X18250000Y25200000D01*
D10*
X19288000Y13462000D02*
X19288000Y16762000D01*
D11*
X17250000Y25200000D02*
X15452000Y25200000D01*
D11*
X38862000Y12688000D02*
X38862000Y13600000D01*
D10*
X34190011Y13650011D02*
X27539988Y13650011D01*
D10*
X21463000Y27185980D02*
X26789020Y27185980D01*
D10*
X27539988Y13650011D02*
X27178001Y14011998D01*
D10*
X13204010Y19904010D02*
X14550000Y21250000D01*
D10*
X8332000Y10668000D02*
X11176000Y10668000D01*
D11*
X20480000Y7620000D02*
X21590000Y7620000D01*
D10*
X36899990Y10699990D02*
X35300000Y9100000D01*
D10*
X12150000Y12750000D02*
X12953999Y13553999D01*
D11*
X27970000Y6813000D02*
X27958000Y6813000D01*
D10*
X36758998Y18923000D02*
X36599999Y18764001D01*
D11*
X25471992Y1396080D02*
X25350992Y1396080D01*
D11*
X15800000Y18250000D02*
X15800000Y16712000D01*
D10*
X18122000Y12581000D02*
X18407000Y12581000D01*
D11*
X12530000Y4965000D02*
X12530000Y4930000D01*
D10*
X21353000Y30353000D02*
X24130000Y30353000D01*
D11*
X17084970Y26785000D02*
X17750000Y26119970D01*
D10*
X38831000Y18923000D02*
X36758998Y18923000D01*
D10*
X18072000Y12631000D02*
X18122000Y12581000D01*
D11*
X22060000Y3810000D02*
X22900000Y4650000D01*
D10*
X33635000Y21650000D02*
X35734000Y23749000D01*
D10*
X20778155Y22598158D02*
X19750000Y23626313D01*
D10*
X32365000Y19110000D02*
X33702000Y20447000D01*
D11*
X27462000Y7321000D02*
X27970000Y7829000D01*
D10*
X28599978Y13900022D02*
X31900022Y13900022D01*
D11*
X24200000Y25204000D02*
X24523000Y25527000D01*
D11*
X12530000Y6465000D02*
X11799000Y6465000D01*
D10*
X9540000Y12000000D02*
X12310002Y12000000D01*
D10*
X18750000Y26751000D02*
X18750000Y25200000D01*
D10*
X8284000Y13716000D02*
X11303000Y13716000D01*
D10*
X25784990Y14989990D02*
X23974980Y16800000D01*
D11*
X26023000Y25527000D02*
X26023000Y26142970D01*
D10*
X14696432Y21750000D02*
X15800000Y21750000D01*
D11*
X38100000Y22594000D02*
X38088000Y22606000D01*
D10*
X18676436Y7620000D02*
X19561445Y8505010D01*
D10*
X11758000Y11250000D02*
X12000000Y11250000D01*
D11*
X25019990Y23250000D02*
X25028990Y23241000D01*
D10*
X16263001Y10687001D02*
X21189999Y10687001D01*
D10*
X18923000Y18415000D02*
X19685000Y18415000D01*
D11*
X25654000Y23241000D02*
X26023000Y23610000D01*
D10*
X13760433Y22750000D02*
X11749990Y20739557D01*
D10*
X19250000Y26897434D02*
X19788556Y27435990D01*
D11*
X38100000Y17145000D02*
X38100000Y18104000D01*
D10*
X28250000Y12750000D02*
X28649990Y13149990D01*
D10*
X7000000Y12000000D02*
X8332000Y10668000D01*
D10*
X24733000Y29750000D02*
X25000000Y29750000D01*
D10*
X17017000Y23750000D02*
X17637989Y23129011D01*
D10*
X17637989Y23129011D02*
X18684011Y23129011D01*
D10*
X24006990Y27435990D02*
X24821000Y28250000D01*
D10*
X19665002Y8255000D02*
X18955000Y7544999D01*
D11*
X38862000Y14490000D02*
X38862000Y13600000D01*
D10*
X20000000Y29000000D02*
X21353000Y30353000D01*
D11*
X25350992Y1396080D02*
X24929992Y975080D01*
D10*
X34140000Y13400000D02*
X35540000Y12000000D01*
D10*
X31900022Y13900022D02*
X33000000Y15000000D01*
D10*
X25085566Y21750000D02*
X26927990Y19907576D01*
D10*
X19750000Y14753000D02*
X20322000Y14181000D01*
D11*
X15367000Y26785000D02*
X17084970Y26785000D01*
D10*
X28000000Y14250000D02*
X28250000Y14250000D01*
D10*
X25232990Y8849990D02*
X21463000Y5080000D01*
D10*
X20250000Y23692000D02*
X20250000Y25200000D01*
D11*
X27450000Y7321000D02*
X27462000Y7321000D01*
D11*
X23449999Y15500001D02*
X24400000Y14550000D01*
D10*
X18100000Y5800000D02*
X18676436Y6376436D01*
D11*
X21250000Y16800000D02*
X21250000Y15850000D01*
D10*
X27749990Y25871444D02*
X26685464Y26935970D01*
D11*
X25950000Y7321000D02*
X25938000Y7321000D01*
D11*
X14377000Y16635000D02*
X14377000Y16028000D01*
D10*
X11303000Y13716000D02*
X11837000Y14250000D01*
D10*
X21336000Y22606000D02*
X20250000Y23692000D01*
D10*
X26677980Y12311020D02*
X27739000Y11250000D01*
D11*
X26700000Y1668072D02*
X26971992Y1396080D01*
D10*
X17907000Y9271000D02*
X18923000Y10287000D01*
D11*
X15877000Y16635000D02*
X15877000Y16004000D01*
D11*
X25150000Y13050000D02*
X25162000Y13038000D01*
D11*
X27110992Y1396080D02*
X27618992Y1904080D01*
D11*
X14377000Y18146990D02*
X14377000Y16635000D01*
D11*
X27110992Y1396080D02*
X27618992Y888080D01*
D10*
X12000000Y15750000D02*
X12000000Y20636000D01*
D11*
X25150000Y14550000D02*
X25162000Y14562000D01*
G75*
D12*
X9540000Y12000000D03*
D12*
X7000000Y12000000D03*
D13*
X4460000Y12000000D03*
D14*
X39050000Y18104000D03*
D14*
X38100000Y20504000D03*
D14*
X37150000Y18104000D03*
D14*
X39050000Y20504000D03*
D14*
X38100000Y18104000D03*
D14*
X37150000Y20504000D03*
D15*
X22900000Y3150000D03*
D15*
X22900000Y4650000D03*
D16*
X15800000Y19250000D03*
D17*
X24200000Y19750000D03*
D16*
X15800000Y23250000D03*
D18*
X19250000Y25200000D03*
D16*
X15800000Y22250000D03*
D17*
X24200000Y21250000D03*
D19*
X21250000Y16800000D03*
D16*
X15800000Y22750000D03*
D19*
X17750000Y16800000D03*
D17*
X24200000Y18750000D03*
D18*
X17250000Y25200000D03*
D19*
X19250000Y16800000D03*
D16*
X15800000Y20750000D03*
D17*
X24200000Y23750000D03*
D19*
X21750000Y16800000D03*
D18*
X20250000Y25200000D03*
D17*
X24200000Y18250000D03*
D19*
X20250000Y16800000D03*
D18*
X19750000Y25200000D03*
D17*
X24200000Y22250000D03*
D17*
X24200000Y22750000D03*
D18*
X18250000Y25200000D03*
D17*
X24200000Y19250000D03*
D19*
X18250000Y16800000D03*
D16*
X15800000Y18750000D03*
D16*
X15800000Y23750000D03*
D19*
X18750000Y16800000D03*
D17*
X24200000Y20250000D03*
D19*
X22250000Y16800000D03*
D16*
X15800000Y20250000D03*
D19*
X20750000Y16800000D03*
D17*
X24200000Y21750000D03*
D16*
X15800000Y21750000D03*
D18*
X17750000Y25200000D03*
D16*
X15800000Y18250000D03*
D18*
X22750000Y25200000D03*
D18*
X18750000Y25200000D03*
D18*
X22250000Y25200000D03*
D17*
X24200000Y20750000D03*
D16*
X15800000Y19750000D03*
D16*
X15800000Y21250000D03*
D18*
X21750000Y25200000D03*
D19*
X19750000Y16800000D03*
D18*
X20750000Y25200000D03*
D18*
X21250000Y25200000D03*
D19*
X17250000Y16800000D03*
D17*
X24200000Y23250000D03*
D19*
X22750000Y16800000D03*
D20*
X28000000Y12750000D03*
D20*
X28000000Y11250000D03*
D21*
X16244000Y10668000D03*
D21*
X14744000Y10668000D03*
D22*
X34905000Y19110000D03*
D23*
X31095000Y21650000D03*
D24*
X32365000Y19110000D03*
D22*
X33635000Y21650000D03*
D25*
X26971992Y1396080D03*
D25*
X25471992Y1396080D03*
D26*
X8905000Y19110000D03*
D27*
X5095000Y21650000D03*
D26*
X6365000Y19110000D03*
D28*
X7635000Y21650000D03*
D29*
X18122000Y12581000D03*
D29*
X20322000Y12581000D03*
D29*
X20322000Y14181000D03*
D29*
X18122000Y14181000D03*
D30*
X12000000Y14250000D03*
D30*
X12000000Y15750000D03*
D30*
X12000000Y11250000D03*
D30*
X12000000Y12750000D03*
D15*
X16222000Y12631000D03*
D15*
X16222000Y14131000D03*
D30*
X28000000Y14250000D03*
D30*
X28000000Y15750000D03*
D15*
X24400000Y13050000D03*
D15*
X24400000Y14550000D03*
D31*
X25750000Y5700000D03*
D31*
X27650000Y5700000D03*
D32*
X27650000Y3100000D03*
D32*
X25750000Y3100000D03*
D32*
X26700000Y3100000D03*
D33*
X36588000Y22606000D03*
D33*
X38088000Y22606000D03*
D15*
X38862000Y11188000D03*
D15*
X38862000Y12688000D03*
D20*
X25000000Y29750000D03*
D20*
X25000000Y28250000D03*
D33*
X14377000Y16635000D03*
D33*
X15877000Y16635000D03*
D25*
X26023000Y25527000D03*
D25*
X24523000Y25527000D03*
D13*
X9540000Y15000000D03*
D13*
X7000000Y15000000D03*
D34*
X4460000Y15000000D03*
D35*
X38862000Y15990000D03*
D35*
X38862000Y14490000D03*
D15*
X12530000Y4965000D03*
D15*
X12530000Y6465000D03*
D34*
X22540000Y29000000D03*
D13*
X20000000Y29000000D03*
D36*
X17460000Y29000000D03*
D35*
X22222000Y14131000D03*
D35*
X22222000Y12631000D03*
D25*
X27450000Y7321000D03*
D25*
X25950000Y7321000D03*
D33*
X14744000Y9271000D03*
D33*
X16244000Y9271000D03*
D37*
X15080000Y6350000D03*
D37*
X15080000Y3810000D03*
D38*
X20480000Y6350000D03*
D37*
X15080000Y7620000D03*
D37*
X15080000Y5080000D03*
D38*
X20480000Y3810000D03*
D38*
X20480000Y5080000D03*
D38*
X20480000Y7620000D03*
D13*
X35540000Y15000000D03*
D13*
X33000000Y15000000D03*
D39*
X30460000Y15000000D03*
D35*
X15367000Y26785000D03*
D35*
X15367000Y25285000D03*
D34*
X35540000Y12000000D03*
D36*
X33000000Y12000000D03*
D13*
X30460000Y12000000D03*
D40*
X27618992Y888080D03*
D41*
X28300000Y3100000D03*
D41*
X21209000Y20193000D03*
D42*
X38862000Y10414000D03*
D43*
X19200000Y11700000D03*
D43*
X38862000Y13600000D03*
D41*
X26416000Y26535970D03*
D40*
X21000000Y18000000D03*
D44*
X13843000Y10668000D03*
D41*
X18900000Y15600000D03*
D42*
X38100000Y17145000D03*
D41*
X23500000Y5200000D03*
D44*
X23662000Y3138000D03*
D42*
X15600000Y11700000D03*
D44*
X35941000Y23150010D03*
D44*
X18923000Y10287000D03*
D42*
X11800000Y4200000D03*
D41*
X17700000Y2900000D03*
D40*
X21209000Y10668000D03*
D41*
X22900000Y11700000D03*
D44*
X27970000Y7829000D03*
D44*
X18684011Y23129011D03*
D41*
X25162000Y14562000D03*
D42*
X25162000Y13038000D03*
D44*
X11684000Y6350000D03*
D41*
X21590000Y6858000D03*
D40*
X24929992Y975080D03*
D41*
X25615614Y26535970D03*
D41*
X15875000Y16002000D03*
D41*
X22900000Y13400000D03*
D43*
X14351000Y26797000D03*
D44*
X27970000Y6813000D03*
D44*
X22900000Y15000000D03*
D41*
X21590000Y7620000D03*
D41*
X15600000Y13300000D03*
D45*
X18923000Y18415000D03*
D41*
X13843000Y9271000D03*
D40*
X15367000Y24638000D03*
D41*
X21336000Y22606000D03*
D41*
X18923000Y9525000D03*
D41*
X25430000Y7829000D03*
D41*
X25430000Y6813000D03*
D41*
X24929992Y1875080D03*
D41*
X17000000Y15000000D03*
D44*
X14351000Y16002000D03*
D41*
X38100000Y21463000D03*
D41*
X27618992Y1904080D03*
D41*
X17000000Y11700000D03*
D44*
X20200000Y15600000D03*
D41*
X20778155Y22598158D03*
D40*
X15600000Y15000000D03*
D41*
X18288000Y23622000D03*
M02*
