%FSLAX46Y46*%
%MOMM*%
%ADD10C,0.150000*%
G01*
G01*
%LPD*%
D10*
X28219048Y15380952D02*
X28314286Y15333333D01*
D10*
X28076190Y15523810D02*
X28219048Y15380952D01*
D10*
X28076190Y14523810D02*
X28076190Y15523810D01*
D10*
X25109524Y20290476D02*
X25109524Y21814286D01*
D10*
X24776190Y21814286D02*
X25109524Y21814286D01*
D10*
X24776190Y20290476D02*
X25109524Y20290476D01*
D10*
X24347620Y21576190D02*
X24395238Y21623810D01*
D10*
X24300000Y21623810D02*
X24347620Y21576190D01*
D10*
X24347620Y21671428D02*
X24300000Y21623810D01*
D10*
X24395238Y21623810D02*
X24347620Y21671428D01*
D10*
X24347620Y20480952D02*
X24347620Y21290476D01*
D10*
X24395238Y20338096D02*
X24347620Y20480952D01*
D10*
X24490476Y20290476D02*
X24395238Y20338096D01*
D10*
X24585714Y20290476D02*
X24490476Y20290476D01*
D10*
X23966666Y20814286D02*
X23966666Y21290476D01*
D10*
X23919048Y20671428D02*
X23966666Y20814286D01*
D10*
X23823810Y20623810D02*
X23919048Y20671428D01*
D10*
X23680952Y20623810D02*
X23823810Y20623810D01*
D10*
X23585714Y20671428D02*
X23680952Y20623810D01*
D10*
X23442858Y20814286D02*
X23585714Y20671428D01*
D10*
X23442858Y20623810D02*
X23442858Y21290476D01*
D10*
X22538096Y21004762D02*
X23109524Y21004762D01*
D10*
X22538096Y21100000D02*
X22538096Y21004762D01*
D10*
X22585714Y21195238D02*
X22538096Y21100000D01*
D10*
X22633334Y21242858D02*
X22585714Y21195238D01*
D10*
X22728572Y21290476D02*
X22633334Y21242858D01*
D10*
X22871428Y21290476D02*
X22728572Y21290476D01*
D10*
X22966666Y21242858D02*
X22871428Y21290476D01*
D10*
X23061904Y21147620D02*
X22966666Y21242858D01*
D10*
X23109524Y21004762D02*
X23061904Y21147620D01*
D10*
X23109524Y20909524D02*
X23109524Y21004762D01*
D10*
X23061904Y20766666D02*
X23109524Y20909524D01*
D10*
X22966666Y20671428D02*
X23061904Y20766666D01*
D10*
X22871428Y20623810D02*
X22966666Y20671428D01*
D10*
X22728572Y20623810D02*
X22871428Y20623810D01*
D10*
X22633334Y20671428D02*
X22728572Y20623810D01*
D10*
X22538096Y20766666D02*
X22633334Y20671428D01*
D10*
X22204762Y20671428D02*
X22157144Y20719048D01*
D10*
X22157144Y20623810D02*
X22204762Y20671428D01*
D10*
X22109524Y20671428D02*
X22157144Y20623810D01*
D10*
X22157144Y20719048D02*
X22109524Y20671428D01*
D10*
X21538096Y20623810D02*
X21823810Y21290476D01*
D10*
X21538096Y20623810D02*
X21252380Y21290476D01*
D10*
X21633334Y20433334D02*
X21538096Y20623810D01*
D10*
X21728572Y20338096D02*
X21633334Y20433334D01*
D10*
X21823810Y20290476D02*
X21728572Y20338096D01*
D10*
X21871428Y20290476D02*
X21823810Y20290476D01*
D10*
X20919048Y20814286D02*
X20919048Y21623810D01*
D10*
X20871428Y20671428D02*
X20919048Y20814286D01*
D10*
X20776190Y20623810D02*
X20871428Y20671428D01*
D10*
X20680952Y20623810D02*
X20776190Y20623810D01*
D10*
X20728572Y21290476D02*
X21061904Y21290476D01*
D10*
X20109524Y20290476D02*
X20109524Y21814286D01*
D10*
X20109524Y21814286D02*
X20442856Y21814286D01*
D10*
X20109524Y20290476D02*
X20442856Y20290476D01*
D10*
X19347620Y21433334D02*
X19347620Y21385714D01*
D10*
X19300000Y21528572D02*
X19347620Y21433334D01*
D10*
X19252380Y21576190D02*
X19300000Y21528572D01*
D10*
X19157144Y21623810D02*
X19252380Y21576190D01*
D10*
X18966668Y21623810D02*
X19157144Y21623810D01*
D10*
X18871428Y21576190D02*
X18966668Y21623810D01*
D10*
X18823810Y21528572D02*
X18871428Y21576190D01*
D10*
X18776190Y21433334D02*
X18823810Y21528572D01*
D10*
X18776190Y21338096D02*
X18776190Y21433334D01*
D10*
X18823810Y21242858D02*
X18776190Y21338096D01*
D10*
X18919048Y21100000D02*
X18823810Y21242858D01*
D10*
X19395238Y20623810D02*
X18919048Y21100000D01*
D10*
X18728572Y20623810D02*
X19395238Y20623810D01*
D10*
X18204762Y21480952D02*
X18300000Y21433334D01*
D10*
X18061904Y21623810D02*
X18204762Y21480952D01*
D10*
X18061904Y20623810D02*
X18061904Y21623810D01*
D10*
X17538096Y20290476D02*
X16680953Y21814286D01*
D10*
X16300000Y21576190D02*
X16157143Y21623810D01*
D10*
X16395238Y21433334D02*
X16300000Y21576190D01*
D10*
X16442857Y21195238D02*
X16395238Y21433334D01*
D10*
X16442857Y21052380D02*
X16442857Y21195238D01*
D10*
X16395238Y20814286D02*
X16442857Y21052380D01*
D10*
X16300000Y20671428D02*
X16395238Y20814286D01*
D10*
X16157143Y20623810D02*
X16300000Y20671428D01*
D10*
X16061905Y20623810D02*
X16157143Y20623810D01*
D10*
X15919048Y20671428D02*
X16061905Y20623810D01*
D10*
X15823810Y20814286D02*
X15919048Y20671428D01*
D10*
X15776191Y21052380D02*
X15823810Y20814286D01*
D10*
X15776191Y21195238D02*
X15776191Y21052380D01*
D10*
X15823810Y21433334D02*
X15776191Y21195238D01*
D10*
X15919048Y21576190D02*
X15823810Y21433334D01*
D10*
X16061905Y21623810D02*
X15919048Y21576190D01*
D10*
X16157143Y21623810D02*
X16061905Y21623810D01*
D10*
X15442857Y21433334D02*
X15442857Y21385714D01*
D10*
X15395238Y21528572D02*
X15442857Y21433334D01*
D10*
X15347619Y21576190D02*
X15395238Y21528572D01*
D10*
X15252381Y21623810D02*
X15347619Y21576190D01*
D10*
X15061905Y21623810D02*
X15252381Y21623810D01*
D10*
X14966667Y21576190D02*
X15061905Y21623810D01*
D10*
X14919048Y21528572D02*
X14966667Y21576190D01*
D10*
X14871429Y21433334D02*
X14919048Y21528572D01*
D10*
X14871429Y21338096D02*
X14871429Y21433334D01*
D10*
X14919048Y21242858D02*
X14871429Y21338096D01*
D10*
X15014286Y21100000D02*
X14919048Y21242858D01*
D10*
X15490476Y20623810D02*
X15014286Y21100000D01*
D10*
X14823810Y20623810D02*
X15490476Y20623810D01*
D10*
X25109524Y19123810D02*
X25109524Y20123810D01*
D10*
X24442858Y19123810D02*
X24442858Y20123810D01*
D10*
X24442858Y19647620D02*
X25109524Y19647620D01*
D10*
X23966666Y19742858D02*
X23871428Y19790476D01*
D10*
X24061904Y19647620D02*
X23966666Y19742858D01*
D10*
X24109524Y19504762D02*
X24061904Y19647620D01*
D10*
X24109524Y19409524D02*
X24109524Y19504762D01*
D10*
X24061904Y19266666D02*
X24109524Y19409524D01*
D10*
X23966666Y19171428D02*
X24061904Y19266666D01*
D10*
X23871428Y19123810D02*
X23966666Y19171428D01*
D10*
X23728572Y19123810D02*
X23871428Y19123810D01*
D10*
X23633334Y19171428D02*
X23728572Y19123810D01*
D10*
X23538096Y19266666D02*
X23633334Y19171428D01*
D10*
X23490476Y19409524D02*
X23538096Y19266666D01*
D10*
X23490476Y19504762D02*
X23490476Y19409524D01*
D10*
X23538096Y19647620D02*
X23490476Y19504762D01*
D10*
X23633334Y19742858D02*
X23538096Y19647620D01*
D10*
X23728572Y19790476D02*
X23633334Y19742858D01*
D10*
X23871428Y19790476D02*
X23728572Y19790476D01*
D10*
X23157144Y19123810D02*
X23157144Y19790476D01*
D10*
X23014286Y19742858D02*
X23157144Y19600000D01*
D10*
X22919048Y19790476D02*
X23014286Y19742858D01*
D10*
X22776190Y19790476D02*
X22919048Y19790476D01*
D10*
X22680952Y19742858D02*
X22776190Y19790476D01*
D10*
X22633334Y19600000D02*
X22680952Y19742858D01*
D10*
X22633334Y19123810D02*
X22633334Y19600000D01*
D10*
X22490476Y19742858D02*
X22633334Y19600000D01*
D10*
X22395238Y19790476D02*
X22490476Y19742858D01*
D10*
X22252380Y19790476D02*
X22395238Y19790476D01*
D10*
X22157144Y19742858D02*
X22252380Y19790476D01*
D10*
X22109524Y19600000D02*
X22157144Y19742858D01*
D10*
X22109524Y19123810D02*
X22109524Y19600000D01*
D10*
X21728572Y20076190D02*
X21776190Y20123810D01*
D10*
X21680952Y20123810D02*
X21728572Y20076190D01*
D10*
X21728572Y20171428D02*
X21680952Y20123810D01*
D10*
X21776190Y20123810D02*
X21728572Y20171428D01*
D10*
X21728572Y19123810D02*
X21728572Y19790476D01*
D10*
X20823810Y19504762D02*
X21395238Y19504762D01*
D10*
X20823810Y19600000D02*
X20823810Y19504762D01*
D10*
X20871428Y19695238D02*
X20823810Y19600000D01*
D10*
X20919048Y19742858D02*
X20871428Y19695238D01*
D10*
X21014286Y19790476D02*
X20919048Y19742858D01*
D10*
X21157144Y19790476D02*
X21014286Y19790476D01*
D10*
X21252380Y19742858D02*
X21157144Y19790476D01*
D10*
X21347620Y19647620D02*
X21252380Y19742858D01*
D10*
X21395238Y19504762D02*
X21347620Y19647620D01*
D10*
X21395238Y19409524D02*
X21395238Y19504762D01*
D10*
X21347620Y19266666D02*
X21395238Y19409524D01*
D10*
X21252380Y19171428D02*
X21347620Y19266666D01*
D10*
X21157144Y19123810D02*
X21252380Y19171428D01*
D10*
X21014286Y19123810D02*
X21157144Y19123810D01*
D10*
X20919048Y19171428D02*
X21014286Y19123810D01*
D10*
X20823810Y19266666D02*
X20919048Y19171428D01*
D10*
X19585714Y20076190D02*
X19490476Y19980952D01*
D10*
X19728572Y20123810D02*
X19585714Y20076190D01*
D10*
X19919048Y20123810D02*
X19728572Y20123810D01*
D10*
X20061904Y20076190D02*
X19919048Y20123810D01*
D10*
X20157144Y19980952D02*
X20061904Y20076190D01*
D10*
X20157144Y19885714D02*
X20157144Y19980952D01*
D10*
X20109524Y19790476D02*
X20157144Y19885714D01*
D10*
X20061904Y19742858D02*
X20109524Y19790476D01*
D10*
X19966668Y19695238D02*
X20061904Y19742858D01*
D10*
X19680952Y19600000D02*
X19966668Y19695238D01*
D10*
X19585714Y19552380D02*
X19680952Y19600000D01*
D10*
X19538096Y19504762D02*
X19585714Y19552380D01*
D10*
X19490476Y19409524D02*
X19538096Y19504762D01*
D10*
X19490476Y19266666D02*
X19490476Y19409524D01*
D10*
X19585714Y19171428D02*
X19490476Y19266666D01*
D10*
X19728572Y19123810D02*
X19585714Y19171428D01*
D10*
X19919048Y19123810D02*
X19728572Y19123810D01*
D10*
X20061904Y19171428D02*
X19919048Y19123810D01*
D10*
X20157144Y19266666D02*
X20061904Y19171428D01*
D10*
X19014286Y19123810D02*
X19204762Y19790476D01*
D10*
X19014286Y19123810D02*
X18823810Y19790476D01*
D10*
X18633334Y19123810D02*
X18823810Y19790476D01*
D10*
X18633334Y19123810D02*
X18442856Y19790476D01*
D10*
X18109524Y20076190D02*
X18157144Y20123810D01*
D10*
X18061904Y20123810D02*
X18109524Y20076190D01*
D10*
X18109524Y20171428D02*
X18061904Y20123810D01*
D10*
X18157144Y20123810D02*
X18109524Y20171428D01*
D10*
X18109524Y19123810D02*
X18109524Y19790476D01*
D10*
X17680952Y19314286D02*
X17680952Y20123810D01*
D10*
X17633334Y19171428D02*
X17680952Y19314286D01*
D10*
X17538096Y19123810D02*
X17633334Y19171428D01*
D10*
X17442858Y19123810D02*
X17538096Y19123810D01*
D10*
X17490476Y19790476D02*
X17823810Y19790476D01*
D10*
X16728572Y19742858D02*
X16633333Y19647620D01*
D10*
X16823810Y19790476D02*
X16728572Y19742858D01*
D10*
X16966668Y19790476D02*
X16823810Y19790476D01*
D10*
X17061904Y19742858D02*
X16966668Y19790476D01*
D10*
X17157144Y19647620D02*
X17061904Y19742858D01*
D10*
X17204762Y19504762D02*
X17157144Y19647620D01*
D10*
X17204762Y19409524D02*
X17204762Y19504762D01*
D10*
X17157144Y19266666D02*
X17204762Y19409524D01*
D10*
X17061904Y19171428D02*
X17157144Y19266666D01*
D10*
X16966668Y19123810D02*
X17061904Y19171428D01*
D10*
X16823810Y19123810D02*
X16966668Y19123810D01*
D10*
X16728572Y19171428D02*
X16823810Y19123810D01*
D10*
X16633333Y19266666D02*
X16728572Y19171428D01*
D10*
X16300000Y19123810D02*
X16300000Y20123810D01*
D10*
X16157143Y19742858D02*
X16300000Y19600000D01*
D10*
X16061905Y19790476D02*
X16157143Y19742858D01*
D10*
X15919048Y19790476D02*
X16061905Y19790476D01*
D10*
X15823810Y19742858D02*
X15919048Y19790476D01*
D10*
X15776191Y19600000D02*
X15823810Y19742858D01*
D10*
X15776191Y19123810D02*
X15776191Y19600000D01*
D10*
X15204762Y19123810D02*
X15490476Y19790476D01*
D10*
X15204762Y19123810D02*
X14919048Y19790476D01*
D10*
X15300000Y18933334D02*
X15204762Y19123810D01*
D10*
X15395238Y18838096D02*
X15300000Y18933334D01*
D10*
X15490476Y18790476D02*
X15395238Y18838096D01*
D10*
X15538095Y18790476D02*
X15490476Y18790476D01*
D10*
X15314286Y29476190D02*
X15171429Y29523810D01*
D10*
X15409524Y29333334D02*
X15314286Y29476190D01*
D10*
X15457143Y29095238D02*
X15409524Y29333334D01*
D10*
X15457143Y28952380D02*
X15457143Y29095238D01*
D10*
X15409524Y28714286D02*
X15457143Y28952380D01*
D10*
X15314286Y28571428D02*
X15409524Y28714286D01*
D10*
X15171429Y28523810D02*
X15314286Y28571428D01*
D10*
X15076190Y28523810D02*
X15171429Y28523810D01*
D10*
X14933333Y28571428D02*
X15076190Y28523810D01*
D10*
X14838095Y28714286D02*
X14933333Y28571428D01*
D10*
X14790476Y28952380D02*
X14838095Y28714286D01*
D10*
X14790476Y29095238D02*
X14790476Y28952380D01*
D10*
X14838095Y29333334D02*
X14790476Y29095238D01*
D10*
X14933333Y29476190D02*
X14838095Y29333334D01*
D10*
X15076190Y29523810D02*
X14933333Y29476190D01*
D10*
X15171429Y29523810D02*
X15076190Y29523810D01*
D10*
X12209524Y14857143D02*
X11733333Y15523810D01*
D10*
X11495238Y14857143D02*
X12209524Y14857143D01*
D10*
X11733333Y14523810D02*
X11733333Y15523810D01*
D10*
X28409524Y12333333D02*
X28409524Y12285714D01*
D10*
X28361904Y12428571D02*
X28409524Y12333333D01*
D10*
X28314286Y12476190D02*
X28361904Y12428571D01*
D10*
X28219048Y12523810D02*
X28314286Y12476190D01*
D10*
X28028572Y12523810D02*
X28219048Y12523810D01*
D10*
X27933334Y12476190D02*
X28028572Y12523810D01*
D10*
X27885714Y12428571D02*
X27933334Y12476190D01*
D10*
X27838096Y12333333D02*
X27885714Y12428571D01*
D10*
X27838096Y12238095D02*
X27838096Y12333333D01*
D10*
X27885714Y12142857D02*
X27838096Y12238095D01*
D10*
X27980952Y12000000D02*
X27885714Y12142857D01*
D10*
X28457142Y11523810D02*
X27980952Y12000000D01*
D10*
X27790476Y11523810D02*
X28457142Y11523810D01*
D10*
X11590476Y12523810D02*
X12114286Y12523810D01*
D10*
X11876190Y12142857D02*
X11590476Y12523810D01*
D10*
X11733333Y12142857D02*
X11876190Y12142857D01*
D10*
X11638095Y12095238D02*
X11733333Y12142857D01*
D10*
X11590476Y12047619D02*
X11638095Y12095238D01*
D10*
X11542857Y11904762D02*
X11590476Y12047619D01*
D10*
X11542857Y11809524D02*
X11542857Y11904762D01*
D10*
X11590476Y11666667D02*
X11542857Y11809524D01*
D10*
X11685714Y11571429D02*
X11590476Y11666667D01*
D10*
X11828571Y11523810D02*
X11685714Y11571429D01*
D10*
X11971429Y11523810D02*
X11828571Y11523810D01*
D10*
X12114286Y11571429D02*
X11971429Y11523810D01*
D10*
X12161905Y11619048D02*
X12114286Y11571429D01*
D10*
X12209524Y11714286D02*
X12161905Y11619048D01*
D10*
X21942029Y9676450D02*
X20777239Y10841239D01*
D10*
X19222761Y10841239D02*
X18057971Y9676450D01*
D10*
X17587000Y8540000D02*
X17587000Y1936000D01*
D10*
X22413000Y1936000D02*
X22413000Y8540000D01*
D10*
X18984000Y539000D02*
X21016000Y539000D01*
D10*
X17587000Y8540000D02*
X17587125Y8559724D01*
D10*
X17587125Y8559724D02*
X17587491Y8579445D01*
D10*
X17587491Y8579445D02*
X17588100Y8599160D01*
D10*
X17588100Y8599160D02*
X17588950Y8618866D01*
D10*
X17588950Y8618866D02*
X17590043Y8638560D01*
D10*
X17590043Y8638560D02*
X17591377Y8658240D01*
D10*
X17591377Y8658240D02*
X17592952Y8677901D01*
D10*
X17592952Y8677901D02*
X17594768Y8697542D01*
D10*
X17594768Y8697542D02*
X17596825Y8717159D01*
D10*
X17596825Y8717159D02*
X17599123Y8736749D01*
D10*
X17599123Y8736749D02*
X17601661Y8756310D01*
D10*
X17601661Y8756310D02*
X17604439Y8775837D01*
D10*
X17604439Y8775837D02*
X17607457Y8795330D01*
D10*
X17607457Y8795330D02*
X17610713Y8814784D01*
D10*
X17610713Y8814784D02*
X17614208Y8834196D01*
D10*
X17614208Y8834196D02*
X17617940Y8853564D01*
D10*
X17617940Y8853564D02*
X17621911Y8872885D01*
D10*
X17621911Y8872885D02*
X17626117Y8892156D01*
D10*
X17626117Y8892156D02*
X17630561Y8911373D01*
D10*
X17630561Y8911373D02*
X17635239Y8930535D01*
D10*
X17635239Y8930535D02*
X17640153Y8949637D01*
D10*
X17640153Y8949637D02*
X17645300Y8968678D01*
D10*
X17645300Y8968678D02*
X17650681Y8987655D01*
D10*
X17650681Y8987655D02*
X17656294Y9006564D01*
D10*
X17656294Y9006564D02*
X17662139Y9025402D01*
D10*
X17662139Y9025402D02*
X17668214Y9044168D01*
D10*
X17668214Y9044168D02*
X17674520Y9062857D01*
D10*
X17674520Y9062857D02*
X17681054Y9081468D01*
D10*
X17681054Y9081468D02*
X17687816Y9099997D01*
D10*
X17687816Y9099997D02*
X17694805Y9118442D01*
D10*
X17694805Y9118442D02*
X17702020Y9136800D01*
D10*
X17702020Y9136800D02*
X17709459Y9155067D01*
D10*
X17709459Y9155067D02*
X17717123Y9173242D01*
D10*
X17717123Y9173242D02*
X17725008Y9191322D01*
D10*
X17725008Y9191322D02*
X17733115Y9209303D01*
D10*
X17733115Y9209303D02*
X17741442Y9227184D01*
D10*
X17741442Y9227184D02*
X17749988Y9244961D01*
D10*
X17749988Y9244961D02*
X17758751Y9262632D01*
D10*
X17758751Y9262632D02*
X17767731Y9280194D01*
D10*
X17767731Y9280194D02*
X17776925Y9297645D01*
D10*
X17776925Y9297645D02*
X17786333Y9314981D01*
D10*
X17786333Y9314981D02*
X17795953Y9332201D01*
D10*
X17795953Y9332201D02*
X17805783Y9349301D01*
D10*
X17805783Y9349301D02*
X17815822Y9366279D01*
D10*
X17815822Y9366279D02*
X17826069Y9383133D01*
D10*
X17826069Y9383133D02*
X17836523Y9399860D01*
D10*
X17836523Y9399860D02*
X17847180Y9416457D01*
D10*
X17847180Y9416457D02*
X17858041Y9432923D01*
D10*
X17858041Y9432923D02*
X17869102Y9449253D01*
D10*
X17869102Y9449253D02*
X17880364Y9465447D01*
D10*
X17880364Y9465447D02*
X17891823Y9481502D01*
D10*
X17891823Y9481502D02*
X17903478Y9497414D01*
D10*
X17903478Y9497414D02*
X17915328Y9513182D01*
D10*
X17915328Y9513182D02*
X17927370Y9528804D01*
D10*
X17927370Y9528804D02*
X17939603Y9544277D01*
D10*
X17939603Y9544277D02*
X17952025Y9559598D01*
D10*
X17952025Y9559598D02*
X17964634Y9574766D01*
D10*
X17964634Y9574766D02*
X17977429Y9589778D01*
D10*
X17977429Y9589778D02*
X17990406Y9604632D01*
D10*
X17990406Y9604632D02*
X18003565Y9619326D01*
D10*
X18003565Y9619326D02*
X18016903Y9633857D01*
D10*
X18016903Y9633857D02*
X18030419Y9648223D01*
D10*
X18030419Y9648223D02*
X18044110Y9662422D01*
D10*
X18044110Y9662422D02*
X18057974Y9676452D01*
D10*
X18984000Y539000D02*
X18949716Y539421D01*
D10*
X18949716Y539421D02*
X18915453Y540683D01*
D10*
X18915453Y540683D02*
X18881231Y542785D01*
D10*
X18881231Y542785D02*
X18847070Y545727D01*
D10*
X18847070Y545727D02*
X18812993Y549506D01*
D10*
X18812993Y549506D02*
X18779018Y554121D01*
D10*
X18779018Y554121D02*
X18745167Y559567D01*
D10*
X18745167Y559567D02*
X18711459Y565843D01*
D10*
X18711459Y565843D02*
X18677916Y572944D01*
D10*
X18677916Y572944D02*
X18644557Y580867D01*
D10*
X18644557Y580867D02*
X18611403Y589605D01*
D10*
X18611403Y589605D02*
X18578473Y599155D01*
D10*
X18578473Y599155D02*
X18545787Y609509D01*
D10*
X18545787Y609509D02*
X18513365Y620663D01*
D10*
X18513365Y620663D02*
X18481227Y632609D01*
D10*
X18481227Y632609D02*
X18449392Y645341D01*
D10*
X18449392Y645341D02*
X18417878Y658849D01*
D10*
X18417878Y658849D02*
X18386706Y673127D01*
D10*
X18386706Y673127D02*
X18355893Y688166D01*
D10*
X18355893Y688166D02*
X18325459Y703956D01*
D10*
X18325459Y703956D02*
X18295422Y720489D01*
D10*
X18295422Y720489D02*
X18265799Y737753D01*
D10*
X18265799Y737753D02*
X18236609Y755740D01*
D10*
X18236609Y755740D02*
X18207869Y774437D01*
D10*
X18207869Y774437D02*
X18179596Y793834D01*
D10*
X18179596Y793834D02*
X18151808Y813919D01*
D10*
X18151808Y813919D02*
X18124522Y834680D01*
D10*
X18124522Y834680D02*
X18097753Y856105D01*
D10*
X18097753Y856105D02*
X18071518Y878180D01*
D10*
X18071518Y878180D02*
X18045832Y900892D01*
D10*
X18045832Y900892D02*
X18020712Y924227D01*
D10*
X18020712Y924227D02*
X17996172Y948172D01*
D10*
X17996172Y948172D02*
X17972227Y972712D01*
D10*
X17972227Y972712D02*
X17948891Y997833D01*
D10*
X17948891Y997833D02*
X17926179Y1023518D01*
D10*
X17926179Y1023518D02*
X17904105Y1049753D01*
D10*
X17904105Y1049753D02*
X17882680Y1076522D01*
D10*
X17882680Y1076522D02*
X17861919Y1103809D01*
D10*
X17861919Y1103809D02*
X17841834Y1131596D01*
D10*
X17841834Y1131596D02*
X17822437Y1159869D01*
D10*
X17822437Y1159869D02*
X17803740Y1188609D01*
D10*
X17803740Y1188609D02*
X17785753Y1217799D01*
D10*
X17785753Y1217799D02*
X17768489Y1247422D01*
D10*
X17768489Y1247422D02*
X17751956Y1277459D01*
D10*
X17751956Y1277459D02*
X17736166Y1307893D01*
D10*
X17736166Y1307893D02*
X17721127Y1338706D01*
D10*
X17721127Y1338706D02*
X17706849Y1369878D01*
D10*
X17706849Y1369878D02*
X17693341Y1401391D01*
D10*
X17693341Y1401391D02*
X17680609Y1433227D01*
D10*
X17680609Y1433227D02*
X17668663Y1465365D01*
D10*
X17668663Y1465365D02*
X17657510Y1497786D01*
D10*
X17657510Y1497786D02*
X17647155Y1530472D01*
D10*
X17647155Y1530472D02*
X17637605Y1563402D01*
D10*
X17637605Y1563402D02*
X17628867Y1596556D01*
D10*
X17628867Y1596556D02*
X17620945Y1629915D01*
D10*
X17620945Y1629915D02*
X17613843Y1663458D01*
D10*
X17613843Y1663458D02*
X17607568Y1697166D01*
D10*
X17607568Y1697166D02*
X17602121Y1731017D01*
D10*
X17602121Y1731017D02*
X17597507Y1764992D01*
D10*
X17597507Y1764992D02*
X17593727Y1799069D01*
D10*
X17593727Y1799069D02*
X17590786Y1833230D01*
D10*
X17590786Y1833230D02*
X17588683Y1867452D01*
D10*
X17588683Y1867452D02*
X17587421Y1901715D01*
D10*
X17587421Y1901715D02*
X17587000Y1935999D01*
D10*
X19222762Y10841239D02*
X19242070Y10860079D01*
D10*
X19242070Y10860079D02*
X19261835Y10878440D01*
D10*
X19261835Y10878440D02*
X19282045Y10896310D01*
D10*
X19282045Y10896310D02*
X19302687Y10913679D01*
D10*
X19302687Y10913679D02*
X19323749Y10930536D01*
D10*
X19323749Y10930536D02*
X19345219Y10946871D01*
D10*
X19345219Y10946871D02*
X19367083Y10962675D01*
D10*
X19367083Y10962675D02*
X19389328Y10977936D01*
D10*
X19389328Y10977936D02*
X19411941Y10992648D01*
D10*
X19411941Y10992648D02*
X19434909Y11006800D01*
D10*
X19434909Y11006800D02*
X19458216Y11020384D01*
D10*
X19458216Y11020384D02*
X19481851Y11033392D01*
D10*
X19481851Y11033392D02*
X19505797Y11045816D01*
D10*
X19505797Y11045816D02*
X19530041Y11057649D01*
D10*
X19530041Y11057649D02*
X19554568Y11068883D01*
D10*
X19554568Y11068883D02*
X19579363Y11079512D01*
D10*
X19579363Y11079512D02*
X19604412Y11089529D01*
D10*
X19604412Y11089529D02*
X19629699Y11098928D01*
D10*
X19629699Y11098928D02*
X19655209Y11107704D01*
D10*
X19655209Y11107704D02*
X19680926Y11115852D01*
D10*
X19680926Y11115852D02*
X19706836Y11123365D01*
D10*
X19706836Y11123365D02*
X19732923Y11130241D01*
D10*
X19732923Y11130241D02*
X19759170Y11136474D01*
D10*
X19759170Y11136474D02*
X19785563Y11142062D01*
D10*
X19785563Y11142062D02*
X19812084Y11146999D01*
D10*
X19812084Y11146999D02*
X19838719Y11151285D01*
D10*
X19838719Y11151285D02*
X19865451Y11154916D01*
D10*
X19865451Y11154916D02*
X19892264Y11157889D01*
D10*
X19892264Y11157889D02*
X19919142Y11160204D01*
D10*
X19919142Y11160204D02*
X19946068Y11161858D01*
D10*
X19946068Y11161858D02*
X19973028Y11162851D01*
D10*
X19973028Y11162851D02*
X20000002Y11163182D01*
D10*
X20000002Y11163182D02*
X20026977Y11162851D01*
D10*
X20026977Y11162851D02*
X20053936Y11161858D01*
D10*
X20053936Y11161858D02*
X20080863Y11160203D01*
D10*
X20080863Y11160203D02*
X20107741Y11157889D01*
D10*
X20107741Y11157889D02*
X20134554Y11154915D01*
D10*
X20134554Y11154915D02*
X20161286Y11151284D01*
D10*
X20161286Y11151284D02*
X20187921Y11146999D01*
D10*
X20187921Y11146999D02*
X20214442Y11142061D01*
D10*
X20214442Y11142061D02*
X20240835Y11136473D01*
D10*
X20240835Y11136473D02*
X20267082Y11130240D01*
D10*
X20267082Y11130240D02*
X20293169Y11123364D01*
D10*
X20293169Y11123364D02*
X20319078Y11115850D01*
D10*
X20319078Y11115850D02*
X20344796Y11107703D01*
D10*
X20344796Y11107703D02*
X20370306Y11098927D01*
D10*
X20370306Y11098927D02*
X20395593Y11089527D01*
D10*
X20395593Y11089527D02*
X20420642Y11079510D01*
D10*
X20420642Y11079510D02*
X20445437Y11068881D01*
D10*
X20445437Y11068881D02*
X20469964Y11057647D01*
D10*
X20469964Y11057647D02*
X20494208Y11045814D01*
D10*
X20494208Y11045814D02*
X20518154Y11033390D01*
D10*
X20518154Y11033390D02*
X20541788Y11020382D01*
D10*
X20541788Y11020382D02*
X20565096Y11006797D01*
D10*
X20565096Y11006797D02*
X20588063Y10992645D01*
D10*
X20588063Y10992645D02*
X20610676Y10977934D01*
D10*
X20610676Y10977934D02*
X20632921Y10962672D01*
D10*
X20632921Y10962672D02*
X20654785Y10946868D01*
D10*
X20654785Y10946868D02*
X20676255Y10930533D01*
D10*
X20676255Y10930533D02*
X20697317Y10913676D01*
D10*
X20697317Y10913676D02*
X20717959Y10896307D01*
D10*
X20717959Y10896307D02*
X20738168Y10878437D01*
D10*
X20738168Y10878437D02*
X20757933Y10860076D01*
D10*
X20757933Y10860076D02*
X20777242Y10841235D01*
D10*
X21942028Y9676450D02*
X21955892Y9662420D01*
D10*
X21955892Y9662420D02*
X21969583Y9648220D01*
D10*
X21969583Y9648220D02*
X21983099Y9633854D01*
D10*
X21983099Y9633854D02*
X21996437Y9619323D01*
D10*
X21996437Y9619323D02*
X22009596Y9604630D01*
D10*
X22009596Y9604630D02*
X22022573Y9589776D01*
D10*
X22022573Y9589776D02*
X22035367Y9574764D01*
D10*
X22035367Y9574764D02*
X22047976Y9559596D01*
D10*
X22047976Y9559596D02*
X22060398Y9544275D01*
D10*
X22060398Y9544275D02*
X22072632Y9528802D01*
D10*
X22072632Y9528802D02*
X22084674Y9513180D01*
D10*
X22084674Y9513180D02*
X22096524Y9497412D01*
D10*
X22096524Y9497412D02*
X22108179Y9481499D01*
D10*
X22108179Y9481499D02*
X22119638Y9465445D01*
D10*
X22119638Y9465445D02*
X22130899Y9449251D01*
D10*
X22130899Y9449251D02*
X22141961Y9432920D01*
D10*
X22141961Y9432920D02*
X22152821Y9416455D01*
D10*
X22152821Y9416455D02*
X22163479Y9399857D01*
D10*
X22163479Y9399857D02*
X22173932Y9383131D01*
D10*
X22173932Y9383131D02*
X22184179Y9366277D01*
D10*
X22184179Y9366277D02*
X22194218Y9349298D01*
D10*
X22194218Y9349298D02*
X22204049Y9332198D01*
D10*
X22204049Y9332198D02*
X22213669Y9314978D01*
D10*
X22213669Y9314978D02*
X22223076Y9297642D01*
D10*
X22223076Y9297642D02*
X22232271Y9280191D01*
D10*
X22232271Y9280191D02*
X22241250Y9262629D01*
D10*
X22241250Y9262629D02*
X22250013Y9244958D01*
D10*
X22250013Y9244958D02*
X22258559Y9227181D01*
D10*
X22258559Y9227181D02*
X22266886Y9209301D01*
D10*
X22266886Y9209301D02*
X22274993Y9191319D01*
D10*
X22274993Y9191319D02*
X22282878Y9173240D01*
D10*
X22282878Y9173240D02*
X22290541Y9155065D01*
D10*
X22290541Y9155065D02*
X22297981Y9136797D01*
D10*
X22297981Y9136797D02*
X22305196Y9118439D01*
D10*
X22305196Y9118439D02*
X22312185Y9099994D01*
D10*
X22312185Y9099994D02*
X22318947Y9081465D01*
D10*
X22318947Y9081465D02*
X22325481Y9062854D01*
D10*
X22325481Y9062854D02*
X22331786Y9044165D01*
D10*
X22331786Y9044165D02*
X22337862Y9025399D01*
D10*
X22337862Y9025399D02*
X22343707Y9006561D01*
D10*
X22343707Y9006561D02*
X22349320Y8987652D01*
D10*
X22349320Y8987652D02*
X22354701Y8968675D01*
D10*
X22354701Y8968675D02*
X22359848Y8949635D01*
D10*
X22359848Y8949635D02*
X22364761Y8930532D01*
D10*
X22364761Y8930532D02*
X22369440Y8911370D01*
D10*
X22369440Y8911370D02*
X22373883Y8892153D01*
D10*
X22373883Y8892153D02*
X22378090Y8872882D01*
D10*
X22378090Y8872882D02*
X22382060Y8853561D01*
D10*
X22382060Y8853561D02*
X22385793Y8834193D01*
D10*
X22385793Y8834193D02*
X22389288Y8814781D01*
D10*
X22389288Y8814781D02*
X22392544Y8795327D01*
D10*
X22392544Y8795327D02*
X22395561Y8775834D01*
D10*
X22395561Y8775834D02*
X22398339Y8756307D01*
D10*
X22398339Y8756307D02*
X22400877Y8736746D01*
D10*
X22400877Y8736746D02*
X22403175Y8717156D01*
D10*
X22403175Y8717156D02*
X22405232Y8697539D01*
D10*
X22405232Y8697539D02*
X22407048Y8677898D01*
D10*
X22407048Y8677898D02*
X22408624Y8658237D01*
D10*
X22408624Y8658237D02*
X22409957Y8638557D01*
D10*
X22409957Y8638557D02*
X22411049Y8618863D01*
D10*
X22411049Y8618863D02*
X22411900Y8599157D01*
D10*
X22411900Y8599157D02*
X22412508Y8579442D01*
D10*
X22412508Y8579442D02*
X22412875Y8559721D01*
D10*
X22412875Y8559721D02*
X22413000Y8539997D01*
D10*
X22413000Y1936000D02*
X22412579Y1901716D01*
D10*
X22412579Y1901716D02*
X22411317Y1867453D01*
D10*
X22411317Y1867453D02*
X22409214Y1833230D01*
D10*
X22409214Y1833230D02*
X22406273Y1799070D01*
D10*
X22406273Y1799070D02*
X22402494Y1764992D01*
D10*
X22402494Y1764992D02*
X22397879Y1731017D01*
D10*
X22397879Y1731017D02*
X22392432Y1697166D01*
D10*
X22392432Y1697166D02*
X22386157Y1663458D01*
D10*
X22386157Y1663458D02*
X22379055Y1629915D01*
D10*
X22379055Y1629915D02*
X22371133Y1596556D01*
D10*
X22371133Y1596556D02*
X22362395Y1563401D01*
D10*
X22362395Y1563401D02*
X22352845Y1530471D01*
D10*
X22352845Y1530471D02*
X22342490Y1497786D01*
D10*
X22342490Y1497786D02*
X22331336Y1465364D01*
D10*
X22331336Y1465364D02*
X22319390Y1433225D01*
D10*
X22319390Y1433225D02*
X22306659Y1401390D01*
D10*
X22306659Y1401390D02*
X22293150Y1369877D01*
D10*
X22293150Y1369877D02*
X22278872Y1338704D01*
D10*
X22278872Y1338704D02*
X22263833Y1307892D01*
D10*
X22263833Y1307892D02*
X22248043Y1277457D01*
D10*
X22248043Y1277457D02*
X22231510Y1247420D01*
D10*
X22231510Y1247420D02*
X22214245Y1217797D01*
D10*
X22214245Y1217797D02*
X22196259Y1188607D01*
D10*
X22196259Y1188607D02*
X22177561Y1159867D01*
D10*
X22177561Y1159867D02*
X22158164Y1131594D01*
D10*
X22158164Y1131594D02*
X22138079Y1103806D01*
D10*
X22138079Y1103806D02*
X22117318Y1076520D01*
D10*
X22117318Y1076520D02*
X22095893Y1049751D01*
D10*
X22095893Y1049751D02*
X22073818Y1023516D01*
D10*
X22073818Y1023516D02*
X22051106Y997830D01*
D10*
X22051106Y997830D02*
X22027771Y972710D01*
D10*
X22027771Y972710D02*
X22003826Y948170D01*
D10*
X22003826Y948170D02*
X21979285Y924225D01*
D10*
X21979285Y924225D02*
X21954165Y900889D01*
D10*
X21954165Y900889D02*
X21928479Y878177D01*
D10*
X21928479Y878177D02*
X21902244Y856102D01*
D10*
X21902244Y856102D02*
X21875475Y834678D01*
D10*
X21875475Y834678D02*
X21848189Y813917D01*
D10*
X21848189Y813917D02*
X21820401Y793832D01*
D10*
X21820401Y793832D02*
X21792128Y774435D01*
D10*
X21792128Y774435D02*
X21763388Y755738D01*
D10*
X21763388Y755738D02*
X21734198Y737751D01*
D10*
X21734198Y737751D02*
X21704575Y720487D01*
D10*
X21704575Y720487D02*
X21674537Y703954D01*
D10*
X21674537Y703954D02*
X21644103Y688164D01*
D10*
X21644103Y688164D02*
X21613290Y673125D01*
D10*
X21613290Y673125D02*
X21582117Y658847D01*
D10*
X21582117Y658847D02*
X21550604Y645339D01*
D10*
X21550604Y645339D02*
X21518768Y632608D01*
D10*
X21518768Y632608D02*
X21486630Y620661D01*
D10*
X21486630Y620661D02*
X21454208Y609508D01*
D10*
X21454208Y609508D02*
X21421522Y599153D01*
D10*
X21421522Y599153D02*
X21388592Y589604D01*
D10*
X21388592Y589604D02*
X21355438Y580865D01*
D10*
X21355438Y580865D02*
X21322079Y572943D01*
D10*
X21322079Y572943D02*
X21288535Y565842D01*
D10*
X21288535Y565842D02*
X21254828Y559566D01*
D10*
X21254828Y559566D02*
X21220976Y554120D01*
D10*
X21220976Y554120D02*
X21187002Y549506D01*
D10*
X21187002Y549506D02*
X21152924Y545727D01*
D10*
X21152924Y545727D02*
X21118763Y542785D01*
D10*
X21118763Y542785D02*
X21084541Y540683D01*
D10*
X21084541Y540683D02*
X21050278Y539421D01*
D10*
X21050278Y539421D02*
X21015993Y539000D01*
D10*
X31160000Y9800000D02*
X29760000Y9800000D01*
D10*
X7400000Y10000000D02*
X6600000Y9200000D01*
D10*
X4960000Y9500000D02*
X3960000Y9500000D01*
D10*
X17760000Y26200000D02*
X17160000Y26200000D01*
D10*
X35540000Y9400000D02*
X35740000Y9800000D01*
D10*
X30960000Y9500000D02*
X29960000Y9500000D01*
D10*
X22540000Y27200000D02*
X22540000Y26800000D01*
D10*
X20400000Y27000000D02*
X19600000Y26200000D01*
D10*
X32600000Y10000000D02*
X33400000Y9200000D01*
D10*
X4760000Y9200000D02*
X4160000Y9200000D01*
D10*
X9540000Y9400000D02*
X9540000Y9000000D01*
D10*
X33400000Y10000000D02*
X32600000Y9200000D01*
D10*
X17960000Y26500000D02*
X16960000Y26500000D01*
D10*
X35540000Y10200000D02*
X35540000Y9800000D01*
D10*
X9540000Y10200000D02*
X9540000Y9800000D01*
D10*
X9540000Y9400000D02*
X9740000Y9800000D01*
D10*
X19600000Y27000000D02*
X20400000Y26200000D01*
D10*
X5160000Y9800000D02*
X3760000Y9800000D01*
D10*
X17460000Y26800000D02*
X17460000Y27200000D01*
D10*
X30460000Y9800000D02*
X30460000Y10200000D01*
D10*
X35540000Y9400000D02*
X35540000Y9000000D01*
D10*
X6600000Y10000000D02*
X7400000Y9200000D01*
D10*
X22540000Y26400000D02*
X22740000Y26800000D01*
D10*
X30760000Y9200000D02*
X30160000Y9200000D01*
D10*
X18160000Y26800000D02*
X16760000Y26800000D01*
D10*
X4460000Y9800000D02*
X4460000Y10200000D01*
D10*
X22540000Y26400000D02*
X22540000Y26000000D01*
D10*
X33400000Y10000000D02*
X33379892Y10019145D01*
D10*
X33379892Y10019145D02*
X33358868Y10037281D01*
D10*
X33358868Y10037281D02*
X33336978Y10054363D01*
D10*
X33336978Y10054363D02*
X33314278Y10070350D01*
D10*
X33314278Y10070350D02*
X33290820Y10085205D01*
D10*
X33290820Y10085205D02*
X33266662Y10098890D01*
D10*
X33266662Y10098890D02*
X33241862Y10111374D01*
D10*
X33241862Y10111374D02*
X33216478Y10122625D01*
D10*
X33216478Y10122625D02*
X33190574Y10132618D01*
D10*
X33190574Y10132618D02*
X33164210Y10141327D01*
D10*
X33164210Y10141327D02*
X33137450Y10148733D01*
D10*
X33137450Y10148733D02*
X33110360Y10154816D01*
D10*
X33110360Y10154816D02*
X33083004Y10159563D01*
D10*
X33083004Y10159563D02*
X33055446Y10162962D01*
D10*
X33055446Y10162962D02*
X33027756Y10165004D01*
D10*
X33027756Y10165004D02*
X33000000Y10165685D01*
D10*
X33000000Y10165685D02*
X32972242Y10165004D01*
D10*
X32972242Y10165004D02*
X32944552Y10162962D01*
D10*
X32944552Y10162962D02*
X32916996Y10159563D01*
D10*
X32916996Y10159563D02*
X32889640Y10154816D01*
D10*
X32889640Y10154816D02*
X32862550Y10148732D01*
D10*
X32862550Y10148732D02*
X32835790Y10141327D01*
D10*
X32835790Y10141327D02*
X32809426Y10132618D01*
D10*
X32809426Y10132618D02*
X32783522Y10122625D01*
D10*
X32783522Y10122625D02*
X32758138Y10111373D01*
D10*
X32758138Y10111373D02*
X32733338Y10098890D01*
D10*
X32733338Y10098890D02*
X32709180Y10085204D01*
D10*
X32709180Y10085204D02*
X32685722Y10070350D01*
D10*
X32685722Y10070350D02*
X32663022Y10054363D01*
D10*
X32663022Y10054363D02*
X32641132Y10037281D01*
D10*
X32641132Y10037281D02*
X32620108Y10019145D01*
D10*
X32620108Y10019145D02*
X32600000Y10000000D01*
D10*
X32600000Y10000000D02*
X32580854Y9979891D01*
D10*
X32580854Y9979891D02*
X32562720Y9958867D01*
D10*
X32562720Y9958867D02*
X32545638Y9936979D01*
D10*
X32545638Y9936979D02*
X32529650Y9914278D01*
D10*
X32529650Y9914278D02*
X32514796Y9890821D01*
D10*
X32514796Y9890821D02*
X32501110Y9866663D01*
D10*
X32501110Y9866663D02*
X32488626Y9841862D01*
D10*
X32488626Y9841862D02*
X32477376Y9816479D01*
D10*
X32477376Y9816479D02*
X32467382Y9790574D01*
D10*
X32467382Y9790574D02*
X32458672Y9764210D01*
D10*
X32458672Y9764210D02*
X32451268Y9737451D01*
D10*
X32451268Y9737451D02*
X32445184Y9710361D01*
D10*
X32445184Y9710361D02*
X32440438Y9683004D01*
D10*
X32440438Y9683004D02*
X32437038Y9655448D01*
D10*
X32437038Y9655448D02*
X32434996Y9627758D01*
D10*
X32434996Y9627758D02*
X32434314Y9600001D01*
D10*
X32434314Y9600001D02*
X32434996Y9572244D01*
D10*
X32434996Y9572244D02*
X32437038Y9544554D01*
D10*
X32437038Y9544554D02*
X32440438Y9516998D01*
D10*
X32440438Y9516998D02*
X32445184Y9489641D01*
D10*
X32445184Y9489641D02*
X32451268Y9462551D01*
D10*
X32451268Y9462551D02*
X32458672Y9435791D01*
D10*
X32458672Y9435791D02*
X32467382Y9409428D01*
D10*
X32467382Y9409428D02*
X32477374Y9383523D01*
D10*
X32477374Y9383523D02*
X32488626Y9358140D01*
D10*
X32488626Y9358140D02*
X32501110Y9333339D01*
D10*
X32501110Y9333339D02*
X32514794Y9309181D01*
D10*
X32514794Y9309181D02*
X32529648Y9285723D01*
D10*
X32529648Y9285723D02*
X32545636Y9263023D01*
D10*
X32545636Y9263023D02*
X32562718Y9241134D01*
D10*
X32562718Y9241134D02*
X32580854Y9220110D01*
D10*
X32580854Y9220110D02*
X32599998Y9200001D01*
D10*
X7400000Y10000000D02*
X7379891Y10019145D01*
D10*
X7379891Y10019145D02*
X7358867Y10037281D01*
D10*
X7358867Y10037281D02*
X7336978Y10054363D01*
D10*
X7336978Y10054363D02*
X7314278Y10070350D01*
D10*
X7314278Y10070350D02*
X7290820Y10085205D01*
D10*
X7290820Y10085205D02*
X7266662Y10098890D01*
D10*
X7266662Y10098890D02*
X7241861Y10111374D01*
D10*
X7241861Y10111374D02*
X7216478Y10122625D01*
D10*
X7216478Y10122625D02*
X7190573Y10132618D01*
D10*
X7190573Y10132618D02*
X7164209Y10141327D01*
D10*
X7164209Y10141327D02*
X7137450Y10148733D01*
D10*
X7137450Y10148733D02*
X7110359Y10154816D01*
D10*
X7110359Y10154816D02*
X7083003Y10159563D01*
D10*
X7083003Y10159563D02*
X7055446Y10162962D01*
D10*
X7055446Y10162962D02*
X7027756Y10165004D01*
D10*
X7027756Y10165004D02*
X7000000Y10165685D01*
D10*
X7000000Y10165685D02*
X6972243Y10165004D01*
D10*
X6972243Y10165004D02*
X6944553Y10162962D01*
D10*
X6944553Y10162962D02*
X6916996Y10159563D01*
D10*
X6916996Y10159563D02*
X6889640Y10154816D01*
D10*
X6889640Y10154816D02*
X6862549Y10148732D01*
D10*
X6862549Y10148732D02*
X6835790Y10141327D01*
D10*
X6835790Y10141327D02*
X6809426Y10132618D01*
D10*
X6809426Y10132618D02*
X6783521Y10122625D01*
D10*
X6783521Y10122625D02*
X6758138Y10111373D01*
D10*
X6758138Y10111373D02*
X6733337Y10098890D01*
D10*
X6733337Y10098890D02*
X6709179Y10085204D01*
D10*
X6709179Y10085204D02*
X6685722Y10070350D01*
D10*
X6685722Y10070350D02*
X6663021Y10054363D01*
D10*
X6663021Y10054363D02*
X6641133Y10037281D01*
D10*
X6641133Y10037281D02*
X6620109Y10019145D01*
D10*
X6620109Y10019145D02*
X6600000Y10000000D01*
D10*
X6600000Y10000000D02*
X6580855Y9979891D01*
D10*
X6580855Y9979891D02*
X6562719Y9958867D01*
D10*
X6562719Y9958867D02*
X6545637Y9936979D01*
D10*
X6545637Y9936979D02*
X6529650Y9914278D01*
D10*
X6529650Y9914278D02*
X6514795Y9890821D01*
D10*
X6514795Y9890821D02*
X6501110Y9866663D01*
D10*
X6501110Y9866663D02*
X6488626Y9841862D01*
D10*
X6488626Y9841862D02*
X6477375Y9816479D01*
D10*
X6477375Y9816479D02*
X6467382Y9790574D01*
D10*
X6467382Y9790574D02*
X6458673Y9764210D01*
D10*
X6458673Y9764210D02*
X6451267Y9737451D01*
D10*
X6451267Y9737451D02*
X6445184Y9710361D01*
D10*
X6445184Y9710361D02*
X6440437Y9683004D01*
D10*
X6440437Y9683004D02*
X6437038Y9655448D01*
D10*
X6437038Y9655448D02*
X6434996Y9627758D01*
D10*
X6434996Y9627758D02*
X6434314Y9600001D01*
D10*
X6434314Y9600001D02*
X6434996Y9572244D01*
D10*
X6434996Y9572244D02*
X6437038Y9544554D01*
D10*
X6437038Y9544554D02*
X6440437Y9516998D01*
D10*
X6440437Y9516998D02*
X6445184Y9489641D01*
D10*
X6445184Y9489641D02*
X6451267Y9462551D01*
D10*
X6451267Y9462551D02*
X6458672Y9435791D01*
D10*
X6458672Y9435791D02*
X6467382Y9409428D01*
D10*
X6467382Y9409428D02*
X6477374Y9383523D01*
D10*
X6477374Y9383523D02*
X6488626Y9358140D01*
D10*
X6488626Y9358140D02*
X6501109Y9333339D01*
D10*
X6501109Y9333339D02*
X6514794Y9309181D01*
D10*
X6514794Y9309181D02*
X6529649Y9285723D01*
D10*
X6529649Y9285723D02*
X6545636Y9263023D01*
D10*
X6545636Y9263023D02*
X6562718Y9241134D01*
D10*
X6562718Y9241134D02*
X6580853Y9220110D01*
D10*
X6580853Y9220110D02*
X6599998Y9200001D01*
D10*
X20400000Y27000000D02*
X20379892Y27019146D01*
D10*
X20379892Y27019146D02*
X20358868Y27037280D01*
D10*
X20358868Y27037280D02*
X20336978Y27054362D01*
D10*
X20336978Y27054362D02*
X20314278Y27070350D01*
D10*
X20314278Y27070350D02*
X20290820Y27085204D01*
D10*
X20290820Y27085204D02*
X20266662Y27098890D01*
D10*
X20266662Y27098890D02*
X20241862Y27111374D01*
D10*
X20241862Y27111374D02*
X20216478Y27122626D01*
D10*
X20216478Y27122626D02*
X20190574Y27132618D01*
D10*
X20190574Y27132618D02*
X20164210Y27141328D01*
D10*
X20164210Y27141328D02*
X20137450Y27148732D01*
D10*
X20137450Y27148732D02*
X20110360Y27154816D01*
D10*
X20110360Y27154816D02*
X20083004Y27159562D01*
D10*
X20083004Y27159562D02*
X20055446Y27162962D01*
D10*
X20055446Y27162962D02*
X20027756Y27165004D01*
D10*
X20027756Y27165004D02*
X20000000Y27165686D01*
D10*
X20000000Y27165686D02*
X19972242Y27165004D01*
D10*
X19972242Y27165004D02*
X19944552Y27162962D01*
D10*
X19944552Y27162962D02*
X19916996Y27159562D01*
D10*
X19916996Y27159562D02*
X19889640Y27154816D01*
D10*
X19889640Y27154816D02*
X19862550Y27148732D01*
D10*
X19862550Y27148732D02*
X19835790Y27141328D01*
D10*
X19835790Y27141328D02*
X19809426Y27132618D01*
D10*
X19809426Y27132618D02*
X19783522Y27122626D01*
D10*
X19783522Y27122626D02*
X19758138Y27111374D01*
D10*
X19758138Y27111374D02*
X19733338Y27098890D01*
D10*
X19733338Y27098890D02*
X19709180Y27085204D01*
D10*
X19709180Y27085204D02*
X19685722Y27070350D01*
D10*
X19685722Y27070350D02*
X19663022Y27054362D01*
D10*
X19663022Y27054362D02*
X19641132Y27037280D01*
D10*
X19641132Y27037280D02*
X19620108Y27019146D01*
D10*
X19620108Y27019146D02*
X19600000Y27000000D01*
D10*
X19600000Y27000000D02*
X19580854Y26979892D01*
D10*
X19580854Y26979892D02*
X19562720Y26958868D01*
D10*
X19562720Y26958868D02*
X19545638Y26936978D01*
D10*
X19545638Y26936978D02*
X19529650Y26914278D01*
D10*
X19529650Y26914278D02*
X19514796Y26890820D01*
D10*
X19514796Y26890820D02*
X19501110Y26866662D01*
D10*
X19501110Y26866662D02*
X19488626Y26841862D01*
D10*
X19488626Y26841862D02*
X19477376Y26816478D01*
D10*
X19477376Y26816478D02*
X19467382Y26790574D01*
D10*
X19467382Y26790574D02*
X19458672Y26764210D01*
D10*
X19458672Y26764210D02*
X19451268Y26737452D01*
D10*
X19451268Y26737452D02*
X19445184Y26710360D01*
D10*
X19445184Y26710360D02*
X19440438Y26683004D01*
D10*
X19440438Y26683004D02*
X19437038Y26655448D01*
D10*
X19437038Y26655448D02*
X19434996Y26627758D01*
D10*
X19434996Y26627758D02*
X19434314Y26600002D01*
D10*
X19434314Y26600002D02*
X19434996Y26572244D01*
D10*
X19434996Y26572244D02*
X19437038Y26544554D01*
D10*
X19437038Y26544554D02*
X19440438Y26516998D01*
D10*
X19440438Y26516998D02*
X19445184Y26489642D01*
D10*
X19445184Y26489642D02*
X19451268Y26462550D01*
D10*
X19451268Y26462550D02*
X19458672Y26435792D01*
D10*
X19458672Y26435792D02*
X19467382Y26409428D01*
D10*
X19467382Y26409428D02*
X19477374Y26383522D01*
D10*
X19477374Y26383522D02*
X19488626Y26358140D01*
D10*
X19488626Y26358140D02*
X19501110Y26333340D01*
D10*
X19501110Y26333340D02*
X19514794Y26309180D01*
D10*
X19514794Y26309180D02*
X19529648Y26285724D01*
D10*
X19529648Y26285724D02*
X19545636Y26263024D01*
D10*
X19545636Y26263024D02*
X19562718Y26241134D01*
D10*
X19562718Y26241134D02*
X19580854Y26220110D01*
D10*
X19580854Y26220110D02*
X19599998Y26200002D01*
D10*
X32600000Y9200000D02*
X32620108Y9180855D01*
D10*
X32620108Y9180855D02*
X32641132Y9162719D01*
D10*
X32641132Y9162719D02*
X32663022Y9145637D01*
D10*
X32663022Y9145637D02*
X32685722Y9129650D01*
D10*
X32685722Y9129650D02*
X32709180Y9114795D01*
D10*
X32709180Y9114795D02*
X32733338Y9101110D01*
D10*
X32733338Y9101110D02*
X32758138Y9088626D01*
D10*
X32758138Y9088626D02*
X32783522Y9077375D01*
D10*
X32783522Y9077375D02*
X32809426Y9067382D01*
D10*
X32809426Y9067382D02*
X32835790Y9058673D01*
D10*
X32835790Y9058673D02*
X32862550Y9051267D01*
D10*
X32862550Y9051267D02*
X32889640Y9045184D01*
D10*
X32889640Y9045184D02*
X32916998Y9040437D01*
D10*
X32916998Y9040437D02*
X32944554Y9037038D01*
D10*
X32944554Y9037038D02*
X32972244Y9034996D01*
D10*
X32972244Y9034996D02*
X33000002Y9034315D01*
D10*
X33000002Y9034315D02*
X33027758Y9034996D01*
D10*
X33027758Y9034996D02*
X33055448Y9037039D01*
D10*
X33055448Y9037039D02*
X33083004Y9040437D01*
D10*
X33083004Y9040437D02*
X33110362Y9045184D01*
D10*
X33110362Y9045184D02*
X33137452Y9051268D01*
D10*
X33137452Y9051268D02*
X33164212Y9058673D01*
D10*
X33164212Y9058673D02*
X33190576Y9067383D01*
D10*
X33190576Y9067383D02*
X33216480Y9077375D01*
D10*
X33216480Y9077375D02*
X33241864Y9088627D01*
D10*
X33241864Y9088627D02*
X33266664Y9101111D01*
D10*
X33266664Y9101111D02*
X33290822Y9114796D01*
D10*
X33290822Y9114796D02*
X33314280Y9129651D01*
D10*
X33314280Y9129651D02*
X33336980Y9145638D01*
D10*
X33336980Y9145638D02*
X33358868Y9162721D01*
D10*
X33358868Y9162721D02*
X33379892Y9180856D01*
D10*
X33379892Y9180856D02*
X33400002Y9200002D01*
D10*
X33400002Y9200002D02*
X33419146Y9220111D01*
D10*
X33419146Y9220111D02*
X33437282Y9241135D01*
D10*
X33437282Y9241135D02*
X33454364Y9263024D01*
D10*
X33454364Y9263024D02*
X33470352Y9285724D01*
D10*
X33470352Y9285724D02*
X33485206Y9309182D01*
D10*
X33485206Y9309182D02*
X33498892Y9333340D01*
D10*
X33498892Y9333340D02*
X33511374Y9358141D01*
D10*
X33511374Y9358141D02*
X33522626Y9383524D01*
D10*
X33522626Y9383524D02*
X33532618Y9409429D01*
D10*
X33532618Y9409429D02*
X33541328Y9435793D01*
D10*
X33541328Y9435793D02*
X33548734Y9462553D01*
D10*
X33548734Y9462553D02*
X33554816Y9489643D01*
D10*
X33554816Y9489643D02*
X33559564Y9517000D01*
D10*
X33559564Y9517000D02*
X33562960Y9544557D01*
D10*
X33562960Y9544557D02*
X33565004Y9572247D01*
D10*
X33565004Y9572247D02*
X33565684Y9600004D01*
D10*
X33565684Y9600004D02*
X33565004Y9627761D01*
D10*
X33565004Y9627761D02*
X33562960Y9655451D01*
D10*
X33562960Y9655451D02*
X33559564Y9683007D01*
D10*
X33559564Y9683007D02*
X33554816Y9710364D01*
D10*
X33554816Y9710364D02*
X33548732Y9737454D01*
D10*
X33548732Y9737454D02*
X33541326Y9764214D01*
D10*
X33541326Y9764214D02*
X33532616Y9790578D01*
D10*
X33532616Y9790578D02*
X33522624Y9816482D01*
D10*
X33522624Y9816482D02*
X33511372Y9841866D01*
D10*
X33511372Y9841866D02*
X33498888Y9866666D01*
D10*
X33498888Y9866666D02*
X33485202Y9890824D01*
D10*
X33485202Y9890824D02*
X33470348Y9914282D01*
D10*
X33470348Y9914282D02*
X33454360Y9936982D01*
D10*
X33454360Y9936982D02*
X33437278Y9958871D01*
D10*
X33437278Y9958871D02*
X33419142Y9979895D01*
D10*
X33419142Y9979895D02*
X33399996Y10000003D01*
D10*
X6600000Y9200000D02*
X6620109Y9180855D01*
D10*
X6620109Y9180855D02*
X6641133Y9162719D01*
D10*
X6641133Y9162719D02*
X6663021Y9145637D01*
D10*
X6663021Y9145637D02*
X6685722Y9129650D01*
D10*
X6685722Y9129650D02*
X6709180Y9114795D01*
D10*
X6709180Y9114795D02*
X6733338Y9101110D01*
D10*
X6733338Y9101110D02*
X6758138Y9088626D01*
D10*
X6758138Y9088626D02*
X6783522Y9077375D01*
D10*
X6783522Y9077375D02*
X6809427Y9067382D01*
D10*
X6809427Y9067382D02*
X6835791Y9058673D01*
D10*
X6835791Y9058673D02*
X6862550Y9051267D01*
D10*
X6862550Y9051267D02*
X6889641Y9045184D01*
D10*
X6889641Y9045184D02*
X6916997Y9040437D01*
D10*
X6916997Y9040437D02*
X6944554Y9037038D01*
D10*
X6944554Y9037038D02*
X6972244Y9034996D01*
D10*
X6972244Y9034996D02*
X7000001Y9034315D01*
D10*
X7000001Y9034315D02*
X7027758Y9034996D01*
D10*
X7027758Y9034996D02*
X7055448Y9037039D01*
D10*
X7055448Y9037039D02*
X7083004Y9040437D01*
D10*
X7083004Y9040437D02*
X7110361Y9045184D01*
D10*
X7110361Y9045184D02*
X7137452Y9051268D01*
D10*
X7137452Y9051268D02*
X7164211Y9058673D01*
D10*
X7164211Y9058673D02*
X7190575Y9067383D01*
D10*
X7190575Y9067383D02*
X7216480Y9077375D01*
D10*
X7216480Y9077375D02*
X7241863Y9088627D01*
D10*
X7241863Y9088627D02*
X7266664Y9101111D01*
D10*
X7266664Y9101111D02*
X7290822Y9114796D01*
D10*
X7290822Y9114796D02*
X7314279Y9129651D01*
D10*
X7314279Y9129651D02*
X7336980Y9145638D01*
D10*
X7336980Y9145638D02*
X7358868Y9162721D01*
D10*
X7358868Y9162721D02*
X7379893Y9180856D01*
D10*
X7379893Y9180856D02*
X7400001Y9200002D01*
D10*
X7400001Y9200002D02*
X7419147Y9220111D01*
D10*
X7419147Y9220111D02*
X7437282Y9241135D01*
D10*
X7437282Y9241135D02*
X7454364Y9263024D01*
D10*
X7454364Y9263024D02*
X7470351Y9285724D01*
D10*
X7470351Y9285724D02*
X7485206Y9309182D01*
D10*
X7485206Y9309182D02*
X7498891Y9333340D01*
D10*
X7498891Y9333340D02*
X7511375Y9358141D01*
D10*
X7511375Y9358141D02*
X7522626Y9383524D01*
D10*
X7522626Y9383524D02*
X7532619Y9409429D01*
D10*
X7532619Y9409429D02*
X7541328Y9435793D01*
D10*
X7541328Y9435793D02*
X7548733Y9462553D01*
D10*
X7548733Y9462553D02*
X7554816Y9489643D01*
D10*
X7554816Y9489643D02*
X7559563Y9517000D01*
D10*
X7559563Y9517000D02*
X7562962Y9544557D01*
D10*
X7562962Y9544557D02*
X7565004Y9572247D01*
D10*
X7565004Y9572247D02*
X7565685Y9600004D01*
D10*
X7565685Y9600004D02*
X7565004Y9627761D01*
D10*
X7565004Y9627761D02*
X7562961Y9655451D01*
D10*
X7562961Y9655451D02*
X7559562Y9683007D01*
D10*
X7559562Y9683007D02*
X7554815Y9710364D01*
D10*
X7554815Y9710364D02*
X7548731Y9737454D01*
D10*
X7548731Y9737454D02*
X7541326Y9764214D01*
D10*
X7541326Y9764214D02*
X7532616Y9790578D01*
D10*
X7532616Y9790578D02*
X7522623Y9816482D01*
D10*
X7522623Y9816482D02*
X7511372Y9841866D01*
D10*
X7511372Y9841866D02*
X7498888Y9866666D01*
D10*
X7498888Y9866666D02*
X7485202Y9890824D01*
D10*
X7485202Y9890824D02*
X7470347Y9914282D01*
D10*
X7470347Y9914282D02*
X7454360Y9936982D01*
D10*
X7454360Y9936982D02*
X7437278Y9958871D01*
D10*
X7437278Y9958871D02*
X7419142Y9979895D01*
D10*
X7419142Y9979895D02*
X7399996Y10000003D01*
D10*
X19600000Y26200000D02*
X19620108Y26180854D01*
D10*
X19620108Y26180854D02*
X19641132Y26162720D01*
D10*
X19641132Y26162720D02*
X19663022Y26145638D01*
D10*
X19663022Y26145638D02*
X19685722Y26129650D01*
D10*
X19685722Y26129650D02*
X19709180Y26114796D01*
D10*
X19709180Y26114796D02*
X19733338Y26101110D01*
D10*
X19733338Y26101110D02*
X19758138Y26088626D01*
D10*
X19758138Y26088626D02*
X19783522Y26077374D01*
D10*
X19783522Y26077374D02*
X19809426Y26067382D01*
D10*
X19809426Y26067382D02*
X19835790Y26058672D01*
D10*
X19835790Y26058672D02*
X19862550Y26051268D01*
D10*
X19862550Y26051268D02*
X19889640Y26045184D01*
D10*
X19889640Y26045184D02*
X19916998Y26040438D01*
D10*
X19916998Y26040438D02*
X19944554Y26037038D01*
D10*
X19944554Y26037038D02*
X19972244Y26034996D01*
D10*
X19972244Y26034996D02*
X20000002Y26034314D01*
D10*
X20000002Y26034314D02*
X20027758Y26034996D01*
D10*
X20027758Y26034996D02*
X20055448Y26037038D01*
D10*
X20055448Y26037038D02*
X20083004Y26040438D01*
D10*
X20083004Y26040438D02*
X20110362Y26045184D01*
D10*
X20110362Y26045184D02*
X20137452Y26051268D01*
D10*
X20137452Y26051268D02*
X20164212Y26058674D01*
D10*
X20164212Y26058674D02*
X20190576Y26067382D01*
D10*
X20190576Y26067382D02*
X20216480Y26077376D01*
D10*
X20216480Y26077376D02*
X20241864Y26088628D01*
D10*
X20241864Y26088628D02*
X20266664Y26101110D01*
D10*
X20266664Y26101110D02*
X20290822Y26114796D01*
D10*
X20290822Y26114796D02*
X20314280Y26129650D01*
D10*
X20314280Y26129650D02*
X20336980Y26145638D01*
D10*
X20336980Y26145638D02*
X20358868Y26162720D01*
D10*
X20358868Y26162720D02*
X20379892Y26180856D01*
D10*
X20379892Y26180856D02*
X20400002Y26200002D01*
D10*
X20400002Y26200002D02*
X20419146Y26220110D01*
D10*
X20419146Y26220110D02*
X20437282Y26241134D01*
D10*
X20437282Y26241134D02*
X20454364Y26263024D01*
D10*
X20454364Y26263024D02*
X20470352Y26285724D01*
D10*
X20470352Y26285724D02*
X20485206Y26309182D01*
D10*
X20485206Y26309182D02*
X20498892Y26333340D01*
D10*
X20498892Y26333340D02*
X20511374Y26358140D01*
D10*
X20511374Y26358140D02*
X20522626Y26383524D01*
D10*
X20522626Y26383524D02*
X20532618Y26409430D01*
D10*
X20532618Y26409430D02*
X20541328Y26435794D01*
D10*
X20541328Y26435794D02*
X20548734Y26462552D01*
D10*
X20548734Y26462552D02*
X20554816Y26489644D01*
D10*
X20554816Y26489644D02*
X20559564Y26517000D01*
D10*
X20559564Y26517000D02*
X20562962Y26544556D01*
D10*
X20562962Y26544556D02*
X20565004Y26572246D01*
D10*
X20565004Y26572246D02*
X20565686Y26600004D01*
D10*
X20565686Y26600004D02*
X20565004Y26627760D01*
D10*
X20565004Y26627760D02*
X20562962Y26655450D01*
D10*
X20562962Y26655450D02*
X20559562Y26683008D01*
D10*
X20559562Y26683008D02*
X20554816Y26710364D01*
D10*
X20554816Y26710364D02*
X20548732Y26737454D01*
D10*
X20548732Y26737454D02*
X20541326Y26764214D01*
D10*
X20541326Y26764214D02*
X20532616Y26790578D01*
D10*
X20532616Y26790578D02*
X20522624Y26816482D01*
D10*
X20522624Y26816482D02*
X20511372Y26841866D01*
D10*
X20511372Y26841866D02*
X20498888Y26866666D01*
D10*
X20498888Y26866666D02*
X20485202Y26890824D01*
D10*
X20485202Y26890824D02*
X20470348Y26914282D01*
D10*
X20470348Y26914282D02*
X20454360Y26936982D01*
D10*
X20454360Y26936982D02*
X20437278Y26958870D01*
D10*
X20437278Y26958870D02*
X20419142Y26979894D01*
D10*
X20419142Y26979894D02*
X20399996Y27000004D01*
G75*
M02*
