%FSLAX46Y46*%
%MOMM*%
%AMPS14*
1,1,1.400000,0.000000,0.000000*
%
%ADD14PS14*%
%AMPS10*
1,1,1.700000,0.000000,0.000000*
%
%ADD10PS10*%
%AMPS12*
1,1,1.400000,0.000000,0.000000*
%
%ADD12PS12*%
%AMPS13*
1,1,1.400000,0.000000,0.000000*
%
%ADD13PS13*%
%AMPS19*
1,1,1.700000,0.000000,0.000000*
%
%ADD19PS19*%
%AMPS18*
1,1,1.700000,0.000000,0.000000*
%
%ADD18PS18*%
%AMPS17*
1,1,1.400000,0.000000,0.000000*
%
%ADD17PS17*%
%AMPS11*
1,1,1.700000,0.000000,0.000000*
%
%ADD11PS11*%
%AMPS15*
1,1,1.400000,0.000000,0.000000*
%
%ADD15PS15*%
%AMPS20*
1,1,1.700000,0.000000,0.000000*
%
%ADD20PS20*%
%AMPS16*
1,1,1.400000,0.000000,0.000000*
%
%ADD16PS16*%
%AMPS24*
1,1,0.400000,0.000000,0.000000*
%
%ADD24PS24*%
%AMPS26*
1,1,0.400000,0.000000,0.000000*
%
%ADD26PS26*%
%AMPS25*
1,1,0.400000,0.000000,0.000000*
%
%ADD25PS25*%
%AMPS22*
1,1,0.400000,0.000000,0.000000*
%
%ADD22PS22*%
%AMPS21*
1,1,0.400000,0.000000,0.000000*
%
%ADD21PS21*%
%AMPS23*
1,1,0.400000,0.000000,0.000000*
%
%ADD23PS23*%
G01*
%LPD*%
G36*
X39590000Y310000D02*
X39629004Y317920D01*
X39661829Y340425D01*
X39683277Y373952D01*
X39690000Y410000D01*
X39690000Y30590000D01*
X39682080Y30629004D01*
X39659575Y30661829D01*
X39626048Y30683277D01*
X39590000Y30690000D01*
X410000Y30690000D01*
X370996Y30682080D01*
X338171Y30659575D01*
X316723Y30626048D01*
X310000Y30590000D01*
X310000Y410000D01*
X317920Y370996D01*
X340425Y338171D01*
X373952Y316723D01*
X410000Y310000D01*
X39590000Y310000D01*
D02*
G37*
%LPC*%
G36*
X17355000Y29105000D02*
X16415122Y29105000D01*
X16429941Y29204897D01*
X16454983Y29304871D01*
X16489705Y29401911D01*
X16533764Y29495070D01*
X16586763Y29583491D01*
X16648150Y29666262D01*
X16717368Y29742632D01*
X16793738Y29811850D01*
X16876509Y29873237D01*
X16964930Y29926236D01*
X17058089Y29970295D01*
X17155129Y30005017D01*
X17255103Y30030059D01*
X17355000Y30044878D01*
X17355000Y29105000D01*
D02*
G37*
%LPC*%
G36*
X18504878Y29105000D02*
X17565000Y29105000D01*
X17565000Y30044878D01*
X17664897Y30030059D01*
X17764869Y30005018D01*
X17861914Y29970294D01*
X17955075Y29926233D01*
X18043480Y29873245D01*
X18126268Y29811845D01*
X18202633Y29742631D01*
X18271850Y29666262D01*
X18333242Y29583484D01*
X18386232Y29495079D01*
X18430295Y29401912D01*
X18465017Y29304870D01*
X18490059Y29204897D01*
X18504878Y29105000D01*
D02*
G37*
%LPC*%
G36*
X22547595Y28045247D02*
X22532405Y28045247D01*
X22453967Y28049100D01*
X22438869Y28050588D01*
X22361185Y28062111D01*
X22346276Y28065077D01*
X22270139Y28084148D01*
X22255564Y28088569D01*
X22181665Y28115011D01*
X22167597Y28120838D01*
X22096644Y28154396D01*
X22083234Y28161563D01*
X22015878Y28201936D01*
X22003254Y28210371D01*
X21940183Y28257148D01*
X21928434Y28266790D01*
X21870272Y28319505D01*
X21859505Y28330272D01*
X21806790Y28388434D01*
X21797148Y28400183D01*
X21750371Y28463254D01*
X21741936Y28475878D01*
X21701563Y28543234D01*
X21694396Y28556644D01*
X21660838Y28627597D01*
X21655011Y28641665D01*
X21628569Y28715564D01*
X21624148Y28730139D01*
X21605077Y28806276D01*
X21602111Y28821185D01*
X21590588Y28898869D01*
X21589100Y28913967D01*
X21585247Y28992405D01*
X21585247Y29007595D01*
X21589100Y29086033D01*
X21590588Y29101131D01*
X21602112Y29178817D01*
X21605076Y29193719D01*
X21624152Y29269874D01*
X21628567Y29284430D01*
X21655014Y29358343D01*
X21660832Y29372390D01*
X21694396Y29443356D01*
X21701563Y29456766D01*
X21741936Y29524122D01*
X21750371Y29536746D01*
X21797148Y29599817D01*
X21806790Y29611566D01*
X21859505Y29669728D01*
X21870272Y29680495D01*
X21928434Y29733210D01*
X21940183Y29742852D01*
X22003254Y29789629D01*
X22015878Y29798064D01*
X22083234Y29838437D01*
X22096644Y29845604D01*
X22167610Y29879168D01*
X22181657Y29884986D01*
X22255570Y29911433D01*
X22270126Y29915848D01*
X22346281Y29934924D01*
X22361183Y29937888D01*
X22438869Y29949412D01*
X22453967Y29950900D01*
X22532405Y29954753D01*
X22547595Y29954753D01*
X22626033Y29950900D01*
X22641131Y29949412D01*
X22718815Y29937889D01*
X22733724Y29934923D01*
X22809861Y29915852D01*
X22824436Y29911431D01*
X22898335Y29884989D01*
X22912403Y29879162D01*
X22983356Y29845604D01*
X22996766Y29838437D01*
X23064126Y29798062D01*
X23076749Y29789627D01*
X23139797Y29742868D01*
X23151575Y29733202D01*
X23209740Y29680483D01*
X23220486Y29669737D01*
X23273210Y29611566D01*
X23282852Y29599817D01*
X23329629Y29536746D01*
X23338064Y29524122D01*
X23378437Y29456766D01*
X23385603Y29443359D01*
X23419168Y29372390D01*
X23424988Y29358339D01*
X23451432Y29284433D01*
X23455848Y29269874D01*
X23474924Y29193719D01*
X23477888Y29178817D01*
X23489412Y29101131D01*
X23490900Y29086033D01*
X23494753Y29007595D01*
X23494753Y28992405D01*
X23490900Y28913967D01*
X23489412Y28898869D01*
X23477888Y28821183D01*
X23474924Y28806281D01*
X23455848Y28730126D01*
X23451432Y28715567D01*
X23424988Y28641661D01*
X23419168Y28627610D01*
X23385603Y28556641D01*
X23378437Y28543234D01*
X23338064Y28475878D01*
X23329629Y28463254D01*
X23282852Y28400183D01*
X23273210Y28388434D01*
X23220486Y28330263D01*
X23209740Y28319517D01*
X23151575Y28266798D01*
X23139797Y28257132D01*
X23076749Y28210373D01*
X23064126Y28201938D01*
X22996766Y28161563D01*
X22983356Y28154396D01*
X22912390Y28120832D01*
X22898343Y28115014D01*
X22824430Y28088567D01*
X22809874Y28084152D01*
X22733719Y28065076D01*
X22718817Y28062112D01*
X22641131Y28050588D01*
X22626033Y28049100D01*
X22547595Y28045247D01*
D02*
G37*
%LPC*%
G36*
X20007595Y28045247D02*
X19992405Y28045247D01*
X19913967Y28049100D01*
X19898869Y28050588D01*
X19821185Y28062111D01*
X19806276Y28065077D01*
X19730139Y28084148D01*
X19715564Y28088569D01*
X19641665Y28115011D01*
X19627597Y28120838D01*
X19556644Y28154396D01*
X19543234Y28161563D01*
X19475878Y28201936D01*
X19463254Y28210371D01*
X19400183Y28257148D01*
X19388434Y28266790D01*
X19330272Y28319505D01*
X19319505Y28330272D01*
X19266790Y28388434D01*
X19257148Y28400183D01*
X19210371Y28463254D01*
X19201936Y28475878D01*
X19161563Y28543234D01*
X19154396Y28556644D01*
X19120838Y28627597D01*
X19115011Y28641665D01*
X19088569Y28715564D01*
X19084148Y28730139D01*
X19065077Y28806276D01*
X19062111Y28821185D01*
X19050588Y28898869D01*
X19049100Y28913967D01*
X19045247Y28992405D01*
X19045247Y29007595D01*
X19049100Y29086033D01*
X19050588Y29101131D01*
X19062112Y29178817D01*
X19065076Y29193719D01*
X19084152Y29269874D01*
X19088567Y29284430D01*
X19115014Y29358343D01*
X19120832Y29372390D01*
X19154396Y29443356D01*
X19161563Y29456766D01*
X19201936Y29524122D01*
X19210371Y29536746D01*
X19257148Y29599817D01*
X19266790Y29611566D01*
X19319505Y29669728D01*
X19330272Y29680495D01*
X19388434Y29733210D01*
X19400183Y29742852D01*
X19463254Y29789629D01*
X19475878Y29798064D01*
X19543234Y29838437D01*
X19556644Y29845604D01*
X19627610Y29879168D01*
X19641657Y29884986D01*
X19715570Y29911433D01*
X19730126Y29915848D01*
X19806281Y29934924D01*
X19821183Y29937888D01*
X19898869Y29949412D01*
X19913967Y29950900D01*
X19992405Y29954753D01*
X20007595Y29954753D01*
X20086033Y29950900D01*
X20101131Y29949412D01*
X20178815Y29937889D01*
X20193724Y29934923D01*
X20269861Y29915852D01*
X20284436Y29911431D01*
X20358335Y29884989D01*
X20372403Y29879162D01*
X20443356Y29845604D01*
X20456766Y29838437D01*
X20524126Y29798062D01*
X20536749Y29789627D01*
X20599797Y29742868D01*
X20611575Y29733202D01*
X20669740Y29680483D01*
X20680486Y29669737D01*
X20733210Y29611566D01*
X20742852Y29599817D01*
X20789629Y29536746D01*
X20798064Y29524122D01*
X20838437Y29456766D01*
X20845603Y29443359D01*
X20879168Y29372390D01*
X20884988Y29358339D01*
X20911432Y29284433D01*
X20915848Y29269874D01*
X20934924Y29193719D01*
X20937888Y29178817D01*
X20949412Y29101131D01*
X20950900Y29086033D01*
X20954753Y29007595D01*
X20954753Y28992405D01*
X20950900Y28913967D01*
X20949412Y28898869D01*
X20937888Y28821183D01*
X20934924Y28806281D01*
X20915848Y28730126D01*
X20911432Y28715567D01*
X20884988Y28641661D01*
X20879168Y28627610D01*
X20845603Y28556641D01*
X20838437Y28543234D01*
X20798064Y28475878D01*
X20789629Y28463254D01*
X20742852Y28400183D01*
X20733210Y28388434D01*
X20680486Y28330263D01*
X20669740Y28319517D01*
X20611575Y28266798D01*
X20599797Y28257132D01*
X20536749Y28210373D01*
X20524126Y28201938D01*
X20456766Y28161563D01*
X20443356Y28154396D01*
X20372390Y28120832D01*
X20358343Y28115014D01*
X20284430Y28088567D01*
X20269874Y28084152D01*
X20193719Y28065076D01*
X20178817Y28062112D01*
X20101131Y28050588D01*
X20086033Y28049100D01*
X20007595Y28045247D01*
D02*
G37*
%LPC*%
G36*
X36827410Y26045488D02*
X36792590Y26045488D01*
X36635756Y26053194D01*
X36601090Y26056608D01*
X36445780Y26079645D01*
X36411599Y26086444D01*
X36259302Y26124593D01*
X36225964Y26134706D01*
X36078147Y26187595D01*
X36045942Y26200935D01*
X35904006Y26268066D01*
X35873296Y26284481D01*
X35738614Y26365206D01*
X35709654Y26384557D01*
X35583528Y26478098D01*
X35556609Y26500189D01*
X35440264Y26605638D01*
X35415639Y26630264D01*
X35310188Y26746612D01*
X35288098Y26773528D01*
X35194564Y26899644D01*
X35175200Y26928624D01*
X35094481Y27063296D01*
X35078066Y27094006D01*
X35010935Y27235942D01*
X34997595Y27268147D01*
X34944704Y27415969D01*
X34934594Y27449297D01*
X34896444Y27601604D01*
X34889647Y27635775D01*
X34866606Y27791105D01*
X34863194Y27825741D01*
X34855488Y27982591D01*
X34855488Y28017409D01*
X34863194Y28174246D01*
X34866607Y28208910D01*
X34889648Y28364237D01*
X34896440Y28398385D01*
X34934593Y28550698D01*
X34944706Y28584036D01*
X34997595Y28731853D01*
X35010935Y28764058D01*
X35078061Y28905985D01*
X35094481Y28936704D01*
X35175213Y29071395D01*
X35194557Y29100345D01*
X35288090Y29226461D01*
X35310196Y29253397D01*
X35415628Y29369724D01*
X35440276Y29394372D01*
X35556603Y29499804D01*
X35583539Y29521910D01*
X35709655Y29615443D01*
X35738605Y29634787D01*
X35873296Y29715519D01*
X35904015Y29731939D01*
X36045942Y29799065D01*
X36078147Y29812405D01*
X36225964Y29865294D01*
X36259302Y29875407D01*
X36411615Y29913560D01*
X36445763Y29920352D01*
X36601090Y29943393D01*
X36635754Y29946806D01*
X36792591Y29954512D01*
X36827409Y29954512D01*
X36984246Y29946806D01*
X37018910Y29943393D01*
X37174237Y29920352D01*
X37208385Y29913560D01*
X37360698Y29875407D01*
X37394036Y29865294D01*
X37541853Y29812405D01*
X37574058Y29799065D01*
X37715985Y29731939D01*
X37746704Y29715519D01*
X37881395Y29634787D01*
X37910345Y29615443D01*
X38036461Y29521910D01*
X38063397Y29499804D01*
X38179724Y29394372D01*
X38204372Y29369724D01*
X38309804Y29253397D01*
X38331910Y29226461D01*
X38425443Y29100345D01*
X38444787Y29071395D01*
X38525519Y28936704D01*
X38541939Y28905985D01*
X38609065Y28764058D01*
X38622405Y28731853D01*
X38675294Y28584036D01*
X38685407Y28550698D01*
X38723560Y28398385D01*
X38730352Y28364237D01*
X38753393Y28208910D01*
X38756806Y28174246D01*
X38764512Y28017409D01*
X38764512Y27982591D01*
X38756806Y27825741D01*
X38753394Y27791105D01*
X38730353Y27635775D01*
X38723556Y27601604D01*
X38685410Y27449314D01*
X38675290Y27415953D01*
X38622398Y27268131D01*
X38609071Y27235956D01*
X38541934Y27094006D01*
X38525519Y27063296D01*
X38444800Y26928624D01*
X38425436Y26899644D01*
X38331902Y26773528D01*
X38309812Y26746612D01*
X38204361Y26630264D01*
X38179736Y26605638D01*
X38063403Y26500199D01*
X38036461Y26478089D01*
X37910346Y26384557D01*
X37881385Y26365206D01*
X37746711Y26284485D01*
X37715985Y26268061D01*
X37574058Y26200935D01*
X37541853Y26187595D01*
X37394036Y26134706D01*
X37360698Y26124593D01*
X37208401Y26086444D01*
X37174220Y26079645D01*
X37018910Y26056608D01*
X36984244Y26053194D01*
X36827410Y26045488D01*
D02*
G37*
%LPC*%
G36*
X29207410Y26045488D02*
X29172590Y26045488D01*
X29015756Y26053194D01*
X28981090Y26056608D01*
X28825780Y26079645D01*
X28791599Y26086444D01*
X28639302Y26124593D01*
X28605964Y26134706D01*
X28458147Y26187595D01*
X28425942Y26200935D01*
X28284006Y26268066D01*
X28253296Y26284481D01*
X28118614Y26365206D01*
X28089654Y26384557D01*
X27963528Y26478098D01*
X27936609Y26500189D01*
X27820264Y26605638D01*
X27795639Y26630264D01*
X27690188Y26746612D01*
X27668098Y26773528D01*
X27574564Y26899644D01*
X27555200Y26928624D01*
X27474481Y27063296D01*
X27458066Y27094006D01*
X27390935Y27235942D01*
X27377595Y27268147D01*
X27324704Y27415969D01*
X27314594Y27449297D01*
X27276444Y27601604D01*
X27269647Y27635775D01*
X27246606Y27791105D01*
X27243194Y27825741D01*
X27235488Y27982591D01*
X27235488Y28017409D01*
X27243194Y28174246D01*
X27246607Y28208910D01*
X27269648Y28364237D01*
X27276440Y28398385D01*
X27314593Y28550698D01*
X27324706Y28584036D01*
X27377595Y28731853D01*
X27390935Y28764058D01*
X27458061Y28905985D01*
X27474481Y28936704D01*
X27555213Y29071395D01*
X27574557Y29100345D01*
X27668090Y29226461D01*
X27690196Y29253397D01*
X27795628Y29369724D01*
X27820276Y29394372D01*
X27936603Y29499804D01*
X27963539Y29521910D01*
X28089655Y29615443D01*
X28118605Y29634787D01*
X28253296Y29715519D01*
X28284015Y29731939D01*
X28425942Y29799065D01*
X28458147Y29812405D01*
X28605964Y29865294D01*
X28639302Y29875407D01*
X28791615Y29913560D01*
X28825763Y29920352D01*
X28981090Y29943393D01*
X29015754Y29946806D01*
X29172591Y29954512D01*
X29207409Y29954512D01*
X29364246Y29946806D01*
X29398910Y29943393D01*
X29554237Y29920352D01*
X29588385Y29913560D01*
X29740698Y29875407D01*
X29774036Y29865294D01*
X29921853Y29812405D01*
X29954058Y29799065D01*
X30095985Y29731939D01*
X30126704Y29715519D01*
X30261395Y29634787D01*
X30290345Y29615443D01*
X30416461Y29521910D01*
X30443397Y29499804D01*
X30559724Y29394372D01*
X30584372Y29369724D01*
X30689804Y29253397D01*
X30711910Y29226461D01*
X30805443Y29100345D01*
X30824787Y29071395D01*
X30905519Y28936704D01*
X30921939Y28905985D01*
X30989065Y28764058D01*
X31002405Y28731853D01*
X31055294Y28584036D01*
X31065407Y28550698D01*
X31103560Y28398385D01*
X31110352Y28364237D01*
X31133393Y28208910D01*
X31136806Y28174246D01*
X31144512Y28017409D01*
X31144512Y27982591D01*
X31136806Y27825741D01*
X31133394Y27791105D01*
X31110353Y27635775D01*
X31103556Y27601604D01*
X31065410Y27449314D01*
X31055290Y27415953D01*
X31002398Y27268131D01*
X30989071Y27235956D01*
X30921934Y27094006D01*
X30905519Y27063296D01*
X30824800Y26928624D01*
X30805436Y26899644D01*
X30711902Y26773528D01*
X30689812Y26746612D01*
X30584361Y26630264D01*
X30559736Y26605638D01*
X30443403Y26500199D01*
X30416461Y26478089D01*
X30290346Y26384557D01*
X30261385Y26365206D01*
X30126711Y26284485D01*
X30095985Y26268061D01*
X29954058Y26200935D01*
X29921853Y26187595D01*
X29774036Y26134706D01*
X29740698Y26124593D01*
X29588401Y26086444D01*
X29554220Y26079645D01*
X29398910Y26056608D01*
X29364244Y26053194D01*
X29207410Y26045488D01*
D02*
G37*
%LPC*%
G36*
X10827410Y26045488D02*
X10792590Y26045488D01*
X10635756Y26053194D01*
X10601090Y26056608D01*
X10445780Y26079645D01*
X10411599Y26086444D01*
X10259302Y26124593D01*
X10225964Y26134706D01*
X10078147Y26187595D01*
X10045942Y26200935D01*
X9904006Y26268066D01*
X9873296Y26284481D01*
X9738614Y26365206D01*
X9709654Y26384557D01*
X9583528Y26478098D01*
X9556609Y26500189D01*
X9440264Y26605638D01*
X9415639Y26630264D01*
X9310188Y26746612D01*
X9288098Y26773528D01*
X9194564Y26899644D01*
X9175200Y26928624D01*
X9094481Y27063296D01*
X9078066Y27094006D01*
X9010935Y27235942D01*
X8997595Y27268147D01*
X8944704Y27415969D01*
X8934594Y27449297D01*
X8896444Y27601604D01*
X8889647Y27635775D01*
X8866606Y27791105D01*
X8863194Y27825741D01*
X8855488Y27982591D01*
X8855488Y28017409D01*
X8863194Y28174246D01*
X8866607Y28208910D01*
X8889648Y28364237D01*
X8896440Y28398385D01*
X8934593Y28550698D01*
X8944706Y28584036D01*
X8997595Y28731853D01*
X9010935Y28764058D01*
X9078061Y28905985D01*
X9094481Y28936704D01*
X9175213Y29071395D01*
X9194557Y29100345D01*
X9288090Y29226461D01*
X9310196Y29253397D01*
X9415628Y29369724D01*
X9440276Y29394372D01*
X9556603Y29499804D01*
X9583539Y29521910D01*
X9709655Y29615443D01*
X9738605Y29634787D01*
X9873296Y29715519D01*
X9904015Y29731939D01*
X10045942Y29799065D01*
X10078147Y29812405D01*
X10225964Y29865294D01*
X10259302Y29875407D01*
X10411615Y29913560D01*
X10445763Y29920352D01*
X10601090Y29943393D01*
X10635754Y29946806D01*
X10792591Y29954512D01*
X10827409Y29954512D01*
X10984246Y29946806D01*
X11018910Y29943393D01*
X11174237Y29920352D01*
X11208385Y29913560D01*
X11360698Y29875407D01*
X11394036Y29865294D01*
X11541853Y29812405D01*
X11574058Y29799065D01*
X11715985Y29731939D01*
X11746704Y29715519D01*
X11881395Y29634787D01*
X11910345Y29615443D01*
X12036461Y29521910D01*
X12063397Y29499804D01*
X12179724Y29394372D01*
X12204372Y29369724D01*
X12309804Y29253397D01*
X12331910Y29226461D01*
X12425443Y29100345D01*
X12444787Y29071395D01*
X12525519Y28936704D01*
X12541939Y28905985D01*
X12609065Y28764058D01*
X12622405Y28731853D01*
X12675294Y28584036D01*
X12685407Y28550698D01*
X12723560Y28398385D01*
X12730352Y28364237D01*
X12753393Y28208910D01*
X12756806Y28174246D01*
X12764512Y28017409D01*
X12764512Y27982591D01*
X12756806Y27825741D01*
X12753394Y27791105D01*
X12730353Y27635775D01*
X12723556Y27601604D01*
X12685410Y27449314D01*
X12675290Y27415953D01*
X12622398Y27268131D01*
X12609071Y27235956D01*
X12541934Y27094006D01*
X12525519Y27063296D01*
X12444800Y26928624D01*
X12425436Y26899644D01*
X12331902Y26773528D01*
X12309812Y26746612D01*
X12204361Y26630264D01*
X12179736Y26605638D01*
X12063403Y26500199D01*
X12036461Y26478089D01*
X11910346Y26384557D01*
X11881385Y26365206D01*
X11746711Y26284485D01*
X11715985Y26268061D01*
X11574058Y26200935D01*
X11541853Y26187595D01*
X11394036Y26134706D01*
X11360698Y26124593D01*
X11208401Y26086444D01*
X11174220Y26079645D01*
X11018910Y26056608D01*
X10984244Y26053194D01*
X10827410Y26045488D01*
D02*
G37*
%LPC*%
G36*
X3207410Y26045488D02*
X3172590Y26045488D01*
X3015756Y26053194D01*
X2981090Y26056608D01*
X2825780Y26079645D01*
X2791599Y26086444D01*
X2639302Y26124593D01*
X2605964Y26134706D01*
X2458147Y26187595D01*
X2425942Y26200935D01*
X2284006Y26268066D01*
X2253296Y26284481D01*
X2118614Y26365206D01*
X2089654Y26384557D01*
X1963528Y26478098D01*
X1936609Y26500189D01*
X1820264Y26605638D01*
X1795639Y26630264D01*
X1690188Y26746612D01*
X1668098Y26773528D01*
X1574564Y26899644D01*
X1555200Y26928624D01*
X1474481Y27063296D01*
X1458066Y27094006D01*
X1390935Y27235942D01*
X1377595Y27268147D01*
X1324704Y27415969D01*
X1314594Y27449297D01*
X1276444Y27601604D01*
X1269647Y27635775D01*
X1246606Y27791105D01*
X1243194Y27825741D01*
X1235488Y27982591D01*
X1235488Y28017409D01*
X1243194Y28174246D01*
X1246607Y28208910D01*
X1269648Y28364237D01*
X1276440Y28398385D01*
X1314593Y28550698D01*
X1324706Y28584036D01*
X1377595Y28731853D01*
X1390935Y28764058D01*
X1458061Y28905985D01*
X1474481Y28936704D01*
X1555213Y29071395D01*
X1574557Y29100345D01*
X1668090Y29226461D01*
X1690196Y29253397D01*
X1795628Y29369724D01*
X1820276Y29394372D01*
X1936603Y29499804D01*
X1963539Y29521910D01*
X2089655Y29615443D01*
X2118605Y29634787D01*
X2253296Y29715519D01*
X2284015Y29731939D01*
X2425942Y29799065D01*
X2458147Y29812405D01*
X2605964Y29865294D01*
X2639302Y29875407D01*
X2791615Y29913560D01*
X2825763Y29920352D01*
X2981090Y29943393D01*
X3015754Y29946806D01*
X3172591Y29954512D01*
X3207409Y29954512D01*
X3364246Y29946806D01*
X3398910Y29943393D01*
X3554237Y29920352D01*
X3588385Y29913560D01*
X3740698Y29875407D01*
X3774036Y29865294D01*
X3921853Y29812405D01*
X3954058Y29799065D01*
X4095985Y29731939D01*
X4126704Y29715519D01*
X4261395Y29634787D01*
X4290345Y29615443D01*
X4416461Y29521910D01*
X4443397Y29499804D01*
X4559724Y29394372D01*
X4584372Y29369724D01*
X4689804Y29253397D01*
X4711910Y29226461D01*
X4805443Y29100345D01*
X4824787Y29071395D01*
X4905519Y28936704D01*
X4921939Y28905985D01*
X4989065Y28764058D01*
X5002405Y28731853D01*
X5055294Y28584036D01*
X5065407Y28550698D01*
X5103560Y28398385D01*
X5110352Y28364237D01*
X5133393Y28208910D01*
X5136806Y28174246D01*
X5144512Y28017409D01*
X5144512Y27982591D01*
X5136806Y27825741D01*
X5133394Y27791105D01*
X5110353Y27635775D01*
X5103556Y27601604D01*
X5065410Y27449314D01*
X5055290Y27415953D01*
X5002398Y27268131D01*
X4989071Y27235956D01*
X4921934Y27094006D01*
X4905519Y27063296D01*
X4824800Y26928624D01*
X4805436Y26899644D01*
X4711902Y26773528D01*
X4689812Y26746612D01*
X4584361Y26630264D01*
X4559736Y26605638D01*
X4443403Y26500199D01*
X4416461Y26478089D01*
X4290346Y26384557D01*
X4261385Y26365206D01*
X4126711Y26284485D01*
X4095985Y26268061D01*
X3954058Y26200935D01*
X3921853Y26187595D01*
X3774036Y26134706D01*
X3740698Y26124593D01*
X3588401Y26086444D01*
X3554220Y26079645D01*
X3398910Y26056608D01*
X3364244Y26053194D01*
X3207410Y26045488D01*
D02*
G37*
%LPC*%
G36*
X17565000Y27955122D02*
X17565000Y28895000D01*
X18504878Y28895000D01*
X18490059Y28795103D01*
X18465017Y28695130D01*
X18430295Y28598088D01*
X18386232Y28504921D01*
X18333242Y28416516D01*
X18271850Y28333738D01*
X18202633Y28257369D01*
X18126268Y28188155D01*
X18043480Y28126755D01*
X17955075Y28073767D01*
X17861911Y28029705D01*
X17764871Y27994983D01*
X17664897Y27969941D01*
X17565000Y27955122D01*
D02*
G37*
%LPC*%
G36*
X17355000Y27955122D02*
X17255103Y27969941D01*
X17155131Y27994982D01*
X17058086Y28029706D01*
X16964930Y28073764D01*
X16876509Y28126763D01*
X16793738Y28188150D01*
X16717368Y28257368D01*
X16648150Y28333738D01*
X16586763Y28416509D01*
X16533764Y28504930D01*
X16489706Y28598086D01*
X16454982Y28695131D01*
X16429941Y28795103D01*
X16415122Y28895000D01*
X17355000Y28895000D01*
X17355000Y27955122D01*
D02*
G37*
%LPC*%
G36*
X25623232Y26231217D02*
X25607996Y26231217D01*
X25593300Y26231940D01*
X25578184Y26233429D01*
X25563638Y26235586D01*
X25548697Y26238557D01*
X25534425Y26242133D01*
X25519863Y26246550D01*
X25506015Y26251506D01*
X25491979Y26257320D01*
X25478651Y26263623D01*
X25465255Y26270783D01*
X25452615Y26278359D01*
X25439994Y26286793D01*
X25428153Y26295574D01*
X25416401Y26305218D01*
X25405505Y26315094D01*
X25394738Y26325861D01*
X25384862Y26336757D01*
X25375218Y26348509D01*
X25366437Y26360350D01*
X25358003Y26372971D01*
X25350427Y26385611D01*
X25343267Y26399007D01*
X25336964Y26412335D01*
X25331150Y26426371D01*
X25326194Y26440219D01*
X25321777Y26454781D01*
X25318201Y26469053D01*
X25315230Y26483994D01*
X25313073Y26498540D01*
X25311584Y26513656D01*
X25310861Y26528352D01*
X25310861Y26543588D01*
X25311584Y26558284D01*
X25313073Y26573400D01*
X25315230Y26587946D01*
X25318201Y26602887D01*
X25321777Y26617159D01*
X25326194Y26631721D01*
X25331150Y26645569D01*
X25336964Y26659605D01*
X25343267Y26672933D01*
X25350427Y26686329D01*
X25358003Y26698969D01*
X25366437Y26711590D01*
X25375218Y26723431D01*
X25384862Y26735183D01*
X25394738Y26746079D01*
X25405505Y26756846D01*
X25416401Y26766722D01*
X25428153Y26776366D01*
X25439994Y26785147D01*
X25452615Y26793581D01*
X25465255Y26801157D01*
X25478651Y26808317D01*
X25491979Y26814620D01*
X25506015Y26820434D01*
X25519863Y26825390D01*
X25534425Y26829807D01*
X25548697Y26833383D01*
X25563638Y26836354D01*
X25578184Y26838511D01*
X25593300Y26840000D01*
X25607996Y26840723D01*
X25623232Y26840723D01*
X25637928Y26840000D01*
X25653044Y26838511D01*
X25667590Y26836354D01*
X25682531Y26833383D01*
X25696803Y26829807D01*
X25711365Y26825390D01*
X25725213Y26820434D01*
X25739249Y26814620D01*
X25752577Y26808317D01*
X25765973Y26801157D01*
X25778613Y26793581D01*
X25791234Y26785147D01*
X25803075Y26776366D01*
X25814827Y26766722D01*
X25825723Y26756846D01*
X25836490Y26746079D01*
X25846366Y26735183D01*
X25856010Y26723431D01*
X25864791Y26711590D01*
X25873225Y26698969D01*
X25880801Y26686329D01*
X25887961Y26672933D01*
X25894264Y26659605D01*
X25900078Y26645569D01*
X25905034Y26631721D01*
X25909451Y26617159D01*
X25913027Y26602887D01*
X25915998Y26587946D01*
X25918155Y26573400D01*
X25919644Y26558284D01*
X25920367Y26543588D01*
X25920367Y26528352D01*
X25919644Y26513656D01*
X25918155Y26498540D01*
X25915998Y26483994D01*
X25913027Y26469053D01*
X25909451Y26454781D01*
X25905034Y26440219D01*
X25900078Y26426371D01*
X25894264Y26412335D01*
X25887961Y26399007D01*
X25880801Y26385611D01*
X25873225Y26372971D01*
X25864791Y26360350D01*
X25856010Y26348509D01*
X25846366Y26336757D01*
X25836490Y26325861D01*
X25825723Y26315094D01*
X25814827Y26305218D01*
X25803075Y26295574D01*
X25791234Y26286793D01*
X25778613Y26278359D01*
X25765973Y26270783D01*
X25752577Y26263623D01*
X25739249Y26257320D01*
X25725213Y26251506D01*
X25711365Y26246550D01*
X25696803Y26242133D01*
X25682531Y26238557D01*
X25667590Y26235586D01*
X25653044Y26233429D01*
X25637928Y26231940D01*
X25623232Y26231217D01*
D02*
G37*
%LPC*%
G36*
X15374618Y24333247D02*
X15359382Y24333247D01*
X15344686Y24333970D01*
X15329570Y24335459D01*
X15315024Y24337616D01*
X15300083Y24340587D01*
X15285811Y24344163D01*
X15271249Y24348580D01*
X15257401Y24353536D01*
X15243365Y24359350D01*
X15230037Y24365653D01*
X15216641Y24372813D01*
X15204001Y24380389D01*
X15191380Y24388823D01*
X15179539Y24397604D01*
X15167787Y24407248D01*
X15156891Y24417124D01*
X15146124Y24427891D01*
X15136248Y24438787D01*
X15126604Y24450539D01*
X15117823Y24462380D01*
X15109389Y24475001D01*
X15101813Y24487641D01*
X15094653Y24501037D01*
X15088350Y24514365D01*
X15082536Y24528401D01*
X15077580Y24542249D01*
X15073163Y24556811D01*
X15069587Y24571083D01*
X15066616Y24586024D01*
X15064459Y24600570D01*
X15062970Y24615686D01*
X15062247Y24630382D01*
X15062247Y24645618D01*
X15062970Y24660314D01*
X15064459Y24675430D01*
X15066616Y24689976D01*
X15069587Y24704917D01*
X15073163Y24719189D01*
X15077580Y24733751D01*
X15082536Y24747599D01*
X15088350Y24761635D01*
X15094653Y24774963D01*
X15101813Y24788359D01*
X15109389Y24800999D01*
X15117823Y24813620D01*
X15126604Y24825461D01*
X15136248Y24837213D01*
X15146124Y24848109D01*
X15156891Y24858876D01*
X15167787Y24868752D01*
X15179539Y24878396D01*
X15191380Y24887177D01*
X15204001Y24895611D01*
X15216641Y24903187D01*
X15230037Y24910347D01*
X15243365Y24916650D01*
X15257401Y24922464D01*
X15271249Y24927420D01*
X15285811Y24931837D01*
X15300083Y24935413D01*
X15315024Y24938384D01*
X15329570Y24940541D01*
X15344686Y24942030D01*
X15359382Y24942753D01*
X15374618Y24942753D01*
X15389314Y24942030D01*
X15404430Y24940541D01*
X15418976Y24938384D01*
X15433917Y24935413D01*
X15448189Y24931837D01*
X15462751Y24927420D01*
X15476599Y24922464D01*
X15490635Y24916650D01*
X15503963Y24910347D01*
X15517359Y24903187D01*
X15529999Y24895611D01*
X15542620Y24887177D01*
X15554461Y24878396D01*
X15566213Y24868752D01*
X15577109Y24858876D01*
X15587876Y24848109D01*
X15597752Y24837213D01*
X15607396Y24825461D01*
X15616177Y24813620D01*
X15624611Y24800999D01*
X15632187Y24788359D01*
X15639347Y24774963D01*
X15645650Y24761635D01*
X15651464Y24747599D01*
X15656420Y24733751D01*
X15660837Y24719189D01*
X15664413Y24704917D01*
X15667384Y24689976D01*
X15669541Y24675430D01*
X15671030Y24660314D01*
X15671753Y24645618D01*
X15671753Y24630382D01*
X15671030Y24615686D01*
X15669541Y24600570D01*
X15667384Y24586024D01*
X15664413Y24571083D01*
X15660837Y24556811D01*
X15656420Y24542249D01*
X15651464Y24528401D01*
X15645650Y24514365D01*
X15639347Y24501037D01*
X15632187Y24487641D01*
X15624611Y24475001D01*
X15616177Y24462380D01*
X15607396Y24450539D01*
X15597752Y24438787D01*
X15587876Y24427891D01*
X15577109Y24417124D01*
X15566213Y24407248D01*
X15554461Y24397604D01*
X15542620Y24388823D01*
X15529999Y24380389D01*
X15517359Y24372813D01*
X15503963Y24365653D01*
X15490635Y24359350D01*
X15476599Y24353536D01*
X15462751Y24348580D01*
X15448189Y24344163D01*
X15433917Y24340587D01*
X15418976Y24337616D01*
X15404430Y24335459D01*
X15389314Y24333970D01*
X15374618Y24333247D01*
D02*
G37*
%LPC*%
G36*
X18691629Y22824258D02*
X18676393Y22824258D01*
X18661697Y22824981D01*
X18646581Y22826470D01*
X18632035Y22828627D01*
X18617094Y22831598D01*
X18602822Y22835174D01*
X18588260Y22839591D01*
X18574412Y22844547D01*
X18560376Y22850361D01*
X18547048Y22856664D01*
X18533652Y22863824D01*
X18521012Y22871400D01*
X18508391Y22879834D01*
X18496550Y22888615D01*
X18484798Y22898259D01*
X18473902Y22908135D01*
X18463135Y22918902D01*
X18453259Y22929798D01*
X18443615Y22941550D01*
X18434834Y22953391D01*
X18426400Y22966012D01*
X18418824Y22978652D01*
X18411664Y22992048D01*
X18405361Y23005376D01*
X18399547Y23019412D01*
X18394591Y23033260D01*
X18390174Y23047822D01*
X18386598Y23062094D01*
X18383627Y23077035D01*
X18381470Y23091581D01*
X18379981Y23106697D01*
X18379258Y23121393D01*
X18379258Y23136629D01*
X18379981Y23151325D01*
X18381470Y23166441D01*
X18383628Y23180998D01*
X18386958Y23197737D01*
X18386800Y23237536D01*
X18371131Y23274121D01*
X18342434Y23301698D01*
X18288880Y23317247D01*
X18280382Y23317247D01*
X18265686Y23317970D01*
X18250570Y23319459D01*
X18236024Y23321616D01*
X18221083Y23324587D01*
X18206811Y23328163D01*
X18192249Y23332580D01*
X18178401Y23337536D01*
X18164365Y23343350D01*
X18151037Y23349653D01*
X18137641Y23356813D01*
X18125001Y23364389D01*
X18112380Y23372823D01*
X18100539Y23381604D01*
X18088787Y23391248D01*
X18077891Y23401124D01*
X18067124Y23411891D01*
X18057248Y23422787D01*
X18047604Y23434539D01*
X18038823Y23446380D01*
X18030389Y23459001D01*
X18022813Y23471641D01*
X18015653Y23485037D01*
X18009350Y23498365D01*
X18003536Y23512401D01*
X17998580Y23526249D01*
X17994163Y23540811D01*
X17990587Y23555083D01*
X17987616Y23570024D01*
X17985459Y23584570D01*
X17983970Y23599686D01*
X17983247Y23614382D01*
X17983247Y23629618D01*
X17983970Y23644314D01*
X17985459Y23659430D01*
X17987616Y23673976D01*
X17990587Y23688917D01*
X17994163Y23703189D01*
X17998580Y23717751D01*
X18003536Y23731599D01*
X18009350Y23745635D01*
X18015653Y23758963D01*
X18022813Y23772359D01*
X18030389Y23784999D01*
X18038823Y23797620D01*
X18047604Y23809461D01*
X18057248Y23821213D01*
X18067124Y23832109D01*
X18077891Y23842876D01*
X18088787Y23852752D01*
X18100539Y23862396D01*
X18112380Y23871177D01*
X18125001Y23879611D01*
X18137641Y23887187D01*
X18151037Y23894347D01*
X18164365Y23900650D01*
X18178401Y23906464D01*
X18192249Y23911420D01*
X18206811Y23915837D01*
X18221083Y23919413D01*
X18236024Y23922384D01*
X18250570Y23924541D01*
X18265686Y23926030D01*
X18280382Y23926753D01*
X18295618Y23926753D01*
X18310314Y23926030D01*
X18325430Y23924541D01*
X18339976Y23922384D01*
X18354917Y23919413D01*
X18369189Y23915837D01*
X18383751Y23911420D01*
X18397599Y23906464D01*
X18411635Y23900650D01*
X18424963Y23894347D01*
X18438359Y23887187D01*
X18450999Y23879611D01*
X18463620Y23871177D01*
X18475461Y23862396D01*
X18487213Y23852752D01*
X18498109Y23842876D01*
X18508876Y23832109D01*
X18518752Y23821213D01*
X18528396Y23809461D01*
X18537177Y23797620D01*
X18545611Y23784999D01*
X18553187Y23772359D01*
X18560347Y23758963D01*
X18566650Y23745635D01*
X18572464Y23731599D01*
X18577420Y23717751D01*
X18581837Y23703189D01*
X18585413Y23688917D01*
X18588384Y23673976D01*
X18590541Y23659430D01*
X18592030Y23644314D01*
X18592753Y23629618D01*
X18592753Y23614382D01*
X18592030Y23599686D01*
X18590541Y23584570D01*
X18588383Y23570013D01*
X18585053Y23553274D01*
X18585211Y23513475D01*
X18600880Y23476890D01*
X18629577Y23449313D01*
X18683131Y23433764D01*
X18691629Y23433764D01*
X18706325Y23433041D01*
X18721441Y23431552D01*
X18735987Y23429395D01*
X18750928Y23426424D01*
X18765200Y23422848D01*
X18779762Y23418431D01*
X18793610Y23413475D01*
X18807646Y23407661D01*
X18820974Y23401358D01*
X18834370Y23394198D01*
X18847010Y23386622D01*
X18859631Y23378188D01*
X18871472Y23369407D01*
X18883224Y23359763D01*
X18894120Y23349887D01*
X18904887Y23339120D01*
X18914763Y23328224D01*
X18924407Y23316472D01*
X18933188Y23304631D01*
X18941622Y23292010D01*
X18949198Y23279370D01*
X18956358Y23265974D01*
X18962661Y23252646D01*
X18968475Y23238610D01*
X18973431Y23224762D01*
X18977848Y23210200D01*
X18981424Y23195928D01*
X18984395Y23180987D01*
X18986552Y23166441D01*
X18988041Y23151325D01*
X18988764Y23136629D01*
X18988764Y23121393D01*
X18988041Y23106697D01*
X18986552Y23091581D01*
X18984395Y23077035D01*
X18981424Y23062094D01*
X18977848Y23047822D01*
X18973431Y23033260D01*
X18968475Y23019412D01*
X18962661Y23005376D01*
X18956358Y22992048D01*
X18949198Y22978652D01*
X18941622Y22966012D01*
X18933188Y22953391D01*
X18924407Y22941550D01*
X18914763Y22929798D01*
X18904887Y22918902D01*
X18894120Y22908135D01*
X18883224Y22898259D01*
X18871472Y22888615D01*
X18859631Y22879834D01*
X18847010Y22871400D01*
X18834370Y22863824D01*
X18820974Y22856664D01*
X18807646Y22850361D01*
X18793610Y22844547D01*
X18779762Y22839591D01*
X18765200Y22835174D01*
X18750928Y22831598D01*
X18735987Y22828627D01*
X18721441Y22826470D01*
X18706325Y22824981D01*
X18691629Y22824258D01*
D02*
G37*
%LPC*%
G36*
X20785773Y22293405D02*
X20770537Y22293405D01*
X20755841Y22294128D01*
X20740725Y22295617D01*
X20726179Y22297774D01*
X20711238Y22300745D01*
X20696966Y22304321D01*
X20682404Y22308738D01*
X20668556Y22313694D01*
X20654520Y22319508D01*
X20641192Y22325811D01*
X20627796Y22332971D01*
X20615156Y22340547D01*
X20602535Y22348981D01*
X20590694Y22357762D01*
X20578942Y22367406D01*
X20568046Y22377282D01*
X20557279Y22388049D01*
X20547403Y22398945D01*
X20537759Y22410697D01*
X20528978Y22422538D01*
X20520544Y22435159D01*
X20512968Y22447799D01*
X20505808Y22461195D01*
X20499505Y22474523D01*
X20493691Y22488559D01*
X20488735Y22502407D01*
X20484318Y22516969D01*
X20480742Y22531241D01*
X20477771Y22546182D01*
X20475614Y22560728D01*
X20474125Y22575844D01*
X20473402Y22590540D01*
X20473402Y22605776D01*
X20474125Y22620472D01*
X20475614Y22635588D01*
X20477771Y22650134D01*
X20480742Y22665075D01*
X20484318Y22679347D01*
X20488735Y22693909D01*
X20493691Y22707757D01*
X20499505Y22721793D01*
X20505808Y22735121D01*
X20512968Y22748517D01*
X20520544Y22761157D01*
X20528978Y22773778D01*
X20537759Y22785619D01*
X20547403Y22797371D01*
X20557279Y22808267D01*
X20568046Y22819034D01*
X20578942Y22828910D01*
X20590694Y22838554D01*
X20602535Y22847335D01*
X20615156Y22855769D01*
X20627796Y22863345D01*
X20641192Y22870505D01*
X20654520Y22876808D01*
X20668556Y22882622D01*
X20682404Y22887578D01*
X20696966Y22891995D01*
X20711238Y22895571D01*
X20726179Y22898542D01*
X20740725Y22900699D01*
X20755841Y22902188D01*
X20770537Y22902911D01*
X20785773Y22902911D01*
X20800469Y22902188D01*
X20815585Y22900699D01*
X20830131Y22898542D01*
X20845072Y22895571D01*
X20859344Y22891995D01*
X20873906Y22887578D01*
X20887754Y22882622D01*
X20901790Y22876808D01*
X20915118Y22870505D01*
X20928514Y22863345D01*
X20941154Y22855769D01*
X20953775Y22847335D01*
X20965616Y22838554D01*
X20977366Y22828911D01*
X20985803Y22821265D01*
X21020022Y22800942D01*
X21059458Y22795575D01*
X21097864Y22806014D01*
X21123667Y22824652D01*
X21125891Y22826876D01*
X21136787Y22836752D01*
X21148539Y22846396D01*
X21160380Y22855177D01*
X21173001Y22863611D01*
X21185641Y22871187D01*
X21199037Y22878347D01*
X21212365Y22884650D01*
X21226401Y22890464D01*
X21240249Y22895420D01*
X21254811Y22899837D01*
X21269083Y22903413D01*
X21284024Y22906384D01*
X21298570Y22908541D01*
X21313686Y22910030D01*
X21328382Y22910753D01*
X21343618Y22910753D01*
X21358314Y22910030D01*
X21373430Y22908541D01*
X21387976Y22906384D01*
X21402917Y22903413D01*
X21417189Y22899837D01*
X21431751Y22895420D01*
X21445599Y22890464D01*
X21459635Y22884650D01*
X21472963Y22878347D01*
X21486359Y22871187D01*
X21498999Y22863611D01*
X21511620Y22855177D01*
X21523461Y22846396D01*
X21535213Y22836752D01*
X21546109Y22826876D01*
X21556876Y22816109D01*
X21566752Y22805213D01*
X21576396Y22793461D01*
X21585177Y22781620D01*
X21593611Y22768999D01*
X21601187Y22756359D01*
X21608347Y22742963D01*
X21614650Y22729635D01*
X21620464Y22715599D01*
X21625420Y22701751D01*
X21629837Y22687189D01*
X21633413Y22672917D01*
X21636384Y22657976D01*
X21638541Y22643430D01*
X21640030Y22628314D01*
X21640753Y22613618D01*
X21640753Y22598382D01*
X21640030Y22583686D01*
X21638541Y22568570D01*
X21636384Y22554024D01*
X21633413Y22539083D01*
X21629837Y22524811D01*
X21625420Y22510249D01*
X21620464Y22496401D01*
X21614650Y22482365D01*
X21608347Y22469037D01*
X21601187Y22455641D01*
X21593611Y22443001D01*
X21585177Y22430380D01*
X21576396Y22418539D01*
X21566752Y22406787D01*
X21556876Y22395891D01*
X21546109Y22385124D01*
X21535213Y22375248D01*
X21523461Y22365604D01*
X21511620Y22356823D01*
X21498999Y22348389D01*
X21486359Y22340813D01*
X21472963Y22333653D01*
X21459635Y22327350D01*
X21445599Y22321536D01*
X21431751Y22316580D01*
X21417189Y22312163D01*
X21402917Y22308587D01*
X21387976Y22305616D01*
X21373430Y22303459D01*
X21358314Y22301970D01*
X21343618Y22301247D01*
X21328382Y22301247D01*
X21313686Y22301970D01*
X21298570Y22303459D01*
X21284024Y22305616D01*
X21269083Y22308587D01*
X21254811Y22312163D01*
X21240249Y22316580D01*
X21226401Y22321536D01*
X21212365Y22327350D01*
X21199037Y22333653D01*
X21185641Y22340813D01*
X21173001Y22348389D01*
X21160380Y22356823D01*
X21148539Y22365604D01*
X21136789Y22375247D01*
X21128352Y22382893D01*
X21094133Y22403216D01*
X21054697Y22408583D01*
X21016291Y22398144D01*
X20990488Y22379506D01*
X20988264Y22377282D01*
X20977368Y22367406D01*
X20965616Y22357762D01*
X20953775Y22348981D01*
X20941154Y22340547D01*
X20928514Y22332971D01*
X20915118Y22325811D01*
X20901790Y22319508D01*
X20887754Y22313694D01*
X20873906Y22308738D01*
X20859344Y22304321D01*
X20845072Y22300745D01*
X20830131Y22297774D01*
X20815585Y22295617D01*
X20800469Y22294128D01*
X20785773Y22293405D01*
D02*
G37*
%LPC*%
G36*
X33642595Y20845247D02*
X33627405Y20845247D01*
X33563670Y20848378D01*
X33548569Y20849866D01*
X33485451Y20859229D01*
X33470534Y20862196D01*
X33408686Y20877687D01*
X33394107Y20882110D01*
X33334056Y20903597D01*
X33320019Y20909412D01*
X33262351Y20936687D01*
X33248929Y20943861D01*
X33194232Y20976645D01*
X33181580Y20985098D01*
X33130341Y21023100D01*
X33118605Y21032731D01*
X33071328Y21075581D01*
X33060581Y21086328D01*
X33017731Y21133605D01*
X33008100Y21145341D01*
X32970098Y21196580D01*
X32961645Y21209232D01*
X32928861Y21263929D01*
X32921687Y21277351D01*
X32894412Y21335019D01*
X32888597Y21349056D01*
X32867110Y21409107D01*
X32862687Y21423686D01*
X32847196Y21485534D01*
X32844229Y21500451D01*
X32834866Y21563569D01*
X32833378Y21578670D01*
X32830247Y21642405D01*
X32830247Y21657595D01*
X32833378Y21721330D01*
X32834866Y21736431D01*
X32844229Y21799549D01*
X32847196Y21814466D01*
X32862687Y21876314D01*
X32867110Y21890893D01*
X32888597Y21950944D01*
X32894412Y21964981D01*
X32921687Y22022649D01*
X32928861Y22036071D01*
X32961645Y22090768D01*
X32970098Y22103420D01*
X33008100Y22154659D01*
X33017731Y22166395D01*
X33060581Y22213672D01*
X33071328Y22224419D01*
X33118605Y22267269D01*
X33130341Y22276900D01*
X33181580Y22314902D01*
X33194232Y22323355D01*
X33248929Y22356139D01*
X33262351Y22363313D01*
X33320019Y22390588D01*
X33334056Y22396403D01*
X33394107Y22417890D01*
X33408686Y22422313D01*
X33470534Y22437804D01*
X33485451Y22440771D01*
X33548569Y22450134D01*
X33563670Y22451622D01*
X33627405Y22454753D01*
X33642595Y22454753D01*
X33706330Y22451622D01*
X33721431Y22450134D01*
X33784549Y22440771D01*
X33799466Y22437804D01*
X33861314Y22422313D01*
X33875893Y22417890D01*
X33935944Y22396403D01*
X33949981Y22390588D01*
X34007649Y22363313D01*
X34021071Y22356139D01*
X34075768Y22323355D01*
X34088420Y22314902D01*
X34139659Y22276900D01*
X34151395Y22267269D01*
X34198672Y22224419D01*
X34209419Y22213672D01*
X34252269Y22166395D01*
X34261900Y22154659D01*
X34299902Y22103420D01*
X34308355Y22090768D01*
X34341139Y22036071D01*
X34348313Y22022649D01*
X34375588Y21964981D01*
X34381403Y21950944D01*
X34402890Y21890893D01*
X34407313Y21876314D01*
X34422804Y21814466D01*
X34425771Y21799552D01*
X34435135Y21736429D01*
X34436622Y21721331D01*
X34439753Y21657595D01*
X34439753Y21642405D01*
X34436622Y21578669D01*
X34435135Y21563571D01*
X34425771Y21500448D01*
X34422804Y21485534D01*
X34407313Y21423686D01*
X34402890Y21409107D01*
X34381403Y21349056D01*
X34375588Y21335019D01*
X34348313Y21277351D01*
X34341139Y21263929D01*
X34308355Y21209232D01*
X34299902Y21196580D01*
X34261900Y21145341D01*
X34252269Y21133605D01*
X34209419Y21086328D01*
X34198672Y21075581D01*
X34151395Y21032731D01*
X34139659Y21023100D01*
X34088420Y20985098D01*
X34075768Y20976645D01*
X34021071Y20943861D01*
X34007649Y20936687D01*
X33949981Y20909412D01*
X33935944Y20903597D01*
X33875893Y20882110D01*
X33861314Y20877687D01*
X33799466Y20862196D01*
X33784549Y20859229D01*
X33721431Y20849866D01*
X33706330Y20848378D01*
X33642595Y20845247D01*
D02*
G37*
%LPC*%
G36*
X31102595Y20845247D02*
X31087405Y20845247D01*
X31023670Y20848378D01*
X31008569Y20849866D01*
X30945451Y20859229D01*
X30930534Y20862196D01*
X30868686Y20877687D01*
X30854107Y20882110D01*
X30794056Y20903597D01*
X30780019Y20909412D01*
X30722351Y20936687D01*
X30708929Y20943861D01*
X30654232Y20976645D01*
X30641580Y20985098D01*
X30590341Y21023100D01*
X30578605Y21032731D01*
X30531328Y21075581D01*
X30520581Y21086328D01*
X30477731Y21133605D01*
X30468100Y21145341D01*
X30430098Y21196580D01*
X30421645Y21209232D01*
X30388861Y21263929D01*
X30381687Y21277351D01*
X30354412Y21335019D01*
X30348597Y21349056D01*
X30327110Y21409107D01*
X30322687Y21423686D01*
X30307196Y21485534D01*
X30304229Y21500451D01*
X30294866Y21563569D01*
X30293378Y21578670D01*
X30290247Y21642405D01*
X30290247Y21657595D01*
X30293378Y21721330D01*
X30294866Y21736431D01*
X30304229Y21799549D01*
X30307196Y21814466D01*
X30322687Y21876314D01*
X30327110Y21890893D01*
X30348597Y21950944D01*
X30354412Y21964981D01*
X30381687Y22022649D01*
X30388861Y22036071D01*
X30421645Y22090768D01*
X30430098Y22103420D01*
X30468100Y22154659D01*
X30477731Y22166395D01*
X30520581Y22213672D01*
X30531328Y22224419D01*
X30578605Y22267269D01*
X30590341Y22276900D01*
X30641580Y22314902D01*
X30654232Y22323355D01*
X30708929Y22356139D01*
X30722351Y22363313D01*
X30780019Y22390588D01*
X30794056Y22396403D01*
X30854107Y22417890D01*
X30868686Y22422313D01*
X30930534Y22437804D01*
X30945451Y22440771D01*
X31008569Y22450134D01*
X31023670Y22451622D01*
X31087405Y22454753D01*
X31102595Y22454753D01*
X31166330Y22451622D01*
X31181431Y22450134D01*
X31244549Y22440771D01*
X31259466Y22437804D01*
X31321314Y22422313D01*
X31335893Y22417890D01*
X31395944Y22396403D01*
X31409981Y22390588D01*
X31467649Y22363313D01*
X31481071Y22356139D01*
X31535768Y22323355D01*
X31548420Y22314902D01*
X31599659Y22276900D01*
X31611395Y22267269D01*
X31658672Y22224419D01*
X31669419Y22213672D01*
X31712269Y22166395D01*
X31721900Y22154659D01*
X31759902Y22103420D01*
X31768355Y22090768D01*
X31801139Y22036071D01*
X31808313Y22022649D01*
X31835588Y21964981D01*
X31841403Y21950944D01*
X31862890Y21890893D01*
X31867313Y21876314D01*
X31882804Y21814466D01*
X31885771Y21799552D01*
X31895135Y21736429D01*
X31896622Y21721331D01*
X31899753Y21657595D01*
X31899753Y21642405D01*
X31896622Y21578669D01*
X31895135Y21563571D01*
X31885771Y21500448D01*
X31882804Y21485534D01*
X31867313Y21423686D01*
X31862890Y21409107D01*
X31841403Y21349056D01*
X31835588Y21335019D01*
X31808313Y21277351D01*
X31801139Y21263929D01*
X31768355Y21209232D01*
X31759902Y21196580D01*
X31721900Y21145341D01*
X31712269Y21133605D01*
X31669419Y21086328D01*
X31658672Y21075581D01*
X31611395Y21032731D01*
X31599659Y21023100D01*
X31548420Y20985098D01*
X31535768Y20976645D01*
X31481071Y20943861D01*
X31467649Y20936687D01*
X31409981Y20909412D01*
X31395944Y20903597D01*
X31335893Y20882110D01*
X31321314Y20877687D01*
X31259466Y20862196D01*
X31244549Y20859229D01*
X31181431Y20849866D01*
X31166330Y20848378D01*
X31102595Y20845247D01*
D02*
G37*
%LPC*%
G36*
X7642595Y20845247D02*
X7627405Y20845247D01*
X7563670Y20848378D01*
X7548569Y20849866D01*
X7485451Y20859229D01*
X7470534Y20862196D01*
X7408686Y20877687D01*
X7394107Y20882110D01*
X7334056Y20903597D01*
X7320019Y20909412D01*
X7262351Y20936687D01*
X7248929Y20943861D01*
X7194232Y20976645D01*
X7181580Y20985098D01*
X7130341Y21023100D01*
X7118605Y21032731D01*
X7071328Y21075581D01*
X7060581Y21086328D01*
X7017731Y21133605D01*
X7008100Y21145341D01*
X6970098Y21196580D01*
X6961645Y21209232D01*
X6928861Y21263929D01*
X6921687Y21277351D01*
X6894412Y21335019D01*
X6888597Y21349056D01*
X6867110Y21409107D01*
X6862687Y21423686D01*
X6847196Y21485534D01*
X6844229Y21500451D01*
X6834866Y21563569D01*
X6833378Y21578670D01*
X6830247Y21642405D01*
X6830247Y21657595D01*
X6833378Y21721330D01*
X6834866Y21736431D01*
X6844229Y21799549D01*
X6847196Y21814466D01*
X6862687Y21876314D01*
X6867110Y21890893D01*
X6888597Y21950944D01*
X6894412Y21964981D01*
X6921687Y22022649D01*
X6928861Y22036071D01*
X6961645Y22090768D01*
X6970098Y22103420D01*
X7008100Y22154659D01*
X7017731Y22166395D01*
X7060581Y22213672D01*
X7071328Y22224419D01*
X7118605Y22267269D01*
X7130341Y22276900D01*
X7181580Y22314902D01*
X7194232Y22323355D01*
X7248929Y22356139D01*
X7262351Y22363313D01*
X7320019Y22390588D01*
X7334056Y22396403D01*
X7394107Y22417890D01*
X7408686Y22422313D01*
X7470534Y22437804D01*
X7485451Y22440771D01*
X7548569Y22450134D01*
X7563670Y22451622D01*
X7627405Y22454753D01*
X7642595Y22454753D01*
X7706330Y22451622D01*
X7721431Y22450134D01*
X7784549Y22440771D01*
X7799466Y22437804D01*
X7861314Y22422313D01*
X7875893Y22417890D01*
X7935944Y22396403D01*
X7949981Y22390588D01*
X8007649Y22363313D01*
X8021071Y22356139D01*
X8075768Y22323355D01*
X8088420Y22314902D01*
X8139659Y22276900D01*
X8151395Y22267269D01*
X8198672Y22224419D01*
X8209419Y22213672D01*
X8252269Y22166395D01*
X8261900Y22154659D01*
X8299902Y22103420D01*
X8308355Y22090768D01*
X8341139Y22036071D01*
X8348313Y22022649D01*
X8375588Y21964981D01*
X8381403Y21950944D01*
X8402890Y21890893D01*
X8407313Y21876314D01*
X8422804Y21814466D01*
X8425771Y21799552D01*
X8435135Y21736429D01*
X8436622Y21721331D01*
X8439753Y21657595D01*
X8439753Y21642405D01*
X8436622Y21578669D01*
X8435135Y21563571D01*
X8425771Y21500448D01*
X8422804Y21485534D01*
X8407313Y21423686D01*
X8402890Y21409107D01*
X8381403Y21349056D01*
X8375588Y21335019D01*
X8348313Y21277351D01*
X8341139Y21263929D01*
X8308355Y21209232D01*
X8299902Y21196580D01*
X8261900Y21145341D01*
X8252269Y21133605D01*
X8209419Y21086328D01*
X8198672Y21075581D01*
X8151395Y21032731D01*
X8139659Y21023100D01*
X8088420Y20985098D01*
X8075768Y20976645D01*
X8021071Y20943861D01*
X8007649Y20936687D01*
X7949981Y20909412D01*
X7935944Y20903597D01*
X7875893Y20882110D01*
X7861314Y20877687D01*
X7799466Y20862196D01*
X7784549Y20859229D01*
X7721431Y20849866D01*
X7706330Y20848378D01*
X7642595Y20845247D01*
D02*
G37*
%LPC*%
G36*
X5102595Y20845247D02*
X5087405Y20845247D01*
X5023670Y20848378D01*
X5008569Y20849866D01*
X4945451Y20859229D01*
X4930534Y20862196D01*
X4868686Y20877687D01*
X4854107Y20882110D01*
X4794056Y20903597D01*
X4780019Y20909412D01*
X4722351Y20936687D01*
X4708929Y20943861D01*
X4654232Y20976645D01*
X4641580Y20985098D01*
X4590341Y21023100D01*
X4578605Y21032731D01*
X4531328Y21075581D01*
X4520581Y21086328D01*
X4477731Y21133605D01*
X4468100Y21145341D01*
X4430098Y21196580D01*
X4421645Y21209232D01*
X4388861Y21263929D01*
X4381687Y21277351D01*
X4354412Y21335019D01*
X4348597Y21349056D01*
X4327110Y21409107D01*
X4322687Y21423686D01*
X4307196Y21485534D01*
X4304229Y21500451D01*
X4294866Y21563569D01*
X4293378Y21578670D01*
X4290247Y21642405D01*
X4290247Y21657595D01*
X4293378Y21721330D01*
X4294866Y21736431D01*
X4304229Y21799549D01*
X4307196Y21814466D01*
X4322687Y21876314D01*
X4327110Y21890893D01*
X4348597Y21950944D01*
X4354412Y21964981D01*
X4381687Y22022649D01*
X4388861Y22036071D01*
X4421645Y22090768D01*
X4430098Y22103420D01*
X4468100Y22154659D01*
X4477731Y22166395D01*
X4520581Y22213672D01*
X4531328Y22224419D01*
X4578605Y22267269D01*
X4590341Y22276900D01*
X4641580Y22314902D01*
X4654232Y22323355D01*
X4708929Y22356139D01*
X4722351Y22363313D01*
X4780019Y22390588D01*
X4794056Y22396403D01*
X4854107Y22417890D01*
X4868686Y22422313D01*
X4930534Y22437804D01*
X4945451Y22440771D01*
X5008569Y22450134D01*
X5023670Y22451622D01*
X5087405Y22454753D01*
X5102595Y22454753D01*
X5166330Y22451622D01*
X5181431Y22450134D01*
X5244549Y22440771D01*
X5259466Y22437804D01*
X5321314Y22422313D01*
X5335893Y22417890D01*
X5395944Y22396403D01*
X5409981Y22390588D01*
X5467649Y22363313D01*
X5481071Y22356139D01*
X5535768Y22323355D01*
X5548420Y22314902D01*
X5599659Y22276900D01*
X5611395Y22267269D01*
X5658672Y22224419D01*
X5669419Y22213672D01*
X5712269Y22166395D01*
X5721900Y22154659D01*
X5759902Y22103420D01*
X5768355Y22090768D01*
X5801139Y22036071D01*
X5808313Y22022649D01*
X5835588Y21964981D01*
X5841403Y21950944D01*
X5862890Y21890893D01*
X5867313Y21876314D01*
X5882804Y21814466D01*
X5885771Y21799552D01*
X5895135Y21736429D01*
X5896622Y21721331D01*
X5899753Y21657595D01*
X5899753Y21642405D01*
X5896622Y21578669D01*
X5895135Y21563571D01*
X5885771Y21500448D01*
X5882804Y21485534D01*
X5867313Y21423686D01*
X5862890Y21409107D01*
X5841403Y21349056D01*
X5835588Y21335019D01*
X5808313Y21277351D01*
X5801139Y21263929D01*
X5768355Y21209232D01*
X5759902Y21196580D01*
X5721900Y21145341D01*
X5712269Y21133605D01*
X5669419Y21086328D01*
X5658672Y21075581D01*
X5611395Y21032731D01*
X5599659Y21023100D01*
X5548420Y20985098D01*
X5535768Y20976645D01*
X5481071Y20943861D01*
X5467649Y20936687D01*
X5409981Y20909412D01*
X5395944Y20903597D01*
X5335893Y20882110D01*
X5321314Y20877687D01*
X5259466Y20862196D01*
X5244549Y20859229D01*
X5181431Y20849866D01*
X5166330Y20848378D01*
X5102595Y20845247D01*
D02*
G37*
%LPC*%
G36*
X38107618Y21158247D02*
X38092382Y21158247D01*
X38077686Y21158970D01*
X38062570Y21160459D01*
X38048024Y21162616D01*
X38033083Y21165587D01*
X38018811Y21169163D01*
X38004249Y21173580D01*
X37990401Y21178536D01*
X37976365Y21184350D01*
X37963037Y21190653D01*
X37949641Y21197813D01*
X37937001Y21205389D01*
X37924380Y21213823D01*
X37912539Y21222604D01*
X37900787Y21232248D01*
X37889891Y21242124D01*
X37879124Y21252891D01*
X37869248Y21263787D01*
X37859604Y21275539D01*
X37850823Y21287380D01*
X37842389Y21300001D01*
X37834813Y21312641D01*
X37827653Y21326037D01*
X37821350Y21339365D01*
X37815536Y21353401D01*
X37810580Y21367249D01*
X37806163Y21381811D01*
X37802587Y21396083D01*
X37799616Y21411024D01*
X37797459Y21425570D01*
X37795970Y21440686D01*
X37795247Y21455382D01*
X37795247Y21470618D01*
X37795970Y21485314D01*
X37797459Y21500430D01*
X37799616Y21514976D01*
X37802587Y21529917D01*
X37806163Y21544189D01*
X37810580Y21558751D01*
X37815536Y21572599D01*
X37821350Y21586635D01*
X37827653Y21599963D01*
X37834813Y21613359D01*
X37842389Y21625999D01*
X37850823Y21638620D01*
X37859604Y21650461D01*
X37869248Y21662213D01*
X37879124Y21673109D01*
X37889891Y21683876D01*
X37900787Y21693752D01*
X37912539Y21703396D01*
X37924380Y21712177D01*
X37937001Y21720611D01*
X37949641Y21728187D01*
X37963037Y21735347D01*
X37976365Y21741650D01*
X37990401Y21747464D01*
X38004249Y21752420D01*
X38018811Y21756837D01*
X38033083Y21760413D01*
X38048024Y21763384D01*
X38062570Y21765541D01*
X38077686Y21767030D01*
X38092382Y21767753D01*
X38107618Y21767753D01*
X38122314Y21767030D01*
X38137430Y21765541D01*
X38151976Y21763384D01*
X38166917Y21760413D01*
X38181189Y21756837D01*
X38195751Y21752420D01*
X38209599Y21747464D01*
X38223635Y21741650D01*
X38236963Y21735347D01*
X38250359Y21728187D01*
X38262999Y21720611D01*
X38275620Y21712177D01*
X38287461Y21703396D01*
X38299213Y21693752D01*
X38310109Y21683876D01*
X38320876Y21673109D01*
X38330752Y21662213D01*
X38340396Y21650461D01*
X38349177Y21638620D01*
X38357611Y21625999D01*
X38365187Y21613359D01*
X38372347Y21599963D01*
X38378650Y21586635D01*
X38384464Y21572599D01*
X38389420Y21558751D01*
X38393837Y21544189D01*
X38397413Y21529917D01*
X38400384Y21514976D01*
X38402541Y21500430D01*
X38404030Y21485314D01*
X38404753Y21470618D01*
X38404753Y21455382D01*
X38404030Y21440686D01*
X38402541Y21425570D01*
X38400384Y21411024D01*
X38397413Y21396083D01*
X38393837Y21381811D01*
X38389420Y21367249D01*
X38384464Y21353401D01*
X38378650Y21339365D01*
X38372347Y21326037D01*
X38365187Y21312641D01*
X38357611Y21300001D01*
X38349177Y21287380D01*
X38340396Y21275539D01*
X38330752Y21263787D01*
X38320876Y21252891D01*
X38310109Y21242124D01*
X38299213Y21232248D01*
X38287461Y21222604D01*
X38275620Y21213823D01*
X38262999Y21205389D01*
X38250359Y21197813D01*
X38236963Y21190653D01*
X38223635Y21184350D01*
X38209599Y21178536D01*
X38195751Y21173580D01*
X38181189Y21169163D01*
X38166917Y21165587D01*
X38151976Y21162616D01*
X38137430Y21160459D01*
X38122314Y21158970D01*
X38107618Y21158247D01*
D02*
G37*
%LPC*%
G36*
X21216618Y19888247D02*
X21201382Y19888247D01*
X21186686Y19888970D01*
X21171570Y19890459D01*
X21157024Y19892616D01*
X21142083Y19895587D01*
X21127811Y19899163D01*
X21113249Y19903580D01*
X21099401Y19908536D01*
X21085365Y19914350D01*
X21072037Y19920653D01*
X21058641Y19927813D01*
X21046001Y19935389D01*
X21033380Y19943823D01*
X21021539Y19952604D01*
X21009787Y19962248D01*
X20998891Y19972124D01*
X20988124Y19982891D01*
X20978248Y19993787D01*
X20968604Y20005539D01*
X20959823Y20017380D01*
X20951389Y20030001D01*
X20943813Y20042641D01*
X20936653Y20056037D01*
X20930350Y20069365D01*
X20924536Y20083401D01*
X20919580Y20097249D01*
X20915163Y20111811D01*
X20911587Y20126083D01*
X20908616Y20141024D01*
X20906459Y20155570D01*
X20904970Y20170686D01*
X20904247Y20185382D01*
X20904247Y20200618D01*
X20904970Y20215314D01*
X20906459Y20230430D01*
X20908616Y20244976D01*
X20911587Y20259917D01*
X20915163Y20274189D01*
X20919580Y20288751D01*
X20924536Y20302599D01*
X20930350Y20316635D01*
X20936653Y20329963D01*
X20943813Y20343359D01*
X20951389Y20355999D01*
X20959823Y20368620D01*
X20968604Y20380461D01*
X20978248Y20392213D01*
X20988124Y20403109D01*
X20998891Y20413876D01*
X21009787Y20423752D01*
X21021539Y20433396D01*
X21033380Y20442177D01*
X21046001Y20450611D01*
X21058641Y20458187D01*
X21072037Y20465347D01*
X21085365Y20471650D01*
X21099401Y20477464D01*
X21113249Y20482420D01*
X21127811Y20486837D01*
X21142083Y20490413D01*
X21157024Y20493384D01*
X21171570Y20495541D01*
X21186686Y20497030D01*
X21201382Y20497753D01*
X21216618Y20497753D01*
X21231314Y20497030D01*
X21246430Y20495541D01*
X21260976Y20493384D01*
X21275917Y20490413D01*
X21290189Y20486837D01*
X21304751Y20482420D01*
X21318599Y20477464D01*
X21332635Y20471650D01*
X21345963Y20465347D01*
X21359359Y20458187D01*
X21371999Y20450611D01*
X21384620Y20442177D01*
X21396461Y20433396D01*
X21408213Y20423752D01*
X21419109Y20413876D01*
X21429876Y20403109D01*
X21439752Y20392213D01*
X21449396Y20380461D01*
X21458177Y20368620D01*
X21466611Y20355999D01*
X21474187Y20343359D01*
X21481347Y20329963D01*
X21487650Y20316635D01*
X21493464Y20302599D01*
X21498420Y20288751D01*
X21502837Y20274189D01*
X21506413Y20259917D01*
X21509384Y20244976D01*
X21511541Y20230430D01*
X21513030Y20215314D01*
X21513753Y20200618D01*
X21513753Y20185382D01*
X21513030Y20170686D01*
X21511541Y20155570D01*
X21509384Y20141024D01*
X21506413Y20126083D01*
X21502837Y20111811D01*
X21498420Y20097249D01*
X21493464Y20083401D01*
X21487650Y20069365D01*
X21481347Y20056037D01*
X21474187Y20042641D01*
X21466611Y20030001D01*
X21458177Y20017380D01*
X21449396Y20005539D01*
X21439752Y19993787D01*
X21429876Y19982891D01*
X21419109Y19972124D01*
X21408213Y19962248D01*
X21396461Y19952604D01*
X21384620Y19943823D01*
X21371999Y19935389D01*
X21359359Y19927813D01*
X21345963Y19920653D01*
X21332635Y19914350D01*
X21318599Y19908536D01*
X21304751Y19903580D01*
X21290189Y19899163D01*
X21275917Y19895587D01*
X21260976Y19892616D01*
X21246430Y19890459D01*
X21231314Y19888970D01*
X21216618Y19888247D01*
D02*
G37*
%LPC*%
G36*
X34912595Y18305247D02*
X34897405Y18305247D01*
X34833670Y18308378D01*
X34818569Y18309866D01*
X34755451Y18319229D01*
X34740534Y18322196D01*
X34678686Y18337687D01*
X34664107Y18342110D01*
X34604056Y18363597D01*
X34590019Y18369412D01*
X34532351Y18396687D01*
X34518929Y18403861D01*
X34464232Y18436645D01*
X34451580Y18445098D01*
X34400341Y18483100D01*
X34388605Y18492731D01*
X34341328Y18535581D01*
X34330581Y18546328D01*
X34287731Y18593605D01*
X34278100Y18605341D01*
X34240098Y18656580D01*
X34231645Y18669232D01*
X34198861Y18723929D01*
X34191687Y18737351D01*
X34164412Y18795019D01*
X34158597Y18809056D01*
X34137110Y18869107D01*
X34132687Y18883686D01*
X34117196Y18945534D01*
X34114229Y18960451D01*
X34104866Y19023569D01*
X34103378Y19038670D01*
X34100247Y19102405D01*
X34100247Y19117595D01*
X34103378Y19181330D01*
X34104866Y19196431D01*
X34114229Y19259549D01*
X34117196Y19274466D01*
X34132687Y19336314D01*
X34137110Y19350893D01*
X34158597Y19410944D01*
X34164412Y19424981D01*
X34191687Y19482649D01*
X34198861Y19496071D01*
X34231645Y19550768D01*
X34240098Y19563420D01*
X34278100Y19614659D01*
X34287731Y19626395D01*
X34330581Y19673672D01*
X34341328Y19684419D01*
X34388605Y19727269D01*
X34400341Y19736900D01*
X34451580Y19774902D01*
X34464232Y19783355D01*
X34518929Y19816139D01*
X34532351Y19823313D01*
X34590019Y19850588D01*
X34604056Y19856403D01*
X34664107Y19877890D01*
X34678686Y19882313D01*
X34740534Y19897804D01*
X34755451Y19900771D01*
X34818569Y19910134D01*
X34833670Y19911622D01*
X34897405Y19914753D01*
X34912595Y19914753D01*
X34976330Y19911622D01*
X34991431Y19910134D01*
X35054549Y19900771D01*
X35069466Y19897804D01*
X35131314Y19882313D01*
X35145893Y19877890D01*
X35205944Y19856403D01*
X35219981Y19850588D01*
X35277649Y19823313D01*
X35291071Y19816139D01*
X35345768Y19783355D01*
X35358420Y19774902D01*
X35409659Y19736900D01*
X35421395Y19727269D01*
X35468672Y19684419D01*
X35479419Y19673672D01*
X35522269Y19626395D01*
X35531900Y19614659D01*
X35569902Y19563420D01*
X35578355Y19550768D01*
X35611139Y19496071D01*
X35618313Y19482649D01*
X35645588Y19424981D01*
X35651403Y19410944D01*
X35672890Y19350893D01*
X35677313Y19336314D01*
X35692804Y19274466D01*
X35695771Y19259552D01*
X35705135Y19196429D01*
X35706622Y19181331D01*
X35709753Y19117595D01*
X35709753Y19102405D01*
X35706622Y19038669D01*
X35705135Y19023571D01*
X35695771Y18960448D01*
X35692804Y18945534D01*
X35677313Y18883686D01*
X35672890Y18869107D01*
X35651403Y18809056D01*
X35645588Y18795019D01*
X35618313Y18737351D01*
X35611139Y18723929D01*
X35578355Y18669232D01*
X35569902Y18656580D01*
X35531900Y18605341D01*
X35522269Y18593605D01*
X35479419Y18546328D01*
X35468672Y18535581D01*
X35421395Y18492731D01*
X35409659Y18483100D01*
X35358420Y18445098D01*
X35345768Y18436645D01*
X35291071Y18403861D01*
X35277649Y18396687D01*
X35219981Y18369412D01*
X35205944Y18363597D01*
X35145893Y18342110D01*
X35131314Y18337687D01*
X35069466Y18322196D01*
X35054549Y18319229D01*
X34991431Y18309866D01*
X34976330Y18308378D01*
X34912595Y18305247D01*
D02*
G37*
%LPC*%
G36*
X32372595Y18305247D02*
X32357405Y18305247D01*
X32293670Y18308378D01*
X32278569Y18309866D01*
X32215451Y18319229D01*
X32200534Y18322196D01*
X32138686Y18337687D01*
X32124107Y18342110D01*
X32064056Y18363597D01*
X32050019Y18369412D01*
X31992351Y18396687D01*
X31978929Y18403861D01*
X31924232Y18436645D01*
X31911580Y18445098D01*
X31860341Y18483100D01*
X31848605Y18492731D01*
X31801328Y18535581D01*
X31790581Y18546328D01*
X31747731Y18593605D01*
X31738100Y18605341D01*
X31700098Y18656580D01*
X31691645Y18669232D01*
X31658861Y18723929D01*
X31651687Y18737351D01*
X31624412Y18795019D01*
X31618597Y18809056D01*
X31597110Y18869107D01*
X31592687Y18883686D01*
X31577196Y18945534D01*
X31574229Y18960451D01*
X31564866Y19023569D01*
X31563378Y19038670D01*
X31560247Y19102405D01*
X31560247Y19117595D01*
X31563378Y19181330D01*
X31564866Y19196431D01*
X31574229Y19259549D01*
X31577196Y19274466D01*
X31592687Y19336314D01*
X31597110Y19350893D01*
X31618597Y19410944D01*
X31624412Y19424981D01*
X31651687Y19482649D01*
X31658861Y19496071D01*
X31691645Y19550768D01*
X31700098Y19563420D01*
X31738100Y19614659D01*
X31747731Y19626395D01*
X31790581Y19673672D01*
X31801328Y19684419D01*
X31848605Y19727269D01*
X31860341Y19736900D01*
X31911580Y19774902D01*
X31924232Y19783355D01*
X31978929Y19816139D01*
X31992351Y19823313D01*
X32050019Y19850588D01*
X32064056Y19856403D01*
X32124107Y19877890D01*
X32138686Y19882313D01*
X32200534Y19897804D01*
X32215451Y19900771D01*
X32278569Y19910134D01*
X32293670Y19911622D01*
X32357405Y19914753D01*
X32372595Y19914753D01*
X32436330Y19911622D01*
X32451431Y19910134D01*
X32514549Y19900771D01*
X32529466Y19897804D01*
X32591314Y19882313D01*
X32605893Y19877890D01*
X32665944Y19856403D01*
X32679981Y19850588D01*
X32737649Y19823313D01*
X32751071Y19816139D01*
X32805768Y19783355D01*
X32818420Y19774902D01*
X32869659Y19736900D01*
X32881395Y19727269D01*
X32928672Y19684419D01*
X32939419Y19673672D01*
X32982269Y19626395D01*
X32991900Y19614659D01*
X33029902Y19563420D01*
X33038355Y19550768D01*
X33071139Y19496071D01*
X33078313Y19482649D01*
X33105588Y19424981D01*
X33111403Y19410944D01*
X33132890Y19350893D01*
X33137313Y19336314D01*
X33152804Y19274466D01*
X33155771Y19259552D01*
X33165135Y19196429D01*
X33166622Y19181331D01*
X33169753Y19117595D01*
X33169753Y19102405D01*
X33166622Y19038669D01*
X33165135Y19023571D01*
X33155771Y18960448D01*
X33152804Y18945534D01*
X33137313Y18883686D01*
X33132890Y18869107D01*
X33111403Y18809056D01*
X33105588Y18795019D01*
X33078313Y18737351D01*
X33071139Y18723929D01*
X33038355Y18669232D01*
X33029902Y18656580D01*
X32991900Y18605341D01*
X32982269Y18593605D01*
X32939419Y18546328D01*
X32928672Y18535581D01*
X32881395Y18492731D01*
X32869659Y18483100D01*
X32818420Y18445098D01*
X32805768Y18436645D01*
X32751071Y18403861D01*
X32737649Y18396687D01*
X32679981Y18369412D01*
X32665944Y18363597D01*
X32605893Y18342110D01*
X32591314Y18337687D01*
X32529466Y18322196D01*
X32514549Y18319229D01*
X32451431Y18309866D01*
X32436330Y18308378D01*
X32372595Y18305247D01*
D02*
G37*
%LPC*%
G36*
X8912595Y18305247D02*
X8897405Y18305247D01*
X8833670Y18308378D01*
X8818569Y18309866D01*
X8755451Y18319229D01*
X8740534Y18322196D01*
X8678686Y18337687D01*
X8664107Y18342110D01*
X8604056Y18363597D01*
X8590019Y18369412D01*
X8532351Y18396687D01*
X8518929Y18403861D01*
X8464232Y18436645D01*
X8451580Y18445098D01*
X8400341Y18483100D01*
X8388605Y18492731D01*
X8341328Y18535581D01*
X8330581Y18546328D01*
X8287731Y18593605D01*
X8278100Y18605341D01*
X8240098Y18656580D01*
X8231645Y18669232D01*
X8198861Y18723929D01*
X8191687Y18737351D01*
X8164412Y18795019D01*
X8158597Y18809056D01*
X8137110Y18869107D01*
X8132687Y18883686D01*
X8117196Y18945534D01*
X8114229Y18960451D01*
X8104866Y19023569D01*
X8103378Y19038670D01*
X8100247Y19102405D01*
X8100247Y19117595D01*
X8103378Y19181330D01*
X8104866Y19196431D01*
X8114229Y19259549D01*
X8117196Y19274466D01*
X8132687Y19336314D01*
X8137110Y19350893D01*
X8158597Y19410944D01*
X8164412Y19424981D01*
X8191687Y19482649D01*
X8198861Y19496071D01*
X8231645Y19550768D01*
X8240098Y19563420D01*
X8278100Y19614659D01*
X8287731Y19626395D01*
X8330581Y19673672D01*
X8341328Y19684419D01*
X8388605Y19727269D01*
X8400341Y19736900D01*
X8451580Y19774902D01*
X8464232Y19783355D01*
X8518929Y19816139D01*
X8532351Y19823313D01*
X8590019Y19850588D01*
X8604056Y19856403D01*
X8664107Y19877890D01*
X8678686Y19882313D01*
X8740534Y19897804D01*
X8755451Y19900771D01*
X8818569Y19910134D01*
X8833670Y19911622D01*
X8897405Y19914753D01*
X8912595Y19914753D01*
X8976330Y19911622D01*
X8991431Y19910134D01*
X9054549Y19900771D01*
X9069466Y19897804D01*
X9131314Y19882313D01*
X9145893Y19877890D01*
X9205944Y19856403D01*
X9219981Y19850588D01*
X9277649Y19823313D01*
X9291071Y19816139D01*
X9345768Y19783355D01*
X9358420Y19774902D01*
X9409659Y19736900D01*
X9421395Y19727269D01*
X9468672Y19684419D01*
X9479419Y19673672D01*
X9522269Y19626395D01*
X9531900Y19614659D01*
X9569902Y19563420D01*
X9578355Y19550768D01*
X9611139Y19496071D01*
X9618313Y19482649D01*
X9645588Y19424981D01*
X9651403Y19410944D01*
X9672890Y19350893D01*
X9677313Y19336314D01*
X9692804Y19274466D01*
X9695771Y19259552D01*
X9705135Y19196429D01*
X9706622Y19181331D01*
X9709753Y19117595D01*
X9709753Y19102405D01*
X9706622Y19038669D01*
X9705135Y19023571D01*
X9695771Y18960448D01*
X9692804Y18945534D01*
X9677313Y18883686D01*
X9672890Y18869107D01*
X9651403Y18809056D01*
X9645588Y18795019D01*
X9618313Y18737351D01*
X9611139Y18723929D01*
X9578355Y18669232D01*
X9569902Y18656580D01*
X9531900Y18605341D01*
X9522269Y18593605D01*
X9479419Y18546328D01*
X9468672Y18535581D01*
X9421395Y18492731D01*
X9409659Y18483100D01*
X9358420Y18445098D01*
X9345768Y18436645D01*
X9291071Y18403861D01*
X9277649Y18396687D01*
X9219981Y18369412D01*
X9205944Y18363597D01*
X9145893Y18342110D01*
X9131314Y18337687D01*
X9069466Y18322196D01*
X9054549Y18319229D01*
X8991431Y18309866D01*
X8976330Y18308378D01*
X8912595Y18305247D01*
D02*
G37*
%LPC*%
G36*
X6372595Y18305247D02*
X6357405Y18305247D01*
X6293670Y18308378D01*
X6278569Y18309866D01*
X6215451Y18319229D01*
X6200534Y18322196D01*
X6138686Y18337687D01*
X6124107Y18342110D01*
X6064056Y18363597D01*
X6050019Y18369412D01*
X5992351Y18396687D01*
X5978929Y18403861D01*
X5924232Y18436645D01*
X5911580Y18445098D01*
X5860341Y18483100D01*
X5848605Y18492731D01*
X5801328Y18535581D01*
X5790581Y18546328D01*
X5747731Y18593605D01*
X5738100Y18605341D01*
X5700098Y18656580D01*
X5691645Y18669232D01*
X5658861Y18723929D01*
X5651687Y18737351D01*
X5624412Y18795019D01*
X5618597Y18809056D01*
X5597110Y18869107D01*
X5592687Y18883686D01*
X5577196Y18945534D01*
X5574229Y18960451D01*
X5564866Y19023569D01*
X5563378Y19038670D01*
X5560247Y19102405D01*
X5560247Y19117595D01*
X5563378Y19181330D01*
X5564866Y19196431D01*
X5574229Y19259549D01*
X5577196Y19274466D01*
X5592687Y19336314D01*
X5597110Y19350893D01*
X5618597Y19410944D01*
X5624412Y19424981D01*
X5651687Y19482649D01*
X5658861Y19496071D01*
X5691645Y19550768D01*
X5700098Y19563420D01*
X5738100Y19614659D01*
X5747731Y19626395D01*
X5790581Y19673672D01*
X5801328Y19684419D01*
X5848605Y19727269D01*
X5860341Y19736900D01*
X5911580Y19774902D01*
X5924232Y19783355D01*
X5978929Y19816139D01*
X5992351Y19823313D01*
X6050019Y19850588D01*
X6064056Y19856403D01*
X6124107Y19877890D01*
X6138686Y19882313D01*
X6200534Y19897804D01*
X6215451Y19900771D01*
X6278569Y19910134D01*
X6293670Y19911622D01*
X6357405Y19914753D01*
X6372595Y19914753D01*
X6436330Y19911622D01*
X6451431Y19910134D01*
X6514549Y19900771D01*
X6529466Y19897804D01*
X6591314Y19882313D01*
X6605893Y19877890D01*
X6665944Y19856403D01*
X6679981Y19850588D01*
X6737649Y19823313D01*
X6751071Y19816139D01*
X6805768Y19783355D01*
X6818420Y19774902D01*
X6869659Y19736900D01*
X6881395Y19727269D01*
X6928672Y19684419D01*
X6939419Y19673672D01*
X6982269Y19626395D01*
X6991900Y19614659D01*
X7029902Y19563420D01*
X7038355Y19550768D01*
X7071139Y19496071D01*
X7078313Y19482649D01*
X7105588Y19424981D01*
X7111403Y19410944D01*
X7132890Y19350893D01*
X7137313Y19336314D01*
X7152804Y19274466D01*
X7155771Y19259552D01*
X7165135Y19196429D01*
X7166622Y19181331D01*
X7169753Y19117595D01*
X7169753Y19102405D01*
X7166622Y19038669D01*
X7165135Y19023571D01*
X7155771Y18960448D01*
X7152804Y18945534D01*
X7137313Y18883686D01*
X7132890Y18869107D01*
X7111403Y18809056D01*
X7105588Y18795019D01*
X7078313Y18737351D01*
X7071139Y18723929D01*
X7038355Y18669232D01*
X7029902Y18656580D01*
X6991900Y18605341D01*
X6982269Y18593605D01*
X6939419Y18546328D01*
X6928672Y18535581D01*
X6881395Y18492731D01*
X6869659Y18483100D01*
X6818420Y18445098D01*
X6805768Y18436645D01*
X6751071Y18403861D01*
X6737649Y18396687D01*
X6679981Y18369412D01*
X6665944Y18363597D01*
X6605893Y18342110D01*
X6591314Y18337687D01*
X6529466Y18322196D01*
X6514549Y18319229D01*
X6451431Y18309866D01*
X6436330Y18308378D01*
X6372595Y18305247D01*
D02*
G37*
%LPC*%
G36*
X18930618Y18110247D02*
X18915382Y18110247D01*
X18900686Y18110970D01*
X18885570Y18112459D01*
X18871024Y18114616D01*
X18856083Y18117587D01*
X18841811Y18121163D01*
X18827249Y18125580D01*
X18813401Y18130536D01*
X18799365Y18136350D01*
X18786037Y18142653D01*
X18772641Y18149813D01*
X18760001Y18157389D01*
X18747380Y18165823D01*
X18735539Y18174604D01*
X18723787Y18184248D01*
X18712891Y18194124D01*
X18702124Y18204891D01*
X18692248Y18215787D01*
X18682604Y18227539D01*
X18673823Y18239380D01*
X18665389Y18252001D01*
X18657813Y18264641D01*
X18650653Y18278037D01*
X18644350Y18291365D01*
X18638536Y18305401D01*
X18633580Y18319249D01*
X18629163Y18333811D01*
X18625587Y18348083D01*
X18622616Y18363024D01*
X18620459Y18377570D01*
X18618970Y18392686D01*
X18618247Y18407382D01*
X18618247Y18422618D01*
X18618970Y18437314D01*
X18620459Y18452430D01*
X18622616Y18466976D01*
X18625587Y18481917D01*
X18629163Y18496189D01*
X18633580Y18510751D01*
X18638536Y18524599D01*
X18644350Y18538635D01*
X18650653Y18551963D01*
X18657813Y18565359D01*
X18665389Y18577999D01*
X18673823Y18590620D01*
X18682604Y18602461D01*
X18692248Y18614213D01*
X18702124Y18625109D01*
X18712891Y18635876D01*
X18723787Y18645752D01*
X18735539Y18655396D01*
X18747380Y18664177D01*
X18760001Y18672611D01*
X18772641Y18680187D01*
X18786037Y18687347D01*
X18799365Y18693650D01*
X18813401Y18699464D01*
X18827249Y18704420D01*
X18841811Y18708837D01*
X18856083Y18712413D01*
X18871024Y18715384D01*
X18885570Y18717541D01*
X18900686Y18719030D01*
X18915382Y18719753D01*
X18930618Y18719753D01*
X18945314Y18719030D01*
X18960430Y18717541D01*
X18974976Y18715384D01*
X18989917Y18712413D01*
X19004189Y18708837D01*
X19018751Y18704420D01*
X19032599Y18699464D01*
X19046635Y18693650D01*
X19059963Y18687347D01*
X19073359Y18680187D01*
X19085999Y18672611D01*
X19098620Y18664177D01*
X19110461Y18655396D01*
X19122213Y18645752D01*
X19133109Y18635876D01*
X19143876Y18625109D01*
X19153752Y18614213D01*
X19163396Y18602461D01*
X19172177Y18590620D01*
X19180611Y18577999D01*
X19188187Y18565359D01*
X19195347Y18551963D01*
X19201650Y18538635D01*
X19207464Y18524599D01*
X19212420Y18510751D01*
X19216837Y18496189D01*
X19220413Y18481917D01*
X19223384Y18466976D01*
X19225541Y18452430D01*
X19227030Y18437314D01*
X19227753Y18422618D01*
X19227753Y18407382D01*
X19227030Y18392686D01*
X19225541Y18377570D01*
X19223384Y18363024D01*
X19220413Y18348083D01*
X19216837Y18333811D01*
X19212420Y18319249D01*
X19207464Y18305401D01*
X19201650Y18291365D01*
X19195347Y18278037D01*
X19188187Y18264641D01*
X19180611Y18252001D01*
X19172177Y18239380D01*
X19163396Y18227539D01*
X19153752Y18215787D01*
X19143876Y18204891D01*
X19133109Y18194124D01*
X19122213Y18184248D01*
X19110461Y18174604D01*
X19098620Y18165823D01*
X19085999Y18157389D01*
X19073359Y18149813D01*
X19059963Y18142653D01*
X19046635Y18136350D01*
X19032599Y18130536D01*
X19018751Y18125580D01*
X19004189Y18121163D01*
X18989917Y18117587D01*
X18974976Y18114616D01*
X18960430Y18112459D01*
X18945314Y18110970D01*
X18930618Y18110247D01*
D02*
G37*
%LPC*%
G36*
X38107618Y16840247D02*
X38092382Y16840247D01*
X38077686Y16840970D01*
X38062570Y16842459D01*
X38048024Y16844616D01*
X38033083Y16847587D01*
X38018811Y16851163D01*
X38004249Y16855580D01*
X37990401Y16860536D01*
X37976365Y16866350D01*
X37963037Y16872653D01*
X37949641Y16879813D01*
X37937001Y16887389D01*
X37924380Y16895823D01*
X37912539Y16904604D01*
X37900787Y16914248D01*
X37889891Y16924124D01*
X37879124Y16934891D01*
X37869248Y16945787D01*
X37859604Y16957539D01*
X37850823Y16969380D01*
X37842389Y16982001D01*
X37834813Y16994641D01*
X37827653Y17008037D01*
X37821350Y17021365D01*
X37815536Y17035401D01*
X37810580Y17049249D01*
X37806163Y17063811D01*
X37802587Y17078083D01*
X37799616Y17093024D01*
X37797459Y17107570D01*
X37795970Y17122686D01*
X37795247Y17137382D01*
X37795247Y17152618D01*
X37795970Y17167314D01*
X37797459Y17182430D01*
X37799616Y17196976D01*
X37802587Y17211917D01*
X37806163Y17226189D01*
X37810580Y17240751D01*
X37815536Y17254599D01*
X37821350Y17268635D01*
X37827653Y17281963D01*
X37834813Y17295359D01*
X37842389Y17307999D01*
X37850823Y17320620D01*
X37859604Y17332461D01*
X37869248Y17344213D01*
X37879124Y17355109D01*
X37889891Y17365876D01*
X37900787Y17375752D01*
X37912539Y17385396D01*
X37924380Y17394177D01*
X37937001Y17402611D01*
X37949641Y17410187D01*
X37963037Y17417347D01*
X37976365Y17423650D01*
X37990401Y17429464D01*
X38004249Y17434420D01*
X38018811Y17438837D01*
X38033083Y17442413D01*
X38048024Y17445384D01*
X38062570Y17447541D01*
X38077686Y17449030D01*
X38092382Y17449753D01*
X38107618Y17449753D01*
X38122314Y17449030D01*
X38137430Y17447541D01*
X38151976Y17445384D01*
X38166917Y17442413D01*
X38181189Y17438837D01*
X38195751Y17434420D01*
X38209599Y17429464D01*
X38223635Y17423650D01*
X38236963Y17417347D01*
X38250359Y17410187D01*
X38262999Y17402611D01*
X38275620Y17394177D01*
X38287461Y17385396D01*
X38299213Y17375752D01*
X38310109Y17365876D01*
X38320876Y17355109D01*
X38330752Y17344213D01*
X38340396Y17332461D01*
X38349177Y17320620D01*
X38357611Y17307999D01*
X38365187Y17295359D01*
X38372347Y17281963D01*
X38378650Y17268635D01*
X38384464Y17254599D01*
X38389420Y17240751D01*
X38393837Y17226189D01*
X38397413Y17211917D01*
X38400384Y17196976D01*
X38402541Y17182430D01*
X38404030Y17167314D01*
X38404753Y17152618D01*
X38404753Y17137382D01*
X38404030Y17122686D01*
X38402541Y17107570D01*
X38400384Y17093024D01*
X38397413Y17078083D01*
X38393837Y17063811D01*
X38389420Y17049249D01*
X38384464Y17035401D01*
X38378650Y17021365D01*
X38372347Y17008037D01*
X38365187Y16994641D01*
X38357611Y16982001D01*
X38349177Y16969380D01*
X38340396Y16957539D01*
X38330752Y16945787D01*
X38320876Y16934891D01*
X38310109Y16924124D01*
X38299213Y16914248D01*
X38287461Y16904604D01*
X38275620Y16895823D01*
X38262999Y16887389D01*
X38250359Y16879813D01*
X38236963Y16872653D01*
X38223635Y16866350D01*
X38209599Y16860536D01*
X38195751Y16855580D01*
X38181189Y16851163D01*
X38166917Y16847587D01*
X38151976Y16844616D01*
X38137430Y16842459D01*
X38122314Y16840970D01*
X38107618Y16840247D01*
D02*
G37*
%LPC*%
G36*
X15882618Y15697247D02*
X15867382Y15697247D01*
X15852686Y15697970D01*
X15837570Y15699459D01*
X15823024Y15701616D01*
X15808083Y15704587D01*
X15793811Y15708163D01*
X15779249Y15712580D01*
X15765401Y15717536D01*
X15751365Y15723350D01*
X15738037Y15729653D01*
X15724641Y15736813D01*
X15712001Y15744389D01*
X15699380Y15752823D01*
X15687539Y15761604D01*
X15675787Y15771248D01*
X15664891Y15781124D01*
X15654124Y15791891D01*
X15644248Y15802787D01*
X15634604Y15814539D01*
X15625823Y15826380D01*
X15617389Y15839001D01*
X15609813Y15851641D01*
X15602653Y15865037D01*
X15596350Y15878365D01*
X15590536Y15892401D01*
X15585580Y15906249D01*
X15581163Y15920811D01*
X15577587Y15935083D01*
X15574616Y15950024D01*
X15572459Y15964570D01*
X15570970Y15979686D01*
X15570247Y15994382D01*
X15570247Y16009618D01*
X15570970Y16024314D01*
X15572459Y16039430D01*
X15574616Y16053976D01*
X15577587Y16068917D01*
X15581163Y16083189D01*
X15585580Y16097751D01*
X15590536Y16111599D01*
X15596350Y16125635D01*
X15602653Y16138963D01*
X15609813Y16152359D01*
X15617389Y16164999D01*
X15625823Y16177620D01*
X15634604Y16189461D01*
X15644248Y16201213D01*
X15654124Y16212109D01*
X15664891Y16222876D01*
X15675787Y16232752D01*
X15687539Y16242396D01*
X15699380Y16251177D01*
X15712001Y16259611D01*
X15724641Y16267187D01*
X15738037Y16274347D01*
X15751365Y16280650D01*
X15765401Y16286464D01*
X15779249Y16291420D01*
X15793811Y16295837D01*
X15808083Y16299413D01*
X15823024Y16302384D01*
X15837570Y16304541D01*
X15852686Y16306030D01*
X15867382Y16306753D01*
X15882618Y16306753D01*
X15897314Y16306030D01*
X15912430Y16304541D01*
X15926976Y16302384D01*
X15941917Y16299413D01*
X15956189Y16295837D01*
X15970751Y16291420D01*
X15984599Y16286464D01*
X15998635Y16280650D01*
X16011963Y16274347D01*
X16025359Y16267187D01*
X16037999Y16259611D01*
X16050620Y16251177D01*
X16062461Y16242396D01*
X16074213Y16232752D01*
X16085109Y16222876D01*
X16095876Y16212109D01*
X16105752Y16201213D01*
X16115396Y16189461D01*
X16124177Y16177620D01*
X16132611Y16164999D01*
X16140187Y16152359D01*
X16147347Y16138963D01*
X16153650Y16125635D01*
X16159464Y16111599D01*
X16164420Y16097751D01*
X16168837Y16083189D01*
X16172413Y16068917D01*
X16175384Y16053976D01*
X16177541Y16039430D01*
X16179030Y16024314D01*
X16179753Y16009618D01*
X16179753Y15994382D01*
X16179030Y15979686D01*
X16177541Y15964570D01*
X16175384Y15950024D01*
X16172413Y15935083D01*
X16168837Y15920811D01*
X16164420Y15906249D01*
X16159464Y15892401D01*
X16153650Y15878365D01*
X16147347Y15865037D01*
X16140187Y15851641D01*
X16132611Y15839001D01*
X16124177Y15826380D01*
X16115396Y15814539D01*
X16105752Y15802787D01*
X16095876Y15791891D01*
X16085109Y15781124D01*
X16074213Y15771248D01*
X16062461Y15761604D01*
X16050620Y15752823D01*
X16037999Y15744389D01*
X16025359Y15736813D01*
X16011963Y15729653D01*
X15998635Y15723350D01*
X15984599Y15717536D01*
X15970751Y15712580D01*
X15956189Y15708163D01*
X15941917Y15704587D01*
X15926976Y15701616D01*
X15912430Y15699459D01*
X15897314Y15697970D01*
X15882618Y15697247D01*
D02*
G37*
%LPC*%
G36*
X4355000Y15105000D02*
X3415122Y15105000D01*
X3429941Y15204897D01*
X3454983Y15304871D01*
X3489705Y15401911D01*
X3533764Y15495070D01*
X3586763Y15583491D01*
X3648150Y15666262D01*
X3717368Y15742632D01*
X3793738Y15811850D01*
X3876509Y15873237D01*
X3964930Y15926236D01*
X4058089Y15970295D01*
X4155129Y16005017D01*
X4255103Y16030059D01*
X4355000Y16044878D01*
X4355000Y15105000D01*
D02*
G37*
%LPC*%
G36*
X5504878Y15105000D02*
X4565000Y15105000D01*
X4565000Y16044878D01*
X4664897Y16030059D01*
X4764869Y16005018D01*
X4861914Y15970294D01*
X4955075Y15926233D01*
X5043480Y15873245D01*
X5126268Y15811845D01*
X5202633Y15742631D01*
X5271850Y15666262D01*
X5333242Y15583484D01*
X5386232Y15495079D01*
X5430295Y15401912D01*
X5465017Y15304870D01*
X5490059Y15204897D01*
X5504878Y15105000D01*
D02*
G37*
%LPC*%
G36*
X30355000Y15105000D02*
X29415122Y15105000D01*
X29429941Y15204897D01*
X29454983Y15304871D01*
X29489705Y15401911D01*
X29533764Y15495070D01*
X29586763Y15583491D01*
X29648150Y15666262D01*
X29717368Y15742632D01*
X29793738Y15811850D01*
X29876509Y15873237D01*
X29964930Y15926236D01*
X30058089Y15970295D01*
X30155129Y16005017D01*
X30255103Y16030059D01*
X30355000Y16044878D01*
X30355000Y15105000D01*
D02*
G37*
%LPC*%
G36*
X31504878Y15105000D02*
X30565000Y15105000D01*
X30565000Y16044878D01*
X30664897Y16030059D01*
X30764869Y16005018D01*
X30861914Y15970294D01*
X30955075Y15926233D01*
X31043480Y15873245D01*
X31126268Y15811845D01*
X31202633Y15742631D01*
X31271850Y15666262D01*
X31333242Y15583484D01*
X31386232Y15495079D01*
X31430295Y15401912D01*
X31465017Y15304870D01*
X31490059Y15204897D01*
X31504878Y15105000D01*
D02*
G37*
%LPC*%
G36*
X35547595Y14045247D02*
X35532405Y14045247D01*
X35453967Y14049100D01*
X35438869Y14050588D01*
X35361185Y14062111D01*
X35346276Y14065077D01*
X35270139Y14084148D01*
X35255564Y14088569D01*
X35181665Y14115011D01*
X35167597Y14120838D01*
X35096644Y14154396D01*
X35083234Y14161563D01*
X35015878Y14201936D01*
X35003254Y14210371D01*
X34940183Y14257148D01*
X34928434Y14266790D01*
X34870272Y14319505D01*
X34859505Y14330272D01*
X34806790Y14388434D01*
X34797148Y14400183D01*
X34750371Y14463254D01*
X34741936Y14475878D01*
X34701563Y14543234D01*
X34694396Y14556644D01*
X34660838Y14627597D01*
X34655011Y14641665D01*
X34628569Y14715564D01*
X34624148Y14730139D01*
X34605077Y14806276D01*
X34602111Y14821185D01*
X34590588Y14898869D01*
X34589100Y14913967D01*
X34585247Y14992405D01*
X34585247Y15007595D01*
X34589100Y15086033D01*
X34590588Y15101131D01*
X34602112Y15178817D01*
X34605076Y15193719D01*
X34624152Y15269874D01*
X34628567Y15284430D01*
X34655014Y15358343D01*
X34660832Y15372390D01*
X34694396Y15443356D01*
X34701563Y15456766D01*
X34741936Y15524122D01*
X34750371Y15536746D01*
X34797148Y15599817D01*
X34806790Y15611566D01*
X34859505Y15669728D01*
X34870272Y15680495D01*
X34928434Y15733210D01*
X34940183Y15742852D01*
X35003254Y15789629D01*
X35015878Y15798064D01*
X35083234Y15838437D01*
X35096644Y15845604D01*
X35167610Y15879168D01*
X35181657Y15884986D01*
X35255570Y15911433D01*
X35270126Y15915848D01*
X35346281Y15934924D01*
X35361183Y15937888D01*
X35438869Y15949412D01*
X35453967Y15950900D01*
X35532405Y15954753D01*
X35547595Y15954753D01*
X35626033Y15950900D01*
X35641131Y15949412D01*
X35718815Y15937889D01*
X35733724Y15934923D01*
X35809861Y15915852D01*
X35824436Y15911431D01*
X35898335Y15884989D01*
X35912403Y15879162D01*
X35983356Y15845604D01*
X35996766Y15838437D01*
X36064126Y15798062D01*
X36076749Y15789627D01*
X36139797Y15742868D01*
X36151575Y15733202D01*
X36209740Y15680483D01*
X36220486Y15669737D01*
X36273210Y15611566D01*
X36282852Y15599817D01*
X36329629Y15536746D01*
X36338064Y15524122D01*
X36378437Y15456766D01*
X36385603Y15443359D01*
X36419168Y15372390D01*
X36424988Y15358339D01*
X36451432Y15284433D01*
X36455848Y15269874D01*
X36474924Y15193719D01*
X36477888Y15178817D01*
X36489412Y15101131D01*
X36490900Y15086033D01*
X36494753Y15007595D01*
X36494753Y14992405D01*
X36490900Y14913967D01*
X36489412Y14898869D01*
X36477888Y14821183D01*
X36474924Y14806281D01*
X36455848Y14730126D01*
X36451432Y14715567D01*
X36424988Y14641661D01*
X36419168Y14627610D01*
X36385603Y14556641D01*
X36378437Y14543234D01*
X36338064Y14475878D01*
X36329629Y14463254D01*
X36282852Y14400183D01*
X36273210Y14388434D01*
X36220486Y14330263D01*
X36209740Y14319517D01*
X36151575Y14266798D01*
X36139797Y14257132D01*
X36076749Y14210373D01*
X36064126Y14201938D01*
X35996766Y14161563D01*
X35983356Y14154396D01*
X35912390Y14120832D01*
X35898343Y14115014D01*
X35824430Y14088567D01*
X35809874Y14084152D01*
X35733719Y14065076D01*
X35718817Y14062112D01*
X35641131Y14050588D01*
X35626033Y14049100D01*
X35547595Y14045247D01*
D02*
G37*
%LPC*%
G36*
X33007595Y14045247D02*
X32992405Y14045247D01*
X32913967Y14049100D01*
X32898869Y14050588D01*
X32821185Y14062111D01*
X32806276Y14065077D01*
X32730139Y14084148D01*
X32715564Y14088569D01*
X32641665Y14115011D01*
X32627597Y14120838D01*
X32556644Y14154396D01*
X32543234Y14161563D01*
X32475878Y14201936D01*
X32463254Y14210371D01*
X32400183Y14257148D01*
X32388434Y14266790D01*
X32330272Y14319505D01*
X32319505Y14330272D01*
X32266790Y14388434D01*
X32257148Y14400183D01*
X32210371Y14463254D01*
X32201936Y14475878D01*
X32161563Y14543234D01*
X32154396Y14556644D01*
X32120838Y14627597D01*
X32115011Y14641665D01*
X32088569Y14715564D01*
X32084148Y14730139D01*
X32065077Y14806276D01*
X32062111Y14821185D01*
X32050588Y14898869D01*
X32049100Y14913967D01*
X32045247Y14992405D01*
X32045247Y15007595D01*
X32049100Y15086033D01*
X32050588Y15101131D01*
X32062112Y15178817D01*
X32065076Y15193719D01*
X32084152Y15269874D01*
X32088567Y15284430D01*
X32115014Y15358343D01*
X32120832Y15372390D01*
X32154396Y15443356D01*
X32161563Y15456766D01*
X32201936Y15524122D01*
X32210371Y15536746D01*
X32257148Y15599817D01*
X32266790Y15611566D01*
X32319505Y15669728D01*
X32330272Y15680495D01*
X32388434Y15733210D01*
X32400183Y15742852D01*
X32463254Y15789629D01*
X32475878Y15798064D01*
X32543234Y15838437D01*
X32556644Y15845604D01*
X32627610Y15879168D01*
X32641657Y15884986D01*
X32715570Y15911433D01*
X32730126Y15915848D01*
X32806281Y15934924D01*
X32821183Y15937888D01*
X32898869Y15949412D01*
X32913967Y15950900D01*
X32992405Y15954753D01*
X33007595Y15954753D01*
X33086033Y15950900D01*
X33101131Y15949412D01*
X33178815Y15937889D01*
X33193724Y15934923D01*
X33269861Y15915852D01*
X33284436Y15911431D01*
X33358335Y15884989D01*
X33372403Y15879162D01*
X33443356Y15845604D01*
X33456766Y15838437D01*
X33524126Y15798062D01*
X33536749Y15789627D01*
X33599797Y15742868D01*
X33611575Y15733202D01*
X33669740Y15680483D01*
X33680486Y15669737D01*
X33733210Y15611566D01*
X33742852Y15599817D01*
X33789629Y15536746D01*
X33798064Y15524122D01*
X33838437Y15456766D01*
X33845603Y15443359D01*
X33879168Y15372390D01*
X33884988Y15358339D01*
X33911432Y15284433D01*
X33915848Y15269874D01*
X33934924Y15193719D01*
X33937888Y15178817D01*
X33949412Y15101131D01*
X33950900Y15086033D01*
X33954753Y15007595D01*
X33954753Y14992405D01*
X33950900Y14913967D01*
X33949412Y14898869D01*
X33937888Y14821183D01*
X33934924Y14806281D01*
X33915848Y14730126D01*
X33911432Y14715567D01*
X33884988Y14641661D01*
X33879168Y14627610D01*
X33845603Y14556641D01*
X33838437Y14543234D01*
X33798064Y14475878D01*
X33789629Y14463254D01*
X33742852Y14400183D01*
X33733210Y14388434D01*
X33680486Y14330263D01*
X33669740Y14319517D01*
X33611575Y14266798D01*
X33599797Y14257132D01*
X33536749Y14210373D01*
X33524126Y14201938D01*
X33456766Y14161563D01*
X33443356Y14154396D01*
X33372390Y14120832D01*
X33358343Y14115014D01*
X33284430Y14088567D01*
X33269874Y14084152D01*
X33193719Y14065076D01*
X33178817Y14062112D01*
X33101131Y14050588D01*
X33086033Y14049100D01*
X33007595Y14045247D01*
D02*
G37*
%LPC*%
G36*
X9547595Y14045247D02*
X9532405Y14045247D01*
X9453967Y14049100D01*
X9438869Y14050588D01*
X9361185Y14062111D01*
X9346276Y14065077D01*
X9270139Y14084148D01*
X9255564Y14088569D01*
X9181665Y14115011D01*
X9167597Y14120838D01*
X9096644Y14154396D01*
X9083234Y14161563D01*
X9015878Y14201936D01*
X9003254Y14210371D01*
X8940183Y14257148D01*
X8928434Y14266790D01*
X8870272Y14319505D01*
X8859505Y14330272D01*
X8806790Y14388434D01*
X8797148Y14400183D01*
X8750371Y14463254D01*
X8741936Y14475878D01*
X8701563Y14543234D01*
X8694396Y14556644D01*
X8660838Y14627597D01*
X8655011Y14641665D01*
X8628569Y14715564D01*
X8624148Y14730139D01*
X8605077Y14806276D01*
X8602111Y14821185D01*
X8590588Y14898869D01*
X8589100Y14913967D01*
X8585247Y14992405D01*
X8585247Y15007595D01*
X8589100Y15086033D01*
X8590588Y15101131D01*
X8602112Y15178817D01*
X8605076Y15193719D01*
X8624152Y15269874D01*
X8628567Y15284430D01*
X8655014Y15358343D01*
X8660832Y15372390D01*
X8694396Y15443356D01*
X8701563Y15456766D01*
X8741936Y15524122D01*
X8750371Y15536746D01*
X8797148Y15599817D01*
X8806790Y15611566D01*
X8859505Y15669728D01*
X8870272Y15680495D01*
X8928434Y15733210D01*
X8940183Y15742852D01*
X9003254Y15789629D01*
X9015878Y15798064D01*
X9083234Y15838437D01*
X9096644Y15845604D01*
X9167610Y15879168D01*
X9181657Y15884986D01*
X9255570Y15911433D01*
X9270126Y15915848D01*
X9346281Y15934924D01*
X9361183Y15937888D01*
X9438869Y15949412D01*
X9453967Y15950900D01*
X9532405Y15954753D01*
X9547595Y15954753D01*
X9626033Y15950900D01*
X9641131Y15949412D01*
X9718815Y15937889D01*
X9733724Y15934923D01*
X9809861Y15915852D01*
X9824436Y15911431D01*
X9898335Y15884989D01*
X9912403Y15879162D01*
X9983356Y15845604D01*
X9996766Y15838437D01*
X10064126Y15798062D01*
X10076749Y15789627D01*
X10139797Y15742868D01*
X10151575Y15733202D01*
X10209740Y15680483D01*
X10220486Y15669737D01*
X10273210Y15611566D01*
X10282852Y15599817D01*
X10329629Y15536746D01*
X10338064Y15524122D01*
X10378437Y15456766D01*
X10385603Y15443359D01*
X10419168Y15372390D01*
X10424988Y15358339D01*
X10451432Y15284433D01*
X10455848Y15269874D01*
X10474924Y15193719D01*
X10477888Y15178817D01*
X10489412Y15101131D01*
X10490900Y15086033D01*
X10494753Y15007595D01*
X10494753Y14992405D01*
X10490900Y14913967D01*
X10489412Y14898869D01*
X10477888Y14821183D01*
X10474924Y14806281D01*
X10455848Y14730126D01*
X10451432Y14715567D01*
X10424988Y14641661D01*
X10419168Y14627610D01*
X10385603Y14556641D01*
X10378437Y14543234D01*
X10338064Y14475878D01*
X10329629Y14463254D01*
X10282852Y14400183D01*
X10273210Y14388434D01*
X10220486Y14330263D01*
X10209740Y14319517D01*
X10151575Y14266798D01*
X10139797Y14257132D01*
X10076749Y14210373D01*
X10064126Y14201938D01*
X9996766Y14161563D01*
X9983356Y14154396D01*
X9912390Y14120832D01*
X9898343Y14115014D01*
X9824430Y14088567D01*
X9809874Y14084152D01*
X9733719Y14065076D01*
X9718817Y14062112D01*
X9641131Y14050588D01*
X9626033Y14049100D01*
X9547595Y14045247D01*
D02*
G37*
%LPC*%
G36*
X7007595Y14045247D02*
X6992405Y14045247D01*
X6913967Y14049100D01*
X6898869Y14050588D01*
X6821185Y14062111D01*
X6806276Y14065077D01*
X6730139Y14084148D01*
X6715564Y14088569D01*
X6641665Y14115011D01*
X6627597Y14120838D01*
X6556644Y14154396D01*
X6543234Y14161563D01*
X6475878Y14201936D01*
X6463254Y14210371D01*
X6400183Y14257148D01*
X6388434Y14266790D01*
X6330272Y14319505D01*
X6319505Y14330272D01*
X6266790Y14388434D01*
X6257148Y14400183D01*
X6210371Y14463254D01*
X6201936Y14475878D01*
X6161563Y14543234D01*
X6154396Y14556644D01*
X6120838Y14627597D01*
X6115011Y14641665D01*
X6088569Y14715564D01*
X6084148Y14730139D01*
X6065077Y14806276D01*
X6062111Y14821185D01*
X6050588Y14898869D01*
X6049100Y14913967D01*
X6045247Y14992405D01*
X6045247Y15007595D01*
X6049100Y15086033D01*
X6050588Y15101131D01*
X6062112Y15178817D01*
X6065076Y15193719D01*
X6084152Y15269874D01*
X6088567Y15284430D01*
X6115014Y15358343D01*
X6120832Y15372390D01*
X6154396Y15443356D01*
X6161563Y15456766D01*
X6201936Y15524122D01*
X6210371Y15536746D01*
X6257148Y15599817D01*
X6266790Y15611566D01*
X6319505Y15669728D01*
X6330272Y15680495D01*
X6388434Y15733210D01*
X6400183Y15742852D01*
X6463254Y15789629D01*
X6475878Y15798064D01*
X6543234Y15838437D01*
X6556644Y15845604D01*
X6627610Y15879168D01*
X6641657Y15884986D01*
X6715570Y15911433D01*
X6730126Y15915848D01*
X6806281Y15934924D01*
X6821183Y15937888D01*
X6898869Y15949412D01*
X6913967Y15950900D01*
X6992405Y15954753D01*
X7007595Y15954753D01*
X7086033Y15950900D01*
X7101131Y15949412D01*
X7178815Y15937889D01*
X7193724Y15934923D01*
X7269861Y15915852D01*
X7284436Y15911431D01*
X7358335Y15884989D01*
X7372403Y15879162D01*
X7443356Y15845604D01*
X7456766Y15838437D01*
X7524126Y15798062D01*
X7536749Y15789627D01*
X7599797Y15742868D01*
X7611575Y15733202D01*
X7669740Y15680483D01*
X7680486Y15669737D01*
X7733210Y15611566D01*
X7742852Y15599817D01*
X7789629Y15536746D01*
X7798064Y15524122D01*
X7838437Y15456766D01*
X7845603Y15443359D01*
X7879168Y15372390D01*
X7884988Y15358339D01*
X7911432Y15284433D01*
X7915848Y15269874D01*
X7934924Y15193719D01*
X7937888Y15178817D01*
X7949412Y15101131D01*
X7950900Y15086033D01*
X7954753Y15007595D01*
X7954753Y14992405D01*
X7950900Y14913967D01*
X7949412Y14898869D01*
X7937888Y14821183D01*
X7934924Y14806281D01*
X7915848Y14730126D01*
X7911432Y14715567D01*
X7884988Y14641661D01*
X7879168Y14627610D01*
X7845603Y14556641D01*
X7838437Y14543234D01*
X7798064Y14475878D01*
X7789629Y14463254D01*
X7742852Y14400183D01*
X7733210Y14388434D01*
X7680486Y14330263D01*
X7669740Y14319517D01*
X7611575Y14266798D01*
X7599797Y14257132D01*
X7536749Y14210373D01*
X7524126Y14201938D01*
X7456766Y14161563D01*
X7443356Y14154396D01*
X7372390Y14120832D01*
X7358343Y14115014D01*
X7284430Y14088567D01*
X7269874Y14084152D01*
X7193719Y14065076D01*
X7178817Y14062112D01*
X7101131Y14050588D01*
X7086033Y14049100D01*
X7007595Y14045247D01*
D02*
G37*
%LPC*%
G36*
X30565000Y13955122D02*
X30565000Y14895000D01*
X31504878Y14895000D01*
X31490059Y14795103D01*
X31465017Y14695130D01*
X31430295Y14598088D01*
X31386232Y14504921D01*
X31333242Y14416516D01*
X31271850Y14333738D01*
X31202633Y14257369D01*
X31126268Y14188155D01*
X31043480Y14126755D01*
X30955075Y14073767D01*
X30861911Y14029705D01*
X30764871Y13994983D01*
X30664897Y13969941D01*
X30565000Y13955122D01*
D02*
G37*
%LPC*%
G36*
X30355000Y13955122D02*
X30255103Y13969941D01*
X30155131Y13994982D01*
X30058086Y14029706D01*
X29964930Y14073764D01*
X29876509Y14126763D01*
X29793738Y14188150D01*
X29717368Y14257368D01*
X29648150Y14333738D01*
X29586763Y14416509D01*
X29533764Y14504930D01*
X29489706Y14598086D01*
X29454982Y14695131D01*
X29429941Y14795103D01*
X29415122Y14895000D01*
X30355000Y14895000D01*
X30355000Y13955122D01*
D02*
G37*
%LPC*%
G36*
X4565000Y13955122D02*
X4565000Y14895000D01*
X5504878Y14895000D01*
X5490059Y14795103D01*
X5465017Y14695130D01*
X5430295Y14598088D01*
X5386232Y14504921D01*
X5333242Y14416516D01*
X5271850Y14333738D01*
X5202633Y14257369D01*
X5126268Y14188155D01*
X5043480Y14126755D01*
X4955075Y14073767D01*
X4861911Y14029705D01*
X4764871Y13994983D01*
X4664897Y13969941D01*
X4565000Y13955122D01*
D02*
G37*
%LPC*%
G36*
X4355000Y13955122D02*
X4255103Y13969941D01*
X4155131Y13994982D01*
X4058086Y14029706D01*
X3964930Y14073764D01*
X3876509Y14126763D01*
X3793738Y14188150D01*
X3717368Y14257368D01*
X3648150Y14333738D01*
X3586763Y14416509D01*
X3533764Y14504930D01*
X3489706Y14598086D01*
X3454982Y14695131D01*
X3429941Y14795103D01*
X3415122Y14895000D01*
X4355000Y14895000D01*
X4355000Y13955122D01*
D02*
G37*
%LPC*%
G36*
X25169618Y14257247D02*
X25154382Y14257247D01*
X25139686Y14257970D01*
X25124570Y14259459D01*
X25110024Y14261616D01*
X25095083Y14264587D01*
X25080811Y14268163D01*
X25066249Y14272580D01*
X25052401Y14277536D01*
X25038365Y14283350D01*
X25025037Y14289653D01*
X25011641Y14296813D01*
X24999001Y14304389D01*
X24986380Y14312823D01*
X24974539Y14321604D01*
X24962787Y14331248D01*
X24951891Y14341124D01*
X24941124Y14351891D01*
X24931248Y14362787D01*
X24921604Y14374539D01*
X24912823Y14386380D01*
X24904389Y14399001D01*
X24896813Y14411641D01*
X24889653Y14425037D01*
X24883350Y14438365D01*
X24877536Y14452401D01*
X24872580Y14466249D01*
X24868163Y14480811D01*
X24864587Y14495083D01*
X24861616Y14510024D01*
X24859459Y14524570D01*
X24857970Y14539686D01*
X24857247Y14554382D01*
X24857247Y14569618D01*
X24857970Y14584314D01*
X24859459Y14599430D01*
X24861616Y14613976D01*
X24864587Y14628917D01*
X24868163Y14643189D01*
X24872580Y14657751D01*
X24877536Y14671599D01*
X24883350Y14685635D01*
X24889653Y14698963D01*
X24896813Y14712359D01*
X24904389Y14724999D01*
X24912823Y14737620D01*
X24921604Y14749461D01*
X24931248Y14761213D01*
X24941124Y14772109D01*
X24951891Y14782876D01*
X24962787Y14792752D01*
X24974539Y14802396D01*
X24986380Y14811177D01*
X24999001Y14819611D01*
X25011641Y14827187D01*
X25025037Y14834347D01*
X25038365Y14840650D01*
X25052401Y14846464D01*
X25066249Y14851420D01*
X25080811Y14855837D01*
X25095083Y14859413D01*
X25110024Y14862384D01*
X25124570Y14864541D01*
X25139686Y14866030D01*
X25154382Y14866753D01*
X25169618Y14866753D01*
X25184314Y14866030D01*
X25199430Y14864541D01*
X25213976Y14862384D01*
X25228917Y14859413D01*
X25243189Y14855837D01*
X25257751Y14851420D01*
X25271599Y14846464D01*
X25285635Y14840650D01*
X25298963Y14834347D01*
X25312359Y14827187D01*
X25324999Y14819611D01*
X25337620Y14811177D01*
X25349461Y14802396D01*
X25361213Y14792752D01*
X25372109Y14782876D01*
X25382876Y14772109D01*
X25392752Y14761213D01*
X25402396Y14749461D01*
X25411177Y14737620D01*
X25419611Y14724999D01*
X25427187Y14712359D01*
X25434347Y14698963D01*
X25440650Y14685635D01*
X25446464Y14671599D01*
X25451420Y14657751D01*
X25455837Y14643189D01*
X25459413Y14628917D01*
X25462384Y14613976D01*
X25464541Y14599430D01*
X25466030Y14584314D01*
X25466753Y14569618D01*
X25466753Y14554382D01*
X25466030Y14539686D01*
X25464541Y14524570D01*
X25462384Y14510024D01*
X25459413Y14495083D01*
X25455837Y14480811D01*
X25451420Y14466249D01*
X25446464Y14452401D01*
X25440650Y14438365D01*
X25434347Y14425037D01*
X25427187Y14411641D01*
X25419611Y14399001D01*
X25411177Y14386380D01*
X25402396Y14374539D01*
X25392752Y14362787D01*
X25382876Y14351891D01*
X25372109Y14341124D01*
X25361213Y14331248D01*
X25349461Y14321604D01*
X25337620Y14312823D01*
X25324999Y14304389D01*
X25312359Y14296813D01*
X25298963Y14289653D01*
X25285635Y14283350D01*
X25271599Y14277536D01*
X25257751Y14272580D01*
X25243189Y14268163D01*
X25228917Y14264587D01*
X25213976Y14261616D01*
X25199430Y14259459D01*
X25184314Y14257970D01*
X25169618Y14257247D01*
D02*
G37*
%LPC*%
G36*
X38869618Y13295247D02*
X38854382Y13295247D01*
X38839686Y13295970D01*
X38824570Y13297459D01*
X38810024Y13299616D01*
X38795083Y13302587D01*
X38780811Y13306163D01*
X38766249Y13310580D01*
X38752401Y13315536D01*
X38738365Y13321350D01*
X38725037Y13327653D01*
X38711641Y13334813D01*
X38699001Y13342389D01*
X38686380Y13350823D01*
X38674539Y13359604D01*
X38662787Y13369248D01*
X38651891Y13379124D01*
X38641124Y13389891D01*
X38631248Y13400787D01*
X38621604Y13412539D01*
X38612823Y13424380D01*
X38604389Y13437001D01*
X38596813Y13449641D01*
X38589653Y13463037D01*
X38583350Y13476365D01*
X38577536Y13490401D01*
X38572580Y13504249D01*
X38568163Y13518811D01*
X38564587Y13533083D01*
X38561616Y13548024D01*
X38559459Y13562570D01*
X38557970Y13577686D01*
X38557247Y13592382D01*
X38557247Y13607618D01*
X38557970Y13622314D01*
X38559459Y13637430D01*
X38561616Y13651976D01*
X38564587Y13666917D01*
X38568163Y13681189D01*
X38572580Y13695751D01*
X38577536Y13709599D01*
X38583350Y13723635D01*
X38589653Y13736963D01*
X38596813Y13750359D01*
X38604389Y13762999D01*
X38612823Y13775620D01*
X38621604Y13787461D01*
X38631248Y13799213D01*
X38641124Y13810109D01*
X38651891Y13820876D01*
X38662787Y13830752D01*
X38674539Y13840396D01*
X38686380Y13849177D01*
X38699001Y13857611D01*
X38711641Y13865187D01*
X38725037Y13872347D01*
X38738365Y13878650D01*
X38752401Y13884464D01*
X38766249Y13889420D01*
X38780811Y13893837D01*
X38795083Y13897413D01*
X38810024Y13900384D01*
X38824570Y13902541D01*
X38839686Y13904030D01*
X38854382Y13904753D01*
X38869618Y13904753D01*
X38884314Y13904030D01*
X38899430Y13902541D01*
X38913976Y13900384D01*
X38928917Y13897413D01*
X38943189Y13893837D01*
X38957751Y13889420D01*
X38971599Y13884464D01*
X38985635Y13878650D01*
X38998963Y13872347D01*
X39012359Y13865187D01*
X39024999Y13857611D01*
X39037620Y13849177D01*
X39049461Y13840396D01*
X39061213Y13830752D01*
X39072109Y13820876D01*
X39082876Y13810109D01*
X39092752Y13799213D01*
X39102396Y13787461D01*
X39111177Y13775620D01*
X39119611Y13762999D01*
X39127187Y13750359D01*
X39134347Y13736963D01*
X39140650Y13723635D01*
X39146464Y13709599D01*
X39151420Y13695751D01*
X39155837Y13681189D01*
X39159413Y13666917D01*
X39162384Y13651976D01*
X39164541Y13637430D01*
X39166030Y13622314D01*
X39166753Y13607618D01*
X39166753Y13592382D01*
X39166030Y13577686D01*
X39164541Y13562570D01*
X39162384Y13548024D01*
X39159413Y13533083D01*
X39155837Y13518811D01*
X39151420Y13504249D01*
X39146464Y13490401D01*
X39140650Y13476365D01*
X39134347Y13463037D01*
X39127187Y13449641D01*
X39119611Y13437001D01*
X39111177Y13424380D01*
X39102396Y13412539D01*
X39092752Y13400787D01*
X39082876Y13389891D01*
X39072109Y13379124D01*
X39061213Y13369248D01*
X39049461Y13359604D01*
X39037620Y13350823D01*
X39024999Y13342389D01*
X39012359Y13334813D01*
X38998963Y13327653D01*
X38985635Y13321350D01*
X38971599Y13315536D01*
X38957751Y13310580D01*
X38943189Y13306163D01*
X38928917Y13302587D01*
X38913976Y13299616D01*
X38899430Y13297459D01*
X38884314Y13295970D01*
X38869618Y13295247D01*
D02*
G37*
%LPC*%
G36*
X4355000Y12105000D02*
X3415122Y12105000D01*
X3429941Y12204897D01*
X3454983Y12304871D01*
X3489705Y12401911D01*
X3533764Y12495070D01*
X3586763Y12583491D01*
X3648150Y12666262D01*
X3717368Y12742632D01*
X3793738Y12811850D01*
X3876509Y12873237D01*
X3964930Y12926236D01*
X4058089Y12970295D01*
X4155129Y13005017D01*
X4255103Y13030059D01*
X4355000Y13044878D01*
X4355000Y12105000D01*
D02*
G37*
%LPC*%
G36*
X5504878Y12105000D02*
X4565000Y12105000D01*
X4565000Y13044878D01*
X4664897Y13030059D01*
X4764869Y13005018D01*
X4861914Y12970294D01*
X4955075Y12926233D01*
X5043480Y12873245D01*
X5126268Y12811845D01*
X5202633Y12742631D01*
X5271850Y12666262D01*
X5333242Y12583484D01*
X5386232Y12495079D01*
X5430295Y12401912D01*
X5465017Y12304870D01*
X5490059Y12204897D01*
X5504878Y12105000D01*
D02*
G37*
%LPC*%
G36*
X30355000Y12105000D02*
X29415122Y12105000D01*
X29429941Y12204897D01*
X29454983Y12304871D01*
X29489705Y12401911D01*
X29533764Y12495070D01*
X29586763Y12583491D01*
X29648150Y12666262D01*
X29717368Y12742632D01*
X29793738Y12811850D01*
X29876509Y12873237D01*
X29964930Y12926236D01*
X30058089Y12970295D01*
X30155129Y13005017D01*
X30255103Y13030059D01*
X30355000Y13044878D01*
X30355000Y12105000D01*
D02*
G37*
%LPC*%
G36*
X31504878Y12105000D02*
X30565000Y12105000D01*
X30565000Y13044878D01*
X30664897Y13030059D01*
X30764869Y13005018D01*
X30861914Y12970294D01*
X30955075Y12926233D01*
X31043480Y12873245D01*
X31126268Y12811845D01*
X31202633Y12742631D01*
X31271850Y12666262D01*
X31333242Y12583484D01*
X31386232Y12495079D01*
X31430295Y12401912D01*
X31465017Y12304870D01*
X31490059Y12204897D01*
X31504878Y12105000D01*
D02*
G37*
%LPC*%
G36*
X35547595Y11045247D02*
X35532405Y11045247D01*
X35453967Y11049100D01*
X35438869Y11050588D01*
X35361185Y11062111D01*
X35346276Y11065077D01*
X35270139Y11084148D01*
X35255564Y11088569D01*
X35181665Y11115011D01*
X35167597Y11120838D01*
X35096644Y11154396D01*
X35083234Y11161563D01*
X35015878Y11201936D01*
X35003254Y11210371D01*
X34940183Y11257148D01*
X34928434Y11266790D01*
X34870272Y11319505D01*
X34859505Y11330272D01*
X34806790Y11388434D01*
X34797148Y11400183D01*
X34750371Y11463254D01*
X34741936Y11475878D01*
X34701563Y11543234D01*
X34694396Y11556644D01*
X34660838Y11627597D01*
X34655011Y11641665D01*
X34628569Y11715564D01*
X34624148Y11730139D01*
X34605077Y11806276D01*
X34602111Y11821185D01*
X34590588Y11898869D01*
X34589100Y11913967D01*
X34585247Y11992405D01*
X34585247Y12007595D01*
X34589100Y12086033D01*
X34590588Y12101131D01*
X34602112Y12178817D01*
X34605076Y12193719D01*
X34624152Y12269874D01*
X34628567Y12284430D01*
X34655014Y12358343D01*
X34660832Y12372390D01*
X34694396Y12443356D01*
X34701563Y12456766D01*
X34741936Y12524122D01*
X34750371Y12536746D01*
X34797148Y12599817D01*
X34806790Y12611566D01*
X34859505Y12669728D01*
X34870272Y12680495D01*
X34928434Y12733210D01*
X34940183Y12742852D01*
X35003254Y12789629D01*
X35015878Y12798064D01*
X35083234Y12838437D01*
X35096644Y12845604D01*
X35167610Y12879168D01*
X35181657Y12884986D01*
X35255570Y12911433D01*
X35270126Y12915848D01*
X35346281Y12934924D01*
X35361183Y12937888D01*
X35438869Y12949412D01*
X35453967Y12950900D01*
X35532405Y12954753D01*
X35547595Y12954753D01*
X35626033Y12950900D01*
X35641131Y12949412D01*
X35718815Y12937889D01*
X35733724Y12934923D01*
X35809861Y12915852D01*
X35824436Y12911431D01*
X35898335Y12884989D01*
X35912403Y12879162D01*
X35983356Y12845604D01*
X35996766Y12838437D01*
X36064126Y12798062D01*
X36076749Y12789627D01*
X36139797Y12742868D01*
X36151575Y12733202D01*
X36209740Y12680483D01*
X36220486Y12669737D01*
X36273210Y12611566D01*
X36282852Y12599817D01*
X36329629Y12536746D01*
X36338064Y12524122D01*
X36378437Y12456766D01*
X36385603Y12443359D01*
X36419168Y12372390D01*
X36424988Y12358339D01*
X36451432Y12284433D01*
X36455848Y12269874D01*
X36474924Y12193719D01*
X36477888Y12178817D01*
X36489412Y12101131D01*
X36490900Y12086033D01*
X36494753Y12007595D01*
X36494753Y11992405D01*
X36490900Y11913967D01*
X36489412Y11898869D01*
X36477888Y11821183D01*
X36474924Y11806281D01*
X36455848Y11730126D01*
X36451432Y11715567D01*
X36424988Y11641661D01*
X36419168Y11627610D01*
X36385603Y11556641D01*
X36378437Y11543234D01*
X36338064Y11475878D01*
X36329629Y11463254D01*
X36282852Y11400183D01*
X36273210Y11388434D01*
X36220486Y11330263D01*
X36209740Y11319517D01*
X36151575Y11266798D01*
X36139797Y11257132D01*
X36076749Y11210373D01*
X36064126Y11201938D01*
X35996766Y11161563D01*
X35983356Y11154396D01*
X35912390Y11120832D01*
X35898343Y11115014D01*
X35824430Y11088567D01*
X35809874Y11084152D01*
X35733719Y11065076D01*
X35718817Y11062112D01*
X35641131Y11050588D01*
X35626033Y11049100D01*
X35547595Y11045247D01*
D02*
G37*
%LPC*%
G36*
X33007595Y11045247D02*
X32992405Y11045247D01*
X32913967Y11049100D01*
X32898869Y11050588D01*
X32821185Y11062111D01*
X32806276Y11065077D01*
X32730139Y11084148D01*
X32715564Y11088569D01*
X32641665Y11115011D01*
X32627597Y11120838D01*
X32556644Y11154396D01*
X32543234Y11161563D01*
X32475878Y11201936D01*
X32463254Y11210371D01*
X32400183Y11257148D01*
X32388434Y11266790D01*
X32330272Y11319505D01*
X32319505Y11330272D01*
X32266790Y11388434D01*
X32257148Y11400183D01*
X32210371Y11463254D01*
X32201936Y11475878D01*
X32161563Y11543234D01*
X32154396Y11556644D01*
X32120838Y11627597D01*
X32115011Y11641665D01*
X32088569Y11715564D01*
X32084148Y11730139D01*
X32065077Y11806276D01*
X32062111Y11821185D01*
X32050588Y11898869D01*
X32049100Y11913967D01*
X32045247Y11992405D01*
X32045247Y12007595D01*
X32049100Y12086033D01*
X32050588Y12101131D01*
X32062112Y12178817D01*
X32065076Y12193719D01*
X32084152Y12269874D01*
X32088567Y12284430D01*
X32115014Y12358343D01*
X32120832Y12372390D01*
X32154396Y12443356D01*
X32161563Y12456766D01*
X32201936Y12524122D01*
X32210371Y12536746D01*
X32257148Y12599817D01*
X32266790Y12611566D01*
X32319505Y12669728D01*
X32330272Y12680495D01*
X32388434Y12733210D01*
X32400183Y12742852D01*
X32463254Y12789629D01*
X32475878Y12798064D01*
X32543234Y12838437D01*
X32556644Y12845604D01*
X32627610Y12879168D01*
X32641657Y12884986D01*
X32715570Y12911433D01*
X32730126Y12915848D01*
X32806281Y12934924D01*
X32821183Y12937888D01*
X32898869Y12949412D01*
X32913967Y12950900D01*
X32992405Y12954753D01*
X33007595Y12954753D01*
X33086033Y12950900D01*
X33101131Y12949412D01*
X33178815Y12937889D01*
X33193724Y12934923D01*
X33269861Y12915852D01*
X33284436Y12911431D01*
X33358335Y12884989D01*
X33372403Y12879162D01*
X33443356Y12845604D01*
X33456766Y12838437D01*
X33524126Y12798062D01*
X33536749Y12789627D01*
X33599797Y12742868D01*
X33611575Y12733202D01*
X33669740Y12680483D01*
X33680486Y12669737D01*
X33733210Y12611566D01*
X33742852Y12599817D01*
X33789629Y12536746D01*
X33798064Y12524122D01*
X33838437Y12456766D01*
X33845603Y12443359D01*
X33879168Y12372390D01*
X33884988Y12358339D01*
X33911432Y12284433D01*
X33915848Y12269874D01*
X33934924Y12193719D01*
X33937888Y12178817D01*
X33949412Y12101131D01*
X33950900Y12086033D01*
X33954753Y12007595D01*
X33954753Y11992405D01*
X33950900Y11913967D01*
X33949412Y11898869D01*
X33937888Y11821183D01*
X33934924Y11806281D01*
X33915848Y11730126D01*
X33911432Y11715567D01*
X33884988Y11641661D01*
X33879168Y11627610D01*
X33845603Y11556641D01*
X33838437Y11543234D01*
X33798064Y11475878D01*
X33789629Y11463254D01*
X33742852Y11400183D01*
X33733210Y11388434D01*
X33680486Y11330263D01*
X33669740Y11319517D01*
X33611575Y11266798D01*
X33599797Y11257132D01*
X33536749Y11210373D01*
X33524126Y11201938D01*
X33456766Y11161563D01*
X33443356Y11154396D01*
X33372390Y11120832D01*
X33358343Y11115014D01*
X33284430Y11088567D01*
X33269874Y11084152D01*
X33193719Y11065076D01*
X33178817Y11062112D01*
X33101131Y11050588D01*
X33086033Y11049100D01*
X33007595Y11045247D01*
D02*
G37*
%LPC*%
G36*
X9547595Y11045247D02*
X9532405Y11045247D01*
X9453967Y11049100D01*
X9438869Y11050588D01*
X9361185Y11062111D01*
X9346276Y11065077D01*
X9270139Y11084148D01*
X9255564Y11088569D01*
X9181665Y11115011D01*
X9167597Y11120838D01*
X9096644Y11154396D01*
X9083234Y11161563D01*
X9015878Y11201936D01*
X9003254Y11210371D01*
X8940183Y11257148D01*
X8928434Y11266790D01*
X8870272Y11319505D01*
X8859505Y11330272D01*
X8806790Y11388434D01*
X8797148Y11400183D01*
X8750371Y11463254D01*
X8741936Y11475878D01*
X8701563Y11543234D01*
X8694396Y11556644D01*
X8660838Y11627597D01*
X8655011Y11641665D01*
X8628569Y11715564D01*
X8624148Y11730139D01*
X8605077Y11806276D01*
X8602111Y11821185D01*
X8590588Y11898869D01*
X8589100Y11913967D01*
X8585247Y11992405D01*
X8585247Y12007595D01*
X8589100Y12086033D01*
X8590588Y12101131D01*
X8602112Y12178817D01*
X8605076Y12193719D01*
X8624152Y12269874D01*
X8628567Y12284430D01*
X8655014Y12358343D01*
X8660832Y12372390D01*
X8694396Y12443356D01*
X8701563Y12456766D01*
X8741936Y12524122D01*
X8750371Y12536746D01*
X8797148Y12599817D01*
X8806790Y12611566D01*
X8859505Y12669728D01*
X8870272Y12680495D01*
X8928434Y12733210D01*
X8940183Y12742852D01*
X9003254Y12789629D01*
X9015878Y12798064D01*
X9083234Y12838437D01*
X9096644Y12845604D01*
X9167610Y12879168D01*
X9181657Y12884986D01*
X9255570Y12911433D01*
X9270126Y12915848D01*
X9346281Y12934924D01*
X9361183Y12937888D01*
X9438869Y12949412D01*
X9453967Y12950900D01*
X9532405Y12954753D01*
X9547595Y12954753D01*
X9626033Y12950900D01*
X9641131Y12949412D01*
X9718815Y12937889D01*
X9733724Y12934923D01*
X9809861Y12915852D01*
X9824436Y12911431D01*
X9898335Y12884989D01*
X9912403Y12879162D01*
X9983356Y12845604D01*
X9996766Y12838437D01*
X10064126Y12798062D01*
X10076749Y12789627D01*
X10139797Y12742868D01*
X10151575Y12733202D01*
X10209740Y12680483D01*
X10220486Y12669737D01*
X10273210Y12611566D01*
X10282852Y12599817D01*
X10329629Y12536746D01*
X10338064Y12524122D01*
X10378437Y12456766D01*
X10385603Y12443359D01*
X10419168Y12372390D01*
X10424988Y12358339D01*
X10451432Y12284433D01*
X10455848Y12269874D01*
X10474924Y12193719D01*
X10477888Y12178817D01*
X10489412Y12101131D01*
X10490900Y12086033D01*
X10494753Y12007595D01*
X10494753Y11992405D01*
X10490900Y11913967D01*
X10489412Y11898869D01*
X10477888Y11821183D01*
X10474924Y11806281D01*
X10455848Y11730126D01*
X10451432Y11715567D01*
X10424988Y11641661D01*
X10419168Y11627610D01*
X10385603Y11556641D01*
X10378437Y11543234D01*
X10338064Y11475878D01*
X10329629Y11463254D01*
X10282852Y11400183D01*
X10273210Y11388434D01*
X10220486Y11330263D01*
X10209740Y11319517D01*
X10151575Y11266798D01*
X10139797Y11257132D01*
X10076749Y11210373D01*
X10064126Y11201938D01*
X9996766Y11161563D01*
X9983356Y11154396D01*
X9912390Y11120832D01*
X9898343Y11115014D01*
X9824430Y11088567D01*
X9809874Y11084152D01*
X9733719Y11065076D01*
X9718817Y11062112D01*
X9641131Y11050588D01*
X9626033Y11049100D01*
X9547595Y11045247D01*
D02*
G37*
%LPC*%
G36*
X7007595Y11045247D02*
X6992405Y11045247D01*
X6913967Y11049100D01*
X6898869Y11050588D01*
X6821185Y11062111D01*
X6806276Y11065077D01*
X6730139Y11084148D01*
X6715564Y11088569D01*
X6641665Y11115011D01*
X6627597Y11120838D01*
X6556644Y11154396D01*
X6543234Y11161563D01*
X6475878Y11201936D01*
X6463254Y11210371D01*
X6400183Y11257148D01*
X6388434Y11266790D01*
X6330272Y11319505D01*
X6319505Y11330272D01*
X6266790Y11388434D01*
X6257148Y11400183D01*
X6210371Y11463254D01*
X6201936Y11475878D01*
X6161563Y11543234D01*
X6154396Y11556644D01*
X6120838Y11627597D01*
X6115011Y11641665D01*
X6088569Y11715564D01*
X6084148Y11730139D01*
X6065077Y11806276D01*
X6062111Y11821185D01*
X6050588Y11898869D01*
X6049100Y11913967D01*
X6045247Y11992405D01*
X6045247Y12007595D01*
X6049100Y12086033D01*
X6050588Y12101131D01*
X6062112Y12178817D01*
X6065076Y12193719D01*
X6084152Y12269874D01*
X6088567Y12284430D01*
X6115014Y12358343D01*
X6120832Y12372390D01*
X6154396Y12443356D01*
X6161563Y12456766D01*
X6201936Y12524122D01*
X6210371Y12536746D01*
X6257148Y12599817D01*
X6266790Y12611566D01*
X6319505Y12669728D01*
X6330272Y12680495D01*
X6388434Y12733210D01*
X6400183Y12742852D01*
X6463254Y12789629D01*
X6475878Y12798064D01*
X6543234Y12838437D01*
X6556644Y12845604D01*
X6627610Y12879168D01*
X6641657Y12884986D01*
X6715570Y12911433D01*
X6730126Y12915848D01*
X6806281Y12934924D01*
X6821183Y12937888D01*
X6898869Y12949412D01*
X6913967Y12950900D01*
X6992405Y12954753D01*
X7007595Y12954753D01*
X7086033Y12950900D01*
X7101131Y12949412D01*
X7178815Y12937889D01*
X7193724Y12934923D01*
X7269861Y12915852D01*
X7284436Y12911431D01*
X7358335Y12884989D01*
X7372403Y12879162D01*
X7443356Y12845604D01*
X7456766Y12838437D01*
X7524126Y12798062D01*
X7536749Y12789627D01*
X7599797Y12742868D01*
X7611575Y12733202D01*
X7669740Y12680483D01*
X7680486Y12669737D01*
X7733210Y12611566D01*
X7742852Y12599817D01*
X7789629Y12536746D01*
X7798064Y12524122D01*
X7838437Y12456766D01*
X7845603Y12443359D01*
X7879168Y12372390D01*
X7884988Y12358339D01*
X7911432Y12284433D01*
X7915848Y12269874D01*
X7934924Y12193719D01*
X7937888Y12178817D01*
X7949412Y12101131D01*
X7950900Y12086033D01*
X7954753Y12007595D01*
X7954753Y11992405D01*
X7950900Y11913967D01*
X7949412Y11898869D01*
X7937888Y11821183D01*
X7934924Y11806281D01*
X7915848Y11730126D01*
X7911432Y11715567D01*
X7884988Y11641661D01*
X7879168Y11627610D01*
X7845603Y11556641D01*
X7838437Y11543234D01*
X7798064Y11475878D01*
X7789629Y11463254D01*
X7742852Y11400183D01*
X7733210Y11388434D01*
X7680486Y11330263D01*
X7669740Y11319517D01*
X7611575Y11266798D01*
X7599797Y11257132D01*
X7536749Y11210373D01*
X7524126Y11201938D01*
X7456766Y11161563D01*
X7443356Y11154396D01*
X7372390Y11120832D01*
X7358343Y11115014D01*
X7284430Y11088567D01*
X7269874Y11084152D01*
X7193719Y11065076D01*
X7178817Y11062112D01*
X7101131Y11050588D01*
X7086033Y11049100D01*
X7007595Y11045247D01*
D02*
G37*
%LPC*%
G36*
X30565000Y10955122D02*
X30565000Y11895000D01*
X31504878Y11895000D01*
X31490059Y11795103D01*
X31465017Y11695130D01*
X31430295Y11598088D01*
X31386232Y11504921D01*
X31333242Y11416516D01*
X31271850Y11333738D01*
X31202633Y11257369D01*
X31126268Y11188155D01*
X31043480Y11126755D01*
X30955075Y11073767D01*
X30861911Y11029705D01*
X30764871Y10994983D01*
X30664897Y10969941D01*
X30565000Y10955122D01*
D02*
G37*
%LPC*%
G36*
X30355000Y10955122D02*
X30255103Y10969941D01*
X30155131Y10994982D01*
X30058086Y11029706D01*
X29964930Y11073764D01*
X29876509Y11126763D01*
X29793738Y11188150D01*
X29717368Y11257368D01*
X29648150Y11333738D01*
X29586763Y11416509D01*
X29533764Y11504930D01*
X29489706Y11598086D01*
X29454982Y11695131D01*
X29429941Y11795103D01*
X29415122Y11895000D01*
X30355000Y11895000D01*
X30355000Y10955122D01*
D02*
G37*
%LPC*%
G36*
X4565000Y10955122D02*
X4565000Y11895000D01*
X5504878Y11895000D01*
X5490059Y11795103D01*
X5465017Y11695130D01*
X5430295Y11598088D01*
X5386232Y11504921D01*
X5333242Y11416516D01*
X5271850Y11333738D01*
X5202633Y11257369D01*
X5126268Y11188155D01*
X5043480Y11126755D01*
X4955075Y11073767D01*
X4861911Y11029705D01*
X4764871Y10994983D01*
X4664897Y10969941D01*
X4565000Y10955122D01*
D02*
G37*
%LPC*%
G36*
X4355000Y10955122D02*
X4255103Y10969941D01*
X4155131Y10994982D01*
X4058086Y11029706D01*
X3964930Y11073764D01*
X3876509Y11126763D01*
X3793738Y11188150D01*
X3717368Y11257368D01*
X3648150Y11333738D01*
X3586763Y11416509D01*
X3533764Y11504930D01*
X3489706Y11598086D01*
X3454982Y11695131D01*
X3429941Y11795103D01*
X3415122Y11895000D01*
X4355000Y11895000D01*
X4355000Y10955122D01*
D02*
G37*
%LPC*%
G36*
X21216618Y10363247D02*
X21201382Y10363247D01*
X21186686Y10363970D01*
X21171570Y10365459D01*
X21157024Y10367616D01*
X21142083Y10370587D01*
X21127811Y10374163D01*
X21113249Y10378580D01*
X21099401Y10383536D01*
X21085365Y10389350D01*
X21072037Y10395653D01*
X21058641Y10402813D01*
X21046001Y10410389D01*
X21033380Y10418823D01*
X21021539Y10427604D01*
X21009787Y10437248D01*
X20998891Y10447124D01*
X20988124Y10457891D01*
X20978248Y10468787D01*
X20968604Y10480539D01*
X20959823Y10492380D01*
X20951389Y10505001D01*
X20943813Y10517641D01*
X20936653Y10531037D01*
X20930350Y10544365D01*
X20924536Y10558401D01*
X20919580Y10572249D01*
X20915163Y10586811D01*
X20911587Y10601083D01*
X20908616Y10616024D01*
X20906459Y10630570D01*
X20904970Y10645686D01*
X20904247Y10660382D01*
X20904247Y10675618D01*
X20904970Y10690314D01*
X20906459Y10705430D01*
X20908616Y10719976D01*
X20911587Y10734917D01*
X20915163Y10749189D01*
X20919580Y10763751D01*
X20924536Y10777599D01*
X20930350Y10791635D01*
X20936653Y10804963D01*
X20943813Y10818359D01*
X20951389Y10830999D01*
X20959823Y10843620D01*
X20968604Y10855461D01*
X20978248Y10867213D01*
X20988124Y10878109D01*
X20998891Y10888876D01*
X21009787Y10898752D01*
X21021539Y10908396D01*
X21033380Y10917177D01*
X21046001Y10925611D01*
X21058641Y10933187D01*
X21072037Y10940347D01*
X21085365Y10946650D01*
X21099401Y10952464D01*
X21113249Y10957420D01*
X21127811Y10961837D01*
X21142083Y10965413D01*
X21157024Y10968384D01*
X21171570Y10970541D01*
X21186686Y10972030D01*
X21201382Y10972753D01*
X21216618Y10972753D01*
X21231314Y10972030D01*
X21246430Y10970541D01*
X21260976Y10968384D01*
X21275917Y10965413D01*
X21290189Y10961837D01*
X21304751Y10957420D01*
X21318599Y10952464D01*
X21332635Y10946650D01*
X21345963Y10940347D01*
X21359359Y10933187D01*
X21371999Y10925611D01*
X21384620Y10917177D01*
X21396461Y10908396D01*
X21408213Y10898752D01*
X21419109Y10888876D01*
X21429876Y10878109D01*
X21439752Y10867213D01*
X21449396Y10855461D01*
X21458177Y10843620D01*
X21466611Y10830999D01*
X21474187Y10818359D01*
X21481347Y10804963D01*
X21487650Y10791635D01*
X21493464Y10777599D01*
X21498420Y10763751D01*
X21502837Y10749189D01*
X21506413Y10734917D01*
X21509384Y10719976D01*
X21511541Y10705430D01*
X21513030Y10690314D01*
X21513753Y10675618D01*
X21513753Y10660382D01*
X21513030Y10645686D01*
X21511541Y10630570D01*
X21509384Y10616024D01*
X21506413Y10601083D01*
X21502837Y10586811D01*
X21498420Y10572249D01*
X21493464Y10558401D01*
X21487650Y10544365D01*
X21481347Y10531037D01*
X21474187Y10517641D01*
X21466611Y10505001D01*
X21458177Y10492380D01*
X21449396Y10480539D01*
X21439752Y10468787D01*
X21429876Y10457891D01*
X21419109Y10447124D01*
X21408213Y10437248D01*
X21396461Y10427604D01*
X21384620Y10418823D01*
X21371999Y10410389D01*
X21359359Y10402813D01*
X21345963Y10395653D01*
X21332635Y10389350D01*
X21318599Y10383536D01*
X21304751Y10378580D01*
X21290189Y10374163D01*
X21275917Y10370587D01*
X21260976Y10367616D01*
X21246430Y10365459D01*
X21231314Y10363970D01*
X21216618Y10363247D01*
D02*
G37*
%LPC*%
G36*
X20017409Y9010188D02*
X19982591Y9010188D01*
X19938923Y9012333D01*
X19904266Y9015747D01*
X19861053Y9022158D01*
X19826872Y9028957D01*
X19784508Y9039568D01*
X19751149Y9049687D01*
X19710029Y9064400D01*
X19677831Y9077738D01*
X19638317Y9096427D01*
X19607625Y9112832D01*
X19570131Y9135305D01*
X19541169Y9154657D01*
X19506062Y9180694D01*
X19479145Y9202784D01*
X19446760Y9232136D01*
X19422136Y9256759D01*
X19392789Y9289137D01*
X19370682Y9316076D01*
X19344655Y9351171D01*
X19325311Y9380121D01*
X19302832Y9417625D01*
X19286427Y9448317D01*
X19267734Y9487837D01*
X19254407Y9520013D01*
X19239681Y9561170D01*
X19229572Y9594496D01*
X19218957Y9636872D01*
X19212157Y9671058D01*
X19205747Y9714266D01*
X19202333Y9748923D01*
X19200188Y9792591D01*
X19200188Y9827409D01*
X19202333Y9871077D01*
X19205748Y9905737D01*
X19206699Y9912150D01*
X19204589Y9951893D01*
X19187144Y9987666D01*
X19157128Y10013801D01*
X19119296Y10026159D01*
X19079640Y10022782D01*
X19062191Y10015650D01*
X19062169Y10015696D01*
X19061307Y10015289D01*
X19060648Y10015019D01*
X19059960Y10014651D01*
X19046635Y10008350D01*
X19032599Y10002536D01*
X19018751Y9997580D01*
X19004189Y9993163D01*
X18989917Y9989587D01*
X18974976Y9986616D01*
X18960430Y9984459D01*
X18945314Y9982970D01*
X18930618Y9982247D01*
X18915382Y9982247D01*
X18900686Y9982970D01*
X18885570Y9984459D01*
X18871024Y9986616D01*
X18856083Y9989587D01*
X18841811Y9993163D01*
X18827249Y9997580D01*
X18813401Y10002536D01*
X18799365Y10008350D01*
X18786037Y10014653D01*
X18772641Y10021813D01*
X18760001Y10029389D01*
X18747380Y10037823D01*
X18735539Y10046604D01*
X18723787Y10056248D01*
X18712891Y10066124D01*
X18702124Y10076891D01*
X18692248Y10087787D01*
X18682604Y10099539D01*
X18673823Y10111380D01*
X18665389Y10124001D01*
X18657813Y10136641D01*
X18650653Y10150037D01*
X18644350Y10163365D01*
X18638536Y10177401D01*
X18633580Y10191249D01*
X18629163Y10205811D01*
X18625587Y10220083D01*
X18622616Y10235024D01*
X18620459Y10249570D01*
X18618970Y10264686D01*
X18618247Y10279382D01*
X18618247Y10294618D01*
X18618970Y10309314D01*
X18620459Y10324430D01*
X18622616Y10338976D01*
X18625587Y10353917D01*
X18629163Y10368189D01*
X18633580Y10382751D01*
X18638536Y10396599D01*
X18644350Y10410635D01*
X18650653Y10423963D01*
X18657813Y10437359D01*
X18665389Y10449999D01*
X18673823Y10462620D01*
X18682604Y10474461D01*
X18692248Y10486213D01*
X18702124Y10497109D01*
X18712891Y10507876D01*
X18723787Y10517752D01*
X18735539Y10527396D01*
X18747380Y10536177D01*
X18760001Y10544611D01*
X18772641Y10552187D01*
X18786037Y10559347D01*
X18799365Y10565650D01*
X18813401Y10571464D01*
X18827249Y10576420D01*
X18841811Y10580837D01*
X18856083Y10584413D01*
X18871024Y10587384D01*
X18885570Y10589541D01*
X18900686Y10591030D01*
X18915382Y10591753D01*
X18930618Y10591753D01*
X18945314Y10591030D01*
X18960430Y10589541D01*
X18974976Y10587384D01*
X18989917Y10584413D01*
X19004189Y10580837D01*
X19018751Y10576420D01*
X19032599Y10571464D01*
X19046635Y10565650D01*
X19059963Y10559347D01*
X19073359Y10552187D01*
X19085999Y10544611D01*
X19098620Y10536177D01*
X19110461Y10527396D01*
X19122213Y10517752D01*
X19133109Y10507876D01*
X19143876Y10497109D01*
X19153752Y10486213D01*
X19163396Y10474461D01*
X19172177Y10462620D01*
X19180611Y10449999D01*
X19188187Y10437359D01*
X19195347Y10423963D01*
X19201650Y10410635D01*
X19207464Y10396599D01*
X19212420Y10382751D01*
X19216837Y10368190D01*
X19216877Y10368031D01*
X19216900Y10367983D01*
X19217551Y10365837D01*
X19217878Y10365936D01*
X19234041Y10332123D01*
X19263850Y10305753D01*
X19301584Y10293098D01*
X19341265Y10296162D01*
X19376609Y10314462D01*
X19391184Y10328905D01*
X19392800Y10330874D01*
X19422129Y10363233D01*
X19446772Y10387876D01*
X19479143Y10417215D01*
X19506064Y10439308D01*
X19541169Y10465343D01*
X19570131Y10484695D01*
X19607625Y10507168D01*
X19638317Y10523573D01*
X19677831Y10542262D01*
X19710029Y10555600D01*
X19751149Y10570313D01*
X19784508Y10580432D01*
X19826872Y10591043D01*
X19861053Y10597842D01*
X19904266Y10604253D01*
X19938923Y10607667D01*
X19982591Y10609812D01*
X20017409Y10609812D01*
X20061077Y10607667D01*
X20095734Y10604253D01*
X20138947Y10597842D01*
X20173128Y10591043D01*
X20215492Y10580432D01*
X20248851Y10570313D01*
X20289971Y10555600D01*
X20322169Y10542262D01*
X20361683Y10523573D01*
X20392375Y10507168D01*
X20429879Y10484689D01*
X20458829Y10465345D01*
X20493924Y10439318D01*
X20520868Y10417206D01*
X20553234Y10387870D01*
X20577870Y10363234D01*
X20607206Y10330868D01*
X20629318Y10303924D01*
X20655345Y10268829D01*
X20674689Y10239879D01*
X20697168Y10202375D01*
X20713573Y10171683D01*
X20732262Y10132169D01*
X20745600Y10099971D01*
X20760313Y10058851D01*
X20770432Y10025492D01*
X20781043Y9983128D01*
X20787842Y9948947D01*
X20794253Y9905734D01*
X20797667Y9871077D01*
X20799812Y9827409D01*
X20799812Y9792591D01*
X20797667Y9748923D01*
X20794253Y9714266D01*
X20787843Y9671058D01*
X20781043Y9636872D01*
X20770428Y9594496D01*
X20760319Y9561170D01*
X20745593Y9520013D01*
X20732266Y9487837D01*
X20713573Y9448317D01*
X20697168Y9417625D01*
X20674689Y9380121D01*
X20655345Y9351171D01*
X20629318Y9316076D01*
X20607206Y9289132D01*
X20577870Y9256766D01*
X20553234Y9232130D01*
X20520868Y9202794D01*
X20493924Y9180682D01*
X20458829Y9154655D01*
X20429879Y9135311D01*
X20392375Y9112832D01*
X20361683Y9096427D01*
X20322169Y9077738D01*
X20289971Y9064400D01*
X20248851Y9049687D01*
X20215492Y9039568D01*
X20173128Y9028957D01*
X20138947Y9022158D01*
X20095734Y9015747D01*
X20061077Y9012333D01*
X20017409Y9010188D01*
D02*
G37*
%LPC*%
G36*
X25437618Y7524247D02*
X25422382Y7524247D01*
X25407686Y7524970D01*
X25392570Y7526459D01*
X25378024Y7528616D01*
X25363083Y7531587D01*
X25348811Y7535163D01*
X25334249Y7539580D01*
X25320401Y7544536D01*
X25306365Y7550350D01*
X25293037Y7556653D01*
X25279641Y7563813D01*
X25267001Y7571389D01*
X25254380Y7579823D01*
X25242539Y7588604D01*
X25230787Y7598248D01*
X25219891Y7608124D01*
X25209124Y7618891D01*
X25199248Y7629787D01*
X25189604Y7641539D01*
X25180823Y7653380D01*
X25172389Y7666001D01*
X25164813Y7678641D01*
X25157653Y7692037D01*
X25151350Y7705365D01*
X25145536Y7719401D01*
X25140580Y7733249D01*
X25136163Y7747811D01*
X25132587Y7762083D01*
X25129616Y7777024D01*
X25127459Y7791570D01*
X25125970Y7806686D01*
X25125247Y7821382D01*
X25125247Y7836618D01*
X25125970Y7851314D01*
X25127459Y7866430D01*
X25129616Y7880976D01*
X25132587Y7895917D01*
X25136163Y7910189D01*
X25140580Y7924751D01*
X25145536Y7938599D01*
X25151350Y7952635D01*
X25157653Y7965963D01*
X25164813Y7979359D01*
X25172389Y7991999D01*
X25180823Y8004620D01*
X25189604Y8016461D01*
X25199248Y8028213D01*
X25209124Y8039109D01*
X25219891Y8049876D01*
X25230787Y8059752D01*
X25242539Y8069396D01*
X25254380Y8078177D01*
X25267001Y8086611D01*
X25279641Y8094187D01*
X25293037Y8101347D01*
X25306365Y8107650D01*
X25320401Y8113464D01*
X25334249Y8118420D01*
X25348811Y8122837D01*
X25363083Y8126413D01*
X25378024Y8129384D01*
X25392570Y8131541D01*
X25407686Y8133030D01*
X25422382Y8133753D01*
X25437618Y8133753D01*
X25452314Y8133030D01*
X25467430Y8131541D01*
X25481976Y8129384D01*
X25496917Y8126413D01*
X25511189Y8122837D01*
X25525751Y8118420D01*
X25539599Y8113464D01*
X25553635Y8107650D01*
X25566963Y8101347D01*
X25580359Y8094187D01*
X25592999Y8086611D01*
X25605620Y8078177D01*
X25617461Y8069396D01*
X25629213Y8059752D01*
X25640109Y8049876D01*
X25650876Y8039109D01*
X25660752Y8028213D01*
X25670396Y8016461D01*
X25679177Y8004620D01*
X25687611Y7991999D01*
X25695187Y7979359D01*
X25702347Y7965963D01*
X25708650Y7952635D01*
X25714464Y7938599D01*
X25719420Y7924751D01*
X25723837Y7910189D01*
X25727413Y7895917D01*
X25730384Y7880976D01*
X25732541Y7866430D01*
X25734030Y7851314D01*
X25734753Y7836618D01*
X25734753Y7821382D01*
X25734030Y7806686D01*
X25732541Y7791570D01*
X25730384Y7777024D01*
X25727413Y7762083D01*
X25723837Y7747811D01*
X25719420Y7733249D01*
X25714464Y7719401D01*
X25708650Y7705365D01*
X25702347Y7692037D01*
X25695187Y7678641D01*
X25687611Y7666001D01*
X25679177Y7653380D01*
X25670396Y7641539D01*
X25660752Y7629787D01*
X25650876Y7618891D01*
X25640109Y7608124D01*
X25629213Y7598248D01*
X25617461Y7588604D01*
X25605620Y7579823D01*
X25592999Y7571389D01*
X25580359Y7563813D01*
X25566963Y7556653D01*
X25553635Y7550350D01*
X25539599Y7544536D01*
X25525751Y7539580D01*
X25511189Y7535163D01*
X25496917Y7531587D01*
X25481976Y7528616D01*
X25467430Y7526459D01*
X25452314Y7524970D01*
X25437618Y7524247D01*
D02*
G37*
%LPC*%
G36*
X21597618Y6553247D02*
X21582382Y6553247D01*
X21567686Y6553970D01*
X21552570Y6555459D01*
X21538024Y6557616D01*
X21523083Y6560587D01*
X21508811Y6564163D01*
X21494249Y6568580D01*
X21480401Y6573536D01*
X21466365Y6579350D01*
X21453037Y6585653D01*
X21439641Y6592813D01*
X21427001Y6600389D01*
X21414380Y6608823D01*
X21402539Y6617604D01*
X21390787Y6627248D01*
X21379891Y6637124D01*
X21369124Y6647891D01*
X21359248Y6658787D01*
X21349604Y6670539D01*
X21340823Y6682380D01*
X21332389Y6695001D01*
X21324813Y6707641D01*
X21317653Y6721037D01*
X21311350Y6734365D01*
X21305536Y6748401D01*
X21300580Y6762249D01*
X21296163Y6776811D01*
X21292587Y6791083D01*
X21289616Y6806024D01*
X21287459Y6820570D01*
X21285970Y6835686D01*
X21285247Y6850382D01*
X21285247Y6865618D01*
X21285970Y6880314D01*
X21287459Y6895430D01*
X21289616Y6909976D01*
X21292587Y6924917D01*
X21296163Y6939189D01*
X21300580Y6953751D01*
X21305536Y6967599D01*
X21311350Y6981635D01*
X21317653Y6994963D01*
X21324813Y7008359D01*
X21332389Y7020999D01*
X21340823Y7033620D01*
X21349604Y7045461D01*
X21359248Y7057213D01*
X21369124Y7068109D01*
X21379891Y7078876D01*
X21390787Y7088752D01*
X21402539Y7098396D01*
X21414380Y7107177D01*
X21427001Y7115611D01*
X21439641Y7123187D01*
X21453037Y7130347D01*
X21466365Y7136650D01*
X21480401Y7142464D01*
X21494249Y7147420D01*
X21508811Y7151837D01*
X21523083Y7155413D01*
X21538024Y7158384D01*
X21552570Y7160541D01*
X21567686Y7162030D01*
X21582382Y7162753D01*
X21597618Y7162753D01*
X21612314Y7162030D01*
X21627430Y7160541D01*
X21641976Y7158384D01*
X21656917Y7155413D01*
X21671189Y7151837D01*
X21685751Y7147420D01*
X21699599Y7142464D01*
X21713635Y7136650D01*
X21726963Y7130347D01*
X21740359Y7123187D01*
X21752999Y7115611D01*
X21765620Y7107177D01*
X21777461Y7098396D01*
X21789213Y7088752D01*
X21800109Y7078876D01*
X21810876Y7068109D01*
X21820752Y7057213D01*
X21830396Y7045461D01*
X21839177Y7033620D01*
X21847611Y7020999D01*
X21855187Y7008359D01*
X21862347Y6994963D01*
X21868650Y6981635D01*
X21874464Y6967599D01*
X21879420Y6953751D01*
X21883837Y6939189D01*
X21887413Y6924917D01*
X21890384Y6909976D01*
X21892541Y6895430D01*
X21894030Y6880314D01*
X21894753Y6865618D01*
X21894753Y6850382D01*
X21894030Y6835686D01*
X21892541Y6820570D01*
X21890384Y6806024D01*
X21887413Y6791083D01*
X21883837Y6776811D01*
X21879420Y6762249D01*
X21874464Y6748401D01*
X21868650Y6734365D01*
X21862347Y6721037D01*
X21855187Y6707641D01*
X21847611Y6695001D01*
X21839177Y6682380D01*
X21830396Y6670539D01*
X21820752Y6658787D01*
X21810876Y6647891D01*
X21800109Y6637124D01*
X21789213Y6627248D01*
X21777461Y6617604D01*
X21765620Y6608823D01*
X21752999Y6600389D01*
X21740359Y6592813D01*
X21726963Y6585653D01*
X21713635Y6579350D01*
X21699599Y6573536D01*
X21685751Y6568580D01*
X21671189Y6564163D01*
X21656917Y6560587D01*
X21641976Y6557616D01*
X21627430Y6555459D01*
X21612314Y6553970D01*
X21597618Y6553247D01*
D02*
G37*
%LPC*%
G36*
X25437618Y6508247D02*
X25422382Y6508247D01*
X25407686Y6508970D01*
X25392570Y6510459D01*
X25378024Y6512616D01*
X25363083Y6515587D01*
X25348811Y6519163D01*
X25334249Y6523580D01*
X25320401Y6528536D01*
X25306365Y6534350D01*
X25293037Y6540653D01*
X25279641Y6547813D01*
X25267001Y6555389D01*
X25254380Y6563823D01*
X25242546Y6572599D01*
X25230787Y6582248D01*
X25219891Y6592124D01*
X25209124Y6602891D01*
X25199248Y6613787D01*
X25189604Y6625539D01*
X25180823Y6637380D01*
X25172389Y6650001D01*
X25164813Y6662641D01*
X25157653Y6676037D01*
X25151350Y6689365D01*
X25145536Y6703401D01*
X25140580Y6717249D01*
X25136163Y6731811D01*
X25132587Y6746083D01*
X25129616Y6761024D01*
X25127459Y6775570D01*
X25125970Y6790686D01*
X25125247Y6805382D01*
X25125247Y6820618D01*
X25125970Y6835314D01*
X25127459Y6850430D01*
X25129616Y6864976D01*
X25132587Y6879917D01*
X25136163Y6894189D01*
X25140580Y6908751D01*
X25145536Y6922599D01*
X25151350Y6936635D01*
X25157653Y6949963D01*
X25164813Y6963359D01*
X25172389Y6975999D01*
X25180823Y6988620D01*
X25189604Y7000461D01*
X25199248Y7012213D01*
X25209124Y7023109D01*
X25219891Y7033876D01*
X25230787Y7043752D01*
X25242539Y7053396D01*
X25254380Y7062177D01*
X25267001Y7070611D01*
X25279641Y7078187D01*
X25293037Y7085347D01*
X25306365Y7091650D01*
X25320401Y7097464D01*
X25334249Y7102420D01*
X25348811Y7106837D01*
X25363083Y7110413D01*
X25378024Y7113384D01*
X25392570Y7115541D01*
X25407686Y7117030D01*
X25422382Y7117753D01*
X25437618Y7117753D01*
X25452314Y7117030D01*
X25467430Y7115541D01*
X25481976Y7113384D01*
X25496917Y7110413D01*
X25511189Y7106837D01*
X25525751Y7102420D01*
X25539599Y7097464D01*
X25553635Y7091650D01*
X25566963Y7085347D01*
X25580359Y7078187D01*
X25592999Y7070611D01*
X25605620Y7062177D01*
X25617461Y7053396D01*
X25629213Y7043752D01*
X25640109Y7033876D01*
X25650876Y7023109D01*
X25660752Y7012213D01*
X25670396Y7000461D01*
X25679177Y6988620D01*
X25687611Y6975999D01*
X25695187Y6963359D01*
X25702347Y6949963D01*
X25708650Y6936635D01*
X25714464Y6922599D01*
X25719420Y6908751D01*
X25723837Y6894189D01*
X25727413Y6879917D01*
X25730384Y6864976D01*
X25732541Y6850430D01*
X25734030Y6835314D01*
X25734753Y6820618D01*
X25734753Y6805382D01*
X25734030Y6790686D01*
X25732541Y6775570D01*
X25730384Y6761024D01*
X25727413Y6746083D01*
X25723837Y6731811D01*
X25719420Y6717249D01*
X25714464Y6703401D01*
X25708650Y6689365D01*
X25702347Y6676037D01*
X25695187Y6662641D01*
X25687611Y6650001D01*
X25679177Y6637380D01*
X25670396Y6625539D01*
X25660752Y6613787D01*
X25650876Y6602891D01*
X25640109Y6592124D01*
X25629213Y6582248D01*
X25617454Y6572599D01*
X25605620Y6563823D01*
X25592999Y6555389D01*
X25580359Y6547813D01*
X25566963Y6540653D01*
X25553635Y6534350D01*
X25539599Y6528536D01*
X25525751Y6523580D01*
X25511189Y6519163D01*
X25496917Y6515587D01*
X25481976Y6512616D01*
X25467430Y6510459D01*
X25452314Y6508970D01*
X25437618Y6508247D01*
D02*
G37*
%LPC*%
G36*
X33017409Y3195488D02*
X32982591Y3195488D01*
X32840442Y3202471D01*
X32805811Y3205883D01*
X32665038Y3226765D01*
X32630864Y3233562D01*
X32492857Y3268131D01*
X32459496Y3278251D01*
X32325550Y3326178D01*
X32293346Y3339517D01*
X32164724Y3400351D01*
X32133991Y3416778D01*
X32011961Y3489919D01*
X31982979Y3509285D01*
X31868688Y3594050D01*
X31841769Y3616140D01*
X31736341Y3711694D01*
X31711694Y3736341D01*
X31616140Y3841769D01*
X31594050Y3868688D01*
X31509279Y3982988D01*
X31489926Y4011951D01*
X31416774Y4133998D01*
X31400355Y4164715D01*
X31339512Y4293357D01*
X31326181Y4325540D01*
X31278249Y4459501D01*
X31268133Y4492849D01*
X31233559Y4630875D01*
X31226764Y4665033D01*
X31205884Y4805794D01*
X31202471Y4840458D01*
X31195488Y4982591D01*
X31195488Y5017409D01*
X31202471Y5159542D01*
X31205884Y5194206D01*
X31226764Y5334967D01*
X31233559Y5369125D01*
X31268133Y5507151D01*
X31278249Y5540499D01*
X31326181Y5674460D01*
X31339512Y5706643D01*
X31400355Y5835285D01*
X31416774Y5866002D01*
X31489926Y5988049D01*
X31509279Y6017012D01*
X31594050Y6131312D01*
X31616140Y6158231D01*
X31711694Y6263659D01*
X31736341Y6288306D01*
X31841767Y6383858D01*
X31868688Y6405951D01*
X31982989Y6490722D01*
X32011950Y6510073D01*
X32133998Y6583226D01*
X32164715Y6599645D01*
X32293350Y6660485D01*
X32325532Y6673815D01*
X32459526Y6721759D01*
X32492846Y6731866D01*
X32630864Y6766438D01*
X32665038Y6773235D01*
X32805811Y6794117D01*
X32840442Y6797529D01*
X32982591Y6804512D01*
X33017409Y6804512D01*
X33159558Y6797529D01*
X33194189Y6794117D01*
X33334962Y6773235D01*
X33369136Y6766438D01*
X33507154Y6731866D01*
X33540474Y6721759D01*
X33674468Y6673815D01*
X33706650Y6660485D01*
X33835285Y6599645D01*
X33866002Y6583226D01*
X33988050Y6510073D01*
X34017011Y6490722D01*
X34131312Y6405951D01*
X34158233Y6383858D01*
X34263659Y6288306D01*
X34288306Y6263659D01*
X34383860Y6158231D01*
X34405950Y6131312D01*
X34490725Y6017007D01*
X34510071Y5988055D01*
X34583227Y5866002D01*
X34599647Y5835283D01*
X34660488Y5706646D01*
X34673820Y5674457D01*
X34721751Y5540499D01*
X34731867Y5507151D01*
X34766441Y5369125D01*
X34773236Y5334967D01*
X34794116Y5194206D01*
X34797529Y5159542D01*
X34804512Y5017409D01*
X34804512Y4982591D01*
X34797529Y4840442D01*
X34794117Y4805811D01*
X34773235Y4665038D01*
X34766438Y4630864D01*
X34731869Y4492857D01*
X34721749Y4459496D01*
X34673819Y4325540D01*
X34660488Y4293357D01*
X34599645Y4164715D01*
X34583226Y4133998D01*
X34510074Y4011951D01*
X34490721Y3982988D01*
X34405950Y3868688D01*
X34383860Y3841769D01*
X34288306Y3736341D01*
X34263659Y3711694D01*
X34158231Y3616140D01*
X34131312Y3594050D01*
X34017012Y3509279D01*
X33988049Y3489926D01*
X33866002Y3416774D01*
X33835285Y3400355D01*
X33706650Y3339515D01*
X33674468Y3326185D01*
X33540474Y3278241D01*
X33507154Y3268134D01*
X33369136Y3233562D01*
X33334962Y3226765D01*
X33194189Y3205883D01*
X33159558Y3202471D01*
X33017409Y3195488D01*
D02*
G37*
%LPC*%
G36*
X7017409Y3195488D02*
X6982591Y3195488D01*
X6840442Y3202471D01*
X6805811Y3205883D01*
X6665038Y3226765D01*
X6630864Y3233562D01*
X6492857Y3268131D01*
X6459496Y3278251D01*
X6325550Y3326178D01*
X6293346Y3339517D01*
X6164724Y3400351D01*
X6133991Y3416778D01*
X6011961Y3489919D01*
X5982979Y3509285D01*
X5868688Y3594050D01*
X5841769Y3616140D01*
X5736341Y3711694D01*
X5711694Y3736341D01*
X5616140Y3841769D01*
X5594050Y3868688D01*
X5509279Y3982988D01*
X5489926Y4011951D01*
X5416774Y4133998D01*
X5400355Y4164715D01*
X5339512Y4293357D01*
X5326181Y4325540D01*
X5278249Y4459501D01*
X5268133Y4492849D01*
X5233559Y4630875D01*
X5226764Y4665033D01*
X5205884Y4805794D01*
X5202471Y4840458D01*
X5195488Y4982591D01*
X5195488Y5017409D01*
X5202471Y5159542D01*
X5205884Y5194206D01*
X5226764Y5334967D01*
X5233559Y5369125D01*
X5268133Y5507151D01*
X5278249Y5540499D01*
X5326181Y5674460D01*
X5339512Y5706643D01*
X5400355Y5835285D01*
X5416774Y5866002D01*
X5489926Y5988049D01*
X5509279Y6017012D01*
X5594050Y6131312D01*
X5616140Y6158231D01*
X5711694Y6263659D01*
X5736341Y6288306D01*
X5841767Y6383858D01*
X5868688Y6405951D01*
X5982989Y6490722D01*
X6011950Y6510073D01*
X6133998Y6583226D01*
X6164715Y6599645D01*
X6293350Y6660485D01*
X6325532Y6673815D01*
X6459526Y6721759D01*
X6492846Y6731866D01*
X6630864Y6766438D01*
X6665038Y6773235D01*
X6805811Y6794117D01*
X6840442Y6797529D01*
X6982591Y6804512D01*
X7017409Y6804512D01*
X7159558Y6797529D01*
X7194189Y6794117D01*
X7334962Y6773235D01*
X7369136Y6766438D01*
X7507154Y6731866D01*
X7540474Y6721759D01*
X7674468Y6673815D01*
X7706650Y6660485D01*
X7835285Y6599645D01*
X7866002Y6583226D01*
X7988050Y6510073D01*
X8017011Y6490722D01*
X8131312Y6405951D01*
X8158233Y6383858D01*
X8263659Y6288306D01*
X8288306Y6263659D01*
X8383860Y6158231D01*
X8405950Y6131312D01*
X8490725Y6017007D01*
X8510071Y5988055D01*
X8583227Y5866002D01*
X8599647Y5835283D01*
X8660488Y5706646D01*
X8673820Y5674457D01*
X8721751Y5540499D01*
X8731867Y5507151D01*
X8766441Y5369125D01*
X8773236Y5334967D01*
X8794116Y5194206D01*
X8797529Y5159542D01*
X8804512Y5017409D01*
X8804512Y4982591D01*
X8797529Y4840442D01*
X8794117Y4805811D01*
X8773235Y4665038D01*
X8766438Y4630864D01*
X8731869Y4492857D01*
X8721749Y4459496D01*
X8673819Y4325540D01*
X8660488Y4293357D01*
X8599645Y4164715D01*
X8583226Y4133998D01*
X8510074Y4011951D01*
X8490721Y3982988D01*
X8405950Y3868688D01*
X8383860Y3841769D01*
X8288306Y3736341D01*
X8263659Y3711694D01*
X8158231Y3616140D01*
X8131312Y3594050D01*
X8017012Y3509279D01*
X7988049Y3489926D01*
X7866002Y3416774D01*
X7835285Y3400355D01*
X7706650Y3339515D01*
X7674468Y3326185D01*
X7540474Y3278241D01*
X7507154Y3268134D01*
X7369136Y3233562D01*
X7334962Y3226765D01*
X7194189Y3205883D01*
X7159558Y3202471D01*
X7017409Y3195488D01*
D02*
G37*
%LPC*%
G36*
X23507618Y4895247D02*
X23492382Y4895247D01*
X23477686Y4895970D01*
X23462570Y4897459D01*
X23448024Y4899616D01*
X23433083Y4902587D01*
X23418811Y4906163D01*
X23404249Y4910580D01*
X23390401Y4915536D01*
X23376365Y4921350D01*
X23363037Y4927653D01*
X23349641Y4934813D01*
X23337001Y4942389D01*
X23324380Y4950823D01*
X23312539Y4959604D01*
X23300787Y4969248D01*
X23289891Y4979124D01*
X23279124Y4989891D01*
X23269248Y5000787D01*
X23259604Y5012539D01*
X23250823Y5024380D01*
X23242389Y5037001D01*
X23234813Y5049641D01*
X23227653Y5063037D01*
X23221350Y5076365D01*
X23215536Y5090401D01*
X23210580Y5104249D01*
X23206163Y5118811D01*
X23202587Y5133083D01*
X23199616Y5148024D01*
X23197459Y5162570D01*
X23195970Y5177686D01*
X23195247Y5192382D01*
X23195247Y5207618D01*
X23195970Y5222314D01*
X23197459Y5237430D01*
X23199616Y5251976D01*
X23202587Y5266917D01*
X23206163Y5281189D01*
X23210580Y5295751D01*
X23215536Y5309599D01*
X23221350Y5323635D01*
X23227653Y5336963D01*
X23234813Y5350359D01*
X23242389Y5362999D01*
X23250823Y5375620D01*
X23259604Y5387461D01*
X23269248Y5399213D01*
X23279124Y5410109D01*
X23289891Y5420876D01*
X23300787Y5430752D01*
X23312539Y5440396D01*
X23324380Y5449177D01*
X23337001Y5457611D01*
X23349641Y5465187D01*
X23363037Y5472347D01*
X23376365Y5478650D01*
X23390401Y5484464D01*
X23404249Y5489420D01*
X23418811Y5493837D01*
X23433083Y5497413D01*
X23448024Y5500384D01*
X23462570Y5502541D01*
X23477686Y5504030D01*
X23492382Y5504753D01*
X23507618Y5504753D01*
X23522314Y5504030D01*
X23537430Y5502541D01*
X23551976Y5500384D01*
X23566917Y5497413D01*
X23581189Y5493837D01*
X23595751Y5489420D01*
X23609599Y5484464D01*
X23623635Y5478650D01*
X23636963Y5472347D01*
X23650359Y5465187D01*
X23662999Y5457611D01*
X23675620Y5449177D01*
X23687461Y5440396D01*
X23699213Y5430752D01*
X23710109Y5420876D01*
X23720876Y5410109D01*
X23730752Y5399213D01*
X23740396Y5387461D01*
X23749177Y5375620D01*
X23757611Y5362999D01*
X23765187Y5350359D01*
X23772347Y5336963D01*
X23778650Y5323635D01*
X23784464Y5309599D01*
X23789420Y5295751D01*
X23793837Y5281189D01*
X23797413Y5266917D01*
X23800384Y5251976D01*
X23802541Y5237430D01*
X23804030Y5222314D01*
X23804753Y5207618D01*
X23804753Y5192382D01*
X23804030Y5177686D01*
X23802541Y5162570D01*
X23800384Y5148024D01*
X23797413Y5133083D01*
X23793837Y5118811D01*
X23789420Y5104249D01*
X23784464Y5090401D01*
X23778650Y5076365D01*
X23772347Y5063037D01*
X23765187Y5049641D01*
X23757611Y5037001D01*
X23749177Y5024380D01*
X23740396Y5012539D01*
X23730752Y5000787D01*
X23720876Y4989891D01*
X23710109Y4979124D01*
X23699213Y4969248D01*
X23687461Y4959604D01*
X23675620Y4950823D01*
X23662999Y4942389D01*
X23650359Y4934813D01*
X23636963Y4927653D01*
X23623635Y4921350D01*
X23609599Y4915536D01*
X23595751Y4910580D01*
X23581189Y4906163D01*
X23566917Y4902587D01*
X23551976Y4899616D01*
X23537430Y4897459D01*
X23522314Y4895970D01*
X23507618Y4895247D01*
D02*
G37*
%LPC*%
G36*
X11807618Y3895247D02*
X11792382Y3895247D01*
X11777686Y3895970D01*
X11762570Y3897459D01*
X11748024Y3899616D01*
X11733083Y3902587D01*
X11718811Y3906163D01*
X11704249Y3910580D01*
X11690401Y3915536D01*
X11676365Y3921350D01*
X11663037Y3927653D01*
X11649641Y3934813D01*
X11637001Y3942389D01*
X11624380Y3950823D01*
X11612539Y3959604D01*
X11600787Y3969248D01*
X11589891Y3979124D01*
X11579124Y3989891D01*
X11569248Y4000787D01*
X11559604Y4012539D01*
X11550823Y4024380D01*
X11542389Y4037001D01*
X11534813Y4049641D01*
X11527653Y4063037D01*
X11521350Y4076365D01*
X11515536Y4090401D01*
X11510580Y4104249D01*
X11506163Y4118811D01*
X11502587Y4133083D01*
X11499616Y4148024D01*
X11497459Y4162570D01*
X11495970Y4177686D01*
X11495247Y4192382D01*
X11495247Y4207618D01*
X11495970Y4222314D01*
X11497459Y4237430D01*
X11499616Y4251976D01*
X11502587Y4266917D01*
X11506163Y4281189D01*
X11510580Y4295751D01*
X11515536Y4309599D01*
X11521350Y4323635D01*
X11527653Y4336963D01*
X11534813Y4350359D01*
X11542389Y4362999D01*
X11550823Y4375620D01*
X11559604Y4387461D01*
X11569248Y4399213D01*
X11579124Y4410109D01*
X11589891Y4420876D01*
X11600787Y4430752D01*
X11612539Y4440396D01*
X11624380Y4449177D01*
X11637001Y4457611D01*
X11649641Y4465187D01*
X11663037Y4472347D01*
X11676365Y4478650D01*
X11690401Y4484464D01*
X11704249Y4489420D01*
X11718811Y4493837D01*
X11733083Y4497413D01*
X11748024Y4500384D01*
X11762570Y4502541D01*
X11777686Y4504030D01*
X11792382Y4504753D01*
X11807618Y4504753D01*
X11822314Y4504030D01*
X11837430Y4502541D01*
X11851976Y4500384D01*
X11866917Y4497413D01*
X11881189Y4493837D01*
X11895751Y4489420D01*
X11909599Y4484464D01*
X11923635Y4478650D01*
X11936963Y4472347D01*
X11950359Y4465187D01*
X11962999Y4457611D01*
X11975620Y4449177D01*
X11987461Y4440396D01*
X11999213Y4430752D01*
X12010109Y4420876D01*
X12020876Y4410109D01*
X12030752Y4399213D01*
X12040396Y4387461D01*
X12049177Y4375620D01*
X12057611Y4362999D01*
X12065187Y4350359D01*
X12072347Y4336963D01*
X12078650Y4323635D01*
X12084464Y4309599D01*
X12089420Y4295751D01*
X12093837Y4281189D01*
X12097413Y4266917D01*
X12100384Y4251976D01*
X12102541Y4237430D01*
X12104030Y4222314D01*
X12104753Y4207618D01*
X12104753Y4192382D01*
X12104030Y4177686D01*
X12102541Y4162570D01*
X12100384Y4148024D01*
X12097413Y4133083D01*
X12093837Y4118811D01*
X12089420Y4104249D01*
X12084464Y4090401D01*
X12078650Y4076365D01*
X12072347Y4063037D01*
X12065187Y4049641D01*
X12057611Y4037001D01*
X12049177Y4024380D01*
X12040396Y4012539D01*
X12030752Y4000787D01*
X12020876Y3989891D01*
X12010109Y3979124D01*
X11999213Y3969248D01*
X11987461Y3959604D01*
X11975620Y3950823D01*
X11962999Y3942389D01*
X11950359Y3934813D01*
X11936963Y3927653D01*
X11923635Y3921350D01*
X11909599Y3915536D01*
X11895751Y3910580D01*
X11881189Y3906163D01*
X11866917Y3902587D01*
X11851976Y3899616D01*
X11837430Y3897459D01*
X11822314Y3895970D01*
X11807618Y3895247D01*
D02*
G37*
%LPC*%
G36*
X28307618Y2795247D02*
X28292382Y2795247D01*
X28277686Y2795970D01*
X28262570Y2797459D01*
X28248024Y2799616D01*
X28233083Y2802587D01*
X28218811Y2806163D01*
X28204249Y2810580D01*
X28190401Y2815536D01*
X28176365Y2821350D01*
X28163037Y2827653D01*
X28149641Y2834813D01*
X28137001Y2842389D01*
X28124380Y2850823D01*
X28112539Y2859604D01*
X28100787Y2869248D01*
X28089891Y2879124D01*
X28079124Y2889891D01*
X28069248Y2900787D01*
X28059604Y2912539D01*
X28050823Y2924380D01*
X28042389Y2937001D01*
X28034813Y2949641D01*
X28027653Y2963037D01*
X28021350Y2976365D01*
X28015536Y2990401D01*
X28010580Y3004249D01*
X28006163Y3018811D01*
X28002587Y3033083D01*
X27999616Y3048024D01*
X27997459Y3062570D01*
X27995970Y3077686D01*
X27995247Y3092382D01*
X27995247Y3107618D01*
X27995970Y3122314D01*
X27997459Y3137430D01*
X27999616Y3151976D01*
X28002587Y3166917D01*
X28006163Y3181189D01*
X28010580Y3195751D01*
X28015536Y3209599D01*
X28021350Y3223635D01*
X28027653Y3236963D01*
X28034813Y3250359D01*
X28042389Y3262999D01*
X28050823Y3275620D01*
X28059604Y3287461D01*
X28069248Y3299213D01*
X28079124Y3310109D01*
X28089891Y3320876D01*
X28100787Y3330752D01*
X28112539Y3340396D01*
X28124380Y3349177D01*
X28137001Y3357611D01*
X28149641Y3365187D01*
X28163037Y3372347D01*
X28176365Y3378650D01*
X28190401Y3384464D01*
X28204249Y3389420D01*
X28218811Y3393837D01*
X28233083Y3397413D01*
X28248024Y3400384D01*
X28262570Y3402541D01*
X28277686Y3404030D01*
X28292382Y3404753D01*
X28307618Y3404753D01*
X28322314Y3404030D01*
X28337430Y3402541D01*
X28351976Y3400384D01*
X28366917Y3397413D01*
X28381189Y3393837D01*
X28395751Y3389420D01*
X28409599Y3384464D01*
X28423635Y3378650D01*
X28436963Y3372347D01*
X28450359Y3365187D01*
X28462999Y3357611D01*
X28475620Y3349177D01*
X28487461Y3340396D01*
X28499213Y3330752D01*
X28510109Y3320876D01*
X28520876Y3310109D01*
X28530752Y3299213D01*
X28540396Y3287461D01*
X28549177Y3275620D01*
X28557611Y3262999D01*
X28565187Y3250359D01*
X28572347Y3236963D01*
X28578650Y3223635D01*
X28584464Y3209599D01*
X28589420Y3195751D01*
X28593837Y3181189D01*
X28597413Y3166917D01*
X28600384Y3151976D01*
X28602541Y3137430D01*
X28604030Y3122314D01*
X28604753Y3107618D01*
X28604753Y3092382D01*
X28604030Y3077686D01*
X28602541Y3062570D01*
X28600384Y3048024D01*
X28597413Y3033083D01*
X28593837Y3018811D01*
X28589420Y3004249D01*
X28584464Y2990401D01*
X28578650Y2976365D01*
X28572347Y2963037D01*
X28565187Y2949641D01*
X28557611Y2937001D01*
X28549177Y2924380D01*
X28540396Y2912539D01*
X28530752Y2900787D01*
X28520876Y2889891D01*
X28510109Y2879124D01*
X28499213Y2869248D01*
X28487461Y2859604D01*
X28475620Y2850823D01*
X28462999Y2842389D01*
X28450359Y2834813D01*
X28436963Y2827653D01*
X28423635Y2821350D01*
X28409599Y2815536D01*
X28395751Y2810580D01*
X28381189Y2806163D01*
X28366917Y2802587D01*
X28351976Y2799616D01*
X28337430Y2797459D01*
X28322314Y2795970D01*
X28307618Y2795247D01*
D02*
G37*
%LPC*%
G36*
X17707618Y2595247D02*
X17692382Y2595247D01*
X17677686Y2595970D01*
X17662570Y2597459D01*
X17648024Y2599616D01*
X17633083Y2602587D01*
X17618811Y2606163D01*
X17604249Y2610580D01*
X17590401Y2615536D01*
X17576365Y2621350D01*
X17563037Y2627653D01*
X17549641Y2634813D01*
X17537001Y2642389D01*
X17524380Y2650823D01*
X17512539Y2659604D01*
X17500787Y2669248D01*
X17489891Y2679124D01*
X17479124Y2689891D01*
X17469248Y2700787D01*
X17459604Y2712539D01*
X17450823Y2724380D01*
X17442389Y2737001D01*
X17434813Y2749641D01*
X17427653Y2763037D01*
X17421350Y2776365D01*
X17415536Y2790401D01*
X17410580Y2804249D01*
X17406163Y2818811D01*
X17402587Y2833083D01*
X17399616Y2848024D01*
X17397459Y2862570D01*
X17395970Y2877686D01*
X17395247Y2892382D01*
X17395247Y2907618D01*
X17395970Y2922314D01*
X17397459Y2937430D01*
X17399616Y2951976D01*
X17402587Y2966917D01*
X17406163Y2981189D01*
X17410580Y2995751D01*
X17415536Y3009599D01*
X17421350Y3023635D01*
X17427653Y3036963D01*
X17434813Y3050359D01*
X17442389Y3062999D01*
X17450823Y3075620D01*
X17459604Y3087461D01*
X17469248Y3099213D01*
X17479124Y3110109D01*
X17489891Y3120876D01*
X17500787Y3130752D01*
X17512539Y3140396D01*
X17524380Y3149177D01*
X17537001Y3157611D01*
X17549641Y3165187D01*
X17563037Y3172347D01*
X17576365Y3178650D01*
X17590401Y3184464D01*
X17604249Y3189420D01*
X17618811Y3193837D01*
X17633083Y3197413D01*
X17648024Y3200384D01*
X17662570Y3202541D01*
X17677686Y3204030D01*
X17692382Y3204753D01*
X17707618Y3204753D01*
X17722314Y3204030D01*
X17737430Y3202541D01*
X17751976Y3200384D01*
X17766917Y3197413D01*
X17781189Y3193837D01*
X17795751Y3189420D01*
X17809599Y3184464D01*
X17823635Y3178650D01*
X17836963Y3172347D01*
X17850359Y3165187D01*
X17862999Y3157611D01*
X17875620Y3149177D01*
X17887461Y3140396D01*
X17899213Y3130752D01*
X17910109Y3120876D01*
X17920876Y3110109D01*
X17930752Y3099213D01*
X17940396Y3087461D01*
X17949177Y3075620D01*
X17957611Y3062999D01*
X17965187Y3050359D01*
X17972347Y3036963D01*
X17978650Y3023635D01*
X17984464Y3009599D01*
X17989420Y2995751D01*
X17993837Y2981189D01*
X17997413Y2966917D01*
X18000384Y2951976D01*
X18002541Y2937430D01*
X18004030Y2922314D01*
X18004753Y2907618D01*
X18004753Y2892382D01*
X18004030Y2877686D01*
X18002541Y2862570D01*
X18000384Y2848024D01*
X17997413Y2833083D01*
X17993837Y2818811D01*
X17989420Y2804249D01*
X17984464Y2790401D01*
X17978650Y2776365D01*
X17972347Y2763037D01*
X17965187Y2749641D01*
X17957611Y2737001D01*
X17949177Y2724380D01*
X17940396Y2712539D01*
X17930752Y2700787D01*
X17920876Y2689891D01*
X17910109Y2679124D01*
X17899213Y2669248D01*
X17887461Y2659604D01*
X17875620Y2650823D01*
X17862999Y2642389D01*
X17850359Y2634813D01*
X17836963Y2627653D01*
X17823635Y2621350D01*
X17809599Y2615536D01*
X17795751Y2610580D01*
X17781189Y2606163D01*
X17766917Y2602587D01*
X17751976Y2599616D01*
X17737430Y2597459D01*
X17722314Y2595970D01*
X17707618Y2595247D01*
D02*
G37*
%LPC*%
G36*
X21033409Y1390188D02*
X20998591Y1390188D01*
X20954923Y1392333D01*
X20920266Y1395747D01*
X20877053Y1402158D01*
X20842872Y1408957D01*
X20800508Y1419568D01*
X20767149Y1429687D01*
X20726029Y1444400D01*
X20693831Y1457738D01*
X20654317Y1476427D01*
X20623625Y1492832D01*
X20586131Y1515305D01*
X20557169Y1534657D01*
X20522062Y1560694D01*
X20495145Y1582784D01*
X20462760Y1612136D01*
X20438136Y1636759D01*
X20408789Y1669137D01*
X20386682Y1696076D01*
X20360655Y1731171D01*
X20341311Y1760121D01*
X20318832Y1797625D01*
X20302427Y1828317D01*
X20283734Y1867837D01*
X20270407Y1900013D01*
X20255681Y1941170D01*
X20245572Y1974496D01*
X20234957Y2016872D01*
X20228157Y2051058D01*
X20221747Y2094266D01*
X20218333Y2128923D01*
X20216188Y2172591D01*
X20216188Y2207409D01*
X20218333Y2251077D01*
X20221747Y2285734D01*
X20228157Y2328942D01*
X20234957Y2363128D01*
X20245572Y2405504D01*
X20255681Y2438830D01*
X20270407Y2479987D01*
X20283734Y2512163D01*
X20302422Y2551674D01*
X20318840Y2582389D01*
X20341304Y2619868D01*
X20360651Y2648823D01*
X20386694Y2683939D01*
X20408788Y2710861D01*
X20438129Y2743233D01*
X20462772Y2767876D01*
X20495143Y2797215D01*
X20522064Y2819308D01*
X20557169Y2845343D01*
X20586131Y2864695D01*
X20623625Y2887168D01*
X20654317Y2903573D01*
X20693831Y2922262D01*
X20726029Y2935600D01*
X20767149Y2950313D01*
X20800508Y2960432D01*
X20842872Y2971043D01*
X20877053Y2977842D01*
X20920266Y2984253D01*
X20954923Y2987667D01*
X20998591Y2989812D01*
X21033409Y2989812D01*
X21077077Y2987667D01*
X21111734Y2984253D01*
X21154947Y2977842D01*
X21189128Y2971043D01*
X21231492Y2960432D01*
X21264851Y2950313D01*
X21305971Y2935600D01*
X21338169Y2922262D01*
X21377683Y2903573D01*
X21408375Y2887168D01*
X21445879Y2864689D01*
X21474829Y2845345D01*
X21509924Y2819318D01*
X21536868Y2797206D01*
X21569234Y2767870D01*
X21593870Y2743234D01*
X21623206Y2710868D01*
X21645318Y2683924D01*
X21671345Y2648829D01*
X21690689Y2619879D01*
X21713168Y2582375D01*
X21729573Y2551683D01*
X21748262Y2512169D01*
X21761600Y2479971D01*
X21776313Y2438851D01*
X21786432Y2405492D01*
X21797043Y2363128D01*
X21803842Y2328947D01*
X21810253Y2285734D01*
X21813667Y2251077D01*
X21815812Y2207409D01*
X21815812Y2172591D01*
X21813667Y2128923D01*
X21810253Y2094266D01*
X21803843Y2051058D01*
X21797043Y2016872D01*
X21786428Y1974496D01*
X21776319Y1941170D01*
X21761593Y1900013D01*
X21748266Y1867837D01*
X21729573Y1828317D01*
X21713168Y1797625D01*
X21690689Y1760121D01*
X21671345Y1731171D01*
X21645318Y1696076D01*
X21623206Y1669132D01*
X21593870Y1636766D01*
X21569234Y1612130D01*
X21536868Y1582794D01*
X21509924Y1560682D01*
X21474829Y1534655D01*
X21445879Y1515311D01*
X21408375Y1492832D01*
X21377683Y1476427D01*
X21338169Y1457738D01*
X21305971Y1444400D01*
X21264851Y1429687D01*
X21231492Y1419568D01*
X21189128Y1408957D01*
X21154947Y1402158D01*
X21111734Y1395747D01*
X21077077Y1392333D01*
X21033409Y1390188D01*
D02*
G37*
%LPC*%
G36*
X19001409Y1390188D02*
X18966591Y1390188D01*
X18922923Y1392333D01*
X18888266Y1395747D01*
X18845053Y1402158D01*
X18810872Y1408957D01*
X18768508Y1419568D01*
X18735149Y1429687D01*
X18694029Y1444400D01*
X18661831Y1457738D01*
X18622317Y1476427D01*
X18591625Y1492832D01*
X18554131Y1515305D01*
X18525169Y1534657D01*
X18490062Y1560694D01*
X18463145Y1582784D01*
X18430760Y1612136D01*
X18406136Y1636759D01*
X18376789Y1669137D01*
X18354682Y1696076D01*
X18328655Y1731171D01*
X18309311Y1760121D01*
X18286832Y1797625D01*
X18270427Y1828317D01*
X18251734Y1867837D01*
X18238407Y1900013D01*
X18223681Y1941170D01*
X18213572Y1974496D01*
X18202957Y2016872D01*
X18196157Y2051058D01*
X18189747Y2094266D01*
X18186333Y2128923D01*
X18184188Y2172591D01*
X18184188Y2207409D01*
X18186333Y2251077D01*
X18189747Y2285734D01*
X18196157Y2328942D01*
X18202957Y2363128D01*
X18213572Y2405504D01*
X18223681Y2438830D01*
X18238407Y2479987D01*
X18251734Y2512163D01*
X18270422Y2551674D01*
X18286840Y2582389D01*
X18309304Y2619868D01*
X18328651Y2648823D01*
X18354694Y2683939D01*
X18376788Y2710861D01*
X18406129Y2743233D01*
X18430772Y2767876D01*
X18463143Y2797215D01*
X18490064Y2819308D01*
X18525169Y2845343D01*
X18554131Y2864695D01*
X18591625Y2887168D01*
X18622317Y2903573D01*
X18661831Y2922262D01*
X18694029Y2935600D01*
X18735149Y2950313D01*
X18768508Y2960432D01*
X18810872Y2971043D01*
X18845053Y2977842D01*
X18888266Y2984253D01*
X18922923Y2987667D01*
X18966591Y2989812D01*
X19001409Y2989812D01*
X19045077Y2987667D01*
X19079734Y2984253D01*
X19122947Y2977842D01*
X19157128Y2971043D01*
X19199492Y2960432D01*
X19232851Y2950313D01*
X19273971Y2935600D01*
X19306169Y2922262D01*
X19345683Y2903573D01*
X19376375Y2887168D01*
X19413879Y2864689D01*
X19442829Y2845345D01*
X19477924Y2819318D01*
X19504868Y2797206D01*
X19537234Y2767870D01*
X19561870Y2743234D01*
X19591206Y2710868D01*
X19613318Y2683924D01*
X19639345Y2648829D01*
X19658689Y2619879D01*
X19681168Y2582375D01*
X19697573Y2551683D01*
X19716262Y2512169D01*
X19729600Y2479971D01*
X19744313Y2438851D01*
X19754432Y2405492D01*
X19765043Y2363128D01*
X19771842Y2328947D01*
X19778253Y2285734D01*
X19781667Y2251077D01*
X19783812Y2207409D01*
X19783812Y2172591D01*
X19781667Y2128923D01*
X19778253Y2094266D01*
X19771843Y2051058D01*
X19765043Y2016872D01*
X19754428Y1974496D01*
X19744319Y1941170D01*
X19729593Y1900013D01*
X19716266Y1867837D01*
X19697573Y1828317D01*
X19681168Y1797625D01*
X19658689Y1760121D01*
X19639345Y1731171D01*
X19613318Y1696076D01*
X19591206Y1669132D01*
X19561870Y1636766D01*
X19537234Y1612130D01*
X19504868Y1582794D01*
X19477924Y1560682D01*
X19442829Y1534655D01*
X19413879Y1515311D01*
X19376375Y1492832D01*
X19345683Y1476427D01*
X19306169Y1457738D01*
X19273971Y1444400D01*
X19232851Y1429687D01*
X19199492Y1419568D01*
X19157128Y1408957D01*
X19122947Y1402158D01*
X19079734Y1395747D01*
X19045077Y1392333D01*
X19001409Y1390188D01*
D02*
G37*
%LPC*%
G36*
X24937610Y1570327D02*
X24922374Y1570327D01*
X24907678Y1571050D01*
X24892562Y1572539D01*
X24878016Y1574696D01*
X24863075Y1577667D01*
X24848803Y1581243D01*
X24834241Y1585660D01*
X24820393Y1590616D01*
X24806357Y1596430D01*
X24793029Y1602733D01*
X24779633Y1609893D01*
X24766993Y1617469D01*
X24754372Y1625903D01*
X24742531Y1634684D01*
X24730779Y1644328D01*
X24719883Y1654204D01*
X24709116Y1664971D01*
X24699240Y1675867D01*
X24689596Y1687619D01*
X24680815Y1699460D01*
X24672381Y1712081D01*
X24664805Y1724721D01*
X24657645Y1738117D01*
X24651342Y1751445D01*
X24645528Y1765481D01*
X24640572Y1779329D01*
X24636155Y1793891D01*
X24632579Y1808163D01*
X24629608Y1823104D01*
X24627451Y1837650D01*
X24625962Y1852766D01*
X24625239Y1867462D01*
X24625239Y1882698D01*
X24625962Y1897394D01*
X24627451Y1912510D01*
X24629608Y1927056D01*
X24632579Y1941997D01*
X24636155Y1956269D01*
X24640572Y1970831D01*
X24645528Y1984679D01*
X24651342Y1998715D01*
X24657645Y2012043D01*
X24664805Y2025439D01*
X24672381Y2038079D01*
X24680815Y2050700D01*
X24689596Y2062541D01*
X24699240Y2074293D01*
X24709116Y2085189D01*
X24719883Y2095956D01*
X24730779Y2105832D01*
X24742531Y2115476D01*
X24754372Y2124257D01*
X24766993Y2132691D01*
X24779633Y2140267D01*
X24793029Y2147427D01*
X24806357Y2153730D01*
X24820393Y2159544D01*
X24834241Y2164500D01*
X24848803Y2168917D01*
X24863075Y2172493D01*
X24878016Y2175464D01*
X24892562Y2177621D01*
X24907678Y2179110D01*
X24922374Y2179833D01*
X24937610Y2179833D01*
X24952306Y2179110D01*
X24967422Y2177621D01*
X24981968Y2175464D01*
X24996909Y2172493D01*
X25011181Y2168917D01*
X25025743Y2164500D01*
X25039591Y2159544D01*
X25053627Y2153730D01*
X25066955Y2147427D01*
X25080351Y2140267D01*
X25092991Y2132691D01*
X25105612Y2124257D01*
X25117453Y2115476D01*
X25129205Y2105832D01*
X25140101Y2095956D01*
X25150868Y2085189D01*
X25160744Y2074293D01*
X25170388Y2062541D01*
X25179169Y2050700D01*
X25187603Y2038079D01*
X25195179Y2025439D01*
X25202339Y2012043D01*
X25208642Y1998715D01*
X25214456Y1984679D01*
X25219412Y1970831D01*
X25223829Y1956269D01*
X25227405Y1941997D01*
X25230376Y1927056D01*
X25232533Y1912510D01*
X25234022Y1897394D01*
X25234745Y1882698D01*
X25234745Y1867462D01*
X25234022Y1852766D01*
X25232533Y1837650D01*
X25230376Y1823104D01*
X25227405Y1808163D01*
X25223829Y1793891D01*
X25219412Y1779329D01*
X25214456Y1765481D01*
X25208642Y1751445D01*
X25202339Y1738117D01*
X25195179Y1724721D01*
X25187603Y1712081D01*
X25179169Y1699460D01*
X25170388Y1687619D01*
X25160744Y1675867D01*
X25150868Y1664971D01*
X25140101Y1654204D01*
X25129205Y1644328D01*
X25117453Y1634684D01*
X25105612Y1625903D01*
X25092991Y1617469D01*
X25080351Y1609893D01*
X25066955Y1602733D01*
X25053627Y1596430D01*
X25039591Y1590616D01*
X25025743Y1585660D01*
X25011181Y1581243D01*
X24996909Y1577667D01*
X24981968Y1574696D01*
X24967422Y1572539D01*
X24952306Y1571050D01*
X24937610Y1570327D01*
D02*
G37*
%LPC*%
G36*
X24937610Y670327D02*
X24922374Y670327D01*
X24907678Y671050D01*
X24892562Y672539D01*
X24878016Y674696D01*
X24863075Y677667D01*
X24848803Y681243D01*
X24834241Y685660D01*
X24820393Y690616D01*
X24806357Y696430D01*
X24793029Y702733D01*
X24779633Y709893D01*
X24766993Y717469D01*
X24754372Y725903D01*
X24742531Y734684D01*
X24730779Y744328D01*
X24719883Y754204D01*
X24709116Y764971D01*
X24699240Y775867D01*
X24689596Y787619D01*
X24680815Y799460D01*
X24672381Y812081D01*
X24664805Y824721D01*
X24657645Y838117D01*
X24651342Y851445D01*
X24645528Y865481D01*
X24640572Y879329D01*
X24636155Y893891D01*
X24632579Y908163D01*
X24629608Y923104D01*
X24627451Y937650D01*
X24625962Y952766D01*
X24625239Y967462D01*
X24625239Y982698D01*
X24625962Y997394D01*
X24627451Y1012510D01*
X24629608Y1027056D01*
X24632579Y1041997D01*
X24636155Y1056269D01*
X24640572Y1070831D01*
X24645528Y1084679D01*
X24651342Y1098715D01*
X24657645Y1112043D01*
X24664805Y1125439D01*
X24672381Y1138079D01*
X24680815Y1150700D01*
X24689596Y1162541D01*
X24699240Y1174293D01*
X24709116Y1185189D01*
X24719883Y1195956D01*
X24730779Y1205832D01*
X24742531Y1215476D01*
X24754372Y1224257D01*
X24766993Y1232691D01*
X24779633Y1240267D01*
X24793029Y1247427D01*
X24806357Y1253730D01*
X24820393Y1259544D01*
X24834241Y1264500D01*
X24848803Y1268917D01*
X24863075Y1272493D01*
X24878016Y1275464D01*
X24892562Y1277621D01*
X24907678Y1279110D01*
X24922374Y1279833D01*
X24937610Y1279833D01*
X24952306Y1279110D01*
X24967422Y1277621D01*
X24981968Y1275464D01*
X24996909Y1272493D01*
X25011181Y1268917D01*
X25025743Y1264500D01*
X25039591Y1259544D01*
X25053627Y1253730D01*
X25066955Y1247427D01*
X25080351Y1240267D01*
X25092991Y1232691D01*
X25105612Y1224257D01*
X25117453Y1215476D01*
X25129205Y1205832D01*
X25140101Y1195956D01*
X25150868Y1185189D01*
X25160744Y1174293D01*
X25170388Y1162541D01*
X25179169Y1150700D01*
X25187603Y1138079D01*
X25195179Y1125439D01*
X25202339Y1112043D01*
X25208642Y1098715D01*
X25214456Y1084679D01*
X25219412Y1070831D01*
X25223829Y1056269D01*
X25227405Y1041997D01*
X25230376Y1027056D01*
X25232533Y1012510D01*
X25234022Y997394D01*
X25234745Y982698D01*
X25234745Y967462D01*
X25234022Y952766D01*
X25232533Y937650D01*
X25230376Y923104D01*
X25227405Y908163D01*
X25223829Y893891D01*
X25219412Y879329D01*
X25214456Y865481D01*
X25208642Y851445D01*
X25202339Y838117D01*
X25195179Y824721D01*
X25187603Y812081D01*
X25179169Y799460D01*
X25170388Y787619D01*
X25160744Y775867D01*
X25150868Y764971D01*
X25140101Y754204D01*
X25129205Y744328D01*
X25117453Y734684D01*
X25105612Y725903D01*
X25092991Y717469D01*
X25080351Y709893D01*
X25066955Y702733D01*
X25053627Y696430D01*
X25039591Y690616D01*
X25025743Y685660D01*
X25011181Y681243D01*
X24996909Y677667D01*
X24981968Y674696D01*
X24967422Y672539D01*
X24952306Y671050D01*
X24937610Y670327D01*
D02*
G37*
G01*
%LPD*%
G75*
D10*
X9540000Y12000000D03*
D10*
X7000000Y12000000D03*
D11*
X4460000Y12000000D03*
D12*
X34905000Y19110000D03*
D13*
X31095000Y21650000D03*
D14*
X32365000Y19110000D03*
D12*
X33635000Y21650000D03*
D15*
X8905000Y19110000D03*
D16*
X5095000Y21650000D03*
D15*
X6365000Y19110000D03*
D17*
X7635000Y21650000D03*
D11*
X9540000Y15000000D03*
D11*
X7000000Y15000000D03*
D18*
X4460000Y15000000D03*
D18*
X22540000Y29000000D03*
D11*
X20000000Y29000000D03*
D19*
X17460000Y29000000D03*
D11*
X35540000Y15000000D03*
D11*
X33000000Y15000000D03*
D20*
X30460000Y15000000D03*
D18*
X35540000Y12000000D03*
D19*
X33000000Y12000000D03*
D11*
X30460000Y12000000D03*
D21*
X27618992Y888080D03*
D22*
X28300000Y3100000D03*
D22*
X21209000Y20193000D03*
D23*
X38862000Y10414000D03*
D24*
X19200000Y11700000D03*
D24*
X38862000Y13600000D03*
D22*
X26416000Y26535970D03*
D21*
X21000000Y18000000D03*
D25*
X13843000Y10668000D03*
D22*
X18900000Y15600000D03*
D23*
X38100000Y17145000D03*
D22*
X23500000Y5200000D03*
D25*
X23662000Y3138000D03*
D23*
X15600000Y11700000D03*
D25*
X35941000Y23150010D03*
D25*
X18923000Y10287000D03*
D23*
X11800000Y4200000D03*
D22*
X17700000Y2900000D03*
D21*
X21209000Y10668000D03*
D22*
X22900000Y11700000D03*
D25*
X27970000Y7829000D03*
D25*
X18684011Y23129011D03*
D22*
X25162000Y14562000D03*
D23*
X25162000Y13038000D03*
D25*
X11684000Y6350000D03*
D22*
X21590000Y6858000D03*
D21*
X24929992Y975080D03*
D22*
X25615614Y26535970D03*
D22*
X15875000Y16002000D03*
D22*
X22900000Y13400000D03*
D24*
X14351000Y26797000D03*
D25*
X27970000Y6813000D03*
D25*
X22900000Y15000000D03*
D22*
X21590000Y7620000D03*
D22*
X15600000Y13300000D03*
D26*
X18923000Y18415000D03*
D22*
X13843000Y9271000D03*
D21*
X15367000Y24638000D03*
D22*
X21336000Y22606000D03*
D22*
X18923000Y9525000D03*
D22*
X25430000Y7829000D03*
D22*
X25430000Y6813000D03*
D22*
X24929992Y1875080D03*
D22*
X17000000Y15000000D03*
D25*
X14351000Y16002000D03*
D22*
X38100000Y21463000D03*
D22*
X27618992Y1904080D03*
D22*
X17000000Y11700000D03*
D25*
X20200000Y15600000D03*
D22*
X20778155Y22598158D03*
D21*
X15600000Y15000000D03*
D22*
X18288000Y23622000D03*
M02*
