%FSLAX46Y46*%
%MOMM*%
%ADD10C,0.150000*%
G01*
G01*
%LPD*%
D10*
X15680000Y8315000D02*
X15680000Y8215000D01*
D10*
X17722000Y11681000D02*
X17122000Y11681000D01*
D10*
X28400000Y3600000D02*
X28400000Y5200000D01*
D10*
X21322000Y12281000D02*
X21322000Y11681000D01*
D10*
X23800000Y17200000D02*
X23800000Y17599999D01*
D10*
X16599999Y24800000D02*
X16200000Y24800000D01*
D10*
X15680000Y8315000D02*
X19730000Y8315000D01*
D10*
X17122000Y15081000D02*
X17722000Y15081000D01*
D10*
X23400001Y17200000D02*
X23800000Y17200000D01*
D10*
X15680000Y8215000D02*
X14380000Y8215000D01*
D10*
X21322000Y15081000D02*
X21322000Y14481000D01*
D10*
X21322000Y11681000D02*
X20722000Y11681000D01*
D10*
X39700000Y20904000D02*
X39700000Y18504000D01*
D10*
X17122000Y11681000D02*
X17122000Y12281000D01*
D10*
X16200000Y17200000D02*
X16599999Y17200000D01*
D10*
X16200000Y24800000D02*
X16200000Y24400001D01*
D10*
X16200000Y17599999D02*
X16200000Y17200000D01*
D10*
X16599999Y17200000D02*
X16599999Y15975000D01*
D10*
X17122000Y14481000D02*
X17122000Y15081000D01*
D10*
X23800000Y24400001D02*
X23800000Y24800000D01*
D10*
X25000000Y2600000D02*
X25000000Y5200000D01*
D10*
X23800000Y24800000D02*
X23400001Y24800000D01*
D10*
X15830001Y3115000D02*
X19729999Y3115000D01*
D10*
X36500000Y20104000D02*
X36500000Y18504000D01*
G75*
M02*
